<svg version="1.1" xmlns="http://www.w3.org/2000/svg" xmlns:xlink="http://www.w3.org/1999/xlink" width="19.1541" height="19.1541" viewBox="0,0,19.1541,19.1541"><g transform="translate(-310.42295,-170.42295)"><g data-paper-data="{&quot;isPaintingLayer&quot;:true}" stroke="none" stroke-width="1" stroke-linecap="butt" stroke-linejoin="miter" stroke-miterlimit="10" stroke-dasharray="" stroke-dashoffset="0" style="mix-blend-mode: normal"><path d="M314.1411,187.77431c-1.05785,0 -1.91541,-0.85756 -1.91541,-1.91541v-11.7178c0,-1.05785 0.85756,-1.91541 1.91541,-1.91541h11.7178c1.05785,0 1.91541,0.85756 1.91541,1.91541v11.7178c0,1.05785 -0.85756,1.91541 -1.91541,1.91541z" fill="#fefefe" fill-rule="evenodd"/><path d="M314.1411,170.42295h11.7178c1.01404,0 1.91541,0.45068 2.59144,1.12671v0c0.67603,0.67603 1.12671,1.5774 1.12671,2.59144v11.7178c0,1.01404 -0.45068,1.91541 -1.12671,2.59144v0c-0.67603,0.67603 -1.5774,1.12671 -2.59144,1.12671h-11.7178c-1.01404,0 -1.91541,-0.45068 -2.59144,-1.12671v0c-0.67603,-0.67603 -1.12671,-1.5774 -1.12671,-2.59144v-11.7178c0,-1.01404 0.45068,-1.91541 1.12671,-2.59144v0c0.67603,-0.67603 1.5774,-1.12671 2.59144,-1.12671zM314.1411,172.22569h11.7178c1.01404,0 1.91541,0.90137 1.91541,1.91541v11.7178c0,1.01404 -0.90137,1.91541 -1.91541,1.91541h-11.7178c-1.01404,0 -1.91541,-0.90137 -1.91541,-1.91541v-11.7178c0,-1.01404 0.90137,-1.91541 1.91541,-1.91541z" fill="#ef7f1a" fill-rule="evenodd"/><path d="M314.1411,170.42295h11.7178c0.45068,0 1.01404,0.11267 1.46473,0.33801c0.45068,0.11267 0.7887,0.45068 1.12671,0.7887h0.11267c0.33801,0.33801 0.56336,0.7887 0.7887,1.23938c0.11267,0.45068 0.22534,0.90137 0.22534,1.35205v11.7178c0,0.45068 -0.11267,1.01404 -0.22534,1.46473c-0.22534,0.45068 -0.45068,0.7887 -0.7887,1.12671l-0.11267,0.11267c-0.33801,0.33801 -0.67603,0.56336 -1.12671,0.7887c-0.45068,0.11267 -1.01404,0.22534 -1.46473,0.22534h-11.7178c-0.45068,0 -0.90137,-0.11267 -1.35205,-0.22534c-0.45068,-0.22534 -0.90137,-0.45068 -1.23938,-0.7887v-0.11267c-0.33801,-0.33801 -0.67603,-0.67603 -0.7887,-1.12671c-0.22534,-0.45068 -0.33801,-1.01404 -0.33801,-1.46473v-11.7178c0,-0.45068 0.11267,-0.90137 0.33801,-1.35205c0.11267,-0.45068 0.45068,-0.90137 0.7887,-1.23938v0c0.33801,-0.33801 0.7887,-0.67603 1.23938,-0.7887c0.45068,-0.22534 0.90137,-0.33801 1.35205,-0.33801zM325.8589,170.53562h-11.7178c-0.45068,0 -0.90137,0.11267 -1.35205,0.22534c-0.45068,0.22534 -0.7887,0.45068 -1.12671,0.7887l-0.11267,0.11267c-0.33801,0.33801 -0.56336,0.67603 -0.7887,1.12671c-0.11267,0.45068 -0.22534,0.90137 -0.22534,1.35205v11.7178c0,0.45068 0.11267,0.90137 0.22534,1.35205c0.22534,0.45068 0.45068,0.90137 0.7887,1.23938h0.11267c0.33801,0.33801 0.67603,0.56336 1.12671,0.7887c0.45068,0.22534 0.90137,0.22534 1.35205,0.22534h11.7178c0.45068,0 0.90137,0 1.35205,-0.22534c0.45068,-0.22534 0.90137,-0.45068 1.23938,-0.7887v0c0.33801,-0.33801 0.56336,-0.7887 0.7887,-1.23938c0.22534,-0.45068 0.22534,-0.90137 0.22534,-1.35205v-11.7178c0,-0.45068 0,-0.90137 -0.22534,-1.35205c-0.22534,-0.45068 -0.45068,-0.7887 -0.7887,-1.12671v-0.11267c-0.33801,-0.33801 -0.7887,-0.56336 -1.23938,-0.7887c-0.45068,-0.11267 -0.90137,-0.22534 -1.35205,-0.22534zM314.1411,172.22569h11.7178c0.56336,0 1.01404,0.22534 1.35205,0.56336c0.45068,0.33801 0.67603,0.90137 0.67603,1.35205v11.7178c0,0.56336 -0.22534,1.01404 -0.67603,1.35205c-0.33801,0.45068 -0.7887,0.67603 -1.35205,0.67603h-11.7178c-0.45068,0 -1.01404,-0.22534 -1.35205,-0.67603c-0.33801,-0.33801 -0.56336,-0.7887 -0.56336,-1.35205v-11.7178c0,-0.45068 0.22534,-1.01404 0.56336,-1.35205c0.33801,-0.33801 0.90137,-0.56336 1.35205,-0.56336zM325.8589,172.33836h-11.7178c-0.45068,0 -0.90137,0.11267 -1.23938,0.56336c-0.45068,0.33801 -0.56336,0.7887 -0.56336,1.23938v11.7178c0,0.56336 0.11267,1.01404 0.56336,1.35205c0.33801,0.33801 0.7887,0.56336 1.23938,0.56336h11.7178c0.56336,0 1.01404,-0.22534 1.35205,-0.56336c0.33801,-0.33801 0.56336,-0.7887 0.56336,-1.35205v-11.7178c0,-0.45068 -0.22534,-0.90137 -0.56336,-1.23938c-0.33801,-0.45068 -0.7887,-0.56336 -1.35205,-0.56336z" fill="#fefefe" fill-rule="nonzero"/><g fill-rule="nonzero"><path d="M318.99379,178.47894l0.33801,0.67603l-2.14075,1.01404l-2.25342,-1.01404l0.33801,-0.67603l-1.01404,-1.23938l1.12671,-1.12671l-0.45068,-0.67603l2.25342,-1.12671l2.14075,1.12671c0,0 -0.22534,0.45068 -0.33801,0.67603l1.01404,1.12671z" fill="#00abe8"/><path d="M314.93763,175.43682l0.45068,0.67603l-1.12671,1.12671l1.01404,1.23938l-0.33801,0.67603l2.25342,1.01404l2.14075,-1.01404l-0.33801,-0.67603l1.01404,-1.23938l-1.01404,-1.12671c0.11267,-0.22534 0.33801,-0.67603 0.33801,-0.67603l-2.14075,-1.12671zM317.30372,174.08476l2.25342,1.01404c0,0.11267 0.11267,0.11267 0.11267,0.22534c0,0.11267 0,0.22534 0,0.22534c-0.11267,0.11267 -0.22534,0.33801 -0.33801,0.45068c0.11267,0.11267 0.22534,0.22534 0.45068,0.45068c0.22534,0.33801 0.45068,0.56336 0.45068,0.56336c0.11267,0.11267 0.11267,0.11267 0.11267,0.22534v0c0,0.11267 0,0.11267 -0.11267,0.22534l-0.90137,1.01404l0.33801,0.45068c0,0.11267 0,0.22534 0,0.22534c0,0.11267 -0.11267,0.22534 -0.11267,0.22534l-2.25342,1.01404c-0.11267,0 -0.11267,0.11267 -0.11267,0.11267v0v0v0v0v0v0c-0.11267,0 -0.11267,-0.11267 -0.22534,-0.11267l-2.14075,-1.01404c-0.11267,0 -0.22534,-0.11267 -0.22534,-0.22534c0,0 0,-0.11267 0,-0.22534l0.33801,-0.45068l-0.90137,-1.01404c-0.11267,-0.11267 -0.11267,-0.33801 0,-0.45068l0.90137,-1.01404l-0.33801,-0.45068c0,-0.11267 0,-0.11267 0,-0.22534c0,-0.11267 0.11267,-0.22534 0.22534,-0.22534l2.14075,-1.01404c0.11267,0 0.11267,0 0.22534,0c0,0 0,0 0.11267,0z" fill="#4e4e50"/><path d="M317.97975,175.0988c-0.11267,0.56336 -0.56336,0.90137 -0.67603,1.01404c-0.11267,0 -0.45068,0.33801 -0.56336,0.67603l0.90137,0.11267c-0.11267,-0.22534 -0.33801,-0.45068 -0.33801,-0.45068l0.22534,-0.22534c0,0 0.45068,0.33801 0.45068,1.01404c0,0.56336 -0.45068,1.01404 -0.7887,1.35205c-0.22534,0.22534 -0.33801,0.33801 -0.45068,0.45068l0.7887,0.11267c0,-0.22534 -0.11267,-0.33801 -0.22534,-0.45068l0.22534,-0.11267c0,0 0.45068,0.33801 0.45068,0.7887c0,0.33801 -0.22534,0.22534 -0.22534,0c0,0 0,0 -0.11267,-0.11267h-0.90137v0c0,0 -0.11267,0.33801 -0.22534,0.33801c-0.22534,0 -0.11267,-0.22534 -0.11267,-0.22534c0.11267,-0.67603 0.56336,-0.90137 0.90137,-1.35205c0.11267,-0.11267 0.22534,-0.22534 0.22534,-0.33801h-0.7887c0.11267,0.22534 0.33801,0.45068 0.33801,0.45068l-0.22534,0.22534c-0.7887,-0.67603 -0.56336,-1.23938 -0.45068,-1.69007c0.22534,-0.33801 0.56336,-0.67603 0.7887,-0.90137c0.11267,-0.11267 0.22534,-0.22534 0.33801,-0.33801h-0.67603c0.11267,0.22534 0.11267,0.33801 0.11267,0.33801l-0.11267,0.11267c-0.45068,-0.33801 -0.56336,-0.67603 -0.56336,-0.67603c0,0 0,-0.22534 0.11267,-0.33801c0.22534,0 0.22534,0.22534 0.22534,0.22534c0,0 0,0.11267 0.11267,0.22534h0.90137c0,-0.11267 0,-0.22534 0,-0.22534c0,0 0,-0.22534 0.22534,-0.22534c0.11267,0 0.11267,0.22534 0.11267,0.22534zM316.6277,177.01421c0,0.11267 0,0.11267 0,0.22534c0,0.11267 0,0.22534 0,0.22534h1.01404c0,-0.11267 0,-0.33801 0,-0.45068z" fill="#4e4e50"/></g><path d="M322.90095,176.70169c-0.63582,0 -1.19217,-0.47687 -1.19217,-1.19216c0,-0.63582 0.55635,-1.11269 1.19217,-1.11269c0.63582,0 1.19217,0.47687 1.19217,1.11269c0,0.7153 -0.55635,1.19216 -1.19217,1.19216z" fill="#e63331" fill-rule="nonzero"/><path d="M322.90095,176.86064c-0.7153,0 -1.35113,-0.55634 -1.35113,-1.35112c0,-0.7153 0.63582,-1.27164 1.35113,-1.27164c0.7153,0 1.27165,0.55634 1.35113,1.27164v0.07948c-0.07948,0.7153 -0.63582,1.27164 -1.35113,1.27164zM322.90095,174.47631c-0.55635,0 -1.03321,0.47687 -1.03321,1.03321c0,0.63582 0.47687,1.11269 1.03321,1.11269c0.55635,0 1.03321,-0.47687 1.03321,-1.11269c0,-0.55634 -0.47687,-1.03321 -1.03321,-1.03321z" fill="#5a3547" fill-rule="nonzero"/><path d="M324.64946,178.68862c-0.63582,0 -1.19217,-0.55634 -1.19217,-1.19216c0,-0.63582 0.55635,-1.19216 1.19217,-1.19216c0.7153,0 1.19217,0.55634 1.19217,1.19216c0,0.63582 -0.47687,1.19216 -1.19217,1.19216z" fill="#e63331" fill-rule="nonzero"/><path d="M324.64946,178.84757c-0.7153,0 -1.27165,-0.63582 -1.27165,-1.35112c0,-0.7153 0.55635,-1.35112 1.27165,-1.35112c0.7153,0 1.35113,0.63582 1.35113,1.35112v0.07948c0,0.7153 -0.63582,1.27164 -1.35113,1.27164zM324.64946,176.46325c-0.55635,0 -1.03321,0.47687 -1.03321,1.03321c0,0.55634 0.47687,1.03321 1.03321,1.03321c0.63582,0 1.11269,-0.47687 1.11269,-1.03321c0,-0.55634 -0.47687,-1.03321 -1.11269,-1.03321z" fill="#5a3547" fill-rule="nonzero"/><g fill-rule="nonzero"><path d="M322.93881,186.60996c-0.52996,0 -0.98421,-0.30283 -1.28704,-0.9842c-0.15142,0.07571 -0.37854,0.22712 -0.45425,0.30283c-0.07571,0 -0.07571,0.07571 -0.15142,0.07571l-0.07571,-0.07571c-0.68137,-0.60566 -1.05992,-1.43845 -1.05992,-2.34695c0,-0.90849 0.37854,-1.74128 1.05992,-2.27124c0,-0.07571 0.07571,-0.07571 0.07571,-0.07571c0.07571,0 0.07571,0 0.15142,0.07571c0.07571,0.07571 0.30283,0.15142 0.45425,0.22712c0.30283,-0.60566 0.75708,-0.9842 1.28704,-0.9842c0.45425,0 0.9085,0.37854 1.21133,0.9842c0.15142,-0.07571 0.37854,-0.15142 0.45425,-0.22712c0.07571,-0.07571 0.07571,-0.07571 0.15142,-0.07571c0,0 0.07571,0 0.07571,0.07571c0.68137,0.52996 1.13562,1.36274 1.13562,2.27124c0,0.90849 -0.45425,1.74128 -1.13562,2.34695l-0.07571,0.07571c-0.07571,0 -0.07571,-0.07571 -0.15142,-0.07571c-0.07571,-0.07571 -0.30283,-0.22712 -0.45425,-0.30283c-0.30283,0.68137 -0.75708,0.9842 -1.21133,0.9842z" fill="#4e4e50"/><path d="M321.72748,181.76465v0c0,0 -0.45425,-0.22712 -0.68137,-0.37854c-0.60567,0.52996 -0.98421,1.36274 -0.98421,2.19553c0,0.90849 0.37854,1.66557 0.98421,2.19553c0.22712,-0.15142 0.68137,-0.30283 0.68137,-0.30283v0c0.30283,0.60566 0.68137,0.9842 1.21133,0.9842c0.45425,0 0.83279,-0.37854 1.13562,-0.9842v0c0,0 0.45425,0.15142 0.68137,0.30283c0.60567,-0.52996 0.98421,-1.28703 0.98421,-2.19553c0,-0.83279 -0.37854,-1.66557 -0.98421,-2.19553c-0.22712,0.15142 -0.68137,0.37854 -0.68137,0.37854v0c-0.30283,-0.60566 -0.68137,-1.05991 -1.13562,-1.05991c-0.52996,0 -0.9085,0.45425 -1.21133,1.05991zM324.22585,181.3104c0.15142,0 0.22712,-0.07571 0.30283,-0.15142c0.07571,-0.07571 0.15142,-0.07571 0.22712,-0.07571c0.07571,0 0.15142,0 0.22712,0.07571c0.68137,0.60566 1.13562,1.51416 1.13562,2.42265c0,0.9842 -0.45425,1.8927 -1.13562,2.49836c-0.07571,0 -0.15142,0.07571 -0.22712,0.07571c-0.07571,0 -0.15142,-0.07571 -0.22712,-0.07571c-0.07571,-0.07571 -0.15142,-0.15142 -0.30283,-0.22712c-0.30283,0.60566 -0.83279,0.90849 -1.28704,0.90849c-0.52996,0 -0.98421,-0.30283 -1.36275,-0.90849c-0.07571,0.07571 -0.22712,0.15142 -0.30283,0.22712c-0.07571,0 -0.15142,0.07571 -0.22712,0.07571c-0.07571,0 -0.15142,-0.07571 -0.15142,-0.07571c-0.75708,-0.60566 -1.21133,-1.51416 -1.21133,-2.49836c0,-0.90849 0.45425,-1.81699 1.21133,-2.42265c0,-0.07571 0.07571,-0.07571 0.15142,-0.07571c0.07571,0 0.15142,0 0.22712,0.07571c0.07571,0.07571 0.22712,0.15142 0.30283,0.15142c0.37854,-0.52996 0.83279,-0.90849 1.36275,-0.90849c0.45425,0 0.98421,0.37854 1.28704,0.90849z" fill="#4e4e50"/><path d="M322.93881,186.60996c-0.52996,0 -0.98421,-0.30283 -1.28704,-0.9842c-0.15142,0.07571 -0.37854,0.22712 -0.45425,0.30283c-0.07571,0 -0.07571,0.07571 -0.15142,0.07571l-0.07571,-0.07571c-0.68137,-0.60566 -1.05992,-1.43845 -1.05992,-2.34695c0,-0.90849 0.37854,-1.74128 1.05992,-2.27124c0,-0.07571 0.07571,-0.07571 0.07571,-0.07571c0.07571,0 0.07571,0 0.15142,0.07571c0.07571,0.07571 0.30283,0.15142 0.45425,0.22712c0.30283,-0.60566 0.75708,-0.9842 1.28704,-0.9842c0.45425,0 0.9085,0.37854 1.21133,0.9842c0.15142,-0.07571 0.37854,-0.15142 0.45425,-0.22712c0.07571,-0.07571 0.07571,-0.07571 0.15142,-0.07571c0,0 0.07571,0 0.07571,0.07571c0.68137,0.52996 1.13562,1.36274 1.13562,2.27124c0,0.90849 -0.45425,1.74128 -1.13562,2.34695l-0.07571,0.07571c-0.07571,0 -0.07571,-0.07571 -0.15142,-0.07571c-0.07571,-0.07571 -0.30283,-0.22712 -0.45425,-0.30283c-0.30283,0.68137 -0.75708,0.9842 -1.21133,0.9842z" fill="#fecf1e"/><path d="M321.72748,181.76465v0c0,0 -0.45425,-0.22712 -0.68137,-0.37854c-0.60567,0.52996 -0.98421,1.36274 -0.98421,2.19553c0,0.90849 0.37854,1.66557 0.98421,2.19553c0.22712,-0.15142 0.68137,-0.30283 0.68137,-0.30283v0c0.30283,0.60566 0.68137,0.9842 1.21133,0.9842c0.45425,0 0.83279,-0.37854 1.13562,-0.9842v0c0,0 0.45425,0.15142 0.68137,0.30283c0.60567,-0.52996 0.98421,-1.28703 0.98421,-2.19553c0,-0.83279 -0.37854,-1.66557 -0.98421,-2.19553c-0.22712,0.15142 -0.68137,0.37854 -0.68137,0.37854v0c-0.30283,-0.60566 -0.68137,-1.05991 -1.13562,-1.05991c-0.52996,0 -0.9085,0.45425 -1.21133,1.05991zM324.22585,181.3104c0.15142,0 0.22712,-0.07571 0.30283,-0.15142c0.07571,-0.07571 0.15142,-0.07571 0.22712,-0.07571c0.07571,0 0.15142,0 0.22712,0.07571c0.68137,0.60566 1.13562,1.51416 1.13562,2.42265c0,0.9842 -0.45425,1.8927 -1.13562,2.49836c-0.07571,0 -0.15142,0.07571 -0.22712,0.07571c-0.07571,0 -0.15142,-0.07571 -0.22712,-0.07571c-0.07571,-0.07571 -0.15142,-0.15142 -0.30283,-0.22712c-0.30283,0.60566 -0.83279,0.90849 -1.28704,0.90849c-0.52996,0 -0.98421,-0.30283 -1.36275,-0.90849c-0.07571,0.07571 -0.22712,0.15142 -0.30283,0.22712c-0.07571,0 -0.15142,0.07571 -0.22712,0.07571c-0.07571,0 -0.15142,-0.07571 -0.15142,-0.07571c-0.75708,-0.60566 -1.21133,-1.51416 -1.21133,-2.49836c0,-0.90849 0.45425,-1.81699 1.21133,-2.42265c0,-0.07571 0.07571,-0.07571 0.15142,-0.07571c0.07571,0 0.15142,0 0.22712,0.07571c0.07571,0.07571 0.22712,0.15142 0.30283,0.15142c0.37854,-0.52996 0.83279,-0.90849 1.36275,-0.90849c0.45425,0 0.98421,0.37854 1.28704,0.90849z" fill="#4e4e50"/><path d="M322.10602,185.70146c0.07571,-0.45425 0.52996,-0.90849 0.60567,-0.9842c0.07571,-0.07571 0.45425,-0.37854 0.60567,-0.68137l-0.9085,-0.07571c0.15142,0.22712 0.37854,0.45425 0.37854,0.45425l-0.22712,0.22712c0,0 -0.45425,-0.37854 -0.52996,-0.9842c0,-0.68137 0.45425,-1.05991 0.83279,-1.36274c0.22712,-0.22712 0.30283,-0.37854 0.37854,-0.52996h-0.75708c0.07571,0.15142 0.22712,0.30283 0.30283,0.37854l-0.22712,0.15142c0,0 -0.45425,-0.37854 -0.45425,-0.75708c-0.07571,-0.37854 0.22712,-0.22712 0.22712,-0.07571c0,0 0,0.07571 0.07571,0.15142h0.9085v0c0,0 0.07571,-0.37854 0.22712,-0.37854c0.15142,0.07571 0.15142,0.30283 0.15142,0.30283c-0.15142,0.60566 -0.60567,0.83279 -0.98421,1.28703c-0.15142,0.07571 -0.15142,0.22712 -0.22712,0.30283l0.83279,0.07571c-0.07571,-0.30283 -0.30283,-0.52996 -0.30283,-0.52996l0.22712,-0.15142c0.68137,0.60566 0.52996,1.21133 0.37854,1.58987c-0.15142,0.45425 -0.52996,0.75708 -0.75708,0.90849c-0.15142,0.07571 -0.22712,0.22712 -0.30283,0.37854h0.68137c-0.07571,-0.15142 -0.22712,-0.30283 -0.22712,-0.30283l0.22712,-0.22712c0.37854,0.37854 0.45425,0.83279 0.45425,0.83279c0,0 0.07571,0.15142 -0.07571,0.22712c-0.15142,0 -0.22712,-0.15142 -0.22712,-0.15142c0,-0.07571 0,-0.15142 -0.07571,-0.22712h-0.83279c-0.07571,0.07571 -0.07571,0.15142 -0.07571,0.15142c0,0 -0.07571,0.30283 -0.22712,0.22712c-0.15142,0 -0.07571,-0.22712 -0.07571,-0.22712zM323.39306,183.80876c0,-0.07571 0.07571,-0.15142 0.07571,-0.15142c0,-0.15142 0,-0.22712 -0.07571,-0.30283h-0.98421c0,0.15142 0,0.30283 0,0.45425z" fill="#4e4e50"/></g></g></g></svg>