<svg version="1.1" xmlns="http://www.w3.org/2000/svg" xmlns:xlink="http://www.w3.org/1999/xlink" width="19.1542" height="19.1541" viewBox="0,0,19.1542,19.1541"><g transform="translate(-310.4229,-170.42295)"><g data-paper-data="{&quot;isPaintingLayer&quot;:true}" stroke="none" stroke-width="1" stroke-linecap="butt" stroke-linejoin="miter" stroke-miterlimit="10" stroke-dasharray="" stroke-dashoffset="0" style="mix-blend-mode: normal"><g><path d="M314.12675,187.77805c-1.05201,0 -1.90484,-0.85282 -1.90484,-1.90483v-11.74644c0,-1.05201 0.85282,-1.90483 1.90484,-1.90483h11.7465c1.05201,0 1.90484,0.85282 1.90484,1.90483v11.74644c0,1.05201 -0.85282,1.90483 -1.90484,1.90483z" fill="#fefefe" fill-rule="evenodd"/><path d="M314.23258,170.42295h11.64067c0.95242,0 1.90484,0.4233 2.53978,1.16406v0c0.74077,0.63494 1.16407,1.58736 1.16407,2.64559v11.64061c0,0.95241 -0.4233,1.90483 -1.16407,2.53977v0c-0.63495,0.74077 -1.58736,1.16406 -2.53978,1.16406h-11.64067c-1.05824,0 -2.01066,-0.4233 -2.64561,-1.16406v0c-0.74077,-0.63494 -1.16407,-1.58736 -1.16407,-2.53977v-11.64061c0,-1.05824 0.4233,-2.01065 1.16407,-2.64559v0c0.63495,-0.74077 1.58736,-1.16406 2.64561,-1.16406zM314.23258,172.22195h11.64067c1.05824,0 1.90484,0.84659 1.90484,2.01065v11.64061c0,1.05824 -0.84659,1.90483 -1.90484,1.90483h-11.64067c-1.16407,0 -2.01066,-0.84659 -2.01066,-1.90483v-11.64061c0,-1.16406 0.84659,-2.01065 2.01066,-2.01065z" fill="#ef7f1a" fill-rule="evenodd"/><path d="M314.23258,170.42295h11.64067c0.4233,0 0.95242,0.10582 1.37572,0.31747c0.52912,0.21165 0.84659,0.4233 1.26989,0.74077v0.10582c0.31747,0.31747 0.63495,0.74077 0.84659,1.16406c0.10582,0.4233 0.21165,0.95241 0.21165,1.48153v11.64061c0,0.4233 -0.10582,0.95241 -0.21165,1.37571c-0.21165,0.52912 -0.52912,0.84659 -0.84659,1.26989v0c-0.4233,0.31747 -0.74077,0.63494 -1.26989,0.84659c-0.4233,0.10582 -0.95242,0.21165 -1.37572,0.21165h-11.64067c-0.52912,0 -1.05824,-0.10582 -1.48154,-0.21165c-0.4233,-0.21165 -0.84659,-0.52912 -1.16407,-0.84659h-0.10582c-0.31747,-0.4233 -0.52912,-0.74077 -0.74077,-1.26989c-0.21165,-0.4233 -0.31747,-0.95241 -0.31747,-1.37571v-11.64061c0,-0.52912 0.10582,-1.05824 0.31747,-1.48153c0.21165,-0.4233 0.4233,-0.84659 0.74077,-1.16406l0.10582,-0.10582c0.31747,-0.31747 0.74077,-0.52912 1.16407,-0.74077c0.4233,-0.21165 0.95242,-0.31747 1.48154,-0.31747zM325.87325,170.52877h-11.64067c-0.52912,0 -0.95242,0.10582 -1.48154,0.31747c-0.4233,0.10582 -0.84659,0.4233 -1.16407,0.74077v0c-0.31747,0.31747 -0.63495,0.74077 -0.74077,1.16406c-0.21165,0.52912 -0.31747,0.95241 -0.31747,1.48153v11.64061c0,0.4233 0.10582,0.95241 0.31747,1.37571c0.10582,0.4233 0.4233,0.84659 0.74077,1.16406v0c0.31747,0.31747 0.74077,0.63494 1.16407,0.84659c0.52912,0.10582 0.95242,0.21165 1.48154,0.21165h11.64067c0.4233,0 0.95242,-0.10582 1.37572,-0.21165c0.4233,-0.21165 0.84659,-0.52912 1.16407,-0.84659v0c0.31747,-0.31747 0.63495,-0.74077 0.84659,-1.16406c0.10582,-0.4233 0.21165,-0.95241 0.21165,-1.37571v-11.64061c0,-0.52912 -0.10582,-0.95241 -0.21165,-1.48153c-0.21165,-0.4233 -0.52912,-0.84659 -0.84659,-1.16406v0c-0.31747,-0.31747 -0.74077,-0.63494 -1.16407,-0.74077c-0.4233,-0.21165 -0.95242,-0.31747 -1.37572,-0.31747zM314.23258,172.22195h11.64067c0.52912,0 1.05824,0.21165 1.37572,0.52912c0.31747,0.4233 0.63495,0.84659 0.63495,1.48153v11.64061c0,0.52912 -0.31747,1.05824 -0.63495,1.37571c-0.31747,0.31747 -0.84659,0.63494 -1.37572,0.63494h-11.64067c-0.63495,0 -1.05824,-0.31747 -1.48154,-0.63494c-0.31747,-0.31747 -0.52912,-0.84659 -0.52912,-1.37571v-11.64061c0,-0.63494 0.21165,-1.05824 0.52912,-1.48153c0.4233,-0.31747 0.84659,-0.52912 1.48154,-0.52912zM325.87325,172.32778h-11.64067c-0.52912,0 -1.05824,0.21165 -1.37572,0.52912c-0.31747,0.31747 -0.52912,0.84659 -0.52912,1.37571v11.64061c0,0.52912 0.21165,0.95241 0.52912,1.26989c0.31747,0.4233 0.84659,0.63494 1.37572,0.63494h11.64067c0.52912,0 0.95242,-0.21165 1.26989,-0.63494c0.4233,-0.31747 0.63495,-0.74077 0.63495,-1.26989v-11.64061c0,-0.52912 -0.21165,-1.05824 -0.63495,-1.37571c-0.31747,-0.31747 -0.74077,-0.52912 -1.26989,-0.52912z" fill="#fefefe" fill-rule="nonzero"/><path d="M316.98401,182.38103c-0.10582,0.10582 -0.21165,0.10582 -0.31747,0c-0.10582,-0.10582 -0.10582,-0.31747 0,-0.4233l4.3388,-4.65625c0.10582,-0.10582 0.31747,-0.10582 0.31747,0c0.10582,0.10582 0.10582,0.31747 0.10582,0.31747z" fill="#2b2a29" fill-rule="nonzero"/><path d="M324.07424,176.4549c-0.63495,0 -1.16407,-0.52912 -1.16407,-1.16406c0,-0.63494 0.52912,-1.16406 1.16407,-1.16406c0.74077,0 1.26989,0.52912 1.26989,1.16406c0,0.63494 -0.52912,1.16406 -1.26989,1.16406z" fill="#e63331" fill-rule="nonzero"/><path d="M324.07424,176.56073c-0.74077,0 -1.26989,-0.52912 -1.26989,-1.26989c0,-0.74077 0.52912,-1.37571 1.26989,-1.37571c0.74077,0 1.37572,0.63494 1.37572,1.37571v0c0,0.74077 -0.63495,1.26989 -1.37572,1.26989zM324.07424,174.23261c-0.52912,0 -1.05824,0.4233 -1.05824,1.05824c0,0.52912 0.52912,1.05824 1.05824,1.05824c0.63495,0 1.05824,-0.52912 1.05824,-1.05824c0,-0.63494 -0.4233,-1.05824 -1.05824,-1.05824z" fill="#5a3547" fill-rule="nonzero"/><path d="M321.21698,185.87322c0,0 0,0 -0.10582,0l-1.58736,-1.58736v-0.10582v-2.2223c0,-0.10582 0,-0.10582 0,-0.10582l1.58736,-1.69318c0.10582,0 0.10582,0 0.10582,0h2.32813h0.10582l1.58736,1.69318c0,0 0,0 0,0.10582v2.2223v0.10582l-1.58736,1.58736h-0.10582z" fill="#ed7f32" fill-rule="nonzero"/><path d="M321.21698,180.26456l-1.58736,1.69318v2.2223l1.58736,1.58736h2.32813l1.58736,-1.58736v-2.2223l-1.58736,-1.69318zM325.34413,184.39169l-1.58736,1.58736c-0.10582,0.10582 -0.10582,0.10582 -0.21165,0.10582v0h-2.32813v0c0,0 -0.10582,0 -0.21165,-0.10582l-1.58736,-1.58736c0,-0.10582 -0.10582,-0.10582 -0.10582,-0.21165v-2.2223c0,-0.10582 0.10582,-0.21165 0.10582,-0.21165l1.58736,-1.69318c0.10582,0 0.21165,0 0.21165,0v0h2.32813v0c0.10582,0 0.10582,0 0.21165,0l1.58736,1.69318l0.10582,0.10582v2.32812c0,0.10582 -0.10582,0.10582 -0.10582,0.21165z" fill="#fefefe" fill-rule="nonzero"/><path d="M323.22764,181.00533c-0.21165,0.4233 -0.63495,0.84659 -0.63495,0.95241c-0.10582,0.10582 -0.4233,0.31747 -0.63495,0.74077h0.84659c-0.10582,-0.21165 -0.31747,-0.4233 -0.31747,-0.4233l0.21165,-0.21165c0,0 0.4233,0.31747 0.52912,0.95241c0,0.63494 -0.4233,0.95241 -0.74077,1.26989c-0.21165,0.21165 -0.31747,0.4233 -0.4233,0.52912h0.74077c-0.10582,-0.10582 -0.21165,-0.21165 -0.31747,-0.31747l0.21165,-0.21165c0,0 0.4233,0.4233 0.52912,0.74077c0,0.31747 -0.31747,0.21165 -0.31747,0.10582v-0.10582l-0.95242,-0.10582c0,0.10582 0,0.10582 0,0.10582c0,0 0,0.31747 -0.21165,0.31747c-0.10582,-0.10582 -0.10582,-0.31747 -0.10582,-0.31747c0.10582,-0.63494 0.63495,-0.84659 0.95242,-1.16406c0.10582,-0.21165 0.21165,-0.31747 0.21165,-0.4233h-0.84659c0.10582,0.31747 0.31747,0.4233 0.31747,0.4233l-0.21165,0.21165c-0.63495,-0.52912 -0.52912,-1.16406 -0.31747,-1.48153c0.10582,-0.4233 0.52912,-0.74077 0.63495,-0.95241c0.21165,-0.10582 0.31747,-0.21165 0.31747,-0.31747h-0.63495c0.10582,0.10582 0.21165,0.31747 0.21165,0.31747l-0.21165,0.10582c-0.31747,-0.31747 -0.4233,-0.74077 -0.4233,-0.74077c0,0 -0.10582,-0.10582 0.10582,-0.21165c0.10582,0 0.10582,0.10582 0.10582,0.10582c0.10582,0.10582 0.10582,0.21165 0.10582,0.21165h0.84659l0.10582,-0.10582c0,0 0,-0.21165 0.21165,-0.21165c0.10582,0 0.10582,0.21165 0.10582,0.21165zM321.95775,182.80433c-0.10582,0.10582 -0.10582,0.10582 -0.10582,0.21165c0,0.10582 0,0.21165 0,0.21165l1.05824,0.10582c0,-0.21165 0,-0.4233 0,-0.52912z" fill="#fefefe" fill-rule="nonzero"/><path d="M317.72478,179.41797h-2.75143c-0.10582,0 -0.10582,-0.10582 -0.10582,-0.21165v-2.75142c0,0 0,-0.10582 0.10582,-0.10582h2.75143c0.10582,0 0.10582,0.10582 0.10582,0.10582v2.75142c0,0.10582 0,0.21165 -0.10582,0.21165z" fill="#fcc127" fill-rule="nonzero"/><path d="M318.04225,176.13743c0,0 0.10582,0 0.10582,0.10582v0v3.28054l-0.10582,0.10582h-1.69319h-1.58736c-0.10582,0 -0.21165,-0.10582 -0.21165,-0.10582v0v-3.28054c0,-0.10582 0.10582,-0.10582 0.21165,-0.10582h0.21165c0.10582,0 0.10582,-0.10582 0.10582,-0.21165v-0.52912c0,-0.10582 0,-0.4233 0.31747,-0.74077c0.21165,-0.21165 0.4233,-0.4233 0.84659,-0.4233v0h0.21165c0.4233,0 0.74077,0.21165 0.95242,0.4233c0.31747,0.31747 0.21165,0.63494 0.21165,0.74077v0.52912c0,0.10582 0.10582,0.21165 0.21165,0.21165zM315.60829,175.39667v0.52912c0,0.10582 0.10582,0.21165 0.10582,0.21165h1.26989c0.10582,0 0.10582,-0.10582 0.10582,-0.21165v-0.52912c0,0 0.10582,-0.21165 -0.10582,-0.4233c-0.10582,-0.10582 -0.21165,-0.21165 -0.52912,-0.21165h-0.21165c-0.21165,0 -0.4233,0.10582 -0.52912,0.21165c-0.10582,0.21165 -0.10582,0.4233 -0.10582,0.4233zM317.61895,178.99467v-2.2223c0,-0.10582 -0.10582,-0.10582 -0.10582,-0.10582h-2.22231c-0.10582,0 -0.21165,0 -0.21165,0.10582v2.2223c0,0 0.10582,0.10582 0.21165,0.10582h2.22231z" fill="#5b3523" fill-rule="nonzero"/><path d="M315.50247,177.61897h0.10582h0.10582c0.10582,0 0.10582,0 0.21165,0h0.10582c0.10582,0 0.10582,-0.10582 0.10582,-0.10582c0,-0.10582 0,-0.10582 0,-0.10582v0c0,-0.10582 0,-0.10582 0,-0.10582v0v0v0c0,0 0,0 0,-0.10582c0,0 0,-0.10582 0,-0.21165c0,0 0,0 0.10582,0c0,0 0,0 0.10582,0c0,0 0,0 0.10582,0c0,0 0,0 0.10582,0v0h0.10582c0,0.10582 0,0.10582 0,0.10582c0,0.10582 0,0.10582 0,0.21165v0.10582c0,0.10582 0,0.10582 0,0.21165h0.10582c0.10582,0 0.10582,0 0.21165,0v0v0v0.10582v0v0v-0.10582v0c0.10582,0 0.10582,0 0.10582,0v0c0.10582,0 0.10582,0 0.10582,0c0,0.10582 0,0.10582 0,0.21165v0.10582c0,0.10582 0,0.10582 0,0.10582c0,0.10582 0,0.10582 0,0.10582c0,0 0,0 -0.10582,0c0,0 0,0 -0.10582,0h-0.10582c-0.10582,0 -0.21165,0 -0.21165,0c0,0.10582 0,0.10582 0,0.21165c0,0 0,0 0,0.10582v0h-0.10582v0v0v0v0c0,0.10582 0,0.10582 0.10582,0.10582v0c0,0 0,0 0,0.10582v0c-0.10582,0 -0.10582,0 -0.21165,0h-0.10582c-0.10582,0 -0.10582,0 -0.10582,0c-0.10582,0 -0.10582,0 -0.10582,0v0c0,-0.10582 0,-0.10582 0,-0.21165c0,0 0,0 0,-0.10582c0,-0.10582 0,-0.10582 0,-0.21165h-0.21165v0c-0.10582,0 -0.10582,0 -0.10582,0v0v0v0v0c-0.10582,0 -0.10582,0 -0.10582,0c0,0 -0.10582,0 -0.21165,0v-0.10582c0,-0.10582 0,-0.10582 0,-0.21165v-0.10582c0,-0.10582 0,-0.10582 0,-0.10582z" fill="#5b3523" fill-rule="nonzero"/></g></g></g></svg>