<svg version="1.1" xmlns="http://www.w3.org/2000/svg" xmlns:xlink="http://www.w3.org/1999/xlink" width="19.15419" height="19.15411" viewBox="0,0,19.15419,19.15411"><g transform="translate(-310.42291,-170.42295)"><g data-paper-data="{&quot;isPaintingLayer&quot;:true}" stroke="none" stroke-width="1" stroke-linecap="butt" stroke-linejoin="miter" stroke-miterlimit="10" stroke-dasharray="" stroke-dashoffset="0" style="mix-blend-mode: normal"><path d="M314.23784,187.82854c-1.09736,0 -1.98695,-0.88958 -1.98695,-1.98694v-11.60373c0,-1.09736 0.88959,-1.98694 1.98695,-1.98694h11.60379c1.09736,0 1.98695,0.88958 1.98695,1.98694v11.60373c0,1.09736 -0.88959,1.98694 -1.98695,1.98694z" fill="#fefefe" fill-rule="evenodd"/><path d="M314.15837,170.50243h11.68327c1.03321,0 1.90747,0.39739 2.62277,1.03321v0c0.63582,0.7153 1.11269,1.66903 1.11269,2.62276v11.68321c0,1.03321 -0.47687,1.90746 -1.11269,2.62276v0c-0.7153,0.63582 -1.58956,1.11269 -2.62277,1.11269h-11.68327c-0.95374,0 -1.90747,-0.47687 -2.62277,-1.11269v0c-0.63582,-0.7153 -1.03321,-1.58955 -1.03321,-2.62276v-11.68321c0,-0.95373 0.39739,-1.90746 1.03321,-2.62276v0c0.7153,-0.63582 1.66904,-1.03321 2.62277,-1.03321zM314.15837,172.25093h11.68327c1.03321,0 1.90747,0.87425 1.90747,1.90746v11.68321c0,1.03321 -0.87426,1.90746 -1.90747,1.90746h-11.68327c-1.03321,0 -1.90747,-0.87425 -1.90747,-1.90746v-11.68321c0,-1.03321 0.87426,-1.90746 1.90747,-1.90746z" fill="#ef7f1a" fill-rule="evenodd"/><path d="M314.15837,170.42295h11.68327c0.47687,0 0.95374,0.07948 1.4306,0.31791c0.47687,0.15896 0.87426,0.47687 1.19217,0.79478v0c0.39739,0.31791 0.63582,0.79478 0.87426,1.19216c0.15896,0.47687 0.23843,0.95373 0.23843,1.4306v11.68321c0,0.47687 -0.07948,0.95373 -0.23843,1.4306c-0.23843,0.47687 -0.47687,0.87425 -0.87426,1.19216v0c-0.31791,0.39739 -0.7153,0.63582 -1.19217,0.87425c-0.47687,0.15896 -0.95374,0.23843 -1.4306,0.23843h-11.68327c-0.47687,0 -0.95374,-0.07948 -1.4306,-0.23843c-0.39739,-0.23843 -0.87426,-0.47687 -1.19217,-0.87425v0c-0.31791,-0.31791 -0.63582,-0.7153 -0.79478,-1.19216c-0.23843,-0.47687 -0.31791,-0.95373 -0.31791,-1.4306v-11.68321c0,-0.47687 0.07948,-0.95373 0.31791,-1.4306c0.15896,-0.39739 0.47687,-0.87425 0.79478,-1.19216v0c0.31791,-0.31791 0.79478,-0.63582 1.19217,-0.79478c0.47687,-0.23843 0.95374,-0.31791 1.4306,-0.31791zM325.84163,170.50243h-11.68327c-0.47687,0 -0.95374,0.15896 -1.35113,0.31791c-0.47687,0.15896 -0.87426,0.47687 -1.19217,0.79478v0c-0.31791,0.31791 -0.63582,0.7153 -0.79478,1.19216c-0.15896,0.39739 -0.31791,0.87425 -0.31791,1.35112v11.68321c0,0.47687 0.15896,0.95373 0.31791,1.35112c0.15896,0.47687 0.47687,0.87425 0.79478,1.19216v0.07948c0.31791,0.31791 0.7153,0.55634 1.19217,0.79478c0.39739,0.15896 0.87426,0.23843 1.35113,0.23843h11.68327c0.47687,0 0.95374,-0.07948 1.35113,-0.23843c0.47687,-0.23843 0.87426,-0.47687 1.19217,-0.79478l0.07948,-0.07948c0.31791,-0.31791 0.55635,-0.7153 0.79478,-1.19216c0.15896,-0.39739 0.23843,-0.87425 0.23843,-1.35112v-11.68321c0,-0.47687 -0.07948,-0.95373 -0.23843,-1.35112c-0.23843,-0.47687 -0.47687,-0.87425 -0.79478,-1.19216h-0.07948c-0.31791,-0.31791 -0.7153,-0.63582 -1.19217,-0.79478c-0.39739,-0.15896 -0.87426,-0.31791 -1.35113,-0.31791zM314.15837,172.17146h11.68327c0.55635,0 1.03321,0.23843 1.4306,0.63582c0.31791,0.31791 0.55635,0.87425 0.55635,1.35112v11.68321c0,0.55634 -0.23843,1.03321 -0.55635,1.4306c-0.39739,0.31791 -0.87426,0.55634 -1.4306,0.55634h-11.68327c-0.47687,0 -1.03321,-0.23843 -1.35113,-0.55634c-0.39739,-0.39739 -0.63582,-0.87425 -0.63582,-1.4306v-11.68321c0,-0.47687 0.23843,-1.03321 0.63582,-1.35112c0.31791,-0.39739 0.87426,-0.63582 1.35113,-0.63582zM325.84163,172.33041h-11.68327c-0.47687,0 -0.95374,0.15896 -1.27165,0.55634c-0.39739,0.31791 -0.55635,0.79478 -0.55635,1.27164v11.68321c0,0.47687 0.15896,0.95373 0.55635,1.35112c0.31791,0.31791 0.79478,0.55634 1.27165,0.55634h11.68327c0.47687,0 0.95374,-0.23843 1.35113,-0.55634c0.31791,-0.39739 0.55635,-0.87425 0.55635,-1.35112v-11.68321c0,-0.47687 -0.23843,-0.95373 -0.55635,-1.27164c-0.39739,-0.39739 -0.87426,-0.55634 -1.35113,-0.55634z" fill="#fefefe" fill-rule="nonzero"/><path d="M322.90095,176.70169c-0.63582,0 -1.19217,-0.47687 -1.19217,-1.19216c0,-0.63582 0.55635,-1.11269 1.19217,-1.11269c0.63582,0 1.19217,0.47687 1.19217,1.11269c0,0.7153 -0.55635,1.19216 -1.19217,1.19216z" fill="#e63331" fill-rule="nonzero"/><path d="M322.90095,176.86064c-0.7153,0 -1.35113,-0.55634 -1.35113,-1.35112c0,-0.7153 0.63582,-1.27164 1.35113,-1.27164c0.7153,0 1.27165,0.55634 1.35113,1.27164v0.07948c-0.07948,0.7153 -0.63582,1.27164 -1.35113,1.27164zM322.90095,174.47631c-0.55635,0 -1.03321,0.47687 -1.03321,1.03321c0,0.63582 0.47687,1.11269 1.03321,1.11269c0.55635,0 1.03321,-0.47687 1.03321,-1.11269c0,-0.55634 -0.47687,-1.03321 -1.03321,-1.03321z" fill="#5a3547" fill-rule="nonzero"/><path d="M324.64946,178.68862c-0.63582,0 -1.19217,-0.55634 -1.19217,-1.19216c0,-0.63582 0.55635,-1.19216 1.19217,-1.19216c0.7153,0 1.19217,0.55634 1.19217,1.19216c0,0.63582 -0.47687,1.19216 -1.19217,1.19216z" fill="#e63331" fill-rule="nonzero"/><path d="M324.64946,178.84757c-0.7153,0 -1.27165,-0.63582 -1.27165,-1.35112c0,-0.7153 0.55635,-1.35112 1.27165,-1.35112c0.7153,0 1.35113,0.63582 1.35113,1.35112v0.07948c0,0.7153 -0.63582,1.27164 -1.35113,1.27164zM324.64946,176.46325c-0.55635,0 -1.03321,0.47687 -1.03321,1.03321c0,0.55634 0.47687,1.03321 1.03321,1.03321c0.63582,0 1.11269,-0.47687 1.11269,-1.03321c0,-0.55634 -0.47687,-1.03321 -1.11269,-1.03321z" fill="#5a3547" fill-rule="nonzero"/><path d="M324.09312,183.77519l0.31791,0.7153l-2.22538,1.03321l-2.22538,-1.03321l0.39739,-0.7153l-1.03321,-1.19216l1.11269,-1.11269l-0.47687,-0.7153l2.22538,-1.03321l2.22538,1.03321c0,0 -0.31791,0.39739 -0.39739,0.7153c0,-0.07948 1.11269,1.11269 1.11269,1.11269z" fill="#00abe8" fill-rule="nonzero"/><path d="M319.96026,180.75504l0.47687,0.7153l-1.11269,1.11269l1.03321,1.19216l-0.39739,0.7153l2.22538,1.03321l2.22538,-1.03321l-0.31791,-0.7153l1.03321,-1.19216l-1.11269,-1.11269c0.07948,-0.31791 0.39739,-0.7153 0.39739,-0.7153l-2.22538,-1.03321zM322.3446,179.40392l2.22538,1.03321c0.07948,0.07948 0.15896,0.15896 0.15896,0.23843c0,0.07948 0,0.15896 -0.07948,0.23843c0,0.07948 -0.15896,0.31791 -0.23843,0.47687c0.07948,0.07948 0.23843,0.23843 0.39739,0.39739c0.23843,0.31791 0.55635,0.63582 0.55635,0.63582c0,0 0.07948,0.07948 0.07948,0.15896v0c0,0.07948 -0.07948,0.15896 -0.07948,0.23843l-0.95374,1.03321l0.31791,0.47687c0,0.07948 0,0.15896 0,0.23843c0,0.07948 -0.07948,0.15896 -0.15896,0.15896l-2.22538,1.03321c-0.07948,0 -0.07948,0.07948 -0.15896,0.07948v0v0v0v0v0v0l-0.07948,-0.07948l-2.22538,-1.03321c-0.07948,0 -0.15896,-0.07948 -0.15896,-0.15896c-0.07948,-0.07948 -0.07948,-0.15896 0,-0.23843l0.23843,-0.47687l-0.87426,-1.03321c-0.07948,-0.15896 -0.07948,-0.31791 0,-0.39739l0.95374,-1.03321l-0.31791,-0.47687c-0.07948,-0.07948 -0.07948,-0.15896 0,-0.23843c0,-0.07948 0.07948,-0.15896 0.15896,-0.23843l2.22538,-1.03321h0.07948c0.07948,0 0.07948,0 0.15896,0z" fill="#4e4e50" fill-rule="nonzero"/><path d="M323.0599,180.5166c-0.15896,0.47687 -0.55635,0.87425 -0.7153,0.95373c-0.07948,0.07948 -0.39739,0.39739 -0.55635,0.7153h0.87426c-0.07948,-0.23843 -0.31791,-0.47687 -0.31791,-0.47687l0.23843,-0.15896c0,0 0.47687,0.39739 0.47687,1.03321c0,0.63582 -0.39739,1.03321 -0.79478,1.35112c-0.23843,0.23843 -0.31791,0.39739 -0.39739,0.47687l0.79478,0.07948c-0.07948,-0.15896 -0.23843,-0.31791 -0.31791,-0.39739l0.23843,-0.15896c0,0 0.47687,0.39739 0.47687,0.7153c0,0.39739 -0.31791,0.31791 -0.31791,0.15896c0.07948,-0.07948 0,-0.07948 0,-0.15896h-0.95374v0c0,0 -0.07948,0.31791 -0.23843,0.31791c-0.15896,0 -0.07948,-0.23843 -0.07948,-0.23843c0.07948,-0.63582 0.55635,-0.87425 0.95374,-1.35112c0.07948,-0.07948 0.15896,-0.23843 0.23843,-0.31791h-0.87426c0.07948,0.23843 0.31791,0.47687 0.31791,0.47687l-0.23843,0.15896c-0.7153,-0.63582 -0.55635,-1.27164 -0.39739,-1.58955c0.15896,-0.47687 0.55635,-0.79478 0.79478,-0.95373c0.07948,-0.07948 0.23843,-0.23843 0.31791,-0.31791h-0.7153c0.07948,0.15896 0.23843,0.23843 0.23843,0.23843l-0.23843,0.23843c-0.39739,-0.39739 -0.47687,-0.79478 -0.47687,-0.79478c0,0 -0.07948,-0.15896 0.07948,-0.23843c0.15896,-0.07948 0.23843,0.15896 0.23843,0.15896c0,0 0,0.07948 0.07948,0.15896h0.87426c0,-0.07948 0.07948,-0.07948 0.07948,-0.07948c0,0 0,-0.31791 0.23843,-0.31791c0.07948,0.07948 0.07948,0.31791 0.07948,0.31791zM321.70878,182.34459c0,0.07948 0,0.15896 0,0.23843c-0.07948,0.07948 0,0.15896 0,0.23843h1.03321c0,-0.15896 0,-0.31791 0,-0.47687z" fill="#4e4e50" fill-rule="nonzero"/><path d="M317.33749,181.15243v0c-0.23843,0 -0.55635,-0.15896 -0.63582,-0.39739l-2.5433,-4.37127c-0.15896,-0.23843 -0.15896,-0.55634 0,-0.79478c0.07948,-0.23843 0.39739,-0.39739 0.63582,-0.39739h5.08659c0.23843,0 0.55635,0.15896 0.63582,0.39739c0.15896,0.23843 0.15896,0.55634 0,0.79478l-2.46382,4.37127c-0.15896,0.23843 -0.39739,0.39739 -0.7153,0.39739zM316.14532,176.78116l1.19217,1.98694l1.19217,-1.98694z" fill="#4e4e50" fill-rule="nonzero"/><path d="M318.52966,177.97332v0l-0.07948,0.23843v0l-0.87426,1.35112v0.07948h0.23843l-0.47687,0.7153l-0.39739,-0.7153h0.15896v-0.07948l-0.79478,-1.35112v0l-0.15896,-0.23843v0l-1.03321,-1.82798h4.45077z" fill="#fcc127" fill-rule="nonzero"/><path d="M320.03974,176.06586l-1.4306,2.46381l-0.63582,1.11269l-0.47687,0.79478c-0.07948,0.07948 -0.07948,0.07948 -0.15896,0.07948c-0.07948,0 -0.07948,0 -0.15896,-0.07948l-0.47687,-0.79478l-0.63582,-1.11269l-1.4306,-2.46381c0,-0.07948 0,-0.07948 0,-0.15896c0.07948,-0.07948 0.07948,-0.07948 0.15896,-0.07948h5.08659c0.07948,0 0.07948,0 0.15896,0.07948c0,0.07948 0,0.07948 0,0.15896z" fill="#fefefe" fill-rule="nonzero"/><path d="M317.01957,180.03974l-1.19217,-2.06642l0.23843,-0.47687l0.79478,-1.51007l0.23843,-0.31791h0.47687l1.11269,1.90746l0.15896,0.39739l-0.15896,0.23843l-1.03321,1.82798z" fill="#8c8e8f" fill-rule="nonzero"/><path d="M317.09905,175.66847l-0.15896,0.39739l-0.87426,1.51007v0l-0.23843,0.39739l0.15896,0.23843l1.03321,1.74851h0.63582l1.03321,-1.74851l0.15896,-0.23843l-0.23843,-0.39739v0l-0.87426,-1.51007l-0.15896,-0.39739zM317.81435,175.98638l0.87426,1.51007v0.07948l0.23843,0.39739v0l-0.15896,0.31791l-1.03321,1.74851h-0.07948h-0.63582v0l-1.11269,-1.74851l-0.15896,-0.31791v0l0.23843,-0.39739v-0.07948l0.87426,-1.51007l0.23843,-0.39739h0.47687z" fill="#fefefe" fill-rule="nonzero"/><path d="M317.41696,175.58899v0.07948h-0.15896v-0.07948z" fill="#fefefe" fill-rule="nonzero"/><path d="M317.41696,175.74795v0.07948h-0.15896v-0.07948z" fill="#fefefe" fill-rule="nonzero"/><path d="M317.41696,175.98638v0.07948h-0.15896v-0.07948z" fill="#fefefe" fill-rule="nonzero"/><path d="M317.41696,176.22481l0.07948,0.23843h-0.23843v-0.23843z" fill="#fefefe" fill-rule="nonzero"/><path d="M317.49644,176.6222v0.39739h-0.31791v-0.39739z" fill="#fefefe" fill-rule="nonzero"/><path d="M317.49644,177.25802l0.07948,0.7153h-0.47687l0.07948,-0.7153z" fill="#fefefe" fill-rule="nonzero"/><path d="M317.6554,180.11922h-0.63582l0.07948,-1.51007h0.47687z" fill="#fefefe" fill-rule="nonzero"/><path d="M320.27817,176.22481l-1.51008,2.62276l-0.47687,0.79478l-0.55635,0.95373c-0.07948,0.15896 -0.23843,0.23843 -0.39739,0.23843c-0.15896,0 -0.31791,-0.07948 -0.39739,-0.23843l-0.55635,-0.95373l-0.47687,-0.79478l-1.51008,-2.62276c-0.07948,-0.15896 -0.07948,-0.31791 0,-0.47687c0.07948,-0.15896 0.23843,-0.23843 0.39739,-0.23843h5.08659c0.15896,0 0.31791,0.07948 0.39739,0.23843c0.07948,0.15896 0.07948,0.31791 0,0.47687zM320.03974,175.9069c-0.07948,-0.07948 -0.07948,-0.07948 -0.15896,-0.07948h-5.08659c-0.07948,0 -0.07948,0 -0.15896,0.07948c0,0.07948 0,0.07948 0,0.15896l1.4306,2.46381l0.63582,1.11269l0.47687,0.79478c0.07948,0.07948 0.07948,0.07948 0.15896,0.07948c0.07948,0 0.07948,0 0.15896,-0.07948l0.47687,-0.79478l0.63582,-1.11269l1.4306,-2.46381c0,-0.07948 0,-0.07948 0,-0.15896z" fill="#ed7e2e" fill-rule="nonzero"/><path d="M320.27817,176.22481l-1.51008,2.62276l-0.47687,0.79478l-0.55635,0.95373c-0.07948,0.15896 -0.23843,0.23843 -0.39739,0.23843c-0.15896,0 -0.31791,-0.07948 -0.39739,-0.23843l-0.55635,-0.95373l-0.47687,-0.79478l-1.51008,-2.62276c-0.07948,-0.15896 -0.07948,-0.31791 0,-0.47687c0.07948,-0.15896 0.23843,-0.23843 0.39739,-0.23843h5.08659c0.15896,0 0.31791,0.07948 0.39739,0.23843c0.07948,0.15896 0.07948,0.31791 0,0.47687zM320.03974,175.9069c-0.07948,-0.07948 -0.07948,-0.07948 -0.15896,-0.07948h-5.08659c-0.07948,0 -0.07948,0 -0.15896,0.07948c0,0.07948 0,0.07948 0,0.15896l1.4306,2.46381l0.63582,1.11269l0.47687,0.79478c0.07948,0.07948 0.07948,0.07948 0.15896,0.07948c0.07948,0 0.07948,0 0.15896,-0.07948l0.47687,-0.79478l0.63582,-1.11269l1.4306,-2.46381c0,-0.07948 0,-0.07948 0,-0.15896z" fill="#ed7e2e" fill-rule="nonzero"/><path d="M314.79419,175.9069h-0.07948c0,0.07948 0,0.07948 0,0.15896l1.4306,2.38433l0.63582,1.11269l0.47687,0.87425h0.07948h0.07948l0.47687,-0.87425l0.63582,-1.11269l1.4306,-2.38433c0,-0.07948 0,-0.07948 0,-0.15896h-0.07948zM320.03974,175.9069c0,0.07948 0,0.07948 0,0.15896l-1.4306,2.46381l-0.63582,1.11269l-0.47687,0.79478c-0.07948,0.07948 -0.07948,0.07948 -0.15896,0.07948c-0.07948,0 -0.07948,0 -0.15896,-0.07948l-0.47687,-0.79478l-0.63582,-1.11269l-1.4306,-2.46381c0,-0.07948 0,-0.07948 0,-0.15896c0.07948,-0.07948 0.07948,-0.07948 0.15896,-0.07948h5.08659c0.07948,0 0.07948,0 0.15896,0.07948z" fill="#fefefe" fill-rule="nonzero"/></g></g></svg>