<svg version="1.1" xmlns="http://www.w3.org/2000/svg" xmlns:xlink="http://www.w3.org/1999/xlink" width="19.1541" height="19.1541" viewBox="0,0,19.1541,19.1541"><g transform="translate(-310.42295,-170.42295)"><g data-paper-data="{&quot;isPaintingLayer&quot;:true}" stroke="none" stroke-width="1" stroke-linecap="butt" stroke-linejoin="miter" stroke-miterlimit="10" stroke-dasharray="" stroke-dashoffset="0" style="mix-blend-mode: normal"><g><path d="M314.21049,187.73739c-1.07578,0 -1.94788,-0.8721 -1.94788,-1.94788v-11.57903c0,-1.07578 0.8721,-1.94788 1.94788,-1.94788h11.57903c1.07578,0 1.94787,0.8721 1.94787,1.94788v11.57903c0,1.07578 -0.87209,1.94788 -1.94787,1.94788z" fill="#fefefe" fill-rule="evenodd"/><path d="M314.21049,170.42295h11.57903c1.08215,0 1.94787,0.43286 2.59716,1.19037h0.10822c0.64929,0.64929 1.08215,1.51501 1.08215,2.59717v11.57903c0,1.08216 -0.43286,1.94788 -1.08215,2.59717l-0.10822,0.10821c-0.64929,0.64929 -1.51501,1.08216 -2.59716,1.08216h-11.57903c-1.08216,0 -1.94788,-0.43286 -2.59716,-1.08216v-0.10821c-0.75751,-0.64929 -1.19037,-1.51501 -1.19037,-2.59717v-11.57903c0,-1.08216 0.43286,-1.94788 1.19037,-2.59717v0c0.64929,-0.7575 1.51501,-1.19037 2.59716,-1.19037zM314.21049,172.26261h11.57903c1.08215,0 1.94787,0.86572 1.94787,1.94788v11.57903c0,1.08216 -0.86572,1.94788 -1.94787,1.94788h-11.57903c-1.08216,0 -1.94788,-0.86572 -1.94788,-1.94788v-11.57903c0,-1.08216 0.86572,-1.94788 1.94788,-1.94788z" fill="#ef7f1a" fill-rule="evenodd"/><path d="M314.21049,170.42295h11.57903c0.54107,0 0.97394,0.10821 1.4068,0.32464c0.54107,0.10822 0.97393,0.43286 1.29858,0.75751v0c0.32464,0.32464 0.64929,0.7575 0.75751,1.29858c0.21643,0.43286 0.32464,0.86572 0.32464,1.4068v11.57903c0,0.54108 -0.10821,0.97394 -0.32464,1.4068c-0.10822,0.54107 -0.43286,0.97393 -0.75751,1.29858v0c-0.32465,0.32465 -0.75751,0.64929 -1.29858,0.75751c-0.43286,0.21643 -0.86572,0.32464 -1.4068,0.32464h-11.57903c-0.54108,0 -0.97394,-0.10821 -1.4068,-0.32464c-0.54107,-0.10822 -0.97393,-0.43286 -1.29858,-0.75751v0c-0.32464,-0.32464 -0.64929,-0.7575 -0.75751,-1.29858c-0.21643,-0.43286 -0.32465,-0.86572 -0.32465,-1.4068v-11.57903c0,-0.54108 0.10821,-0.97394 0.32465,-1.4068c0.10821,-0.54108 0.43286,-0.97394 0.75751,-1.29858v0c0.32464,-0.32465 0.7575,-0.64929 1.29858,-0.75751c0.43286,-0.21643 0.86572,-0.32464 1.4068,-0.32464zM325.78952,170.53117h-11.57903c-0.54108,0 -0.97394,0.10822 -1.4068,0.21643c-0.43286,0.21643 -0.86572,0.54108 -1.19036,0.86572v0c-0.32465,0.32465 -0.6493,0.75751 -0.86572,1.19037c-0.10822,0.43286 -0.21643,0.86572 -0.21643,1.4068v11.57903c0,0.54108 0.10822,0.97394 0.21643,1.4068c0.21643,0.43286 0.54108,0.86572 0.86572,1.19036v0c0.32464,0.32464 0.7575,0.64929 1.19036,0.86572c0.43286,0.10821 0.86572,0.21643 1.4068,0.21643h11.57903c0.54107,0 0.97394,-0.10822 1.4068,-0.21643c0.43286,-0.21643 0.86572,-0.54108 1.19036,-0.86572v0c0.32464,-0.32465 0.64929,-0.7575 0.86572,-1.19036c0.10822,-0.43286 0.21643,-0.86572 0.21643,-1.4068v-11.57903c0,-0.54108 -0.10821,-0.97394 -0.21643,-1.4068c-0.21643,-0.43286 -0.54108,-0.86572 -0.86572,-1.19037v0c-0.32464,-0.32464 -0.7575,-0.64929 -1.19036,-0.86572c-0.43286,-0.10821 -0.86572,-0.21643 -1.4068,-0.21643zM314.21049,172.1544h11.57903c0.54107,0 1.08215,0.21643 1.4068,0.64929c0.43286,0.32465 0.64929,0.86572 0.64929,1.4068v11.57903c0,0.54108 -0.21643,1.08216 -0.64929,1.4068c-0.32465,0.43286 -0.86572,0.64929 -1.4068,0.64929h-11.57903c-0.54108,0 -1.08216,-0.21643 -1.4068,-0.64929c-0.43286,-0.32465 -0.64929,-0.86572 -0.64929,-1.4068v-11.57903c0,-0.54108 0.21643,-1.08216 0.64929,-1.4068c0.32465,-0.43286 0.86572,-0.64929 1.4068,-0.64929zM325.78952,172.26261h-11.57903c-0.54108,0 -0.97394,0.21643 -1.4068,0.54108c-0.32464,0.43286 -0.54107,0.86572 -0.54107,1.4068v11.57903c0,0.54108 0.21643,0.97394 0.54107,1.4068c0.43286,0.32464 0.86572,0.54107 1.4068,0.54107h11.57903c0.54107,0 0.97394,-0.21643 1.4068,-0.54107c0.32465,-0.43286 0.54107,-0.86572 0.54107,-1.4068v-11.57903c0,-0.54108 -0.21643,-0.97394 -0.54107,-1.4068c-0.43286,-0.32465 -0.86572,-0.54108 -1.4068,-0.54108z" fill="#fefefe" fill-rule="nonzero"/><path d="M324.2745,176.91587c-0.64929,0 -1.19037,-0.54108 -1.19037,-1.19037c0,-0.64929 0.54108,-1.19037 1.19037,-1.19037c0.64929,0 1.19037,0.54108 1.19037,1.19037c0,0.64929 -0.54107,1.19037 -1.19037,1.19037z" fill="#e63331" fill-rule="nonzero"/><path d="M324.2745,177.02408c-0.7575,0 -1.4068,-0.54108 -1.4068,-1.29859c0,-0.75751 0.64929,-1.29858 1.4068,-1.29858c0.64929,0 1.29858,0.54107 1.29858,1.29858v0c0,0.75751 -0.64929,1.29859 -1.29858,1.29859zM324.2745,174.64335c-0.64929,0 -1.08215,0.54107 -1.08215,1.08215c0,0.54108 0.43286,1.08216 1.08215,1.08216c0.54108,0 0.97394,-0.54108 0.97394,-1.08216c0,-0.54108 -0.43286,-1.08215 -0.97394,-1.08215z" fill="#5a3547" fill-rule="nonzero"/><path d="M321.35269,177.78159l2.1643,3.67932l-2.1643,3.67932h-4.2204l-2.16431,-3.67932l2.16431,-3.67932z" fill="#fcc127" fill-rule="nonzero"/><path d="M317.34873,184.70737h3.78753l1.83966,-3.24646l-1.83966,-3.24645h-3.78753l-1.83966,3.24645zM321.56912,177.34873l2.38074,4.11218l-2.38074,4.11218h-4.76147l-2.38074,-4.11218l2.38074,-4.11218z" fill="#5e3a25" fill-rule="nonzero"/><path d="M317.1323,185.03201h4.11218l2.05609,-3.57111l-2.05609,-3.46288h-4.11218l-1.94787,3.46289zM321.56912,177.34873l2.38074,4.11218l-2.38074,4.11218h-4.76147l-2.38074,-4.11218l2.38074,-4.11218z" fill="#4e4e50" fill-rule="nonzero"/><path d="M321.89377,180.37876c0,0 0,0.10821 -0.10822,0.10821l-0.64929,0.54108c-0.10821,0.10821 -0.21643,0 -0.32464,0l-0.10822,-0.21643v0v0v2.92181c0,0.10821 -0.10821,0.21643 -0.21643,0.21643h-2.48895c-0.10821,0 -0.21643,-0.10822 -0.21643,-0.21643v-2.92181v0c0,0 0,0 -0.10822,0l-0.21643,0.21643c-0.10822,0 -0.10822,0 -0.21643,0h-0.10821l-0.54107,-0.64929c0,-0.10822 0,-0.10822 0,-0.21643v-0.10822l0.7575,-0.54108c0,0 0.32464,-0.43286 1.83966,-0.43286c1.73145,0 2.05609,0.32464 2.05609,0.43286l0.54107,0.64929c0.10822,0.10821 0.10822,0.10821 0.10822,0.21643zM319.18839,179.2966c-0.43286,0 -0.64929,0.10821 -0.64929,0.21643c0,0.10821 0.54108,0.43286 0.64929,0.43286c0.10821,0 0.64929,-0.32465 0.64929,-0.43286c0,-0.10822 -0.21643,-0.21643 -0.64929,-0.21643z" fill="#5e3a25" fill-rule="nonzero"/><path d="M319.83768,181.46091h0.32465l-0.32465,0.64929h-0.32464l-0.32464,0.43286l-0.21643,-0.43286h-0.32464l-0.43286,-0.64929h0.32464l-0.43286,-0.75751h2.1643zM318.64731,181.46091h1.08215l0.43286,-0.64929h-1.83966zM319.40482,182.1102h-0.32464l0.10822,0.32465z" fill="#fcc127" fill-rule="nonzero"/></g></g></g></svg>