<svg version="1.1" xmlns="http://www.w3.org/2000/svg" xmlns:xlink="http://www.w3.org/1999/xlink" width="19.1542" height="19.1541" viewBox="0,0,19.1542,19.1541"><g transform="translate(-310.4229,-170.42295)"><g data-paper-data="{&quot;isPaintingLayer&quot;:true}" stroke="none" stroke-width="1" stroke-linecap="butt" stroke-linejoin="miter" stroke-miterlimit="10" stroke-dasharray="" stroke-dashoffset="0" style="mix-blend-mode: normal"><path d="M314.16253,187.75285c-1.05786,0 -1.91542,-0.85756 -1.91542,-1.91541v-11.67488c0,-1.05785 0.85756,-1.91541 1.91542,-1.91541h11.67494c1.05786,0 1.91542,0.85756 1.91542,1.91541v11.67488c0,1.05785 -0.85756,1.91541 -1.91542,1.91541z" fill="#fefefe" fill-rule="evenodd"/><path d="M314.16253,170.51416h11.67494c1.00332,0 1.91542,0.36484 2.55389,1.00331v0.09121c0.72968,0.63847 1.09453,1.55057 1.09453,2.55388v11.67488c0,1.00331 -0.36484,1.91541 -1.09453,2.55388v0c-0.63847,0.72968 -1.55058,1.09452 -2.55389,1.09452h-11.67494c-1.00332,0 -1.91542,-0.36484 -2.55389,-1.09452h-0.09121c-0.63847,-0.63847 -1.00332,-1.55057 -1.00332,-2.55388v-11.67488c0,-1.00331 0.36484,-1.91541 1.00332,-2.55388l0.09121,-0.09121c0.63847,-0.63847 1.55058,-1.00331 2.55389,-1.00331zM314.16253,172.24715h11.67494c1.00332,0 1.91542,0.9121 1.91542,1.91541v11.67488c0,1.00331 -0.9121,1.91541 -1.91542,1.91541h-11.67494c-1.00332,0 -1.91542,-0.9121 -1.91542,-1.91541v-11.67488c0,-1.00331 0.9121,-1.91541 1.91542,-1.91541z" fill="#ef7f1a" fill-rule="evenodd"/><path d="M314.16253,170.42295h11.67494c0.45605,0 1.00332,0.09121 1.36816,0.27363c0.45605,0.18242 0.9121,0.45605 1.27695,0.82089v0c0.36484,0.36484 0.63847,0.82089 0.82089,1.27694c0.18242,0.36484 0.27363,0.9121 0.27363,1.36815v11.67488c0,0.45605 -0.09121,1.00331 -0.27363,1.36815c-0.18242,0.45605 -0.45605,0.9121 -0.82089,1.27694v0c-0.36484,0.36484 -0.82089,0.63847 -1.27695,0.82089c-0.36484,0.18242 -0.9121,0.27363 -1.36816,0.27363h-11.67494c-0.45605,0 -1.00332,-0.09121 -1.36816,-0.27363c-0.45605,-0.18242 -0.9121,-0.45605 -1.27695,-0.82089v0c-0.36484,-0.36484 -0.63847,-0.82089 -0.82089,-1.27694c-0.18242,-0.36484 -0.27363,-0.9121 -0.27363,-1.36815v-11.67488c0,-0.45605 0.09121,-1.00331 0.27363,-1.36815c0.18242,-0.45605 0.45605,-0.9121 0.82089,-1.27694v0c0.36484,-0.36484 0.82089,-0.63847 1.27695,-0.82089c0.36484,-0.18242 0.9121,-0.27363 1.36816,-0.27363zM325.83747,170.51416h-11.67494c-0.45605,0 -0.9121,0.09121 -1.36816,0.27363c-0.45605,0.18242 -0.82089,0.45605 -1.18574,0.82089v0c-0.36484,0.36484 -0.63847,0.72968 -0.82089,1.18573c-0.18242,0.45605 -0.27363,0.9121 -0.27363,1.36815v11.67488c0,0.45605 0.09121,0.9121 0.27363,1.36815c0.18242,0.45605 0.45605,0.82089 0.82089,1.18573v0c0.36484,0.36484 0.72968,0.63847 1.18574,0.82089c0.45605,0.18242 0.9121,0.27363 1.36816,0.27363h11.67494c0.45605,0 0.9121,-0.09121 1.36816,-0.27363c0.45605,-0.18242 0.82089,-0.45605 1.18574,-0.82089v0c0.36484,-0.36484 0.63847,-0.72968 0.82089,-1.18573c0.18242,-0.45605 0.27363,-0.9121 0.27363,-1.36815v-11.67488c0,-0.45605 -0.09121,-0.9121 -0.27363,-1.36815c-0.18242,-0.45605 -0.45605,-0.82089 -0.82089,-1.18573v0c-0.36484,-0.36484 -0.72968,-0.63847 -1.18574,-0.82089c-0.45605,-0.18242 -0.9121,-0.27363 -1.36816,-0.27363zM314.16253,172.15594h11.67494c0.54726,0 1.00332,0.27363 1.36816,0.63847c0.36484,0.36484 0.63847,0.82089 0.63847,1.36815v11.67488c0,0.54726 -0.27363,1.00331 -0.63847,1.36815c-0.36484,0.36484 -0.82089,0.63847 -1.36816,0.63847h-11.67494c-0.54726,0 -1.00332,-0.27363 -1.36816,-0.63847c-0.36484,-0.36484 -0.63847,-0.82089 -0.63847,-1.36815v-11.67488c0,-0.54726 0.27363,-1.00331 0.63847,-1.36815c0.36484,-0.36484 0.82089,-0.63847 1.36816,-0.63847zM325.83747,172.24715h-11.67494c-0.45605,0 -1.00332,0.27363 -1.27695,0.63847c-0.36484,0.27363 -0.63847,0.82089 -0.63847,1.27694v11.67488c0,0.45605 0.27363,1.00331 0.63847,1.27694c0.27363,0.36484 0.82089,0.54726 1.27695,0.54726h11.67494c0.45605,0 1.00332,-0.18242 1.27695,-0.54726c0.36484,-0.27363 0.54726,-0.82089 0.54726,-1.27694v-11.67488c0,-0.45605 -0.18242,-1.00331 -0.54726,-1.27694c-0.27363,-0.36484 -0.82089,-0.63847 -1.27695,-0.63847z" fill="#fefefe" fill-rule="nonzero"/><path d="M317.81095,180.18242v0.09121h-0.18242l0.09121,-0.09121z" fill="#fefefe" fill-rule="nonzero"/><path d="M317.81095,180.27363v0.18242h-0.18242v-0.18242z" fill="#fefefe" fill-rule="nonzero"/><g fill-rule="nonzero"><path d="M317.78546,180.27363v0c-0.27363,0 -0.54726,-0.18242 -0.72968,-0.45605l-2.46268,-4.37808c-0.18242,-0.18242 -0.18242,-0.54726 0,-0.72968c0.09121,-0.27363 0.36484,-0.36484 0.63847,-0.36484h5.01658c0.27363,0 0.54726,0.09121 0.72968,0.36484c0.09121,0.18242 0.09121,0.54726 0,0.72968l-2.55389,4.37808c-0.09121,0.27363 -0.36484,0.45605 -0.63847,0.45605zM316.59972,175.89555l1.18574,2.00662l1.18574,-2.00662z" fill="#4e4e50"/><path d="M318.97119,177.08128v0l-0.18242,0.18242v0l-0.72968,1.36815l-0.09121,0.09121h0.18242l-0.36484,0.72968l-0.45605,-0.72968h0.18242v-0.09121l-0.82089,-1.36815v0l-0.18242,-0.18242h0.09121l-1.09453,-1.8242h4.46931z" fill="#fcc127"/><path d="M320.43056,175.16587l-1.45937,2.46267l-0.54726,1.09452l-0.54726,0.82089c0,0.09121 -0.09121,0.09121 -0.09121,0.09121c-0.09121,0 -0.18242,0 -0.18242,-0.09121l-0.45605,-0.82089l-0.63847,-1.09452l-1.45937,-2.46267c0,-0.09121 0,-0.09121 0,-0.18242c0.09121,0 0.09121,-0.09121 0.18242,-0.09121h5.01658c0.09121,0 0.18242,0.09121 0.18242,0.09121c0,0.09121 0,0.09121 0,0.18242z" fill="#fefefe"/><path d="M317.42062,179.0879l-1.18574,-2.00662l0.27363,-0.45605l0.82089,-1.45936l0.18242,-0.45605h0.45605l1.09453,2.00662l0.18242,0.36484l-0.09121,0.27363l-1.09453,1.73299z" fill="#8c8e8f"/><path d="M317.51183,174.80103l-0.18242,0.36484l-0.82089,1.45936v0.09121l-0.27363,0.36484l0.18242,0.27363l1.00332,1.73299h0.63847l1.00332,-1.73299l0.18242,-0.27363l-0.18242,-0.36484l-0.09121,-0.09121l-0.82089,-1.45936l-0.18242,-0.36484zM318.24151,175.07466l0.82089,1.55057v0l0.27363,0.45605v0l-0.18242,0.27363l-1.00332,1.8242v0h-0.72968v0l-1.09453,-1.8242l-0.18242,-0.27363v0l0.27363,-0.45605v0l0.82089,-1.55057l0.27363,-0.36484h0.54726z" fill="#fefefe"/><path d="M317.78546,174.70982v0.09121h-0.09121v-0.09121z" fill="#fefefe"/><path d="M317.87667,174.89224v0.09121h-0.18242v-0.09121z" fill="#fefefe"/><path d="M317.87667,175.07466v0.09121h-0.18242v-0.09121z" fill="#fefefe"/><path d="M317.87667,175.34829v0.18242h-0.27363l0.09121,-0.18242z" fill="#fefefe"/><path d="M317.87667,175.71313v0.36484h-0.27363v-0.36484z" fill="#fefefe"/><path d="M317.96788,176.3516v0.72968h-0.45605l0.09121,-0.72968z" fill="#fefefe"/><path d="M318.05909,179.17911h-0.63847l0.09121,-1.55057h0.45605z" fill="#fefefe"/><path d="M320.70419,175.34829l-1.55058,2.55388l-0.45605,0.82089l-0.54726,1.00331c-0.09121,0.09121 -0.18242,0.18242 -0.36484,0.18242c-0.18242,0 -0.36484,-0.09121 -0.45605,-0.18242l-0.54726,-1.00331l-0.45605,-0.82089l-1.45937,-2.55388c-0.09121,-0.18242 -0.09121,-0.36484 0,-0.45605c0,-0.18242 0.18242,-0.27363 0.36484,-0.27363h5.01658c0.18242,0 0.36484,0.09121 0.45605,0.27363c0.09121,0.09121 0.09121,0.27363 0,0.45605zM320.43056,174.98345c0,0 -0.09121,-0.09121 -0.18242,-0.09121h-5.01658c-0.09121,0 -0.09121,0.09121 -0.18242,0.09121c0,0.09121 0,0.09121 0,0.18242l1.45937,2.46267l0.63847,1.09452l0.45605,0.82089c0,0.09121 0.09121,0.09121 0.18242,0.09121c0,0 0.09121,0 0.09121,-0.09121l0.54726,-0.82089l0.54726,-1.09452l1.45937,-2.46267c0,-0.09121 0,-0.09121 0,-0.18242z" fill="#ed7e2e"/><path d="M320.70419,175.34829l-1.55058,2.55388l-0.45605,0.82089l-0.54726,1.00331c-0.09121,0.09121 -0.18242,0.18242 -0.36484,0.18242c-0.18242,0 -0.36484,-0.09121 -0.45605,-0.18242l-0.54726,-1.00331l-0.45605,-0.82089l-1.45937,-2.55388c-0.09121,-0.18242 -0.09121,-0.36484 0,-0.45605c0,-0.18242 0.18242,-0.27363 0.36484,-0.27363h5.01658c0.18242,0 0.36484,0.09121 0.45605,0.27363c0.09121,0.09121 0.09121,0.27363 0,0.45605zM320.43056,174.98345c0,0 -0.09121,-0.09121 -0.18242,-0.09121h-5.01658c-0.09121,0 -0.09121,0.09121 -0.18242,0.09121c0,0.09121 0,0.09121 0,0.18242l1.45937,2.46267l0.63847,1.09452l0.45605,0.82089c0,0.09121 0.09121,0.09121 0.18242,0.09121c0,0 0.09121,0 0.09121,-0.09121l0.54726,-0.82089l0.54726,-1.09452l1.45937,-2.46267c0,-0.09121 0,-0.09121 0,-0.18242z" fill="#ed7e2e"/><path d="M315.23156,174.98345c0,0 -0.09121,0 -0.09121,0.09121c0,0 0,0 0,0.09121l1.45937,2.37146l0.63847,1.09452l0.45605,0.9121c0,0 0,0 0.09121,0v0l0.54726,-0.9121l0.63847,-1.09452l1.36816,-2.37146c0,-0.09121 0,-0.09121 0,-0.09121c0,-0.09121 0,-0.09121 -0.09121,-0.09121zM320.43056,174.98345c0,0.09121 0,0.09121 0,0.18242l-1.45937,2.46267l-0.54726,1.09452l-0.54726,0.82089c0,0.09121 -0.09121,0.09121 -0.09121,0.09121c-0.09121,0 -0.18242,0 -0.18242,-0.09121l-0.45605,-0.82089l-0.63847,-1.09452l-1.45937,-2.46267c0,-0.09121 0,-0.09121 0,-0.18242c0.09121,0 0.09121,-0.09121 0.18242,-0.09121h5.01658c0.09121,0 0.18242,0.09121 0.18242,0.09121z" fill="#fefefe"/></g><g fill-rule="nonzero"><path d="M322.95341,185.65502v0c-0.27363,0 -0.54726,-0.09121 -0.63847,-0.36484l-2.55389,-4.37808c-0.09121,-0.27363 -0.09121,-0.54726 0,-0.72968c0.18242,-0.27363 0.36484,-0.45605 0.72968,-0.45605h5.01658c0.27363,0 0.54726,0.18242 0.63847,0.45605c0.18242,0.18242 0.18242,0.45605 0,0.72968l-2.46268,4.37808c-0.18242,0.27363 -0.45605,0.36484 -0.72968,0.36484zM321.76768,181.27694l1.18574,2.09783l1.18574,-2.09783z" fill="#4e4e50"/><path d="M324.13915,182.46267v0l-0.09121,0.27363v0l-0.82089,1.36815v0.09121h0.18242l-0.45605,0.72968l-0.45605,-0.72968h0.27363l-0.09121,-0.09121l-0.82089,-1.36815v0l-0.09121,-0.27363v0l-1.00332,-1.73299h4.46931z" fill="#fcc127"/><path d="M325.59852,180.63847l-1.36816,2.46267l-0.63847,1.09452l-0.45605,0.82089c-0.09121,0 -0.09121,0.09121 -0.18242,0.09121l-0.09121,-0.09121l-0.54726,-0.82089l-0.63847,-1.09452l-1.36816,-2.46267c0,-0.09121 0,-0.18242 0,-0.18242c0,-0.09121 0.09121,-0.09121 0.18242,-0.09121h5.01658c0.09121,0 0.09121,0 0.09121,0.09121c0.09121,0 0.09121,0.09121 0,0.18242z" fill="#fefefe"/><path d="M322.67978,184.5605l-1.27695,-2.00662l0.27363,-0.45605l0.82089,-1.55057l0.18242,-0.36484h0.54726l1.09453,1.91541l0.18242,0.45605l-0.18242,0.27363l-1.00332,1.73299z" fill="#8c8e8f"/><path d="M322.77099,180.27363l-0.18242,0.27363l-0.82089,1.55057h-0.09121l-0.18242,0.45605l0.18242,0.18242l1.00332,1.8242h0.63847l1.00332,-1.8242l0.09121,-0.18242l-0.18242,-0.36484v-0.09121l-0.82089,-1.55057l-0.18242,-0.27363zM323.50068,180.54726l0.82089,1.55057v0l0.18242,0.36484v0.09121l-0.09121,0.27363l-1.09453,1.8242v0h-0.72968v0l-1.00332,-1.8242l-0.18242,-0.27363v-0.09121l0.18242,-0.36484h0.09121l0.82089,-1.55057l0.18242,-0.36484h0.54726z" fill="#fefefe"/><path d="M323.04462,180.45605v0.18242h-0.18242v-0.18242z" fill="#fefefe"/><path d="M323.04462,180.72968v0.27363h-0.18242v-0.27363z" fill="#fefefe"/><path d="M323.13583,181.18573v0.36484h-0.27363v-0.36484z" fill="#fefefe"/><path d="M323.13583,181.8242v0.63847h-0.36484v-0.63847z" fill="#fefefe"/><path d="M323.31826,184.65171h-0.63847l0.09121,-1.55057h0.45605z" fill="#fefefe"/><path d="M325.87215,180.72968l-1.45937,2.64509l-0.45605,0.82089l-0.54726,0.9121c-0.09121,0.18242 -0.27363,0.27363 -0.45605,0.27363c-0.18242,0 -0.27363,-0.09121 -0.36484,-0.27363l-0.54726,-0.9121l-0.45605,-0.82089l-1.55058,-2.64509c-0.09121,-0.09121 -0.09121,-0.27363 0,-0.45605c0.09121,-0.09121 0.27363,-0.18242 0.45605,-0.18242h5.01658c0.18242,0 0.27363,0.09121 0.36484,0.18242c0.09121,0.18242 0.09121,0.36484 0,0.45605zM325.59852,180.45605c0,-0.09121 0,-0.09121 -0.09121,-0.09121h-5.01658c-0.09121,0 -0.18242,0 -0.18242,0.09121c0,0 0,0.09121 0,0.18242l1.36816,2.46267l0.63847,1.09452l0.54726,0.82089l0.09121,0.09121c0.09121,0 0.09121,-0.09121 0.18242,-0.09121l0.45605,-0.82089l0.63847,-1.09452l1.36816,-2.46267c0.09121,-0.09121 0.09121,-0.18242 0,-0.18242z" fill="#ed7e2e"/><path d="M325.87215,180.72968l-1.45937,2.64509l-0.45605,0.82089l-0.54726,0.9121c-0.09121,0.18242 -0.27363,0.27363 -0.45605,0.27363c-0.18242,0 -0.27363,-0.09121 -0.36484,-0.27363l-0.54726,-0.9121l-0.45605,-0.82089l-1.55058,-2.64509c-0.09121,-0.09121 -0.09121,-0.27363 0,-0.45605c0.09121,-0.09121 0.27363,-0.18242 0.45605,-0.18242h5.01658c0.18242,0 0.27363,0.09121 0.36484,0.18242c0.09121,0.18242 0.09121,0.36484 0,0.45605zM325.59852,180.45605c0,-0.09121 0,-0.09121 -0.09121,-0.09121h-5.01658c-0.09121,0 -0.18242,0 -0.18242,0.09121c0,0 0,0.09121 0,0.18242l1.36816,2.46267l0.63847,1.09452l0.54726,0.82089l0.09121,0.09121c0.09121,0 0.09121,-0.09121 0.18242,-0.09121l0.45605,-0.82089l0.63847,-1.09452l1.36816,-2.46267c0.09121,-0.09121 0.09121,-0.18242 0,-0.18242z" fill="#ed7e2e"/><path d="M320.49073,180.45605c-0.09121,0 -0.09121,0 -0.09121,0c0,0.09121 0,0.09121 0,0.09121l1.36816,2.46267l0.63847,1.09452l0.45605,0.82089c0.09121,0.09121 0.09121,0.09121 0.09121,0.09121c0.09121,0 0.09121,0 0.09121,-0.09121l0.45605,-0.82089l0.63847,-1.09452l1.45937,-2.46267c0,0 0,0 0,-0.09121h-0.09121zM325.59852,180.45605c0.09121,0 0.09121,0.09121 0,0.18242l-1.36816,2.46267l-0.63847,1.09452l-0.45605,0.82089c-0.09121,0 -0.09121,0.09121 -0.18242,0.09121l-0.09121,-0.09121l-0.54726,-0.82089l-0.63847,-1.09452l-1.36816,-2.46267c0,-0.09121 0,-0.18242 0,-0.18242c0,-0.09121 0.09121,-0.09121 0.18242,-0.09121h5.01658c0.09121,0 0.09121,0 0.09121,0.09121z" fill="#fefefe"/></g></g></g></svg>