<svg version="1.1" xmlns="http://www.w3.org/2000/svg" xmlns:xlink="http://www.w3.org/1999/xlink" width="19.1541" height="19.1541" viewBox="0,0,19.1541,19.1541"><g transform="translate(-310.42295,-170.42295)"><g data-paper-data="{&quot;isPaintingLayer&quot;:true}" stroke="none" stroke-width="1" stroke-linecap="butt" stroke-linejoin="miter" stroke-miterlimit="10" stroke-dasharray="" stroke-dashoffset="0" style="mix-blend-mode: normal"><g><path d="M314.16736,187.70484c-1.07376,0 -1.94421,-0.87045 -1.94421,-1.94421v-11.59327c0,-1.07376 0.87045,-1.94421 1.94421,-1.94421h11.59327c1.07376,0 1.94421,0.87045 1.94421,1.94421v11.59327c0,1.07376 -0.87045,1.94421 -1.94421,1.94421z" fill="#fefefe" fill-rule="evenodd"/><path d="M314.16736,170.49496h11.66528c1.00811,0 1.94421,0.36004 2.59228,1.08012v0c0.64807,0.64807 1.08012,1.58417 1.08012,2.59228v11.66528c0,1.00811 -0.43205,1.94421 -1.08012,2.59228v0c-0.64807,0.64807 -1.58417,1.08012 -2.59228,1.08012h-11.66528c-1.00811,0 -1.94421,-0.43205 -2.59228,-1.08012v0c-0.72008,-0.64807 -1.08012,-1.58417 -1.08012,-2.59228v-11.66528c0,-1.00811 0.36004,-1.94421 1.08012,-2.59228v0c0.64807,-0.72008 1.58417,-1.08012 2.59228,-1.08012zM314.16736,172.22315h11.66528c1.00811,0 1.94421,0.86409 1.94421,1.94421v11.66528c0,1.00811 -0.9361,1.94421 -1.94421,1.94421h-11.66528c-1.08012,0 -1.94421,-0.9361 -1.94421,-1.94421v-11.66528c0,-1.08012 0.86409,-1.94421 1.94421,-1.94421z" fill="#ef7f1a" fill-rule="evenodd"/><path d="M314.16736,170.42295h11.66528c0.50406,0 0.9361,0.07201 1.36815,0.28803c0.50406,0.21602 0.9361,0.50406 1.22413,0.79209v0c0.36004,0.36004 0.64807,0.79209 0.86409,1.22413c0.14402,0.43205 0.28803,0.9361 0.28803,1.44016v11.66528c0,0.50406 -0.14402,0.9361 -0.28803,1.36815c-0.21602,0.50406 -0.50406,0.9361 -0.86409,1.22413v0c-0.28803,0.36004 -0.72008,0.64807 -1.22413,0.86409c-0.43205,0.14402 -0.86409,0.28803 -1.36815,0.28803h-11.66528c-0.50406,0 -1.00811,-0.14402 -1.44016,-0.28803c-0.43205,-0.21602 -0.86409,-0.50406 -1.22413,-0.86409v0c-0.28803,-0.28803 -0.57606,-0.72008 -0.79209,-1.22413c-0.21602,-0.43205 -0.28803,-0.86409 -0.28803,-1.36815v-11.66528c0,-0.50406 0.07201,-1.00811 0.28803,-1.44016c0.21602,-0.43205 0.50406,-0.86409 0.79209,-1.22413v0c0.36004,-0.28803 0.79209,-0.57606 1.22413,-0.79209c0.50406,-0.21602 0.9361,-0.28803 1.44016,-0.28803zM325.83264,170.49496h-11.66528c-0.50406,0 -0.9361,0.14402 -1.36815,0.28803c-0.43205,0.21602 -0.86409,0.50406 -1.22413,0.79209v0c-0.28803,0.36004 -0.57606,0.79209 -0.79209,1.22413c-0.14402,0.43205 -0.28803,0.86409 -0.28803,1.36815v11.66528c0,0.43205 0.14402,0.9361 0.28803,1.36815c0.21602,0.43205 0.50406,0.86409 0.79209,1.15213v0.07201c0.36004,0.28803 0.79209,0.57606 1.22413,0.79209c0.43205,0.14402 0.86409,0.21602 1.36815,0.21602h11.66528c0.43205,0 0.9361,-0.07201 1.36815,-0.21602c0.43205,-0.21602 0.86409,-0.50406 1.15213,-0.79209l0.07201,-0.07201c0.28803,-0.28803 0.57606,-0.72008 0.79209,-1.15213c0.14402,-0.43205 0.21602,-0.9361 0.21602,-1.36815v-11.66528c0,-0.50406 -0.07201,-0.9361 -0.21602,-1.36815c-0.21602,-0.43205 -0.50406,-0.86409 -0.79209,-1.22413h-0.07201c-0.28803,-0.28803 -0.72008,-0.57606 -1.15213,-0.79209c-0.43205,-0.14402 -0.9361,-0.28803 -1.36815,-0.28803zM314.16736,172.15114h11.66528c0.50406,0 1.00811,0.28803 1.36815,0.64807c0.36004,0.36004 0.57606,0.86409 0.57606,1.36815v11.66528c0,0.50406 -0.21602,1.00811 -0.57606,1.36815c-0.36004,0.36004 -0.86409,0.57606 -1.36815,0.57606h-11.66528c-0.50406,0 -1.00811,-0.21602 -1.36815,-0.57606c-0.36004,-0.36004 -0.64807,-0.86409 -0.64807,-1.36815v-11.66528c0,-0.50406 0.28803,-1.00811 0.64807,-1.36815c0.36004,-0.36004 0.86409,-0.64807 1.36815,-0.64807zM325.83264,172.29516h-11.66528c-0.50406,0 -1.00811,0.21602 -1.29614,0.57606c-0.36004,0.28803 -0.57606,0.79209 -0.57606,1.29614v11.66528c0,0.50406 0.21602,0.9361 0.57606,1.29614c0.28803,0.36004 0.79209,0.57606 1.29614,0.57606h11.66528c0.50406,0 0.9361,-0.21602 1.29614,-0.57606c0.36004,-0.36004 0.57606,-0.79209 0.57606,-1.29614v-11.66528c0,-0.50406 -0.21602,-1.00811 -0.57606,-1.29614c-0.36004,-0.36004 -0.79209,-0.57606 -1.29614,-0.57606z" fill="#fefefe" fill-rule="nonzero"/><path d="M324.46449,176.54362c-0.72008,0 -1.22413,-0.50406 -1.22413,-1.15213c0,-0.64807 0.50406,-1.22413 1.22413,-1.22413c0.64807,0 1.15213,0.57606 1.15213,1.22413c0,0.64807 -0.50406,1.15213 -1.15213,1.15213z" fill="#e63331" fill-rule="nonzero"/><path d="M324.46449,176.68764c-0.79209,0 -1.36815,-0.57606 -1.36815,-1.29614c0,-0.72008 0.57606,-1.29614 1.36815,-1.29614c0.72008,0 1.29614,0.50406 1.29614,1.22413v0.07201c0,0.72008 -0.57606,1.29614 -1.29614,1.29614zM324.46449,174.31138c-0.57606,0 -1.08012,0.50406 -1.08012,1.08012c0,0.57606 0.50406,1.00811 1.08012,1.00811c0.57606,0 1.00811,-0.43205 1.00811,-1.00811c0,-0.57606 -0.43205,-1.08012 -1.00811,-1.08012z" fill="#5a3547" fill-rule="nonzero"/><path d="M322.66429,185.76063c-0.50406,0 -1.00811,-0.36004 -1.29614,-1.00811c-0.14402,0.07201 -0.36004,0.21602 -0.50406,0.28803c0,0.07201 0,0.07201 -0.07201,0.07201c0,0 -0.07201,0 -0.07201,-0.07201c-0.72008,-0.57606 -1.15213,-1.44016 -1.15213,-2.30425c0,-0.9361 0.43205,-1.72819 1.15213,-2.30425c0,-0.07201 0.07201,-0.07201 0.07201,-0.07201c0.07201,0 0.07201,0 0.07201,0.07201c0.14402,0.07201 0.36004,0.21602 0.50406,0.21602c0.28803,-0.57606 0.79209,-0.9361 1.29614,-0.9361c0.43205,0 0.9361,0.36004 1.22413,0.9361c0.14402,0 0.36004,-0.14402 0.50406,-0.21602c0,-0.07201 0.07201,-0.07201 0.07201,-0.07201c0.07201,0 0.07201,0 0.07201,0.07201c0.72008,0.57606 1.15213,1.36815 1.15213,2.30425c0,0.86409 -0.43205,1.72819 -1.15213,2.30425c0,0.07201 0,0.07201 -0.07201,0.07201c0,0 -0.07201,0 -0.07201,-0.07201c-0.14402,-0.07201 -0.36004,-0.21602 -0.50406,-0.28803c-0.28803,0.64807 -0.79209,1.00811 -1.22413,1.00811z" fill="#4e4e50" fill-rule="nonzero"/><path d="M321.44016,180.86409v0c0,0 -0.43205,-0.14402 -0.64807,-0.36004c-0.64807,0.57606 -1.00811,1.36815 -1.00811,2.23224c0,0.86409 0.36004,1.65618 1.00811,2.23224c0.21602,-0.21602 0.64807,-0.43205 0.64807,-0.43205v0c0.28803,0.64807 0.72008,1.08012 1.22413,1.08012c0.43205,0 0.86409,-0.43205 1.15213,-1.08012v0c0,0 0.43205,0.21602 0.64807,0.43205c0.64807,-0.57606 1.00811,-1.36815 1.00811,-2.23224c0,-0.86409 -0.36004,-1.65618 -1.00811,-2.23224c-0.21602,0.21602 -0.64807,0.36004 -0.64807,0.36004v0c-0.28803,-0.57606 -0.72008,-1.00811 -1.15213,-1.00811c-0.50406,0 -0.9361,0.43205 -1.22413,1.00811zM323.96043,180.43205c0.07201,0 0.21602,-0.07201 0.28803,-0.14402c0.07201,-0.07201 0.14402,-0.07201 0.21602,-0.07201c0.07201,0 0.14402,0 0.21602,0.07201c0.72008,0.57606 1.15213,1.51217 1.15213,2.44827c0,0.9361 -0.43205,1.87221 -1.15213,2.44827c-0.07201,0.07201 -0.14402,0.07201 -0.21602,0.07201c-0.07201,0 -0.14402,0 -0.21602,-0.07201c-0.07201,-0.07201 -0.21602,-0.14402 -0.28803,-0.21602c-0.36004,0.64807 -0.79209,0.9361 -1.29614,0.9361c-0.57606,0 -1.00811,-0.28803 -1.36815,-0.9361c-0.07201,0.07201 -0.21602,0.14402 -0.28803,0.21602c-0.07201,0.07201 -0.14402,0.07201 -0.21602,0.07201c-0.07201,0 -0.14402,0 -0.21602,-0.07201c-0.72008,-0.57606 -1.15213,-1.51217 -1.15213,-2.44827c0,-0.9361 0.43205,-1.87221 1.15213,-2.44827c0.07201,-0.07201 0.14402,-0.07201 0.21602,-0.07201c0.07201,0 0.14402,0 0.21602,0.07201c0.07201,0.07201 0.21602,0.14402 0.28803,0.14402c0.36004,-0.57606 0.79209,-0.86409 1.36815,-0.86409c0.50406,0 0.9361,0.28803 1.29614,0.86409z" fill="#4e4e50" fill-rule="nonzero"/><path d="M322.66429,185.76063c-0.50406,0 -1.00811,-0.36004 -1.29614,-1.00811c-0.14402,0.07201 -0.36004,0.21602 -0.50406,0.28803c0,0.07201 0,0.07201 -0.07201,0.07201c0,0 -0.07201,0 -0.07201,-0.07201c-0.72008,-0.57606 -1.15213,-1.44016 -1.15213,-2.30425c0,-0.9361 0.43205,-1.72819 1.15213,-2.30425c0,-0.07201 0.07201,-0.07201 0.07201,-0.07201c0.07201,0 0.07201,0 0.07201,0.07201c0.14402,0.07201 0.36004,0.21602 0.50406,0.21602c0.28803,-0.57606 0.79209,-0.9361 1.29614,-0.9361c0.43205,0 0.9361,0.36004 1.22413,0.9361c0.14402,0 0.36004,-0.14402 0.50406,-0.21602c0,-0.07201 0.07201,-0.07201 0.07201,-0.07201c0.07201,0 0.07201,0 0.07201,0.07201c0.72008,0.57606 1.15213,1.36815 1.15213,2.30425c0,0.86409 -0.43205,1.72819 -1.15213,2.30425c0,0.07201 0,0.07201 -0.07201,0.07201c0,0 -0.07201,0 -0.07201,-0.07201c-0.14402,-0.07201 -0.36004,-0.21602 -0.50406,-0.28803c-0.28803,0.64807 -0.79209,1.00811 -1.22413,1.00811z" fill="#fecf1e" fill-rule="nonzero"/><path d="M321.44016,180.86409v0c0,0 -0.43205,-0.14402 -0.64807,-0.36004c-0.64807,0.57606 -1.00811,1.36815 -1.00811,2.23224c0,0.86409 0.36004,1.65618 1.00811,2.23224c0.21602,-0.21602 0.64807,-0.43205 0.64807,-0.43205v0c0.28803,0.64807 0.72008,1.08012 1.22413,1.08012c0.43205,0 0.86409,-0.43205 1.15213,-1.08012v0c0,0 0.43205,0.21602 0.64807,0.43205c0.64807,-0.57606 1.00811,-1.36815 1.00811,-2.23224c0,-0.86409 -0.36004,-1.65618 -1.00811,-2.23224c-0.21602,0.21602 -0.64807,0.36004 -0.64807,0.36004v0c-0.28803,-0.57606 -0.72008,-1.00811 -1.15213,-1.00811c-0.50406,0 -0.9361,0.43205 -1.22413,1.00811zM323.96043,180.43205c0.07201,0 0.21602,-0.07201 0.28803,-0.14402c0.07201,-0.07201 0.14402,-0.07201 0.21602,-0.07201c0.07201,0 0.14402,0 0.21602,0.07201c0.72008,0.57606 1.15213,1.51217 1.15213,2.44827c0,0.9361 -0.43205,1.87221 -1.15213,2.44827c-0.07201,0.07201 -0.14402,0.07201 -0.21602,0.07201c-0.07201,0 -0.14402,0 -0.21602,-0.07201c-0.07201,-0.07201 -0.21602,-0.14402 -0.28803,-0.21602c-0.36004,0.64807 -0.79209,0.9361 -1.29614,0.9361c-0.57606,0 -1.00811,-0.28803 -1.36815,-0.9361c-0.07201,0.07201 -0.21602,0.14402 -0.28803,0.21602c-0.07201,0.07201 -0.14402,0.07201 -0.21602,0.07201c-0.07201,0 -0.14402,0 -0.21602,-0.07201c-0.72008,-0.57606 -1.15213,-1.51217 -1.15213,-2.44827c0,-0.9361 0.43205,-1.87221 1.15213,-2.44827c0.07201,-0.07201 0.14402,-0.07201 0.21602,-0.07201c0.07201,0 0.14402,0 0.21602,0.07201c0.07201,0.07201 0.21602,0.14402 0.28803,0.14402c0.36004,-0.57606 0.79209,-0.86409 1.36815,-0.86409c0.50406,0 0.9361,0.28803 1.29614,0.86409z" fill="#4e4e50" fill-rule="nonzero"/><path d="M321.8002,184.82453c0.14402,-0.50406 0.57606,-0.86409 0.64807,-0.9361c0.07201,-0.07201 0.43205,-0.36004 0.57606,-0.79209h-0.86409c0.14402,0.21602 0.36004,0.50406 0.36004,0.50406l-0.21602,0.21602c0,0 -0.50406,-0.43205 -0.50406,-1.08012c-0.07201,-0.57606 0.43205,-1.00811 0.79209,-1.36815c0.21602,-0.14402 0.28803,-0.36004 0.36004,-0.50406h-0.72008c0.07201,0.14402 0.14402,0.28803 0.28803,0.36004l-0.21602,0.21602c0,0 -0.50406,-0.43205 -0.50406,-0.79209c0,-0.36004 0.28803,-0.21602 0.28803,-0.07201c0,0 0,0.07201 0,0.14402h1.00811v0c0,0 0,-0.36004 0.21602,-0.36004c0.14402,0.07201 0.07201,0.28803 0.07201,0.28803c-0.07201,0.64807 -0.57606,0.86409 -0.9361,1.29614c-0.14402,0.07201 -0.21602,0.21602 -0.21602,0.36004h0.86409c-0.14402,-0.28803 -0.36004,-0.50406 -0.36004,-0.50406l0.21602,-0.14402c0.72008,0.57606 0.57606,1.22413 0.36004,1.58417c-0.14402,0.43205 -0.50406,0.79209 -0.72008,0.9361c-0.14402,0.07201 -0.21602,0.21602 -0.28803,0.36004h0.64807c-0.07201,-0.21602 -0.21602,-0.28803 -0.21602,-0.28803l0.21602,-0.21602c0.36004,0.36004 0.50406,0.79209 0.50406,0.79209c0,0 0.07201,0.14402 -0.07201,0.21602c-0.21602,0.07201 -0.21602,-0.14402 -0.21602,-0.14402c-0.07201,-0.07201 -0.07201,-0.14402 -0.14402,-0.21602h-0.86409c0,0.07201 0,0.14402 0,0.14402c0,0 -0.07201,0.28803 -0.28803,0.21602c-0.14402,0 -0.07201,-0.21602 -0.07201,-0.21602zM323.09634,182.95232c0.07201,-0.07201 0.07201,-0.14402 0.07201,-0.21602c0,-0.07201 0,-0.14402 0,-0.28803h-1.00811c-0.07201,0.21602 -0.07201,0.36004 -0.07201,0.50406z" fill="#4e4e50" fill-rule="nonzero"/><path d="M316.03957,180.07201c0,0 -0.07201,0 -0.07201,-0.07201l-1.58417,-1.58417c-0.07201,0 -0.07201,-0.07201 -0.07201,-0.07201v-2.30425c0,0 0,-0.07201 0.07201,-0.07201l1.58417,-1.58417c0,-0.07201 0.07201,-0.07201 0.07201,-0.07201h2.30425c0,0 0.07201,0 0.07201,0.07201l1.58417,1.58417c0.07201,0 0.07201,0.07201 0.07201,0.07201v2.30425c0,0 0,0.07201 -0.07201,0.07201l-1.58417,1.58417c0,0.07201 -0.07201,0.07201 -0.07201,0.07201z" fill="#ed7f32" fill-rule="nonzero"/><path d="M316.03957,174.45539l-1.58417,1.58417v2.30425l1.58417,1.58417h2.30425l1.58417,-1.58417v-2.30425l-1.58417,-1.58417zM320.14402,178.55984l-1.58417,1.58417c-0.07201,0 -0.14402,0.07201 -0.21602,0.07201v0h-2.30425v0c-0.07201,0 -0.14402,-0.07201 -0.21602,-0.07201l-1.58417,-1.58417c-0.07201,-0.07201 -0.07201,-0.14402 -0.07201,-0.21602v-2.30425c0,-0.07201 0,-0.14402 0.07201,-0.21602l1.58417,-1.58417c0.07201,-0.07201 0.14402,-0.07201 0.21602,-0.07201v0h2.30425v0c0.07201,0 0.14402,0 0.21602,0.07201l1.58417,1.58417c0,0.07201 0.07201,0.14402 0.07201,0.21602v2.30425c0,0.07201 -0.07201,0.14402 -0.07201,0.21602z" fill="#fefefe" fill-rule="nonzero"/><path d="M317.98378,175.17547c-0.14402,0.43205 -0.57606,0.86409 -0.64807,0.9361c-0.07201,0.07201 -0.36004,0.36004 -0.57606,0.72008h0.86409c-0.07201,-0.21602 -0.36004,-0.43205 -0.36004,-0.43205l0.21602,-0.21602c0,0 0.50406,0.36004 0.50406,1.00811c0.07201,0.57606 -0.36004,0.9361 -0.72008,1.29614c-0.21602,0.14402 -0.36004,0.36004 -0.43205,0.43205h0.79209c-0.07201,-0.07201 -0.21602,-0.21602 -0.28803,-0.28803l0.14402,-0.21602c0,0 0.50406,0.43205 0.50406,0.79209c0,0.28803 -0.28803,0.21602 -0.28803,0.07201c0.07201,-0.07201 0,-0.07201 0,-0.14402l-0.9361,-0.07201c0,0.07201 0,0.07201 0,0.07201c0,0 -0.07201,0.28803 -0.21602,0.28803c-0.14402,0 -0.07201,-0.21602 -0.07201,-0.21602c0.07201,-0.64807 0.57606,-0.86409 0.9361,-1.22413c0.07201,-0.14402 0.14402,-0.28803 0.21602,-0.36004h-0.86409c0.14402,0.21602 0.28803,0.43205 0.28803,0.43205l-0.14402,0.21602c-0.72008,-0.64807 -0.57606,-1.22413 -0.43205,-1.58417c0.21602,-0.43205 0.57606,-0.72008 0.72008,-0.86409c0.14402,-0.07201 0.28803,-0.21602 0.36004,-0.36004h-0.72008c0.14402,0.14402 0.21602,0.28803 0.21602,0.28803l-0.21602,0.21602c-0.36004,-0.36004 -0.43205,-0.79209 -0.43205,-0.79209c0,0 -0.07201,-0.14402 0.07201,-0.21602c0.14402,-0.07201 0.21602,0.14402 0.21602,0.14402c0,0.07201 0.07201,0.14402 0.07201,0.21602h0.86409c0,-0.07201 0.07201,-0.14402 0.07201,-0.14402c0,0 0,-0.28803 0.21602,-0.21602c0.14402,0 0.07201,0.21602 0.07201,0.21602zM316.68764,176.97567c0,0.07201 0,0.14402 0,0.21602c0,0.07201 0,0.14402 0,0.21602h1.00811c0,-0.14402 0,-0.28803 0,-0.43205z" fill="#fefefe" fill-rule="nonzero"/></g></g></g></svg>