<svg version="1.1" xmlns="http://www.w3.org/2000/svg" xmlns:xlink="http://www.w3.org/1999/xlink" width="19.1541" height="19.1541" viewBox="0,0,19.1541,19.1541"><g transform="translate(-310.42295,-170.42295)"><g data-paper-data="{&quot;isPaintingLayer&quot;:true}" stroke="none" stroke-width="1" stroke-linecap="butt" stroke-linejoin="miter" stroke-miterlimit="10" stroke-dasharray="" stroke-dashoffset="0" style="mix-blend-mode: normal"><g><path d="M314.27579,187.81575c-1.09433,0 -1.98146,-0.88713 -1.98146,-1.98146v-11.55851c0,-1.09433 0.88713,-1.98146 1.98146,-1.98146h11.55851c1.09433,0 1.98146,0.88713 1.98146,1.98146v11.55851c0,1.09433 -0.88713,1.98146 -1.98146,1.98146z" fill="#fefefe" fill-rule="evenodd"/><path d="M314.16571,170.42295h11.66859c0.99073,0 1.98146,0.44032 2.64194,1.10081v0c0.66049,0.77057 1.10081,1.65122 1.10081,2.64194v11.66859c0,0.99073 -0.44032,1.98146 -1.10081,2.64194v0c-0.66049,0.66049 -1.65122,1.10081 -2.64194,1.10081h-11.66859c-0.99073,0 -1.87138,-0.44032 -2.64194,-1.10081v0c-0.66049,-0.66049 -1.10081,-1.65122 -1.10081,-2.64194v-11.66859c0,-0.99073 0.44032,-1.87138 1.10081,-2.64194v0c0.77057,-0.66049 1.65122,-1.10081 2.64194,-1.10081zM314.16571,172.29433h11.66859c1.10081,0 1.98146,0.88065 1.98146,1.87138v11.66859c0,1.10081 -0.88065,1.98146 -1.98146,1.98146h-11.66859c-0.99073,0 -1.87138,-0.88065 -1.87138,-1.98146v-11.66859c0,-0.99073 0.88065,-1.87138 1.87138,-1.87138z" fill="#ef7f1a" fill-rule="evenodd"/><path d="M314.16571,170.42295h11.66859c0.55041,0 0.99073,0.11008 1.43105,0.33024c0.44032,0.11008 0.88065,0.44032 1.21089,0.77057v0c0.44032,0.33024 0.66049,0.77057 0.88065,1.21089c0.11008,0.44032 0.22016,0.99073 0.22016,1.43105v11.66859c0,0.55041 -0.11008,0.99073 -0.22016,1.43105c-0.22016,0.44032 -0.44032,0.88065 -0.88065,1.21089v0c-0.33024,0.44032 -0.77057,0.66049 -1.21089,0.88065c-0.44032,0.11008 -0.88065,0.22016 -1.43105,0.22016h-11.66859c-0.44032,0 -0.99073,-0.11008 -1.43105,-0.22016c-0.44032,-0.22016 -0.88065,-0.44032 -1.21089,-0.88065v0c-0.33024,-0.33024 -0.66049,-0.77057 -0.77057,-1.21089c-0.22016,-0.44032 -0.33024,-0.88065 -0.33024,-1.43105v-11.66859c0,-0.44032 0.11008,-0.99073 0.33024,-1.43105c0.11008,-0.44032 0.44032,-0.88065 0.77057,-1.21089v0c0.33024,-0.33024 0.77057,-0.66049 1.21089,-0.77057c0.44032,-0.22016 0.99073,-0.33024 1.43105,-0.33024zM325.83429,170.53303h-11.66859c-0.44032,0 -0.99073,0.11008 -1.32097,0.22016c-0.44032,0.22016 -0.88065,0.55041 -1.21089,0.88065v0c-0.33024,0.33024 -0.66049,0.77057 -0.88065,1.21089c-0.11008,0.33024 -0.22016,0.88065 -0.22016,1.32097v11.66859c0,0.55041 0.11008,0.99073 0.22016,1.43105c0.22016,0.44032 0.55041,0.88065 0.88065,1.21089v0c0.33024,0.33024 0.77057,0.55041 1.21089,0.77057c0.33024,0.22016 0.88065,0.33024 1.32097,0.33024h11.66859c0.55041,0 0.99073,-0.11008 1.43105,-0.33024c0.44032,-0.22016 0.88065,-0.44032 1.21089,-0.77057v0c0.33024,-0.33024 0.55041,-0.77057 0.77057,-1.21089c0.22016,-0.44032 0.33024,-0.88065 0.33024,-1.43105v-11.66859c0,-0.44032 -0.11008,-0.99073 -0.33024,-1.32097c-0.22016,-0.44032 -0.44032,-0.88065 -0.77057,-1.21089v0c-0.33024,-0.33024 -0.77057,-0.66049 -1.21089,-0.88065c-0.44032,-0.11008 -0.88065,-0.22016 -1.43105,-0.22016zM314.16571,172.18425h11.66859c0.55041,0 1.10081,0.22016 1.43105,0.55041c0.33024,0.44032 0.55041,0.88065 0.55041,1.43105v11.66859c0,0.55041 -0.22016,1.10081 -0.55041,1.43105c-0.33024,0.33024 -0.88065,0.55041 -1.43105,0.55041h-11.66859c-0.55041,0 -0.99073,-0.22016 -1.43105,-0.55041c-0.33024,-0.33024 -0.55041,-0.88065 -0.55041,-1.43105v-11.66859c0,-0.55041 0.22016,-0.99073 0.55041,-1.43105c0.44032,-0.33024 0.88065,-0.55041 1.43105,-0.55041zM325.83429,172.29433h-11.66859c-0.44032,0 -0.99073,0.22016 -1.32097,0.55041c-0.33024,0.33024 -0.55041,0.88065 -0.55041,1.32097v11.66859c0,0.55041 0.22016,0.99073 0.55041,1.32097c0.33024,0.33024 0.88065,0.55041 1.32097,0.55041h11.66859c0.55041,0 0.99073,-0.22016 1.32097,-0.55041c0.33024,-0.33024 0.55041,-0.77057 0.55041,-1.32097v-11.66859c0,-0.44032 -0.22016,-0.99073 -0.55041,-1.32097c-0.33024,-0.33024 -0.77057,-0.55041 -1.32097,-0.55041z" fill="#fefefe" fill-rule="nonzero"/><path d="M324.18308,176.91773c-0.66049,0 -1.10081,-0.55041 -1.10081,-1.21089c0,-0.66049 0.44032,-1.21089 1.10081,-1.21089c0.66049,0 1.21089,0.55041 1.21089,1.21089c0,0.66049 -0.55041,1.21089 -1.21089,1.21089z" fill="#e63331" fill-rule="nonzero"/><path d="M324.18308,177.02781c-0.66049,0 -1.32097,-0.55041 -1.32097,-1.32097c0,-0.66049 0.66049,-1.32097 1.32097,-1.32097c0.77057,0 1.32097,0.55041 1.32097,1.32097v0.11008c0,0.66049 -0.55041,1.21089 -1.32097,1.21089zM324.18308,174.71611c-0.55041,0 -0.99073,0.44032 -0.99073,0.99073c0,0.55041 0.44032,1.10081 0.99073,1.10081c0.66049,0 1.10081,-0.55041 1.10081,-1.10081c0,-0.55041 -0.44032,-0.99073 -1.10081,-0.99073z" fill="#5a3547" fill-rule="nonzero"/><path d="M324.073,183.63267l0.44032,0.66049l-2.3117,1.10081l-2.20162,-1.10081l0.33024,-0.66049l-0.99073,-1.21089l1.10081,-1.10081l-0.44032,-0.77057l2.20162,-0.99073l2.3117,0.99073c0,0 -0.33024,0.44032 -0.44032,0.77057c0,-0.11008 1.10081,1.10081 1.10081,1.10081z" fill="#00abe8" fill-rule="nonzero"/><path d="M320,180.55041l0.44032,0.77057l-1.10081,1.10081l0.99073,1.21089l-0.33024,0.66049l2.20162,1.10081l2.3117,-1.10081l-0.44032,-0.66049l1.10081,-1.21089l-1.10081,-1.10081c0.11008,-0.33024 0.44032,-0.77057 0.44032,-0.77057l-2.3117,-0.99073zM322.3117,179.22943l2.3117,1.10081c0,0 0.11008,0.11008 0.11008,0.22016c0,0 0,0.11008 0,0.22016c-0.11008,0.11008 -0.22016,0.22016 -0.33024,0.44032c0.11008,0.11008 0.22016,0.22016 0.44032,0.44032c0.22016,0.33024 0.55041,0.55041 0.55041,0.55041c0,0.11008 0,0.11008 0,0.22016v0c0,0.11008 0,0.11008 0,0.22016l-0.88065,0.99073l0.22016,0.55041c0,0 0,0.11008 0,0.22016c0,0.11008 -0.11008,0.11008 -0.11008,0.22016l-2.3117,0.99073c0,0 0,0 -0.11008,0v0v0v0v0v0v0h-0.11008l-2.20162,-0.99073c-0.11008,-0.11008 -0.11008,-0.11008 -0.22016,-0.22016c0,-0.11008 0,-0.22016 0.11008,-0.22016l0.22016,-0.55041l-0.88065,-0.99073c-0.11008,-0.11008 -0.11008,-0.33024 0,-0.44032l0.88065,-0.99073l-0.22016,-0.44032c-0.11008,-0.11008 -0.11008,-0.22016 -0.11008,-0.22016c0.11008,-0.11008 0.11008,-0.22016 0.22016,-0.22016l2.20162,-1.10081h0.11008c0.11008,0 0.11008,0 0.11008,0z" fill="#4e4e50" fill-rule="nonzero"/><path d="M323.08227,180.33024c-0.11008,0.44032 -0.55041,0.88065 -0.66049,0.99073c-0.11008,0 -0.44032,0.33024 -0.66049,0.66049l0.99073,0.11008c-0.11008,-0.22016 -0.44032,-0.55041 -0.44032,-0.55041l0.22016,-0.22016c0,0 0.55041,0.44032 0.55041,1.10081c0,0.66049 -0.44032,0.99073 -0.77057,1.43105c-0.22016,0.11008 -0.33024,0.33024 -0.44032,0.44032h0.77057c-0.11008,-0.11008 -0.22016,-0.22016 -0.22016,-0.33024l0.11008,-0.22016c0,0 0.55041,0.44032 0.55041,0.77057c0,0.33024 -0.33024,0.33024 -0.33024,0.11008c0.11008,0 0,-0.11008 0,-0.11008l-0.99073,-0.11008c0,0.11008 0,0.11008 0,0.11008c0,0 0,0.33024 -0.22016,0.33024c-0.11008,0 -0.11008,-0.33024 -0.11008,-0.33024c0.11008,-0.66049 0.66049,-0.88065 0.99073,-1.21089c0.11008,-0.22016 0.22016,-0.33024 0.22016,-0.44032h-0.88065c0.11008,0.33024 0.33024,0.44032 0.33024,0.44032l-0.22016,0.22016c-0.66049,-0.55041 -0.55041,-1.21089 -0.33024,-1.65122c0.11008,-0.33024 0.55041,-0.77057 0.77057,-0.88065c0.11008,-0.11008 0.22016,-0.22016 0.22016,-0.33024h-0.66049c0.11008,0.11008 0.22016,0.33024 0.22016,0.33024l-0.22016,0.11008c-0.33024,-0.33024 -0.44032,-0.77057 -0.44032,-0.77057c0,0 -0.11008,-0.11008 0.11008,-0.22016c0.11008,-0.11008 0.22016,0.11008 0.22016,0.11008c0,0.11008 0,0.11008 0,0.22016h0.88065c0.11008,0 0.11008,-0.11008 0.11008,-0.11008c0,0 0,-0.33024 0.22016,-0.22016c0.11008,0 0.11008,0.22016 0.11008,0.22016zM321.7613,182.20162c0,0.11008 -0.11008,0.11008 -0.11008,0.22016c0,0.11008 0,0.22016 0.11008,0.22016h0.99073c0,-0.11008 0,-0.33024 0,-0.44032z" fill="#4e4e50" fill-rule="nonzero"/><path d="M318.12862,179.77984h-1.10081v0c-1.32097,-0.11008 -2.42178,-1.21089 -2.42178,-2.53186c0,-1.43105 1.10081,-2.53186 2.42178,-2.53186h0.11008h0.99073z" fill="#ed9e34" fill-rule="nonzero"/><path d="M318.12862,179.88992h-1.10081v0h-0.11008v0v0c-1.32097,0 -2.42178,-1.21089 -2.42178,-2.64194c0,-1.43105 1.10081,-2.64194 2.53186,-2.64194v0v0v0h0.11008v0h0.99073c0,0 0.11008,0 0.11008,0.11008v5.06373l-0.11008,0.11008zM317.02781,179.55968h0.88065v-4.6234h-0.77057h-0.11008c-1.21089,0 -2.20162,0.99073 -2.20162,2.3117c0,1.32097 0.99073,2.3117 2.20162,2.3117z" fill="#5b3523" fill-rule="nonzero"/><path d="M320.44032,177.24797c0,1.32097 -1.10081,2.53186 -2.42178,2.53186c-1.32097,0 -2.42178,-1.21089 -2.42178,-2.53186c0,-1.43105 1.10081,-2.53186 2.42178,-2.53186c1.32097,0 2.42178,1.10081 2.42178,2.53186z" fill="#fcc127" fill-rule="nonzero"/><path d="M318.01854,179.88992c-1.43105,0 -2.53186,-1.21089 -2.53186,-2.64194c0,-1.43105 1.10081,-2.64194 2.53186,-2.64194v0c1.43105,0 2.53186,1.21089 2.53186,2.64194c0,1.43105 -1.10081,2.64194 -2.53186,2.64194zM318.01854,174.93627c-1.21089,0 -2.20162,0.99073 -2.20162,2.3117c0,1.32097 0.99073,2.3117 2.20162,2.3117c1.21089,0 2.3117,-0.99073 2.3117,-2.3117c0,-1.32097 -1.10081,-2.3117 -2.3117,-2.3117z" fill="#5b3523" fill-rule="nonzero"/><path d="M317.02781,176.25724v-0.11008c0,0 0.11008,0 0.11008,-0.11008c0,0 0,0 0.11008,-0.11008h0.11008c0,-0.11008 0.11008,-0.11008 0.11008,-0.11008c0.11008,-0.11008 0.11008,-0.11008 0.11008,-0.11008c0.11008,0 0.11008,-0.11008 0.22016,-0.11008c0,0 0.11008,0 0.11008,-0.11008v0h0.11008c0,0 0,0 0.11008,0c0,0 0,0 0.11008,0h0.11008h0.11008c0.11008,0 0.11008,0 0.22016,0c0,0 0,0 0.11008,0v0h0.22016v0.22016v0v0.11008v0c0,0 0,0.11008 0,0.22016v0v0v0.11008v0c0,0.11008 0,0.11008 0,0.11008c0,0 0,0 0,0.11008v0c0,0.11008 0,0.22016 0,0.33024c0,0.11008 0,0.22016 0,0.33024v0.11008c0,0.22016 0,0.33024 0,0.55041v0.33024v0.33024c0,0.11008 0,0.22016 0,0.33024c0,0 0,0.11008 0,0.22016v0l-0.11008,0.11008h-0.11008v0c-0.11008,0 -0.11008,0 -0.11008,0v0.11008h-0.11008v0h-0.11008v0v0h-0.11008h-0.11008h-0.11008v0h-0.11008v0v0v-0.11008h-0.11008c0,0 0,0 -0.11008,0v0c-0.11008,0 -0.11008,0 -0.11008,-0.11008v0v-0.11008v-0.11008c0,-0.11008 0,-0.22016 0,-0.22016v-0.22016c0,-0.11008 0,-0.22016 0,-0.22016c0,-0.11008 0,-0.11008 0,-0.11008v-0.11008c0,0 0,0 0,-0.11008v0v-0.22016v-0.22016v-0.11008h-0.11008c0,0 0,0 -0.11008,0c0,0 -0.11008,0 -0.11008,-0.11008c-0.11008,0 -0.11008,0 -0.11008,-0.11008v0h-0.11008c0,-0.11008 0,-0.11008 0,-0.22016c-0.11008,0 -0.11008,0 -0.11008,-0.11008c0,0 0,0 0,-0.11008c0,0 0,0 0,-0.11008c-0.11008,0 -0.11008,0 -0.11008,-0.11008zM317.35806,176.36733v0v0v0c0,0.11008 0,0.11008 0,0.11008c0.11008,0 0.11008,0.11008 0.11008,0.11008v0.11008v0h0.11008v0v0l0.11008,-0.11008v0l0.33024,-0.22016v0.33024v0.22016v0.33024v0.22016v0.11008v0v0c0,0.11008 0.11008,0.11008 0.11008,0.11008v0v0c0.11008,0.11008 0.11008,0.11008 0.11008,0.11008c0,0.11008 0,0.11008 -0.11008,0.22016v0h-0.11008v0v0.11008v0.11008v0.22016c0,0.11008 0,0.11008 0,0.22016v0h0.11008v0c0.11008,0 0.11008,0 0.11008,0h0.11008h0.11008v0h0.11008h0.11008v-0.11008c0,0 0,-0.11008 0,-0.22016v-0.33024v-0.33024c0,-0.22016 0,-0.33024 0,-0.55041v-0.11008c0,-0.11008 0,-0.22016 0,-0.33024c0,-0.11008 0,-0.22016 0,-0.33024h-0.11008c0,-0.11008 0,-0.11008 0,-0.11008c0,-0.11008 0,-0.11008 0,-0.22016h0.11008v-0.11008h-0.11008c0,-0.11008 0,-0.11008 -0.11008,-0.11008c0,0 0,0 -0.11008,0c-0.11008,0 -0.11008,0 -0.11008,0c0,0 -0.11008,0 -0.11008,0.11008h-0.11008v0c0,0 0,0 -0.11008,0c0,0 0,0 -0.11008,0.11008h-0.11008c0,0.11008 -0.11008,0.11008 -0.11008,0.11008c0,0.11008 -0.11008,0.11008 -0.11008,0.11008c0,0 -0.11008,0 -0.11008,0.11008z" fill="#5b3523" fill-rule="nonzero"/><path d="M317.13789,176.36733c0,-0.11008 0.11008,-0.11008 0.11008,-0.22016c0.11008,0 0.11008,-0.11008 0.22016,-0.11008c0.11008,-0.11008 0.22016,-0.11008 0.22016,-0.22016c0.11008,0 0.22016,-0.11008 0.33024,-0.11008c0,0 0,0 0.11008,0c0,0 0.11008,0 0.22016,0c0.11008,0 0.22016,0 0.22016,0c0.11008,0 0.22016,0 0.22016,0v0.11008c0,0.11008 0,0.11008 0,0.22016c0,0 0,0 0,0.11008c0,0 0,0 0,0.11008v0v0.11008c0.11008,0.22016 0.11008,0.44032 0.11008,0.66049c-0.11008,0.22016 -0.11008,0.44032 -0.11008,0.66049c0,0.22016 0,0.44032 0,0.66049c0,0.22016 0,0.33024 0,0.44032v0.11008c-0.11008,0 -0.11008,0 -0.11008,0c-0.11008,0 -0.11008,0 -0.22016,0h-0.11008c-0.11008,0 -0.11008,0 -0.22016,0h-0.11008h-0.11008c0,0 0,-0.11008 -0.11008,-0.11008c0,-0.11008 0,-0.22016 0,-0.33024c0,-0.22016 0,-0.33024 0,-0.44032l0.11008,-0.11008v0h0.11008c0,0 0,0 0,-0.11008v0h-0.11008v0c0,-0.11008 -0.11008,-0.11008 -0.11008,-0.11008c0,-0.11008 0,-0.33024 0,-0.44032c0,-0.22016 0.11008,-0.33024 0.11008,-0.55041c-0.11008,0 -0.11008,0 -0.11008,0.11008h-0.11008c0,0.11008 -0.11008,0.11008 -0.11008,0.11008h-0.11008c0,0 0,0 -0.11008,-0.11008c0,0 0,-0.11008 -0.11008,-0.11008c0,-0.11008 0,-0.22016 -0.11008,-0.22016c0,-0.11008 0,-0.11008 0,-0.11008z" fill="#fcc127" fill-rule="nonzero"/><path d="M317.13789,176.36733c0,-0.11008 0.11008,-0.11008 0.11008,-0.22016c0.11008,0 0.11008,-0.11008 0.22016,-0.11008c0.11008,-0.11008 0.22016,-0.11008 0.22016,-0.22016c0.11008,0 0.22016,-0.11008 0.33024,-0.11008c0,0 0,0 0.11008,0c0,0 0.11008,0 0.22016,0c0.11008,0 0.22016,0 0.22016,0c0.11008,0 0.22016,0 0.22016,0v0.11008c0,0.11008 0,0.11008 0,0.22016c0,0 0,0 0,0.11008c0,0 0,0 0,0.11008v0v0.11008c0.11008,0.22016 0.11008,0.44032 0.11008,0.66049c-0.11008,0.22016 -0.11008,0.44032 -0.11008,0.66049c0,0.22016 0,0.44032 0,0.66049c0,0.22016 0,0.33024 0,0.44032v0.11008c-0.11008,0 -0.11008,0 -0.11008,0c-0.11008,0 -0.11008,0 -0.22016,0h-0.11008c-0.11008,0 -0.11008,0 -0.22016,0h-0.11008h-0.11008c0,0 0,-0.11008 -0.11008,-0.11008c0,-0.11008 0,-0.22016 0,-0.33024c0,-0.22016 0,-0.33024 0,-0.44032l0.11008,-0.11008v0h0.11008c0,0 0,0 0,-0.11008v0h-0.11008v0c0,-0.11008 -0.11008,-0.11008 -0.11008,-0.11008c0,-0.11008 0,-0.33024 0,-0.44032c0,-0.22016 0.11008,-0.33024 0.11008,-0.55041c-0.11008,0 -0.11008,0 -0.11008,0.11008h-0.11008c0,0.11008 -0.11008,0.11008 -0.11008,0.11008h-0.11008c0,0 0,0 -0.11008,-0.11008c0,0 0,-0.11008 -0.11008,-0.11008c0,-0.11008 0,-0.22016 -0.11008,-0.22016c0,-0.11008 0,-0.11008 0,-0.11008z" fill="#ed9e34" fill-rule="nonzero"/></g></g></g></svg>