<svg version="1.1" xmlns="http://www.w3.org/2000/svg" xmlns:xlink="http://www.w3.org/1999/xlink" width="19.1541" height="19.1541" viewBox="0,0,19.1541,19.1541"><g transform="translate(-310.42295,-170.42295)"><g data-paper-data="{&quot;isPaintingLayer&quot;:true}" stroke="none" stroke-width="1" stroke-linecap="butt" stroke-linejoin="miter" stroke-miterlimit="10" stroke-dasharray="" stroke-dashoffset="0" style="mix-blend-mode: normal"><g><path d="M314.21676,187.81894c-1.07318,0 -1.94317,-0.86999 -1.94317,-1.94317v-11.65902c0,-1.07318 0.86999,-1.94317 1.94317,-1.94317h11.65902c1.07318,0 1.94317,0.86999 1.94317,1.94317v11.65902c0,1.07318 -0.86999,1.94317 -1.94317,1.94317z" fill="#fefefe" fill-rule="evenodd"/><path d="M314.21676,170.51548h11.56649c1.01785,0 1.94317,0.37013 2.59089,1.01785h0.09253c0.64772,0.74026 1.01785,1.66557 1.01785,2.68342v11.56649c0,1.01785 -0.37013,1.94317 -1.01785,2.59089l-0.09253,0.09253c-0.64772,0.64772 -1.57304,1.01785 -2.59089,1.01785h-11.56649c-1.01785,0 -1.94317,-0.37013 -2.68342,-1.01785v-0.09253c-0.64772,-0.64772 -1.01785,-1.57304 -1.01785,-2.59089v-11.56649c0,-1.01785 0.37013,-1.94317 1.01785,-2.68342v0c0.74026,-0.64772 1.66557,-1.01785 2.68342,-1.01785zM314.21676,172.27359h11.56649c1.11038,0 1.94317,0.83279 1.94317,1.94317v11.56649c0,1.11038 -0.83279,1.94317 -1.94317,1.94317h-11.56649c-1.11038,0 -1.94317,-0.83279 -1.94317,-1.94317v-11.56649c0,-1.11038 0.83279,-1.94317 1.94317,-1.94317z" fill="#ef7f1a" fill-rule="evenodd"/><path d="M314.21676,170.42295h11.56649c0.55519,0 1.01785,0.09253 1.48051,0.2776c0.46266,0.18506 0.83279,0.46266 1.20291,0.83279v0c0.37013,0.37013 0.64772,0.74026 0.83279,1.20291c0.18506,0.46266 0.2776,0.92532 0.2776,1.48051v11.56649c0,0.55519 -0.09253,1.01785 -0.2776,1.48051c-0.18506,0.46266 -0.46266,0.83279 -0.83279,1.20291v0c-0.37013,0.37013 -0.74026,0.64772 -1.20291,0.83279c-0.46266,0.18506 -0.92532,0.2776 -1.48051,0.2776h-11.56649c-0.55519,0 -1.01785,-0.09253 -1.48051,-0.2776c-0.46266,-0.18506 -0.83279,-0.46266 -1.20291,-0.83279v0c-0.37013,-0.37013 -0.64772,-0.74026 -0.83279,-1.20291c-0.18506,-0.46266 -0.2776,-0.92532 -0.2776,-1.48051v-11.56649c0,-0.55519 0.09253,-1.01785 0.2776,-1.48051c0.18506,-0.46266 0.46266,-0.83279 0.83279,-1.20291v0c0.37013,-0.37013 0.74026,-0.64772 1.20291,-0.83279c0.46266,-0.18506 0.92532,-0.2776 1.48051,-0.2776zM325.78324,170.51548h-11.56649c-0.55519,0 -1.01785,0.09253 -1.38798,0.2776c-0.46266,0.18506 -0.92532,0.46266 -1.20291,0.83279v0c-0.37013,0.2776 -0.64772,0.74026 -0.83279,1.20291c-0.18506,0.37013 -0.2776,0.83279 -0.2776,1.38798v11.56649c0,0.55519 0.09253,1.01785 0.2776,1.38798c0.18506,0.46266 0.46266,0.83279 0.83279,1.20291v0c0.2776,0.37013 0.74026,0.64772 1.20291,0.83279c0.37013,0.18506 0.83279,0.2776 1.38798,0.2776h11.56649c0.55519,0 1.01785,-0.09253 1.38798,-0.2776c0.46266,-0.18506 0.83279,-0.46266 1.20291,-0.83279v0c0.37013,-0.37013 0.64772,-0.74026 0.83279,-1.20291c0.18506,-0.37013 0.2776,-0.83279 0.2776,-1.38798v-11.56649c0,-0.55519 -0.09253,-1.01785 -0.2776,-1.38798c-0.18506,-0.46266 -0.46266,-0.92532 -0.83279,-1.20291v0c-0.37013,-0.37013 -0.74026,-0.64772 -1.20291,-0.83279c-0.37013,-0.18506 -0.83279,-0.2776 -1.38798,-0.2776zM314.21676,172.18106h11.56649c0.55519,0 1.11038,0.18506 1.38798,0.55519c0.37013,0.37013 0.64772,0.92532 0.64772,1.48051v11.56649c0,0.55519 -0.2776,1.11038 -0.64772,1.38798c-0.2776,0.37013 -0.83279,0.64772 -1.38798,0.64772h-11.56649c-0.55519,0 -1.11038,-0.2776 -1.48051,-0.64772c-0.37013,-0.2776 -0.55519,-0.83279 -0.55519,-1.38798v-11.56649c0,-0.55519 0.18506,-1.11038 0.55519,-1.48051c0.37013,-0.37013 0.92532,-0.55519 1.48051,-0.55519zM325.78324,172.27359h-11.56649c-0.55519,0 -1.01785,0.18506 -1.38798,0.55519c-0.37013,0.37013 -0.55519,0.83279 -0.55519,1.38798v11.56649c0,0.55519 0.18506,1.01785 0.55519,1.38798c0.37013,0.2776 0.83279,0.55519 1.38798,0.55519h11.56649c0.55519,0 1.01785,-0.2776 1.38798,-0.55519c0.2776,-0.37013 0.55519,-0.83279 0.55519,-1.38798v-11.56649c0,-0.55519 -0.2776,-1.01785 -0.55519,-1.38798c-0.37013,-0.37013 -0.83279,-0.55519 -1.38798,-0.55519z" fill="#fefefe" fill-rule="nonzero"/><path d="M316.71512,182.1745c-0.09253,0.09253 -0.2776,0.09253 -0.37013,0c-0.09253,-0.09253 -0.09253,-0.2776 0,-0.37013l4.44153,-4.62659c0.09253,-0.09253 0.18506,-0.09253 0.2776,0c0.09253,0.09253 0.09253,0.18506 0,0.2776z" fill="#2b2a29" fill-rule="nonzero"/><path d="M318.38069,177.36284c-0.55519,0 -1.01785,-0.18506 -1.29545,-0.55519v-0.09253c0.18506,-0.2776 0.37013,-0.64772 0.37013,-1.01785c0,-0.37013 -0.18506,-0.64772 -0.37013,-0.92532c0,-0.09253 0,-0.09253 0,-0.09253c0.2776,-0.46266 0.74026,-0.64772 1.29545,-0.64772c0.46266,0 0.92532,0.18506 1.29545,0.64772c0,0 0,0 0,0.09253c-0.2776,0.2776 -0.37013,0.55519 -0.37013,0.92532c0,0.37013 0.09253,0.74026 0.37013,1.01785v0.09253c-0.37013,0.37013 -0.83279,0.55519 -1.29545,0.55519z" fill="#e84743" fill-rule="nonzero"/><path d="M317.17778,174.67942c0.18506,0.2776 0.37013,0.64772 0.37013,1.01785c0,0.37013 -0.18506,0.74026 -0.37013,1.01785c0.2776,0.37013 0.74026,0.64772 1.20291,0.64772c0.46266,0 0.92532,-0.2776 1.20291,-0.64772c-0.18506,-0.2776 -0.37013,-0.64772 -0.37013,-1.01785c0,-0.37013 0.18506,-0.74026 0.37013,-1.01785c-0.2776,-0.37013 -0.74026,-0.55519 -1.20291,-0.55519c-0.46266,0 -0.92532,0.18506 -1.20291,0.55519zM316.99271,176.80765c0,0 0,0 0,-0.09253v0v-0.09253c0.18506,-0.2776 0.37013,-0.55519 0.37013,-0.92532c0,-0.2776 -0.18506,-0.64772 -0.37013,-0.92532c0,0 0,0 0,-0.09253v0v-0.09253c0.37013,-0.37013 0.83279,-0.64772 1.38798,-0.64772c0.55519,0 1.01785,0.2776 1.38798,0.64772c0,0.09253 0,0.18506 0,0.18506c-0.2776,0.2776 -0.37013,0.64772 -0.37013,0.92532c0,0.37013 0.09253,0.64772 0.37013,0.92532c0,0.09253 0,0.18506 0,0.18506c-0.2776,0.37013 -0.74026,0.64772 -1.11038,0.64772h-0.55519c-0.46266,0 -0.83279,-0.2776 -1.11038,-0.64772z" fill="#4e4e50" fill-rule="nonzero"/><path d="M318.84335,174.58688c-0.09253,0.18506 -0.37013,0.46266 -0.37013,0.46266c-0.09253,0.09253 -0.2776,0.2776 -0.37013,0.46266h0.55519c-0.09253,-0.09253 -0.18506,-0.2776 -0.18506,-0.2776l0.09253,-0.09253c0,0 0.2776,0.18506 0.2776,0.55519c0,0.37013 -0.2776,0.55519 -0.46266,0.74026c-0.09253,0.09253 -0.18506,0.18506 -0.18506,0.2776h0.37013c0,-0.09253 -0.09253,-0.09253 -0.09253,-0.18506l0.09253,-0.09253c0,0 0.2776,0.2776 0.2776,0.46266c0,0.18506 -0.18506,0.09253 -0.18506,0c0,0 0,0 0,-0.09253h-0.55519v0c0,0 0,0.18506 -0.09253,0.18506c-0.09253,0 -0.09253,-0.09253 -0.09253,-0.09253c0.09253,-0.37013 0.37013,-0.46266 0.55519,-0.74026c0.09253,-0.09253 0.09253,-0.09253 0.09253,-0.18506h-0.46266c0.09253,0.18506 0.18506,0.2776 0.18506,0.2776l-0.09253,0.09253c-0.37013,-0.37013 -0.2776,-0.74026 -0.18506,-0.92532c0.09253,-0.18506 0.2776,-0.46266 0.37013,-0.46266c0.09253,-0.09253 0.09253,-0.18506 0.18506,-0.18506l-0.37013,-0.09253c0,0.09253 0.09253,0.18506 0.09253,0.18506l-0.09253,0.09253c-0.18506,-0.18506 -0.2776,-0.37013 -0.2776,-0.37013c0,0 0,-0.09253 0.09253,-0.18506l0.09253,0.09253v0.09253h0.55519v0c0,0 0,-0.18506 0.09253,-0.18506c0.09253,0 0.09253,0.18506 0.09253,0.18506zM318.1031,175.60474v0.09253c0,0.09253 0,0.09253 0,0.18506h0.55519c0,-0.09253 0,-0.18506 0,-0.2776z" fill="#4e4e50" fill-rule="nonzero"/><path d="M324.02514,176.53005c-0.64772,0 -1.20291,-0.46266 -1.20291,-1.11038c0,-0.64772 0.55519,-1.20291 1.20291,-1.20291c0.64772,0 1.20291,0.55519 1.20291,1.20291c0,0.64772 -0.55519,1.11038 -1.20291,1.11038z" fill="#e63331" fill-rule="nonzero"/><path d="M324.02514,176.71512c-0.74026,0 -1.29545,-0.64772 -1.29545,-1.29545c0,-0.74026 0.55519,-1.38798 1.29545,-1.38798c0.74026,0 1.29545,0.55519 1.29545,1.29545v0.09253c0,0.74026 -0.55519,1.29545 -1.29545,1.29545zM324.02514,174.30929c-0.55519,0 -1.01785,0.46266 -1.01785,1.11038c0,0.55519 0.46266,1.01785 1.01785,1.01785c0.55519,0 1.11038,-0.46266 1.11038,-1.01785c0,-0.64772 -0.55519,-1.11038 -1.11038,-1.11038z" fill="#5a3547" fill-rule="nonzero"/><path d="M315.7898,180.87905c-0.55519,0 -1.01785,-0.2776 -1.29545,-0.64772c-0.09253,0 -0.09253,-0.09253 0,-0.09253c0.18506,-0.2776 0.2776,-0.64772 0.2776,-1.01785c0,-0.37013 -0.09253,-0.64772 -0.2776,-0.92532c-0.09253,-0.09253 -0.09253,-0.09253 0,-0.09253c0.2776,-0.46266 0.74026,-0.64772 1.29545,-0.64772c0.46266,0 0.92532,0.18506 1.29545,0.64772c0,0 0,0 0,0.09253c-0.2776,0.2776 -0.37013,0.55519 -0.37013,0.92532c0,0.37013 0.09253,0.74026 0.37013,1.01785v0.09253c-0.37013,0.37013 -0.83279,0.64772 -1.29545,0.64772z" fill="#e84743" fill-rule="nonzero"/><path d="M314.49435,178.1031c0.2776,0.2776 0.37013,0.64772 0.37013,1.01785c0,0.46266 -0.09253,0.74026 -0.37013,1.01785c0.37013,0.37013 0.74026,0.64772 1.29545,0.64772c0.46266,0 0.92532,-0.2776 1.20291,-0.64772c-0.2776,-0.2776 -0.37013,-0.55519 -0.37013,-1.01785c0,-0.37013 0.09253,-0.74026 0.37013,-1.01785c-0.2776,-0.37013 -0.74026,-0.55519 -1.20291,-0.55519c-0.55519,0 -0.92532,0.18506 -1.29545,0.55519zM314.40182,180.32386c0,-0.09253 0,-0.09253 0,-0.09253v-0.09253c0,0 0,0 0,-0.09253c0.18506,-0.2776 0.37013,-0.55519 0.37013,-0.92532c0,-0.2776 -0.18506,-0.64772 -0.37013,-0.92532c0,0 0,0 0,-0.09253v0v-0.09253c0.37013,-0.37013 0.83279,-0.64772 1.38798,-0.64772c0.46266,0 1.01785,0.2776 1.29545,0.64772c0.09253,0.09253 0.09253,0.18506 0,0.18506c-0.18506,0.2776 -0.2776,0.64772 -0.2776,0.92532c0,0.37013 0.09253,0.64772 0.2776,0.92532c0.09253,0.09253 0.09253,0.18506 0,0.2776c-0.2776,0.2776 -0.64772,0.55519 -1.11038,0.55519h-0.46266c-0.46266,0 -0.83279,-0.2776 -1.11038,-0.55519z" fill="#4e4e50" fill-rule="nonzero"/><path d="M316.25246,178.01056c-0.09253,0.2776 -0.37013,0.46266 -0.37013,0.46266c-0.09253,0.09253 -0.2776,0.2776 -0.37013,0.46266h0.46266c0,-0.09253 -0.18506,-0.2776 -0.18506,-0.2776l0.18506,-0.09253c0,0 0.2776,0.18506 0.2776,0.55519c0,0.37013 -0.2776,0.55519 -0.46266,0.74026c-0.09253,0.09253 -0.18506,0.2776 -0.18506,0.2776h0.37013c0,0 -0.09253,-0.09253 -0.09253,-0.18506l0.09253,-0.09253c0,0 0.2776,0.2776 0.2776,0.46266c0,0.18506 -0.18506,0.09253 -0.18506,0c0,0 0,0 0,-0.09253h-0.55519v0c0,0 0,0.2776 -0.09253,0.18506c-0.09253,0 -0.09253,-0.09253 -0.09253,-0.09253c0.09253,-0.37013 0.37013,-0.46266 0.55519,-0.74026c0.09253,-0.09253 0.09253,-0.09253 0.09253,-0.18506h-0.46266c0.09253,0.18506 0.18506,0.2776 0.18506,0.2776l-0.09253,0.09253c-0.37013,-0.37013 -0.37013,-0.74026 -0.2776,-0.92532c0.09253,-0.18506 0.37013,-0.37013 0.46266,-0.46266c0.09253,-0.09253 0.09253,-0.18506 0.18506,-0.18506h-0.37013c0,0.09253 0.09253,0.09253 0.09253,0.09253l-0.09253,0.18506c-0.2776,-0.2776 -0.2776,-0.46266 -0.2776,-0.46266c0,0 -0.09253,-0.09253 0,-0.18506c0.09253,0 0.18506,0.09253 0.18506,0.09253c0,0.09253 0,0.09253 0,0.18506h0.46266c0.09253,-0.09253 0.09253,-0.09253 0.09253,-0.09253c0,0 0,-0.18506 0.09253,-0.18506c0.09253,0 0.09253,0.18506 0.09253,0.18506zM315.5122,179.02842l-0.09253,0.09253c0,0.09253 0,0.09253 0.09253,0.18506h0.55519c0,-0.09253 0,-0.18506 0,-0.2776z" fill="#4e4e50" fill-rule="nonzero"/><path d="M321.43424,185.87577c0,0 0,0 -0.09253,0l-1.57304,-1.57304c0,-0.09253 0,-0.09253 0,-0.18506v-3.79381c0,-0.09253 0.09253,-0.18506 0.09253,-0.18506h3.88634c0,0 0.09253,0 0.09253,0.09253l1.57304,1.57304l0.09253,0.09253v3.79381c0,0.09253 -0.09253,0.18506 -0.18506,0.18506z" fill="#4bb8a5" fill-rule="nonzero"/><path d="M319.8612,180.32386v3.79381l1.57304,1.57304h3.88634v-3.79381l-1.57304,-1.57304zM325.32058,186.06084h-3.88634v0c0,0 -0.09253,-0.09253 -0.18506,-0.09253l-1.57304,-1.57304c-0.09253,-0.09253 -0.09253,-0.18506 -0.09253,-0.2776v-3.79381c0,-0.18506 0.18506,-0.37013 0.2776,-0.37013h3.88634v0c0.09253,0 0.09253,0.09253 0.18506,0.09253l1.57304,1.66557c0.09253,0 0.09253,0.09253 0.09253,0.18506v3.88634c0,0.09253 -0.09253,0.2776 -0.2776,0.2776z" fill="#fefefe" fill-rule="nonzero"/><path d="M323.37741,181.06412c-0.09253,0.37013 -0.55519,0.83279 -0.64772,0.83279c0,0.09253 -0.37013,0.37013 -0.55519,0.74026h0.83279c-0.09253,-0.18506 -0.2776,-0.46266 -0.2776,-0.46266l0.18506,-0.18506c0,0 0.46266,0.46266 0.46266,1.01785c0.09253,0.55519 -0.37013,1.01785 -0.74026,1.29545c-0.18506,0.18506 -0.2776,0.37013 -0.37013,0.46266h0.74026c-0.09253,-0.09253 -0.18506,-0.2776 -0.2776,-0.37013l0.18506,-0.09253c0,0 0.46266,0.37013 0.46266,0.64772c0,0.37013 -0.2776,0.2776 -0.2776,0.09253v-0.09253h-0.92532v0c0,0 0,0.2776 -0.18506,0.2776c-0.18506,0 -0.09253,-0.18506 -0.09253,-0.18506c0.09253,-0.64772 0.55519,-0.83279 0.92532,-1.29545c0.09253,-0.09253 0.18506,-0.18506 0.18506,-0.2776h-0.83279c0.09253,0.18506 0.2776,0.37013 0.2776,0.37013l-0.18506,0.18506c-0.64772,-0.55519 -0.46266,-1.11038 -0.37013,-1.48051c0.18506,-0.46266 0.55519,-0.74026 0.74026,-0.92532c0.09253,-0.09253 0.18506,-0.18506 0.2776,-0.2776h-0.64772c0.09253,0.09253 0.18506,0.2776 0.18506,0.2776l-0.18506,0.18506c-0.37013,-0.37013 -0.46266,-0.74026 -0.46266,-0.74026c0,0 0,-0.18506 0.09253,-0.2776c0.18506,0 0.18506,0.18506 0.18506,0.18506c0,0 0.09253,0.09253 0.09253,0.18506h0.83279c0.09253,-0.09253 0.09253,-0.09253 0.09253,-0.09253c0,0 0,-0.2776 0.18506,-0.2776c0.18506,0 0.09253,0.2776 0.09253,0.2776zM322.1745,182.82222c-0.09253,0 -0.09253,0.09253 -0.09253,0.18506c0,0.09253 0,0.18506 0,0.2776h1.01785c0,-0.18506 0,-0.37013 0,-0.46266z" fill="#fefefe" fill-rule="nonzero"/></g></g></g></svg>