<svg version="1.1" xmlns="http://www.w3.org/2000/svg" xmlns:xlink="http://www.w3.org/1999/xlink" width="19.1541" height="19.1541" viewBox="0,0,19.1541,19.1541"><g transform="translate(-310.42295,-170.42295)"><g data-paper-data="{&quot;isPaintingLayer&quot;:true}" stroke="none" stroke-width="1" stroke-linecap="butt" stroke-linejoin="miter" stroke-miterlimit="10" stroke-dasharray="" stroke-dashoffset="0" style="mix-blend-mode: normal"><path d="M314.16468,187.70618c-1.08245,0 -1.95995,-0.8775 -1.95995,-1.95995v-11.58155c0,-1.08245 0.8775,-1.95995 1.95995,-1.95995h11.58155c1.08245,0 1.95995,0.8775 1.95995,1.95995v11.58155c0,1.08245 -0.8775,1.95995 -1.95995,1.95995z" fill="#fefefe" fill-rule="evenodd"/><path d="M314.16468,170.51204h11.67064c0.97998,0 1.87087,0.35636 2.58358,1.06907v0c0.71271,0.62362 1.06907,1.6036 1.06907,2.58358v11.67064c0,0.97998 -0.35636,1.87087 -1.06907,2.58358v0c-0.71271,0.71271 -1.6036,1.06907 -2.58358,1.06907h-11.67064c-0.97998,0 -1.95995,-0.35636 -2.58358,-1.06907v0c-0.71271,-0.71271 -1.06907,-1.6036 -1.06907,-2.58358v-11.67064c0,-0.97998 0.35636,-1.95995 1.06907,-2.58358v0c0.62362,-0.71271 1.6036,-1.06907 2.58358,-1.06907zM314.16468,172.20473h11.67064c1.06907,0 1.87087,0.89089 1.87087,1.95995v11.67064c0,1.06907 -0.8018,1.87087 -1.87087,1.87087h-11.67064c-1.06907,0 -1.95995,-0.8018 -1.95995,-1.87087v-11.67064c0,-1.06907 0.89089,-1.95995 1.95995,-1.95995z" fill="#ef7f1a" fill-rule="evenodd"/><path d="M314.16468,170.42295h11.67064c0.44544,0 0.97998,0.08909 1.42542,0.26727c0.44544,0.17818 0.8018,0.44544 1.15815,0.8018v0c0.35636,0.35636 0.62362,0.8018 0.89089,1.24724c0.17818,0.44544 0.26727,0.97998 0.26727,1.42542v11.67064c0,0.44544 -0.08909,0.97998 -0.26727,1.42542c-0.26727,0.44544 -0.53453,0.8018 -0.89089,1.15815v0c-0.35636,0.35636 -0.71271,0.62362 -1.15815,0.89089c-0.44544,0.17818 -0.97998,0.26727 -1.42542,0.26727h-11.67064c-0.44544,0 -0.97998,-0.08909 -1.42542,-0.26727c-0.44544,-0.26727 -0.89089,-0.53453 -1.24724,-0.89089v0c-0.35636,-0.35636 -0.62362,-0.71271 -0.8018,-1.15815c-0.17818,-0.44544 -0.26727,-0.97998 -0.26727,-1.42542v-11.67064c0,-0.44544 0.08909,-0.97998 0.26727,-1.42542c0.17818,-0.44544 0.44544,-0.89089 0.8018,-1.24724v0c0.35636,-0.35636 0.8018,-0.62362 1.24724,-0.8018c0.44544,-0.17818 0.97998,-0.26727 1.42542,-0.26727zM325.83532,170.51204h-11.67064c-0.44544,0 -0.97998,0.08909 -1.33633,0.26727c-0.44544,0.17818 -0.89089,0.44544 -1.24724,0.8018v0c-0.35636,0.35636 -0.62362,0.8018 -0.8018,1.24724c-0.17818,0.35636 -0.26727,0.89089 -0.26727,1.33633v11.67064c0,0.44544 0.08909,0.89089 0.26727,1.33633c0.17818,0.44544 0.44544,0.89089 0.8018,1.24724v0c0.35636,0.26727 0.8018,0.62362 1.24724,0.8018c0.35636,0.17818 0.89089,0.26727 1.33633,0.26727h11.67064c0.44544,0 0.89089,-0.08909 1.33633,-0.26727c0.44544,-0.17818 0.89089,-0.53453 1.24724,-0.8018v0c0.26727,-0.35636 0.62362,-0.8018 0.8018,-1.24724c0.17818,-0.44544 0.26727,-0.89089 0.26727,-1.33633v-11.67064c0,-0.44544 -0.08909,-0.97998 -0.26727,-1.33633c-0.17818,-0.44544 -0.53453,-0.89089 -0.8018,-1.24724v0c-0.35636,-0.35636 -0.8018,-0.62362 -1.24724,-0.8018c-0.44544,-0.17818 -0.89089,-0.26727 -1.33633,-0.26727zM314.16468,172.20473h11.67064c0.53453,0 0.97998,0.17818 1.33633,0.53453c0.44544,0.35636 0.62362,0.89089 0.62362,1.42542v11.67064c0,0.53453 -0.17818,0.97998 -0.62362,1.33633c-0.35636,0.44544 -0.8018,0.62362 -1.33633,0.62362h-11.67064c-0.53453,0 -1.06907,-0.17818 -1.42542,-0.62362c-0.35636,-0.35636 -0.53453,-0.8018 -0.53453,-1.33633v-11.67064c0,-0.53453 0.17818,-1.06907 0.53453,-1.42542c0.35636,-0.35636 0.89089,-0.53453 1.42542,-0.53453zM325.83532,172.29382h-11.67064c-0.53453,0 -0.97998,0.17818 -1.33633,0.53453c-0.35636,0.35636 -0.53453,0.8018 -0.53453,1.33633v11.67064c0,0.44544 0.17818,0.97998 0.53453,1.33633c0.35636,0.35636 0.8018,0.53453 1.33633,0.53453h11.67064c0.44544,0 0.97998,-0.17818 1.33633,-0.53453c0.35636,-0.35636 0.53453,-0.89089 0.53453,-1.33633v-11.67064c0,-0.53453 -0.17818,-0.97998 -0.53453,-1.33633c-0.35636,-0.35636 -0.89089,-0.53453 -1.33633,-0.53453z" fill="#fefefe" fill-rule="nonzero"/><path d="M318.97548,183.16265h-3.65264c-0.08909,0 -0.17818,-0.08909 -0.17818,-0.17818v-3.56355c0,-0.17818 0.08909,-0.17818 0.17818,-0.17818h3.65264c0.08909,0 0.17818,0 0.17818,0.17818v3.56355c0,0.08909 -0.08909,0.17818 -0.17818,0.17818z" fill="#fcc127" fill-rule="nonzero"/><path d="M319.33183,178.88639c0.08909,0 0.08909,0.08909 0.08909,0.17818v0v4.27626c0,0.08909 0,0.17818 -0.08909,0.17818h-2.22722h-2.13813c-0.08909,0 -0.17818,-0.08909 -0.17818,-0.17818v0v-4.27626c0,-0.08909 0.08909,-0.17818 0.17818,-0.17818h0.35636c0.08909,0 0.17818,-0.08909 0.17818,-0.17818v-0.8018c-0.08909,-0.08909 -0.08909,-0.62362 0.26727,-0.97998c0.26727,-0.26727 0.71271,-0.44544 1.24724,-0.44544v0h0.26727c0.53453,0 0.97998,0.17818 1.24724,0.44544c0.35636,0.35636 0.35636,0.89089 0.35636,0.97998v0.8018c0,0.08909 0,0.17818 0.08909,0.17818zM316.12463,177.90641v0.8018c0,0.08909 0.08909,0.17818 0.17818,0.17818h1.69269c0.08909,0 0.17818,-0.08909 0.17818,-0.17818v-0.8018c0,0 0,-0.26727 -0.17818,-0.53453c-0.17818,-0.17818 -0.35636,-0.17818 -0.71271,-0.17818h-0.26727c-0.35636,0 -0.53453,0.08909 -0.71271,0.17818c-0.17818,0.26727 -0.17818,0.53453 -0.17818,0.53453zM318.7973,182.62812v-2.93993c0,-0.08909 -0.08909,-0.17818 -0.17818,-0.17818h-2.93993c-0.08909,0 -0.17818,0.08909 -0.17818,0.17818v2.93993c0,0.08909 0.08909,0.17818 0.17818,0.17818h2.93993c0.08909,0 0.17818,-0.08909 0.17818,-0.17818z" fill="#5b3523" fill-rule="nonzero"/><path d="M316.03554,180.84634h0.08909c0.08909,0 0.08909,0 0.17818,0c0.08909,0 0.17818,0 0.26727,0c0,0 0.08909,0 0.17818,0c0,-0.08909 0,-0.08909 0,-0.17818v-0.08909v-0.08909c0.08909,0 0.08909,0 0.08909,0v0v0v-0.08909h-0.08909c0,-0.17818 0.08909,-0.26727 0.08909,-0.26727c0,-0.08909 0,-0.08909 0.08909,-0.08909c0,0 0.08909,0 0.17818,0h0.08909c0.08909,0 0.08909,0 0.17818,0c0,0 0,0 0.08909,0v0.08909c0,0 0,0 0,0.08909c0,0 0,0.08909 0,0.17818c0,0.08909 0,0.08909 0,0.17818c0,0.08909 0,0.17818 0,0.26727h0.26727c0.08909,0 0.08909,0 0.17818,0v0c0,0.08909 0,0.08909 0,0.08909v0v0h0.08909v0c0,0 0,0 0,-0.08909c0,0 0,0 0.08909,0c0,0 0,0 0.08909,0c0,0 0,0 0.08909,0c0,0.08909 0,0.17818 0,0.26727c0,0 0,0.08909 0,0.17818c0,0.08909 0,0.08909 0,0.17818c0,0.08909 0,0.08909 0,0.08909c-0.08909,0 -0.08909,0 -0.08909,0c-0.08909,0 -0.08909,0 -0.17818,0c-0.08909,0 -0.17818,0 -0.26727,0c-0.08909,0 -0.17818,0 -0.26727,0c0,0.08909 0,0.17818 0,0.26727v0.08909c0,0 0,0 0,0.08909v0c0,0 0,0 -0.08909,0v0v0c0.08909,0 0.08909,0 0.08909,0c0,0.08909 0,0.08909 0,0.08909v0v0.08909c0,0.08909 0,0.08909 0,0.08909c0,0 -0.08909,0 -0.17818,0c-0.08909,0 -0.08909,0 -0.17818,0c-0.08909,0 -0.17818,0 -0.17818,0c-0.08909,0 -0.08909,0 -0.08909,0c0,0 0,0 0,-0.08909l-0.08909,-0.08909c0,-0.08909 0,-0.17818 0,-0.26727c0,-0.08909 0,-0.17818 0,-0.26727h-0.08909c-0.08909,0 -0.08909,0 -0.17818,0v0v0c0,0 0,0 -0.08909,0c0,-0.08909 0,-0.08909 0,-0.08909v0.08909c-0.08909,0 -0.08909,0 -0.08909,0c-0.08909,0 -0.17818,0 -0.26727,0c0,0 0,-0.08909 0,-0.17818c0,0 0,-0.08909 0,-0.17818c0,-0.08909 0,-0.17818 0,-0.17818c0,-0.08909 0,-0.08909 0,-0.17818z" fill="#5b3523" fill-rule="nonzero"/><path d="M324.67716,183.16265h-3.65264c-0.08909,0 -0.17818,-0.08909 -0.17818,-0.17818v-3.56355c0,-0.17818 0.08909,-0.17818 0.17818,-0.17818h3.65264c0.08909,0 0.17818,0 0.17818,0.17818v3.56355c0,0.08909 -0.08909,0.17818 -0.17818,0.17818z" fill="#fcc127" fill-rule="nonzero"/><path d="M325.03352,178.88639c0.08909,0 0.17818,0.08909 0.17818,0.17818v0v4.27626c0,0.08909 -0.08909,0.17818 -0.17818,0.17818h-2.13813h-2.22722c-0.08909,0 -0.17818,-0.08909 -0.17818,-0.17818v0v-4.27626c0,-0.08909 0.08909,-0.17818 0.17818,-0.17818h0.35636c0.08909,0 0.17818,-0.08909 0.17818,-0.17818v-0.8018c0,-0.08909 0,-0.62362 0.35636,-0.97998c0.26727,-0.26727 0.62362,-0.44544 1.15815,-0.44544v0h0.26727c0.53453,0 0.97998,0.17818 1.24724,0.44544c0.35636,0.35636 0.35636,0.89089 0.35636,0.97998v0.8018c0,0.08909 0.08909,0.17818 0.17818,0.17818zM321.91541,177.90641v0.8018c0,0.08909 0,0.17818 0.08909,0.17818h1.69269c0.08909,0 0.17818,-0.08909 0.17818,-0.17818v-0.8018c0,0 0,-0.26727 -0.17818,-0.53453c-0.08909,-0.17818 -0.35636,-0.17818 -0.71271,-0.17818h-0.26727c-0.26727,0 -0.53453,0.08909 -0.71271,0.17818c-0.17818,0.26727 -0.08909,0.53453 -0.08909,0.53453zM324.49898,182.62812v-2.93993c0,-0.08909 -0.08909,-0.17818 -0.17818,-0.17818h-2.93993c-0.08909,0 -0.17818,0.08909 -0.17818,0.17818v2.93993c0,0.08909 0.08909,0.17818 0.17818,0.17818h2.93993c0.08909,0 0.17818,-0.08909 0.17818,-0.17818z" fill="#5b3523" fill-rule="nonzero"/><path d="M321.73723,180.84634c0.08909,0 0.08909,0 0.17818,0h0.08909c0.08909,0 0.17818,0 0.26727,0c0.08909,0 0.08909,0 0.17818,0c0,-0.08909 0,-0.08909 0,-0.17818c0,0 0,-0.08909 0.08909,-0.08909v-0.08909v0v0h0.08909l-0.08909,-0.08909v0c0,-0.17818 0,-0.26727 0,-0.26727c0,-0.08909 0.08909,-0.08909 0.08909,-0.08909c0.08909,0 0.08909,0 0.17818,0c0.08909,0 0.08909,0 0.17818,0c0,0 0,0 0.08909,0h0.08909v0.08909c0,0 0,0 0.08909,0.08909c0,0 0,0.08909 0,0.17818c0,0.08909 0,0.08909 0,0.17818c0,0.08909 0,0.17818 0,0.26727h0.17818c0.08909,0 0.17818,0 0.17818,0v0c0,0.08909 0,0.08909 0,0.08909v0h0.08909v0v0c0,0 0,0 0,-0.08909c0.08909,0 0.08909,0 0.08909,0h0.08909h0.08909c0,0.08909 0,0.17818 0,0.26727c0,0 0,0.08909 0,0.17818c0,0.08909 0,0.08909 0,0.17818c0,0.08909 0,0.08909 0,0.08909h-0.08909c-0.08909,0 -0.08909,0 -0.17818,0c-0.08909,0 -0.17818,0 -0.17818,0c-0.08909,0 -0.17818,0 -0.26727,0c0,0.08909 0,0.17818 0,0.26727v0.08909c0,0 0,0 -0.08909,0.08909v0v0c-0.08909,0 -0.08909,0 -0.08909,0c0,0 0,0 0.08909,0v0c0,0.08909 0,0.08909 0,0.08909h0.08909l-0.08909,0.08909c0,0.08909 0,0.08909 0,0.08909c0,0 -0.08909,0 -0.17818,0c0,0 -0.08909,0 -0.17818,0c-0.08909,0 -0.08909,0 -0.17818,0c-0.08909,0 -0.08909,0 -0.08909,0c0,0 0,0 0,-0.08909v-0.08909c0,-0.08909 0,-0.17818 0,-0.26727c0,-0.08909 -0.08909,-0.17818 -0.08909,-0.26727h-0.08909c-0.08909,0 -0.08909,0 -0.17818,0v0v0v0c0,-0.08909 -0.08909,-0.08909 -0.08909,-0.08909v0.08909h-0.08909c-0.08909,0 -0.17818,0 -0.26727,0c0,0 0,-0.08909 0,-0.17818c0,0 0,-0.08909 0,-0.17818c0,-0.08909 0,-0.17818 0,-0.17818c0,-0.08909 0,-0.08909 0,-0.17818z" fill="#5b3523" fill-rule="nonzero"/></g></g></svg>