<svg version="1.1" xmlns="http://www.w3.org/2000/svg" xmlns:xlink="http://www.w3.org/1999/xlink" width="19.1541" height="19.1541" viewBox="0,0,19.1541,19.1541"><g transform="translate(-310.42295,-170.42295)"><g data-paper-data="{&quot;isPaintingLayer&quot;:true}" stroke="none" stroke-width="1" stroke-linecap="butt" stroke-linejoin="miter" stroke-miterlimit="10" stroke-dasharray="" stroke-dashoffset="0" style="mix-blend-mode: normal"><g><path d="M314.19264,187.84503c-1.06911,0 -1.93579,-0.86668 -1.93579,-1.93579v-11.7166c0,-1.06911 0.86668,-1.93579 1.93579,-1.93579h11.7166c1.06911,0 1.93579,0.86668 1.93579,1.93579v11.7166c0,1.06911 -0.86668,1.93579 -1.93579,1.93579z" fill="#fefefe" fill-rule="evenodd"/><path d="M314.19264,170.42295h11.61472c1.01884,0 1.93579,0.50942 2.64897,1.12072v0c0.71318,0.71318 1.12072,1.63014 1.12072,2.64897v11.61472c0,1.01884 -0.40753,1.93579 -1.12072,2.64897v0c-0.71318,0.71318 -1.63014,1.12072 -2.64897,1.12072h-11.61472c-1.01884,0 -1.93579,-0.40753 -2.64897,-1.12072v0c-0.6113,-0.71318 -1.12072,-1.63014 -1.12072,-2.64897v-11.61472c0,-1.01884 0.50942,-1.93579 1.12072,-2.64897v0c0.71318,-0.6113 1.63014,-1.12072 2.64897,-1.12072zM314.19264,172.25685h11.61472c1.12072,0 1.93579,0.81507 1.93579,1.93579v11.61472c0,1.12072 -0.81507,1.93579 -1.93579,1.93579h-11.61472c-1.12072,0 -1.93579,-0.81507 -1.93579,-1.93579v-11.61472c0,-1.12072 0.81507,-1.93579 1.93579,-1.93579z" fill="#ef7f1a" fill-rule="evenodd"/><path d="M314.19264,170.42295h11.61472c0.50942,0 1.01884,0.10188 1.42637,0.30565c0.50942,0.20377 0.91695,0.40753 1.2226,0.81507v0c0.40753,0.30565 0.6113,0.71318 0.81507,1.2226c0.20377,0.40753 0.30565,0.91695 0.30565,1.42637v11.61472c0,0.50942 -0.10188,1.01884 -0.30565,1.42637c-0.20377,0.50942 -0.40753,0.91695 -0.81507,1.2226v0c-0.30565,0.40753 -0.71318,0.6113 -1.2226,0.81507c-0.40753,0.20377 -0.91695,0.30565 -1.42637,0.30565h-11.61472c-0.50942,0 -1.01884,-0.10188 -1.42637,-0.30565c-0.50942,-0.20377 -0.91695,-0.40753 -1.2226,-0.81507v0c-0.40753,-0.30565 -0.6113,-0.71318 -0.81507,-1.2226c-0.20377,-0.40753 -0.30565,-0.91695 -0.30565,-1.42637v-11.61472c0,-0.50942 0.10188,-1.01884 0.30565,-1.42637c0.20377,-0.50942 0.40753,-0.91695 0.81507,-1.2226v0c0.30565,-0.40753 0.71318,-0.6113 1.2226,-0.81507c0.40753,-0.20377 0.91695,-0.30565 1.42637,-0.30565zM325.80736,170.52483h-11.61472c-0.50942,0 -0.91695,0.10188 -1.42637,0.30565c-0.40753,0.20377 -0.81507,0.40753 -1.12072,0.81507v0c-0.40753,0.30565 -0.6113,0.71318 -0.81507,1.12072c-0.20377,0.50942 -0.30565,0.91695 -0.30565,1.42637v11.61472c0,0.50942 0.10188,1.01884 0.30565,1.42637c0.20377,0.40753 0.40753,0.81507 0.81507,1.2226v0c0.30565,0.30565 0.71318,0.6113 1.12072,0.71318c0.50942,0.20377 0.91695,0.30565 1.42637,0.30565h11.61472c0.50942,0 1.01884,-0.10188 1.42637,-0.30565c0.40753,-0.10188 0.81507,-0.40753 1.2226,-0.71318v0c0.30565,-0.40753 0.6113,-0.81507 0.71318,-1.2226c0.20377,-0.40753 0.30565,-0.91695 0.30565,-1.42637v-11.61472c0,-0.50942 -0.10188,-0.91695 -0.30565,-1.42637c-0.10188,-0.40753 -0.40753,-0.81507 -0.71318,-1.12072v0c-0.40753,-0.40753 -0.81507,-0.6113 -1.2226,-0.81507c-0.40753,-0.20377 -0.91695,-0.30565 -1.42637,-0.30565zM314.19264,172.15497h11.61472c0.6113,0 1.12072,0.30565 1.42637,0.6113c0.40753,0.40753 0.6113,0.91695 0.6113,1.42637v11.61472c0,0.6113 -0.20377,1.12072 -0.6113,1.42637c-0.30565,0.40753 -0.81507,0.6113 -1.42637,0.6113h-11.61472c-0.50942,0 -1.01884,-0.20377 -1.42637,-0.6113c-0.30565,-0.30565 -0.6113,-0.81507 -0.6113,-1.42637v-11.61472c0,-0.50942 0.30565,-1.01884 0.6113,-1.42637c0.40753,-0.30565 0.91695,-0.6113 1.42637,-0.6113zM325.80736,172.25685h-11.61472c-0.50942,0 -1.01884,0.20377 -1.32449,0.6113c-0.40753,0.30565 -0.6113,0.81507 -0.6113,1.32449v11.61472c0,0.50942 0.20377,1.01884 0.6113,1.32449c0.30565,0.40753 0.81507,0.6113 1.32449,0.6113h11.61472c0.50942,0 1.01884,-0.20377 1.32449,-0.6113c0.40753,-0.30565 0.6113,-0.81507 0.6113,-1.32449v-11.61472c0,-0.50942 -0.20377,-1.01884 -0.6113,-1.32449c-0.30565,-0.40753 -0.81507,-0.6113 -1.32449,-0.6113z" fill="#fefefe" fill-rule="nonzero"/><path d="M321.52825,176.94349c-0.71318,0 -1.2226,-0.50942 -1.2226,-1.12072c0,-0.71318 0.50942,-1.2226 1.2226,-1.2226c0.6113,0 1.2226,0.50942 1.2226,1.2226c0,0.6113 -0.6113,1.12072 -1.2226,1.12072z" fill="#e63331" fill-rule="nonzero"/><path d="M321.52825,177.14726c-0.71318,0 -1.32449,-0.6113 -1.32449,-1.32449c0,-0.71318 0.6113,-1.32449 1.32449,-1.32449c0.71318,0 1.32449,0.50942 1.32449,1.2226v0.10188c0,0.71318 -0.6113,1.32449 -1.32449,1.32449zM321.52825,174.70206c-0.6113,0 -1.01884,0.50942 -1.01884,1.12072c0,0.50942 0.40753,1.01884 1.01884,1.01884c0.6113,0 1.01884,-0.50942 1.01884,-1.01884c0,-0.6113 -0.40753,-1.12072 -1.01884,-1.12072z" fill="#5a3547" fill-rule="nonzero"/><path d="M324.17722,176.73973c-0.6113,0 -1.2226,-0.50942 -1.2226,-1.2226c0,-0.6113 0.6113,-1.12072 1.2226,-1.12072c0.6113,0 1.2226,0.50942 1.2226,1.12072c0,0.71318 -0.6113,1.2226 -1.2226,1.2226z" fill="#e63331" fill-rule="nonzero"/><path d="M324.17722,176.84161c-0.71318,0 -1.32449,-0.50942 -1.32449,-1.32449c0,-0.71318 0.6113,-1.32449 1.32449,-1.32449c0.71318,0 1.32449,0.6113 1.32449,1.32449v0.10188c0,0.71318 -0.6113,1.2226 -1.32449,1.2226zM324.17722,174.49829c-0.6113,0 -1.01884,0.50942 -1.01884,1.01884c0,0.6113 0.40753,1.12072 1.01884,1.12072c0.6113,0 1.01884,-0.50942 1.01884,-1.12072c0,-0.50942 -0.40753,-1.01884 -1.01884,-1.01884z" fill="#5a3547" fill-rule="nonzero"/><path d="M323.15839,178.98116c-0.71318,0 -1.2226,-0.50942 -1.2226,-1.12072c0,-0.71318 0.50942,-1.2226 1.2226,-1.2226c0.6113,0 1.12072,0.50942 1.12072,1.2226c0,0.6113 -0.50942,1.12072 -1.12072,1.12072z" fill="#e63331" fill-rule="nonzero"/><path d="M323.15839,179.18493c-0.81507,0 -1.32449,-0.6113 -1.32449,-1.32449c0,-0.71318 0.50942,-1.32449 1.32449,-1.32449c0.71318,0 1.2226,0.50942 1.32449,1.2226v0.10188c-0.10188,0.71318 -0.6113,1.32449 -1.32449,1.32449zM323.15839,176.84161c-0.6113,0 -1.12072,0.40753 -1.12072,1.01884c0,0.6113 0.50942,1.01884 1.12072,1.01884c0.50942,0 1.01884,-0.40753 1.01884,-1.01884c0,-0.6113 -0.50942,-1.01884 -1.01884,-1.01884z" fill="#5a3547" fill-rule="nonzero"/><path d="M318.06421,185.60359c-1.32449,0 -2.4452,-0.50942 -3.26027,-1.52825c-0.10188,-0.10188 -0.10188,-0.20377 0,-0.30565c0.50942,-0.6113 0.81507,-1.52825 0.81507,-2.34332c0,-0.91695 -0.30565,-1.8339 -0.81507,-2.4452c-0.10188,-0.10188 -0.10188,-0.20377 0,-0.30565c0.81507,-0.91695 1.93579,-1.52825 3.26027,-1.52825c1.2226,0 2.4452,0.6113 3.26027,1.52825c0,0.10188 0,0.20377 0,0.30565c-0.6113,0.6113 -0.91695,1.52825 -0.91695,2.4452c0,0.81507 0.30565,1.73202 0.91695,2.34332c0,0.10188 0,0.20377 0,0.30565c-0.81507,1.01884 -2.03767,1.52825 -3.26027,1.52825z" fill="#e84743" fill-rule="nonzero"/><path d="M314.90582,178.7774c0.6113,0.71318 1.01884,1.63014 1.01884,2.64897c0,0.91695 -0.40753,1.8339 -1.01884,2.54709c0.81507,0.81507 1.8339,1.42637 3.15839,1.42637c1.2226,0 2.34332,-0.6113 3.05651,-1.42637c-0.6113,-0.71318 -0.91695,-1.63014 -0.91695,-2.54709c0,-1.01884 0.30565,-1.93579 0.91695,-2.64897c-0.71318,-0.81507 -1.8339,-1.42637 -3.05651,-1.42637c-1.32449,0 -2.34332,0.6113 -3.15839,1.42637zM314.60017,184.17722c0,0 -0.10188,-0.10188 -0.10188,-0.20377v-0.10188c0,0 0.10188,-0.10188 0.10188,-0.20377c0.50942,-0.6113 0.81507,-1.42637 0.81507,-2.24144c0,-0.91695 -0.30565,-1.73202 -0.81507,-2.34332c0,-0.10188 -0.10188,-0.10188 -0.10188,-0.20377v-0.10188c0,-0.10188 0.10188,-0.20377 0.10188,-0.20377c0.81507,-1.01884 2.13955,-1.63014 3.46404,-1.63014c1.32449,0 2.54709,0.6113 3.36216,1.63014c0.10188,0.10188 0.10188,0.40753 0,0.50942c-0.50942,0.6113 -0.81507,1.42637 -0.81507,2.34332c0,0.81507 0.30565,1.63014 0.81507,2.24144c0.10188,0.20377 0.10188,0.40753 0,0.50942c-0.71318,0.91695 -1.73202,1.42637 -2.75085,1.63014h-1.2226c-1.12072,-0.20377 -2.13955,-0.71318 -2.85274,-1.63014z" fill="#4e4e50" fill-rule="nonzero"/><path d="M319.18493,178.47175c-0.20377,0.6113 -0.81507,1.2226 -0.91695,1.32449c-0.10188,0.10188 -0.6113,0.50942 -0.81507,1.01884h1.2226c-0.10188,-0.30565 -0.50942,-0.6113 -0.50942,-0.6113l0.30565,-0.30565c0,0 0.71318,0.6113 0.71318,1.42637c0.10188,0.91695 -0.50942,1.42637 -1.12072,1.93579c-0.20377,0.20377 -0.40753,0.50942 -0.50942,0.71318h1.12072c-0.20377,-0.20377 -0.30565,-0.40753 -0.40753,-0.50942l0.20377,-0.30565c0,0 0.71318,0.6113 0.71318,1.12072c0,0.50942 -0.40753,0.40753 -0.40753,0.10188c0,0 0,-0.10188 0,-0.20377h-1.32449v0c0,0 -0.10188,0.50942 -0.30565,0.50942c-0.30565,0 -0.20377,-0.40753 -0.20377,-0.40753c0.20377,-0.91695 0.81507,-1.2226 1.32449,-1.73202c0.20377,-0.20377 0.30565,-0.40753 0.40753,-0.50942l-1.2226,-0.10188c0.10188,0.40753 0.40753,0.71318 0.40753,0.71318l-0.30565,0.30565c-0.91695,-0.91695 -0.71318,-1.73202 -0.50942,-2.34332c0.20377,-0.50942 0.71318,-1.01884 1.01884,-1.2226c0.20377,-0.10188 0.30565,-0.30565 0.40753,-0.50942h-0.91695c0.20377,0.20377 0.30565,0.40753 0.30565,0.40753l-0.30565,0.30565c-0.50942,-0.50942 -0.6113,-1.12072 -0.6113,-1.12072c0,0 -0.10188,-0.20377 0.10188,-0.30565c0.20377,-0.10188 0.30565,0.20377 0.30565,0.20377c0,0.10188 0,0.20377 0.10188,0.30565h1.2226c0,-0.10188 0.10188,-0.20377 0.10188,-0.20377c0,0 0,-0.40753 0.30565,-0.30565c0.20377,0 0.10188,0.30565 0.10188,0.30565zM317.35103,181.01884c0,0.10188 -0.10188,0.20377 -0.10188,0.30565c0,0.20377 0,0.30565 0.10188,0.40753h1.32449c0.10188,-0.20377 0.10188,-0.50942 0.10188,-0.6113z" fill="#4e4e50" fill-rule="nonzero"/></g></g></g></svg>