<svg version="1.1" xmlns="http://www.w3.org/2000/svg" xmlns:xlink="http://www.w3.org/1999/xlink" width="19.1542" height="19.1541" viewBox="0,0,19.1542,19.1541"><g transform="translate(-310.4229,-170.42295)"><g data-paper-data="{&quot;isPaintingLayer&quot;:true}" stroke="none" stroke-width="1" stroke-linecap="butt" stroke-linejoin="miter" stroke-miterlimit="10" stroke-dasharray="" stroke-dashoffset="0" style="mix-blend-mode: normal"><g><path d="M314.19978,187.77854c-1.09262,0 -1.97837,-0.88574 -1.97837,-1.97836v-11.60037c0,-1.09262 0.88575,-1.97836 1.97837,-1.97836h11.60043c1.09262,0 1.97837,0.88574 1.97837,1.97836v11.60037c0,1.09262 -0.88575,1.97836 -1.97837,1.97836z" fill="#fefefe" fill-rule="evenodd"/><path d="M314.19978,170.51288h11.60043c0.98918,0 1.97837,0.3597 2.60785,1.0791v0c0.71941,0.62948 1.07911,1.61866 1.07911,2.60784v11.60037c0,0.98918 -0.3597,1.97836 -1.07911,2.60784v0c-0.62948,0.7194 -1.61866,1.0791 -2.60785,1.0791h-11.60043c-0.98918,0 -1.97837,-0.3597 -2.60785,-1.0791v0c-0.71941,-0.62948 -1.07911,-1.61866 -1.07911,-2.60784v-11.60037c0,-0.98918 0.3597,-1.97836 1.07911,-2.60784v0c0.62948,-0.7194 1.61866,-1.0791 2.60785,-1.0791zM314.19978,172.22146h11.60043c1.07911,0 1.97837,0.89925 1.97837,1.97836v11.60037c0,1.0791 -0.89926,1.97836 -1.97837,1.97836h-11.60043c-1.07911,0 -1.97837,-0.89925 -1.97837,-1.97836v-11.60037c0,-1.0791 0.89926,-1.97836 1.97837,-1.97836z" fill="#ef7f1a" fill-rule="evenodd"/><path d="M314.19978,170.42295h11.60043c0.53955,0 0.98918,0.08993 1.43881,0.26978c0.44963,0.17985 0.89926,0.44963 1.25896,0.80933v0c0.3597,0.3597 0.62948,0.80933 0.80933,1.25895c0.17985,0.44963 0.26978,0.89925 0.26978,1.43881v11.60037c0,0.53955 -0.08993,0.98918 -0.26978,1.43881c-0.17985,0.44963 -0.44963,0.89925 -0.80933,1.25895v0c-0.3597,0.3597 -0.80933,0.62948 -1.25896,0.80933c-0.44963,0.17985 -0.89926,0.26978 -1.43881,0.26978h-11.60043c-0.53955,0 -0.98918,-0.08993 -1.43881,-0.26978c-0.44963,-0.17985 -0.89926,-0.44963 -1.25896,-0.80933v0c-0.3597,-0.3597 -0.62948,-0.80933 -0.80933,-1.25895c-0.17985,-0.44963 -0.26978,-0.89925 -0.26978,-1.43881v-11.60037c0,-0.53955 0.08993,-0.98918 0.26978,-1.43881c0.17985,-0.44963 0.44963,-0.89925 0.80933,-1.25895v0c0.3597,-0.3597 0.80933,-0.62948 1.25896,-0.80933c0.44963,-0.17985 0.89926,-0.26978 1.43881,-0.26978zM325.80022,170.51288h-11.60043c-0.53955,0 -0.98918,0.08993 -1.43881,0.26978c-0.44963,0.17985 -0.80933,0.44963 -1.16904,0.80933v0c-0.3597,0.3597 -0.62948,0.7194 -0.80933,1.16903c-0.17985,0.44963 -0.26978,0.89925 -0.26978,1.43881v11.60037c0,0.53955 0.08993,0.98918 0.26978,1.43881c0.17985,0.44963 0.44963,0.80933 0.80933,1.16903v0c0.3597,0.3597 0.71941,0.62948 1.16904,0.80933c0.44963,0.17985 0.89926,0.26978 1.43881,0.26978h11.60043c0.53955,0 0.98918,-0.08993 1.43881,-0.26978c0.44963,-0.17985 0.80933,-0.44963 1.16904,-0.80933v0c0.3597,-0.3597 0.62948,-0.7194 0.80933,-1.16903c0.17985,-0.44963 0.26978,-0.89925 0.26978,-1.43881v-11.60037c0,-0.53955 -0.08993,-0.98918 -0.26978,-1.43881c-0.17985,-0.44963 -0.44963,-0.80933 -0.80933,-1.16903v0c-0.3597,-0.3597 -0.71941,-0.62948 -1.16904,-0.80933c-0.44963,-0.17985 -0.89926,-0.26978 -1.43881,-0.26978zM314.19978,172.22146h11.60043c0.53955,0 1.07911,0.17985 1.43881,0.53955c0.3597,0.3597 0.53955,0.89925 0.53955,1.43881v11.60037c0,0.53955 -0.17985,1.0791 -0.53955,1.43881c-0.3597,0.3597 -0.89926,0.53955 -1.43881,0.53955h-11.60043c-0.53955,0 -1.07911,-0.17985 -1.43881,-0.53955c-0.3597,-0.3597 -0.53955,-0.89925 -0.53955,-1.43881v-11.60037c0,-0.53955 0.17985,-1.0791 0.53955,-1.43881c0.3597,-0.3597 0.89926,-0.53955 1.43881,-0.53955zM325.80022,172.31138h-11.60043c-0.53955,0 -0.98918,0.17985 -1.34889,0.53955c-0.3597,0.3597 -0.53955,0.80933 -0.53955,1.34888v11.60037c0,0.53955 0.17985,0.98918 0.53955,1.34888c0.3597,0.3597 0.80933,0.53955 1.34889,0.53955h11.60043c0.53955,0 0.98918,-0.17985 1.34889,-0.53955c0.3597,-0.3597 0.53955,-0.80933 0.53955,-1.34888v-11.60037c0,-0.53955 -0.17985,-0.98918 -0.53955,-1.34888c-0.3597,-0.3597 -0.80933,-0.53955 -1.34889,-0.53955z" fill="#fefefe" fill-rule="nonzero"/><path d="M317.25726,182.20317c-0.08993,0.08993 -0.26978,0.08993 -0.3597,0c-0.08993,-0.08993 -0.08993,-0.26978 0,-0.3597l4.31644,-4.67612c0.08993,-0.08993 0.26978,-0.08993 0.3597,0c0.08993,0.08993 0.17985,0.26978 0,0.3597z" fill="#2b2a29" fill-rule="nonzero"/><path d="M324.09162,176.44795c-0.71941,0 -1.16904,-0.44963 -1.16904,-1.16903c0,-0.62948 0.44963,-1.16903 1.16904,-1.16903c0.62948,0 1.16904,0.53955 1.16904,1.16903c0,0.7194 -0.53955,1.16903 -1.16904,1.16903z" fill="#e63331" fill-rule="nonzero"/><path d="M324.09162,176.6278c-0.71941,0 -1.34889,-0.62948 -1.34889,-1.34888c0,-0.7194 0.62948,-1.25895 1.34889,-1.25895c0.71941,0 1.25896,0.53955 1.25896,1.25895v0.08993c0,0.7194 -0.53955,1.25895 -1.25896,1.25895zM324.09162,174.28974c-0.62948,0 -1.07911,0.44963 -1.07911,0.98918c0,0.62948 0.44963,1.0791 1.07911,1.0791c0.53955,0 0.98918,-0.44963 0.98918,-1.0791c0,-0.53955 -0.44963,-0.98918 -0.98918,-0.98918z" fill="#5a3547" fill-rule="nonzero"/><path d="M320.13489,185.89011c-0.08993,0 -0.08993,-0.08993 -0.08993,-0.08993c-0.08993,-0.08993 -0.08993,-0.08993 0,-0.17985l1.16904,-1.25895v-2.69776l-1.16904,-1.25895c-0.08993,-0.08993 -0.08993,-0.08993 -0.08993,-0.17985c0,0 0.08993,-0.08993 0.17985,-0.08993h4.76607c0.08993,0 0.17985,0.08993 0.17985,0.08993c0,0.08993 -0.08993,0.08993 -0.08993,0.17985l-1.16904,1.25895v2.69776l1.16904,1.25895c0,0.08993 0,0.08993 0,0.17985l-0.08993,0.08993z" fill="#695ba3" fill-rule="nonzero"/><path d="M320.13489,180.22481v0l1.25896,1.43881v2.69776l-1.25896,1.34888h4.76607l-1.25896,-1.34888v-2.69776l1.25896,-1.43881v0v0zM325.17073,180.22481c0,0.08993 0,0.17985 -0.08993,0.26978l-1.16904,1.25895v2.51791l1.16904,1.25895c0.08993,0.08993 0.08993,0.17985 0.08993,0.3597c-0.08993,0.08993 -0.17985,0.08993 -0.26978,0.08993h-4.76607c-0.08993,0 -0.17985,0 -0.26978,-0.08993c0,-0.17985 0,-0.26978 0.08993,-0.3597l1.16904,-1.25895v-2.51791l-1.16904,-1.25895c-0.08993,-0.08993 -0.08993,-0.17985 -0.08993,-0.26978c0,-0.08993 0.08993,-0.26978 0.26978,-0.26978h4.76607c0.17985,0 0.26978,0.17985 0.26978,0.26978z" fill="#fefefe" fill-rule="nonzero"/><path d="M323.28229,180.94422c-0.08993,0.44963 -0.53955,0.89925 -0.62948,0.98918c-0.08993,0 -0.3597,0.3597 -0.53955,0.7194h0.80933c-0.08993,-0.26978 -0.26978,-0.44963 -0.26978,-0.44963l0.17985,-0.26978c0,0 0.44963,0.44963 0.44963,1.0791c0.08993,0.53955 -0.3597,0.98918 -0.71941,1.25895c-0.17985,0.17985 -0.3597,0.3597 -0.3597,0.44963l0.71941,0.08993c-0.08993,-0.17985 -0.17985,-0.26978 -0.26978,-0.3597l0.17985,-0.17985c0,0 0.44963,0.3597 0.44963,0.7194c0.08993,0.3597 -0.26978,0.26978 -0.26978,0.08993c0.08993,0 0,-0.08993 0,-0.17985h-0.89926v0c0,0 -0.08993,0.3597 -0.26978,0.3597c-0.08993,0 -0.08993,-0.26978 -0.08993,-0.26978c0.08993,-0.62948 0.62948,-0.80933 0.98918,-1.25895c0.08993,-0.08993 0.17985,-0.17985 0.17985,-0.26978l-0.80933,-0.08993c0.08993,0.26978 0.26978,0.53955 0.26978,0.53955l-0.17985,0.17985c-0.71941,-0.62948 -0.53955,-1.25895 -0.3597,-1.61866c0.17985,-0.3597 0.53955,-0.7194 0.71941,-0.80933c0.08993,-0.08993 0.17985,-0.26978 0.26978,-0.3597h-0.62948c0.08993,0.08993 0.17985,0.26978 0.17985,0.26978l-0.17985,0.17985c-0.3597,-0.3597 -0.44963,-0.7194 -0.44963,-0.7194c0,0 -0.08993,-0.17985 0.08993,-0.26978c0.08993,0 0.17985,0.08993 0.17985,0.08993c0,0.08993 0,0.17985 0.08993,0.26978h0.80933c0.08993,-0.08993 0.08993,-0.08993 0.08993,-0.08993c0,0 0,-0.3597 0.17985,-0.26978c0.17985,0 0.08993,0.17985 0.08993,0.17985zM322.02333,182.74272c0,0.08993 0,0.17985 0,0.26978c0,0.08993 0,0.17985 0,0.17985l0.98918,0.08993c0,-0.17985 0,-0.3597 0,-0.44963z" fill="#fefefe" fill-rule="nonzero"/><path d="M317.70689,179.23563h-2.69777c-0.08993,0 -0.17985,-0.08993 -0.17985,-0.08993v-2.78769c0,-0.08993 0.08993,-0.08993 0.17985,-0.08993h2.69777c0.08993,0 0.17985,0 0.17985,0.08993v2.78769c0,0 -0.08993,0.08993 -0.17985,0.08993z" fill="#fcc127" fill-rule="nonzero"/><path d="M317.97667,175.99832c0.08993,0 0.17985,0 0.17985,0.08993v0v3.32724c0,0 -0.08993,0.08993 -0.17985,0.08993h-1.61866h-1.61866c-0.08993,0 -0.08993,-0.08993 -0.08993,-0.08993v0v-3.32724c0,-0.08993 0,-0.08993 0.08993,-0.08993h0.26978c0,0 0.08993,-0.08993 0.08993,-0.17985v-0.53955c0,-0.08993 0,-0.44963 0.26978,-0.80933c0.17985,-0.17985 0.53955,-0.26978 0.89926,-0.26978v0h0.17985c0.44963,0 0.71941,0.08993 0.98918,0.3597c0.26978,0.26978 0.26978,0.62948 0.26978,0.7194v0.53955c0,0.08993 0,0.17985 0.08993,0.17985zM315.6386,175.27892v0.53955c0,0.08993 0.08993,0.17985 0.08993,0.17985h1.25896c0.08993,0 0.17985,-0.08993 0.17985,-0.17985v-0.53955c0,0 0,-0.26978 -0.17985,-0.44963c-0.08993,-0.08993 -0.26978,-0.17985 -0.53955,-0.17985h-0.17985c-0.26978,0 -0.44963,0.08993 -0.53955,0.17985c-0.08993,0.17985 -0.08993,0.44963 -0.08993,0.44963zM317.61697,178.87593v-2.24813c0,-0.08993 -0.08993,-0.08993 -0.17985,-0.08993h-2.15822c-0.08993,0 -0.17985,0 -0.17985,0.08993v2.24813c0,0 0.08993,0.08993 0.17985,0.08993h2.15822c0.08993,0 0.17985,-0.08993 0.17985,-0.08993z" fill="#5b3523" fill-rule="nonzero"/><path d="M315.54867,177.52705h0.08993h0.08993c0.08993,0 0.08993,0 0.17985,0c0.08993,0 0.08993,0 0.17985,0c0,-0.08993 0,-0.08993 0,-0.17985v-0.08993v0c0,0 0,0 0.08993,0v-0.08993v0v0c-0.08993,0 -0.08993,0 -0.08993,-0.08993c0,0 0,-0.08993 0,-0.17985c0.08993,0 0.08993,0 0.08993,0c0.08993,0 0.08993,0 0.17985,0h0.08993h0.08993h0.08993v0v0.08993c0,0.08993 0,0.08993 0,0.17985c0,0 0,0.08993 0,0.17985c0,0 0,0.08993 0,0.17985h0.17985c0.08993,0 0.08993,0 0.17985,0v0v0v0c0,0.08993 0,0.08993 0,0.08993c0,0 0,0 0,-0.08993v0h0.08993v0c0,0 0,0 0.08993,0v0l0.08993,0.08993c0,0.08993 0,0.17985 0,0.17985c0,0.08993 0,0.08993 0,0.17985h-0.08993c0,0.08993 0,0.08993 0,0.08993c-0.08993,0 -0.08993,0 -0.17985,0c0,0 -0.08993,0 -0.17985,0c0,0 -0.08993,0 -0.17985,0c0,0 0,0.08993 0,0.17985c0,0 0,0 0,0.08993v0v0v0c-0.08993,0 -0.08993,0 -0.08993,0v0c0.08993,0 0.08993,0.08993 0.08993,0.08993v0v0v0.08993c0,0 0,0 0,0.08993h-0.08993c-0.08993,0 -0.17985,0 -0.17985,0c-0.08993,0 -0.08993,0 -0.17985,0c0,0 0,0 -0.08993,0c0,-0.08993 0,-0.08993 0,-0.08993v-0.08993c0,-0.08993 0,-0.08993 0,-0.17985c0,-0.08993 0,-0.08993 0,-0.17985h-0.08993c-0.08993,0 -0.08993,0 -0.08993,0v0l-0.08993,-0.08993v0v0v0c-0.08993,0.08993 -0.08993,0.08993 -0.08993,0.08993c-0.08993,0 -0.08993,0 -0.17985,-0.08993c0,0 0,0 0,-0.08993c0,0 0,-0.08993 0,-0.17985v-0.08993c0,-0.08993 0,-0.08993 0,-0.08993z" fill="#5b3523" fill-rule="nonzero"/></g></g></g></svg>