<svg version="1.1" xmlns="http://www.w3.org/2000/svg" xmlns:xlink="http://www.w3.org/1999/xlink" width="19.1541" height="19.1541" viewBox="0,0,19.1541,19.1541"><g transform="translate(-310.42295,-170.42295)"><g data-paper-data="{&quot;isPaintingLayer&quot;:true}" stroke="none" stroke-width="1" stroke-linecap="butt" stroke-linejoin="miter" stroke-miterlimit="10" stroke-dasharray="" stroke-dashoffset="0" style="mix-blend-mode: normal"><g><path d="M314.19097,187.79771c-1.09832,0 -1.98868,-0.89036 -1.98868,-1.98868v-11.61806c0,-1.09832 0.89036,-1.98868 1.98868,-1.98868h11.61806c1.09832,0 1.98868,0.89036 1.98868,1.98868v11.61806c0,1.09832 -0.89036,1.98868 -1.98868,1.98868z" fill="#fefefe" fill-rule="evenodd"/><path d="M314.19097,170.42295h11.61806c1.04667,0 1.98868,0.41867 2.61668,1.15134v0c0.73267,0.628 1.15134,1.57001 1.15134,2.61668v11.61806c0,1.04667 -0.41867,1.98868 -1.15134,2.61668v0c-0.628,0.73267 -1.57001,1.15134 -2.61668,1.15134h-11.61806c-1.04667,0 -1.98868,-0.41867 -2.61668,-1.15134v0c-0.73267,-0.628 -1.15134,-1.57001 -1.15134,-2.61668v-11.61806c0,-1.04667 0.41867,-1.98868 1.15134,-2.61668v0c0.628,-0.73267 1.57001,-1.15134 2.61668,-1.15134zM314.19097,172.20229h11.61806c1.15134,0 1.98868,0.942 1.98868,1.98868v11.61806c0,1.15134 -0.83734,1.98868 -1.98868,1.98868h-11.61806c-1.04667,0 -1.98868,-0.83734 -1.98868,-1.98868v-11.61806c0,-1.04667 0.942,-1.98868 1.98868,-1.98868z" fill="#ef7f1a" fill-rule="evenodd"/><path d="M314.19097,170.42295h11.61806c0.52334,0 1.04667,0.10467 1.46534,0.314c0.41867,0.20933 0.83734,0.41867 1.25601,0.83734v0c0.314,0.314 0.628,0.73267 0.83734,1.15134c0.10467,0.52334 0.20933,0.942 0.20933,1.46534v11.61806c0,0.52334 -0.10467,1.04667 -0.20933,1.46534c-0.20933,0.41867 -0.52334,0.83734 -0.83734,1.25601v0c-0.41867,0.314 -0.83734,0.628 -1.25601,0.83734c-0.41867,0.10467 -0.942,0.20933 -1.46534,0.20933h-11.61806c-0.52334,0 -0.942,-0.10467 -1.46534,-0.20933c-0.41867,-0.20933 -0.83734,-0.52334 -1.15134,-0.83734v0c-0.41867,-0.41867 -0.628,-0.83734 -0.83734,-1.25601c-0.20933,-0.41867 -0.314,-0.942 -0.314,-1.46534v-11.61806c0,-0.52334 0.10467,-0.942 0.314,-1.46534c0.20933,-0.41867 0.41867,-0.83734 0.83734,-1.15134v0c0.314,-0.41867 0.73267,-0.628 1.15134,-0.83734c0.52334,-0.20933 0.942,-0.314 1.46534,-0.314zM325.80903,170.52762h-11.61806c-0.52334,0 -0.942,0.10467 -1.36067,0.314c-0.52334,0.10467 -0.83734,0.41867 -1.25601,0.73267v0c-0.314,0.41867 -0.628,0.73267 -0.73267,1.25601c-0.20933,0.41867 -0.314,0.83734 -0.314,1.36067v11.61806c0,0.52334 0.10467,1.04667 0.314,1.46534c0.10467,0.41867 0.41867,0.83734 0.73267,1.15134v0c0.41867,0.314 0.73267,0.628 1.25601,0.83734c0.41867,0.10467 0.83734,0.20933 1.36067,0.20933h11.61806c0.52334,0 1.04667,-0.10467 1.46534,-0.20933c0.41867,-0.20933 0.83734,-0.52334 1.15134,-0.83734v0c0.314,-0.314 0.628,-0.73267 0.83734,-1.15134c0.10467,-0.41867 0.20933,-0.942 0.20933,-1.46534v-11.61806c0,-0.52334 -0.10467,-0.942 -0.20933,-1.36067c-0.20933,-0.52334 -0.52334,-0.83734 -0.83734,-1.25601v0c-0.314,-0.314 -0.73267,-0.628 -1.15134,-0.73267c-0.41867,-0.20933 -0.942,-0.314 -1.46534,-0.314zM314.19097,172.20229h11.61806c0.628,0 1.04667,0.20933 1.46534,0.628c0.314,0.314 0.52334,0.83734 0.52334,1.36067v11.61806c0,0.628 -0.20933,1.04667 -0.52334,1.46534c-0.41867,0.314 -0.83734,0.52334 -1.46534,0.52334h-11.61806c-0.52334,0 -1.04667,-0.20933 -1.36067,-0.52334c-0.41867,-0.41867 -0.628,-0.83734 -0.628,-1.46534v-11.61806c0,-0.52334 0.20933,-1.04667 0.628,-1.36067c0.314,-0.41867 0.83734,-0.628 1.36067,-0.628zM325.80903,172.30696h-11.61806c-0.52334,0 -1.04667,0.20933 -1.36067,0.52334c-0.314,0.314 -0.52334,0.83734 -0.52334,1.36067v11.61806c0,0.52334 0.20933,1.04667 0.52334,1.36067c0.314,0.314 0.83734,0.52334 1.36067,0.52334h11.61806c0.52334,0 1.04667,-0.20933 1.36067,-0.52334c0.314,-0.314 0.52334,-0.83734 0.52334,-1.36067v-11.61806c0,-0.52334 -0.20933,-1.04667 -0.52334,-1.36067c-0.314,-0.314 -0.83734,-0.52334 -1.36067,-0.52334z" fill="#fefefe" fill-rule="nonzero"/><path d="M322.45968,176.80765c-0.628,0 -1.15134,-0.52334 -1.15134,-1.15134c0,-0.628 0.52334,-1.25601 1.15134,-1.25601c0.628,0 1.15134,0.628 1.15134,1.25601c0,0.628 -0.52334,1.15134 -1.15134,1.15134z" fill="#e63331" fill-rule="nonzero"/><path d="M322.45968,176.91232c-0.73267,0 -1.36067,-0.52334 -1.36067,-1.25601c0,-0.73267 0.628,-1.36067 1.36067,-1.36067c0.73267,0 1.36067,0.628 1.36067,1.25601v0.10467c0,0.73267 -0.628,1.25601 -1.36067,1.25601zM322.45968,174.60964c-0.52334,0 -1.04667,0.41867 -1.04667,1.04667c0,0.52334 0.52334,1.04667 1.04667,1.04667c0.628,0 1.04667,-0.52334 1.04667,-1.04667c0,-0.628 -0.41867,-1.04667 -1.04667,-1.04667z" fill="#5a3547" fill-rule="nonzero"/><path d="M324.23902,178.79633c-0.628,0 -1.15134,-0.52334 -1.15134,-1.15134c0,-0.73267 0.52334,-1.25601 1.15134,-1.25601c0.628,0 1.15134,0.52334 1.15134,1.25601c0,0.628 -0.52334,1.15134 -1.15134,1.15134z" fill="#e63331" fill-rule="nonzero"/><path d="M324.23902,178.90099c-0.73267,0 -1.36067,-0.52334 -1.36067,-1.25601c0,-0.73267 0.628,-1.36067 1.36067,-1.36067c0.73267,0 1.25601,0.52334 1.36067,1.25601v0.10467c-0.10467,0.73267 -0.628,1.25601 -1.36067,1.25601zM324.23902,176.59832c-0.628,0 -1.04667,0.41867 -1.04667,1.04667c0,0.52334 0.41867,1.04667 1.04667,1.04667c0.628,0 1.04667,-0.52334 1.04667,-1.04667c0,-0.628 -0.41867,-1.04667 -1.04667,-1.04667z" fill="#5a3547" fill-rule="nonzero"/><path d="M317.01698,180.88967c-0.942,0 -1.77934,-0.41867 -2.40735,-1.15134c0,0 0,-0.10467 0,-0.20933c0.41867,-0.41867 0.73267,-1.04667 0.73267,-1.67468c0,-0.628 -0.314,-1.25601 -0.73267,-1.77934c0,-0.10467 0,-0.20933 0,-0.20933c0.628,-0.73267 1.46534,-1.15134 2.40735,-1.15134c0.942,0 1.77934,0.41867 2.30268,1.15134c0.10467,0 0.10467,0.10467 0,0.20933c-0.314,0.52334 -0.628,1.15134 -0.628,1.77934c0,0.628 0.314,1.25601 0.628,1.67468c0.10467,0.10467 0.10467,0.20933 0,0.20933c-0.52334,0.73267 -1.36067,1.15134 -2.30268,1.15134z" fill="#e84743" fill-rule="nonzero"/><path d="M314.81897,175.97031c0.41867,0.52334 0.628,1.15134 0.628,1.88401c0,0.628 -0.20933,1.36067 -0.628,1.77934c0.52334,0.73267 1.25601,1.04667 2.19801,1.04667c0.942,0 1.67468,-0.314 2.19801,-1.04667c-0.41867,-0.41867 -0.628,-1.15134 -0.628,-1.77934c0,-0.73267 0.20933,-1.36067 0.628,-1.88401c-0.52334,-0.628 -1.25601,-1.04667 -2.19801,-1.04667c-0.942,0 -1.67468,0.41867 -2.19801,1.04667zM314.50497,179.843v-0.10467v-0.10467v-0.10467c0.41867,-0.52334 0.628,-1.15134 0.628,-1.67468c0,-0.628 -0.20933,-1.25601 -0.628,-1.67468c0,-0.10467 0,-0.10467 0,-0.20933v0c0,-0.10467 0,-0.20933 0,-0.20933c0.628,-0.73267 1.57001,-1.15134 2.51201,-1.15134c0.942,0 1.88401,0.41867 2.51201,1.15134c0.10467,0.10467 0.10467,0.314 0,0.41867c-0.41867,0.41867 -0.628,1.04667 -0.628,1.67468c0,0.52334 0.20933,1.15134 0.628,1.67468c0.10467,0.10467 0.10467,0.20933 0,0.314c-0.52334,0.628 -1.25601,1.04667 -2.09334,1.15134h-0.83734c-0.83734,-0.10467 -1.57001,-0.52334 -2.09334,-1.15134z" fill="#4e4e50" fill-rule="nonzero"/><path d="M317.85432,175.65631c-0.10467,0.52334 -0.52334,0.942 -0.628,1.04667c-0.10467,0 -0.41867,0.314 -0.628,0.73267h0.83734c-0.10467,-0.20933 -0.314,-0.52334 -0.314,-0.52334l0.20933,-0.20933c0,0 0.52334,0.41867 0.52334,1.04667c0,0.628 -0.41867,1.04667 -0.83734,1.46534c-0.10467,0.10467 -0.314,0.314 -0.314,0.41867h0.73267c-0.10467,-0.10467 -0.20933,-0.20933 -0.314,-0.314l0.20933,-0.20933c0,0 0.52334,0.41867 0.52334,0.83734c0,0.314 -0.314,0.20933 -0.314,0.10467c0,-0.10467 0,-0.10467 0,-0.20933h-0.942v0c0,0 -0.10467,0.314 -0.20933,0.314c-0.20933,0 -0.10467,-0.20933 -0.10467,-0.20933c0.10467,-0.628 0.52334,-0.942 0.942,-1.36067c0.10467,-0.10467 0.20933,-0.20933 0.20933,-0.314h-0.83734c0.10467,0.314 0.314,0.41867 0.314,0.41867l-0.20933,0.20933c-0.73267,-0.628 -0.52334,-1.25601 -0.41867,-1.57001c0.20933,-0.41867 0.52334,-0.83734 0.73267,-0.942c0.20933,-0.10467 0.314,-0.20933 0.314,-0.41867h-0.628c0.10467,0.20933 0.20933,0.314 0.20933,0.314l-0.20933,0.20933c-0.41867,-0.41867 -0.52334,-0.73267 -0.52334,-0.73267c0,0 -0.10467,-0.20933 0.10467,-0.314c0.20933,0 0.20933,0.20933 0.20933,0.20933c0,0 0,0.10467 0.10467,0.20933h0.83734c0.10467,-0.10467 0.10467,-0.10467 0.10467,-0.10467c0,0 0,-0.314 0.20933,-0.314c0.10467,0 0.10467,0.20933 0.10467,0.20933zM316.49365,177.54032c0,0.10467 0,0.20933 0,0.20933c0,0.10467 0,0.20933 0,0.314h1.04667c0,-0.20933 0,-0.314 0,-0.41867z" fill="#4e4e50" fill-rule="nonzero"/><path d="M321.72701,185.5997c-0.83734,0 -1.67468,-0.41867 -2.30268,-1.15134v-0.10467c0.41867,-0.52334 0.628,-1.15134 0.628,-1.77934c0,-0.628 -0.20933,-1.25601 -0.628,-1.77934c0,-0.10467 0,-0.10467 0,-0.20933c0.628,-0.73267 1.46534,-1.15134 2.30268,-1.15134c0.942,0 1.77934,0.41867 2.40735,1.15134c0,0.10467 0,0.10467 0,0.20933c-0.41867,0.52334 -0.628,1.15134 -0.628,1.77934c0,0.628 0.20933,1.25601 0.628,1.77934v0.10467c-0.628,0.73267 -1.46534,1.15134 -2.40735,1.15134z" fill="#e84743" fill-rule="nonzero"/><path d="M319.529,180.68034c0.41867,0.52334 0.73267,1.15134 0.73267,1.88401c0,0.628 -0.314,1.36067 -0.73267,1.77934c0.52334,0.73267 1.36067,1.15134 2.19801,1.15134c0.942,0 1.77934,-0.41867 2.30268,-1.15134c-0.41867,-0.41867 -0.73267,-1.15134 -0.73267,-1.77934c0,-0.73267 0.314,-1.36067 0.73267,-1.88401c-0.52334,-0.628 -1.36067,-1.04667 -2.30268,-1.04667c-0.83734,0 -1.67468,0.41867 -2.19801,1.04667zM319.31966,184.55302c-0.10467,0 -0.10467,-0.10467 -0.10467,-0.10467v-0.10467c0,0 0,-0.10467 0.10467,-0.10467c0.41867,-0.52334 0.628,-1.04667 0.628,-1.67468c0,-0.628 -0.20933,-1.25601 -0.628,-1.67468c-0.10467,-0.10467 -0.10467,-0.10467 -0.10467,-0.20933v0c0,-0.10467 0,-0.10467 0.10467,-0.20933c0.628,-0.73267 1.46534,-1.15134 2.40735,-1.15134c1.04667,0 1.88401,0.41867 2.51201,1.15134c0.10467,0.10467 0.10467,0.314 0,0.41867c-0.41867,0.41867 -0.628,1.04667 -0.628,1.67468c0,0.628 0.20933,1.15134 0.628,1.67468c0.10467,0.10467 0.10467,0.20933 0,0.314c-0.52334,0.628 -1.25601,1.04667 -1.98868,1.15134h-0.942c-0.73267,-0.10467 -1.46534,-0.52334 -1.98868,-1.15134z" fill="#4e4e50" fill-rule="nonzero"/><path d="M322.56435,180.36634c-0.10467,0.52334 -0.52334,0.942 -0.628,1.04667c-0.10467,0 -0.41867,0.314 -0.628,0.73267h0.942c-0.10467,-0.20933 -0.314,-0.41867 -0.314,-0.41867l0.20933,-0.314c0,0 0.41867,0.52334 0.52334,1.15134c0,0.628 -0.41867,1.04667 -0.83734,1.36067c-0.20933,0.10467 -0.314,0.314 -0.41867,0.41867h0.83734c-0.10467,-0.10467 -0.20933,-0.20933 -0.314,-0.314l0.20933,-0.20933c0,0 0.41867,0.41867 0.52334,0.83734c0,0.314 -0.314,0.20933 -0.314,0.10467c0,-0.10467 0,-0.10467 0,-0.20933h-1.04667v0c0,0 0,0.41867 -0.20933,0.314c-0.10467,0 -0.10467,-0.20933 -0.10467,-0.20933c0.10467,-0.628 0.628,-0.942 0.942,-1.36067c0.10467,-0.10467 0.20933,-0.20933 0.314,-0.314h-0.942c0.10467,0.314 0.314,0.41867 0.314,0.41867l-0.20933,0.20933c-0.628,-0.628 -0.52334,-1.25601 -0.314,-1.57001c0.10467,-0.41867 0.52334,-0.83734 0.73267,-0.942c0.10467,-0.10467 0.20933,-0.20933 0.314,-0.314l-0.73267,-0.10467c0.10467,0.20933 0.20933,0.314 0.20933,0.314l-0.20933,0.20933c-0.314,-0.41867 -0.41867,-0.73267 -0.41867,-0.73267c0,0 -0.10467,-0.20933 0,-0.314c0.20933,0 0.314,0.20933 0.314,0.20933c0,0 0,0.10467 0,0.20933h0.942c0,-0.10467 0,-0.10467 0,-0.10467c0,0 0.10467,-0.314 0.314,-0.314c0.10467,0 0,0.20933 0,0.20933zM321.30834,182.35501c-0.10467,0 -0.10467,0.10467 -0.10467,0.20933c0,0 0,0.10467 0.10467,0.20933h0.942c0.10467,-0.20933 0.10467,-0.314 0,-0.41867z" fill="#4e4e50" fill-rule="nonzero"/></g></g></g></svg>