<svg version="1.1" xmlns="http://www.w3.org/2000/svg" xmlns:xlink="http://www.w3.org/1999/xlink" width="19.1541" height="19.1541" viewBox="0,0,19.1541,19.1541"><g transform="translate(-310.42295,-170.42295)"><g data-paper-data="{&quot;isPaintingLayer&quot;:true}" stroke="none" stroke-width="1" stroke-linecap="butt" stroke-linejoin="miter" stroke-miterlimit="10" stroke-dasharray="" stroke-dashoffset="0" style="mix-blend-mode: normal"><g><path d="M314.18686,187.73692c-1.06247,0 -1.92377,-0.8613 -1.92377,-1.92377v-11.62629c0,-1.06247 0.8613,-1.92377 1.92377,-1.92377h11.62629c1.06247,0 1.92377,0.8613 1.92377,1.92377v11.62629c0,1.06247 -0.8613,1.92377 -1.92377,1.92377z" fill="#fefefe" fill-rule="evenodd"/><path d="M314.18686,170.50659h11.62629c1.00371,0 1.92377,0.41821 2.59291,1.08735v0c0.66914,0.66914 1.08735,1.5892 1.08735,2.59291v11.62629c0,1.00371 -0.41821,1.92377 -1.08735,2.59291v0c-0.66914,0.66914 -1.5892,1.08735 -2.59291,1.08735h-11.62629c-1.00371,0 -1.92377,-0.41821 -2.59291,-1.08735v0c-0.66914,-0.66914 -1.08735,-1.5892 -1.08735,-2.59291v-11.62629c0,-1.00371 0.41821,-1.92377 1.08735,-2.59291v0c0.66914,-0.66914 1.5892,-1.08735 2.59291,-1.08735zM314.18686,172.26308h11.62629c1.08735,0 1.92377,0.83642 1.92377,1.92377v11.62629c0,1.08735 -0.83642,1.92377 -1.92377,1.92377h-11.62629c-1.08735,0 -1.92377,-0.83642 -1.92377,-1.92377v-11.62629c0,-1.08735 0.83642,-1.92377 1.92377,-1.92377z" fill="#ef7f1a" fill-rule="evenodd"/><path d="M314.18686,170.42295h11.62629c0.50185,0 1.00371,0.08364 1.42192,0.25093c0.41821,0.25093 0.83642,0.50185 1.17099,0.83642v0c0.41821,0.33457 0.66914,0.75278 0.83642,1.25464c0.16728,0.41821 0.33457,0.92007 0.33457,1.42192v11.62629c0,0.50185 -0.16728,1.00371 -0.33457,1.42192c-0.16728,0.41821 -0.41821,0.83642 -0.83642,1.17099v0c-0.33457,0.41821 -0.75278,0.66914 -1.17099,0.83642c-0.41821,0.16728 -0.92007,0.33457 -1.42192,0.33457h-11.62629c-0.50185,0 -1.00371,-0.16728 -1.42192,-0.33457c-0.50185,-0.16728 -0.92007,-0.41821 -1.25464,-0.83642v0c-0.33457,-0.33457 -0.5855,-0.75278 -0.83642,-1.17099c-0.16728,-0.41821 -0.25093,-0.92007 -0.25093,-1.42192v-11.62629c0,-0.50185 0.08364,-1.00371 0.25093,-1.42192c0.25093,-0.50185 0.50185,-0.92007 0.83642,-1.25464v0c0.33457,-0.33457 0.75278,-0.5855 1.25464,-0.83642c0.41821,-0.16728 0.92007,-0.25093 1.42192,-0.25093zM325.81314,170.50659h-11.62629c-0.50185,0 -1.00371,0.08364 -1.42192,0.33457c-0.41821,0.16728 -0.83642,0.41821 -1.17099,0.75278v0c-0.33457,0.33457 -0.5855,0.75278 -0.75278,1.17099c-0.25093,0.41821 -0.33457,0.92007 -0.33457,1.42192v11.62629c0,0.50185 0.08364,0.92007 0.33457,1.33828c0.16728,0.50185 0.41821,0.83642 0.75278,1.25464v0c0.33457,0.33457 0.75278,0.5855 1.17099,0.75278c0.41821,0.16728 0.92007,0.25093 1.42192,0.25093h11.62629c0.50185,0 0.92007,-0.08364 1.33828,-0.25093c0.50185,-0.16728 0.83642,-0.41821 1.25464,-0.75278v0c0.33457,-0.41821 0.5855,-0.75278 0.75278,-1.25464c0.16728,-0.41821 0.25093,-0.83642 0.25093,-1.33828v-11.62629c0,-0.50185 -0.08364,-1.00371 -0.25093,-1.42192c-0.16728,-0.41821 -0.41821,-0.83642 -0.75278,-1.17099v0c-0.41821,-0.33457 -0.75278,-0.5855 -1.25464,-0.75278c-0.41821,-0.25093 -0.83642,-0.33457 -1.33828,-0.33457zM314.18686,172.17944h11.62629c0.50185,0 1.00371,0.25093 1.42192,0.5855c0.33457,0.33457 0.5855,0.83642 0.5855,1.42192v11.62629c0,0.50185 -0.25093,1.00371 -0.5855,1.42192c-0.41821,0.33457 -0.92007,0.5855 -1.42192,0.5855h-11.62629c-0.5855,0 -1.08735,-0.25093 -1.42192,-0.5855c-0.33457,-0.41821 -0.5855,-0.92007 -0.5855,-1.42192v-11.62629c0,-0.5855 0.25093,-1.08735 0.5855,-1.42192c0.33457,-0.33457 0.83642,-0.5855 1.42192,-0.5855zM325.81314,172.26308h-11.62629c-0.50185,0 -1.00371,0.25093 -1.33828,0.5855c-0.33457,0.33457 -0.5855,0.83642 -0.5855,1.33828v11.62629c0,0.50185 0.25093,1.00371 0.5855,1.33828c0.33457,0.33457 0.83642,0.50185 1.33828,0.50185h11.62629c0.50185,0 1.00371,-0.16728 1.33828,-0.50185c0.33457,-0.33457 0.50185,-0.83642 0.50185,-1.33828v-11.62629c0,-0.50185 -0.16728,-1.00371 -0.50185,-1.33828c-0.33457,-0.33457 -0.83642,-0.5855 -1.33828,-0.5855z" fill="#fefefe" fill-rule="nonzero"/><path d="M322.63473,177.11434c-0.66914,0 -1.17099,-0.50185 -1.17099,-1.17099c0,-0.66914 0.50185,-1.17099 1.17099,-1.17099c0.66914,0 1.17099,0.50185 1.17099,1.17099c0,0.66914 -0.50185,1.17099 -1.17099,1.17099z" fill="#e63331" fill-rule="nonzero"/><path d="M322.63473,177.28162c-0.75278,0 -1.33828,-0.5855 -1.33828,-1.33828c0,-0.75278 0.5855,-1.33828 1.33828,-1.33828c0.75278,0 1.33828,0.5855 1.33828,1.33828v0.08364c0,0.66914 -0.5855,1.25464 -1.33828,1.25464zM322.63473,174.93964c-0.5855,0 -1.00371,0.41821 -1.00371,1.00371c0,0.5855 0.41821,1.08735 1.00371,1.08735c0.5855,0 1.08735,-0.50185 1.08735,-1.08735c0,-0.5855 -0.50185,-1.00371 -1.08735,-1.00371z" fill="#5a3547" fill-rule="nonzero"/><path d="M324.39122,179.12176c-0.66914,0 -1.17099,-0.5855 -1.17099,-1.25464c0,-0.5855 0.50185,-1.17099 1.17099,-1.17099c0.66914,0 1.17099,0.5855 1.17099,1.17099c0,0.66914 -0.50185,1.25464 -1.17099,1.25464z" fill="#e63331" fill-rule="nonzero"/><path d="M324.39122,179.2054c-0.66914,0 -1.33828,-0.5855 -1.33828,-1.33828c0,-0.66914 0.66914,-1.25464 1.33828,-1.25464c0.75278,0 1.33828,0.5855 1.33828,1.25464v0.08364c0,0.66914 -0.5855,1.25464 -1.33828,1.25464zM324.39122,176.86341c-0.5855,0 -1.00371,0.50185 -1.00371,1.00371c0,0.5855 0.41821,1.08735 1.00371,1.08735c0.5855,0 1.08735,-0.50185 1.08735,-1.08735c0,-0.50185 -0.50185,-1.00371 -1.08735,-1.00371z" fill="#5a3547" fill-rule="nonzero"/><path d="M321.9656,185.31129c-0.50185,0 -0.92007,-0.33457 -1.25464,-1.00371c-0.16728,0.08364 -0.33457,0.16728 -0.50185,0.25093c0,0.08364 0,0.08364 -0.08364,0.08364c0,0 -0.08364,0 -0.08364,-0.08364c-0.66914,-0.50185 -1.08735,-1.42192 -1.08735,-2.25834c0,-0.92007 0.41821,-1.75649 1.08735,-2.34199c0,-0.08364 0.08364,-0.08364 0.08364,-0.08364c0.08364,0 0.08364,0 0.08364,0.08364c0.16728,0.08364 0.33457,0.16728 0.50185,0.25093c0.33457,-0.5855 0.75278,-1.00371 1.25464,-1.00371c0.50185,0 0.92007,0.41821 1.25464,1.00371c0.16728,-0.08364 0.33457,-0.16728 0.50185,-0.25093c0,-0.08364 0.08364,-0.08364 0.08364,-0.08364c0.08364,0 0.08364,0 0.08364,0.08364c0.75278,0.5855 1.08735,1.42192 1.08735,2.34199c0,0.83642 -0.33457,1.75649 -1.08735,2.25834c0,0.08364 0,0.08364 -0.08364,0.08364c0,0 -0.08364,0 -0.08364,-0.08364c-0.16728,-0.08364 -0.33457,-0.16728 -0.50185,-0.25093c-0.33457,0.66914 -0.75278,1.00371 -1.25464,1.00371z" fill="#4e4e50" fill-rule="nonzero"/><path d="M320.7946,180.46003v0c0,0 -0.41821,-0.25093 -0.66914,-0.41821c-0.5855,0.5855 -1.00371,1.33828 -1.00371,2.25834c0,0.83642 0.41821,1.67285 1.00371,2.1747c0.25093,-0.16728 0.66914,-0.33457 0.66914,-0.33457v0c0.25093,0.5855 0.75278,1.00371 1.17099,1.00371c0.50185,0 0.92007,-0.41821 1.17099,-1.00371v0c0.08364,0 0.50185,0.16728 0.66914,0.33457c0.66914,-0.50185 1.00371,-1.33828 1.00371,-2.1747c0,-0.92007 -0.33457,-1.67285 -1.00371,-2.25834c-0.16728,0.16728 -0.5855,0.41821 -0.66914,0.41821v0c-0.25093,-0.66914 -0.66914,-1.08735 -1.17099,-1.08735c-0.41821,0 -0.92007,0.41821 -1.17099,1.08735zM323.30387,180.04182c0.08364,-0.08364 0.25093,-0.16728 0.33457,-0.25093c0,0 0.08364,-0.08364 0.16728,-0.08364c0.08364,0 0.16728,0.08364 0.25093,0.08364c0.66914,0.66914 1.08735,1.50556 1.08735,2.50927c0,0.92007 -0.41821,1.84013 -1.08735,2.42563c-0.08364,0.08364 -0.16728,0.08364 -0.25093,0.08364c-0.08364,0 -0.16728,0 -0.16728,-0.08364c-0.08364,-0.08364 -0.25093,-0.16728 -0.33457,-0.16728c-0.33457,0.5855 -0.83642,0.92007 -1.33828,0.92007c-0.50185,0 -1.00371,-0.33457 -1.33828,-0.92007c-0.08364,0 -0.16728,0.08364 -0.25093,0.16728c-0.08364,0.08364 -0.16728,0.08364 -0.25093,0.08364c-0.08364,0 -0.16728,0 -0.16728,-0.08364c-0.75278,-0.5855 -1.17099,-1.50556 -1.17099,-2.42563c0,-1.00371 0.41821,-1.84013 1.17099,-2.50927c0,0 0.08364,-0.08364 0.16728,-0.08364c0.08364,0 0.16728,0.08364 0.25093,0.08364c0.08364,0.08364 0.16728,0.16728 0.25093,0.25093c0.33457,-0.66914 0.83642,-1.00371 1.33828,-1.00371c0.50185,0 1.00371,0.33457 1.33828,1.00371z" fill="#4e4e50" fill-rule="nonzero"/><path d="M321.9656,185.31129c-0.50185,0 -0.92007,-0.33457 -1.25464,-1.00371c-0.16728,0.08364 -0.33457,0.16728 -0.50185,0.25093c0,0.08364 0,0.08364 -0.08364,0.08364c0,0 -0.08364,0 -0.08364,-0.08364c-0.66914,-0.50185 -1.08735,-1.42192 -1.08735,-2.25834c0,-0.92007 0.41821,-1.75649 1.08735,-2.34199c0,-0.08364 0.08364,-0.08364 0.08364,-0.08364c0.08364,0 0.08364,0 0.08364,0.08364c0.16728,0.08364 0.33457,0.16728 0.50185,0.25093c0.33457,-0.5855 0.75278,-1.00371 1.25464,-1.00371c0.50185,0 0.92007,0.41821 1.25464,1.00371c0.16728,-0.08364 0.33457,-0.16728 0.50185,-0.25093c0,-0.08364 0.08364,-0.08364 0.08364,-0.08364c0.08364,0 0.08364,0 0.08364,0.08364c0.75278,0.5855 1.08735,1.42192 1.08735,2.34199c0,0.83642 -0.33457,1.75649 -1.08735,2.25834c0,0.08364 0,0.08364 -0.08364,0.08364c0,0 -0.08364,0 -0.08364,-0.08364c-0.16728,-0.08364 -0.33457,-0.16728 -0.50185,-0.25093c-0.33457,0.66914 -0.75278,1.00371 -1.25464,1.00371z" fill="#fecf1e" fill-rule="nonzero"/><path d="M320.7946,180.46003v0c0,0 -0.41821,-0.25093 -0.66914,-0.41821c-0.5855,0.5855 -1.00371,1.33828 -1.00371,2.25834c0,0.83642 0.41821,1.67285 1.00371,2.1747c0.25093,-0.16728 0.66914,-0.33457 0.66914,-0.33457v0c0.25093,0.5855 0.75278,1.00371 1.17099,1.00371c0.50185,0 0.92007,-0.41821 1.17099,-1.00371v0c0.08364,0 0.50185,0.16728 0.66914,0.33457c0.66914,-0.50185 1.00371,-1.33828 1.00371,-2.1747c0,-0.92007 -0.33457,-1.67285 -1.00371,-2.25834c-0.16728,0.16728 -0.5855,0.41821 -0.66914,0.41821v0c-0.25093,-0.66914 -0.66914,-1.08735 -1.17099,-1.08735c-0.41821,0 -0.92007,0.41821 -1.17099,1.08735zM323.30387,180.04182c0.08364,-0.08364 0.25093,-0.16728 0.33457,-0.25093c0,0 0.08364,-0.08364 0.16728,-0.08364c0.08364,0 0.16728,0.08364 0.25093,0.08364c0.66914,0.66914 1.08735,1.50556 1.08735,2.50927c0,0.92007 -0.41821,1.84013 -1.08735,2.42563c-0.08364,0.08364 -0.16728,0.08364 -0.25093,0.08364c-0.08364,0 -0.16728,0 -0.16728,-0.08364c-0.08364,-0.08364 -0.25093,-0.16728 -0.33457,-0.16728c-0.33457,0.5855 -0.83642,0.92007 -1.33828,0.92007c-0.50185,0 -1.00371,-0.33457 -1.33828,-0.92007c-0.08364,0 -0.16728,0.08364 -0.25093,0.16728c-0.08364,0.08364 -0.16728,0.08364 -0.25093,0.08364c-0.08364,0 -0.16728,0 -0.16728,-0.08364c-0.75278,-0.5855 -1.17099,-1.50556 -1.17099,-2.42563c0,-1.00371 0.41821,-1.84013 1.17099,-2.50927c0,0 0.08364,-0.08364 0.16728,-0.08364c0.08364,0 0.16728,0.08364 0.25093,0.08364c0.08364,0.08364 0.16728,0.16728 0.25093,0.25093c0.33457,-0.66914 0.83642,-1.00371 1.33828,-1.00371c0.50185,0 1.00371,0.33457 1.33828,1.00371z" fill="#4e4e50" fill-rule="nonzero"/><path d="M321.12917,184.39122c0.16728,-0.50185 0.5855,-0.92007 0.66914,-1.00371c0.08364,-0.08364 0.41821,-0.33457 0.5855,-0.75278h-0.83642c0.08364,0.25093 0.33457,0.50185 0.33457,0.50185l-0.25093,0.16728c0,0 -0.50185,-0.41821 -0.50185,-1.00371c0,-0.66914 0.41821,-1.00371 0.83642,-1.33828c0.16728,-0.25093 0.25093,-0.41821 0.33457,-0.50185h-0.75278c0.08364,0.08364 0.16728,0.25093 0.33457,0.33457l-0.25093,0.16728c0,0 -0.50185,-0.41821 -0.50185,-0.75278c0,-0.33457 0.33457,-0.25093 0.25093,-0.08364c0,0 0.08364,0.08364 0.08364,0.16728h0.92007h0.08364c0,0 0,-0.41821 0.16728,-0.33457c0.16728,0 0.08364,0.25093 0.08364,0.25093c-0.08364,0.5855 -0.5855,0.83642 -0.92007,1.25464c-0.16728,0.08364 -0.16728,0.25093 -0.25093,0.33457h0.83642c-0.08364,-0.25093 -0.25093,-0.41821 -0.25093,-0.41821l0.16728,-0.16728c0.66914,0.5855 0.5855,1.17099 0.41821,1.5892c-0.16728,0.41821 -0.5855,0.75278 -0.75278,0.92007c-0.16728,0.08364 -0.25093,0.16728 -0.33457,0.33457h0.66914c-0.08364,-0.16728 -0.16728,-0.33457 -0.16728,-0.33457l0.16728,-0.16728c0.41821,0.41821 0.50185,0.75278 0.50185,0.75278c0,0 0.08364,0.16728 -0.08364,0.25093c-0.16728,0.08364 -0.25093,-0.08364 -0.25093,-0.08364c0,-0.08364 0,-0.16728 -0.08364,-0.25093h-0.83642c-0.08364,0.08364 -0.08364,0.08364 -0.08364,0.08364c0,0 0,0.33457 -0.25093,0.33457c-0.08364,-0.08364 -0.08364,-0.25093 -0.08364,-0.25093zM322.46745,182.46745c0,0 0,-0.08364 0.08364,-0.16728c0,-0.08364 -0.08364,-0.16728 -0.08364,-0.25093h-1.00371c0,0.16728 0,0.33457 0,0.41821z" fill="#4e4e50" fill-rule="nonzero"/><path d="M317.53255,180.46003v0c-0.25093,0 -0.50185,-0.16728 -0.66914,-0.41821l-2.50927,-4.3494c-0.16728,-0.25093 -0.16728,-0.5855 0,-0.83642c0.16728,-0.16728 0.41821,-0.33457 0.66914,-0.33457h5.01854c0.33457,0 0.5855,0.16728 0.66914,0.33457c0.16728,0.25093 0.16728,0.5855 0,0.83642l-2.50927,4.3494c-0.16728,0.25093 -0.41821,0.41821 -0.66914,0.41821zM316.36156,176.02699l1.17099,2.09106l1.17099,-2.09106z" fill="#4e4e50" fill-rule="nonzero"/><path d="M318.70354,177.28162v0l-0.08364,0.16728v0l-0.83642,1.42192v0h0.16728l-0.41821,0.75278l-0.41821,-0.75278h0.16728v0l-0.83642,-1.42192v0l-0.08364,-0.16728v0l-1.08735,-1.84013h4.51669z" fill="#fcc127" fill-rule="nonzero"/><path d="M320.20911,175.35785l-1.42192,2.42563l-0.5855,1.08735l-0.50185,0.83642c-0.08364,0.08364 -0.08364,0.08364 -0.16728,0.08364c-0.08364,0 -0.08364,0 -0.16728,-0.08364l-0.41821,-0.83642l-0.66914,-1.08735l-1.42192,-2.42563c0,0 0,-0.08364 0,-0.16728c0.08364,0 0.08364,-0.08364 0.16728,-0.08364h5.01854c0.08364,0 0.16728,0.08364 0.16728,0.08364c0,0.08364 0,0.16728 0,0.16728z" fill="#fefefe" fill-rule="nonzero"/><path d="M317.19798,179.28904l-1.17099,-2.00742l0.25093,-0.41821l0.83642,-1.50556l0.16728,-0.41821h0.50185l1.08735,1.92377l0.16728,0.41821l-0.16728,0.25093l-1.00371,1.75649z" fill="#8c8e8f" fill-rule="nonzero"/><path d="M317.28162,175.02328l-0.16728,0.33457l-0.83642,1.50556v0l-0.25093,0.41821l0.16728,0.25093l1.00371,1.75649h0.66914l1.00371,-1.75649l0.16728,-0.25093l-0.25093,-0.41821v0l-0.83642,-1.50556l-0.16728,-0.33457zM318.0344,175.27421l0.83642,1.50556v0.08364l0.25093,0.41821v0l-0.16728,0.25093l-1.08735,1.84013v0h-0.66914v0l-1.08735,-1.84013l-0.16728,-0.25093v0l0.25093,-0.41821v-0.08364l0.83642,-1.50556l0.25093,-0.33457h0.50185z" fill="#fefefe" fill-rule="nonzero"/><path d="M317.61619,174.93964v0.08364h-0.16728v-0.08364z" fill="#fefefe" fill-rule="nonzero"/><path d="M317.61619,175.02328v0.16728h-0.16728v-0.16728z" fill="#fefefe" fill-rule="nonzero"/><path d="M317.61619,175.27421v0.16728h-0.16728v-0.16728z" fill="#fefefe" fill-rule="nonzero"/><path d="M317.61619,175.52513v0.25093h-0.16728v-0.25093z" fill="#fefefe" fill-rule="nonzero"/><path d="M317.69984,175.94335v0.33457h-0.33457l0.08364,-0.33457z" fill="#fefefe" fill-rule="nonzero"/><path d="M317.69984,176.61248l0.08364,0.66914h-0.41821v-0.66914z" fill="#fefefe" fill-rule="nonzero"/><path d="M317.86712,179.45632h-0.66914l0.08364,-1.5892h0.50185z" fill="#fefefe" fill-rule="nonzero"/><path d="M320.46003,175.52513l-1.50556,2.59291l-0.41821,0.75278l-0.5855,1.00371c-0.08364,0.16728 -0.25093,0.25093 -0.41821,0.25093c-0.16728,0 -0.33457,-0.08364 -0.41821,-0.25093l-0.5855,-1.00371l-0.41821,-0.75278l-1.50556,-2.59291c-0.08364,-0.16728 -0.08364,-0.33457 0,-0.50185c0.08364,-0.08364 0.25093,-0.16728 0.41821,-0.16728h5.01854c0.16728,0 0.33457,0.08364 0.41821,0.16728c0.08364,0.16728 0.08364,0.33457 0,0.50185zM320.20911,175.19056c0,0 -0.08364,-0.08364 -0.16728,-0.08364h-5.01854c-0.08364,0 -0.08364,0.08364 -0.16728,0.08364c0,0.08364 0,0.16728 0,0.16728l1.42192,2.42563l0.66914,1.08735l0.41821,0.83642c0.08364,0.08364 0.08364,0.08364 0.16728,0.08364c0.08364,0 0.08364,0 0.16728,-0.08364l0.50185,-0.83642l0.5855,-1.08735l1.42192,-2.42563c0,0 0,-0.08364 0,-0.16728z" fill="#ed7e2e" fill-rule="nonzero"/><path d="M320.46003,175.52513l-1.50556,2.59291l-0.41821,0.75278l-0.5855,1.00371c-0.08364,0.16728 -0.25093,0.25093 -0.41821,0.25093c-0.16728,0 -0.33457,-0.08364 -0.41821,-0.25093l-0.5855,-1.00371l-0.41821,-0.75278l-1.50556,-2.59291c-0.08364,-0.16728 -0.08364,-0.33457 0,-0.50185c0.08364,-0.08364 0.25093,-0.16728 0.41821,-0.16728h5.01854c0.16728,0 0.33457,0.08364 0.41821,0.16728c0.08364,0.16728 0.08364,0.33457 0,0.50185zM320.20911,175.19056c0,0 -0.08364,-0.08364 -0.16728,-0.08364h-5.01854c-0.08364,0 -0.08364,0.08364 -0.16728,0.08364c0,0.08364 0,0.16728 0,0.16728l1.42192,2.42563l0.66914,1.08735l0.41821,0.83642c0.08364,0.08364 0.08364,0.08364 0.16728,0.08364c0.08364,0 0.08364,0 0.16728,-0.08364l0.50185,-0.83642l0.5855,-1.08735l1.42192,-2.42563c0,0 0,-0.08364 0,-0.16728z" fill="#ed7e2e" fill-rule="nonzero"/><path d="M315.02328,175.19056c0,0 -0.08364,0 -0.08364,0.08364c0,0 0,0 0,0.08364l1.42192,2.42563l0.5855,1.08735l0.50185,0.83642h0.08364h0.08364l0.50185,-0.83642l0.5855,-1.08735l1.42192,-2.42563c0,-0.08364 0,-0.08364 0,-0.08364c0,-0.08364 0,-0.08364 -0.08364,-0.08364zM320.20911,175.19056c0,0.08364 0,0.16728 0,0.16728l-1.42192,2.42563l-0.5855,1.08735l-0.50185,0.83642c-0.08364,0.08364 -0.08364,0.08364 -0.16728,0.08364c-0.08364,0 -0.08364,0 -0.16728,-0.08364l-0.41821,-0.83642l-0.66914,-1.08735l-1.42192,-2.42563c0,0 0,-0.08364 0,-0.16728c0.08364,0 0.08364,-0.08364 0.16728,-0.08364h5.01854c0.08364,0 0.16728,0.08364 0.16728,0.08364z" fill="#fefefe" fill-rule="nonzero"/></g></g></g></svg>