<svg version="1.1" xmlns="http://www.w3.org/2000/svg" xmlns:xlink="http://www.w3.org/1999/xlink" width="19.1541" height="19.1541" viewBox="0,0,19.1541,19.1541"><g transform="translate(-310.42295,-170.42295)"><g data-paper-data="{&quot;isPaintingLayer&quot;:true}" stroke="none" stroke-width="1" stroke-linecap="butt" stroke-linejoin="miter" stroke-miterlimit="10" stroke-dasharray="" stroke-dashoffset="0" style="mix-blend-mode: normal"><g><path d="M314.19573,187.83577c-1.06854,0 -1.93476,-0.86622 -1.93476,-1.93476v-11.70528c0,-1.06854 0.86622,-1.93476 1.93476,-1.93476h11.70528c1.06854,0 1.93476,0.86622 1.93476,1.93476v11.70528c0,1.06854 -0.86622,1.93476 -1.93476,1.93476z" fill="#fefefe" fill-rule="evenodd"/><path d="M314.19573,170.51969h11.60855c1.06412,0 2.0315,0.38695 2.70866,1.06412v0c0.67717,0.67717 1.06412,1.54781 1.06412,2.61192v11.60855c0,1.06412 -0.38695,2.0315 -1.06412,2.70866v0c-0.67717,0.67717 -1.64454,1.06412 -2.70866,1.06412h-11.60855c-1.06412,0 -1.93476,-0.38695 -2.61192,-1.06412v0c-0.67717,-0.67717 -1.06412,-1.64454 -1.06412,-2.70866v-11.60855c0,-1.06412 0.38695,-1.93476 1.06412,-2.61192v0c0.67717,-0.67717 1.54781,-1.06412 2.61192,-1.06412zM314.19573,172.26097h11.60855c1.16085,0 2.0315,0.87064 2.0315,1.93476v11.60855c0,1.16085 -0.87064,2.0315 -2.0315,2.0315h-11.60855c-1.06412,0 -1.93476,-0.87064 -1.93476,-2.0315v-11.60855c0,-1.06412 0.87064,-1.93476 1.93476,-1.93476z" fill="#ef7f1a" fill-rule="evenodd"/><path d="M314.19573,170.42295h11.60855c0.58043,0 1.06412,0.09674 1.45107,0.29021c0.48369,0.19348 0.87064,0.48369 1.25759,0.7739v0.09674c0.38695,0.29021 0.67717,0.67717 0.87064,1.16085c0.09674,0.48369 0.19348,0.96738 0.19348,1.45107v11.60855c0,0.58043 -0.09674,1.06412 -0.19348,1.45107c-0.19348,0.48369 -0.48369,0.87064 -0.87064,1.25759v0c-0.38695,0.38695 -0.7739,0.67717 -1.25759,0.87064c-0.38695,0.09674 -0.87064,0.19348 -1.45107,0.19348h-11.60855c-0.48369,0 -0.96738,-0.09674 -1.45107,-0.19348c-0.48369,-0.19348 -0.87064,-0.48369 -1.16085,-0.87064h-0.09674c-0.29021,-0.38695 -0.58043,-0.7739 -0.7739,-1.25759c-0.19348,-0.38695 -0.29021,-0.87064 -0.29021,-1.45107v-11.60855c0,-0.48369 0.09674,-0.96738 0.29021,-1.45107c0.19348,-0.48369 0.48369,-0.87064 0.7739,-1.16085l0.09674,-0.09674c0.29021,-0.29021 0.67717,-0.58043 1.16085,-0.7739c0.48369,-0.19348 0.96738,-0.29021 1.45107,-0.29021zM325.80427,170.51969h-11.60855c-0.48369,0 -0.96738,0.09674 -1.35433,0.29021c-0.48369,0.19348 -0.87064,0.48369 -1.25759,0.7739v0c-0.29021,0.38695 -0.58043,0.7739 -0.7739,1.25759c-0.19348,0.38695 -0.29021,0.87064 -0.29021,1.35433v11.60855c0,0.58043 0.09674,0.96738 0.29021,1.45107c0.19348,0.48369 0.48369,0.87064 0.7739,1.16085v0c0.38695,0.38695 0.7739,0.67717 1.25759,0.87064c0.38695,0.09674 0.87064,0.19348 1.35433,0.19348h11.60855c0.58043,0 0.96738,-0.09674 1.45107,-0.19348c0.48369,-0.19348 0.87064,-0.48369 1.16085,-0.87064v0c0.38695,-0.29021 0.67717,-0.67717 0.87064,-1.16085c0.09674,-0.48369 0.19348,-0.87064 0.19348,-1.45107v-11.60855c0,-0.48369 -0.09674,-0.96738 -0.19348,-1.35433c-0.19348,-0.48369 -0.48369,-0.87064 -0.87064,-1.25759v0c-0.29021,-0.29021 -0.67717,-0.58043 -1.16085,-0.7739c-0.48369,-0.19348 -0.87064,-0.29021 -1.45107,-0.29021zM314.19573,172.16423h11.60855c0.58043,0 1.06412,0.29021 1.45107,0.58043c0.38695,0.38695 0.58043,0.87064 0.58043,1.45107v11.60855c0,0.58043 -0.19348,1.06412 -0.58043,1.45107c-0.38695,0.38695 -0.87064,0.58043 -1.45107,0.58043h-11.60855c-0.58043,0 -1.06412,-0.19348 -1.45107,-0.58043c-0.29021,-0.38695 -0.58043,-0.87064 -0.58043,-1.45107v-11.60855c0,-0.58043 0.29021,-1.06412 0.58043,-1.45107c0.38695,-0.29021 0.87064,-0.58043 1.45107,-0.58043zM325.80427,172.26097h-11.60855c-0.48369,0 -0.96738,0.29021 -1.35433,0.58043c-0.29021,0.38695 -0.58043,0.87064 -0.58043,1.35433v11.60855c0,0.58043 0.29021,1.06412 0.58043,1.35433c0.38695,0.38695 0.87064,0.58043 1.35433,0.58043h11.60855c0.58043,0 1.06412,-0.19348 1.35433,-0.58043c0.38695,-0.29021 0.58043,-0.7739 0.58043,-1.35433v-11.60855c0,-0.48369 -0.19348,-0.96738 -0.58043,-1.35433c-0.29021,-0.29021 -0.7739,-0.58043 -1.35433,-0.58043z" fill="#fefefe" fill-rule="nonzero"/><path d="M324.74016,176.90439c-0.58043,0 -1.16085,-0.58043 -1.16085,-1.25759c0,-0.58043 0.58043,-1.16085 1.16085,-1.16085c0.67717,0 1.25759,0.58043 1.25759,1.16085c0,0.67717 -0.58043,1.25759 -1.25759,1.25759z" fill="#e63331" fill-rule="nonzero"/><path d="M324.74016,177.00113c-0.67717,0 -1.25759,-0.58043 -1.25759,-1.35433c0,-0.67717 0.58043,-1.25759 1.25759,-1.25759c0.7739,0 1.35433,0.58043 1.35433,1.25759v0.09674c0,0.67717 -0.58043,1.25759 -1.35433,1.25759zM324.74016,174.67942c-0.58043,0 -1.06412,0.38695 -1.06412,0.96738c0,0.58043 0.48369,1.06412 1.06412,1.06412c0.58043,0 1.06412,-0.48369 1.06412,-1.06412c0,-0.58043 -0.48369,-0.96738 -1.06412,-0.96738z" fill="#5a3547" fill-rule="nonzero"/><path d="M323.19235,185.51406c-0.96738,0 -1.83802,-0.38695 -2.41845,-1.06412c0,-0.09674 0,-0.09674 0,-0.19348c0.48369,-0.48369 0.67717,-1.16085 0.67717,-1.74128c0,-0.67717 -0.19348,-1.25759 -0.67717,-1.74128c0,-0.09674 0,-0.19348 0,-0.19348c0.58043,-0.7739 1.45107,-1.16085 2.41845,-1.16085c0.87064,0 1.74128,0.38695 2.32171,1.16085c0.09674,0 0.09674,0.09674 0,0.19348c-0.38695,0.48369 -0.58043,1.06412 -0.58043,1.74128c0,0.58043 0.19348,1.25759 0.58043,1.74128c0.09674,0.09674 0.09674,0.09674 0,0.19348c-0.58043,0.67717 -1.45107,1.06412 -2.32171,1.06412z" fill="#e84743" fill-rule="nonzero"/><path d="M320.96738,180.67717c0.38695,0.48369 0.67717,1.06412 0.67717,1.83802c0,0.67717 -0.29021,1.35433 -0.67717,1.83802c0.48369,0.67717 1.25759,1.06412 2.22497,1.06412c0.87064,0 1.64454,-0.38695 2.22497,-1.06412c-0.38695,-0.48369 -0.67717,-1.16085 -0.67717,-1.83802c0,-0.7739 0.29021,-1.35433 0.67717,-1.83802c-0.58043,-0.67717 -1.35433,-1.06412 -2.22497,-1.06412c-0.96738,0 -1.74128,0.38695 -2.22497,1.06412zM320.67717,184.54668c0,0 -0.09674,-0.09674 -0.09674,-0.19348v0c0,-0.09674 0.09674,-0.09674 0.09674,-0.19348c0.38695,-0.48369 0.58043,-1.06412 0.58043,-1.64454c0,-0.58043 -0.19348,-1.25759 -0.58043,-1.64454c0,-0.09674 -0.09674,-0.19348 -0.09674,-0.19348v-0.09674c0,0 0.09674,-0.09674 0.09674,-0.19348c0.67717,-0.67717 1.54781,-1.16085 2.51518,-1.16085c0.96738,0 1.83802,0.48369 2.41845,1.16085c0.09674,0.19348 0.09674,0.29021 0,0.48369c-0.38695,0.38695 -0.58043,1.06412 -0.58043,1.64454c0,0.58043 0.19348,1.16085 0.58043,1.64454c0.09674,0.09674 0.09674,0.29021 0,0.38695c-0.48369,0.67717 -1.16085,1.06412 -2.0315,1.16085h-0.87064c-0.7739,-0.09674 -1.45107,-0.48369 -2.0315,-1.16085z" fill="#4e4e50" fill-rule="nonzero"/><path d="M323.96625,180.38695c-0.09674,0.48369 -0.48369,0.87064 -0.67717,0.96738c0,0.09674 -0.38695,0.38695 -0.58043,0.7739h0.96738c-0.09674,-0.29021 -0.38695,-0.48369 -0.38695,-0.48369l0.19348,-0.19348c0,0 0.48369,0.38695 0.58043,1.06412c0,0.58043 -0.48369,0.96738 -0.87064,1.35433c-0.19348,0.19348 -0.29021,0.38695 -0.38695,0.48369h0.7739c-0.09674,-0.09674 -0.19348,-0.29021 -0.29021,-0.38695l0.19348,-0.19348c0,0 0.48369,0.48369 0.48369,0.7739c0.09674,0.38695 -0.19348,0.29021 -0.19348,0.09674c0,0 0,-0.09674 -0.09674,-0.09674h-0.96738v0c0,0 0,0.29021 -0.19348,0.29021c-0.19348,0 -0.09674,-0.19348 -0.09674,-0.19348c0.09674,-0.67717 0.58043,-0.87064 0.96738,-1.35433c0.09674,-0.09674 0.19348,-0.19348 0.19348,-0.29021l-0.87064,-0.09674c0.09674,0.29021 0.38695,0.48369 0.38695,0.48369l-0.19348,0.19348c-0.7739,-0.58043 -0.58043,-1.25759 -0.48369,-1.64454c0.19348,-0.38695 0.58043,-0.7739 0.7739,-0.87064c0.09674,-0.09674 0.29021,-0.29021 0.29021,-0.38695h-0.67717c0.09674,0.19348 0.19348,0.29021 0.19348,0.29021l-0.19348,0.19348c-0.38695,-0.38695 -0.48369,-0.7739 -0.48369,-0.7739c0,0 0,-0.19348 0.09674,-0.19348c0.19348,-0.09674 0.19348,0.09674 0.19348,0.09674c0.09674,0.09674 0.09674,0.09674 0.09674,0.19348h0.87064c0.09674,0 0.09674,-0.09674 0.09674,-0.09674c0,0 0,-0.29021 0.19348,-0.29021c0.19348,0 0.09674,0.29021 0.09674,0.29021zM322.70866,182.22497c-0.09674,0.09674 -0.09674,0.19348 -0.09674,0.29021c0,0.09674 0,0.09674 0,0.19348h1.06412c0,-0.09674 0,-0.29021 0,-0.38695z" fill="#4e4e50" fill-rule="nonzero"/><path d="M315.84027,180.38695c0,0 -0.09674,0 -0.09674,-0.09674l-1.54781,-1.54781c-0.09674,0 -0.09674,-0.09674 -0.09674,-0.09674v-3.86952c0,-0.09674 0.09674,-0.09674 0.19348,-0.09674h3.77278c0.09674,0 0.09674,0 0.19348,0l1.54781,1.64454c0,0 0.09674,0 0.09674,0.09674v3.77278c0,0.09674 -0.09674,0.19348 -0.19348,0.19348z" fill="#4bb8a5" fill-rule="nonzero"/><path d="M314.29247,174.77615v3.86952l1.54781,1.54781h3.86952v-3.77278l-1.64454,-1.64454zM319.70979,180.58043h-3.86952v0c-0.09674,0 -0.19348,-0.09674 -0.19348,-0.09674l-1.64454,-1.64454c0,0 -0.09674,-0.09674 -0.09674,-0.19348v-3.86952c0,-0.19348 0.19348,-0.29021 0.38695,-0.29021h3.77278v0c0.09674,0 0.19348,0 0.29021,0.09674l1.54781,1.64454c0.09674,0 0.09674,0.09674 0.09674,0.19348v3.77278c0,0.19348 -0.09674,0.38695 -0.29021,0.38695z" fill="#fefefe" fill-rule="nonzero"/><path d="M317.77503,175.55006c-0.09674,0.38695 -0.58043,0.7739 -0.67717,0.87064c0,0.09674 -0.38695,0.38695 -0.48369,0.67717h0.7739c-0.09674,-0.19348 -0.29021,-0.38695 -0.29021,-0.38695l0.19348,-0.19348c0,0 0.48369,0.38695 0.48369,0.96738c0,0.58043 -0.38695,0.96738 -0.7739,1.35433c-0.19348,0.09674 -0.29021,0.29021 -0.38695,0.38695h0.7739c-0.09674,-0.09674 -0.19348,-0.19348 -0.29021,-0.29021l0.19348,-0.19348c0,0 0.48369,0.38695 0.48369,0.7739c0,0.29021 -0.29021,0.19348 -0.29021,0.09674c0,-0.09674 0,-0.09674 0,-0.19348h-0.87064c-0.09674,0 -0.09674,0 -0.09674,0c0,0 0,0.38695 -0.19348,0.29021c-0.09674,0 -0.09674,-0.19348 -0.09674,-0.19348c0.09674,-0.67717 0.58043,-0.87064 0.96738,-1.25759c0.09674,-0.09674 0.19348,-0.19348 0.19348,-0.29021h-0.87064c0.19348,0.19348 0.38695,0.38695 0.38695,0.38695l-0.19348,0.19348c-0.67717,-0.58043 -0.58043,-1.16085 -0.38695,-1.54781c0.09674,-0.38695 0.48369,-0.67717 0.67717,-0.87064c0.09674,-0.09674 0.19348,-0.19348 0.29021,-0.29021h-0.58043c0.09674,0.09674 0.19348,0.29021 0.19348,0.29021l-0.19348,0.19348c-0.38695,-0.38695 -0.48369,-0.7739 -0.48369,-0.7739c0,0 -0.09674,-0.19348 0.09674,-0.19348c0.09674,-0.09674 0.19348,0.09674 0.19348,0.09674c0,0 0,0.09674 0.09674,0.19348h0.7739c0.09674,-0.09674 0.09674,-0.09674 0.09674,-0.09674c0,0 0,-0.29021 0.19348,-0.29021c0.09674,0 0.09674,0.29021 0.09674,0.29021zM316.51744,177.29134c0,0.09674 0,0.09674 0,0.19348c0,0.09674 0,0.19348 0,0.29021h0.96738c0,-0.19348 0,-0.38695 0,-0.48369z" fill="#fefefe" fill-rule="nonzero"/></g></g></g></svg>