<svg version="1.1" xmlns="http://www.w3.org/2000/svg" xmlns:xlink="http://www.w3.org/1999/xlink" width="349.45217" height="132.89025" viewBox="0,0,349.45217,132.89025"><g transform="translate(-145.27391,-113.55487)"><g data-paper-data="{&quot;isPaintingLayer&quot;:true}" stroke="none" stroke-linecap="butt" stroke-linejoin="miter" stroke-miterlimit="10" stroke-dasharray="" stroke-dashoffset="0" style="mix-blend-mode: normal"><path d="M170.68861,246.44512c-14.03615,0 -25.4147,-11.44173 -25.4147,-25.55582v-81.77861c0,-14.11409 11.37855,-25.55582 25.4147,-25.55582h298.62277c14.03615,0 25.4147,11.44173 25.4147,25.55582v81.77861c0,14.11409 -11.37855,25.55582 -25.4147,25.55582z" fill="#369cf0" fill-rule="evenodd" stroke-width="0"/><path d="M210.74379,223.10636c-0.36108,-0.36072 -0.36108,-0.36072 -0.36108,-0.72145c0,-0.36072 0,-0.72145 0,-0.72145c0,-0.36072 0,-0.72145 0,-1.08217c0,-0.36072 0,-0.36072 0,-0.72145c0,-0.36072 0.36108,-0.72145 0.72217,-1.08217c0.36108,-0.36072 0.72217,-0.72145 1.44434,-1.44289c0.36108,-0.36072 1.08325,-1.08217 1.80542,-1.44289c0.36108,-0.72145 1.08325,-1.44289 1.80542,-2.16434c0.36108,-0.36072 1.08325,-1.08217 1.44434,-1.80361c0.36108,-0.72145 0.36108,-1.08217 0.36108,-1.80361c0,-0.72145 0,-1.44289 -0.36108,-1.44289c0,-0.36072 -0.36108,-0.36072 -1.08325,-0.36072c0,0 -0.36108,0 -0.72217,0.36072c-0.36108,0.36072 -0.36108,0.72145 -0.36108,1.44289h-0.36108c-0.36108,0 -0.72217,0 -1.44434,0c-0.36108,-0.36072 -1.08325,-0.36072 -1.44434,-0.36072c-0.36108,0 -1.08325,-0.36072 -1.44434,-0.36072c-0.36108,0 -0.36108,-0.36072 -0.36108,-0.36072c0,-0.72145 0,-1.44289 0.36108,-2.16434c0.36108,-0.72145 0.72217,-1.08217 1.44434,-1.80361c0.36108,-0.36072 1.08325,-1.08217 1.80542,-1.44289c0.72217,0 1.80542,-0.36072 2.52759,-0.36072c1.44434,0 2.52759,0.36072 3.24976,0.72145c0.72217,0.36072 1.44434,0.72145 2.1665,1.44289c0,0 0,0 0,0.36072c-0.36108,0 -0.36108,0.36072 -0.36108,0.36072c0,0.36072 0,0.36072 0,0.72145c-0.36108,0 -0.36108,0 0,0c0,0.36072 0,0.36072 0,0.36072l0.36108,-0.36072c0.36108,0 0.36108,0 0.36108,0c0.36108,0 0.36108,0 0.36108,0c0.36108,1.08217 0.36108,2.16434 0.36108,3.2465c0,1.08217 0,1.80361 -0.36108,2.88578c-0.36108,0.72145 -0.72217,1.44289 -1.08325,2.16434c-0.36108,0.72145 -1.08325,1.44289 -1.44434,2.16434c-0.72217,0.72145 -1.08325,1.08217 -1.80542,1.44289c1.08325,0 2.1665,0 2.88867,0c1.08325,0 1.80542,0 2.52759,0c0,0.36072 0,0.72145 0,1.08217c0,0.36072 0,0.72145 0,1.08217c0,0.36072 0,0.72145 0,1.08217c0,0.36072 0,0.72145 0,1.08217c-0.36108,0 -1.08325,0 -1.80542,0c-0.72217,0 -1.80542,0 -2.52759,0c-0.72217,0 -1.80542,0 -2.52759,0c-0.72217,0 -1.44434,0 -1.80542,0v0v0v0c0,-0.36072 0,-0.36072 0,-0.72145c-0.36108,0 -0.36108,-0.36072 -0.36108,-0.36072h-0.36108v0c-0.36108,0 -0.36108,0.36072 -0.72217,0.36072c0,0.36072 0,0.36072 -0.36108,0.72145v0c-0.36108,0 -0.36108,0 -0.72217,0c-0.36108,0 -0.72217,0 -0.72217,0c-0.36108,0 -0.72217,0 -0.72217,0c-0.36108,0 -0.36108,0 -0.36108,0z" fill="#ffffff" fill-rule="nonzero" stroke-width="1"/><path d="M195.2162,173.32662c0,5.41084 1.08325,6.13229 2.52759,7.57518l0.36108,0.36072c1.08325,0.72145 1.44434,1.80361 1.44434,2.88578c-0.36108,1.08217 -1.08325,2.16434 -1.80542,2.52506c-2.52759,1.08217 -3.97192,2.88578 -3.97192,4.68939l0.36108,5.41084h19.49853v-5.41084c0,-1.80361 -1.44434,-3.60723 -3.61084,-4.68939c-1.08325,-0.36072 -1.80542,-1.44289 -1.80542,-2.52506c-0.36108,-1.08217 0.36108,-2.16434 1.08325,-2.88578c1.80542,-1.44289 2.88867,-2.52506 2.88867,-7.9359c0,-3.2465 -3.97192,-6.13229 -8.30493,-6.13229c-4.69409,0 -8.66601,2.88578 -8.66601,6.13229zM215.79798,173.32662c0,6.85373 -2.1665,8.65734 -4.33301,10.46096c3.24976,1.44289 5.41626,4.32867 5.41626,7.57518v8.65734h-25.99804l-0.36108,-8.65734c0,-3.2465 2.1665,-6.13229 5.77734,-7.57518c-2.1665,-1.80361 -4.33301,-2.52506 -4.33301,-10.46096c0,-5.05012 5.77734,-9.37879 11.91577,-9.37879c6.13843,0 11.91577,4.32867 11.91577,9.37879z" fill="#ffffff" fill-rule="nonzero" stroke-width="1"/><path d="M216.88123,200.74154h-25.99804c-0.36108,0 -0.72217,-0.36072 -0.72217,-0.72145l-0.36108,-8.65734v-0.36072c0,-2.88578 1.80542,-5.41084 5.05517,-7.21445c-2.1665,-1.80361 -3.61084,-3.60723 -3.61084,-10.46096c0,-5.41084 5.77734,-10.10023 12.63794,-10.10023c6.49951,0 12.63794,4.68939 12.63794,10.10023c0,6.49301 -1.80542,8.65734 -3.97192,10.46096c3.24976,1.80361 5.05517,4.32867 5.05517,7.57518v8.65734c0,0.36072 -0.36108,0.72145 -0.72217,0.72145zM191.60536,199.29866h24.5537v-7.9359c0,-2.88578 -1.80542,-5.41084 -5.05517,-6.85373c-0.36108,-0.36072 -0.36108,-0.36072 -0.36108,-0.72145c-0.36108,-0.36072 0,-0.36072 0,-0.72145c2.1665,-1.44289 3.97192,-2.88578 3.97192,-9.73951c0,-4.68939 -5.05517,-8.65734 -10.83252,-8.65734c-6.13843,0 -11.1936,3.96795 -11.1936,8.65734c0,6.85373 1.44434,7.9359 3.61084,9.37879c0,0.36072 0,0.36072 0.36108,0.36072c0,0.36072 0.36108,0.36072 0.36108,0.72145c0,0.36072 -0.36108,0.36072 -0.36108,0.72145c-3.24976,1.44289 -5.41626,3.96795 -5.41626,6.85373z" fill="#ffffff" fill-rule="nonzero" stroke-width="1"/><path d="M221.21424,173.32662c0,5.41084 1.08325,6.13229 2.52759,7.57518l0.36108,0.36072c1.08325,0.72145 1.44434,1.80361 1.44434,2.88578c-0.36108,1.08217 -1.08325,2.16434 -1.80542,2.52506c-2.52759,1.08217 -3.97192,2.88578 -3.97192,4.68939l0.36108,5.41084h19.49853v-5.41084c0,-1.80361 -1.44434,-3.60723 -3.61084,-4.68939c-1.08325,-0.36072 -1.80542,-1.44289 -1.80542,-2.52506c-0.36108,-1.08217 0.36108,-2.16434 1.08325,-2.88578c1.80542,-1.44289 2.88867,-2.52506 2.88867,-7.9359c0,-3.2465 -3.97192,-6.13229 -8.30493,-6.13229c-4.69409,0 -8.66601,2.88578 -8.66601,6.13229zM241.79602,173.32662c0,6.85373 -2.1665,8.65734 -4.33301,10.46096c3.24976,1.44289 5.41626,4.32867 5.41626,7.57518v8.65734h-25.99804l-0.36108,-8.65734c0,-3.2465 2.1665,-6.13229 5.77734,-7.57518c-2.1665,-1.80361 -4.33301,-2.52506 -4.33301,-10.46096c0,-5.05012 5.77734,-9.37879 11.91577,-9.37879c6.13843,0 11.91577,4.32867 11.91577,9.37879z" fill="#ffffff" fill-rule="nonzero" stroke-width="1"/><path d="M242.87927,200.74154h-25.99804c-0.36108,0 -0.72217,-0.36072 -0.72217,-0.72145l-0.36108,-8.65734c0,-3.2465 1.80542,-5.77156 5.05517,-7.57518c-2.1665,-1.80361 -3.61084,-3.60723 -3.61084,-10.46096c0,-5.41084 5.77734,-10.10023 12.63794,-10.10023c6.49951,0 12.63794,4.68939 12.63794,10.10023c0,6.49301 -1.80542,8.65734 -3.97192,10.46096c3.24976,1.80361 5.05517,4.32867 5.05517,7.57518v8.65734c0,0.36072 -0.36108,0.72145 -0.72217,0.72145zM217.6034,199.29866h24.5537v-7.9359c0,-2.88578 -1.80542,-5.41084 -5.05517,-6.85373c-0.36108,-0.36072 -0.36108,-0.36072 -0.36108,-0.72145c-0.36108,-0.36072 0,-0.36072 0,-0.72145c2.1665,-1.44289 3.97192,-2.88578 3.97192,-9.73951c0,-4.68939 -5.05517,-8.65734 -10.83252,-8.65734c-6.13843,0 -11.1936,3.96795 -11.1936,8.65734c0,6.85373 1.44434,7.9359 3.61084,9.37879c0,0.36072 0,0.36072 0.36108,0.36072c0,0.36072 0.36108,0.36072 0.36108,0.72145c0,0.36072 -0.36108,0.36072 -0.36108,0.72145c-3.24976,1.44289 -5.41626,3.96795 -5.41626,6.85373z" fill="#ffffff" fill-rule="nonzero" stroke-width="1"/><text transform="translate(263.2013,195.26874) scale(1.15005,1.15005)" font-size="40" xml:space="preserve" fill="#ffffff" fill-rule="nonzero" stroke="none" stroke-width="1" stroke-linecap="butt" stroke-linejoin="miter" stroke-miterlimit="10" stroke-dasharray="" stroke-dashoffset="0" font-family="Sans Serif" font-weight="normal" text-anchor="start" style="mix-blend-mode: normal"><tspan x="0" dy="0">PLAYERS</tspan></text></g></g></svg>