<svg version="1.1" xmlns="http://www.w3.org/2000/svg" xmlns:xlink="http://www.w3.org/1999/xlink" width="19.1541" height="19.1541" viewBox="0,0,19.1541,19.1541"><g transform="translate(-310.42295,-170.42295)"><g data-paper-data="{&quot;isPaintingLayer&quot;:true}" stroke="none" stroke-width="1" stroke-linecap="butt" stroke-linejoin="miter" stroke-miterlimit="10" stroke-dasharray="" stroke-dashoffset="0" style="mix-blend-mode: normal"><path d="M314.1411,187.77431c-1.05785,0 -1.91541,-0.85756 -1.91541,-1.91541v-11.7178c0,-1.05785 0.85756,-1.91541 1.91541,-1.91541h11.7178c1.05785,0 1.91541,0.85756 1.91541,1.91541v11.7178c0,1.05785 -0.85756,1.91541 -1.91541,1.91541z" fill="#fefefe" fill-rule="evenodd"/><path d="M314.1411,170.42295h11.7178c1.01404,0 1.91541,0.45068 2.59144,1.12671v0c0.67602,0.67603 1.12671,1.5774 1.12671,2.59144v11.7178c0,1.01404 -0.45069,1.91541 -1.12671,2.59144v0c-0.67602,0.67603 -1.5774,1.12671 -2.59144,1.12671h-11.7178c-1.01404,0 -1.91541,-0.45068 -2.59144,-1.12671v0c-0.67602,-0.67603 -1.12671,-1.5774 -1.12671,-2.59144v-11.7178c0,-1.01404 0.45069,-1.91541 1.12671,-2.59144v0c0.67602,-0.67603 1.5774,-1.12671 2.59144,-1.12671zM314.1411,172.22569h11.7178c1.01404,0 1.91541,0.90137 1.91541,1.91541v11.7178c0,1.01404 -0.90137,1.91541 -1.91541,1.91541h-11.7178c-1.01404,0 -1.91541,-0.90137 -1.91541,-1.91541v-11.7178c0,-1.01404 0.90137,-1.91541 1.91541,-1.91541z" fill="#ef7f1a" fill-rule="evenodd"/><path d="M314.1411,170.42295h11.7178c0.45069,0 1.01404,0.11268 1.46472,0.33802c0.45069,0.11267 0.7887,0.45068 1.12671,0.78869h0.11267c0.33801,0.33802 0.56336,0.7887 0.7887,1.23938c0.11267,0.45068 0.22534,0.90137 0.22534,1.35206v11.7178c0,0.45068 -0.11267,1.01404 -0.22534,1.46472c-0.22534,0.45068 -0.45069,0.7887 -0.7887,1.12672l-0.11267,0.11267c-0.33801,0.33802 -0.67603,0.56336 -1.12671,0.7887c-0.45069,0.11267 -1.01404,0.22534 -1.46472,0.22534h-11.7178c-0.45069,0 -0.90137,-0.11267 -1.35206,-0.22534c-0.45069,-0.22534 -0.90137,-0.45068 -1.23938,-0.7887v-0.11267c-0.33801,-0.33802 -0.67603,-0.67603 -0.7887,-1.12672c-0.22534,-0.45068 -0.33801,-1.01404 -0.33801,-1.46472v-11.7178c0,-0.45068 0.11267,-0.90137 0.33801,-1.35206c0.11267,-0.45068 0.45068,-0.90137 0.7887,-1.23938v0c0.33801,-0.33802 0.7887,-0.67602 1.23938,-0.78869c0.45069,-0.22534 0.90137,-0.33802 1.35206,-0.33802zM325.8589,170.53562h-11.7178c-0.45069,0 -0.90137,0.11267 -1.35206,0.22535c-0.45069,0.22534 -0.7887,0.45068 -1.12671,0.78869l-0.11267,0.11268c-0.33801,0.33802 -0.56336,0.67602 -0.7887,1.12671c-0.11267,0.45068 -0.22535,0.90137 -0.22535,1.35206v11.7178c0,0.45068 0.11268,0.90137 0.22535,1.35206c0.22534,0.45068 0.45068,0.90137 0.7887,1.23938h0.11267c0.33801,0.33802 0.67602,0.56336 1.12671,0.78869c0.45069,0.22534 0.90137,0.22535 1.35206,0.22535h11.7178c0.45069,0 0.90137,-0.00001 1.35206,-0.22535c0.45069,-0.22534 0.90137,-0.45068 1.23938,-0.78869v0c0.33801,-0.33802 0.56336,-0.7887 0.7887,-1.23938c0.22534,-0.45068 0.22535,-0.90137 0.22535,-1.35206v-11.7178c0,-0.45068 0,-0.90137 -0.22535,-1.35206c-0.22534,-0.45068 -0.45068,-0.78869 -0.7887,-1.12671v-0.11268c-0.33801,-0.33802 -0.7887,-0.56336 -1.23938,-0.78869c-0.45069,-0.11267 -0.90137,-0.22535 -1.35206,-0.22535zM314.1411,172.22569h11.7178c0.56336,0 1.01404,0.22534 1.35206,0.56336c0.45069,0.33802 0.67602,0.90137 0.67602,1.35206v11.7178c0,0.56336 -0.22534,1.01404 -0.67602,1.35206c-0.33801,0.45068 -0.7887,0.67602 -1.35206,0.67602h-11.7178c-0.45069,0 -1.01404,-0.22534 -1.35206,-0.67602c-0.33801,-0.33802 -0.56336,-0.7887 -0.56336,-1.35206v-11.7178c0,-0.45068 0.22534,-1.01404 0.56336,-1.35206c0.33801,-0.33802 0.90137,-0.56336 1.35206,-0.56336zM325.8589,172.33836h-11.7178c-0.45069,0 -0.90137,0.11267 -1.23938,0.56336c-0.45069,0.33802 -0.56336,0.7887 -0.56336,1.23938v11.7178c0,0.56336 0.11267,1.01404 0.56336,1.35206c0.33801,0.33802 0.7887,0.56336 1.23938,0.56336h11.7178c0.56336,0 1.01404,-0.22534 1.35206,-0.56336c0.33801,-0.33802 0.56336,-0.7887 0.56336,-1.35206v-11.7178c0,-0.45068 -0.22534,-0.90137 -0.56336,-1.23938c-0.33801,-0.45068 -0.7887,-0.56336 -1.35206,-0.56336z" fill="#fefefe" fill-rule="nonzero"/><g fill-rule="nonzero"><path d="M324.66177,183.83082l0.33801,0.67603l-2.14075,1.01405l-2.25342,-1.01405l0.33801,-0.67603l-1.01405,-1.23938l1.12671,-1.12671l-0.45068,-0.67602l2.25342,-1.12672l2.14075,1.12672c0,0 -0.22535,0.45068 -0.33801,0.67602l1.01404,1.12671z" fill="#00abe8"/><path d="M320.60561,180.7887l0.45068,0.67602l-1.12671,1.12671l1.01405,1.23938l-0.33801,0.67603l2.25342,1.01405l2.14075,-1.01405l-0.33801,-0.67603l1.01404,-1.23938l-1.01404,-1.12671c0.11267,-0.22534 0.33801,-0.67602 0.33801,-0.67602l-2.14075,-1.12672zM322.9717,179.43665l2.25342,1.01404c0,0.11267 0.11267,0.11267 0.11267,0.22534c0,0.11267 0,0.22534 0,0.22534c-0.11267,0.11267 -0.22535,0.33802 -0.33802,0.45069c0.11267,0.11267 0.22535,0.22535 0.45069,0.45068c0.22534,0.33802 0.45069,0.56336 0.45069,0.56336c0.11267,0.11267 0.11267,0.11267 0.11267,0.22534v0c0,0.11267 0,0.11267 -0.11267,0.22535l-0.90137,1.01404l0.33802,0.45069c0,0.11267 0,0.22534 0,0.22534c0,0.11267 -0.11267,0.22535 -0.11267,0.22535l-2.25342,1.01404c-0.11267,0 -0.11267,0.11267 -0.11267,0.11267v0v0v0v0v0v0c-0.11267,0 -0.11268,-0.11267 -0.22535,-0.11267l-2.14075,-1.01404c-0.11267,0 -0.22535,-0.11267 -0.22535,-0.22535c0,0 0,-0.11267 0,-0.22534l0.33802,-0.45069l-0.90137,-1.01404c-0.11267,-0.11267 -0.11267,-0.33801 0,-0.45068l0.90137,-1.01404l-0.33802,-0.45069c0,-0.11267 0,-0.11267 0,-0.22534c0,-0.11267 0.11268,-0.22534 0.22535,-0.22534l2.14075,-1.01404c0.11267,0 0.11268,0 0.22535,0c0,0 0,0 0.11267,0z" fill="#4e4e50"/><path d="M323.64773,180.45069c-0.11267,0.56336 -0.56336,0.90137 -0.67603,1.01404c-0.11267,0 -0.45069,0.33801 -0.56336,0.67603l0.90137,0.11267c-0.11267,-0.22534 -0.33801,-0.45068 -0.33801,-0.45068l0.22534,-0.22535c0,0 0.45069,0.33801 0.45069,1.01404c0,0.56336 -0.45068,1.01404 -0.7887,1.35206c-0.22534,0.22534 -0.33802,0.33801 -0.45069,0.45068l0.7887,0.11267c0,-0.22534 -0.11267,-0.33801 -0.22534,-0.45068l0.22534,-0.11267c0,0 0.45069,0.33802 0.45069,0.7887c0,0.33802 -0.22534,0.22534 -0.22534,0c0,0 0,0 -0.11267,-0.11267h-0.90137v0c0,0 -0.11268,0.33801 -0.22535,0.33801c-0.22534,0 -0.11267,-0.22534 -0.11267,-0.22534c0.11267,-0.67603 0.56336,-0.90137 0.90137,-1.35206c0.11267,-0.11267 0.22534,-0.22534 0.22534,-0.33801h-0.7887c0.11267,0.22534 0.33801,0.45068 0.33801,0.45068l-0.22534,0.22535c-0.7887,-0.67603 -0.56336,-1.23939 -0.45069,-1.69007c0.22534,-0.33802 0.56336,-0.67603 0.7887,-0.90137c0.11267,-0.11267 0.22534,-0.22534 0.33801,-0.33801h-0.67602c0.11267,0.22534 0.11267,0.33801 0.11267,0.33801l-0.11267,0.11267c-0.45069,-0.33802 -0.56336,-0.67603 -0.56336,-0.67603c0,0 0,-0.22535 0.11267,-0.33802c0.22534,0 0.22534,0.22535 0.22534,0.22535c0,0 0,0.11267 0.11267,0.22534h0.90137c0,-0.11267 0,-0.22534 0,-0.22534c0,0 0,-0.22535 0.22534,-0.22535c0.11267,0 0.11267,0.22535 0.11267,0.22535zM322.29567,182.3661c0,0.11267 0,0.11267 0,0.22534c0,0.11267 0,0.22535 0,0.22535h1.01404c0,-0.11267 0,-0.33801 0,-0.45068z" fill="#4e4e50"/></g><g fill-rule="nonzero"><path d="M315.64503,180.11267c0,0 0,0 -0.11267,0l-1.5774,-1.57739c0,-0.11267 0,-0.11267 0,-0.11267v-2.25342c0,-0.11267 0,-0.11267 0,-0.11267l1.5774,-1.5774c0.11267,-0.11267 0.11267,-0.11267 0.11267,-0.11267h2.25342c0.11267,0 0.11267,0 0.11267,0.11267l1.69007,1.5774c0,0 0,0 0,0.11267v2.25342c0,0 0,0 0,0.11267l-1.69007,1.57739c0,0 0,0 -0.11267,0z" fill="#ed7f32"/><path d="M315.64503,174.47911l-1.5774,1.69007v2.25342l1.5774,1.57739h2.25342l1.69007,-1.57739v-2.25342l-1.69007,-1.69007zM319.70119,178.64795l-1.5774,1.57739c0,0 -0.11268,0.11268 -0.22535,0.11268v0h-2.25342v0c0,0 -0.11268,-0.11268 -0.22535,-0.11268l-1.57739,-1.57739c0,-0.11267 -0.11267,-0.11267 -0.11267,-0.22534v-2.25342c0,-0.11267 0.11267,-0.22534 0.11267,-0.22534l1.57739,-1.5774c0.11267,-0.11267 0.22535,-0.11267 0.22535,-0.11267v0h2.25342v0c0.11267,0 0.22535,0 0.22535,0.11267l1.5774,1.5774c0.11267,0 0.11267,0.11267 0.11267,0.11267v2.3661c0,0.11267 0,0.11267 -0.11267,0.22534z" fill="#fefefe"/><path d="M317.56044,175.26781c-0.11267,0.45068 -0.45069,0.7887 -0.56336,0.90137c-0.11267,0.11267 -0.45069,0.33801 -0.56336,0.67602h0.7887c-0.11267,-0.11267 -0.33802,-0.33801 -0.33802,-0.33801l0.22535,-0.22535c0,0 0.45069,0.33802 0.56336,1.01404c0,0.56336 -0.45069,0.90137 -0.7887,1.23938c-0.22534,0.22534 -0.33801,0.33801 -0.45068,0.45068h0.7887c-0.11267,-0.11267 -0.22535,-0.22535 -0.22535,-0.33802l0.11267,-0.11267c0,0 0.45069,0.33801 0.45069,0.67602c0.11267,0.33802 -0.22535,0.33801 -0.22535,0.11267v-0.11267h-0.90137v0c0,0 -0.11267,0.33802 -0.22534,0.33802c-0.22534,0 -0.11267,-0.22534 -0.11267,-0.22534c0.11267,-0.67603 0.56336,-0.90137 0.90137,-1.23938c0.11267,-0.11267 0.22535,-0.22534 0.22535,-0.33801l-0.7887,-0.11267c0.11267,0.33802 0.22535,0.45068 0.22535,0.45068l-0.11268,0.22534c-0.67602,-0.56336 -0.56335,-1.23938 -0.45068,-1.57739c0.22534,-0.33802 0.56336,-0.67603 0.7887,-0.7887c0.11267,-0.11267 0.22535,-0.22534 0.22535,-0.33801l-0.67603,-0.11267c0.11267,0.22534 0.22535,0.33801 0.22535,0.33801l-0.22535,0.22535c-0.33801,-0.45068 -0.45069,-0.7887 -0.45069,-0.7887c0,0 0,-0.11267 0.11267,-0.22534c0.22534,0 0.22534,0.11267 0.22534,0.11267c0,0.11267 0,0.11267 0.11267,0.22534h0.7887c0,-0.11267 0.11267,-0.11267 0.11267,-0.11267c0,0 0,-0.33801 0.22535,-0.22534c0.11267,0 0,0.22534 0,0.22534zM316.32106,177.07055c0,0 0,0.11267 0,0.22534c0,0 0,0.11267 0,0.22534h1.01404c0,-0.22534 0,-0.33801 0,-0.45068z" fill="#fefefe"/></g></g></g></svg>