<svg version="1.1" xmlns="http://www.w3.org/2000/svg" xmlns:xlink="http://www.w3.org/1999/xlink" width="19.1541" height="19.1541" viewBox="0,0,19.1541,19.1541"><g transform="translate(-310.42295,-170.42295)"><g data-paper-data="{&quot;isPaintingLayer&quot;:true}" stroke="none" stroke-width="1" stroke-linecap="butt" stroke-linejoin="miter" stroke-miterlimit="10" stroke-dasharray="" stroke-dashoffset="0" style="mix-blend-mode: normal"><g><path d="M314.17559,187.70073c-1.07944,0 -1.9545,-0.87506 -1.9545,-1.9545v-11.57064c0,-1.07944 0.87506,-1.9545 1.9545,-1.9545h11.57064c1.07944,0 1.9545,0.87506 1.9545,1.9545v11.57064c0,1.07944 -0.87506,1.9545 -1.9545,1.9545z" fill="#fefefe" fill-rule="evenodd"/><path d="M314.17559,170.50113h11.57064c1.01634,0 1.9545,0.3909 2.65812,1.09452v0c0.70362,0.62544 1.09452,1.5636 1.09452,2.57994v11.57064c0,1.01634 -0.3909,1.9545 -1.09452,2.65812v0c-0.70362,0.70362 -1.64178,1.09452 -2.65812,1.09452h-11.57064c-1.01634,0 -1.9545,-0.3909 -2.57994,-1.09452v0c-0.70362,-0.70362 -1.09452,-1.64178 -1.09452,-2.65812v-11.57064c0,-1.01634 0.3909,-1.9545 1.09452,-2.57994v0c0.62544,-0.70362 1.5636,-1.09452 2.57994,-1.09452zM314.17559,172.22109h11.57064c1.09452,0 1.9545,0.85998 1.9545,1.9545v11.57064c0,1.09452 -0.85998,1.9545 -1.9545,1.9545h-11.57064c-1.09452,0 -1.9545,-0.85998 -1.9545,-1.9545v-11.57064c0,-1.09452 0.85998,-1.9545 1.9545,-1.9545z" fill="#ef7f1a" fill-rule="evenodd"/><path d="M314.17559,170.42295h11.57064c0.54726,0 1.01634,0.07818 1.48542,0.31272c0.46908,0.15636 0.85998,0.46908 1.1727,0.7818v0c0.3909,0.3909 0.62544,0.7818 0.85998,1.25088c0.15636,0.3909 0.31272,0.93816 0.31272,1.40724v11.57064c0,0.54726 -0.15636,1.01634 -0.31272,1.48542c-0.23454,0.46908 -0.46908,0.85998 -0.85998,1.1727v0c-0.31272,0.3909 -0.70362,0.62544 -1.1727,0.85998c-0.46908,0.15636 -0.93816,0.31272 -1.48542,0.31272h-11.57064c-0.46908,0 -1.01634,-0.15636 -1.40724,-0.31272c-0.46908,-0.23454 -0.85998,-0.46908 -1.25088,-0.85998v0c-0.31272,-0.31272 -0.62544,-0.70362 -0.7818,-1.1727c-0.23454,-0.46908 -0.31272,-0.93816 -0.31272,-1.48542v-11.57064c0,-0.46908 0.07818,-1.01634 0.31272,-1.40724c0.15636,-0.46908 0.46908,-0.85998 0.7818,-1.25088v0c0.3909,-0.31272 0.7818,-0.62544 1.25088,-0.7818c0.3909,-0.23454 0.93816,-0.31272 1.40724,-0.31272zM325.74623,170.50113h-11.57064c-0.46908,0 -0.93816,0.15636 -1.40724,0.31272c-0.3909,0.15636 -0.85998,0.46908 -1.1727,0.7818v0c-0.31272,0.31272 -0.62544,0.7818 -0.7818,1.1727c-0.15636,0.46908 -0.31272,0.93816 -0.31272,1.40724v11.57064c0,0.54726 0.15636,1.01634 0.31272,1.40724c0.15636,0.46908 0.46908,0.85998 0.7818,1.1727v0.07818c0.31272,0.31272 0.7818,0.54726 1.1727,0.7818c0.46908,0.15636 0.93816,0.23454 1.40724,0.23454h11.57064c0.54726,0 1.01634,-0.07818 1.40724,-0.23454c0.46908,-0.23454 0.85998,-0.46908 1.1727,-0.7818l0.07818,-0.07818c0.31272,-0.31272 0.54726,-0.70362 0.7818,-1.1727c0.15636,-0.3909 0.23454,-0.85998 0.23454,-1.40724v-11.57064c0,-0.46908 -0.07818,-0.93816 -0.23454,-1.40724c-0.23454,-0.3909 -0.46908,-0.85998 -0.7818,-1.1727h-0.07818c-0.31272,-0.31272 -0.70362,-0.62544 -1.1727,-0.7818c-0.3909,-0.15636 -0.85998,-0.31272 -1.40724,-0.31272zM314.17559,172.22109h11.57064c0.62544,0 1.09452,0.15636 1.48542,0.54726c0.31272,0.3909 0.54726,0.85998 0.54726,1.40724v11.57064c0,0.54726 -0.23454,1.09452 -0.54726,1.48542c-0.3909,0.31272 -0.85998,0.54726 -1.48542,0.54726h-11.57064c-0.54726,0 -1.01634,-0.23454 -1.40724,-0.54726c-0.3909,-0.3909 -0.54726,-0.93816 -0.54726,-1.48542v-11.57064c0,-0.54726 0.15636,-1.01634 0.54726,-1.40724c0.3909,-0.3909 0.85998,-0.54726 1.40724,-0.54726zM325.74623,172.29927h-11.57064c-0.54726,0 -1.01634,0.23454 -1.32906,0.54726c-0.31272,0.31272 -0.54726,0.7818 -0.54726,1.32906v11.57064c0,0.54726 0.23454,1.01634 0.54726,1.40724c0.31272,0.31272 0.7818,0.54726 1.32906,0.54726h11.57064c0.54726,0 1.01634,-0.23454 1.40724,-0.54726c0.31272,-0.3909 0.54726,-0.85998 0.54726,-1.40724v-11.57064c0,-0.54726 -0.23454,-1.01634 -0.54726,-1.32906c-0.3909,-0.31272 -0.85998,-0.54726 -1.40724,-0.54726z" fill="#fefefe" fill-rule="nonzero"/><path d="M322.93175,176.59917c-0.62544,0 -1.1727,-0.54726 -1.1727,-1.1727c0,-0.70362 0.54726,-1.25088 1.1727,-1.25088c0.70362,0 1.1727,0.54726 1.1727,1.25088c0,0.62544 -0.46908,1.1727 -1.1727,1.1727z" fill="#e63331" fill-rule="nonzero"/><path d="M322.93175,176.67735c-0.70362,0 -1.32906,-0.54726 -1.32906,-1.25088c0,-0.7818 0.62544,-1.32906 1.32906,-1.32906c0.70362,0 1.32906,0.54726 1.32906,1.25088v0.07818c0,0.70362 -0.62544,1.25088 -1.32906,1.25088zM322.93175,174.33195c-0.54726,0 -1.01634,0.46908 -1.01634,1.09452c0,0.54726 0.46908,1.01634 1.01634,1.01634c0.62544,0 1.09452,-0.46908 1.09452,-1.01634c0,-0.62544 -0.46908,-1.09452 -1.09452,-1.09452z" fill="#5a3547" fill-rule="nonzero"/><path d="M324.72989,178.55367c-0.70362,0 -1.1727,-0.54726 -1.1727,-1.1727c0,-0.70362 0.46908,-1.25088 1.1727,-1.25088c0.62544,0 1.1727,0.54726 1.1727,1.25088c0,0.62544 -0.54726,1.1727 -1.1727,1.1727z" fill="#e63331" fill-rule="nonzero"/><path d="M324.72989,178.63185c-0.7818,0 -1.32906,-0.54726 -1.32906,-1.25088c0,-0.7818 0.54726,-1.32906 1.32906,-1.32906c0.70362,0 1.25088,0.54726 1.32906,1.25088v0.07818c-0.07818,0.70362 -0.62544,1.25088 -1.32906,1.25088zM324.72989,176.28645c-0.62544,0 -1.09452,0.46908 -1.09452,1.09452c0,0.54726 0.46908,1.01634 1.09452,1.01634c0.54726,0 1.01634,-0.46908 1.01634,-1.01634c0,-0.62544 -0.46908,-1.09452 -1.01634,-1.09452z" fill="#5a3547" fill-rule="nonzero"/><path d="M317.14643,180.97725c-0.46908,0 -0.93816,-0.3909 -1.25088,-1.01634c-0.15636,0.07818 -0.3909,0.23454 -0.46908,0.31272c-0.07818,0 -0.07818,0 -0.15636,0h-0.07818c-0.70362,-0.54726 -1.09452,-1.40724 -1.09452,-2.3454c0,-0.85998 0.3909,-1.71996 1.09452,-2.3454h0.07818c0.07818,0 0.07818,0 0.15636,0c0.07818,0.15636 0.31272,0.23454 0.46908,0.31272c0.31272,-0.62544 0.7818,-1.01634 1.25088,-1.01634c0.46908,0 0.93816,0.3909 1.25088,1.01634c0.15636,-0.07818 0.31272,-0.15636 0.46908,-0.31272h0.07818c0.07818,0 0.07818,0 0.15636,0c0.62544,0.62544 1.01634,1.48542 1.01634,2.3454c0,0.93816 -0.3909,1.79814 -1.01634,2.3454c-0.07818,0 -0.07818,0 -0.15636,0h-0.07818c-0.15636,-0.07818 -0.31272,-0.23454 -0.46908,-0.31272c-0.31272,0.62544 -0.7818,1.01634 -1.25088,1.01634z" fill="#4e4e50" fill-rule="nonzero"/><path d="M315.97373,176.13009v0c-0.07818,0 -0.46908,-0.23454 -0.70362,-0.3909c-0.62544,0.54726 -1.01634,1.32906 -1.01634,2.18904c0,0.85998 0.3909,1.71996 1.01634,2.18904c0.23454,-0.15636 0.62544,-0.31272 0.70362,-0.31272v0c0.23454,0.62544 0.70362,1.01634 1.1727,1.01634c0.46908,0 0.85998,-0.3909 1.1727,-1.01634v0c0,0 0.46908,0.15636 0.62544,0.31272c0.62544,-0.46908 1.01634,-1.32906 1.01634,-2.18904c0,-0.85998 -0.3909,-1.64178 -1.01634,-2.18904c-0.15636,0.15636 -0.62544,0.3909 -0.62544,0.3909v0c-0.31272,-0.62544 -0.70362,-1.09452 -1.1727,-1.09452c-0.46908,0 -0.93816,0.46908 -1.1727,1.09452zM318.47549,175.66101c0.07818,-0.07818 0.23454,-0.07818 0.31272,-0.15636c0,-0.07818 0.07818,-0.07818 0.15636,-0.07818c0.07818,0 0.15636,0 0.23454,0.07818c0.70362,0.62544 1.1727,1.48542 1.1727,2.42358c0,0.93816 -0.46908,1.87632 -1.1727,2.50176c-0.07818,0 -0.15636,0.07818 -0.23454,0.07818c-0.07818,0 -0.15636,-0.07818 -0.15636,-0.07818c-0.07818,-0.07818 -0.23454,-0.15636 -0.31272,-0.23454c-0.3909,0.62544 -0.85998,0.93816 -1.32906,0.93816c-0.54726,0 -1.01634,-0.31272 -1.32906,-0.93816c-0.15636,0.07818 -0.23454,0.15636 -0.31272,0.23454c-0.07818,0 -0.15636,0.07818 -0.23454,0.07818c-0.07818,0 -0.15636,-0.07818 -0.15636,-0.07818c-0.7818,-0.62544 -1.1727,-1.5636 -1.1727,-2.50176c0,-0.93816 0.3909,-1.79814 1.1727,-2.42358c0,-0.07818 0.07818,-0.07818 0.15636,-0.07818c0.07818,0 0.15636,0 0.23454,0.07818c0.07818,0.07818 0.15636,0.07818 0.31272,0.15636c0.31272,-0.54726 0.7818,-0.93816 1.32906,-0.93816c0.46908,0 0.93816,0.3909 1.32906,0.93816z" fill="#4e4e50" fill-rule="nonzero"/><path d="M317.14643,180.97725c-0.46908,0 -0.93816,-0.3909 -1.25088,-1.01634c-0.15636,0.07818 -0.3909,0.23454 -0.46908,0.31272c-0.07818,0 -0.07818,0 -0.15636,0h-0.07818c-0.70362,-0.54726 -1.09452,-1.40724 -1.09452,-2.3454c0,-0.85998 0.3909,-1.71996 1.09452,-2.3454h0.07818c0.07818,0 0.07818,0 0.15636,0c0.07818,0.15636 0.31272,0.23454 0.46908,0.31272c0.31272,-0.62544 0.7818,-1.01634 1.25088,-1.01634c0.46908,0 0.93816,0.3909 1.25088,1.01634c0.15636,-0.07818 0.31272,-0.15636 0.46908,-0.31272h0.07818c0.07818,0 0.07818,0 0.15636,0c0.62544,0.62544 1.01634,1.48542 1.01634,2.3454c0,0.93816 -0.3909,1.79814 -1.01634,2.3454c-0.07818,0 -0.07818,0 -0.15636,0h-0.07818c-0.15636,-0.07818 -0.31272,-0.23454 -0.46908,-0.31272c-0.31272,0.62544 -0.7818,1.01634 -1.25088,1.01634z" fill="#fecf1e" fill-rule="nonzero"/><path d="M315.97373,176.13009v0c-0.07818,0 -0.46908,-0.23454 -0.70362,-0.3909c-0.62544,0.54726 -1.01634,1.32906 -1.01634,2.18904c0,0.85998 0.3909,1.71996 1.01634,2.18904c0.23454,-0.15636 0.62544,-0.31272 0.70362,-0.31272v0c0.23454,0.62544 0.70362,1.01634 1.1727,1.01634c0.46908,0 0.85998,-0.3909 1.1727,-1.01634v0c0,0 0.46908,0.15636 0.62544,0.31272c0.62544,-0.46908 1.01634,-1.32906 1.01634,-2.18904c0,-0.85998 -0.3909,-1.64178 -1.01634,-2.18904c-0.15636,0.15636 -0.62544,0.3909 -0.62544,0.3909v0c-0.31272,-0.62544 -0.70362,-1.09452 -1.1727,-1.09452c-0.46908,0 -0.93816,0.46908 -1.1727,1.09452zM318.47549,175.66101c0.07818,-0.07818 0.23454,-0.07818 0.31272,-0.15636c0,-0.07818 0.07818,-0.07818 0.15636,-0.07818c0.07818,0 0.15636,0 0.23454,0.07818c0.70362,0.62544 1.1727,1.48542 1.1727,2.42358c0,0.93816 -0.46908,1.87632 -1.1727,2.50176c-0.07818,0 -0.15636,0.07818 -0.23454,0.07818c-0.07818,0 -0.15636,-0.07818 -0.15636,-0.07818c-0.07818,-0.07818 -0.23454,-0.15636 -0.31272,-0.23454c-0.3909,0.62544 -0.85998,0.93816 -1.32906,0.93816c-0.54726,0 -1.01634,-0.31272 -1.32906,-0.93816c-0.15636,0.07818 -0.23454,0.15636 -0.31272,0.23454c-0.07818,0 -0.15636,0.07818 -0.23454,0.07818c-0.07818,0 -0.15636,-0.07818 -0.15636,-0.07818c-0.7818,-0.62544 -1.1727,-1.5636 -1.1727,-2.50176c0,-0.93816 0.3909,-1.79814 1.1727,-2.42358c0,-0.07818 0.07818,-0.07818 0.15636,-0.07818c0.07818,0 0.15636,0 0.23454,0.07818c0.07818,0.07818 0.15636,0.07818 0.31272,0.15636c0.31272,-0.54726 0.7818,-0.93816 1.32906,-0.93816c0.46908,0 0.93816,0.3909 1.32906,0.93816z" fill="#4e4e50" fill-rule="nonzero"/><path d="M316.28645,180.03909c0.15636,-0.46908 0.54726,-0.85998 0.70362,-0.93816c0.07818,-0.07818 0.3909,-0.3909 0.54726,-0.7818h-0.85998c0.07818,0.23454 0.31272,0.46908 0.31272,0.46908l-0.23454,0.23454c0,0 -0.46908,-0.46908 -0.46908,-1.09452c0,-0.62544 0.3909,-1.01634 0.7818,-1.32906c0.23454,-0.15636 0.31272,-0.3909 0.3909,-0.46908h-0.7818c0.07818,0.07818 0.23454,0.23454 0.31272,0.31272l-0.23454,0.23454c0,0 -0.46908,-0.46908 -0.46908,-0.7818c0,-0.3909 0.31272,-0.31272 0.31272,-0.07818c-0.07818,0 0,0.07818 0,0.07818l0.93816,0.07818v-0.07818c0,0 0.07818,-0.31272 0.23454,-0.31272c0.15636,0 0.07818,0.23454 0.07818,0.23454c-0.07818,0.70362 -0.54726,0.93816 -0.93816,1.32906c-0.07818,0.07818 -0.15636,0.23454 -0.23454,0.31272l0.85998,0.07818c-0.07818,-0.31272 -0.31272,-0.46908 -0.31272,-0.46908l0.23454,-0.23454c0.70362,0.62544 0.54726,1.25088 0.3909,1.64178c-0.15636,0.3909 -0.54726,0.7818 -0.7818,0.85998c-0.07818,0.15636 -0.23454,0.23454 -0.31272,0.3909h0.70362c-0.07818,-0.15636 -0.23454,-0.31272 -0.23454,-0.31272l0.23454,-0.15636c0.3909,0.3909 0.46908,0.7818 0.46908,0.7818c0,0 0.07818,0.15636 -0.07818,0.23454c-0.15636,0 -0.23454,-0.15636 -0.23454,-0.15636c0,-0.07818 0,-0.15636 -0.07818,-0.23454h-0.85998c0,0.07818 -0.07818,0.15636 -0.07818,0.15636c0,0 0,0.23454 -0.23454,0.23454c-0.07818,0 -0.07818,-0.23454 -0.07818,-0.23454zM317.61551,178.16277c0,-0.07818 0,-0.15636 0.07818,-0.23454c0,-0.07818 -0.07818,-0.15636 -0.07818,-0.23454h-1.01634c0,0.15636 0,0.31272 0,0.46908z" fill="#4e4e50" fill-rule="nonzero"/><path d="M322.38449,185.74623c-0.46908,0 -0.93816,-0.3909 -1.25088,-1.01634c-0.15636,0.07818 -0.3909,0.23454 -0.46908,0.31272c-0.07818,0 -0.07818,0 -0.15636,0h-0.07818c-0.70362,-0.62544 -1.09452,-1.40724 -1.09452,-2.3454c0,-0.85998 0.3909,-1.71996 1.09452,-2.3454h0.07818c0.07818,0 0.07818,0 0.15636,0c0.07818,0.15636 0.31272,0.23454 0.46908,0.31272c0.31272,-0.62544 0.7818,-1.01634 1.25088,-1.01634c0.46908,0 0.93816,0.3909 1.25088,1.01634c0.15636,-0.07818 0.31272,-0.15636 0.46908,-0.31272h0.07818c0.07818,0 0.07818,0 0.15636,0c0.62544,0.62544 1.09452,1.48542 1.09452,2.3454c0,0.93816 -0.46908,1.71996 -1.09452,2.3454c-0.07818,0 -0.07818,0 -0.15636,0h-0.07818c-0.15636,-0.07818 -0.31272,-0.23454 -0.46908,-0.31272c-0.31272,0.62544 -0.7818,1.01634 -1.25088,1.01634z" fill="#4e4e50" fill-rule="nonzero"/><path d="M321.21179,180.89907v0c-0.07818,0 -0.46908,-0.23454 -0.70362,-0.3909c-0.62544,0.54726 -1.01634,1.32906 -1.01634,2.18904c0,0.85998 0.3909,1.71996 1.01634,2.18904c0.23454,-0.15636 0.62544,-0.31272 0.70362,-0.31272v0c0.23454,0.62544 0.70362,1.01634 1.1727,1.01634c0.46908,0 0.85998,-0.3909 1.1727,-1.01634v0c0,0 0.46908,0.15636 0.62544,0.31272c0.62544,-0.46908 1.01634,-1.32906 1.01634,-2.18904c0,-0.85998 -0.3909,-1.64178 -1.01634,-2.18904c-0.15636,0.15636 -0.62544,0.3909 -0.62544,0.3909v0c-0.31272,-0.62544 -0.70362,-1.09452 -1.1727,-1.09452c-0.46908,0 -0.93816,0.46908 -1.1727,1.09452zM323.71355,180.42999c0.07818,-0.07818 0.23454,-0.15636 0.31272,-0.15636c0,-0.07818 0.07818,-0.07818 0.15636,-0.07818c0.07818,0 0.15636,0 0.23454,0.07818c0.70362,0.54726 1.1727,1.48542 1.1727,2.42358c0,0.93816 -0.46908,1.87632 -1.1727,2.42358c-0.07818,0.07818 -0.15636,0.07818 -0.23454,0.07818c-0.07818,0 -0.15636,0 -0.15636,-0.07818c-0.07818,0 -0.23454,-0.07818 -0.31272,-0.15636c-0.3909,0.62544 -0.85998,0.93816 -1.32906,0.93816c-0.54726,0 -1.01634,-0.31272 -1.32906,-0.93816c-0.15636,0.07818 -0.23454,0.15636 -0.31272,0.15636c-0.07818,0.07818 -0.15636,0.07818 -0.23454,0.07818c-0.07818,0 -0.15636,0 -0.15636,-0.07818c-0.7818,-0.54726 -1.1727,-1.48542 -1.1727,-2.42358c0,-0.93816 0.3909,-1.87632 1.1727,-2.42358c0,-0.07818 0.07818,-0.07818 0.15636,-0.07818c0.07818,0 0.15636,0 0.23454,0.07818c0.07818,0 0.15636,0.07818 0.31272,0.15636c0.31272,-0.54726 0.7818,-0.93816 1.32906,-0.93816c0.46908,0 0.93816,0.3909 1.32906,0.93816z" fill="#4e4e50" fill-rule="nonzero"/><path d="M322.38449,185.74623c-0.46908,0 -0.93816,-0.3909 -1.25088,-1.01634c-0.15636,0.07818 -0.3909,0.23454 -0.46908,0.31272c-0.07818,0 -0.07818,0 -0.15636,0h-0.07818c-0.70362,-0.62544 -1.09452,-1.40724 -1.09452,-2.3454c0,-0.85998 0.3909,-1.71996 1.09452,-2.3454h0.07818c0.07818,0 0.07818,0 0.15636,0c0.07818,0.15636 0.31272,0.23454 0.46908,0.31272c0.31272,-0.62544 0.7818,-1.01634 1.25088,-1.01634c0.46908,0 0.93816,0.3909 1.25088,1.01634c0.15636,-0.07818 0.31272,-0.15636 0.46908,-0.31272h0.07818c0.07818,0 0.07818,0 0.15636,0c0.62544,0.62544 1.09452,1.48542 1.09452,2.3454c0,0.93816 -0.46908,1.71996 -1.09452,2.3454c-0.07818,0 -0.07818,0 -0.15636,0h-0.07818c-0.15636,-0.07818 -0.31272,-0.23454 -0.46908,-0.31272c-0.31272,0.62544 -0.7818,1.01634 -1.25088,1.01634z" fill="#fecf1e" fill-rule="nonzero"/><path d="M321.21179,180.89907v0c-0.07818,0 -0.46908,-0.23454 -0.70362,-0.3909c-0.62544,0.54726 -1.01634,1.32906 -1.01634,2.18904c0,0.85998 0.3909,1.71996 1.01634,2.18904c0.23454,-0.15636 0.62544,-0.31272 0.70362,-0.31272v0c0.23454,0.62544 0.70362,1.01634 1.1727,1.01634c0.46908,0 0.85998,-0.3909 1.1727,-1.01634v0c0,0 0.46908,0.15636 0.62544,0.31272c0.62544,-0.46908 1.01634,-1.32906 1.01634,-2.18904c0,-0.85998 -0.3909,-1.64178 -1.01634,-2.18904c-0.15636,0.15636 -0.62544,0.3909 -0.62544,0.3909v0c-0.31272,-0.62544 -0.70362,-1.09452 -1.1727,-1.09452c-0.46908,0 -0.93816,0.46908 -1.1727,1.09452zM323.71355,180.42999c0.07818,-0.07818 0.23454,-0.15636 0.31272,-0.15636c0,-0.07818 0.07818,-0.07818 0.15636,-0.07818c0.07818,0 0.15636,0 0.23454,0.07818c0.70362,0.54726 1.1727,1.48542 1.1727,2.42358c0,0.93816 -0.46908,1.87632 -1.1727,2.42358c-0.07818,0.07818 -0.15636,0.07818 -0.23454,0.07818c-0.07818,0 -0.15636,0 -0.15636,-0.07818c-0.07818,0 -0.23454,-0.07818 -0.31272,-0.15636c-0.3909,0.62544 -0.85998,0.93816 -1.32906,0.93816c-0.54726,0 -1.01634,-0.31272 -1.32906,-0.93816c-0.15636,0.07818 -0.23454,0.15636 -0.31272,0.15636c-0.07818,0.07818 -0.15636,0.07818 -0.23454,0.07818c-0.07818,0 -0.15636,0 -0.15636,-0.07818c-0.7818,-0.54726 -1.1727,-1.48542 -1.1727,-2.42358c0,-0.93816 0.3909,-1.87632 1.1727,-2.42358c0,-0.07818 0.07818,-0.07818 0.15636,-0.07818c0.07818,0 0.15636,0 0.23454,0.07818c0.07818,0 0.15636,0.07818 0.31272,0.15636c0.31272,-0.54726 0.7818,-0.93816 1.32906,-0.93816c0.46908,0 0.93816,0.3909 1.32906,0.93816z" fill="#4e4e50" fill-rule="nonzero"/><path d="M321.52451,184.80807c0.15636,-0.46908 0.54726,-0.85998 0.70362,-0.93816c0.07818,-0.07818 0.3909,-0.3909 0.54726,-0.7818h-0.85998c0.07818,0.23454 0.31272,0.46908 0.31272,0.46908l-0.15636,0.23454c0,0 -0.54726,-0.46908 -0.54726,-1.09452c0,-0.62544 0.3909,-1.01634 0.7818,-1.32906c0.23454,-0.15636 0.31272,-0.3909 0.3909,-0.46908h-0.7818c0.07818,0.07818 0.23454,0.23454 0.31272,0.31272l-0.23454,0.15636c0,0 -0.46908,-0.3909 -0.46908,-0.70362c0,-0.3909 0.31272,-0.31272 0.31272,-0.15636c0,0.07818 0,0.15636 0,0.15636l0.93816,0.07818c0,-0.07818 0,-0.07818 0,-0.07818c0,0 0.07818,-0.31272 0.23454,-0.31272c0.15636,0 0.07818,0.23454 0.07818,0.23454c-0.07818,0.70362 -0.54726,0.93816 -0.93816,1.32906c-0.07818,0.07818 -0.15636,0.23454 -0.23454,0.31272l0.85998,0.07818c-0.07818,-0.31272 -0.31272,-0.46908 -0.31272,-0.46908l0.23454,-0.23454c0.70362,0.62544 0.54726,1.25088 0.3909,1.64178c-0.15636,0.3909 -0.54726,0.70362 -0.7818,0.85998c-0.07818,0.07818 -0.23454,0.23454 -0.31272,0.3909h0.70362c-0.07818,-0.15636 -0.23454,-0.31272 -0.23454,-0.31272l0.23454,-0.15636c0.3909,0.31272 0.46908,0.70362 0.46908,0.70362c0,0 0.07818,0.23454 -0.07818,0.31272c-0.15636,0 -0.23454,-0.15636 -0.23454,-0.15636c0,-0.07818 0,-0.15636 -0.07818,-0.23454h-0.85998c0,0.07818 -0.07818,0.15636 -0.07818,0.15636c0,0 0,0.23454 -0.23454,0.23454c-0.07818,0 -0.07818,-0.23454 -0.07818,-0.23454zM322.85357,182.93175c0,-0.07818 0.07818,-0.15636 0.07818,-0.23454c0,-0.07818 0,-0.15636 -0.07818,-0.23454h-1.01634c0,0.15636 0,0.31272 0,0.46908z" fill="#4e4e50" fill-rule="nonzero"/></g></g></g></svg>