<svg version="1.1" xmlns="http://www.w3.org/2000/svg" xmlns:xlink="http://www.w3.org/1999/xlink" width="19.1541" height="19.1541" viewBox="0,0,19.1541,19.1541"><g transform="translate(-310.42295,-170.42295)"><g data-paper-data="{&quot;isPaintingLayer&quot;:true}" stroke="none" stroke-width="1" stroke-linecap="butt" stroke-linejoin="miter" stroke-miterlimit="10" stroke-dasharray="" stroke-dashoffset="0" style="mix-blend-mode: normal"><g><path d="M314.21926,187.76518c-1.09597,0 -1.98443,-0.88846 -1.98443,-1.98443v-11.56148c0,-1.09597 0.88846,-1.98443 1.98443,-1.98443h11.56148c1.09597,0 1.98443,0.88846 1.98443,1.98443v11.56148c0,1.09597 -0.88846,1.98443 -1.98443,1.98443z" fill="#fefefe" fill-rule="evenodd"/><path d="M314.21926,170.50923h11.64776c0.94908,0 1.89815,0.34512 2.58839,1.03536v0c0.69024,0.69024 1.12164,1.63931 1.12164,2.67467v11.64776c0,0.94908 -0.4314,1.89815 -1.12164,2.58839v0c-0.69024,0.69024 -1.63931,1.12164 -2.58839,1.12164h-11.64776c-1.03536,0 -1.98443,-0.4314 -2.67467,-1.12164v0c-0.69024,-0.69024 -1.03536,-1.63931 -1.03536,-2.58839v-11.64776c0,-1.03536 0.34512,-1.98443 1.03536,-2.67467v0c0.69024,-0.69024 1.63931,-1.03536 2.67467,-1.03536zM314.21926,172.23482h11.64776c1.03536,0 1.89815,0.8628 1.89815,1.98443v11.64776c0,1.03536 -0.8628,1.89815 -1.89815,1.89815h-11.64776c-1.12164,0 -1.98443,-0.8628 -1.98443,-1.89815v-11.64776c0,-1.12164 0.8628,-1.98443 1.98443,-1.98443z" fill="#ef7f1a" fill-rule="evenodd"/><path d="M314.21926,170.42295h11.64776c0.4314,0 0.94908,0.08628 1.38048,0.25884c0.51768,0.25884 0.8628,0.51768 1.20792,0.8628v0c0.34512,0.34512 0.69024,0.77652 0.8628,1.20792c0.17256,0.4314 0.25884,0.94908 0.25884,1.46676v11.64776c0,0.4314 -0.08628,0.94908 -0.25884,1.38048c-0.17256,0.51768 -0.51768,0.8628 -0.8628,1.20792v0c-0.34512,0.34512 -0.69024,0.69024 -1.20792,0.8628c-0.4314,0.17256 -0.94908,0.25884 -1.38048,0.25884h-11.64776c-0.51768,0 -1.03536,-0.08628 -1.46676,-0.25884c-0.4314,-0.17256 -0.8628,-0.51768 -1.20792,-0.8628v0c-0.34512,-0.34512 -0.60396,-0.69024 -0.8628,-1.20792c-0.17256,-0.4314 -0.25884,-0.94908 -0.25884,-1.38048v-11.64776c0,-0.51768 0.08628,-1.03536 0.25884,-1.46676c0.25884,-0.4314 0.51768,-0.8628 0.8628,-1.20792v0c0.34512,-0.34512 0.77652,-0.60396 1.20792,-0.8628c0.4314,-0.17256 0.94908,-0.25884 1.46676,-0.25884zM325.86702,170.50923h-11.64776c-0.51768,0 -1.03536,0.08628 -1.38048,0.25884c-0.51768,0.25884 -0.8628,0.51768 -1.20792,0.8628v0c-0.34512,0.34512 -0.60396,0.69024 -0.8628,1.20792c-0.17256,0.34512 -0.25884,0.8628 -0.25884,1.38048v11.64776c0,0.4314 0.08628,0.94908 0.25884,1.38048c0.25884,0.4314 0.51768,0.8628 0.8628,1.20792v0c0.34512,0.34512 0.69024,0.60396 1.20792,0.77652c0.34512,0.17256 0.8628,0.25884 1.38048,0.25884h11.64776c0.4314,0 0.94908,-0.08628 1.38048,-0.25884c0.4314,-0.17256 0.8628,-0.4314 1.20792,-0.77652v0c0.34512,-0.34512 0.60396,-0.77652 0.77652,-1.20792c0.17256,-0.4314 0.25884,-0.94908 0.25884,-1.38048v-11.64776c0,-0.51768 -0.08628,-1.03536 -0.25884,-1.38048c-0.17256,-0.51768 -0.4314,-0.8628 -0.77652,-1.20792v0c-0.34512,-0.34512 -0.77652,-0.60396 -1.20792,-0.8628c-0.4314,-0.17256 -0.94908,-0.25884 -1.38048,-0.25884zM314.21926,172.14854h11.64776c0.51768,0 1.03536,0.25884 1.38048,0.60396c0.34512,0.34512 0.60396,0.8628 0.60396,1.46676v11.64776c0,0.51768 -0.25884,1.03536 -0.60396,1.38048c-0.34512,0.34512 -0.8628,0.60396 -1.38048,0.60396h-11.64776c-0.60396,0 -1.12164,-0.25884 -1.46676,-0.60396c-0.34512,-0.34512 -0.60396,-0.8628 -0.60396,-1.38048v-11.64776c0,-0.60396 0.25884,-1.12164 0.60396,-1.46676c0.34512,-0.34512 0.8628,-0.60396 1.46676,-0.60396zM325.86702,172.3211h-11.64776c-0.51768,0 -1.03536,0.17256 -1.38048,0.51768c-0.34512,0.34512 -0.51768,0.8628 -0.51768,1.38048v11.64776c0,0.51768 0.17256,0.94908 0.51768,1.2942c0.34512,0.34512 0.8628,0.60396 1.38048,0.60396h11.64776c0.51768,0 0.94908,-0.25884 1.2942,-0.60396c0.34512,-0.34512 0.60396,-0.77652 0.60396,-1.2942v-11.64776c0,-0.51768 -0.25884,-1.03536 -0.60396,-1.38048c-0.34512,-0.34512 -0.77652,-0.51768 -1.2942,-0.51768z" fill="#fefefe" fill-rule="nonzero"/><path d="M317.58417,182.50211c-0.08628,0.17256 -0.25884,0.17256 -0.34512,0.08628c-0.08628,-0.08628 -0.08628,-0.25884 0,-0.34512l4.40027,-4.74539c0.08628,-0.08628 0.17256,-0.08628 0.34512,0c0.08628,0.08628 0.08628,0.25884 0,0.34512z" fill="#2b2a29" fill-rule="nonzero"/><path d="M324.14143,176.54881c-0.69024,0 -1.20792,-0.51768 -1.20792,-1.20792c0,-0.69024 0.51768,-1.20792 1.20792,-1.20792c0.60396,0 1.20792,0.51768 1.20792,1.20792c0,0.69024 -0.60396,1.20792 -1.20792,1.20792z" fill="#e63331" fill-rule="nonzero"/><path d="M324.14143,176.63509c-0.77652,0 -1.2942,-0.60396 -1.2942,-1.2942c0,-0.69024 0.51768,-1.2942 1.2942,-1.2942c0.69024,0 1.2942,0.51768 1.2942,1.2942v0c0,0.77652 -0.60396,1.2942 -1.2942,1.2942zM324.14143,174.30554c-0.60396,0 -1.03536,0.4314 -1.03536,1.03536c0,0.60396 0.4314,1.03536 1.03536,1.03536c0.60396,0 1.03536,-0.4314 1.03536,-1.03536c0,-0.60396 -0.4314,-1.03536 -1.03536,-1.03536z" fill="#5a3547" fill-rule="nonzero"/><path d="M315.94485,181.03536c-0.25884,0 -0.51768,-0.17256 -0.69024,-0.51768c-0.08628,0 -0.17256,0.08628 -0.25884,0.17256c0,0 0,0 -0.08628,0v0c-0.4314,-0.34512 -0.60396,-0.77652 -0.60396,-1.2942c0,-0.51768 0.17256,-0.94908 0.60396,-1.2942v0c0.08628,0 0.08628,0 0.08628,0c0.08628,0.08628 0.17256,0.08628 0.25884,0.17256c0.17256,-0.34512 0.4314,-0.60396 0.69024,-0.60396c0.25884,0 0.51768,0.25884 0.69024,0.60396c0.08628,-0.08628 0.25884,-0.08628 0.25884,-0.17256c0.08628,0 0.08628,0 0.08628,0c0,0 0,0 0.08628,0c0.34512,0.34512 0.60396,0.77652 0.60396,1.2942c0,0.51768 -0.25884,0.94908 -0.60396,1.2942c-0.08628,0 -0.08628,0 -0.08628,0c0,0 0,0 -0.08628,0c0,-0.08628 -0.17256,-0.17256 -0.25884,-0.17256c-0.17256,0.34512 -0.4314,0.51768 -0.69024,0.51768z" fill="#4e4e50" fill-rule="nonzero"/><path d="M315.34089,178.36069v0c0,0 -0.25884,-0.08628 -0.4314,-0.17256c-0.34512,0.25884 -0.51768,0.69024 -0.51768,1.20792c0,0.51768 0.17256,0.94908 0.51768,1.20792c0.17256,-0.08628 0.4314,-0.17256 0.4314,-0.17256v0c0.08628,0.34512 0.34512,0.51768 0.60396,0.51768c0.25884,0 0.51768,-0.17256 0.69024,-0.51768v0c0,0 0.25884,0.08628 0.34512,0.17256c0.34512,-0.25884 0.60396,-0.69024 0.60396,-1.20792c0,-0.51768 -0.25884,-0.94908 -0.60396,-1.20792c-0.08628,0.08628 -0.34512,0.17256 -0.34512,0.17256v0c-0.17256,-0.34512 -0.4314,-0.60396 -0.69024,-0.60396c-0.25884,0 -0.51768,0.25884 -0.60396,0.60396zM316.72137,178.10185c0,0 0.08628,-0.08628 0.17256,-0.08628h0.08628h0.08628c0.4314,0.34512 0.69024,0.8628 0.69024,1.38048c0,0.51768 -0.25884,1.03536 -0.69024,1.38048h-0.08628h-0.08628c-0.08628,-0.08628 -0.17256,-0.08628 -0.17256,-0.17256c-0.25884,0.34512 -0.51768,0.51768 -0.77652,0.51768c-0.25884,0 -0.51768,-0.17256 -0.69024,-0.51768c-0.08628,0.08628 -0.17256,0.08628 -0.17256,0.17256c-0.08628,0 -0.08628,0 -0.17256,0h-0.08628c-0.4314,-0.34512 -0.60396,-0.8628 -0.60396,-1.38048c0,-0.51768 0.17256,-1.03536 0.60396,-1.38048h0.08628c0.08628,0 0.08628,0 0.17256,0c0,0 0.08628,0.08628 0.17256,0.08628c0.17256,-0.25884 0.4314,-0.51768 0.69024,-0.51768c0.25884,0 0.51768,0.25884 0.77652,0.51768z" fill="#4e4e50" fill-rule="nonzero"/><path d="M315.94485,181.03536c-0.25884,0 -0.51768,-0.17256 -0.69024,-0.51768c-0.08628,0 -0.17256,0.08628 -0.25884,0.17256c0,0 0,0 -0.08628,0v0c-0.4314,-0.34512 -0.60396,-0.77652 -0.60396,-1.2942c0,-0.51768 0.17256,-0.94908 0.60396,-1.2942v0c0.08628,0 0.08628,0 0.08628,0c0.08628,0.08628 0.17256,0.08628 0.25884,0.17256c0.17256,-0.34512 0.4314,-0.60396 0.69024,-0.60396c0.25884,0 0.51768,0.25884 0.69024,0.60396c0.08628,-0.08628 0.25884,-0.08628 0.25884,-0.17256c0.08628,0 0.08628,0 0.08628,0c0,0 0,0 0.08628,0c0.34512,0.34512 0.60396,0.77652 0.60396,1.2942c0,0.51768 -0.25884,0.94908 -0.60396,1.2942c-0.08628,0 -0.08628,0 -0.08628,0c0,0 0,0 -0.08628,0c0,-0.08628 -0.17256,-0.17256 -0.25884,-0.17256c-0.17256,0.34512 -0.4314,0.51768 -0.69024,0.51768z" fill="#fecf1e" fill-rule="nonzero"/><path d="M315.34089,178.36069v0c0,0 -0.25884,-0.08628 -0.4314,-0.17256c-0.34512,0.25884 -0.51768,0.69024 -0.51768,1.20792c0,0.51768 0.17256,0.94908 0.51768,1.20792c0.17256,-0.08628 0.4314,-0.17256 0.4314,-0.17256v0c0.08628,0.34512 0.34512,0.51768 0.60396,0.51768c0.25884,0 0.51768,-0.17256 0.69024,-0.51768v0c0,0 0.25884,0.08628 0.34512,0.17256c0.34512,-0.25884 0.60396,-0.69024 0.60396,-1.20792c0,-0.51768 -0.25884,-0.94908 -0.60396,-1.20792c-0.08628,0.08628 -0.34512,0.17256 -0.34512,0.17256v0c-0.17256,-0.34512 -0.4314,-0.60396 -0.69024,-0.60396c-0.25884,0 -0.51768,0.25884 -0.60396,0.60396zM316.72137,178.10185c0,0 0.08628,-0.08628 0.17256,-0.08628h0.08628h0.08628c0.4314,0.34512 0.69024,0.8628 0.69024,1.38048c0,0.51768 -0.25884,1.03536 -0.69024,1.38048h-0.08628h-0.08628c-0.08628,-0.08628 -0.17256,-0.08628 -0.17256,-0.17256c-0.25884,0.34512 -0.51768,0.51768 -0.77652,0.51768c-0.25884,0 -0.51768,-0.17256 -0.69024,-0.51768c-0.08628,0.08628 -0.17256,0.08628 -0.17256,0.17256c-0.08628,0 -0.08628,0 -0.17256,0h-0.08628c-0.4314,-0.34512 -0.60396,-0.8628 -0.60396,-1.38048c0,-0.51768 0.17256,-1.03536 0.60396,-1.38048h0.08628c0.08628,0 0.08628,0 0.17256,0c0,0 0.08628,0.08628 0.17256,0.08628c0.17256,-0.25884 0.4314,-0.51768 0.69024,-0.51768c0.25884,0 0.51768,0.25884 0.77652,0.51768z" fill="#4e4e50" fill-rule="nonzero"/><path d="M315.51345,180.51768c0.08628,-0.25884 0.34512,-0.4314 0.34512,-0.51768c0.08628,0 0.25884,-0.17256 0.34512,-0.4314h-0.51768c0.08628,0.17256 0.17256,0.25884 0.17256,0.25884l-0.08628,0.17256c0,0 -0.25884,-0.25884 -0.25884,-0.60396c0,-0.34512 0.17256,-0.60396 0.4314,-0.77652c0.08628,-0.08628 0.17256,-0.17256 0.17256,-0.25884h-0.4314c0.08628,0.08628 0.17256,0.17256 0.17256,0.17256l-0.08628,0.17256c0,0 -0.25884,-0.25884 -0.25884,-0.4314c0,-0.25884 0.17256,-0.17256 0.17256,-0.08628v0.08628h0.51768v0c0,0 0,-0.17256 0.08628,-0.17256c0.08628,0 0.08628,0.08628 0.08628,0.08628c-0.08628,0.4314 -0.34512,0.51768 -0.51768,0.77652c-0.08628,0 -0.08628,0.08628 -0.17256,0.17256h0.51768c-0.08628,-0.17256 -0.17256,-0.25884 -0.17256,-0.25884l0.08628,-0.08628c0.4314,0.34512 0.34512,0.69024 0.25884,0.8628c-0.08628,0.25884 -0.34512,0.4314 -0.4314,0.51768c-0.08628,0.08628 -0.17256,0.08628 -0.17256,0.17256h0.34512c0,-0.08628 -0.08628,-0.17256 -0.08628,-0.17256l0.08628,-0.08628c0.25884,0.25884 0.25884,0.4314 0.25884,0.4314c0,0 0.08628,0.08628 0,0.17256c-0.08628,0 -0.17256,-0.08628 -0.17256,-0.08628c0,-0.08628 0,-0.08628 0,-0.17256h-0.51768c0,0.08628 0,0.08628 0,0.08628c0,0 0,0.17256 -0.08628,0.17256c-0.08628,0 -0.08628,-0.17256 -0.08628,-0.17256zM316.20369,179.48232c0.08628,0 0.08628,-0.08628 0.08628,-0.08628c0,-0.08628 0,-0.08628 -0.08628,-0.17256h-0.51768c0,0.08628 0,0.17256 0,0.25884z" fill="#4e4e50" fill-rule="nonzero"/><path d="M318.53324,178.01557c-0.34512,0 -0.51768,-0.25884 -0.69024,-0.60396c-0.08628,0.08628 -0.25884,0.17256 -0.34512,0.17256v0h-0.08628c-0.34512,-0.25884 -0.60396,-0.77652 -0.60396,-1.2942c0,-0.4314 0.25884,-0.94908 0.60396,-1.2942h0.08628v0c0.08628,0.08628 0.25884,0.17256 0.34512,0.17256c0.17256,-0.34512 0.34512,-0.51768 0.69024,-0.51768c0.25884,0 0.51768,0.17256 0.69024,0.51768c0.08628,0 0.17256,-0.08628 0.25884,-0.17256v0c0.08628,0 0.08628,0 0.08628,0c0.34512,0.34512 0.60396,0.8628 0.60396,1.2942c0,0.51768 -0.25884,1.03536 -0.60396,1.2942c0,0 0,0 -0.08628,0v0c-0.08628,0 -0.17256,-0.08628 -0.25884,-0.17256c-0.17256,0.34512 -0.4314,0.60396 -0.69024,0.60396z" fill="#4e4e50" fill-rule="nonzero"/><path d="M317.84301,175.34089v0c0,0 -0.25884,-0.17256 -0.34512,-0.25884c-0.34512,0.34512 -0.60396,0.77652 -0.60396,1.20792c0,0.51768 0.25884,0.94908 0.60396,1.20792c0.08628,-0.08628 0.34512,-0.17256 0.34512,-0.17256v0c0.17256,0.34512 0.4314,0.60396 0.69024,0.60396c0.25884,0 0.4314,-0.25884 0.60396,-0.60396v0c0,0 0.25884,0.08628 0.34512,0.17256c0.34512,-0.25884 0.60396,-0.69024 0.60396,-1.20792c0,-0.4314 -0.25884,-0.8628 -0.60396,-1.20792c-0.08628,0.08628 -0.34512,0.25884 -0.34512,0.25884v0c-0.17256,-0.4314 -0.34512,-0.60396 -0.60396,-0.60396c-0.25884,0 -0.51768,0.17256 -0.69024,0.60396zM319.22348,175.08206c0.08628,-0.08628 0.17256,-0.08628 0.17256,-0.08628c0,-0.08628 0.08628,-0.08628 0.08628,-0.08628c0.08628,0 0.08628,0 0.17256,0.08628c0.34512,0.25884 0.60396,0.77652 0.60396,1.2942c0,0.51768 -0.25884,1.03536 -0.60396,1.38048c-0.08628,0 -0.08628,0.08628 -0.17256,0.08628l-0.08628,-0.08628c0,0 -0.08628,-0.08628 -0.17256,-0.08628c-0.17256,0.34512 -0.4314,0.51768 -0.69024,0.51768c-0.34512,0 -0.60396,-0.17256 -0.77652,-0.51768c-0.08628,0 -0.08628,0.08628 -0.17256,0.08628l-0.08628,0.08628c-0.08628,0 -0.08628,-0.08628 -0.17256,-0.08628c-0.34512,-0.34512 -0.60396,-0.8628 -0.60396,-1.38048c0,-0.51768 0.25884,-1.03536 0.60396,-1.2942c0.08628,-0.08628 0.08628,-0.08628 0.17256,-0.08628c0,0 0.08628,0 0.08628,0.08628c0.08628,0 0.08628,0 0.17256,0.08628c0.17256,-0.34512 0.4314,-0.51768 0.77652,-0.51768c0.25884,0 0.51768,0.17256 0.69024,0.51768z" fill="#4e4e50" fill-rule="nonzero"/><path d="M318.53324,178.01557c-0.34512,0 -0.51768,-0.25884 -0.69024,-0.60396c-0.08628,0.08628 -0.25884,0.17256 -0.34512,0.17256v0h-0.08628c-0.34512,-0.25884 -0.60396,-0.77652 -0.60396,-1.2942c0,-0.4314 0.25884,-0.94908 0.60396,-1.2942h0.08628v0c0.08628,0.08628 0.25884,0.17256 0.34512,0.17256c0.17256,-0.34512 0.34512,-0.51768 0.69024,-0.51768c0.25884,0 0.51768,0.17256 0.69024,0.51768c0.08628,0 0.17256,-0.08628 0.25884,-0.17256v0c0.08628,0 0.08628,0 0.08628,0c0.34512,0.34512 0.60396,0.8628 0.60396,1.2942c0,0.51768 -0.25884,1.03536 -0.60396,1.2942c0,0 0,0 -0.08628,0v0c-0.08628,0 -0.17256,-0.08628 -0.25884,-0.17256c-0.17256,0.34512 -0.4314,0.60396 -0.69024,0.60396z" fill="#fecf1e" fill-rule="nonzero"/><path d="M317.84301,175.34089v0c0,0 -0.25884,-0.17256 -0.34512,-0.25884c-0.34512,0.34512 -0.60396,0.77652 -0.60396,1.20792c0,0.51768 0.25884,0.94908 0.60396,1.20792c0.08628,-0.08628 0.34512,-0.17256 0.34512,-0.17256v0c0.17256,0.34512 0.4314,0.60396 0.69024,0.60396c0.25884,0 0.4314,-0.25884 0.60396,-0.60396v0c0,0 0.25884,0.08628 0.34512,0.17256c0.34512,-0.25884 0.60396,-0.69024 0.60396,-1.20792c0,-0.4314 -0.25884,-0.8628 -0.60396,-1.20792c-0.08628,0.08628 -0.34512,0.25884 -0.34512,0.25884v0c-0.17256,-0.4314 -0.34512,-0.60396 -0.60396,-0.60396c-0.25884,0 -0.51768,0.17256 -0.69024,0.60396zM319.22348,175.08206c0.08628,-0.08628 0.17256,-0.08628 0.17256,-0.08628c0,-0.08628 0.08628,-0.08628 0.08628,-0.08628c0.08628,0 0.08628,0 0.17256,0.08628c0.34512,0.25884 0.60396,0.77652 0.60396,1.2942c0,0.51768 -0.25884,1.03536 -0.60396,1.38048c-0.08628,0 -0.08628,0.08628 -0.17256,0.08628l-0.08628,-0.08628c0,0 -0.08628,-0.08628 -0.17256,-0.08628c-0.17256,0.34512 -0.4314,0.51768 -0.69024,0.51768c-0.34512,0 -0.60396,-0.17256 -0.77652,-0.51768c-0.08628,0 -0.08628,0.08628 -0.17256,0.08628l-0.08628,0.08628c-0.08628,0 -0.08628,-0.08628 -0.17256,-0.08628c-0.34512,-0.34512 -0.60396,-0.8628 -0.60396,-1.38048c0,-0.51768 0.25884,-1.03536 0.60396,-1.2942c0.08628,-0.08628 0.08628,-0.08628 0.17256,-0.08628c0,0 0.08628,0 0.08628,0.08628c0.08628,0 0.08628,0 0.17256,0.08628c0.17256,-0.34512 0.4314,-0.51768 0.77652,-0.51768c0.25884,0 0.51768,0.17256 0.69024,0.51768z" fill="#4e4e50" fill-rule="nonzero"/><path d="M318.01557,177.49789c0.08628,-0.25884 0.34512,-0.51768 0.4314,-0.51768c0,-0.08628 0.17256,-0.25884 0.25884,-0.4314h-0.4314c0,0.08628 0.17256,0.25884 0.17256,0.25884l-0.17256,0.08628c0,0 -0.25884,-0.25884 -0.25884,-0.60396c0,-0.34512 0.25884,-0.51768 0.4314,-0.69024c0.17256,-0.08628 0.17256,-0.25884 0.25884,-0.25884h-0.4314c0,0 0.08628,0.08628 0.17256,0.17256l-0.17256,0.08628c0,0 -0.25884,-0.25884 -0.25884,-0.4314c0,-0.17256 0.17256,-0.17256 0.17256,-0.08628c0,0.08628 0,0.08628 0,0.08628l0.51768,0.08628c0,-0.08628 0,-0.08628 0,-0.08628c0,0 0.08628,-0.17256 0.17256,-0.17256c0.08628,0 0,0.17256 0,0.17256c0,0.34512 -0.25884,0.51768 -0.51768,0.69024c0,0.08628 -0.08628,0.17256 -0.08628,0.17256l0.4314,0.08628c0,-0.17256 -0.17256,-0.25884 -0.17256,-0.25884l0.17256,-0.17256c0.34512,0.34512 0.25884,0.69024 0.17256,0.94908c-0.08628,0.17256 -0.25884,0.4314 -0.4314,0.4314c0,0.08628 -0.08628,0.17256 -0.17256,0.25884h0.4314c-0.08628,-0.08628 -0.17256,-0.17256 -0.17256,-0.17256l0.17256,-0.08628c0.17256,0.17256 0.25884,0.4314 0.25884,0.4314c0,0 0,0.08628 -0.08628,0.08628c-0.08628,0 -0.08628,-0.08628 -0.08628,-0.08628c0,0 0,-0.08628 -0.08628,-0.08628h-0.4314c-0.08628,0 -0.08628,0.08628 -0.08628,0.08628c0,0 0,0.08628 -0.08628,0.08628c-0.08628,0 -0.08628,-0.08628 -0.08628,-0.08628zM318.79208,176.46253c0,-0.08628 0,-0.08628 0,-0.17256v-0.08628h-0.60396c0,0.08628 0,0.17256 0,0.25884z" fill="#4e4e50" fill-rule="nonzero"/><path d="M321.63931,185.86702c0,0 -0.08628,0 -0.08628,-0.08628l-1.55304,-1.55304c-0.08628,0 -0.08628,-0.08628 -0.08628,-0.08628v-2.32955c0,0 0,-0.08628 0.08628,-0.08628l1.55304,-1.55304c0,-0.08628 0.08628,-0.08628 0.08628,-0.08628h2.32955c0,0 0,0 0.08628,0.08628l1.55304,1.55304c0.08628,0 0.08628,0.08628 0.08628,0.08628v2.32955c0,0 0,0.08628 -0.08628,0.08628l-1.55304,1.55304c-0.08628,0.08628 -0.08628,0.08628 -0.08628,0.08628z" fill="#ed7f32" fill-rule="nonzero"/><path d="M321.63931,180.25884l-1.55304,1.55304v2.32955l1.55304,1.55304h2.32955l1.55304,-1.55304v-2.32955l-1.55304,-1.55304zM325.78074,184.31399l-1.63931,1.63931c-0.08628,0 -0.17256,0.08628 -0.17256,0.08628v0h-2.32955v0c-0.08628,0 -0.08628,-0.08628 -0.17256,-0.08628l-1.63931,-1.63931c0,-0.08628 -0.08628,-0.08628 -0.08628,-0.17256v-2.32955c0,-0.08628 0.08628,-0.08628 0.08628,-0.17256l1.63931,-1.63931c0.08628,0 0.08628,-0.08628 0.17256,-0.08628v0h2.32955v0c0,0 0.08628,0.08628 0.17256,0.08628l1.63931,1.63931c0,0.08628 0,0.08628 0.08628,0.17256v2.32955c-0.08628,0.08628 -0.08628,0.08628 -0.08628,0.17256z" fill="#fefefe" fill-rule="nonzero"/><path d="M323.62375,180.94908c-0.17256,0.4314 -0.60396,0.8628 -0.69024,0.94908c-0.08628,0.08628 -0.34512,0.34512 -0.51768,0.69024h0.8628c-0.17256,-0.17256 -0.34512,-0.4314 -0.34512,-0.4314l0.17256,-0.17256c0,0 0.4314,0.34512 0.51768,0.94908c0,0.60396 -0.4314,1.03536 -0.77652,1.38048c-0.17256,0.08628 -0.34512,0.34512 -0.4314,0.4314h0.77652c-0.08628,-0.08628 -0.17256,-0.25884 -0.25884,-0.34512l0.17256,-0.17256c0,0 0.4314,0.4314 0.51768,0.77652c0,0.34512 -0.25884,0.17256 -0.25884,0.08628c0,-0.08628 0,-0.08628 -0.08628,-0.17256h-0.8628c-0.08628,0 -0.08628,0 -0.08628,0c0,0 0,0.34512 -0.17256,0.34512c-0.17256,-0.08628 -0.08628,-0.25884 -0.08628,-0.25884c0.08628,-0.60396 0.60396,-0.8628 0.94908,-1.2942c0.08628,-0.08628 0.17256,-0.17256 0.17256,-0.25884l-0.8628,-0.08628c0.17256,0.25884 0.34512,0.51768 0.34512,0.51768l-0.17256,0.17256c-0.69024,-0.60396 -0.51768,-1.20792 -0.4314,-1.55304c0.17256,-0.4314 0.60396,-0.77652 0.77652,-0.8628c0.08628,-0.08628 0.17256,-0.25884 0.25884,-0.34512h-0.60396c0.08628,0.08628 0.17256,0.25884 0.17256,0.25884l-0.17256,0.17256c-0.4314,-0.34512 -0.51768,-0.77652 -0.51768,-0.77652c0,0 0,-0.17256 0.08628,-0.17256c0.17256,-0.08628 0.25884,0.08628 0.25884,0.08628c0,0.08628 0,0.17256 0.08628,0.25884h0.77652c0.08628,-0.08628 0.08628,-0.17256 0.08628,-0.17256c0,0 0,-0.25884 0.25884,-0.25884c0.08628,0.08628 0.08628,0.25884 0.08628,0.25884zM322.32955,182.76095c0,0.08628 0,0.17256 -0.08628,0.17256c0,0.08628 0.08628,0.17256 0.08628,0.25884h0.94908c0,-0.17256 0,-0.25884 0,-0.4314z" fill="#fefefe" fill-rule="nonzero"/></g></g></g></svg>