<svg version="1.1" xmlns="http://www.w3.org/2000/svg" xmlns:xlink="http://www.w3.org/1999/xlink" width="19.1541" height="19.1541" viewBox="0,0,19.1541,19.1541"><g transform="translate(-310.42295,-170.42295)"><g data-paper-data="{&quot;isPaintingLayer&quot;:true}" stroke="none" stroke-width="1" stroke-linecap="butt" stroke-linejoin="miter" stroke-miterlimit="10" stroke-dasharray="" stroke-dashoffset="0" style="mix-blend-mode: normal"><g><path d="M314.22753,187.80595c-1.08683,0 -1.96789,-0.88105 -1.96789,-1.96789v-11.61053c0,-1.08683 0.88105,-1.96789 1.96789,-1.96789h11.61053c1.08683,0 1.96789,0.88105 1.96789,1.96789v11.61053c0,1.08683 -0.88105,1.96789 -1.96789,1.96789z" fill="#fefefe" fill-rule="evenodd"/><path d="M314.16194,170.48855h11.67613c0.98394,0 1.96789,0.39358 2.62385,1.04954v0c0.65596,0.72156 1.11514,1.63991 1.11514,2.62385v11.67613c0,0.98394 -0.45917,1.96789 -1.11514,2.62385v0c-0.65596,0.65596 -1.63991,1.11514 -2.62385,1.11514h-11.67613c-0.98394,0 -1.90229,-0.45917 -2.62385,-1.11514v0c-0.65596,-0.65596 -1.04954,-1.63991 -1.04954,-2.62385v-11.67613c0,-0.98394 0.39358,-1.90229 1.04954,-2.62385v0c0.72156,-0.65596 1.63991,-1.04954 2.62385,-1.04954zM314.16194,172.25964h11.67613c1.04954,0 1.96789,0.85275 1.96789,1.90229v11.67613c0,1.04954 -0.91835,1.96789 -1.96789,1.96789h-11.67613c-1.04954,0 -1.90229,-0.91835 -1.90229,-1.96789v-11.67613c0,-1.04954 0.85275,-1.90229 1.90229,-1.90229z" fill="#ef7f1a" fill-rule="evenodd"/><path d="M314.16194,170.42295h11.67613c0.52477,0 0.98394,0.13119 1.44312,0.26238c0.45917,0.19679 0.85275,0.52477 1.18073,0.85275h0.0656c0.32798,0.32798 0.59037,0.78715 0.78715,1.24633c0.19679,0.39358 0.26238,0.91835 0.26238,1.37752v11.67613c0,0.52477 -0.0656,0.98394 -0.26238,1.44312c-0.19679,0.45917 -0.45917,0.85275 -0.78715,1.18073l-0.0656,0.0656c-0.32798,0.32798 -0.72156,0.59037 -1.18073,0.78715c-0.45917,0.19679 -0.91835,0.26238 -1.44312,0.26238h-11.67613c-0.45917,0 -0.98394,-0.0656 -1.37752,-0.26238c-0.45917,-0.19679 -0.91835,-0.45917 -1.24633,-0.78715v-0.0656c-0.32798,-0.32798 -0.65596,-0.72156 -0.85275,-1.18073c-0.13119,-0.45917 -0.26238,-0.91835 -0.26238,-1.44312v-11.67613c0,-0.45917 0.13119,-0.98394 0.26238,-1.37752c0.19679,-0.45917 0.52477,-0.91835 0.85275,-1.24633v0c0.32798,-0.32798 0.78715,-0.65596 1.24633,-0.85275c0.39358,-0.13119 0.91835,-0.26238 1.37752,-0.26238zM325.83806,170.55414h-11.67613c-0.45917,0 -0.91835,0.0656 -1.37752,0.26238c-0.45917,0.19679 -0.85275,0.45917 -1.18073,0.78715v0c-0.32798,0.32798 -0.59037,0.72156 -0.78715,1.18073c-0.19679,0.45917 -0.26238,0.91835 -0.26238,1.37752v11.67613c0,0.45917 0.0656,0.98394 0.26238,1.37752c0.19679,0.45917 0.45917,0.85275 0.78715,1.18073v0c0.32798,0.39358 0.72156,0.65596 1.18073,0.85275c0.45917,0.13119 0.91835,0.26238 1.37752,0.26238h11.67613c0.45917,0 0.98394,-0.13119 1.37752,-0.26238c0.45917,-0.19679 0.85275,-0.45917 1.18073,-0.85275v0c0.39358,-0.32798 0.65596,-0.72156 0.85275,-1.18073c0.13119,-0.39358 0.26238,-0.91835 0.26238,-1.37752v-11.67613c0,-0.45917 -0.13119,-0.91835 -0.26238,-1.37752c-0.19679,-0.45917 -0.45917,-0.85275 -0.85275,-1.18073v0c-0.32798,-0.32798 -0.72156,-0.59037 -1.18073,-0.78715c-0.39358,-0.19679 -0.91835,-0.26238 -1.37752,-0.26238zM314.16194,172.19405h11.67613c0.52477,0 1.04954,0.19679 1.37752,0.59037c0.39358,0.32798 0.59037,0.85275 0.59037,1.37752v11.67613c0,0.52477 -0.19679,1.04954 -0.59037,1.37752c-0.32798,0.39358 -0.85275,0.59037 -1.37752,0.59037h-11.67613c-0.52477,0 -1.04954,-0.19679 -1.37752,-0.59037c-0.39358,-0.32798 -0.59037,-0.85275 -0.59037,-1.37752v-11.67613c0,-0.52477 0.19679,-1.04954 0.59037,-1.37752c0.32798,-0.39358 0.85275,-0.59037 1.37752,-0.59037zM325.83806,172.25964h-11.67613c-0.52477,0 -0.98394,0.26238 -1.31192,0.59037c-0.32798,0.32798 -0.59037,0.78715 -0.59037,1.31192v11.67613c0,0.52477 0.26238,0.98394 0.59037,1.31192c0.32798,0.39358 0.78715,0.59037 1.31192,0.59037h11.67613c0.52477,0 0.98394,-0.19679 1.31192,-0.59037c0.39358,-0.32798 0.59037,-0.78715 0.59037,-1.31192v-11.67613c0,-0.52477 -0.19679,-0.98394 -0.59037,-1.31192c-0.32798,-0.32798 -0.78715,-0.59037 -1.31192,-0.59037z" fill="#fefefe" fill-rule="nonzero"/><path d="M322.75504,176.85138c-0.65596,0 -1.18073,-0.52477 -1.18073,-1.18073c0,-0.65596 0.52477,-1.18073 1.18073,-1.18073c0.65596,0 1.18073,0.52477 1.18073,1.18073c0,0.65596 -0.52477,1.18073 -1.18073,1.18073z" fill="#e63331" fill-rule="nonzero"/><path d="M322.75504,176.98257c-0.72156,0 -1.31192,-0.59037 -1.31192,-1.31192c0,-0.72156 0.59037,-1.31192 1.31192,-1.31192c0.72156,0 1.31192,0.59037 1.31192,1.31192v0.0656c0,0.72156 -0.59037,1.24633 -1.31192,1.24633zM322.75504,174.62111c-0.59037,0 -1.04954,0.45917 -1.04954,1.04954c0,0.59037 0.45917,1.04954 1.04954,1.04954c0.59037,0 1.04954,-0.45917 1.04954,-1.04954c0,-0.59037 -0.45917,-1.04954 -1.04954,-1.04954z" fill="#5a3547" fill-rule="nonzero"/><path d="M324.52614,178.81927c-0.65596,0 -1.18073,-0.52477 -1.18073,-1.18073c0,-0.65596 0.52477,-1.18073 1.18073,-1.18073c0.65596,0 1.18073,0.52477 1.18073,1.18073c0,0.65596 -0.52477,1.18073 -1.18073,1.18073z" fill="#e63331" fill-rule="nonzero"/><path d="M324.52614,178.95046c-0.72156,0 -1.31192,-0.59037 -1.31192,-1.31192c0,-0.72156 0.59037,-1.31192 1.31192,-1.31192c0.72156,0 1.31192,0.59037 1.31192,1.31192v0.0656c0,0.65596 -0.59037,1.24633 -1.31192,1.24633zM324.52614,176.589c-0.59037,0 -1.04954,0.45917 -1.04954,1.04954c0,0.59037 0.45917,1.04954 1.04954,1.04954c0.59037,0 1.04954,-0.45917 1.04954,-1.04954c0,-0.59037 -0.45917,-1.04954 -1.04954,-1.04954z" fill="#5a3547" fill-rule="nonzero"/><path d="M316.98257,185.44449c-0.0656,0 -0.13119,-0.0656 -0.19679,-0.0656l-2.29587,-2.29587c-0.0656,-0.0656 -0.0656,-0.13119 -0.0656,-0.19679v-5.57568c0,-0.13119 0.13119,-0.26238 0.26238,-0.26238h5.57568c0,0 0.0656,0.0656 0.13119,0.0656l2.29587,2.36146c0.0656,0.0656 0.13119,0.13119 0.13119,0.19679v5.51008c0,0.13119 -0.13119,0.26238 -0.26238,0.26238z" fill="#4bb8a5" fill-rule="nonzero"/><path d="M314.68671,177.31055v5.57568l2.29587,2.29587h5.57568v-5.51008l-2.36146,-2.36146zM322.55825,185.64128h-5.57568v0c-0.13119,0 -0.26238,0 -0.32798,-0.13119l-2.36146,-2.29587c-0.0656,-0.0656 -0.13119,-0.19679 -0.13119,-0.32798v-5.57568c0,-0.26238 0.26238,-0.45917 0.52477,-0.45917h5.51008h0.0656c0.0656,0 0.19679,0 0.32798,0.13119l2.29587,2.36146c0.0656,0.0656 0.13119,0.13119 0.13119,0.26238v5.64128c0,0.19679 -0.19679,0.39358 -0.45917,0.39358z" fill="#fefefe" fill-rule="nonzero"/><path d="M319.73762,178.36009c-0.13119,0.65596 -0.78715,1.18073 -0.91835,1.31192c-0.0656,0.0656 -0.52477,0.52477 -0.78715,1.04954h1.24633c-0.19679,-0.32798 -0.52477,-0.65596 -0.52477,-0.65596l0.32798,-0.26238c0,0 0.65596,0.52477 0.72156,1.44312c0,0.85275 -0.59037,1.44312 -1.11514,1.90229c-0.26238,0.19679 -0.45917,0.45917 -0.59037,0.65596h1.11514c-0.13119,-0.19679 -0.26238,-0.39358 -0.39358,-0.45917l0.26238,-0.26238c0,0 0.65596,0.52477 0.65596,1.04954c0.0656,0.45917 -0.39358,0.32798 -0.32798,0.13119c0,-0.0656 0,-0.13119 -0.0656,-0.19679l-1.31192,-0.0656c-0.0656,0.0656 -0.0656,0.0656 -0.0656,0.0656c0,0 -0.0656,0.45917 -0.26238,0.45917c-0.26238,-0.0656 -0.13119,-0.32798 -0.13119,-0.32798c0.13119,-0.91835 0.78715,-1.24633 1.31192,-1.83669c0.13119,-0.13119 0.26238,-0.32798 0.32798,-0.45917l-1.24633,-0.0656c0.19679,0.39358 0.45917,0.65596 0.45917,0.65596l-0.26238,0.26238c-0.98394,-0.85275 -0.78715,-1.7055 -0.52477,-2.23027c0.19679,-0.59037 0.72156,-1.04954 0.98394,-1.24633c0.19679,-0.13119 0.32798,-0.32798 0.45917,-0.52477h-0.91835c0.13119,0.26238 0.26238,0.45917 0.26238,0.45917l-0.26238,0.26238c-0.52477,-0.52477 -0.65596,-1.11514 -0.65596,-1.11514c0,0 -0.13119,-0.26238 0.0656,-0.32798c0.26238,-0.0656 0.32798,0.19679 0.32798,0.19679c0,0.0656 0.0656,0.19679 0.13119,0.32798h1.18073c0.0656,-0.13119 0.0656,-0.19679 0.0656,-0.19679c0,0 0.0656,-0.39358 0.32798,-0.39358c0.19679,0.0656 0.13119,0.39358 0.13119,0.39358zM317.90092,180.91835c0,0.13119 0,0.19679 -0.0656,0.32798c0,0.13119 0.0656,0.19679 0.0656,0.32798h1.37752c0.0656,-0.19679 0.0656,-0.45917 0.0656,-0.65596z" fill="#fefefe" fill-rule="nonzero"/></g></g></g></svg>