<svg version="1.1" xmlns="http://www.w3.org/2000/svg" xmlns:xlink="http://www.w3.org/1999/xlink" width="19.1541" height="19.1541" viewBox="0,0,19.1541,19.1541"><g transform="translate(-310.42295,-170.42295)"><g data-paper-data="{&quot;isPaintingLayer&quot;:true}" stroke="none" stroke-width="1" stroke-linecap="butt" stroke-linejoin="miter" stroke-miterlimit="10" stroke-dasharray="" stroke-dashoffset="0" style="mix-blend-mode: normal"><g><path d="M314.21584,187.77543c-1.09975,0 -1.99127,-0.89152 -1.99127,-1.99127v-11.56832c0,-1.09975 0.89152,-1.99127 1.99127,-1.99127h11.56832c1.09975,0 1.99127,0.89152 1.99127,1.99127v11.56832c0,1.09975 -0.89152,1.99127 -1.99127,1.99127z" fill="#fefefe" fill-rule="evenodd"/><path d="M314.21584,170.51777h11.56832c1.04305,0 1.99127,0.37929 2.65502,1.04305v0c0.66376,0.66376 1.04305,1.61198 1.04305,2.65502v11.56832c0,1.04305 -0.37929,1.99127 -1.04305,2.65502v0c-0.66376,0.66376 -1.61198,1.04305 -2.65502,1.04305h-11.56832c-1.04305,0 -1.99127,-0.37929 -2.65502,-1.04305v0c-0.66376,-0.66376 -1.04305,-1.61198 -1.04305,-2.65502v-11.56832c0,-1.04305 0.37929,-1.99127 1.04305,-2.65502v0c0.66376,-0.66376 1.61198,-1.04305 2.65502,-1.04305zM314.21584,172.22457h11.56832c1.13787,0 1.99127,0.8534 1.99127,1.99127v11.56832c0,1.13787 -0.8534,1.99127 -1.99127,1.99127h-11.56832c-1.13787,0 -1.99127,-0.8534 -1.99127,-1.99127v-11.56832c0,-1.13787 0.8534,-1.99127 1.99127,-1.99127z" fill="#ef7f1a" fill-rule="evenodd"/><path d="M314.21584,170.42295h11.56832c0.56893,0 1.04305,0.09482 1.42233,0.28447c0.47411,0.18964 0.94822,0.47411 1.23269,0.8534v0c0.37929,0.28447 0.66376,0.75858 0.8534,1.23269c0.18964,0.37929 0.28447,0.8534 0.28447,1.42233v11.56832c0,0.56893 -0.09482,1.04305 -0.28447,1.42233c-0.18964,0.47411 -0.47411,0.94822 -0.8534,1.23269v0c-0.28447,0.37929 -0.75858,0.66376 -1.23269,0.8534c-0.37929,0.18964 -0.8534,0.28447 -1.42233,0.28447h-11.56832c-0.56893,0 -1.04305,-0.09482 -1.42233,-0.28447c-0.47411,-0.18964 -0.94822,-0.47411 -1.23269,-0.8534v0c-0.37929,-0.28447 -0.66376,-0.75858 -0.8534,-1.23269c-0.18964,-0.37929 -0.28447,-0.8534 -0.28447,-1.42233v-11.56832c0,-0.56893 0.09482,-1.04305 0.28447,-1.42233c0.18964,-0.47411 0.47411,-0.94822 0.8534,-1.23269v0c0.28447,-0.37929 0.75858,-0.66376 1.23269,-0.8534c0.37929,-0.18964 0.8534,-0.28447 1.42233,-0.28447zM325.78416,170.51777h-11.56832c-0.56893,0 -0.94822,0.09482 -1.42233,0.28447c-0.47411,0.18964 -0.8534,0.47411 -1.23269,0.75858v0c-0.28447,0.37929 -0.56893,0.75858 -0.75858,1.23269c-0.18964,0.47411 -0.28447,0.8534 -0.28447,1.42233v11.56832c0,0.47411 0.09482,0.94822 0.28447,1.42233c0.18964,0.47411 0.47411,0.8534 0.75858,1.13787v0.09482c0.37929,0.28447 0.75858,0.56893 1.23269,0.75858c0.47411,0.18964 0.8534,0.28447 1.42233,0.28447h11.56832c0.47411,0 0.94822,-0.09482 1.42233,-0.28447c0.47411,-0.18964 0.8534,-0.47411 1.13787,-0.75858l0.09482,-0.09482c0.28447,-0.28447 0.56893,-0.66376 0.75858,-1.13787c0.18964,-0.47411 0.28447,-0.94822 0.28447,-1.42233v-11.56832c0,-0.56893 -0.09482,-0.94822 -0.28447,-1.42233c-0.18964,-0.47411 -0.47411,-0.8534 -0.75858,-1.23269h-0.09482c-0.28447,-0.28447 -0.66376,-0.56893 -1.13787,-0.75858c-0.47411,-0.18964 -0.94822,-0.28447 -1.42233,-0.28447zM314.21584,172.22457h11.56832c0.56893,0 1.04305,0.18964 1.42233,0.56893c0.37929,0.37929 0.56893,0.8534 0.56893,1.42233v11.56832c0,0.56893 -0.18964,1.04305 -0.56893,1.42233c-0.37929,0.37929 -0.8534,0.56893 -1.42233,0.56893h-11.56832c-0.56893,0 -1.04305,-0.18964 -1.42233,-0.56893c-0.37929,-0.37929 -0.56893,-0.8534 -0.56893,-1.42233v-11.56832c0,-0.56893 0.18964,-1.04305 0.56893,-1.42233c0.37929,-0.37929 0.8534,-0.56893 1.42233,-0.56893zM325.78416,172.3194h-11.56832c-0.56893,0 -1.04305,0.18964 -1.32751,0.56893c-0.37929,0.28447 -0.56893,0.75858 -0.56893,1.32751v11.56832c0,0.56893 0.18964,1.04305 0.56893,1.32751c0.28447,0.37929 0.75858,0.56893 1.32751,0.56893h11.56832c0.56893,0 1.04305,-0.18964 1.32751,-0.56893c0.37929,-0.28447 0.56893,-0.75858 0.56893,-1.32751v-11.56832c0,-0.56893 -0.18964,-1.04305 -0.56893,-1.32751c-0.28447,-0.37929 -0.75858,-0.56893 -1.32751,-0.56893z" fill="#fefefe" fill-rule="nonzero"/><path d="M322.5602,176.5864c-0.66376,0 -1.23269,-0.56893 -1.23269,-1.23269c0,-0.66376 0.56893,-1.13787 1.23269,-1.13787c0.56893,0 1.13787,0.47411 1.13787,1.13787c0,0.66376 -0.56893,1.23269 -1.13787,1.23269z" fill="#e63331" fill-rule="nonzero"/><path d="M322.5602,176.68122c-0.75858,0 -1.32751,-0.56893 -1.32751,-1.32751c0,-0.75858 0.56893,-1.32751 1.32751,-1.32751c0.66376,0 1.23269,0.56893 1.23269,1.32751v0.09482c0,0.66376 -0.56893,1.23269 -1.23269,1.23269zM322.5602,174.31066c-0.66376,0 -1.13787,0.47411 -1.13787,1.04305c0,0.56893 0.47411,1.04305 1.13787,1.04305c0.56893,0 1.04305,-0.47411 1.04305,-1.04305c0,-0.56893 -0.47411,-1.04305 -1.04305,-1.04305z" fill="#5a3547" fill-rule="nonzero"/><path d="M324.267,178.48284c-0.66376,0 -1.13787,-0.47411 -1.13787,-1.13787c0,-0.66376 0.47411,-1.23269 1.13787,-1.23269c0.66376,0 1.23269,0.56893 1.23269,1.23269c0,0.66376 -0.56893,1.13787 -1.23269,1.13787z" fill="#e63331" fill-rule="nonzero"/><path d="M324.267,178.67249c-0.75858,0 -1.32751,-0.56893 -1.32751,-1.32751c0,-0.75858 0.56893,-1.32751 1.32751,-1.32751c0.75858,0 1.32751,0.56893 1.32751,1.23269v0.09482c0,0.75858 -0.56893,1.32751 -1.32751,1.32751zM324.267,176.30193c-0.56893,0 -1.04305,0.47411 -1.04305,1.04305c0,0.56893 0.47411,1.04305 1.04305,1.04305c0.56893,0 1.04305,-0.47411 1.04305,-1.04305c0,-0.56893 -0.47411,-1.04305 -1.04305,-1.04305z" fill="#5a3547" fill-rule="nonzero"/><path d="M314.78477,185.68934c0,0 -0.09482,0 -0.18964,-0.09482c0,-0.09482 0,-0.18964 0.09482,-0.18964l1.7068,-1.99127v-3.79289l-1.7068,-1.89645c-0.09482,-0.09482 -0.09482,-0.09482 -0.09482,-0.18964c0,-0.09482 0.09482,-0.18964 0.18964,-0.18964h7.01685c0.09482,0 0.18964,0.09482 0.18964,0.18964c0,0.09482 -0.09482,0.18964 -0.09482,0.18964l-1.80162,1.89645v3.79289l1.80162,1.99127c0.09482,0 0.09482,0.09482 0,0.18964c0,0.09482 -0.09482,0.09482 -0.18964,0.09482z" fill="#695ba3" fill-rule="nonzero"/><path d="M314.78477,177.53462v0l1.89645,1.99127v3.98254l-1.89645,1.99127h6.92203l-1.80162,-1.99127v-3.98254l1.80162,-1.99127h0.09482v0zM322.18091,177.53462c0,0.09482 -0.09482,0.28447 -0.18964,0.37929l-1.61198,1.80162v3.69807l1.7068,1.80162c0.09482,0.09482 0.09482,0.28447 0,0.47411c0,0.18964 -0.18964,0.28447 -0.37929,0.28447h-6.92203c-0.09482,0 -0.28447,-0.09482 -0.37929,-0.28447c0,-0.18964 0,-0.37929 0.09482,-0.47411l1.7068,-1.80162v-3.69807l-1.7068,-1.89645c-0.09482,-0.09482 -0.09482,-0.18964 -0.09482,-0.28447c0,-0.18964 0.18964,-0.37929 0.37929,-0.37929h7.01685c0.18964,0 0.37929,0.18964 0.37929,0.37929z" fill="#fefefe" fill-rule="nonzero"/><path d="M319.43107,178.57767c-0.18964,0.66376 -0.75858,1.23269 -0.94822,1.32751c-0.09482,0.09482 -0.56893,0.56893 -0.75858,1.04305h1.23269c-0.18964,-0.28447 -0.47411,-0.56893 -0.47411,-0.56893l0.28447,-0.37929c0,0 0.66376,0.66376 0.66376,1.51716c0.09482,0.8534 -0.56893,1.42233 -1.04305,1.89645c-0.28447,0.28447 -0.47411,0.47411 -0.56893,0.66376h1.04305c-0.09482,-0.18964 -0.28447,-0.37929 -0.37929,-0.47411l0.28447,-0.28447c0,0 0.66376,0.66376 0.66376,1.13787c0.09482,0.47411 -0.37929,0.37929 -0.37929,0.09482c0,0 0,-0.09482 0,-0.18964h-1.42233v0c0,0 0,0.47411 -0.28447,0.47411c-0.18964,0 -0.09482,-0.37929 -0.09482,-0.37929c0.09482,-0.94822 0.75858,-1.23269 1.32751,-1.80162c0.18964,-0.18964 0.28447,-0.28447 0.28447,-0.47411h-1.23269c0.18964,0.37929 0.47411,0.66376 0.47411,0.66376l-0.28447,0.18964c-0.94822,-0.8534 -0.75858,-1.7068 -0.56893,-2.27573c0.28447,-0.56893 0.8534,-1.04305 1.04305,-1.23269c0.18964,-0.09482 0.37929,-0.28447 0.47411,-0.47411h-0.94822c0.18964,0.18964 0.28447,0.37929 0.28447,0.37929l-0.28447,0.28447c-0.56893,-0.56893 -0.66376,-1.04305 -0.66376,-1.04305c0,0 -0.09482,-0.28447 0.09482,-0.37929c0.28447,-0.09482 0.28447,0.18964 0.28447,0.18964c0,0.09482 0.09482,0.18964 0.18964,0.28447h1.23269c0,-0.09482 0,-0.18964 0,-0.18964c0,0 0.09482,-0.37929 0.37929,-0.37929c0.18964,0.09482 0.09482,0.37929 0.09482,0.37929zM317.62944,181.23269c-0.09482,0.09482 -0.09482,0.18964 -0.09482,0.28447c0,0.09482 0,0.28447 0,0.37929h1.42233c0.09482,-0.28447 0.09482,-0.47411 0,-0.66376z" fill="#fefefe" fill-rule="nonzero"/></g></g></g></svg>