<svg version="1.1" xmlns="http://www.w3.org/2000/svg" xmlns:xlink="http://www.w3.org/1999/xlink" width="19.1541" height="19.1541" viewBox="0,0,19.1541,19.1541"><g transform="translate(-310.42295,-170.42295)"><g data-paper-data="{&quot;isPaintingLayer&quot;:true}" stroke="none" stroke-width="1" stroke-linecap="butt" stroke-linejoin="miter" stroke-miterlimit="10" stroke-dasharray="" stroke-dashoffset="0" style="mix-blend-mode: normal"><g><path d="M314.22075,187.76071c-1.09433,0 -1.98146,-0.88713 -1.98146,-1.98146v-11.55851c0,-1.09433 0.88713,-1.98146 1.98146,-1.98146h11.55851c1.09433,0 1.98146,0.88713 1.98146,1.98146v11.55851c0,1.09433 -0.88713,1.98146 -1.98146,1.98146z" fill="#fefefe" fill-rule="evenodd"/><path d="M314.22075,170.50551h11.64107c0.99073,0 1.8989,0.4128 2.55938,1.07329v0c0.74305,0.66049 1.15585,1.56865 1.15585,2.64194v11.64107c0,0.99073 -0.4128,1.8989 -1.15585,2.55938v0c-0.66049,0.74305 -1.56865,1.15585 -2.55938,1.15585h-11.64107c-1.07329,0 -1.98146,-0.4128 -2.64194,-1.15585v0c-0.66049,-0.66049 -1.07329,-1.56865 -1.07329,-2.55938v-11.64107c0,-1.07329 0.4128,-1.98146 1.07329,-2.64194v0c0.66049,-0.66049 1.56865,-1.07329 2.64194,-1.07329zM314.22075,172.23929h11.64107c1.07329,0 1.8989,0.90817 1.8989,1.98146v11.64107c0,1.07329 -0.82561,1.8989 -1.8989,1.8989h-11.64107c-1.07329,0 -1.98146,-0.82561 -1.98146,-1.8989v-11.64107c0,-1.07329 0.90817,-1.98146 1.98146,-1.98146z" fill="#ef7f1a" fill-rule="evenodd"/><path d="M314.22075,170.42295h11.64107c0.49536,0 0.99073,0.08256 1.40353,0.24768c0.49536,0.24768 0.90817,0.49536 1.23841,0.82561v0c0.33024,0.4128 0.57793,0.82561 0.82561,1.23841c0.16512,0.49536 0.24768,0.99073 0.24768,1.48609v11.64107c0,0.49536 -0.08256,0.99073 -0.24768,1.40353c-0.24768,0.49536 -0.49536,0.90817 -0.82561,1.23841v0c-0.33024,0.33024 -0.74305,0.57793 -1.23841,0.82561c-0.4128,0.16512 -0.90817,0.24768 -1.40353,0.24768h-11.64107c-0.49536,0 -0.99073,-0.08256 -1.48609,-0.24768c-0.4128,-0.24768 -0.82561,-0.49536 -1.23841,-0.82561v0c-0.33024,-0.33024 -0.57793,-0.74305 -0.82561,-1.23841c-0.16512,-0.4128 -0.24768,-0.90817 -0.24768,-1.40353v-11.64107c0,-0.49536 0.08256,-0.99073 0.24768,-1.48609c0.24768,-0.4128 0.49536,-0.82561 0.82561,-1.23841v0c0.4128,-0.33024 0.82561,-0.57793 1.23841,-0.82561c0.49536,-0.16512 0.99073,-0.24768 1.48609,-0.24768zM325.86182,170.50551h-11.64107c-0.49536,0 -0.99073,0.08256 -1.40353,0.33024c-0.49536,0.16512 -0.90817,0.4128 -1.23841,0.74305v0c-0.33024,0.33024 -0.57793,0.74305 -0.74305,1.23841c-0.24768,0.4128 -0.33024,0.90817 -0.33024,1.40353v11.64107c0,0.49536 0.08256,0.90817 0.33024,1.40353c0.16512,0.4128 0.4128,0.82561 0.74305,1.15585v0c0.33024,0.33024 0.74305,0.57793 1.23841,0.82561c0.4128,0.16512 0.90817,0.24768 1.40353,0.24768h11.64107c0.49536,0 0.90817,-0.08256 1.40353,-0.24768c0.4128,-0.24768 0.82561,-0.49536 1.15585,-0.82561v0c0.33024,-0.33024 0.57793,-0.74305 0.82561,-1.15585c0.16512,-0.49536 0.24768,-0.90817 0.24768,-1.40353v-11.64107c0,-0.49536 -0.08256,-0.99073 -0.24768,-1.40353c-0.24768,-0.49536 -0.49536,-0.90817 -0.82561,-1.23841v0c-0.33024,-0.33024 -0.74305,-0.57793 -1.15585,-0.74305c-0.49536,-0.24768 -0.90817,-0.33024 -1.40353,-0.33024zM314.22075,172.15673h11.64107c0.49536,0 0.99073,0.24768 1.40353,0.66049c0.33024,0.33024 0.57793,0.82561 0.57793,1.40353v11.64107c0,0.49536 -0.24768,0.99073 -0.57793,1.40353c-0.4128,0.33024 -0.90817,0.57793 -1.40353,0.57793h-11.64107c-0.57793,0 -1.07329,-0.24768 -1.40353,-0.57793c-0.4128,-0.4128 -0.66049,-0.90817 -0.66049,-1.40353v-11.64107c0,-0.57793 0.24768,-1.07329 0.66049,-1.40353c0.33024,-0.4128 0.82561,-0.66049 1.40353,-0.66049zM325.86182,172.32185h-11.64107c-0.57793,0 -0.99073,0.16512 -1.40353,0.49536c-0.33024,0.4128 -0.49536,0.82561 -0.49536,1.40353v11.64107c0,0.49536 0.16512,0.99073 0.49536,1.32097c0.4128,0.33024 0.82561,0.57793 1.40353,0.57793h11.64107c0.49536,0 0.99073,-0.24768 1.32097,-0.57793c0.33024,-0.33024 0.57793,-0.82561 0.57793,-1.32097v-11.64107c0,-0.57793 -0.24768,-0.99073 -0.57793,-1.40353c-0.33024,-0.33024 -0.82561,-0.49536 -1.32097,-0.49536z" fill="#fefefe" fill-rule="nonzero"/><path d="M324.2106,177.02781c-0.66049,0 -1.15585,-0.57793 -1.15585,-1.15585c0,-0.66049 0.49536,-1.23841 1.15585,-1.23841c0.66049,0 1.15585,0.57793 1.15585,1.23841c0,0.57793 -0.49536,1.15585 -1.15585,1.15585z" fill="#e63331" fill-rule="nonzero"/><path d="M324.2106,177.19293c-0.74305,0 -1.32097,-0.66049 -1.32097,-1.32097c0,-0.74305 0.57793,-1.40353 1.32097,-1.40353c0.74305,0 1.32097,0.57793 1.32097,1.32097v0.08256c0,0.74305 -0.57793,1.32097 -1.32097,1.32097zM324.2106,174.79867c-0.57793,0 -1.07329,0.49536 -1.07329,1.07329c0,0.57793 0.49536,0.99073 1.07329,0.99073c0.57793,0 1.07329,-0.4128 1.07329,-0.99073c0,-0.57793 -0.49536,-1.07329 -1.07329,-1.07329z" fill="#5a3547" fill-rule="nonzero"/><path d="M321.15585,177.85342l2.14658,3.7978l-2.14658,3.88036h-4.45828l-2.22914,-3.88036v0l2.22914,-3.7978z" fill="#fefefe" fill-rule="nonzero"/><path d="M321.48609,184.04548c0,0 -0.08256,0 -0.08256,-0.08256c-0.4128,-0.33024 -0.74305,-1.07329 -1.32097,-2.55938c-0.33024,-0.82561 -0.66049,-1.23841 -0.99073,-1.23841v0c-0.4128,0 -0.82561,0.57793 -1.07329,1.07329c-0.4128,0.90817 -2.39426,1.48609 -2.55938,1.56865c-0.16512,0.08256 -0.24768,0 -0.24768,-0.08256c-0.08256,-0.16512 0,-0.24768 0.08256,-0.24768c0.57793,-0.16512 2.14658,-0.74305 2.39426,-1.40353c0.16512,-0.24768 0.74305,-1.32097 1.48609,-1.32097c0.49536,0.08256 0.90817,0.57793 1.23841,1.56865c0.57793,1.40353 0.90817,2.14658 1.23841,2.39426c0.08256,0.08256 0.08256,0.16512 0,0.24768c-0.08256,0.08256 -0.08256,0.08256 -0.16512,0.08256z" fill="#8b8f93" fill-rule="nonzero"/><path d="M316.28477,184.04548c-0.08256,0 -0.08256,0 -0.08256,0c-0.08256,0 -0.16512,-0.08256 -0.16512,-0.16512l0.16512,-1.56865c0,-0.16512 0.08256,-0.16512 0.16512,-0.16512c0.08256,0 0.16512,0.08256 0.16512,0.16512l-0.08256,1.56865c0,0.08256 -0.08256,0.16512 -0.16512,0.16512z" fill="#8b8f93" fill-rule="nonzero"/><path d="M317.11037,185.20133c-0.16512,0 -0.24768,-0.08256 -0.24768,-0.16512l-0.16512,-2.88963c-0.08256,-0.08256 0,-0.24768 0.16512,-0.24768c0.08256,0 0.16512,0.08256 0.16512,0.16512l0.24768,2.97219c0,0.08256 -0.08256,0.16512 -0.16512,0.16512z" fill="#8b8f93" fill-rule="nonzero"/><path d="M317.6883,185.20133v0c-0.16512,0 -0.24768,-0.08256 -0.24768,-0.16512l0.16512,-3.71523c0,-0.08256 0.08256,-0.16512 0.16512,-0.16512c0.16512,0 0.24768,0.08256 0.16512,0.16512l-0.08256,3.71523c0,0.08256 -0.08256,0.16512 -0.16512,0.16512z" fill="#8b8f93" fill-rule="nonzero"/><path d="M318.59647,185.20133c-0.08256,0 -0.16512,-0.08256 -0.16512,-0.16512l-0.4128,-4.37572c0,-0.16512 0.08256,-0.24768 0.24768,-0.24768c0.08256,0 0.16512,0.08256 0.16512,0.16512l0.4128,4.45828c0,0.08256 -0.08256,0.16512 -0.16512,0.16512c-0.08256,0 -0.08256,0 -0.08256,0z" fill="#8b8f93" fill-rule="nonzero"/><path d="M319.09183,185.36645v0c-0.08256,0 -0.16512,-0.08256 -0.16512,-0.16512l0.16512,-5.11877c0,-0.16512 0.08256,-0.24768 0.24768,-0.24768c0.08256,0 0.16512,0.08256 0.16512,0.24768l-0.16512,5.11877c-0.08256,0.08256 -0.16512,0.16512 -0.24768,0.16512z" fill="#8b8f93" fill-rule="nonzero"/><path d="M320.16512,185.36645c-0.16512,0 -0.24768,-0.08256 -0.24768,-0.24768l-0.24768,-4.6234c0,-0.08256 0.08256,-0.16512 0.16512,-0.16512c0.08256,0 0.16512,0.08256 0.16512,0.16512l0.33024,4.6234c0,0.08256 -0.08256,0.16512 -0.16512,0.24768z" fill="#8b8f93" fill-rule="nonzero"/><path d="M320.66049,185.20133c-0.08256,0 -0.08256,0 -0.08256,0c-0.08256,0 -0.16512,-0.08256 -0.16512,-0.16512l0.33024,-2.14658c0,-0.08256 0.08256,-0.16512 0.16512,-0.08256c0.08256,0 0.16512,0.08256 0.16512,0.16512l-0.24768,2.06402c0,0.08256 -0.08256,0.16512 -0.16512,0.16512z" fill="#8b8f93" fill-rule="nonzero"/><path d="M319.17439,185.36645l-0.08256,-0.08256v0l0.90817,-0.4128l-0.74305,-0.4128v0v-0.08256l0.57793,-0.49536l-0.57793,-0.33024v0c0,-0.08256 0,-0.08256 0,-0.08256l0.49536,-0.4128l-0.4128,-0.4128c-0.08256,0 -0.08256,-0.08256 -0.08256,-0.08256c0,0 0,0 0.08256,0l0.4128,-0.4128l-0.4128,-0.49536v-0.08256l0.4128,-0.49536l-0.4128,-0.49536c0,0 0,-0.08256 0.08256,-0.08256v0l0.4128,0.57793v0.08256l-0.4128,0.4128l0.4128,0.49536c0,0.08256 0,0.08256 0,0.08256l-0.4128,0.4128l0.4128,0.49536c0.08256,0 0.08256,0 0.08256,0c0,0 0,0 -0.08256,0.08256l-0.4128,0.4128l0.49536,0.33024v0c0,0 0,0 0,0.08256l-0.57793,0.49536l0.74305,0.33024c0,0 0,0 0,0.08256v0l-0.90817,0.49536z" fill="#8b8f93" fill-rule="nonzero"/><path d="M318.51391,185.20133c0,0 -0.08256,0 -0.08256,-0.08256l-0.66049,-0.49536v0c0,-0.08256 0,-0.08256 0,-0.08256l0.49536,-0.33024l-0.49536,-0.16512v0c0,-0.08256 0,-0.08256 0,-0.08256l0.49536,-0.33024l-0.49536,-0.24768v0v-0.08256l0.4128,-0.33024l-0.4128,-0.16512v0c0,0 0,0 0,-0.08256l0.4128,-0.33024l-0.33024,-0.24768c-0.08256,-0.08256 -0.08256,-0.08256 -0.08256,-0.08256c0,0 0,0 0.08256,0l0.24768,-0.4128l-0.24768,-0.16512c-0.08256,0 -0.08256,0 -0.08256,0c0.08256,-0.08256 0.08256,-0.08256 0.08256,-0.08256l0.33024,0.24768c0.08256,0 0.08256,0 0.08256,0v0.08256l-0.33024,0.33024l0.33024,0.24768c0,0 0,0 0,0.08256v0l-0.33024,0.4128l0.4128,0.16512v0v0.08256l-0.4128,0.33024l0.4128,0.16512v0.08256v0l-0.49536,0.33024l0.57793,0.16512v0.08256v0l-0.57793,0.4128l0.66049,0.49536v0c0,0.08256 0,0.08256 0,0.08256z" fill="#8b8f93" fill-rule="nonzero"/><path d="M316.86269,184.12804h-0.08256l-0.4128,-0.57793v0v0l0.33024,-0.16512l-0.33024,-0.16512v-0.08256v0l0.33024,-0.24768l-0.24768,-0.16512c0,0 -0.08256,0 -0.08256,-0.08256c0,0 0,0 0.08256,0l0.33024,-0.33024c0,0 0,0 0.08256,0c0,0.08256 0,0.08256 -0.08256,0.08256l-0.24768,0.24768l0.33024,0.24768v0v0l-0.4128,0.24768l0.33024,0.24768c0.08256,0 0.08256,0 0.08256,0c0,0.08256 -0.08256,0.08256 -0.08256,0.08256l-0.33024,0.08256l0.4128,0.49536v0.08256z" fill="#8b8f93" fill-rule="nonzero"/><path d="M321.32097,185.11877c0,0 0,0 -0.08256,0l-0.4128,-0.4128c0,0 0,0 0,-0.08256v0l0.33024,-0.08256l-0.33024,-0.16512v0c0,-0.08256 0,-0.08256 0,-0.08256l0.33024,-0.16512l-0.24768,-0.08256v-0.08256v0l0.33024,-0.24768c0,0 0,0 0.08256,0v0.08256l-0.33024,0.16512l0.33024,0.16512v0v0.08256l-0.4128,0.16512l0.33024,0.16512c0.08256,0 0.08256,0 0.08256,0c0,0.08256 0,0.08256 -0.08256,0.08256l-0.24768,0.08256l0.33024,0.33024v0.08256z" fill="#8b8f93" fill-rule="nonzero"/><path d="M320.82561,180.99073c0,0 0,0.08256 0.16512,0.4128c0.16512,0.4128 -0.16512,0.49536 -0.16512,0.49536l-0.33024,-0.74305z" fill="#8b8f93" fill-rule="nonzero"/><path d="M321.07329,181.07329c0,0.08256 0,0.08256 -0.08256,0.08256c-0.08256,0 -0.08256,0 -0.08256,-0.08256c0,0 0,-0.08256 0.08256,-0.08256c0.08256,0 0.08256,0.08256 0.08256,0.08256z" fill="#8b8f93" fill-rule="nonzero"/><path d="M321.23841,181.40353c0,0.08256 -0.08256,0.08256 -0.08256,0.08256c-0.08256,0 -0.16512,0 -0.16512,-0.08256c0,0 0.08256,-0.08256 0.16512,-0.08256z" fill="#8b8f93" fill-rule="nonzero"/><path d="M321.15585,177.85342l2.14658,3.7978l-2.14658,3.88036h-4.45828l-2.22914,-3.88036v0l2.22914,-3.7978zM317.19293,184.70596h3.46755l1.73378,-3.05475l-1.73378,-2.97219h-3.46755l-1.73378,2.97219z" fill="#8b8f93" fill-rule="nonzero"/><path d="M321.15585,177.85342l2.14658,3.7978l-2.14658,3.88036h-4.45828l-2.22914,-3.88036v0l2.22914,-3.7978zM317.02781,184.95365h3.7978l1.81634,-3.30243l-1.81634,-3.21987h-3.7978l-1.8989,3.21987z" fill="#4e4e50" fill-rule="nonzero"/></g></g></g></svg>