<svg version="1.1" xmlns="http://www.w3.org/2000/svg" xmlns:xlink="http://www.w3.org/1999/xlink" width="19.28006" height="19.2765" viewBox="0,0,19.28006,19.2765"><g transform="translate(-310.35997,-170.36175)"><g data-paper-data="{&quot;isPaintingLayer&quot;:true}" stroke="none" stroke-width="0" stroke-linecap="butt" stroke-linejoin="miter" stroke-miterlimit="10" stroke-dasharray="" stroke-dashoffset="0" style="mix-blend-mode: normal"><g><path d="M314.15987,187.82708c-1.09442,0 -1.98163,-0.88721 -1.98163,-1.98163v-11.68381c0,-1.09442 0.88721,-1.98163 1.98163,-1.98163h11.68381c1.09442,0 1.98163,0.88721 1.98163,1.98163v11.68381c0,1.09442 -0.88721,1.98163 -1.98163,1.98163z" fill="#fefefe" fill-rule="nonzero"/><path d="M314.1066,170.36175h11.68026c1.10091,0 1.98163,0.44036 2.64217,1.10091v0c0.77063,0.77063 1.10091,1.65136 1.10091,2.64573v11.68026c0,1.10091 -0.33027,1.98163 -1.10091,2.64573v0c-0.66054,0.77063 -1.54127,1.10091 -2.64573,1.10091h-11.6767c-0.99082,0 -1.87154,-0.33027 -2.64573,-1.10091v0c-0.66054,-0.66409 -1.10091,-1.54482 -1.10091,-2.64573v-11.68026c0,-0.99082 0.44036,-1.87509 1.10091,-2.64573v0c0.77063,-0.66054 1.65491,-1.10091 2.64573,-1.10091zM314.1066,172.23329h11.68026c1.10091,0 1.98163,0.88072 1.98163,1.87154v11.68026c0,1.10091 -0.88072,1.98163 -1.98163,1.98163h-11.68026c-0.99082,0 -1.87154,-0.88072 -1.87154,-1.98163v-11.6767c0,-0.99082 0.88072,-1.87154 1.87154,-1.87154z" fill="#ef7f1a" fill-rule="evenodd"/><path d="M314.1066,170.36175h11.68026c0.55045,0 1.10091,0.11009 1.54127,0.33027c0.44036,0.11009 0.88072,0.44036 1.211,0.77063v0c0.33027,0.33027 0.55045,0.77063 0.77063,1.211c0.22018,0.44036 0.33027,0.99082 0.33027,1.43118v11.68026c0,0.55045 -0.11009,1.10091 -0.33027,1.54127c-0.22018,0.44036 -0.44036,0.88072 -0.77063,1.211v0c-0.33027,0.33027 -0.77063,0.55045 -1.211,0.77063c-0.44036,0.22018 -0.99082,0.33027 -1.54127,0.33027h-11.68026c-0.44036,0 -0.99082,-0.11009 -1.43118,-0.33027c-0.44036,-0.22018 -0.88072,-0.44036 -1.211,-0.77063v0c-0.33027,-0.33027 -0.66054,-0.77063 -0.77063,-1.211c-0.22373,-0.43681 -0.33382,-0.98726 -0.33382,-1.53772v-11.68026c0,-0.44036 0.11009,-0.99082 0.33027,-1.43118c0.11009,-0.44036 0.44036,-0.88072 0.77063,-1.211v0c0.33027,-0.33027 0.77063,-0.66054 1.211,-0.77063c0.44391,-0.22373 0.99437,-0.33382 1.43473,-0.33382zM325.78686,170.47184h-11.68026c-0.44036,0 -0.88072,0.11009 -1.32109,0.22018c-0.44036,0.22018 -0.88072,0.55045 -1.211,0.88072v0c-0.33027,0.33027 -0.66054,0.77063 -0.88072,1.211c-0.11009,0.44036 -0.22018,0.88072 -0.22018,1.32109v11.68026c0,0.55045 0.11009,0.99082 0.22018,1.43118c0.22018,0.44036 0.55045,0.88072 0.88072,1.211v0c0.33027,0.33027 0.77063,0.66054 1.211,0.77063c0.44036,0.22018 0.88072,0.33027 1.32109,0.33027h11.68026c0.55045,0 0.99082,-0.11009 1.43118,-0.33027c0.44036,-0.11009 0.88072,-0.44036 1.211,-0.77063v0c0.33027,-0.33027 0.66054,-0.77063 0.77063,-1.211c0.22018,-0.44036 0.33027,-0.88072 0.33027,-1.43118v-11.6767c0,-0.44036 -0.11009,-0.88072 -0.33027,-1.32109c-0.11009,-0.44036 -0.44036,-0.88072 -0.77063,-1.211v0c-0.33027,-0.33027 -0.77063,-0.66054 -1.211,-0.88072c-0.44036,-0.11009 -0.88072,-0.22018 -1.43118,-0.22018zM314.1066,172.1232h11.68026c0.55045,0 1.10091,0.22018 1.43118,0.55045c0.44036,0.44036 0.66054,0.88072 0.66054,1.43118v11.68026c0,0.55045 -0.22018,1.10091 -0.66054,1.43118c-0.33027,0.44036 -0.88072,0.66054 -1.43118,0.66054h-11.68026c-0.55045,0 -0.99082,-0.22018 -1.43118,-0.66054c-0.33027,-0.33027 -0.55045,-0.88072 -0.55045,-1.43118v-11.6767c0,-0.55045 0.22018,-0.99082 0.55045,-1.43118c0.44036,-0.33027 0.88072,-0.55045 1.43118,-0.55045zM325.78686,172.23329h-11.68026c-0.44036,0 -0.99082,0.22018 -1.32109,0.55045c-0.33027,0.33027 -0.55045,0.88072 -0.55045,1.32109v11.68026c0,0.55045 0.22018,1.10091 0.55045,1.43118c0.33027,0.33027 0.88072,0.55045 1.32109,0.55045h11.68026c0.55045,0 1.10091,-0.22018 1.43118,-0.55045c0.33027,-0.33027 0.55045,-0.88072 0.55045,-1.43118v-11.6767c0,-0.44036 -0.22018,-0.99082 -0.55045,-1.32109c-0.33027,-0.33027 -0.88072,-0.55045 -1.43118,-0.55045z" fill="#fefefe" fill-rule="nonzero"/><path d="M322.59068,176.64046c-0.66054,0 -1.211,-0.55045 -1.211,-1.211c0,-0.66054 0.55045,-1.10091 1.211,-1.10091c0.66054,0 1.211,0.44036 1.211,1.10091c0,0.66054 -0.55045,1.211 -1.211,1.211z" fill="#e63331" fill-rule="nonzero"/><path d="M322.59068,176.75055c-0.77063,0 -1.32109,-0.55045 -1.32109,-1.32109c0,-0.66054 0.55045,-1.32109 1.32109,-1.32109c0.66054,0 1.32109,0.66054 1.32109,1.32109v0.11009c0,0.66054 -0.66054,1.211 -1.32109,1.211zM322.59068,174.43865c-0.66054,0 -1.10091,0.44036 -1.10091,0.99082c0,0.66054 0.44036,1.10091 1.10091,1.10091c0.55045,0 0.99082,-0.44036 0.99082,-1.10091c0,-0.55045 -0.44036,-0.99082 -0.99082,-0.99082z" fill="#5a3547" fill-rule="nonzero"/><path d="M324.57231,178.51555c-0.66054,0 -1.211,-0.44036 -1.211,-1.10091c0,-0.66054 0.55045,-1.211 1.211,-1.211c0.66054,0 1.211,0.55045 1.211,1.211c0,0.66054 -0.55045,1.10091 -1.211,1.10091z" fill="#e63331" fill-rule="nonzero"/><path d="M324.57231,178.73573c-0.77063,0 -1.32109,-0.66054 -1.32109,-1.32109c0,-0.77063 0.55045,-1.43118 1.32109,-1.43118c0.77063,0 1.32109,0.66054 1.32109,1.32109v0.11009c0,0.66054 -0.55045,1.32109 -1.32109,1.32109zM324.57231,176.31019c-0.55045,0 -1.10091,0.44036 -1.10091,1.10091c0,0.55045 0.55045,0.99082 1.10091,0.99082c0.55045,0 1.10091,-0.44036 1.10091,-0.99082c0,-0.66054 -0.55045,-1.10091 -1.10091,-1.10091z" fill="#5a3547" fill-rule="nonzero"/><path d="M323.91177,183.80345l0.44036,0.66054l-2.31545,1.10091l-2.20536,-1.10091l0.44036,-0.66054l-1.10091,-1.211l1.10091,-1.10091l-0.44036,-0.77063l2.20536,-0.99082l2.31545,0.99082c0,0 -0.33027,0.44036 -0.44036,0.77063l1.10091,1.10091z" fill="#00abe8" fill-rule="nonzero"/><path d="M319.83486,180.71736l0.44036,0.77063l-1.10091,1.10091l1.10091,1.211l-0.44036,0.66054l2.20536,1.10091l2.31545,-1.10091l-0.44036,-0.66054l1.10091,-1.211l-1.10091,-1.10091c0.11009,-0.33027 0.44036,-0.77063 0.44036,-0.77063l-2.31545,-0.99082zM322.26041,179.39628l2.20536,1.10091c0.11009,0 0.11009,0.11009 0.11009,0.22018c0.11009,0.11009 0,0.11009 0,0.22018c-0.11009,0.11009 -0.22018,0.33027 -0.33027,0.44036l0.44036,0.44036c0.22018,0.33027 0.55045,0.66054 0.55045,0.66054l0.11009,0.11009v0c0,0.11009 -0.11009,0.22018 -0.11009,0.22018l-0.88072,1.10091l0.22018,0.44036c0.07339,0.07339 0.07339,0.14679 0,0.22018c0,0.07339 -0.0367,0.14679 -0.11009,0.22018l-2.20536,0.99082c-0.11009,0 -0.11009,0.11009 -0.22018,0.11009v0c0,0 0,-0.11009 -0.11009,-0.11009l-2.20536,-0.99082l-0.22018,-0.22018c0,-0.07339 0.0367,-0.14679 0.11009,-0.22018l0.22018,-0.44036l-0.88072,-1.10091c-0.11009,-0.11009 -0.11009,-0.22018 0,-0.44036l0.99082,-0.99082l-0.33027,-0.44036c-0.11009,-0.11009 -0.11009,-0.22018 -0.11009,-0.22018c0.11009,-0.11009 0.11009,-0.22018 0.22018,-0.22018l2.20536,-1.10091h0.11009z" fill="#4e4e50" fill-rule="nonzero"/><path d="M322.92095,180.49718c-0.11009,0.44036 -0.55045,0.88072 -0.66054,0.99082c-0.11009,0.11009 -0.44036,0.33027 -0.55045,0.77063h0.88072c-0.11009,-0.22018 -0.33027,-0.44036 -0.33027,-0.44036l0.22018,-0.22018c0,0 0.44036,0.33027 0.44036,0.99082c0,0.66054 -0.44036,1.10091 -0.77063,1.43118c-0.22018,0.11009 -0.33027,0.33027 -0.44036,0.44036h0.77063c0,-0.11009 -0.11009,-0.22018 -0.22018,-0.33027l0.22018,-0.22018c0,0 0.44036,0.44036 0.44036,0.77063c0,0.44036 -0.22018,0.33027 -0.22018,0.11009c0,0 0,-0.11009 -0.11009,-0.11009h-0.99082c0,0 0,0.33027 -0.22018,0.33027c-0.11009,0 -0.11009,-0.22018 -0.11009,-0.22018c0.11009,-0.66054 0.66054,-0.88072 0.99082,-1.32109c0.11009,-0.11009 0.22018,-0.22018 0.22018,-0.33027l-0.88072,-0.11009c0.22018,0.33027 0.33027,0.55045 0.33027,0.55045l-0.11009,0.11009c-0.77063,-0.55045 -0.66054,-1.211 -0.44036,-1.54127c0.11009,-0.44036 0.55045,-0.77063 0.77063,-0.99082l0.33027,-0.33027h-0.77063c0.11009,0.11009 0.22018,0.33027 0.22018,0.33027l-0.22018,0.11009c-0.33027,-0.33027 -0.44036,-0.77063 -0.44036,-0.77063c0,0 -0.11009,-0.11009 0.11009,-0.22018c0.11009,0 0.22018,0.11009 0.22018,0.11009v0.22018h0.99082v-0.11009c0,0 0,-0.22018 0.22018,-0.22018c0.11009,0 0.11009,0.22018 0.11009,0.22018zM321.59986,182.37227v0.22018c-0.11009,0.11009 0,0.22018 0,0.33027h0.99082v-0.55045z" fill="#4e4e50" fill-rule="nonzero"/><g fill-rule="nonzero"><path d="M316.69551,181.15773c-0.9553,0 -1.76145,-0.36578 -2.35097,-1.10091c-0.07458,-0.07458 -0.07458,-0.1456 0,-0.22018c0.36578,-0.44036 0.58597,-1.10091 0.58597,-1.69042c0,-0.66054 -0.22018,-1.32109 -0.58597,-1.76145c-0.07458,-0.07458 -0.07458,-0.1456 0,-0.22018c0.58597,-0.66054 1.39566,-1.10091 2.35097,-1.10091c0.88072,0 1.76145,0.44036 2.35097,1.10091v0.22018c-0.44036,0.44036 -0.66054,1.10091 -0.66054,1.76145c0,0.58597 0.22018,1.25006 0.66054,1.69042v0.22018c-0.58597,0.73512 -1.47024,1.10091 -2.35097,1.10091z" fill="#e84743"/><path d="M314.41912,176.23916c0.44036,0.51494 0.73512,1.17548 0.73512,1.9106c0,0.66054 -0.29476,1.32109 -0.73512,1.83603c0.58597,0.58952 1.32109,1.02988 2.27639,1.02988c0.88072,0 1.68687,-0.44391 2.20181,-1.02988c-0.44036,-0.51494 -0.66054,-1.17548 -0.66054,-1.83603c0,-0.73512 0.22018,-1.39566 0.66054,-1.9106c-0.51139,-0.58952 -1.32109,-1.02988 -2.20181,-1.02988c-0.9553,0 -1.69042,0.44391 -2.27639,1.02988zM316.25159,181.30688c-0.80615,-0.1456 -1.54127,-0.51494 -2.05621,-1.17548c0,0 -0.07458,-0.07103 -0.07458,-0.1456v-0.07458c0,0 0.07458,-0.07103 0.07458,-0.1456c0.36578,-0.44036 0.58597,-1.02988 0.58597,-1.61585c0,-0.66054 -0.22018,-1.25006 -0.58597,-1.69042c0,-0.07103 -0.07458,-0.07103 -0.07458,-0.1456v-0.07458c0,-0.07103 0.07458,-0.1456 0.07458,-0.1456c0.58597,-0.73512 1.54127,-1.17548 2.49657,-1.17548c0.9553,0 1.83958,0.44036 2.42554,1.17548c0.07458,0.07103 0.07458,0.29121 0,0.36578c-0.36578,0.44036 -0.58597,1.02988 -0.58597,1.69042c0,0.58597 0.22018,1.17548 0.58597,1.61585c0.07458,0.1456 0.07458,0.29121 0,0.36578c-0.51139,0.66054 -1.24651,1.02988 -1.98163,1.17548h-0.88072z" fill="#4e4e50"/><path d="M317.41642,175.7917c0.14915,0 0.07458,0.22018 0.07458,0.22018c-0.1456,0.44036 -0.58952,0.88072 -0.66054,0.9553c-0.07103,0.07458 -0.44036,0.36934 -0.58597,0.73512h0.88072c-0.07103,-0.22018 -0.36578,-0.44036 -0.36578,-0.44036l0.22018,-0.22018c0,0 0.51494,0.44391 0.51494,1.02988c0.07103,0.66054 -0.36934,1.02988 -0.8097,1.39566c-0.1456,0.14915 -0.29121,0.36934 -0.36578,0.51494h0.8097c-0.14915,-0.1456 -0.22018,-0.29121 -0.29476,-0.36578l0.1456,-0.22018c0,0 0.51494,0.44036 0.51494,0.8097c0,0.36934 -0.29476,0.29476 -0.29476,0.07458v-0.1456h-0.9553c0,0 -0.07458,0.36578 -0.22018,0.36578c-0.22018,0 -0.1456,-0.29476 -0.1456,-0.29476c0.1456,-0.66409 0.58952,-0.88428 0.9553,-1.25006c0.14915,-0.1456 0.22018,-0.29121 0.29476,-0.36578l-0.88072,-0.07458c0.07458,0.29476 0.29476,0.51494 0.29476,0.51494l-0.22018,0.22018c-0.66054,-0.66054 -0.51139,-1.25006 -0.36578,-1.69042c0.14915,-0.36578 0.51494,-0.73512 0.73512,-0.88072c0.14915,-0.07103 0.22018,-0.22018 0.29476,-0.36578h-0.66054c0.1456,0.14915 0.22018,0.29476 0.22018,0.29476l-0.22018,0.22018c-0.36578,-0.36934 -0.44036,-0.8097 -0.44036,-0.8097c0,0 -0.07103,-0.1456 0.07458,-0.22018c0.1456,-0.07458 0.22018,0.1456 0.22018,0.1456c0,0.07458 0,0.1456 0.07458,0.22018h0.88072c0,-0.07103 0.07458,-0.1456 0.07458,-0.1456c0,0 0,-0.29476 0.22018,-0.22018zM316.18057,177.85146c0,0.07458 -0.07458,0.1456 -0.07458,0.22018c0,0.14915 0,0.22018 0.07458,0.29476h0.9553c0.07458,-0.1456 0.07458,-0.36578 0.07458,-0.44036z" fill="#4e4e50"/></g></g></g></g></svg>