<svg version="1.1" xmlns="http://www.w3.org/2000/svg" xmlns:xlink="http://www.w3.org/1999/xlink" width="19.1542" height="19.1541" viewBox="0,0,19.1542,19.1541"><g transform="translate(-310.4229,-170.42295)"><g data-paper-data="{&quot;isPaintingLayer&quot;:true}" stroke="none" stroke-width="1" stroke-linecap="butt" stroke-linejoin="miter" stroke-miterlimit="10" stroke-dasharray="" stroke-dashoffset="0" style="mix-blend-mode: normal"><g><path d="M314.25374,187.82582c-1.08808,0 -1.97015,-0.88206 -1.97015,-1.97014v-11.60191c0,-1.08808 0.88207,-1.97013 1.97015,-1.97013h11.60198c1.08808,0 1.97015,0.88206 1.97015,1.97013v11.60191c0,1.08808 -0.88207,1.97014 -1.97015,1.97014z" fill="#fefefe" fill-rule="evenodd"/><path d="M314.14428,170.42295h11.60198c1.09452,0 1.97015,0.43781 2.62686,1.09452v0c0.76617,0.76617 1.09453,1.64178 1.09453,2.62685v11.60191c0,1.09452 -0.32836,1.97014 -1.09453,2.62685v0c-0.65671,0.76617 -1.53233,1.09452 -2.62686,1.09452h-11.60198c-0.98507,0 -1.86069,-0.32835 -2.62686,-1.09452v0c-0.65671,-0.65671 -1.09452,-1.53233 -1.09452,-2.62685v-11.60191c0,-0.98507 0.43781,-1.86068 1.09452,-2.62685v0c0.76617,-0.65671 1.64179,-1.09452 2.62686,-1.09452zM314.14428,172.28364h11.60198c1.09452,0 1.97015,0.87561 1.97015,1.86068v11.60191c0,1.09452 -0.87562,1.97013 -1.97015,1.97013h-11.60198c-0.98507,0 -1.86069,-0.87561 -1.86069,-1.97013v-11.60191c0,-0.98507 0.87562,-1.86068 1.86069,-1.86068z" fill="#ef7f1a" fill-rule="evenodd"/><path d="M314.14428,170.42295h11.60198c0.54727,0 1.09452,0.10945 1.53233,0.32835c0.43781,0.10945 0.87562,0.43781 1.20398,0.76617v0c0.32836,0.32835 0.54726,0.76616 0.76617,1.20397c0.21891,0.43781 0.32836,0.98507 0.32836,1.42288v11.60191c0,0.54726 -0.10945,1.09452 -0.32836,1.53233c-0.2189,0.43781 -0.43781,0.87562 -0.76617,1.20397v0c-0.32836,0.32835 -0.76617,0.54726 -1.20398,0.76617c-0.43781,0.21891 -0.98507,0.32835 -1.53233,0.32835h-11.60198c-0.43781,0 -0.98507,-0.10945 -1.42288,-0.32835c-0.43781,-0.21891 -0.87562,-0.43781 -1.20398,-0.76617v0c-0.32836,-0.32835 -0.65671,-0.76616 -0.76617,-1.20397c-0.21891,-0.43781 -0.32836,-0.98507 -0.32836,-1.53233v-11.60191c0,-0.43781 0.10945,-0.98507 0.32836,-1.42288c0.10946,-0.43781 0.43781,-0.87562 0.76617,-1.20397v0c0.32836,-0.32835 0.76617,-0.65672 1.20398,-0.76617c0.43781,-0.21891 0.98507,-0.32835 1.42288,-0.32835zM325.74626,170.5324h-11.60198c-0.43781,0 -0.87562,0.10946 -1.31343,0.21891c-0.43781,0.21891 -0.87561,0.54726 -1.20397,0.87561v0c-0.32836,0.32836 -0.65672,0.76617 -0.87562,1.20398c-0.10946,0.43781 -0.21891,0.87561 -0.21891,1.31342v11.60191c0,0.54726 0.10945,0.98506 0.21891,1.42288c0.21891,0.43781 0.54726,0.87562 0.87562,1.20398v0c0.32836,0.32835 0.76616,0.65671 1.20397,0.76616c0.43781,0.21891 0.87562,0.32836 1.31343,0.32836h11.60198c0.54727,0 0.98507,-0.10945 1.42288,-0.32836c0.43781,-0.10945 0.87562,-0.43781 1.20398,-0.76616v0c0.32836,-0.32836 0.65672,-0.76617 0.76617,-1.20398c0.21891,-0.43781 0.32836,-0.87562 0.32836,-1.42288v-11.60191c0,-0.43781 -0.10945,-0.87561 -0.32836,-1.31342c-0.10945,-0.43781 -0.43781,-0.87562 -0.76617,-1.20398v0c-0.32836,-0.32835 -0.76617,-0.65671 -1.20398,-0.87561c-0.43781,-0.10945 -0.87562,-0.21891 -1.42288,-0.21891zM314.14428,172.17418h11.60198c0.54727,0 1.09452,0.2189 1.42288,0.54726c0.43781,0.43781 0.65672,0.87562 0.65672,1.42288v11.60191c0,0.54726 -0.21891,1.09452 -0.65672,1.42288c-0.32836,0.43781 -0.87562,0.65671 -1.42288,0.65671h-11.60198c-0.54726,0 -0.98507,-0.2189 -1.42288,-0.65671c-0.32836,-0.32835 -0.54727,-0.87562 -0.54727,-1.42288v-11.60191c0,-0.54726 0.21891,-0.98507 0.54727,-1.42288c0.43781,-0.32836 0.87561,-0.54726 1.42288,-0.54726zM325.74626,172.28364h-11.60198c-0.43781,0 -0.98507,0.21891 -1.31343,0.54726c-0.32836,0.32835 -0.54726,0.87561 -0.54726,1.31342v11.60191c0,0.54726 0.2189,1.09452 0.54726,1.42288c0.32836,0.32835 0.87562,0.54726 1.31343,0.54726h11.60198c0.54727,0 1.09452,-0.21891 1.42288,-0.54726c0.32836,-0.32835 0.54726,-0.87562 0.54726,-1.42288v-11.60191c0,-0.43781 -0.2189,-0.98507 -0.54726,-1.31342c-0.32836,-0.32835 -0.87562,-0.54726 -1.42288,-0.54726z" fill="#fefefe" fill-rule="nonzero"/><path d="M322.57214,176.66172c-0.65671,0 -1.20398,-0.54727 -1.20398,-1.20398c0,-0.65671 0.54727,-1.09452 1.20398,-1.09452c0.65671,0 1.20398,0.43781 1.20398,1.09452c0,0.65671 -0.54727,1.20398 -1.20398,1.20398z" fill="#e63331" fill-rule="nonzero"/><path d="M322.57214,176.77117c-0.76617,0 -1.31343,-0.54726 -1.31343,-1.31342c0,-0.65671 0.54726,-1.31342 1.31343,-1.31342c0.65671,0 1.31343,0.65671 1.31343,1.31342v0.10945c0,0.65671 -0.65672,1.20397 -1.31343,1.20397zM322.57214,174.47267c-0.65671,0 -1.09452,0.43781 -1.09452,0.98507c0,0.65671 0.43781,1.09452 1.09452,1.09452c0.54727,0 0.98507,-0.43781 0.98507,-1.09452c0,-0.54726 -0.43781,-0.98507 -0.98507,-0.98507z" fill="#5a3547" fill-rule="nonzero"/><path d="M324.54228,178.5224c-0.65671,0 -1.20398,-0.43781 -1.20398,-1.09452c0,-0.65671 0.54726,-1.20398 1.20398,-1.20398c0.65671,0 1.20398,0.54726 1.20398,1.20398c0,0.65671 -0.54727,1.09452 -1.20398,1.09452z" fill="#e63331" fill-rule="nonzero"/><path d="M324.54228,178.7413c-0.76617,0 -1.31343,-0.65671 -1.31343,-1.31342c0,-0.76617 0.54726,-1.42288 1.31343,-1.42288c0.76617,0 1.31344,0.65672 1.31344,1.31342v0.10946c0,0.65671 -0.54727,1.31342 -1.31344,1.31342zM324.54228,176.33336c-0.54727,0 -1.09452,0.43781 -1.09452,1.09452c0,0.54726 0.54726,0.98506 1.09452,0.98506c0.54727,0 1.09452,-0.4378 1.09452,-0.98506c0,-0.65671 -0.54726,-1.09452 -1.09452,-1.09452z" fill="#5a3547" fill-rule="nonzero"/><path d="M319.17911,179.17911l0.32836,0.65671l-2.18906,0.98507l-2.18905,-0.98507l0.32836,-0.65671l-0.98507,-1.20397l1.09453,-1.20398l-0.43781,-0.65671l2.18905,-1.09452l2.18906,1.09452c0,0 -0.32835,0.4378 -0.43781,0.65671c0.10946,0 1.09452,1.20398 1.09452,1.20398z" fill="#00abe8" fill-rule="nonzero"/><path d="M315.12936,176.11446l0.43781,0.65671l-1.09453,1.20398l0.98507,1.20397l-0.32836,0.65671l2.18905,0.98507l2.18906,-0.98507l-0.32836,-0.65671l0.98507,-1.20397c0,0 -0.98507,-1.20398 -1.09452,-1.20398c0.10946,-0.21891 0.43781,-0.65671 0.43781,-0.65671l-2.18906,-1.09452zM317.42787,174.80103l2.18905,0.98507c0.10945,0.10945 0.21891,0.10945 0.21891,0.2189c0,0.10945 0,0.21891 0,0.21891c-0.10946,0.10945 -0.2189,0.32835 -0.32835,0.54726c0.10945,0.10945 0.2189,0.21891 0.43781,0.43781c0.2189,0.21891 0.43781,0.54726 0.43781,0.54726c0.10945,0 0.10945,0.10945 0.10945,0.21891v0c0,0 0,0.10945 -0.10945,0.2189l-0.87562,0.98507l0.32835,0.43781c0,0.10945 0,0.21891 0,0.32835c0,0 -0.10945,0.10945 -0.21891,0.10945l-2.18905,1.09452h-0.10946v0v0v0v0v0v0h-0.10945l-2.29851,-1.09452l-0.10945,-0.10945c0,-0.10945 0,-0.21891 0,-0.32835l0.32835,-0.43781l-0.98508,-0.98507c0,-0.10945 0,-0.32836 0.10946,-0.4378l0.87562,-0.98507l-0.32835,-0.54726c0,0 0,-0.10946 0,-0.21891c0,-0.10945 0.10945,-0.10945 0.10945,-0.2189l2.29851,-0.98507h0.10945z" fill="#4e4e50" fill-rule="nonzero"/><path d="M318.19404,175.7861c-0.21891,0.54726 -0.65671,0.98506 -0.76617,0.98506c0,0.10945 -0.32836,0.43781 -0.54727,0.76617h0.87562c-0.10946,-0.21891 -0.32835,-0.43781 -0.32835,-0.43781l0.21891,-0.2189c0,0 0.43781,0.43781 0.54726,1.09452c0,0.54726 -0.43782,0.98506 -0.87563,1.31342c-0.10945,0.21891 -0.32835,0.32835 -0.32835,0.54726h0.76617c-0.10946,-0.21891 -0.2189,-0.32836 -0.32835,-0.43781l0.21891,-0.10945c0,0 0.43781,0.43781 0.54726,0.76617c0,0.32835 -0.32836,0.2189 -0.32836,0.10945c0,-0.10945 0,-0.10945 0,-0.21891h-0.98508v0c0,0 -0.10945,0.32836 -0.2189,0.32836c-0.21891,0 -0.10945,-0.2189 -0.10945,-0.2189c0.10946,-0.65671 0.54726,-0.87562 0.98507,-1.31343c0.10945,-0.10945 0.2189,-0.21891 0.2189,-0.32836h-0.87562c0.10946,0.21891 0.32836,0.43781 0.32836,0.43781l-0.21891,0.21891c-0.65671,-0.65671 -0.54726,-1.31342 -0.43781,-1.64178c0.21891,-0.43781 0.65671,-0.76617 0.76617,-0.87562c0.10946,-0.10945 0.21891,-0.2189 0.32836,-0.4378h-0.65672c0.10946,0.21891 0.21891,0.32835 0.21891,0.32835l-0.21891,0.21891c-0.43781,-0.43781 -0.43781,-0.76617 -0.43781,-0.76617c0,0 -0.10945,-0.21891 0,-0.21891c0.21891,-0.10945 0.21891,0.10945 0.21891,0.10945c0,0 0.10945,0.10945 0.10945,0.2189h0.87562c0,-0.10945 0.10946,-0.10945 0.10946,-0.10945c0,0 0,-0.32836 0.2189,-0.32836c0.10946,0 0.10946,0.21891 0.10946,0.21891zM316.77115,177.75624c0,0 0,0.10945 0,0.21891c0,0 0,0.10945 0,0.2189h1.09452c0,-0.21891 0,-0.32836 0,-0.4378z" fill="#4e4e50" fill-rule="nonzero"/><path d="M323.88557,183.7761l0.43781,0.65671l-2.2985,1.09452l-2.18905,-1.09452l0.43781,-0.65671l-1.09453,-1.20398l1.09453,-1.09452l-0.43781,-0.76616l2.18905,-0.98507l2.2985,0.98507c0,0 -0.32836,0.43781 -0.43781,0.76616l1.09453,1.09452z" fill="#00abe8" fill-rule="nonzero"/><path d="M319.83582,180.71144l0.43781,0.76616l-1.09453,1.09452l1.09453,1.20398l-0.43781,0.65671l2.18905,1.09452l2.2985,-1.09452l-0.43781,-0.65671l1.09453,-1.20398l-1.09453,-1.09452c0.10945,-0.32835 0.43781,-0.76616 0.43781,-0.76616l-2.2985,-0.98507zM322.24378,179.39802l2.18905,1.09452c0.10946,0 0.10945,0.10945 0.10945,0.2189c0.10946,0.10945 0,0.10945 0,0.2189c-0.10946,0.10945 -0.2189,0.32836 -0.32835,0.43781c0.10945,0.10945 0.2189,0.2189 0.43781,0.43781c0.2189,0.32836 0.54726,0.65671 0.54726,0.65671l0.10946,0.10945v0c0,0.10945 -0.10946,0.21891 -0.10946,0.21891l-0.87562,1.09452l0.21891,0.43781c0.10946,0.10945 0.10946,0.10946 0,0.21891c0,0.10945 0,0.10945 -0.10945,0.2189l-2.18905,0.98507c-0.10946,0 -0.10945,0.10945 -0.21891,0.10945v0v0v0v0v0v0c0,0 0,-0.10945 -0.10945,-0.10945l-2.18905,-0.98507c-0.10945,-0.10945 -0.10945,-0.10945 -0.2189,-0.2189c0,-0.10945 0,-0.10945 0.10945,-0.21891l0.21891,-0.43781l-0.87562,-1.09452c-0.10946,-0.10945 -0.10946,-0.2189 0,-0.4378l0.98508,-0.98507l-0.32836,-0.43781c-0.10945,-0.10945 -0.10945,-0.2189 -0.10945,-0.2189c0.10945,-0.10945 0.10945,-0.2189 0.2189,-0.2189l2.18905,-1.09452c0.10945,0 0.10945,0 0.10945,0c0.10945,0 0.10945,0 0.21891,0z" fill="#4e4e50" fill-rule="nonzero"/><path d="M322.90049,180.49254c-0.10945,0.43781 -0.54726,0.87562 -0.65671,0.98506c-0.10946,0.10945 -0.43781,0.32835 -0.54727,0.76617h0.87562c-0.10946,-0.21891 -0.32835,-0.4378 -0.32835,-0.4378l0.2189,-0.2189c0,0 0.43781,0.32835 0.43781,0.98506c0,0.65671 -0.43781,1.09453 -0.76617,1.42288c-0.21891,0.10945 -0.32835,0.32835 -0.43781,0.4378h0.76617c0,-0.10945 -0.10945,-0.21891 -0.2189,-0.32836l0.2189,-0.21891c0,0 0.43781,0.43781 0.43781,0.76617c0,0.43781 -0.2189,0.32836 -0.2189,0.10945c0,0 0,-0.10945 -0.10946,-0.10945h-0.98507v0c0,0 0,0.32836 -0.21891,0.32836c-0.10946,0 -0.10945,-0.2189 -0.10945,-0.2189c0.10946,-0.65671 0.65672,-0.87561 0.98508,-1.31342c0.10945,-0.10945 0.2189,-0.21891 0.2189,-0.32836l-0.87562,-0.10945c0.21891,0.32835 0.32836,0.54726 0.32836,0.54726l-0.10946,0.10945c-0.76617,-0.54726 -0.65672,-1.20397 -0.43781,-1.53232c0.10946,-0.43781 0.54726,-0.76617 0.76617,-0.98507c0.10946,-0.10945 0.21891,-0.21891 0.32836,-0.32835h-0.76617c0.10946,0.10945 0.21891,0.32835 0.21891,0.32835l-0.21891,0.10945c-0.32836,-0.32836 -0.43781,-0.76617 -0.43781,-0.76617c0,0 -0.10945,-0.10945 0.10945,-0.21891c0.10946,0 0.21891,0.10945 0.21891,0.10945c0,0.10945 0,0.21891 0,0.21891h0.98507v-0.10945c0,0 0,-0.21891 0.21891,-0.21891c0.10945,0 0.10945,0.21891 0.10945,0.21891zM321.58706,182.35322c0,0.10945 0,0.2189 0,0.2189c-0.10945,0.10945 0,0.21891 0,0.32836h0.98507c0,-0.21891 0,-0.32836 0,-0.54726z" fill="#4e4e50" fill-rule="nonzero"/></g></g></g></svg>