<svg version="1.1" xmlns="http://www.w3.org/2000/svg" xmlns:xlink="http://www.w3.org/1999/xlink" width="19.1541" height="19.1541" viewBox="0,0,19.1541,19.1541"><g transform="translate(-310.42295,-170.42295)"><g data-paper-data="{&quot;isPaintingLayer&quot;:true}" stroke="none" stroke-width="1" stroke-linecap="butt" stroke-linejoin="miter" stroke-miterlimit="10" stroke-dasharray="" stroke-dashoffset="0" style="mix-blend-mode: normal"><g><path d="M314.20223,187.68741c-1.09106,0 -1.97553,-0.88448 -1.97553,-1.97553v-11.50964c0,-1.09106 0.88448,-1.97553 1.97553,-1.97553h11.50964c1.09106,0 1.97553,0.88448 1.97553,1.97553v11.50964c0,1.09106 -0.88448,1.97553 -1.97553,1.97553z" fill="#fefefe" fill-rule="evenodd"/><path d="M314.20223,170.50884h11.59553c1.03071,0 1.88964,0.34357 2.57678,1.03071v0c0.68714,0.68714 1.11661,1.63196 1.11661,2.66268v11.59553c0,1.03071 -0.42946,1.88964 -1.11661,2.57678v0c-0.68714,0.68714 -1.54607,1.11661 -2.57678,1.11661h-11.59553c-1.03071,0 -1.97553,-0.42946 -2.66268,-1.11661v0c-0.68714,-0.68714 -1.03071,-1.54607 -1.03071,-2.57678v-11.59553c0,-1.03071 0.34357,-1.97553 1.03071,-2.66268v0c0.68714,-0.68714 1.63196,-1.03071 2.66268,-1.03071zM314.20223,172.2267h11.59553c1.03071,0 1.88964,0.85893 1.88964,1.97553v11.59553c0,1.03071 -0.85893,1.88964 -1.88964,1.88964h-11.59553c-1.11661,0 -1.97553,-0.85893 -1.97553,-1.88964v-11.59553c0,-1.11661 0.85893,-1.97553 1.97553,-1.97553z" fill="#ef7f1a" fill-rule="evenodd"/><path d="M314.20223,170.42295h11.59553c0.51536,0 0.94482,0.08589 1.37429,0.25768c0.51536,0.25768 0.94482,0.51536 1.28839,0.85893v0c0.34357,0.34357 0.60125,0.77304 0.77304,1.2025c0.17179,0.42946 0.34357,0.94482 0.34357,1.46018v11.59553c0,0.51536 -0.17179,0.94482 -0.34357,1.37429c-0.17179,0.51536 -0.42946,0.94482 -0.77304,1.28839v0c-0.34357,0.34357 -0.77304,0.60125 -1.28839,0.77304c-0.42946,0.17179 -0.85893,0.34357 -1.37429,0.34357h-11.59553c-0.51536,0 -1.03071,-0.17179 -1.46018,-0.34357c-0.42946,-0.17179 -0.85893,-0.42946 -1.2025,-0.77304v0c-0.34357,-0.34357 -0.60125,-0.77304 -0.85893,-1.28839c-0.17179,-0.42946 -0.25768,-0.85893 -0.25768,-1.37429v-11.59553c0,-0.51536 0.08589,-1.03071 0.25768,-1.46018c0.25768,-0.42946 0.51536,-0.85893 0.85893,-1.2025v0c0.34357,-0.34357 0.77304,-0.60125 1.2025,-0.85893c0.42946,-0.17179 0.94482,-0.25768 1.46018,-0.25768zM325.79777,170.50884h-11.59553c-0.51536,0 -0.94482,0.08589 -1.37429,0.25768c-0.51536,0.25768 -0.85893,0.51536 -1.2025,0.85893v0c-0.34357,0.34357 -0.60125,0.68714 -0.85893,1.2025c-0.17179,0.42946 -0.25768,0.85893 -0.25768,1.37429v11.59553c0,0.51536 0.08589,0.94482 0.25768,1.37429c0.25768,0.42946 0.51536,0.85893 0.85893,1.2025v0c0.34357,0.34357 0.68714,0.60125 1.2025,0.77304c0.42946,0.17179 0.85893,0.25768 1.37429,0.25768h11.59553c0.51536,0 0.94482,-0.08589 1.37429,-0.25768c0.42946,-0.17179 0.85893,-0.42946 1.2025,-0.77304v0c0.34357,-0.34357 0.60125,-0.77304 0.77304,-1.2025c0.17179,-0.42946 0.25768,-0.85893 0.25768,-1.37429v-11.59553c0,-0.51536 -0.08589,-0.94482 -0.25768,-1.37429c-0.17179,-0.51536 -0.42946,-0.85893 -0.77304,-1.2025v0c-0.34357,-0.34357 -0.77304,-0.60125 -1.2025,-0.85893c-0.42946,-0.17179 -0.85893,-0.25768 -1.37429,-0.25768zM314.20223,172.2267h11.59553c0.51536,0 1.03071,0.17179 1.37429,0.51536c0.34357,0.42946 0.60125,0.85893 0.60125,1.46018v11.59553c0,0.51536 -0.25768,1.03071 -0.60125,1.37429c-0.34357,0.34357 -0.85893,0.60125 -1.37429,0.60125h-11.59553c-0.60125,0 -1.03071,-0.25768 -1.46018,-0.60125c-0.34357,-0.34357 -0.51536,-0.85893 -0.51536,-1.37429v-11.59553c0,-0.60125 0.17179,-1.03071 0.51536,-1.46018c0.42946,-0.34357 0.85893,-0.51536 1.46018,-0.51536zM325.79777,172.31259h-11.59553c-0.51536,0 -1.03071,0.17179 -1.37429,0.51536c-0.34357,0.34357 -0.51536,0.85893 -0.51536,1.37429v11.59553c0,0.51536 0.17179,0.94482 0.51536,1.28839c0.34357,0.34357 0.85893,0.60125 1.37429,0.60125h11.59553c0.51536,0 0.94482,-0.25768 1.28839,-0.60125c0.34357,-0.34357 0.60125,-0.77304 0.60125,-1.28839v-11.59553c0,-0.51536 -0.25768,-1.03071 -0.60125,-1.37429c-0.34357,-0.34357 -0.77304,-0.51536 -1.28839,-0.51536z" fill="#fefefe" fill-rule="nonzero"/><path d="M324.33759,177.12259c-0.68714,0 -1.2025,-0.51536 -1.2025,-1.11661c0,-0.68714 0.51536,-1.2025 1.2025,-1.2025c0.60125,0 1.11661,0.51536 1.11661,1.2025c0,0.60125 -0.51536,1.11661 -1.11661,1.11661z" fill="#e63331" fill-rule="nonzero"/><path d="M324.33759,177.29438c-0.77304,0 -1.37429,-0.60125 -1.37429,-1.28839c0,-0.77304 0.60125,-1.37429 1.37429,-1.37429c0.68714,0 1.28839,0.60125 1.28839,1.28839v0.08589c0,0.68714 -0.60125,1.28839 -1.28839,1.28839zM324.33759,174.88938c-0.60125,0 -1.11661,0.51536 -1.11661,1.11661c0,0.51536 0.51536,1.03071 1.11661,1.03071c0.51536,0 1.03071,-0.51536 1.03071,-1.03071c0,-0.60125 -0.51536,-1.11661 -1.03071,-1.11661z" fill="#5a3547" fill-rule="nonzero"/><path d="M324.1658,183.82223l0.34357,0.68714l-2.23321,1.03071l-2.14732,-1.03071l0.34357,-0.68714l-1.03071,-1.2025l1.03071,-1.2025l-0.34357,-0.68714l2.14732,-1.03071l2.23321,1.03071c0,0 -0.25768,0.51536 -0.42946,0.68714c0.08589,0 1.11661,1.2025 1.11661,1.2025z" fill="#00abe8" fill-rule="nonzero"/><path d="M320.12884,180.73009l0.34357,0.68714l-1.03071,1.2025l1.03071,1.2025l-0.34357,0.68714l2.14732,1.03071l2.23321,-1.03071l-0.34357,-0.68714l1.03071,-1.2025c0,0 -1.03071,-1.2025 -1.11661,-1.2025c0.17179,-0.17179 0.42946,-0.68714 0.42946,-0.68714l-2.23321,-1.03071zM322.44795,179.4417l2.23321,1.03071c0.08589,0.08589 0.08589,0.17179 0.17179,0.25768c0,0.08589 0,0.17179 -0.08589,0.25768c-0.08589,0.08589 -0.17179,0.25768 -0.25768,0.42946c0.08589,0.08589 0.17179,0.25768 0.34357,0.42946c0.34357,0.25768 0.60125,0.60125 0.60125,0.60125c0,0 0.08589,0.08589 0.08589,0.17179v0c0,0.08589 -0.08589,0.17179 -0.08589,0.17179l-0.94482,1.03071l0.25768,0.51536c0.08589,0.08589 0.08589,0.17179 0.08589,0.25768c-0.08589,0.08589 -0.08589,0.08589 -0.17179,0.17179l-2.23321,1.03071c-0.08589,0 -0.08589,0 -0.08589,0h-0.08589v0v0v0v0v0h-0.08589l-2.23321,-1.03071c-0.08589,-0.08589 -0.08589,-0.08589 -0.17179,-0.17179c0,-0.08589 0,-0.17179 0.08589,-0.25768l0.25768,-0.51536l-0.94482,-1.03071c-0.08589,-0.08589 -0.08589,-0.25768 0,-0.34357l0.94482,-1.03071l-0.25768,-0.51536c-0.08589,-0.08589 -0.08589,-0.17179 -0.08589,-0.25768c0,0 0.08589,-0.08589 0.17179,-0.17179l2.23321,-1.03071h0.08589c0.08589,0 0.08589,0 0.17179,0z" fill="#4e4e50" fill-rule="nonzero"/><path d="M323.13509,180.47241c-0.08589,0.51536 -0.51536,0.94482 -0.68714,1.03071c-0.08589,0 -0.34357,0.34357 -0.60125,0.68714h0.94482c-0.08589,-0.17179 -0.34357,-0.42946 -0.34357,-0.42946l0.17179,-0.17179c0,0 0.51536,0.34357 0.51536,1.03071c0.08589,0.60125 -0.42946,1.03071 -0.77304,1.37429c-0.17179,0.17179 -0.34357,0.34357 -0.42946,0.42946l0.85893,0.08589c-0.17179,-0.17179 -0.25768,-0.34357 -0.34357,-0.42946l0.17179,-0.17179c0,0 0.51536,0.42946 0.51536,0.77304c0,0.34357 -0.25768,0.25768 -0.25768,0.08589v-0.08589l-1.03071,-0.08589c0,0.08589 0,0.08589 0,0.08589c0,0 0,0.34357 -0.17179,0.25768c-0.17179,0 -0.08589,-0.17179 -0.08589,-0.17179c0.08589,-0.68714 0.60125,-0.94482 0.94482,-1.37429c0.08589,-0.08589 0.17179,-0.17179 0.25768,-0.34357h-0.94482c0.17179,0.25768 0.34357,0.51536 0.34357,0.51536l-0.17179,0.17179c-0.68714,-0.60125 -0.60125,-1.28839 -0.42946,-1.63196c0.17179,-0.42946 0.60125,-0.77304 0.77304,-0.94482c0.08589,-0.08589 0.25768,-0.17179 0.34357,-0.34357h-0.68714c0.08589,0.17179 0.17179,0.34357 0.17179,0.34357l-0.17179,0.17179c-0.42946,-0.42946 -0.51536,-0.77304 -0.51536,-0.77304c0,0 -0.08589,-0.17179 0.08589,-0.25768c0.17179,-0.08589 0.17179,0.08589 0.17179,0.08589c0.08589,0.08589 0.08589,0.17179 0.08589,0.25768h0.94482c0,-0.08589 0,-0.08589 0,-0.08589c0,0 0.08589,-0.34357 0.25768,-0.25768c0.17179,0 0.08589,0.17179 0.08589,0.17179zM321.8467,182.36205c-0.08589,0.08589 -0.08589,0.17179 -0.08589,0.25768c0,0.08589 0,0.17179 0.08589,0.25768h0.94482c0.08589,-0.17179 0.08589,-0.34357 0,-0.51536z" fill="#4e4e50" fill-rule="nonzero"/><path d="M314.6317,180.04295c-0.08589,0 -0.08589,0 -0.08589,-0.08589c-0.08589,-0.08589 -0.08589,-0.08589 0,-0.17179l1.2025,-1.28839v-2.66268l-1.2025,-1.28839c-0.08589,0 -0.08589,-0.08589 -0.08589,-0.08589c0,-0.08589 0.08589,-0.17179 0.17179,-0.17179h4.72411c0.08589,0 0.17179,0.08589 0.17179,0.17179c0,0 0,0.08589 -0.08589,0.08589l-1.2025,1.28839v2.66268l1.2025,1.28839c0.08589,0.08589 0.08589,0.08589 0.08589,0.17179c-0.08589,0.08589 -0.08589,0.08589 -0.17179,0.08589z" fill="#695ba3" fill-rule="nonzero"/><path d="M314.6317,174.45991v0l1.28839,1.37429v2.74857l-1.28839,1.28839h4.72411l-1.2025,-1.28839v-2.74857l1.2025,-1.37429v0v0zM319.69938,174.45991c0,0.08589 -0.08589,0.17179 -0.08589,0.17179l-1.2025,1.28839v2.49089l1.2025,1.28839c0.08589,0.08589 0.08589,0.17179 0,0.34357c0,0.08589 -0.08589,0.17179 -0.25768,0.17179h-4.72411c-0.08589,0 -0.17179,-0.08589 -0.25768,-0.17179c-0.08589,-0.17179 0,-0.25768 0.08589,-0.34357l1.11661,-1.28839v-2.49089l-1.2025,-1.28839c0,0 0,-0.08589 0,-0.17179c0,-0.17179 0.08589,-0.34357 0.25768,-0.34357h4.72411c0.17179,0 0.34357,0.17179 0.34357,0.34357z" fill="#fefefe" fill-rule="nonzero"/><path d="M317.80973,175.14706c-0.17179,0.42946 -0.51536,0.85893 -0.68714,0.94482c0,0.08589 -0.34357,0.34357 -0.51536,0.68714h0.85893c-0.08589,-0.17179 -0.34357,-0.42946 -0.34357,-0.42946l0.17179,-0.17179c0,0 0.51536,0.34357 0.51536,0.94482c0,0.60125 -0.42946,1.03071 -0.77304,1.37429c-0.17179,0.17179 -0.25768,0.34357 -0.34357,0.42946h0.77304c-0.08589,-0.08589 -0.25768,-0.25768 -0.34357,-0.34357l0.25768,-0.17179c0,0 0.42946,0.42946 0.42946,0.77304c0,0.34357 -0.25768,0.25768 -0.25768,0.08589c0,-0.08589 0,-0.08589 0,-0.17179h-0.94482v0c0,0 -0.08589,0.34357 -0.25768,0.34357c-0.08589,0 -0.08589,-0.25768 -0.08589,-0.25768c0.08589,-0.60125 0.60125,-0.85893 0.94482,-1.2025c0.08589,-0.17179 0.17179,-0.25768 0.25768,-0.34357l-0.85893,-0.08589c0.08589,0.34357 0.25768,0.51536 0.25768,0.51536l-0.17179,0.17179c-0.68714,-0.60125 -0.51536,-1.2025 -0.34357,-1.54607c0.17179,-0.42946 0.51536,-0.77304 0.68714,-0.85893c0.17179,-0.08589 0.25768,-0.25768 0.34357,-0.34357h-0.68714c0.08589,0.08589 0.17179,0.25768 0.17179,0.25768l-0.17179,0.17179c-0.34357,-0.34357 -0.42946,-0.77304 -0.42946,-0.77304c0,0 -0.08589,-0.17179 0.08589,-0.17179c0.08589,-0.08589 0.17179,0.08589 0.17179,0.08589c0,0.08589 0,0.17179 0.08589,0.25768h0.85893c0,-0.08589 0,-0.17179 0,-0.17179c0,0 0.08589,-0.25768 0.25768,-0.25768c0.08589,0.08589 0.08589,0.25768 0.08589,0.25768zM316.52134,176.9508c0,0.08589 0,0.17179 0,0.17179c0,0.08589 0,0.17179 0,0.25768h0.94482c0.08589,-0.17179 0.08589,-0.25768 0,-0.42946z" fill="#fefefe" fill-rule="nonzero"/></g></g></g></svg>