<svg version="1.1" xmlns="http://www.w3.org/2000/svg" xmlns:xlink="http://www.w3.org/1999/xlink" width="19.1541" height="19.1541" viewBox="0,0,19.1541,19.1541"><g transform="translate(-310.42295,-170.42295)"><g data-paper-data="{&quot;isPaintingLayer&quot;:true}" stroke="none" stroke-width="1" stroke-linecap="butt" stroke-linejoin="miter" stroke-miterlimit="10" stroke-dasharray="" stroke-dashoffset="0" style="mix-blend-mode: normal"><path d="M314.13343,187.77195c-1.05231,0 -1.90538,-0.85307 -1.90538,-1.90538v-11.73314c0,-1.05231 0.85307,-1.90538 1.90538,-1.90538h11.73314c1.05231,0 1.90538,0.85307 1.90538,1.90538v11.73314c0,1.05231 -0.85307,1.90538 -1.90538,1.90538z" fill="#fefefe" fill-rule="evenodd"/><path d="M314.13343,170.42295h11.63286c1.00283,0 2.00566,0.50142 2.60736,1.10312v0c0.70198,0.70198 1.10312,1.60453 1.10312,2.60736v11.63286c0,1.00283 -0.40113,2.00566 -1.10312,2.60736v0c-0.6017,0.70198 -1.60453,1.10312 -2.60736,1.10312h-11.63286c-1.00283,0 -1.90538,-0.40113 -2.60736,-1.10312v0c-0.6017,-0.6017 -1.10312,-1.60453 -1.10312,-2.60736v-11.63286c0,-1.00283 0.50142,-1.90538 1.10312,-2.60736v0c0.70198,-0.6017 1.60453,-1.10312 2.60736,-1.10312zM314.13343,172.22805h11.63286c1.10312,0 2.00566,0.90255 2.00566,1.90538v11.63286c0,1.10312 -0.90255,2.00566 -2.00566,2.00566h-11.63286c-1.00283,0 -1.90538,-0.90255 -1.90538,-2.00566v-11.63286c0,-1.00283 0.90255,-1.90538 1.90538,-1.90538z" fill="#ef7f1a" fill-rule="evenodd"/><path d="M314.13343,170.42295h11.63286c0.50142,0 1.00283,0.10028 1.40397,0.30085c0.50142,0.20057 0.90255,0.50142 1.30368,0.80227v0c0.30085,0.40113 0.6017,0.80227 0.80227,1.2034c0.20057,0.50142 0.30085,0.90255 0.30085,1.40397v11.63286c0,0.50142 -0.10028,1.00283 -0.30085,1.40397c-0.20057,0.50142 -0.50142,0.90255 -0.80227,1.30368v0c-0.40113,0.30085 -0.80227,0.6017 -1.30368,0.80227c-0.40113,0.20057 -0.90255,0.30085 -1.40397,0.30085h-11.63286c-0.50142,0 -0.90255,-0.10028 -1.40397,-0.30085c-0.40113,-0.20057 -0.80227,-0.50142 -1.2034,-0.80227v0c-0.30085,-0.40113 -0.6017,-0.80227 -0.80227,-1.30368c-0.20057,-0.40113 -0.30085,-0.90255 -0.30085,-1.40397v-11.63286c0,-0.50142 0.10028,-0.90255 0.30085,-1.40397c0.20057,-0.40113 0.50142,-0.80227 0.80227,-1.2034v0c0.40113,-0.30085 0.80227,-0.6017 1.2034,-0.80227c0.50142,-0.20057 0.90255,-0.30085 1.40397,-0.30085zM325.76629,170.52323h-11.63286c-0.40113,0 -0.90255,0.10028 -1.30368,0.30085c-0.50142,0.20057 -0.90255,0.40113 -1.2034,0.80227v0c-0.40113,0.30085 -0.6017,0.70198 -0.80227,1.2034c-0.20057,0.40113 -0.30085,0.90255 -0.30085,1.30368v11.63286c0,0.50142 0.10028,1.00283 0.30085,1.40397c0.20057,0.50142 0.40113,0.90255 0.80227,1.2034v0c0.30085,0.30085 0.70198,0.6017 1.2034,0.80227c0.40113,0.20057 0.90255,0.30085 1.30368,0.30085h11.63286c0.50142,0 1.00283,-0.10028 1.40397,-0.30085c0.50142,-0.20057 0.90255,-0.50142 1.2034,-0.80227v0c0.30085,-0.30085 0.6017,-0.70198 0.80227,-1.2034c0.20057,-0.40113 0.30085,-0.90255 0.30085,-1.40397v-11.63286c0,-0.40113 -0.10028,-0.90255 -0.30085,-1.30368c-0.20057,-0.50142 -0.50142,-0.90255 -0.80227,-1.2034v0c-0.30085,-0.40113 -0.70198,-0.6017 -1.2034,-0.80227c-0.40113,-0.20057 -0.90255,-0.30085 -1.40397,-0.30085zM314.13343,172.22805h11.63286c0.6017,0 1.10312,0.20057 1.40397,0.50142c0.40113,0.40113 0.6017,0.90255 0.6017,1.40397v11.63286c0,0.6017 -0.20057,1.10312 -0.6017,1.40397c-0.30085,0.40113 -0.80227,0.6017 -1.40397,0.6017h-11.63286c-0.50142,0 -1.00283,-0.20057 -1.40397,-0.6017c-0.30085,-0.30085 -0.50142,-0.80227 -0.50142,-1.40397v-11.63286c0,-0.50142 0.20057,-1.00283 0.50142,-1.40397c0.40113,-0.30085 0.90255,-0.50142 1.40397,-0.50142zM325.76629,172.32833h-11.63286c-0.50142,0 -0.90255,0.20057 -1.30368,0.50142c-0.30085,0.40113 -0.50142,0.80227 -0.50142,1.30368v11.63286c0,0.50142 0.20057,1.00283 0.50142,1.40397c0.40113,0.30085 0.80227,0.50142 1.30368,0.50142h11.63286c0.50142,0 1.00283,-0.20057 1.40397,-0.50142c0.30085,-0.40113 0.50142,-0.90255 0.50142,-1.40397v-11.63286c0,-0.50142 -0.20057,-0.90255 -0.50142,-1.30368c-0.40113,-0.30085 -0.90255,-0.50142 -1.40397,-0.50142z" fill="#fefefe" fill-rule="nonzero"/><g fill-rule="nonzero"><path d="M314.97464,179.84958c-0.10028,0 -0.10028,-0.10028 -0.10028,-0.10028c-0.10028,-0.10028 -0.10028,-0.10028 0,-0.20057l1.2034,-1.30368v-2.60736l-1.2034,-1.30368c-0.10028,0 -0.10028,-0.10028 -0.10028,-0.10028c0,-0.10028 0.10028,-0.20057 0.20057,-0.20057h4.71331c0.10028,0 0.20057,0.10028 0.20057,0.20057l-0.10028,0.10028l-1.2034,1.30368v2.60736l1.2034,1.30368c0.10028,0.10028 0.10028,0.10028 0,0.20057c0,0 0,0.10028 -0.10028,0.10028z" fill="#695ba3"/><path d="M314.97464,174.23371v0l1.2034,1.30368v2.80793l-1.2034,1.30368h4.71331l-1.2034,-1.30368v-2.80793l1.2034,-1.30368v0v0zM319.98881,174.23371c0,0.10028 0,0.10028 -0.10028,0.20057l-1.10312,1.30368v2.50708l1.10312,1.2034c0.10028,0.10028 0.10028,0.20057 0.10028,0.30085c-0.10028,0.10028 -0.20057,0.20057 -0.30085,0.20057h-4.71331c-0.10028,0 -0.20057,-0.10028 -0.30085,-0.20057c0,-0.10028 0,-0.20057 0.10028,-0.30085l1.10312,-1.2034v-2.50708l-1.10312,-1.30368c-0.10028,-0.10028 -0.10028,-0.20057 -0.10028,-0.20057c0,-0.20057 0.10028,-0.30085 0.30085,-0.30085h4.71331c0.20057,0 0.30085,0.10028 0.30085,0.30085z" fill="#fefefe"/><path d="M318.08342,174.9357c-0.10028,0.40113 -0.50142,0.80227 -0.6017,0.90255c-0.10028,0.10028 -0.40113,0.40113 -0.6017,0.70198h0.90255c-0.10028,-0.20057 -0.30085,-0.40113 -0.30085,-0.40113l0.20057,-0.20057c0,0 0.40113,0.40113 0.50142,1.00283c0,0.6017 -0.40113,1.00283 -0.80227,1.30368c-0.20057,0.20057 -0.30085,0.30085 -0.40113,0.50142h0.80227c-0.10028,-0.20057 -0.20057,-0.30085 -0.30085,-0.40113l0.20057,-0.20057c0,0 0.40113,0.40113 0.40113,0.80227c0.10028,0.30085 -0.20057,0.20057 -0.20057,0.10028c0,-0.10028 0,-0.10028 0,-0.20057h-1.00283v0c0,0 0,0.40113 -0.20057,0.30085c-0.10028,0 -0.10028,-0.20057 -0.10028,-0.20057c0.10028,-0.6017 0.6017,-0.80227 0.90255,-1.2034c0.10028,-0.10028 0.20057,-0.30085 0.30085,-0.40113h-0.90255c0.10028,0.30085 0.30085,0.50142 0.30085,0.50142l-0.10028,0.20057c-0.70198,-0.6017 -0.6017,-1.2034 -0.40113,-1.60453c0.10028,-0.40113 0.50142,-0.70198 0.70198,-0.90255c0.10028,-0.10028 0.20057,-0.20057 0.30085,-0.30085h-0.70198c0.10028,0.10028 0.20057,0.30085 0.20057,0.30085l-0.20057,0.20057c-0.30085,-0.40113 -0.40113,-0.80227 -0.40113,-0.80227c0,0 -0.10028,-0.20057 0.10028,-0.20057c0.10028,-0.10028 0.20057,0.10028 0.20057,0.10028c0,0.10028 0,0.10028 0,0.20057h0.90255c0,-0.10028 0,-0.10028 0,-0.10028c0,0 0.10028,-0.30085 0.30085,-0.20057c0.10028,0 0,0.20057 0,0.20057zM316.88002,176.74079c0,0 -0.10028,0.10028 -0.10028,0.20057c0,0.10028 0,0.20057 0.10028,0.20057h0.90255c0.10028,-0.10028 0,-0.30085 0,-0.40113z" fill="#fefefe"/></g><g fill-rule="nonzero"><path d="M322.59904,185.96685c-0.90255,0 -1.8051,-0.40113 -2.4068,-1.10312c0,-0.10028 0,-0.20057 0,-0.20057c0.50142,-0.50142 0.70198,-1.10312 0.70198,-1.8051c0,-0.6017 -0.20057,-1.2034 -0.70198,-1.70482c0,-0.10028 0,-0.20057 0,-0.20057c0.6017,-0.70198 1.50425,-1.10312 2.4068,-1.10312c0.90255,0 1.70482,0.40113 2.30651,1.10312c0.10028,0 0.10028,0.10028 0,0.20057c-0.40113,0.50142 -0.6017,1.10312 -0.6017,1.70482c0,0.70198 0.20057,1.30368 0.6017,1.8051c0.10028,0 0.10028,0.10028 0,0.20057c-0.6017,0.70198 -1.40397,1.10312 -2.30651,1.10312z" fill="#e84743"/><path d="M320.39281,181.05297c0.40113,0.50142 0.6017,1.10312 0.6017,1.8051c0,0.70198 -0.20057,1.40397 -0.6017,1.90538c0.50142,0.6017 1.30368,1.00283 2.20623,1.00283c0.90255,0 1.70482,-0.40113 2.20623,-1.00283c-0.40113,-0.50142 -0.70198,-1.2034 -0.70198,-1.90538c0,-0.70198 0.30085,-1.30368 0.70198,-1.8051c-0.50142,-0.70198 -1.30368,-1.10312 -2.20623,-1.10312c-0.90255,0 -1.70482,0.40113 -2.20623,1.10312zM320.09196,184.96402c0,-0.10028 0,-0.20057 0,-0.20057v-0.10028v-0.10028c0.40113,-0.50142 0.6017,-1.10312 0.6017,-1.70482c0,-0.6017 -0.20057,-1.2034 -0.6017,-1.60453c0,-0.10028 0,-0.10028 0,-0.20057v-0.10028v-0.10028c0.6017,-0.80227 1.50425,-1.2034 2.50708,-1.2034c0.90255,0 1.8051,0.40113 2.4068,1.2034c0.10028,0.10028 0.10028,0.20057 0,0.40113c-0.30085,0.40113 -0.6017,1.00283 -0.6017,1.60453c0,0.6017 0.30085,1.2034 0.6017,1.70482c0.10028,0.10028 0.10028,0.20057 0,0.40113c-0.50142,0.6017 -1.2034,1.00283 -2.00566,1.10312h-0.90255c-0.70198,-0.10028 -1.50425,-0.50142 -2.00566,-1.10312z" fill="#4e4e50"/><path d="M323.40131,180.75212c-0.10028,0.50142 -0.6017,0.90255 -0.70198,1.00283c0,0 -0.40113,0.30085 -0.50142,0.70198h0.80227c-0.10028,-0.20057 -0.30085,-0.40113 -0.30085,-0.40113l0.20057,-0.30085c0,0 0.50142,0.50142 0.50142,1.10312c0.10028,0.6017 -0.40113,1.00283 -0.80227,1.40397c-0.20057,0.10028 -0.30085,0.30085 -0.40113,0.50142h0.80227c-0.10028,-0.20057 -0.20057,-0.30085 -0.30085,-0.40113l0.20057,-0.20057c0,0 0.50142,0.40113 0.50142,0.80227c0,0.40113 -0.30085,0.30085 -0.20057,0.10028c0,-0.10028 -0.10028,-0.10028 -0.10028,-0.20057h-1.00283v0c0,0 0,0.40113 -0.20057,0.40113c-0.10028,0 -0.10028,-0.30085 -0.10028,-0.30085c0.10028,-0.6017 0.6017,-0.90255 1.00283,-1.30368c0.10028,-0.10028 0.20057,-0.20057 0.20057,-0.30085l-0.90255,-0.10028c0.20057,0.30085 0.40113,0.50142 0.40113,0.50142l-0.20057,0.20057c-0.70198,-0.6017 -0.6017,-1.2034 -0.40113,-1.60453c0.10028,-0.40113 0.50142,-0.80227 0.70198,-0.90255c0.10028,-0.10028 0.30085,-0.30085 0.30085,-0.40113h-0.6017c0.10028,0.20057 0.20057,0.30085 0.20057,0.30085l-0.20057,0.20057c-0.40113,-0.40113 -0.50142,-0.80227 -0.50142,-0.80227c0,0 -0.10028,-0.10028 0.10028,-0.20057c0.10028,-0.10028 0.20057,0.10028 0.20057,0.10028c0,0.10028 0,0.20057 0.10028,0.20057h0.80227c0.10028,0 0.10028,-0.10028 0.10028,-0.10028c0,0 0,-0.30085 0.20057,-0.20057c0.20057,0 0.10028,0.20057 0.10028,0.20057zM322.09762,182.65751c0,0.10028 0,0.10028 -0.10028,0.20057c0,0.10028 0.10028,0.20057 0.10028,0.30085h1.00283c0,-0.20057 0,-0.40113 0,-0.50142z" fill="#4e4e50"/></g></g></g></svg>