<svg version="1.1" xmlns="http://www.w3.org/2000/svg" xmlns:xlink="http://www.w3.org/1999/xlink" width="19.1541" height="19.1541" viewBox="0,0,19.1541,19.1541"><g transform="translate(-310.42295,-170.42295)"><g data-paper-data="{&quot;isPaintingLayer&quot;:true}" stroke="none" stroke-width="1" stroke-linecap="butt" stroke-linejoin="miter" stroke-miterlimit="10" stroke-dasharray="" stroke-dashoffset="0" style="mix-blend-mode: normal"><g><path d="M314.19716,187.68995c-1.09433,0 -1.98146,-0.88713 -1.98146,-1.98146v-11.51133c0,-1.09433 0.88713,-1.98146 1.98146,-1.98146h11.51133c1.09433,0 1.98146,0.88713 1.98146,1.98146v11.51133c0,1.09433 -0.88713,1.98146 -1.98146,1.98146z" fill="#fefefe" fill-rule="evenodd"/><path d="M314.19716,170.51731h11.60569c1.03791,0 1.98146,0.37742 2.64194,1.03791v0c0.66049,0.66049 1.03791,1.60404 1.03791,2.64194v11.60569c0,1.03791 -0.37742,1.98146 -1.03791,2.64194v0c-0.66049,0.66049 -1.60404,1.03791 -2.64194,1.03791h-11.60569c-1.03791,0 -1.98146,-0.37742 -2.64194,-1.03791v0c-0.66049,-0.66049 -1.03791,-1.60404 -1.03791,-2.64194v-11.60569c0,-1.03791 0.37742,-1.98146 1.03791,-2.64194v0c0.66049,-0.66049 1.60404,-1.03791 2.64194,-1.03791zM314.19716,172.2157h11.60569c1.03791,0 1.98146,0.94355 1.98146,1.98146v11.60569c0,1.03791 -0.94355,1.98146 -1.98146,1.98146h-11.60569c-1.03791,0 -1.98146,-0.94355 -1.98146,-1.98146v-11.60569c0,-1.03791 0.94355,-1.98146 1.98146,-1.98146z" fill="#ef7f1a" fill-rule="evenodd"/><path d="M314.19716,170.42295h11.60569c0.47178,0 1.03791,0.09436 1.41533,0.28307c0.47178,0.18871 0.8492,0.47178 1.22662,0.8492v0c0.37742,0.28307 0.66049,0.75484 0.8492,1.22662c0.18871,0.37742 0.28307,0.94355 0.28307,1.41533v11.60569c0,0.47178 -0.09436,1.03791 -0.28307,1.41533c-0.18871,0.47178 -0.47178,0.8492 -0.8492,1.22662v0c-0.37742,0.37742 -0.75484,0.66049 -1.22662,0.8492c-0.37742,0.18871 -0.94355,0.28307 -1.41533,0.28307h-11.60569c-0.47178,0 -1.03791,-0.09436 -1.41533,-0.28307c-0.47178,-0.18871 -0.94355,-0.47178 -1.22662,-0.8492v0c-0.37742,-0.37742 -0.66049,-0.75484 -0.8492,-1.22662c-0.18871,-0.37742 -0.28307,-0.94355 -0.28307,-1.41533v-11.60569c0,-0.47178 0.09436,-1.03791 0.28307,-1.41533c0.18871,-0.47178 0.47178,-0.94355 0.8492,-1.22662v0c0.28307,-0.37742 0.75484,-0.66049 1.22662,-0.8492c0.37742,-0.18871 0.94355,-0.28307 1.41533,-0.28307zM325.80284,170.51731h-11.60569c-0.47178,0 -0.94355,0.09436 -1.41533,0.28307c-0.47178,0.18871 -0.8492,0.47178 -1.13226,0.75484l-0.09436,0.09436c-0.28307,0.28307 -0.56613,0.66049 -0.75484,1.13226c-0.18871,0.47178 -0.28307,0.94355 -0.28307,1.41533v11.60569c0,0.47178 0.09436,0.94355 0.28307,1.41533c0.18871,0.47178 0.47178,0.8492 0.75484,1.13226h0.09436c0.28307,0.37742 0.66049,0.66049 1.13226,0.8492c0.47178,0.18871 0.94355,0.28307 1.41533,0.28307h11.60569c0.47178,0 0.94355,-0.09436 1.41533,-0.28307c0.47178,-0.18871 0.8492,-0.47178 1.13226,-0.8492v0c0.37742,-0.28307 0.66049,-0.66049 0.8492,-1.13226c0.18871,-0.47178 0.28307,-0.94355 0.28307,-1.41533v-11.60569c0,-0.47178 -0.09436,-0.94355 -0.28307,-1.41533c-0.18871,-0.47178 -0.47178,-0.8492 -0.8492,-1.13226v-0.09436c-0.28307,-0.28307 -0.66049,-0.56613 -1.13226,-0.75484c-0.47178,-0.18871 -0.94355,-0.28307 -1.41533,-0.28307zM314.19716,172.2157h11.60569c0.56613,0 1.03791,0.18871 1.41533,0.56613c0.37742,0.37742 0.56613,0.8492 0.56613,1.41533v11.60569c0,0.56613 -0.18871,1.03791 -0.56613,1.41533c-0.37742,0.37742 -0.8492,0.56613 -1.41533,0.56613h-11.60569c-0.56613,0 -1.03791,-0.18871 -1.41533,-0.56613c-0.37742,-0.37742 -0.56613,-0.8492 -0.56613,-1.41533v-11.60569c0,-0.56613 0.18871,-1.03791 0.56613,-1.41533c0.37742,-0.37742 0.8492,-0.56613 1.41533,-0.56613zM325.80284,172.31005h-11.60569c-0.56613,0 -1.03791,0.18871 -1.32097,0.56613c-0.37742,0.28307 -0.56613,0.75484 -0.56613,1.32097v11.60569c0,0.56613 0.18871,1.03791 0.56613,1.32097c0.28307,0.37742 0.75484,0.56613 1.32097,0.56613h11.60569c0.56613,0 1.03791,-0.18871 1.32097,-0.56613c0.37742,-0.28307 0.56613,-0.75484 0.56613,-1.32097v-11.60569c0,-0.56613 -0.18871,-1.03791 -0.56613,-1.32097c-0.28307,-0.37742 -0.75484,-0.56613 -1.32097,-0.56613z" fill="#fefefe" fill-rule="nonzero"/><path d="M320.80202,183.63267h-1.60404v0c-1.8871,-0.09436 -3.39679,-1.69839 -3.39679,-3.67985c0,-1.98146 1.60404,-3.5855 3.49114,-3.5855h0.09436h1.41533z" fill="#ed9e34" fill-rule="nonzero"/><path d="M320.80202,183.82138h-1.60404h-0.09436c-1.98146,-0.09436 -3.49114,-1.69839 -3.49114,-3.86856c0,-2.07581 1.60404,-3.77421 3.5855,-3.77421h0.09436v0h0.09436v0h1.41533c0.09436,0 0.18871,0.09436 0.18871,0.18871v7.26535c0,0.09436 -0.09436,0.18871 -0.18871,0.18871zM319.19798,183.34961h1.32097v-6.69922h-1.13226c-0.09436,0 -0.09436,0 -0.09436,0c-1.79275,0 -3.20808,1.50968 -3.20808,3.30243c0,1.8871 1.32097,3.39679 3.11372,3.39679z" fill="#5b3523" fill-rule="nonzero"/><path d="M324.19881,179.95282c0,2.07581 -1.60404,3.67985 -3.49114,3.67985c-1.8871,0 -3.49114,-1.60404 -3.49114,-3.67985c0,-1.98146 1.60404,-3.5855 3.49114,-3.5855c1.8871,0 3.49114,1.60404 3.49114,3.5855z" fill="#fcc127" fill-rule="nonzero"/><path d="M320.70766,183.82138c-1.98146,0 -3.67985,-1.69839 -3.67985,-3.86856c0,-2.07581 1.60404,-3.77421 3.67985,-3.77421h0.09436c1.98146,0 3.5855,1.69839 3.5855,3.77421v0.09436c0,2.07581 -1.60404,3.77421 -3.67985,3.77421zM320.70766,176.65039c-1.79275,0 -3.20808,1.50968 -3.20808,3.30243c0,1.8871 1.41533,3.39679 3.20808,3.39679c1.79275,0 3.20808,-1.50968 3.20808,-3.39679c0,-1.79275 -1.41533,-3.30243 -3.20808,-3.30243z" fill="#5b3523" fill-rule="nonzero"/><path d="M318.91492,182.3117c0,0 0,0 0,-0.09436c0,0 0,0 0,-0.09436v0c0,0 0,0 0,-0.09436v-0.09436l-0.09436,-0.09436l0.09436,-0.09436c0,-0.09436 0,-0.09436 0,-0.18871c0,0 0,0 0,-0.09436v-0.09436c0.09436,-0.09436 0.09436,-0.18871 0.18871,-0.18871c0,-0.09436 0.09436,-0.09436 0.09436,-0.18871c0.09436,-0.09436 0.18871,-0.09436 0.18871,-0.18871l0.47178,-0.37742c0.09436,-0.09436 0.18871,-0.18871 0.28307,-0.28307c0,0 0.09436,-0.09436 0.18871,-0.18871c0,-0.09436 0.09436,-0.18871 0.18871,-0.18871c0,-0.09436 0.09436,-0.18871 0.09436,-0.28307c0.09436,0 0.09436,-0.09436 0.09436,-0.18871v-0.09436c0,-0.09436 0,-0.18871 0,-0.28307v0v0v0c-0.09436,0 -0.09436,0 -0.09436,0h-0.09436v0.09436l-0.09436,0.09436c0,0.09436 0,0.18871 -0.09436,0.18871c-0.09436,0 -0.09436,0.09436 -0.09436,0.09436c-0.09436,0 -0.09436,-0.09436 -0.18871,-0.09436c-0.09436,0 -0.09436,0 -0.18871,0c-0.09436,0 -0.09436,0 -0.18871,0c-0.09436,0 -0.18871,0 -0.18871,-0.09436c-0.09436,0 -0.09436,0 -0.18871,0c-0.09436,0 -0.09436,0 -0.18871,-0.09436h-0.09436v0c-0.09436,-0.09436 -0.18871,-0.09436 -0.18871,-0.18871c0,-0.09436 0.09436,-0.18871 0.09436,-0.28307c0,-0.09436 0,-0.18871 0.09436,-0.28307c0,-0.09436 0.09436,-0.18871 0.09436,-0.28307c0.09436,-0.09436 0.18871,-0.18871 0.18871,-0.28307c0.09436,-0.09436 0.18871,-0.09436 0.28307,-0.18871c0.09436,-0.09436 0.18871,-0.09436 0.28307,-0.18871v0c0.09436,0 0.28307,-0.09436 0.37742,-0.09436c0.09436,0 0.18871,0 0.37742,0c0.09436,0 0.28307,0 0.47178,0c0.09436,0.09436 0.18871,0.09436 0.37742,0.09436c0.09436,0.09436 0.18871,0.18871 0.28307,0.18871c0.09436,0.09436 0.18871,0.18871 0.28307,0.28307c0,0.09436 0,0.09436 0,0.18871c0,0 0,0 0,0.09436v0c0,0 0,0 0.09436,0v0c0,0.09436 0.09436,0.09436 0.09436,0.18871c0,0.09436 0.09436,0.18871 0.09436,0.37742c0,0.09436 0,0.28307 0,0.47178c0,0.09436 0,0.18871 0,0.37742c0,0.09436 -0.09436,0.18871 -0.09436,0.28307c0,0.18871 -0.09436,0.28307 -0.09436,0.37742c-0.09436,0.09436 -0.09436,0.18871 -0.18871,0.28307c-0.09436,0.09436 -0.09436,0.18871 -0.18871,0.28307c0,0.09436 -0.09436,0.18871 -0.18871,0.18871l-0.09436,0.09436c0.09436,0 0.18871,0 0.28307,0c0.09436,0 0.18871,0 0.28307,0c0.09436,0 0.18871,0 0.28307,0h0.18871v0.18871v0.09436c0,0.09436 0,0.09436 0,0.18871v0v0.09436c0,0.09436 0,0.09436 0,0.18871v0.09436c0,0.09436 0,0.09436 0,0.18871v0v0.09436c0,0.09436 0,0.09436 0,0.09436v0.18871h-0.18871c0,0 -0.09436,0 -0.18871,0c-0.09436,0 -0.18871,0 -0.28307,0c-0.09436,0 -0.18871,0 -0.28307,0c-0.09436,0 -0.18871,0 -0.28307,0h-0.28307c-0.09436,0 -0.18871,0 -0.28307,0c-0.09436,0 -0.18871,0 -0.28307,0h-0.18871v0v-0.18871v0h-0.09436h-0.09436v0v0l-0.09436,0.09436c0,0 0,0 -0.09436,0.09436v0h-0.09436h-0.09436h-0.09436h-0.09436h-0.09436c-0.09436,0 -0.09436,0 -0.09436,0c-0.09436,0 -0.09436,0 -0.09436,0v0h-0.09436c0,0 -0.09436,0 -0.09436,-0.09436zM319.29234,182.12299v0v0h0.09436v0h0.09436v0h0.09436v0c0.09436,0 0.09436,0 0.09436,0v0l0.09436,-0.09436v0v0v0l0.09436,-0.09436v0c0,0 0,0 0.09436,-0.09436h0.09436c0.09436,0 0.09436,0 0.18871,0.09436v0l0.09436,0.09436v0c0,0 0,0 0,0.09436c0,0 0,0 0.09436,0v0v0c0.09436,0 0.09436,0 0.28307,0c0.09436,0 0.18871,0 0.28307,0h0.28307c0.09436,0 0.18871,0 0.28307,0c0.09436,0 0.18871,0 0.28307,0c0.09436,0 0.18871,0 0.28307,0v0v0c0,-0.09436 0,-0.09436 0,-0.18871v-0.09436c0,-0.09436 0,-0.09436 0,-0.18871v-0.09436v-0.09436h-0.09436c-0.09436,0 -0.18871,0 -0.28307,0c-0.09436,0 -0.18871,0 -0.37742,0c-0.09436,0 -0.28307,0 -0.37742,0h-0.47178l0.37742,-0.28307c0.09436,-0.09436 0.09436,-0.18871 0.18871,-0.18871c0.09436,-0.09436 0.09436,-0.18871 0.18871,-0.18871c0.09436,-0.09436 0.09436,-0.18871 0.18871,-0.28307c0.09436,0 0.09436,-0.09436 0.18871,-0.18871c0,-0.09436 0.09436,-0.18871 0.09436,-0.28307c0,-0.09436 0.09436,-0.18871 0.09436,-0.28307c0.09436,-0.09436 0.09436,-0.18871 0.09436,-0.28307c0,-0.09436 0,-0.18871 0,-0.28307v-0.09436c0,-0.09436 0,-0.18871 0,-0.37742v-0.09436v0c-0.09436,0 -0.09436,0 -0.09436,0h-0.09436c-0.09436,-0.09436 -0.09436,-0.09436 -0.18871,-0.09436v-0.09436c0,0 0,0 0,-0.09436v-0.09436c0,0 0,0 0,-0.09436c0.09436,0 0.09436,0 0.09436,0v0c0,-0.09436 0,-0.09436 0,-0.09436v0c0,0 -0.09436,-0.09436 -0.18871,-0.09436c0,-0.09436 -0.09436,-0.09436 -0.18871,-0.18871c-0.09436,0 -0.18871,-0.09436 -0.28307,-0.09436c-0.09436,0 -0.28307,0 -0.37742,0c-0.09436,0 -0.18871,0 -0.28307,0c-0.09436,0 -0.18871,0.09436 -0.28307,0.09436c-0.09436,0 -0.18871,0.09436 -0.28307,0.09436c0,0.09436 -0.09436,0.09436 -0.18871,0.18871c0,0.09436 -0.09436,0.09436 -0.09436,0.18871c-0.09436,0.09436 -0.09436,0.09436 -0.18871,0.18871c0,0.09436 0,0.18871 0,0.28307c0,0 -0.09436,0 -0.09436,0.09436v0v0c0.09436,0 0.09436,0 0.18871,0c0.09436,0 0.09436,0 0.18871,0.09436c0,0 0.09436,0 0.18871,0c0,0 0.09436,0 0.18871,0h0.09436l0.09436,0.09436c0,-0.09436 0,-0.09436 0,-0.09436c0,-0.09436 0.09436,-0.18871 0.09436,-0.28307c0.09436,-0.09436 0.18871,-0.09436 0.37742,-0.09436c0.09436,0 0.09436,0 0.18871,0c0.09436,0 0.09436,0.09436 0.18871,0.09436c0,0.09436 0.09436,0.18871 0.09436,0.28307c0,0 0,0.09436 0,0.28307c0,0 0,0.09436 0,0.18871c0,0.09436 -0.09436,0.18871 -0.09436,0.28307c-0.09436,0.09436 -0.18871,0.18871 -0.18871,0.28307c-0.09436,0.09436 -0.18871,0.18871 -0.18871,0.28307c-0.09436,0 -0.18871,0.09436 -0.28307,0.18871c0,0.09436 -0.09436,0.18871 -0.18871,0.28307v0l-0.47178,0.37742c-0.09436,0.09436 -0.09436,0.09436 -0.18871,0.18871c0,0.09436 -0.09436,0.09436 -0.09436,0.18871c-0.09436,0 -0.09436,0 -0.09436,0.09436v0v0v0.09436l-0.09436,0.09436c0,0 0,0 0,0.09436v0.09436l0.09436,0.09436c0,0 0,0 0,0.09436zM320.14153,182.21735v0v0zM320.14153,182.21735v0v0zM320.14153,182.21735c0,0 -0.09436,0 -0.09436,0.09436l0.09436,-0.09436v0zM320.04718,182.3117v0l0.09436,-0.09436zM320.04718,182.3117v0h0.09436v0v-0.09436zM320.04718,182.3117h0.09436v0zM320.04718,182.3117v0v0h0.09436zM320.23589,182.3117h-0.09436zM320.23589,182.3117h-0.09436v0z" fill="#5b3523" fill-rule="nonzero"/><path d="M319.10363,182.3117c0,-0.09436 0,-0.09436 0,-0.18871c0,-0.09436 0,-0.09436 -0.09436,-0.18871c0,-0.09436 0,-0.18871 0,-0.18871c0.09436,-0.09436 0.09436,-0.18871 0.09436,-0.18871c0,-0.09436 0,-0.18871 0.09436,-0.28307c0.09436,-0.09436 0.18871,-0.18871 0.37742,-0.28307c0.09436,-0.18871 0.28307,-0.28307 0.37742,-0.47178c0.18871,-0.09436 0.37742,-0.28307 0.47178,-0.47178c0.18871,-0.09436 0.28307,-0.28307 0.37742,-0.47178c0.09436,-0.09436 0.09436,-0.28307 0.09436,-0.37742c0,-0.18871 0,-0.37742 -0.09436,-0.37742c0,-0.09436 -0.09436,-0.09436 -0.18871,-0.09436c-0.09436,0 -0.18871,0 -0.18871,0.09436c-0.09436,0.09436 -0.18871,0.18871 -0.18871,0.28307v0.09436c-0.09436,0 -0.18871,-0.09436 -0.37742,-0.09436c-0.09436,0 -0.18871,0 -0.37742,-0.09436c-0.09436,0 -0.18871,0 -0.28307,0c-0.09436,-0.09436 -0.18871,-0.09436 -0.18871,-0.09436c0,-0.18871 0.09436,-0.37742 0.18871,-0.56613c0,-0.09436 0.09436,-0.28307 0.28307,-0.37742c0.09436,-0.18871 0.28307,-0.28307 0.47178,-0.37742c0.18871,-0.09436 0.37742,-0.09436 0.66049,-0.09436c0.28307,0 0.56613,0 0.75484,0.09436c0.18871,0.09436 0.37742,0.28307 0.47178,0.37742c0,0.09436 0,0.09436 0,0.09436c0,0.09436 0,0.09436 0,0.09436c-0.09436,0.09436 -0.09436,0.09436 -0.09436,0.18871c0,0 0,0 0,0.09436c0,0 0,0 0.09436,0c0,0 0,0 0.09436,-0.09436c0,0 0,0 0.09436,0v0c0.09436,0.28307 0.09436,0.47178 0.09436,0.8492c0,0.18871 0,0.37742 -0.09436,0.66049c-0.09436,0.18871 -0.18871,0.37742 -0.28307,0.56613c-0.09436,0.18871 -0.18871,0.37742 -0.28307,0.47178c-0.18871,0.18871 -0.28307,0.28307 -0.47178,0.37742c0.28307,0 0.47178,0 0.75484,0c0.18871,0 0.37742,0 0.56613,0c0,0.09436 0,0.18871 0,0.28307c0,0.09436 0,0.18871 0,0.28307c0,0.09436 0,0.18871 0,0.28307c0,0.09436 0,0.09436 0,0.18871c-0.09436,0 -0.28307,0 -0.47178,0c-0.18871,0 -0.37742,0 -0.56613,0c-0.18871,0 -0.37742,0 -0.56613,0c-0.18871,0 -0.37742,0 -0.47178,0v0v0v0c0,-0.09436 0,-0.09436 -0.09436,-0.18871c0,0 0,0 0,-0.09436c-0.09436,0 -0.09436,0 -0.09436,0c0,0 0,0 -0.09436,0c0,0.09436 0,0.09436 -0.09436,0.18871c0,0 0,0 -0.09436,0.09436v0c-0.09436,0 -0.09436,0 -0.18871,0c-0.09436,0 -0.09436,0 -0.18871,0c-0.09436,0 -0.09436,0 -0.18871,0c-0.09436,0 -0.09436,0 -0.09436,0z" fill="#fcc127" fill-rule="nonzero"/><path d="M319.10363,182.3117c0,-0.09436 0,-0.09436 0,-0.18871c0,-0.09436 0,-0.09436 -0.09436,-0.18871c0,-0.09436 0,-0.18871 0,-0.18871c0.09436,-0.09436 0.09436,-0.18871 0.09436,-0.18871c0,-0.09436 0,-0.18871 0.09436,-0.28307c0.09436,-0.09436 0.18871,-0.18871 0.37742,-0.28307c0.09436,-0.18871 0.28307,-0.28307 0.37742,-0.47178c0.18871,-0.09436 0.37742,-0.28307 0.47178,-0.47178c0.18871,-0.09436 0.28307,-0.28307 0.37742,-0.47178c0.09436,-0.09436 0.09436,-0.28307 0.09436,-0.37742c0,-0.18871 0,-0.37742 -0.09436,-0.37742c0,-0.09436 -0.09436,-0.09436 -0.18871,-0.09436c-0.09436,0 -0.18871,0 -0.18871,0.09436c-0.09436,0.09436 -0.18871,0.18871 -0.18871,0.28307v0.09436c-0.09436,0 -0.18871,-0.09436 -0.37742,-0.09436c-0.09436,0 -0.18871,0 -0.37742,-0.09436c-0.09436,0 -0.18871,0 -0.28307,0c-0.09436,-0.09436 -0.18871,-0.09436 -0.18871,-0.09436c0,-0.18871 0.09436,-0.37742 0.18871,-0.56613c0,-0.09436 0.09436,-0.28307 0.28307,-0.37742c0.09436,-0.18871 0.28307,-0.28307 0.47178,-0.37742c0.18871,-0.09436 0.37742,-0.09436 0.66049,-0.09436c0.28307,0 0.56613,0 0.75484,0.09436c0.18871,0.09436 0.37742,0.28307 0.47178,0.37742c0,0.09436 0,0.09436 0,0.09436c0,0.09436 0,0.09436 0,0.09436c-0.09436,0.09436 -0.09436,0.09436 -0.09436,0.18871c0,0 0,0 0,0.09436c0,0 0,0 0.09436,0c0,0 0,0 0.09436,-0.09436c0,0 0,0 0.09436,0v0c0.09436,0.28307 0.09436,0.47178 0.09436,0.8492c0,0.18871 0,0.37742 -0.09436,0.66049c-0.09436,0.18871 -0.18871,0.37742 -0.28307,0.56613c-0.09436,0.18871 -0.18871,0.37742 -0.28307,0.47178c-0.18871,0.18871 -0.28307,0.28307 -0.47178,0.37742c0.28307,0 0.47178,0 0.75484,0c0.18871,0 0.37742,0 0.56613,0c0,0.09436 0,0.18871 0,0.28307c0,0.09436 0,0.18871 0,0.28307c0,0.09436 0,0.18871 0,0.28307c0,0.09436 0,0.09436 0,0.18871c-0.09436,0 -0.28307,0 -0.47178,0c-0.18871,0 -0.37742,0 -0.56613,0c-0.18871,0 -0.37742,0 -0.56613,0c-0.18871,0 -0.37742,0 -0.47178,0v0v0v0c0,-0.09436 0,-0.09436 -0.09436,-0.18871c0,0 0,0 0,-0.09436c-0.09436,0 -0.09436,0 -0.09436,0c0,0 0,0 -0.09436,0c0,0.09436 0,0.09436 -0.09436,0.18871c0,0 0,0 -0.09436,0.09436v0c-0.09436,0 -0.09436,0 -0.18871,0c-0.09436,0 -0.09436,0 -0.18871,0c-0.09436,0 -0.09436,0 -0.18871,0c-0.09436,0 -0.09436,0 -0.09436,0z" fill="#ed9e34" fill-rule="nonzero"/></g></g></g></svg>