<svg version="1.1" xmlns="http://www.w3.org/2000/svg" xmlns:xlink="http://www.w3.org/1999/xlink" width="349.45217" height="132.89025" viewBox="0,0,349.45217,132.89025"><g transform="translate(-145.27391,-100.55487)"><g data-paper-data="{&quot;isPaintingLayer&quot;:true}" stroke="none" stroke-linecap="butt" stroke-linejoin="miter" stroke-miterlimit="10" stroke-dasharray="" stroke-dashoffset="0" style="mix-blend-mode: normal"><path d="M170.68861,233.44512c-14.03615,0 -25.4147,-11.44173 -25.4147,-25.55582v-81.77861c0,-14.11409 11.37855,-25.55582 25.4147,-25.55582h298.62277c14.03615,0 25.4147,11.44173 25.4147,25.55582v81.77861c0,14.11409 -11.37855,25.55582 -25.4147,25.55582z" fill="#369cf0" fill-rule="evenodd" stroke-width="0"/><g fill="#ffffff" fill-rule="nonzero" stroke-width="1"><path d="M193.30012,160.58302c0,5.70396 1.06721,6.41695 2.49015,7.48645l0.71147,0.3565c0.71147,0.71299 1.06721,1.78249 1.06721,2.85198c0,1.06949 -0.71147,2.13898 -1.77868,2.85198c-2.49015,1.06949 -3.91309,2.85198 -3.91309,4.27797l0.35574,5.70396h19.56545v-5.70396c0,-1.42599 -1.42294,-3.20848 -3.55735,-4.27797c-1.06721,-0.71299 -1.77868,-1.78249 -2.13441,-2.85198c0,-1.06949 0.35574,-2.13898 1.42294,-2.85198c1.77868,-1.42599 3.20162,-2.49548 3.20162,-7.84294c0,-3.20848 -4.26883,-6.06046 -8.89339,-6.06046c-4.26883,0 -8.53765,2.85198 -8.53765,6.06046zM213.93278,160.58302c0,7.12995 -2.13441,8.91244 -4.26883,10.33843c3.20162,1.78249 5.33603,4.63447 5.33603,7.48645v8.91244h-25.96869l-0.35574,-8.91244c0,-2.85198 2.13441,-5.70396 5.69177,-7.48645c-2.13441,-1.42599 -4.26883,-2.49548 -4.26883,-10.33843c0,-5.34746 5.69177,-9.26893 11.73927,-9.26893c6.40324,0 12.095,3.92147 12.095,9.26893z"/><path d="M214.99999,188.03332h-25.96869c-0.35574,0 -0.71147,-0.3565 -0.71147,-0.71299l-0.35574,-8.55594v-0.3565c0,-2.85198 1.77868,-5.70396 4.9803,-7.48645c-2.13441,-1.42599 -3.55735,-3.20848 -3.55735,-10.33843c0,-5.34746 5.69177,-9.98193 12.45074,-9.98193c6.75897,0 12.80648,4.63447 12.80648,9.98193c0,6.41695 -1.77868,8.91244 -3.55735,10.33843c2.84588,1.78249 4.9803,4.63447 4.9803,7.48645v8.91244c0,0.3565 -0.35574,0.71299 -1.06721,0.71299zM189.74276,186.60733h24.54574v-8.19944c0,-2.49548 -1.77868,-4.99096 -4.9803,-6.77345c-0.35574,0 -0.35574,-0.3565 -0.35574,-0.3565c-0.35574,-0.3565 0,-0.71299 0,-0.71299c2.13441,-1.78249 4.26883,-3.20848 4.26883,-9.98193c0,-4.63447 -5.33603,-8.55594 -11.38353,-8.55594c-5.69177,0 -11.0278,3.92147 -11.0278,8.55594c0,6.77345 1.77868,8.19944 3.55735,9.62543c0,0 0.35574,0 0.35574,0.3565c0.35574,0 0.35574,0.3565 0.35574,0.71299c0,0 0,0.3565 -0.35574,0.3565c-3.20162,1.78249 -5.33603,4.27797 -5.33603,6.77345z"/><path d="M219.26882,160.58302c0,5.70396 1.06721,6.41695 2.49015,7.48645l0.71147,0.3565c0.71147,0.71299 1.42294,1.78249 1.06721,2.85198c0,1.06949 -0.71147,2.13898 -1.77868,2.85198c-2.49015,1.06949 -3.55735,2.85198 -3.55735,4.27797v5.70396h19.56545v-5.70396c0,-1.42599 -1.42294,-3.20848 -3.55735,-4.27797c-1.06721,-0.71299 -1.77868,-1.78249 -1.77868,-2.85198c-0.35574,-1.06949 0.35574,-2.13898 1.06721,-2.85198c1.77868,-1.42599 3.20162,-2.49548 3.20162,-7.84294c0,-3.20848 -4.26883,-6.06046 -8.89339,-6.06046c-4.26883,0 -8.53765,2.85198 -8.53765,6.06046zM239.90147,160.58302c0,7.12995 -2.13441,8.91244 -4.26883,10.33843c3.20162,1.78249 5.69177,4.63447 5.69177,7.48645v8.91244h-26.32442l-0.35574,-8.91244c0,-2.85198 2.13441,-5.70396 5.69177,-7.48645c-2.13441,-1.42599 -4.26883,-2.49548 -4.26883,-10.33843c0,-5.34746 5.69177,-9.26893 11.73927,-9.26893c6.40324,0 12.095,3.92147 12.095,9.26893z"/><path d="M241.3244,188.03332h-26.32442c-0.35574,0 -0.71147,-0.3565 -0.71147,-0.71299l-0.35574,-8.91244c0,-2.85198 1.77868,-5.70396 4.9803,-7.48645c-1.77868,-1.42599 -3.55735,-3.20848 -3.55735,-10.33843c0,-5.34746 5.69177,-9.98193 12.45074,-9.98193c6.75897,0 12.80648,4.63447 12.80648,9.98193c0,6.41695 -1.77868,8.91244 -3.55735,10.33843c3.20162,1.78249 4.9803,4.63447 4.9803,7.48645v8.91244c0,0.3565 -0.35574,0.71299 -0.71147,0.71299zM215.71146,186.60733h24.54574v-8.19944c0,-2.49548 -1.77868,-4.99096 -4.9803,-6.77345c-0.35574,0 -0.35574,-0.3565 -0.35574,-0.3565c0,-0.3565 0,-0.71299 0,-0.71299c2.13441,-1.78249 4.26883,-3.20848 4.26883,-9.98193c0,-4.63447 -5.33603,-8.55594 -11.38353,-8.55594c-5.69177,0 -11.0278,3.92147 -11.0278,8.55594c0,6.77345 1.77868,8.19944 3.55735,9.62543c0,0 0.35574,0 0.35574,0.3565c0.35574,0 0.35574,0.3565 0.35574,0.71299c0,0 0,0.3565 -0.35574,0.3565c-3.20162,1.78249 -5.33603,4.27797 -5.33603,6.77345z"/><path d="M208.59675,203.71921c0.35574,-1.06949 0.35574,-1.78249 0.71147,-2.49548c0.35574,-1.06949 0.35574,-2.13898 0.71147,-2.85198c0,-0.3565 0.35574,-0.3565 0.35574,-0.3565c0,-0.3565 0.35574,-0.3565 0.35574,-0.3565c0.35574,0 0.35574,0 0.35574,0l0.35574,-0.3565v-0.3565c-0.35574,-0.3565 -0.35574,-0.3565 -0.35574,-0.3565c0,-0.3565 0,-0.3565 0,-0.71299v-0.3565c0,-0.3565 0.35574,-1.06949 0.35574,-1.42599c0.35574,-0.3565 0.35574,-0.71299 0.35574,-1.06949c0.35574,-0.3565 0.35574,-1.06949 0.71147,-1.42599h4.62456c-0.35574,1.42599 -0.71147,2.49548 -1.06721,3.92147c0,0.3565 0,1.06949 -0.35574,1.78249c0,0.3565 -0.35574,1.06949 -0.35574,1.78249c0,0.3565 -0.35574,1.06949 -0.35574,1.78249c0,0.71299 -0.35574,1.06949 -0.35574,1.78249h1.42294l0.35574,-3.56497c0,0 0.35574,0 0.71147,0c0.35574,0 1.06721,0 1.42294,0c0.71147,0 1.06721,0 1.77868,0c0.35574,0 0.71147,0 1.06721,0c0,1.42599 0,2.49548 0,3.20848c0,1.06949 0,1.78249 0,2.85198v0c-0.35574,0 -0.35574,0.3565 -0.35574,0.3565c-0.35574,0 -0.35574,0 -0.35574,0c-0.35574,0 -0.35574,0.3565 -0.35574,0.3565c0,0 0,0 0.35574,0.3565c0,0 0,0 0.35574,0.3565c0,0 0,0 0.35574,0c0,0.3565 0,0.3565 0,0.3565v1.78249c0,0.3565 0,1.06949 0,1.78249c0,0 -0.35574,0 -0.71147,0c-0.35574,0 -0.71147,0 -1.06721,0v0h-0.35574h-0.71147v0v0v0v0v0h-0.71147c0,0 -0.35574,0 -0.71147,0c-0.35574,0 -0.35574,0 -0.71147,0h-0.35574c0,-0.3565 0,-0.71299 0,-1.06949v-0.71299c0,0 0,-0.3565 0,-0.71299c0,0 0,-0.3565 0,-0.71299c-0.35574,0 -0.71147,0 -1.06721,0c-0.35574,0 -0.71147,0 -1.42294,0c-0.35574,0 -0.71147,0 -1.42294,0h-1.06721c-0.71147,0 -1.06721,0 -1.42294,0c-0.71147,0 -1.06721,0 -1.06721,0c0,-0.3565 0,-0.3565 0,-0.71299c0,-0.3565 0,-0.71299 0,-1.06949c0,-0.3565 0,-0.71299 0,-1.06949c0,-0.3565 0,-0.3565 0,-0.71299z"/><path d="M242.03588,151.67058v6.06046c-0.71147,-2.13898 -2.13441,-4.27797 -4.26883,-5.70396v-0.3565c0,-1.78249 -1.42294,-3.56497 -3.55735,-4.63447c-1.06721,-0.3565 -1.77868,-1.42599 -1.77868,-2.49548c-0.35574,-1.42599 0.35574,-2.49548 1.06721,-3.20848c1.77868,-1.06949 3.20162,-2.13898 3.20162,-7.84294c0,-3.20848 -4.26883,-6.06046 -8.89339,-6.06046c-4.26883,0 -8.53765,2.85198 -8.53765,6.06046c0,5.70396 1.06721,6.41695 2.49015,7.48645l0.71147,0.3565c0.71147,0.71299 1.42294,1.78249 1.06721,3.20848c0,1.06949 -0.71147,2.13898 -1.77868,2.49548c-2.13441,1.06949 -3.55735,2.85198 -3.55735,4.63447v0.71299c-1.42294,1.06949 -2.49015,2.13898 -3.20162,3.20848c-0.71147,-1.06949 -1.77868,-2.49548 -3.20162,-3.56497v-0.3565c0,-1.78249 -1.42294,-3.56497 -3.55735,-4.63447c-1.06721,-0.3565 -1.77868,-1.42599 -2.13441,-2.49548c0,-1.42599 0.35574,-2.49548 1.42294,-3.20848c1.77868,-1.06949 2.84588,-2.13898 2.84588,-7.84294c0,-3.20848 -3.91309,-6.06046 -8.53765,-6.06046c-4.26883,0 -8.53765,2.85198 -8.53765,6.06046c0,5.70396 1.06721,6.41695 2.49015,7.48645l0.71147,0.3565c0.71147,0.71299 1.06721,1.78249 1.06721,3.20848c0,1.06949 -0.71147,2.13898 -1.77868,2.49548c-2.49015,1.06949 -3.91309,2.85198 -3.91309,4.63447v0.71299c-1.77868,1.42599 -2.84588,3.20848 -3.55735,5.34746l-0.35574,-6.06046c0,-2.85198 1.77868,-5.70396 4.9803,-7.84294c-2.13441,-1.42599 -3.55735,-3.20848 -3.55735,-10.33843c0,-5.34746 5.69177,-9.98193 12.45074,-9.98193c6.75897,0 12.80648,4.63447 12.80648,9.98193c0,6.41695 -1.77868,8.91244 -3.91309,10.33843c2.13441,1.06949 3.55735,2.49548 4.26883,4.27797c0.71147,-1.78249 2.13441,-3.20848 3.91309,-4.27797c-1.77868,-1.42599 -3.55735,-3.20848 -3.55735,-10.33843c0,-5.34746 5.69177,-9.98193 12.45074,-9.98193c6.75897,0 12.80648,4.63447 12.80648,9.98193c0,6.41695 -1.77868,8.91244 -3.55735,10.33843c2.84588,2.13898 4.9803,4.63447 4.9803,7.84294z"/></g><text transform="translate(263.2013,182.26874) scale(1.15006,1.15006)" font-size="40" xml:space="preserve" fill="#ffffff" fill-rule="nonzero" stroke="none" stroke-width="1" stroke-linecap="butt" stroke-linejoin="miter" stroke-miterlimit="10" stroke-dasharray="" stroke-dashoffset="0" font-family="Sans Serif" font-weight="normal" text-anchor="start" style="mix-blend-mode: normal"><tspan x="0" dy="0">PLAYERS</tspan></text></g></g></svg>