<svg version="1.1" xmlns="http://www.w3.org/2000/svg" xmlns:xlink="http://www.w3.org/1999/xlink" width="19.1541" height="19.1541" viewBox="0,0,19.1541,19.1541"><g transform="translate(-310.42295,-170.42295)"><g data-paper-data="{&quot;isPaintingLayer&quot;:true}" stroke="none" stroke-width="1" stroke-linecap="butt" stroke-linejoin="miter" stroke-miterlimit="10" stroke-dasharray="" stroke-dashoffset="0" style="mix-blend-mode: normal"><g><path d="M314.17612,187.72204c-1.07215,0 -1.94129,-0.86915 -1.94129,-1.94129v-11.60462c0,-1.07215 0.86915,-1.94129 1.94129,-1.94129h11.60462c1.07215,0 1.94129,0.86915 1.94129,1.94129v11.60462c0,1.07215 -0.86915,1.94129 -1.94129,1.94129z" fill="#fefefe" fill-rule="evenodd"/><path d="M314.17612,170.46609h11.60462c1.03536,0 1.94129,0.4314 2.63153,1.0785v0.04314c0.69024,0.6471 1.0785,1.59617 1.0785,2.58839v11.60462c0,1.03536 -0.38826,1.94129 -1.0785,2.63153v0c-0.69024,0.69024 -1.59617,1.0785 -2.63153,1.0785h-11.60462c-0.99222,0 -1.94129,-0.38826 -2.58839,-1.0785h-0.04314c-0.6471,-0.69024 -1.0785,-1.59617 -1.0785,-2.63153v-11.60462c0,-0.99222 0.4314,-1.94129 1.0785,-2.58839l0.04314,-0.04314c0.6471,-0.6471 1.59617,-1.0785 2.58839,-1.0785zM314.17612,172.23482h11.60462c1.0785,0 1.94129,0.8628 1.94129,1.94129v11.60462c0,1.0785 -0.8628,1.94129 -1.94129,1.94129h-11.60462c-1.0785,0 -1.94129,-0.8628 -1.94129,-1.94129v-11.60462c0,-1.0785 0.8628,-1.94129 1.94129,-1.94129z" fill="#ef7f1a" fill-rule="evenodd"/><path d="M314.17612,170.42295h11.60462c0.51768,0 0.99222,0.08628 1.46676,0.30198c0.4314,0.17256 0.8628,0.47454 1.20792,0.81966v0c0.34512,0.34512 0.60396,0.73338 0.81966,1.20792c0.17256,0.4314 0.30198,0.90594 0.30198,1.42362v11.60462c0,0.51768 -0.12942,0.99222 -0.30198,1.46676c-0.2157,0.4314 -0.47454,0.8628 -0.81966,1.20792v0c-0.34512,0.34512 -0.77652,0.60396 -1.20792,0.81966c-0.47454,0.17256 -0.94908,0.30198 -1.46676,0.30198h-11.60462c-0.51768,0 -0.99222,-0.12942 -1.42362,-0.30198c-0.47454,-0.2157 -0.8628,-0.47454 -1.20792,-0.81966v0c-0.34512,-0.34512 -0.6471,-0.77652 -0.81966,-1.20792c-0.2157,-0.47454 -0.30198,-0.94908 -0.30198,-1.46676v-11.60462c0,-0.51768 0.08628,-0.99222 0.30198,-1.42362c0.17256,-0.47454 0.47454,-0.8628 0.81966,-1.20792v0c0.34512,-0.34512 0.73338,-0.6471 1.20792,-0.81966c0.4314,-0.2157 0.90594,-0.30198 1.42362,-0.30198zM325.78074,170.50923h-11.60462c-0.47454,0 -0.94908,0.12942 -1.38048,0.30198c-0.4314,0.17256 -0.8628,0.4314 -1.20792,0.77652v0c-0.34512,0.34512 -0.60396,0.77652 -0.77652,1.20792c-0.17256,0.4314 -0.30198,0.90594 -0.30198,1.38048v11.60462c0,0.51768 0.12942,0.99222 0.30198,1.42362c0.17256,0.4314 0.4314,0.81966 0.77652,1.16478v0c0.34512,0.34512 0.77652,0.60396 1.20792,0.81966c0.4314,0.17256 0.90594,0.25884 1.38048,0.25884h11.60462c0.51768,0 0.99222,-0.08628 1.42362,-0.25884c0.4314,-0.2157 0.81966,-0.47454 1.16478,-0.81966v0c0.34512,-0.34512 0.60396,-0.73338 0.81966,-1.16478c0.17256,-0.4314 0.25884,-0.90594 0.25884,-1.42362v-11.60462c0,-0.47454 -0.08628,-0.94908 -0.25884,-1.38048c-0.2157,-0.4314 -0.47454,-0.8628 -0.81966,-1.20792v0c-0.34512,-0.34512 -0.73338,-0.60396 -1.16478,-0.77652c-0.4314,-0.17256 -0.90594,-0.30198 -1.42362,-0.30198zM314.17612,172.19168h11.60462c0.56082,0 1.0785,0.2157 1.42362,0.56082c0.34512,0.38826 0.60396,0.8628 0.60396,1.42362v11.60462c0,0.56082 -0.25884,1.0785 -0.60396,1.42362c-0.34512,0.34512 -0.8628,0.60396 -1.42362,0.60396h-11.60462c-0.56082,0 -1.03536,-0.25884 -1.42362,-0.60396c-0.34512,-0.34512 -0.56082,-0.8628 -0.56082,-1.42362v-11.60462c0,-0.56082 0.2157,-1.03536 0.56082,-1.42362c0.38826,-0.34512 0.8628,-0.56082 1.42362,-0.56082zM325.78074,172.27796h-11.60462c-0.51768,0 -0.99222,0.2157 -1.33734,0.56082c-0.34512,0.34512 -0.56082,0.81966 -0.56082,1.33734v11.60462c0,0.51768 0.2157,0.99222 0.56082,1.33734c0.34512,0.34512 0.81966,0.56082 1.33734,0.56082h11.60462c0.51768,0 0.99222,-0.2157 1.33734,-0.56082c0.34512,-0.34512 0.56082,-0.81966 0.56082,-1.33734v-11.60462c0,-0.51768 -0.2157,-0.99222 -0.56082,-1.33734c-0.34512,-0.34512 -0.81966,-0.56082 -1.33734,-0.56082z" fill="#fefefe" fill-rule="nonzero"/><path d="M316.93707,182.32955c-0.08628,0.08628 -0.25884,0.08628 -0.34512,0c-0.12942,-0.08628 -0.12942,-0.25884 -0.04314,-0.34512l4.40027,-4.65911c0.08628,-0.12942 0.25884,-0.12942 0.34512,-0.04314c0.08628,0.12942 0.08628,0.25884 0,0.38826z" fill="#2b2a29" fill-rule="nonzero"/><path d="M323.88259,176.46253c-0.6471,0 -1.16478,-0.56082 -1.16478,-1.20792c0,-0.6471 0.51768,-1.16478 1.16478,-1.16478c0.6471,0 1.20792,0.51768 1.20792,1.16478c0,0.6471 -0.56082,1.20792 -1.20792,1.20792z" fill="#e63331" fill-rule="nonzero"/><path d="M323.88259,176.59195c-0.73338,0 -1.33734,-0.60396 -1.33734,-1.33734c0,-0.73338 0.60396,-1.33734 1.33734,-1.33734c0.73338,0 1.2942,0.60396 1.33734,1.2942v0.08628c-0.04314,0.69024 -0.60396,1.2942 -1.33734,1.2942zM323.88259,174.21926c-0.56082,0 -1.03536,0.47454 -1.03536,1.03536c0,0.60396 0.47454,1.03536 1.03536,1.03536c0.60396,0 1.03536,-0.4314 1.03536,-1.03536c0,-0.56082 -0.4314,-1.03536 -1.03536,-1.03536z" fill="#5a3547" fill-rule="nonzero"/><path d="M321.25106,185.86702c-0.04314,0 -0.08628,0 -0.12942,-0.04314l-1.55304,-1.55304c-0.04314,-0.04314 -0.04314,-0.08628 -0.04314,-0.12942v-3.83945c0,-0.08628 0.04314,-0.12942 0.12942,-0.12942h3.83945c0.04314,0 0.08628,0 0.08628,0.04314l1.59618,1.59618c0.04314,0.04314 0.04314,0.08628 0.04314,0.12942v3.79631c0,0.08628 -0.04314,0.12942 -0.12942,0.12942z" fill="#4bb8a5" fill-rule="nonzero"/><path d="M319.65488,180.30198v3.83945l1.59617,1.59618h3.83945v-3.79631l-1.59618,-1.63931zM325.0905,186.03958h-3.83945v0c-0.08628,0 -0.17256,-0.04314 -0.2157,-0.08628l-1.59618,-1.59617c-0.04314,-0.04314 -0.08628,-0.12942 -0.08628,-0.2157v-3.83945c0,-0.17256 0.12942,-0.30198 0.30198,-0.30198h3.83945v0c0.08628,0 0.17256,0.04314 0.2157,0.08628l1.59617,1.59618c0.04314,0.08628 0.08628,0.12942 0.08628,0.2157v3.83945c0,0.17256 -0.12942,0.30198 -0.30198,0.30198z" fill="#fefefe" fill-rule="nonzero"/><path d="M323.14921,181.03536c-0.12942,0.4314 -0.51768,0.81966 -0.60396,0.90594c-0.08628,0.04314 -0.38826,0.34512 -0.56082,0.69024h0.81966c-0.08628,-0.2157 -0.30198,-0.4314 -0.30198,-0.4314l0.17256,-0.17256c0,0 0.47454,0.38826 0.51768,0.94908c0,0.60396 -0.4314,0.99222 -0.77652,1.33734c-0.17256,0.17256 -0.30198,0.30198 -0.38826,0.4314h0.77652c-0.08628,-0.08628 -0.2157,-0.2157 -0.30198,-0.30198l0.2157,-0.17256c0,0 0.4314,0.38826 0.4314,0.73338c0.04314,0.30198 -0.25884,0.2157 -0.25884,0.08628c0.04314,-0.04314 0,-0.08628 0,-0.17256h-0.94908v0c0,0 -0.04314,0.34512 -0.17256,0.34512c-0.17256,-0.04314 -0.12942,-0.25884 -0.12942,-0.25884c0.12942,-0.60396 0.56082,-0.81966 0.90594,-1.20792c0.12942,-0.12942 0.17256,-0.25884 0.25884,-0.34512l-0.8628,-0.04314c0.12942,0.30198 0.30198,0.47454 0.30198,0.47454l-0.17256,0.17256c-0.6471,-0.60396 -0.51768,-1.16478 -0.38826,-1.5099c0.17256,-0.4314 0.51768,-0.73338 0.73338,-0.8628c0.12942,-0.12942 0.2157,-0.25884 0.30198,-0.34512h-0.6471c0.08628,0.12942 0.17256,0.25884 0.17256,0.25884l-0.17256,0.17256c-0.38826,-0.34512 -0.47454,-0.73338 -0.47454,-0.73338c0,0 -0.04314,-0.17256 0.08628,-0.2157c0.17256,-0.04314 0.2157,0.12942 0.2157,0.12942c0,0.04314 0.04314,0.12942 0.04314,0.2157h0.8628c0.04314,-0.08628 0.04314,-0.12942 0.04314,-0.12942c0,0 0.04314,-0.25884 0.2157,-0.25884c0.12942,0.04314 0.08628,0.25884 0.08628,0.25884zM321.89815,182.80409c0,0.04314 -0.04314,0.12942 -0.04314,0.17256c0,0.12942 0,0.2157 0.04314,0.25884l0.94908,0.04314c0.04314,-0.17256 0,-0.34512 0,-0.47454z" fill="#fefefe" fill-rule="nonzero"/><path d="M317.71359,179.26662h-2.71781c-0.08628,0 -0.12942,-0.04314 -0.12942,-0.12942v-2.76095c0,-0.04314 0.04314,-0.12942 0.12942,-0.12942h2.71781c0.08628,0 0.12942,0.08628 0.12942,0.12942v2.76095c0,0.08628 -0.04314,0.12942 -0.12942,0.12942z" fill="#fcc127" fill-rule="nonzero"/><path d="M317.97243,175.98799c0.08628,0 0.12942,0.08628 0.12942,0.12942v0v3.27863c0,0.08628 -0.04314,0.12942 -0.12942,0.12942h-1.63931h-1.63931c-0.04314,0 -0.08628,-0.04314 -0.12942,-0.12942v0v-3.27863c0,-0.04314 0.08628,-0.12942 0.17256,-0.12942h0.2157c0.08628,0 0.12942,-0.04314 0.12942,-0.12942v-0.56082c0,-0.08628 0,-0.47454 0.25884,-0.73338c0.2157,-0.25884 0.51768,-0.38826 0.90594,-0.38826v0h0.2157c0.38826,0 0.73338,0.12942 0.90594,0.38826c0.30198,0.30198 0.30198,0.6471 0.25884,0.73338v0.56082c0,0.08628 0.08628,0.12942 0.12942,0.12942zM315.59973,175.29775v0.56082c0,0.08628 0.08628,0.12942 0.12942,0.12942h1.25106c0.08628,0 0.12942,-0.04314 0.12942,-0.12942v-0.60396c0,0 0.04314,-0.2157 -0.12942,-0.34512c-0.08628,-0.12942 -0.25884,-0.17256 -0.51768,-0.17256h-0.2157c-0.2157,0 -0.38826,0.04314 -0.51768,0.17256c-0.12942,0.12942 -0.12942,0.34512 -0.12942,0.34512zM317.58417,178.87836v-2.20013c0,-0.08628 -0.04314,-0.12942 -0.12942,-0.12942h-2.20013c-0.08628,0 -0.12942,0.04314 -0.12942,0.12942v2.20013c0,0.08628 0.04314,0.12942 0.12942,0.12942h2.20013c0.08628,0 0.12942,-0.04314 0.12942,-0.12942z" fill="#5b3523" fill-rule="nonzero"/><path d="M315.51345,177.54103c0.04314,0 0.04314,0 0.08628,0c0.04314,0 0.08628,0 0.12942,0c0.04314,0 0.08628,0 0.17256,0c0.04314,0 0.12942,0 0.17256,0c0,-0.08628 0,-0.12942 0,-0.17256c0,-0.04314 0,-0.04314 0,-0.08628v0c0.04314,-0.04314 0.04314,-0.04314 0.04314,-0.04314v0c0.04314,0 0.04314,0 0.04314,-0.04314h-0.04314c-0.04314,-0.04314 -0.04314,-0.04314 -0.04314,-0.04314c0,-0.08628 0.04314,-0.17256 0.04314,-0.2157c0,0 0.04314,0 0.08628,0c0,-0.04314 0.04314,-0.04314 0.12942,-0.04314c0,0 0.04314,0 0.08628,0c0.04314,0.04314 0.04314,0.04314 0.08628,0.04314c0.04314,0 0.04314,0 0.08628,0v0c0,0.04314 0.04314,0.04314 0.04314,0.08628c0,0.04314 0,0.08628 0,0.12942c0,0.04314 0,0.12942 0,0.17256c0,0.08628 0,0.12942 0,0.2157h0.17256c0.04314,0 0.08628,0 0.12942,0v0c0,0 0,0 0,0.04314v0c0,0 0,0 0.04314,0v0v0c0.04314,-0.04314 0.04314,-0.04314 0.04314,-0.04314v0c0.04314,0 0.08628,0 0.08628,0c0.04314,0 0.04314,0 0.08628,0c0,0.04314 0,0.08628 0,0.12942c0,0.08628 0,0.12942 0,0.17256c0,0.04314 0,0.08628 0,0.12942c0,0.04314 0,0.08628 0,0.08628c-0.04314,0 -0.04314,0 -0.08628,0c-0.04314,0 -0.08628,0 -0.12942,0c-0.04314,0 -0.08628,0 -0.17256,0c-0.04314,0 -0.12942,0 -0.17256,0c0,0.08628 0,0.12942 0,0.17256c0,0.04314 0,0.08628 0,0.12942c0,0 0,0 -0.04314,0v0h-0.04314v0v0.04314h0.04314v0.04314c0.04314,0 0.04314,0 0.04314,0c0,0.04314 0,0.04314 0,0.08628c0,0.04314 -0.04314,0.04314 -0.04314,0.04314c0,0.04314 -0.04314,0.04314 -0.12942,0.04314c-0.04314,0 -0.08628,0 -0.12942,0c-0.04314,0 -0.12942,0 -0.17256,0c-0.04314,0 -0.04314,0 -0.04314,-0.04314c0,0 0,0 0,-0.04314c-0.04314,-0.04314 -0.04314,-0.08628 -0.04314,-0.12942c0,-0.04314 0,-0.08628 0,-0.12942c0,-0.08628 0,-0.12942 0,-0.2157h-0.12942c-0.04314,0 -0.04314,0 -0.08628,0v0c0,0 -0.04314,0 -0.04314,-0.04314v0v0c-0.04314,0 -0.04314,0 -0.04314,0c-0.04314,0.04314 -0.04314,0.04314 -0.04314,0.04314c-0.08628,0 -0.12942,0 -0.2157,0c0,-0.04314 0,-0.08628 0,-0.12942c0,-0.04314 0,-0.08628 0,-0.17256c0,-0.04314 0,-0.08628 0,-0.12942c0,-0.04314 0,-0.08628 0,-0.08628z" fill="#5b3523" fill-rule="nonzero"/></g></g></g></svg>