<svg version="1.1" xmlns="http://www.w3.org/2000/svg" xmlns:xlink="http://www.w3.org/1999/xlink" width="19.1542" height="19.1541" viewBox="0,0,19.1542,19.1541"><g transform="translate(-310.4229,-170.42295)"><g data-paper-data="{&quot;isPaintingLayer&quot;:true}" stroke="none" stroke-width="1" stroke-linecap="butt" stroke-linejoin="miter" stroke-miterlimit="10" stroke-dasharray="" stroke-dashoffset="0" style="mix-blend-mode: normal"><g><path d="M314.19094,187.79771c-1.09832,0 -1.98869,-0.89036 -1.98869,-1.98868v-11.61806c0,-1.09832 0.89037,-1.98868 1.98869,-1.98868h11.61812c1.09832,0 1.98869,0.89036 1.98869,1.98868v11.61806c0,1.09832 -0.89037,1.98868 -1.98869,1.98868z" fill="#fefefe" fill-rule="evenodd"/><path d="M314.19094,170.42295h11.61812c1.04668,0 1.98869,0.41867 2.61669,1.15134h0.10467c0.62801,0.628 1.04668,1.57001 1.04668,2.61668v11.61806c0,1.04667 -0.41867,1.98868 -1.04668,2.61668l-0.10467,0.10467c-0.62801,0.628 -1.57002,1.04667 -2.61669,1.04667h-11.61812c-1.04668,0 -1.98869,-0.41867 -2.61669,-1.04667v-0.10467c-0.73267,-0.628 -1.15135,-1.57001 -1.15135,-2.61668v-11.61806c0,-1.04667 0.41867,-1.98868 1.15135,-2.61668v0c0.62801,-0.73267 1.57002,-1.15134 2.61669,-1.15134zM314.19094,172.20229h11.61812c1.15135,0 1.98869,0.942 1.98869,1.98868v11.61806c0,1.15134 -0.83734,1.98868 -1.98869,1.98868h-11.61812c-1.04668,0 -1.98869,-0.83734 -1.98869,-1.98868v-11.61806c0,-1.04667 0.94201,-1.98868 1.98869,-1.98868z" fill="#ef7f1a" fill-rule="evenodd"/><path d="M314.19094,170.42295h11.61812c0.52334,0 1.04668,0.10467 1.46535,0.314c0.52334,0.20933 0.83734,0.41867 1.25601,0.83734v0c0.314,0.314 0.62801,0.73267 0.83734,1.15134c0.10467,0.52334 0.20934,0.942 0.20934,1.46534v11.61806c0,0.52334 -0.10467,1.04667 -0.20934,1.46534c-0.20934,0.52334 -0.52334,0.83734 -0.83734,1.25601v0c-0.41867,0.314 -0.73267,0.628 -1.25601,0.83734c-0.41867,0.10467 -0.94201,0.20933 -1.46535,0.20933h-11.61812c-0.52334,0 -0.94201,-0.10467 -1.46535,-0.20933c-0.41867,-0.20933 -0.83734,-0.52334 -1.15135,-0.83734v0c-0.41867,-0.41867 -0.62801,-0.73267 -0.83734,-1.25601c-0.20934,-0.41867 -0.314,-0.942 -0.314,-1.46534v-11.61806c0,-0.52334 0.10467,-0.942 0.314,-1.46534c0.20934,-0.41867 0.41867,-0.83734 0.83734,-1.15134v0c0.314,-0.41867 0.73267,-0.628 1.15135,-0.83734c0.52334,-0.20933 0.94201,-0.314 1.46535,-0.314zM325.80906,170.52762h-11.61812c-0.52334,0 -0.94201,0.10467 -1.36068,0.314c-0.52334,0.10467 -0.83734,0.41867 -1.25601,0.73267v0c-0.314,0.41867 -0.62801,0.73267 -0.73267,1.25601c-0.20934,0.41867 -0.314,0.83734 -0.314,1.36067v11.61806c0,0.52334 0.10467,1.04667 0.314,1.46534c0.10467,0.41867 0.41867,0.83734 0.73267,1.15134v0c0.41867,0.314 0.73267,0.628 1.25601,0.83734c0.41867,0.20933 0.83734,0.20933 1.36068,0.20933h11.61812c0.52334,0 1.04668,0 1.46535,-0.20933c0.41867,-0.20933 0.83734,-0.52334 1.15135,-0.83734v0c0.314,-0.314 0.62801,-0.73267 0.83734,-1.15134c0.20934,-0.41867 0.20934,-0.942 0.20934,-1.46534v-11.61806c0,-0.52334 0,-0.942 -0.20934,-1.36067c-0.20934,-0.52334 -0.52334,-0.83734 -0.83734,-1.25601v0c-0.314,-0.314 -0.73267,-0.628 -1.15135,-0.73267c-0.41867,-0.20933 -0.94201,-0.314 -1.46535,-0.314zM314.19094,172.20229h11.61812c0.62801,0 1.04668,0.20933 1.46535,0.628c0.314,0.314 0.62801,0.83734 0.62801,1.36067v11.61806c0,0.628 -0.314,1.04667 -0.62801,1.46534c-0.41867,0.314 -0.83734,0.628 -1.46535,0.628h-11.61812c-0.52334,0 -1.04668,-0.314 -1.36068,-0.628c-0.41867,-0.41867 -0.62801,-0.83734 -0.62801,-1.46534v-11.61806c0,-0.52334 0.20934,-1.04667 0.62801,-1.36067c0.314,-0.41867 0.83734,-0.628 1.36068,-0.628zM325.80906,172.30696h-11.61812c-0.52334,0 -0.94201,0.20933 -1.36068,0.52334c-0.314,0.41867 -0.52334,0.83734 -0.52334,1.36067v11.61806c0,0.52334 0.20934,1.04667 0.52334,1.36067c0.41867,0.41867 0.83734,0.628 1.36068,0.628h11.61812c0.52334,0 1.04668,-0.20933 1.36068,-0.628c0.41867,-0.314 0.62801,-0.83734 0.62801,-1.36067v-11.61806c0,-0.52334 -0.20934,-0.942 -0.62801,-1.36067c-0.314,-0.314 -0.83734,-0.52334 -1.36068,-0.52334z" fill="#fefefe" fill-rule="nonzero"/><path d="M324.34371,177.01698c-0.62801,0 -1.15135,-0.628 -1.15135,-1.25601c0,-0.628 0.52334,-1.15134 1.15135,-1.15134c0.73267,0 1.25601,0.52334 1.25601,1.15134c0,0.628 -0.52334,1.25601 -1.25601,1.25601z" fill="#e63331" fill-rule="nonzero"/><path d="M324.34371,177.12165c-0.73267,0 -1.25601,-0.628 -1.25601,-1.36067c0,-0.73267 0.52334,-1.25601 1.25601,-1.25601c0.73267,0 1.36068,0.52334 1.36068,1.25601v0.10467c0,0.628 -0.62801,1.25601 -1.36068,1.25601zM324.34371,174.71431c-0.52334,0 -1.04668,0.52334 -1.04668,1.04667c0,0.628 0.52334,1.04667 1.04668,1.04667c0.62801,0 1.04668,-0.41867 1.04668,-1.04667c0,-0.52334 -0.41867,-1.04667 -1.04668,-1.04667z" fill="#5a3547" fill-rule="nonzero"/><path d="M322.04102,185.49503c-0.94201,0 -1.77935,-0.41867 -2.40736,-1.15134c0,0 0,-0.10467 0,-0.20933c0.41867,-0.41867 0.62801,-1.04667 0.62801,-1.77934c0,-0.628 -0.20934,-1.25601 -0.62801,-1.67468c0,-0.10467 0,-0.20933 0,-0.20933c0.62801,-0.73267 1.46535,-1.15134 2.40736,-1.15134c0.83734,0 1.67468,0.41867 2.30269,1.15134c0.10467,0 0.10467,0.10467 0,0.20933c-0.41867,0.41867 -0.62801,1.04667 -0.62801,1.67468c0,0.73267 0.20934,1.36067 0.62801,1.77934c0.10467,0.10467 0.10467,0.20933 0,0.20933c-0.62801,0.73267 -1.46535,1.15134 -2.30269,1.15134z" fill="#e84743" fill-rule="nonzero"/><path d="M319.73833,180.57567c0.41867,0.41867 0.73267,1.15134 0.73267,1.77934c0,0.73267 -0.314,1.36067 -0.73267,1.88401c0.52334,0.628 1.36068,1.04667 2.30269,1.04667c0.83734,0 1.67468,-0.41867 2.19802,-1.04667c-0.41867,-0.52334 -0.73267,-1.15134 -0.73267,-1.88401c0,-0.628 0.314,-1.36067 0.73267,-1.77934c-0.52334,-0.73267 -1.36068,-1.04667 -2.19802,-1.04667c-0.94201,0 -1.77935,0.314 -2.30269,1.04667zM319.529,184.44836c-0.10467,0 -0.10467,-0.10467 -0.10467,-0.20933v0c0,-0.10467 0,-0.10467 0.10467,-0.20933c0.41867,-0.41867 0.62801,-1.04667 0.62801,-1.67468c0,-0.52334 -0.20934,-1.15134 -0.62801,-1.57001c-0.10467,-0.10467 -0.10467,-0.20933 -0.10467,-0.20933v-0.10467c0,0 0,-0.10467 0.10467,-0.10467c0.62801,-0.73267 1.46535,-1.15134 2.51203,-1.15134c0.94201,0 1.77935,0.41867 2.40736,1.15134c0.10467,0.10467 0.10467,0.20933 0,0.41867c-0.41867,0.41867 -0.62801,1.04667 -0.62801,1.57001c0,0.628 0.20934,1.25601 0.62801,1.67468c0.10467,0.10467 0.10467,0.314 0,0.41867c-0.52334,0.628 -1.25601,1.04667 -1.98869,1.15134h-0.94201c-0.73267,-0.10467 -1.46535,-0.52334 -1.98869,-1.15134z" fill="#4e4e50" fill-rule="nonzero"/><path d="M322.7737,180.26167c-0.10467,0.52334 -0.52334,0.942 -0.62801,0.942c-0.10467,0.10467 -0.41867,0.41867 -0.62801,0.83734h0.94201c-0.10467,-0.314 -0.314,-0.52334 -0.314,-0.52334l0.20934,-0.20933c0,0 0.41867,0.41867 0.52334,1.04667c0,0.628 -0.41867,1.04667 -0.83734,1.36067c-0.20934,0.20933 -0.314,0.41867 -0.41867,0.52334h0.83734c-0.10467,-0.10467 -0.20934,-0.20933 -0.314,-0.314l0.20934,-0.20933c0,0 0.41867,0.41867 0.52334,0.73267c0,0.41867 -0.314,0.314 -0.314,0.10467v-0.10467h-1.04668v0c0,0 0,0.314 -0.20934,0.314c-0.10467,0 -0.10467,-0.20933 -0.10467,-0.20933c0.10467,-0.73267 0.62801,-0.942 1.04668,-1.36067c0.10467,-0.10467 0.10467,-0.20933 0.20934,-0.314h-0.94201c0.10467,0.20933 0.314,0.41867 0.314,0.41867l-0.10467,0.20933c-0.73267,-0.628 -0.62801,-1.25601 -0.41867,-1.67468c0.10467,-0.41867 0.52334,-0.73267 0.73267,-0.83734c0.10467,-0.10467 0.20934,-0.314 0.314,-0.41867h-0.73267c0.10467,0.20933 0.20934,0.314 0.20934,0.314l-0.20934,0.20933c-0.314,-0.41867 -0.41867,-0.83734 -0.41867,-0.83734c0,0 -0.10467,-0.10467 0.10467,-0.20933c0.10467,0 0.20934,0.10467 0.20934,0.10467c0,0.10467 0,0.20933 0,0.20933h0.94201v-0.10467c0,0 0.10467,-0.314 0.314,-0.20933c0.10467,0 0,0.20933 0,0.20933zM321.51768,182.14568c0,0.10467 -0.10467,0.20933 -0.10467,0.20933c0,0.10467 0,0.20933 0.10467,0.314h0.94201c0.10467,-0.20933 0.10467,-0.314 0,-0.52334z" fill="#4e4e50" fill-rule="nonzero"/><path d="M317.95898,179.843h-1.15135v0c-1.25601,-0.10467 -2.30269,-1.15134 -2.30269,-2.51201c0,-1.36067 1.04668,-2.51201 2.40736,-2.51201v0h1.04668z" fill="#ed9e34" fill-rule="nonzero"/><path d="M317.95898,179.94767h-1.15135v0v0v0v0c-1.36068,0 -2.51203,-1.15134 -2.51203,-2.61668c0,-1.46534 1.15135,-2.61668 2.51203,-2.72135h0.10467v0v0v0.10467h0.10467h0.94201c0,0 0.10467,0 0.10467,0.10467v5.02403c0,0.10467 -0.10467,0.10467 -0.10467,0.10467zM316.80763,179.63366h0.94201v-4.60536h-0.83734v-0.10467c-1.25601,0 -2.30269,1.15134 -2.30269,2.40735c0,1.25601 0.94201,2.30268 2.19802,2.30268z" fill="#5b3523" fill-rule="nonzero"/><path d="M320.26167,177.33099c0,1.36067 -1.04668,2.51201 -2.40736,2.51201c-1.25601,0 -2.40736,-1.15134 -2.40736,-2.51201c0,-1.36067 1.15135,-2.51201 2.40736,-2.51201c1.36068,0 2.40736,1.15134 2.40736,2.51201z" fill="#fcc127" fill-rule="nonzero"/><path d="M317.85431,179.94767c-1.36068,0 -2.51203,-1.15134 -2.51203,-2.61668c0,-1.46534 1.15135,-2.61668 2.51203,-2.72135v0c1.46535,0.10467 2.61669,1.25601 2.61669,2.72135c0,1.46534 -1.15135,2.61668 -2.61669,2.61668zM317.85431,174.92364c-1.25601,0 -2.19802,1.15134 -2.19802,2.40735c0,1.25601 0.94201,2.30268 2.19802,2.30268c1.25601,0 2.30269,-1.04667 2.30269,-2.30268c0,-1.25601 -1.04668,-2.40735 -2.30269,-2.40735z" fill="#5b3523" fill-rule="nonzero"/><path d="M316.80763,176.38898c0,-0.10467 0,-0.10467 0.10467,-0.20933v0c0.10467,-0.10467 0.10467,-0.10467 0.10467,-0.10467c0.10467,-0.10467 0.10467,-0.10467 0.20934,-0.10467c0,-0.10467 0,-0.10467 0.10467,-0.10467l0.10467,-0.10467c0.10467,0 0.10467,-0.10467 0.20934,-0.10467c0,0 0,0 0.10467,0v-0.10467h0.10467c0,0 0,0 0.10467,0c0,0 0,0 0.10467,0h0.10467c0,0 0.10467,0 0.20934,0c0,0 0,0 0.10467,0h0.10467h0.10467l0.10467,0.10467v0.10467v0c0.10467,0.10467 0.10467,0.10467 0.10467,0.10467v0.10467v0.10467v0c0,0.10467 0,0.10467 -0.10467,0.10467c0,0.10467 0,0.10467 0,0.10467v0c0.10467,0.10467 0.10467,0.10467 0.10467,0.10467v0c0,0.10467 0,0.20933 0,0.314c0,0.10467 0,0.20933 0,0.41867v0c0,0.20933 0,0.41867 0,0.628v0.314v0.314c0,0.10467 -0.10467,0.20933 -0.10467,0.314c0,0.10467 0,0.20933 0,0.20933v0.10467c0,0 0,0 -0.10467,0.10467v0c-0.10467,0 -0.10467,0 -0.10467,0c0,0 0,0 -0.10467,0v0h-0.10467v0c-0.10467,0 -0.10467,0 -0.10467,0h-0.10467c-0.10467,0 -0.10467,0 -0.20934,0c0,0 0,0 -0.10467,0v0v0c-0.10467,0 -0.10467,0 -0.10467,0c0,0 0,0 -0.10467,0v0v0c-0.10467,0 -0.10467,-0.10467 -0.10467,-0.10467v0v-0.10467c0,0 0,-0.10467 0,-0.20933c0,-0.10467 0,-0.10467 0,-0.20933v-0.20933c0,-0.10467 0,-0.10467 0,-0.20933v-0.10467v0c0,-0.10467 0,-0.10467 0,-0.20933v0v0c0,-0.10467 0,-0.314 0,-0.41867v-0.20933c-0.10467,0 -0.10467,0.10467 -0.10467,0.10467h-0.10467c-0.10467,0 -0.10467,0 -0.20934,-0.10467v0c0,0 0,0 0,-0.10467v0c-0.10467,0 -0.10467,0 -0.10467,-0.10467c0,0 -0.10467,0 -0.10467,-0.10467v-0.10467l-0.10467,-0.10467v-0.10467v-0.10467zM317.2263,176.38898v0v0.10467v0c0,0 0,0 0,0.10467c0,0 0,0 0,0.10467c0.10467,0 0.10467,0 0.10467,0c0,0.10467 0,0.10467 0,0.10467v0h0.10467v-0.10467v0h0.10467v-0.10467l0.314,-0.20933v0.41867v0.20933v0.314c0,0.10467 0,0.20933 0,0.314v0.10467v0h0.10467v0v0v0c0.10467,0.10467 0.10467,0.10467 0.10467,0.20933c0,0 0,0 -0.10467,0.10467v0c0,0 0,0 0,0.10467h-0.10467v0v0v0.10467v0.20933c0,0.10467 0,0.20933 0,0.20933v0.10467h0.10467v0c0.10467,0 0.10467,0 0.20934,0h0.10467c0,0 0,0 0.10467,0v0h0.10467v-0.10467c0,-0.10467 0,-0.20933 0,-0.314v-0.314v-0.314c0,-0.20933 0,-0.41867 0,-0.628v0c0,-0.20933 0,-0.314 0,-0.41867c0,0 0,-0.10467 0,-0.20933v-0.10467v0c-0.10467,0 -0.10467,-0.10467 -0.10467,-0.10467c0,0 0,-0.10467 0.10467,-0.10467v0v-0.10467v-0.10467v0v0c-0.10467,0 -0.10467,0 -0.20934,0c0,0 0,0 -0.10467,0h-0.10467h-0.10467h-0.10467v0c0,0 0,0 -0.10467,0c0,0.10467 0,0.10467 -0.10467,0.10467l-0.10467,0.10467c0,0 -0.10467,0 -0.10467,0.10467c-0.10467,0 -0.10467,0 -0.10467,0c-0.10467,0.10467 -0.10467,0.10467 -0.10467,0.10467zM318.48232,176.49365v0z" fill="#5b3523" fill-rule="nonzero"/><path d="M317.01697,176.38898c0,0 0,-0.10467 0.10467,-0.10467c0,-0.10467 0.10467,-0.10467 0.20934,-0.20933c0.10467,0 0.10467,-0.10467 0.20934,-0.20933c0.10467,0 0.20934,-0.10467 0.314,-0.10467c0,0 0,0 0.10467,0c0.10467,0 0.10467,0 0.20934,0c0.10467,0 0.20934,0 0.314,0c0.10467,0 0.10467,0 0.20934,0v0.10467c0,0.10467 0,0.20933 0,0.20933c0,0.10467 0,0.10467 -0.10467,0.10467v0.10467c0,0 0,0 0,0.10467c0.10467,0 0.10467,0 0.10467,0c0,0.20933 0,0.41867 0,0.73267c0,0.20933 0,0.41867 0,0.628c0,0.20933 0,0.41867 0,0.628c0,0.20933 0,0.41867 0,0.52334h-0.10467h-0.10467c0,0.10467 -0.10467,0.10467 -0.10467,0.10467c-0.10467,0 -0.10467,0 -0.20934,0c-0.10467,0 -0.10467,0 -0.20934,0c0,0 -0.10467,0 -0.10467,-0.10467c-0.10467,0 -0.10467,0 -0.10467,0h-0.10467c0,-0.10467 0,-0.20933 0,-0.41867c0,-0.10467 0,-0.314 0,-0.41867c0,0 0,0 0.10467,0v-0.10467h0.10467v0v-0.10467h-0.10467v0c-0.10467,0 -0.10467,-0.10467 -0.10467,-0.10467c0,-0.10467 0,-0.314 0,-0.41867c0,-0.20933 0,-0.41867 0,-0.52334v0c-0.10467,0.10467 -0.10467,0.10467 -0.10467,0.10467c-0.10467,0 -0.10467,0.10467 -0.10467,0.10467h-0.10467c0,0 -0.10467,0 -0.10467,-0.10467c0,0 -0.10467,-0.10467 -0.10467,-0.20933c0,0 -0.10467,-0.10467 -0.10467,-0.20933z" fill="#fcc127" fill-rule="nonzero"/><path d="M317.01697,176.38898c0,0 0,-0.10467 0.10467,-0.10467c0,-0.10467 0.10467,-0.10467 0.20934,-0.20933c0.10467,0 0.10467,-0.10467 0.20934,-0.20933c0.10467,0 0.20934,-0.10467 0.314,-0.10467c0,0 0,0 0.10467,0c0.10467,0 0.10467,0 0.20934,0c0.10467,0 0.20934,0 0.314,0c0.10467,0 0.10467,0 0.20934,0v0.10467c0,0.10467 0,0.20933 0,0.20933c0,0.10467 0,0.10467 -0.10467,0.10467v0.10467c0,0 0,0 0,0.10467c0.10467,0 0.10467,0 0.10467,0c0,0.20933 0,0.41867 0,0.73267c0,0.20933 0,0.41867 0,0.628c0,0.20933 0,0.41867 0,0.628c0,0.20933 0,0.41867 0,0.52334h-0.10467h-0.10467c0,0.10467 -0.10467,0.10467 -0.10467,0.10467c-0.10467,0 -0.10467,0 -0.20934,0c-0.10467,0 -0.10467,0 -0.20934,0c0,0 -0.10467,0 -0.10467,-0.10467c-0.10467,0 -0.10467,0 -0.10467,0h-0.10467c0,-0.10467 0,-0.20933 0,-0.41867c0,-0.10467 0,-0.314 0,-0.41867c0,0 0,0 0.10467,0v-0.10467h0.10467v0v-0.10467h-0.10467v0c-0.10467,0 -0.10467,-0.10467 -0.10467,-0.10467c0,-0.10467 0,-0.314 0,-0.41867c0,-0.20933 0,-0.41867 0,-0.52334v0c-0.10467,0.10467 -0.10467,0.10467 -0.10467,0.10467c-0.10467,0 -0.10467,0.10467 -0.10467,0.10467h-0.10467c0,0 -0.10467,0 -0.10467,-0.10467c0,0 -0.10467,-0.10467 -0.10467,-0.20933c0,0 -0.10467,-0.10467 -0.10467,-0.20933z" fill="#ed9e34" fill-rule="nonzero"/></g></g></g></svg>