<svg version="1.1" xmlns="http://www.w3.org/2000/svg" xmlns:xlink="http://www.w3.org/1999/xlink" width="19.1542" height="19.1541" viewBox="0,0,19.1542,19.1541"><g transform="translate(-310.4229,-170.42295)"><g data-paper-data="{&quot;isPaintingLayer&quot;:true}" stroke="none" stroke-width="1" stroke-linecap="butt" stroke-linejoin="miter" stroke-miterlimit="10" stroke-dasharray="" stroke-dashoffset="0" style="mix-blend-mode: normal"><g><path d="M314.20832,187.76006c-1.08713,0 -1.96842,-0.88129 -1.96842,-1.96841v-11.58331c0,-1.08712 0.88129,-1.96841 1.96842,-1.96841h11.58337c1.08713,0 1.96842,0.88129 1.96842,1.96841v11.58331c0,1.08712 -0.88129,1.96841 -1.96842,1.96841z" fill="#fefefe" fill-rule="evenodd"/><path d="M314.20832,170.49866h11.58337c0.98421,0 1.96842,0.37854 2.64979,1.05991v0c0.60567,0.68137 1.05992,1.58987 1.05992,2.64978v11.58331c0,0.9842 -0.45425,1.96841 -1.05992,2.64978v0c-0.68137,0.60566 -1.66558,1.05991 -2.64979,1.05991h-11.58337c-1.05992,0 -1.96842,-0.45425 -2.64979,-1.05991v0c-0.68137,-0.68137 -1.05992,-1.66557 -1.05992,-2.64978v-11.58331c0,-1.05991 0.37854,-1.96841 1.05992,-2.64978v0c0.68137,-0.68137 1.58987,-1.05991 2.64979,-1.05991zM314.20832,172.23994h11.58337c1.05992,0 1.96842,0.90849 1.96842,1.96841v11.58331c0,1.05991 -0.9085,1.96841 -1.96842,1.96841h-11.58337c-1.05992,0 -1.96842,-0.90849 -1.96842,-1.96841v-11.58331c0,-1.05991 0.9085,-1.96841 1.96842,-1.96841z" fill="#ef7f1a" fill-rule="evenodd"/><path d="M314.20832,170.42295h11.58337c0.52996,0 0.98421,0.07571 1.43846,0.30283c0.45425,0.15142 0.83279,0.45425 1.21133,0.83279v0c0.37854,0.30283 0.60567,0.75708 0.83279,1.21133c0.15142,0.45425 0.30283,0.90849 0.30283,1.43845v11.58331c0,0.52996 -0.15142,0.9842 -0.30283,1.43845c-0.22712,0.45425 -0.45425,0.83279 -0.83279,1.21133v0c-0.37854,0.37854 -0.75708,0.60566 -1.21133,0.83279c-0.45425,0.15142 -0.9085,0.30283 -1.43846,0.30283h-11.58337c-0.52996,0 -0.98421,-0.15142 -1.43846,-0.30283c-0.45425,-0.22712 -0.9085,-0.45425 -1.21133,-0.83279v0c-0.37854,-0.37854 -0.68137,-0.75708 -0.83279,-1.21133c-0.22712,-0.45425 -0.30283,-0.90849 -0.30283,-1.43845v-11.58331c0,-0.52996 0.07571,-0.9842 0.30283,-1.43845c0.15142,-0.45425 0.45425,-0.90849 0.83279,-1.21133v0c0.30283,-0.37854 0.75708,-0.68137 1.21133,-0.83279c0.45425,-0.22712 0.9085,-0.30283 1.43846,-0.30283zM325.79168,170.49866h-11.58337c-0.52996,0 -0.98421,0.15142 -1.43846,0.30283c-0.45425,0.15142 -0.83279,0.45425 -1.13562,0.75708l-0.07571,0.07571c-0.30283,0.30283 -0.60567,0.68137 -0.75708,1.13562c-0.15142,0.45425 -0.30283,0.90849 -0.30283,1.43845v11.58331c0,0.45425 0.15142,0.9842 0.30283,1.36274c0.15142,0.45425 0.45425,0.90849 0.75708,1.21133h0.07571c0.30283,0.37854 0.68137,0.60566 1.13562,0.83279c0.45425,0.15142 0.9085,0.22712 1.43846,0.22712h11.58337c0.45425,0 0.98421,-0.07571 1.36275,-0.22712c0.45425,-0.22712 0.9085,-0.45425 1.21133,-0.83279v0c0.37854,-0.30283 0.60567,-0.75708 0.83279,-1.21133c0.15142,-0.37854 0.22712,-0.90849 0.22712,-1.36274v-11.58331c0,-0.52996 -0.07571,-0.9842 -0.22712,-1.43845c-0.22712,-0.45425 -0.45425,-0.83279 -0.83279,-1.13562v-0.07571c-0.30283,-0.30283 -0.75708,-0.60566 -1.21133,-0.75708c-0.37854,-0.15142 -0.9085,-0.30283 -1.36275,-0.30283zM314.20832,172.16423h11.58337c0.52996,0 1.05992,0.22712 1.43846,0.60566c0.30283,0.37854 0.52996,0.83279 0.52996,1.43845v11.58331c0,0.52996 -0.22712,1.05991 -0.52996,1.43845c-0.37854,0.30283 -0.9085,0.52996 -1.43846,0.52996h-11.58337c-0.60567,0 -1.05992,-0.22712 -1.43846,-0.52996c-0.37854,-0.37854 -0.60567,-0.90849 -0.60567,-1.43845v-11.58331c0,-0.60566 0.22712,-1.05991 0.60567,-1.43845c0.37854,-0.37854 0.83279,-0.60566 1.43846,-0.60566zM325.79168,172.31565h-11.58337c-0.52996,0 -1.05992,0.15142 -1.36275,0.52996c-0.37854,0.30283 -0.52996,0.83279 -0.52996,1.36274v11.58331c0,0.52996 0.15142,0.9842 0.52996,1.36274c0.30283,0.30283 0.83279,0.52996 1.36275,0.52996h11.58337c0.52996,0 0.98421,-0.22712 1.36275,-0.52996c0.30283,-0.37854 0.52996,-0.83279 0.52996,-1.36274v-11.58331c0,-0.52996 -0.22712,-1.05991 -0.52996,-1.36274c-0.37854,-0.37854 -0.83279,-0.52996 -1.36275,-0.52996z" fill="#fefefe" fill-rule="nonzero"/><path d="M324.05039,176.85812c-0.60567,0 -1.13562,-0.52996 -1.13562,-1.13562c0,-0.68137 0.52996,-1.21133 1.13562,-1.21133c0.68137,0 1.21133,0.52996 1.21133,1.21133c0,0.60566 -0.52996,1.13562 -1.21133,1.13562z" fill="#e63331" fill-rule="nonzero"/><path d="M324.05039,177.00954c-0.68137,0 -1.28704,-0.60566 -1.28704,-1.28703c0,-0.75708 0.60567,-1.36274 1.28704,-1.36274c0.75708,0 1.36275,0.60566 1.36275,1.28703v0.07571c0,0.75708 -0.60567,1.28703 -1.36275,1.28703zM324.05039,174.66259c-0.52996,0 -0.98421,0.45425 -0.98421,1.05991c0,0.52996 0.45425,0.9842 0.98421,0.9842c0.60567,0 1.05992,-0.45425 1.05992,-0.9842c0,-0.60566 -0.45425,-1.05991 -1.05992,-1.05991z" fill="#5a3547" fill-rule="nonzero"/><path d="M322.46052,185.41312c-0.52996,0 -0.98421,-0.30283 -1.28704,-0.9842c-0.15142,0.07571 -0.37854,0.22712 -0.45425,0.30283c-0.07571,0 -0.07571,0.07571 -0.15142,0.07571l-0.07571,-0.07571c-0.68137,-0.60566 -1.05992,-1.43845 -1.05992,-2.34695c0,-0.90849 0.37854,-1.74128 1.05992,-2.27124c0,-0.07571 0.07571,-0.07571 0.07571,-0.07571c0.07571,0 0.07571,0 0.15142,0.07571c0.07571,0.07571 0.30283,0.15142 0.45425,0.22712c0.30283,-0.60566 0.75708,-0.9842 1.28704,-0.9842c0.45425,0 0.9085,0.37854 1.21133,0.9842c0.15142,-0.07571 0.37854,-0.15142 0.45425,-0.22712c0.07571,-0.07571 0.07571,-0.07571 0.15142,-0.07571c0,0 0.07571,0 0.07571,0.07571c0.68137,0.52996 1.13562,1.36274 1.13562,2.27124c0,0.90849 -0.45425,1.74128 -1.13562,2.34695l-0.07571,0.07571c-0.07571,0 -0.07571,-0.07571 -0.15142,-0.07571c-0.07571,-0.07571 -0.30283,-0.22712 -0.45425,-0.30283c-0.30283,0.68137 -0.75708,0.9842 -1.21133,0.9842z" fill="#4e4e50" fill-rule="nonzero"/><path d="M321.24919,180.56781v0c0,0 -0.45425,-0.22712 -0.68137,-0.37854c-0.60567,0.52996 -0.98421,1.36274 -0.98421,2.19553c0,0.90849 0.37854,1.66557 0.98421,2.19553c0.22712,-0.15142 0.68137,-0.30283 0.68137,-0.30283v0c0.30283,0.60566 0.68137,0.9842 1.21133,0.9842c0.45425,0 0.83279,-0.37854 1.13562,-0.9842v0c0,0 0.45425,0.15142 0.68137,0.30283c0.60567,-0.52996 0.98421,-1.28703 0.98421,-2.19553c0,-0.83279 -0.37854,-1.66557 -0.98421,-2.19553c-0.22712,0.15142 -0.68137,0.37854 -0.68137,0.37854v0c-0.30283,-0.60566 -0.68137,-1.05991 -1.13562,-1.05991c-0.52996,0 -0.9085,0.45425 -1.21133,1.05991zM323.74756,180.11356c0.15142,0 0.22712,-0.07571 0.30283,-0.15142c0.07571,-0.07571 0.15142,-0.07571 0.22712,-0.07571c0.07571,0 0.15142,0 0.22712,0.07571c0.68137,0.60566 1.13562,1.51416 1.13562,2.42265c0,0.9842 -0.45425,1.8927 -1.13562,2.49836c-0.07571,0 -0.15142,0.07571 -0.22712,0.07571c-0.07571,0 -0.15142,-0.07571 -0.22712,-0.07571c-0.07571,-0.07571 -0.15142,-0.15142 -0.30283,-0.22712c-0.30283,0.60566 -0.83279,0.90849 -1.28704,0.90849c-0.52996,0 -0.98421,-0.30283 -1.36275,-0.90849c-0.07571,0.07571 -0.22712,0.15142 -0.30283,0.22712c-0.07571,0 -0.15142,0.07571 -0.22712,0.07571c-0.07571,0 -0.15142,-0.07571 -0.15142,-0.07571c-0.75708,-0.60566 -1.21133,-1.51416 -1.21133,-2.49836c0,-0.90849 0.45425,-1.81699 1.21133,-2.42265c0,-0.07571 0.07571,-0.07571 0.15142,-0.07571c0.07571,0 0.15142,0 0.22712,0.07571c0.07571,0.07571 0.22712,0.15142 0.30283,0.15142c0.37854,-0.52996 0.83279,-0.90849 1.36275,-0.90849c0.45425,0 0.98421,0.37854 1.28704,0.90849z" fill="#4e4e50" fill-rule="nonzero"/><path d="M322.46052,185.41312c-0.52996,0 -0.98421,-0.30283 -1.28704,-0.9842c-0.15142,0.07571 -0.37854,0.22712 -0.45425,0.30283c-0.07571,0 -0.07571,0.07571 -0.15142,0.07571l-0.07571,-0.07571c-0.68137,-0.60566 -1.05992,-1.43845 -1.05992,-2.34695c0,-0.90849 0.37854,-1.74128 1.05992,-2.27124c0,-0.07571 0.07571,-0.07571 0.07571,-0.07571c0.07571,0 0.07571,0 0.15142,0.07571c0.07571,0.07571 0.30283,0.15142 0.45425,0.22712c0.30283,-0.60566 0.75708,-0.9842 1.28704,-0.9842c0.45425,0 0.9085,0.37854 1.21133,0.9842c0.15142,-0.07571 0.37854,-0.15142 0.45425,-0.22712c0.07571,-0.07571 0.07571,-0.07571 0.15142,-0.07571c0,0 0.07571,0 0.07571,0.07571c0.68137,0.52996 1.13562,1.36274 1.13562,2.27124c0,0.90849 -0.45425,1.74128 -1.13562,2.34695l-0.07571,0.07571c-0.07571,0 -0.07571,-0.07571 -0.15142,-0.07571c-0.07571,-0.07571 -0.30283,-0.22712 -0.45425,-0.30283c-0.30283,0.68137 -0.75708,0.9842 -1.21133,0.9842z" fill="#fecf1e" fill-rule="nonzero"/><path d="M321.24919,180.56781v0c0,0 -0.45425,-0.22712 -0.68137,-0.37854c-0.60567,0.52996 -0.98421,1.36274 -0.98421,2.19553c0,0.90849 0.37854,1.66557 0.98421,2.19553c0.22712,-0.15142 0.68137,-0.30283 0.68137,-0.30283v0c0.30283,0.60566 0.68137,0.9842 1.21133,0.9842c0.45425,0 0.83279,-0.37854 1.13562,-0.9842v0c0,0 0.45425,0.15142 0.68137,0.30283c0.60567,-0.52996 0.98421,-1.28703 0.98421,-2.19553c0,-0.83279 -0.37854,-1.66557 -0.98421,-2.19553c-0.22712,0.15142 -0.68137,0.37854 -0.68137,0.37854v0c-0.30283,-0.60566 -0.68137,-1.05991 -1.13562,-1.05991c-0.52996,0 -0.9085,0.45425 -1.21133,1.05991zM323.74756,180.11356c0.15142,0 0.22712,-0.07571 0.30283,-0.15142c0.07571,-0.07571 0.15142,-0.07571 0.22712,-0.07571c0.07571,0 0.15142,0 0.22712,0.07571c0.68137,0.60566 1.13562,1.51416 1.13562,2.42265c0,0.9842 -0.45425,1.8927 -1.13562,2.49836c-0.07571,0 -0.15142,0.07571 -0.22712,0.07571c-0.07571,0 -0.15142,-0.07571 -0.22712,-0.07571c-0.07571,-0.07571 -0.15142,-0.15142 -0.30283,-0.22712c-0.30283,0.60566 -0.83279,0.90849 -1.28704,0.90849c-0.52996,0 -0.98421,-0.30283 -1.36275,-0.90849c-0.07571,0.07571 -0.22712,0.15142 -0.30283,0.22712c-0.07571,0 -0.15142,0.07571 -0.22712,0.07571c-0.07571,0 -0.15142,-0.07571 -0.15142,-0.07571c-0.75708,-0.60566 -1.21133,-1.51416 -1.21133,-2.49836c0,-0.90849 0.45425,-1.81699 1.21133,-2.42265c0,-0.07571 0.07571,-0.07571 0.15142,-0.07571c0.07571,0 0.15142,0 0.22712,0.07571c0.07571,0.07571 0.22712,0.15142 0.30283,0.15142c0.37854,-0.52996 0.83279,-0.90849 1.36275,-0.90849c0.45425,0 0.98421,0.37854 1.28704,0.90849z" fill="#4e4e50" fill-rule="nonzero"/><path d="M321.62773,184.50462c0.07571,-0.45425 0.52996,-0.90849 0.60567,-0.9842c0.07571,-0.07571 0.45425,-0.37854 0.60567,-0.68137l-0.9085,-0.07571c0.15142,0.22712 0.37854,0.45425 0.37854,0.45425l-0.22712,0.22712c0,0 -0.45425,-0.37854 -0.52996,-0.9842c0,-0.68137 0.45425,-1.05991 0.83279,-1.36274c0.22712,-0.22712 0.30283,-0.37854 0.37854,-0.52996h-0.75708c0.07571,0.15142 0.22712,0.30283 0.30283,0.37854l-0.22712,0.15142c0,0 -0.45425,-0.37854 -0.45425,-0.75708c-0.07571,-0.37854 0.22712,-0.22712 0.22712,-0.07571c0,0 0,0.07571 0.07571,0.15142h0.9085v0c0,0 0.07571,-0.37854 0.22712,-0.37854c0.15142,0.07571 0.15142,0.30283 0.15142,0.30283c-0.15142,0.60566 -0.60567,0.83279 -0.98421,1.28703c-0.15142,0.07571 -0.15142,0.22712 -0.22712,0.30283l0.83279,0.07571c-0.07571,-0.30283 -0.30283,-0.52996 -0.30283,-0.52996l0.22712,-0.15142c0.68137,0.60566 0.52996,1.21133 0.37854,1.58987c-0.15142,0.45425 -0.52996,0.75708 -0.75708,0.90849c-0.15142,0.07571 -0.22712,0.22712 -0.30283,0.37854h0.68137c-0.07571,-0.15142 -0.22712,-0.30283 -0.22712,-0.30283l0.22712,-0.22712c0.37854,0.37854 0.45425,0.83279 0.45425,0.83279c0,0 0.07571,0.15142 -0.07571,0.22712c-0.15142,0 -0.22712,-0.15142 -0.22712,-0.15142c0,-0.07571 0,-0.15142 -0.07571,-0.22712h-0.83279c-0.07571,0.07571 -0.07571,0.15142 -0.07571,0.15142c0,0 -0.07571,0.30283 -0.22712,0.22712c-0.15142,0 -0.07571,-0.22712 -0.07571,-0.22712zM322.91477,182.61192c0,-0.07571 0.07571,-0.15142 0.07571,-0.15142c0,-0.15142 0,-0.22712 -0.07571,-0.30283h-0.98421c0,0.15142 0,0.30283 0,0.45425z" fill="#4e4e50" fill-rule="nonzero"/><path d="M317.91802,180.11356h-1.05992v0c-1.28704,-0.07571 -2.34696,-1.13562 -2.34696,-2.49836c0,-1.36274 1.05992,-2.49836 2.34696,-2.49836c0.07571,0 0.07571,0 0.15142,0h0.9085z" fill="#ed9e34" fill-rule="nonzero"/><path d="M317.91802,180.26498h-1.05992v0h-0.07571v0v0c-1.36275,-0.07571 -2.42267,-1.21133 -2.42267,-2.64978c0,-1.43845 1.13562,-2.64978 2.49837,-2.64978h0.07571v0v0v0h0.07571h0.9085c0.07571,0 0.15142,0.07571 0.15142,0.15142v4.99672c0,0.07571 -0.07571,0.15142 -0.15142,0.15142zM316.85811,179.96215h0.9085v-4.69389h-0.83279c0,0 0,0 -0.07571,0c-1.21133,0 -2.19554,1.05991 -2.19554,2.34695c0,1.28703 0.98421,2.27124 2.19554,2.34695z" fill="#5b3523" fill-rule="nonzero"/><path d="M320.26498,177.6152c0,1.36274 -1.05992,2.49836 -2.34696,2.49836c-1.36275,0 -2.42267,-1.13562 -2.42267,-2.49836c0,-1.36274 1.05992,-2.49836 2.42267,-2.49836c1.28704,0 2.34696,1.13562 2.34696,2.49836z" fill="#fcc127" fill-rule="nonzero"/><path d="M317.84231,180.26498c-1.36275,0 -2.49837,-1.21133 -2.49837,-2.64978c0,-1.43845 1.13562,-2.64978 2.49837,-2.64978h0.07571c1.36275,0 2.49837,1.21133 2.49837,2.64978c0,1.43845 -1.13562,2.64978 -2.49837,2.64978zM317.91802,175.26826c-1.28704,0 -2.27125,1.05991 -2.27125,2.34695c0,1.28703 0.98421,2.34695 2.27125,2.34695c1.21133,0 2.19554,-1.05991 2.19554,-2.34695c0,-1.28703 -0.98421,-2.34695 -2.19554,-2.34695z" fill="#5b3523" fill-rule="nonzero"/><path d="M316.85811,176.631c0,0 0,-0.07571 0,-0.15142c0.07571,0 0.07571,0 0.15142,-0.07571c0,0 0,-0.07571 0.07571,-0.07571c0,0 0.07571,-0.07571 0.15142,-0.07571c0,-0.07571 0.07571,-0.07571 0.07571,-0.15142c0.07571,0 0.15142,0 0.15142,-0.07571c0.07571,0 0.07571,-0.07571 0.15142,-0.07571c0.07571,0 0.07571,0 0.15142,-0.07571v0h0.07571h0.07571c0.07571,0 0.07571,0 0.15142,0c0.07571,0 0.07571,0 0.15142,0h0.07571c0.07571,0 0.15142,0 0.15142,0c0.07571,0 0.15142,0 0.15142,0h0.07571h0.15142v0.15142v0.07571v0.07571v0c0,0.07571 0,0.15142 0,0.22712v0v0v0.07571c0,0.07571 0,0.07571 0,0.07571c0,0 0,0 0,0.07571c0,0 0.07571,0 0.07571,0.07571v0c0,0.07571 0,0.22712 0,0.30283c0,0.15142 0,0.22712 0,0.37854v0.07571c0,0.22712 0,0.37854 0,0.60566l-0.07571,0.30283v0.30283c0,0.15142 0,0.22712 0,0.30283c0,0.07571 0,0.15142 0,0.22712v0.07571l-0.07571,0.07571c-0.07571,0 -0.07571,0 -0.07571,0v0c-0.07571,0 -0.07571,0.07571 -0.07571,0.07571h-0.07571v0h-0.07571v0h-0.07571v0c-0.07571,0 -0.07571,0 -0.07571,0c-0.07571,0 -0.07571,0 -0.15142,0c0,0 0,0 -0.07571,0h-0.07571v0h-0.07571v0h-0.07571v0h-0.07571l-0.07571,-0.07571h-0.07571l-0.07571,-0.07571v-0.07571v0c0,-0.07571 0,-0.15142 -0.07571,-0.22712c0,-0.07571 0,-0.15142 0,-0.22712v-0.22712c0,0 0,-0.07571 0.07571,-0.15142c0,-0.07571 0,-0.15142 0,-0.15142v0v0c0,-0.07571 0,-0.07571 0,-0.15142v0v-0.22712v-0.22712v-0.15142c-0.07571,0 -0.07571,0 -0.07571,0c-0.07571,0 -0.07571,0 -0.15142,0c0,0 -0.07571,0 -0.15142,0c0,-0.07571 -0.07571,-0.07571 -0.07571,-0.15142v0l-0.07571,-0.07571c0,-0.07571 -0.07571,-0.07571 -0.07571,-0.15142v-0.07571c-0.07571,-0.07571 -0.07571,-0.07571 -0.07571,-0.15142v-0.07571c-0.07571,-0.07571 -0.07571,-0.07571 -0.07571,-0.15142zM317.23665,176.70671v0v0.07571v0c0,0 0,0 0,0.07571c0,0 0,0.07571 0.07571,0.07571c0,0.07571 0,0.07571 0,0.07571c0,0.07571 0.07571,0.07571 0.07571,0.07571v0v0l0.07571,-0.07571h0.07571l0.07571,-0.07571l0.30283,-0.22712v0.37854v0.22712v0.30283l-0.07571,0.22712v0.15142h0.07571v0v0v0c0.07571,0 0.07571,0.07571 0.07571,0.07571c0.07571,0 0.07571,0.07571 0.07571,0.15142c0,0 0,0.07571 -0.07571,0.07571c0,0.07571 0,0.07571 -0.07571,0.07571v0.07571v0h-0.07571v0.15142v0.15142c0,0.15142 0,0.15142 0,0.22712v0.07571h0.07571h0.07571c0.07571,0 0.07571,0 0.07571,0h0.07571h0.07571c0.07571,0 0.07571,0 0.07571,0h0.07571h0.07571v-0.07571c0,-0.07571 0,-0.22712 0,-0.30283l0.07571,-0.30283v-0.30283c0,-0.22712 0,-0.37854 0,-0.60566v-0.07571c0,-0.15142 0,-0.22712 0,-0.37854c0,-0.07571 0,-0.15142 0,-0.22712c-0.07571,-0.07571 -0.07571,-0.07571 -0.07571,-0.07571v0c0,-0.07571 0,-0.07571 0,-0.15142v-0.07571c0,-0.07571 0,-0.07571 0.07571,-0.07571l-0.07571,-0.15142v0c-0.07571,0 -0.07571,0 -0.15142,0h-0.07571c-0.07571,0 -0.15142,0 -0.15142,0h-0.07571c-0.07571,0 -0.07571,0 -0.07571,0v0c-0.07571,0 -0.07571,0 -0.15142,0c0,0.07571 -0.07571,0.07571 -0.07571,0.07571c-0.07571,0.07571 -0.07571,0.07571 -0.15142,0.15142c0,0 -0.07571,0 -0.15142,0.07571c0,0 -0.07571,0 -0.07571,0.07571l-0.07571,0.07571zM318.75081,176.631v0zM317.76661,178.29657v0z" fill="#5b3523" fill-rule="nonzero"/><path d="M317.00952,176.70671c0,-0.07571 0,-0.07571 0.07571,-0.15142c0.07571,-0.07571 0.15142,-0.07571 0.22712,-0.15142c0.07571,-0.07571 0.15142,-0.15142 0.22712,-0.22712c0.15142,0 0.22712,-0.07571 0.30283,-0.07571c0,-0.07571 0.07571,-0.07571 0.07571,-0.07571c0.07571,0 0.15142,0 0.30283,0c0.07571,0 0.15142,0 0.22712,0c0.07571,0 0.15142,0 0.22712,0.07571c0,0 0,0 0,0.07571c0,0.07571 0,0.15142 0,0.22712v0.07571c-0.07571,0 -0.07571,0.07571 -0.07571,0.07571c0,0 0,0.07571 0.07571,0.07571c0,0.07571 0,0.07571 0,0.07571c0,0.22712 0,0.45425 0,0.68137c0,0.22712 0,0.45425 0,0.68137c0,0.22712 0,0.45425 0,0.60566c0,0.22712 0,0.37854 0,0.52996h-0.07571h-0.07571c-0.07571,0 -0.15142,0 -0.15142,0c-0.07571,0 -0.15142,0 -0.22712,0c0,0 -0.07571,0 -0.15142,0c-0.07571,0 -0.07571,0 -0.15142,0h-0.07571c-0.07571,0 -0.07571,0 -0.07571,0c0,-0.15142 0,-0.30283 0,-0.45425c0,-0.07571 0,-0.22712 0,-0.37854c0,-0.07571 0,-0.07571 0,-0.07571c0.07571,0 0.07571,0 0.07571,0l0.07571,-0.07571v0v-0.07571h-0.07571c0,0 0,0 -0.07571,-0.07571v0c0,-0.15142 0,-0.30283 0,-0.45425c0,-0.22712 0,-0.37854 0,-0.52996c0,0 0,0 -0.07571,0.07571c0,0 -0.07571,0 -0.07571,0.07571c-0.07571,0 -0.07571,0 -0.15142,0c0,0.07571 0,0.07571 -0.07571,0.07571l-0.07571,-0.07571c-0.07571,-0.07571 -0.07571,-0.15142 -0.15142,-0.22712c0,-0.07571 0,-0.15142 -0.07571,-0.22712z" fill="#fcc127" fill-rule="nonzero"/><path d="M317.00952,176.70671c0,-0.07571 0,-0.07571 0.07571,-0.15142c0.07571,-0.07571 0.15142,-0.07571 0.22712,-0.15142c0.07571,-0.07571 0.15142,-0.15142 0.22712,-0.22712c0.15142,0 0.22712,-0.07571 0.30283,-0.07571c0,-0.07571 0.07571,-0.07571 0.07571,-0.07571c0.07571,0 0.15142,0 0.30283,0c0.07571,0 0.15142,0 0.22712,0c0.07571,0 0.15142,0 0.22712,0.07571c0,0 0,0 0,0.07571c0,0.07571 0,0.15142 0,0.22712v0.07571c-0.07571,0 -0.07571,0.07571 -0.07571,0.07571c0,0 0,0.07571 0.07571,0.07571c0,0.07571 0,0.07571 0,0.07571c0,0.22712 0,0.45425 0,0.68137c0,0.22712 0,0.45425 0,0.68137c0,0.22712 0,0.45425 0,0.60566c0,0.22712 0,0.37854 0,0.52996h-0.07571h-0.07571c-0.07571,0 -0.15142,0 -0.15142,0c-0.07571,0 -0.15142,0 -0.22712,0c0,0 -0.07571,0 -0.15142,0c-0.07571,0 -0.07571,0 -0.15142,0h-0.07571c-0.07571,0 -0.07571,0 -0.07571,0c0,-0.15142 0,-0.30283 0,-0.45425c0,-0.07571 0,-0.22712 0,-0.37854c0,-0.07571 0,-0.07571 0,-0.07571c0.07571,0 0.07571,0 0.07571,0l0.07571,-0.07571v0v-0.07571h-0.07571c0,0 0,0 -0.07571,-0.07571v0c0,-0.15142 0,-0.30283 0,-0.45425c0,-0.22712 0,-0.37854 0,-0.52996c0,0 0,0 -0.07571,0.07571c0,0 -0.07571,0 -0.07571,0.07571c-0.07571,0 -0.07571,0 -0.15142,0c0,0.07571 0,0.07571 -0.07571,0.07571l-0.07571,-0.07571c-0.07571,-0.07571 -0.07571,-0.15142 -0.15142,-0.22712c0,-0.07571 0,-0.15142 -0.07571,-0.22712z" fill="#ed9e34" fill-rule="nonzero"/></g></g></g></svg>