<svg version="1.1" xmlns="http://www.w3.org/2000/svg" xmlns:xlink="http://www.w3.org/1999/xlink" width="19.1541" height="19.1541" viewBox="0,0,19.1541,19.1541"><g transform="translate(-310.42295,-170.42295)"><g data-paper-data="{&quot;isPaintingLayer&quot;:true}" stroke="none" stroke-width="1" stroke-linecap="butt" stroke-linejoin="miter" stroke-miterlimit="10" stroke-dasharray="" stroke-dashoffset="0" style="mix-blend-mode: normal"><g><path d="M314.21048,187.84561c-1.07578,0 -1.94787,-0.87209 -1.94787,-1.94787v-11.68725c0,-1.07578 0.87209,-1.94787 1.94787,-1.94787h11.68725c1.07578,0 1.94787,0.87209 1.94787,1.94787v11.68725c0,1.07578 -0.87209,1.94787 -1.94787,1.94787z" fill="#fefefe" fill-rule="evenodd"/><path d="M314.21048,170.42295h11.57903c1.08215,0 1.94787,0.43286 2.70538,1.19037v0c0.64929,0.64929 1.08215,1.51501 1.08215,2.59717v11.57903c0,1.08215 -0.43286,1.94787 -1.08215,2.70538v0c-0.75751,0.64929 -1.62323,1.08215 -2.70538,1.08215h-11.57903c-1.08215,0 -1.94787,-0.43286 -2.59717,-1.08215v0c-0.75751,-0.75751 -1.19037,-1.62323 -1.19037,-2.70538v-11.57903c0,-1.08215 0.43286,-1.94787 1.19037,-2.59717v0c0.64929,-0.75751 1.51501,-1.19037 2.59717,-1.19037zM314.21048,172.26261h11.57903c1.08215,0 1.94787,0.86572 1.94787,1.94787v11.57903c0,1.08215 -0.86572,1.94787 -1.94787,1.94787h-11.57903c-1.08215,0 -1.94787,-0.86572 -1.94787,-1.94787v-11.57903c0,-1.08215 0.86572,-1.94787 1.94787,-1.94787z" fill="#ef7f1a" fill-rule="evenodd"/><path d="M314.21048,170.42295h11.57903c0.54108,0 1.08215,0.10822 1.51501,0.32465c0.43286,0.10822 0.86572,0.43286 1.19037,0.75751v0c0.32465,0.32465 0.64929,0.75751 0.86572,1.29858c0.10822,0.43286 0.21643,0.86572 0.21643,1.4068v11.57903c0,0.54108 -0.10822,1.08215 -0.21643,1.51501c-0.21643,0.43286 -0.54108,0.86572 -0.86572,1.19037v0c-0.32465,0.32465 -0.75751,0.64929 -1.19037,0.86572c-0.43286,0.10822 -0.97394,0.21643 -1.51501,0.21643h-11.57903c-0.54108,0 -0.97394,-0.10822 -1.4068,-0.21643c-0.54108,-0.21643 -0.97394,-0.54108 -1.29858,-0.86572v0c-0.32465,-0.32465 -0.64929,-0.75751 -0.75751,-1.19037c-0.21643,-0.43286 -0.32465,-0.97394 -0.32465,-1.51501v-11.57903c0,-0.54108 0.10822,-0.97394 0.32465,-1.4068c0.10822,-0.54108 0.43286,-0.97394 0.75751,-1.29858v0c0.32465,-0.32465 0.75751,-0.64929 1.29858,-0.75751c0.43286,-0.21643 0.86572,-0.32465 1.4068,-0.32465zM325.78952,170.53117h-11.57903c-0.54108,0 -0.97394,0.10822 -1.4068,0.21643c-0.43286,0.21643 -0.86572,0.54108 -1.19037,0.86572v0c-0.32465,0.32465 -0.64929,0.75751 -0.86572,1.19037c-0.10822,0.43286 -0.21643,0.86572 -0.21643,1.4068v11.57903c0,0.54108 0.10822,0.97394 0.21643,1.4068c0.21643,0.43286 0.54108,0.86572 0.86572,1.19037v0c0.32465,0.32465 0.75751,0.64929 1.19037,0.86572c0.43286,0.10822 0.86572,0.21643 1.4068,0.21643h11.57903c0.54108,0 0.97394,-0.10822 1.4068,-0.21643c0.43286,-0.21643 0.86572,-0.54108 1.19037,-0.86572v0c0.32465,-0.32465 0.64929,-0.75751 0.86572,-1.19037c0.10822,-0.43286 0.21643,-0.86572 0.21643,-1.4068v-11.57903c0,-0.54108 -0.10822,-0.97394 -0.21643,-1.4068c-0.21643,-0.43286 -0.54108,-0.86572 -0.86572,-1.19037v0c-0.32465,-0.32465 -0.75751,-0.64929 -1.19037,-0.86572c-0.43286,-0.10822 -0.86572,-0.21643 -1.4068,-0.21643zM314.21048,172.15439h11.57903c0.54108,0 1.08215,0.21643 1.4068,0.64929c0.43286,0.32465 0.64929,0.86572 0.64929,1.4068v11.57903c0,0.54108 -0.21643,1.08215 -0.64929,1.4068c-0.32465,0.43286 -0.86572,0.64929 -1.4068,0.64929h-11.57903c-0.54108,0 -1.08215,-0.21643 -1.4068,-0.64929c-0.43286,-0.32465 -0.64929,-0.86572 -0.64929,-1.4068v-11.57903c0,-0.54108 0.21643,-1.08215 0.64929,-1.4068c0.32465,-0.43286 0.86572,-0.64929 1.4068,-0.64929zM325.78952,172.26261h-11.57903c-0.54108,0 -0.97394,0.21643 -1.4068,0.54108c-0.32465,0.43286 -0.54108,0.86572 -0.54108,1.4068v11.57903c0,0.54108 0.21643,1.08215 0.54108,1.4068c0.43286,0.32465 0.86572,0.54108 1.4068,0.54108h11.57903c0.54108,0 1.08215,-0.21643 1.4068,-0.54108c0.32465,-0.32465 0.54108,-0.86572 0.54108,-1.4068v-11.57903c0,-0.54108 -0.21643,-0.97394 -0.54108,-1.4068c-0.32465,-0.32465 -0.86572,-0.54108 -1.4068,-0.54108z" fill="#fefefe" fill-rule="nonzero"/><path d="M317.8898,182.32663c-0.10822,0.10822 -0.21643,0.10822 -0.32465,0c-0.10822,0 -0.10822,-0.21643 0,-0.32465l4.32861,-4.65326c0.10822,-0.10822 0.32465,-0.10822 0.43286,0c0,0.10822 0.10822,0.21643 0,0.32465z" fill="#2b2a29" fill-rule="nonzero"/><path d="M324.38272,176.59122c-0.64929,0 -1.19037,-0.54108 -1.19037,-1.19037c0,-0.64929 0.54108,-1.19037 1.19037,-1.19037c0.75751,0 1.19037,0.54108 1.19037,1.19037c0,0.64929 -0.43286,1.19037 -1.19037,1.19037z" fill="#e63331" fill-rule="nonzero"/><path d="M324.38272,176.69943c-0.64929,0 -1.29858,-0.54108 -1.29858,-1.29858c0,-0.75751 0.64929,-1.29858 1.29858,-1.29858c0.75751,0 1.4068,0.54108 1.4068,1.29858v0c0,0.75751 -0.64929,1.29858 -1.4068,1.29858zM324.38272,174.3187c-0.54108,0 -0.97394,0.54108 -0.97394,1.08215c0,0.64929 0.43286,1.08215 0.97394,1.08215c0.64929,0 1.08215,-0.43286 1.08215,-1.08215c0,-0.54108 -0.43286,-1.08215 -1.08215,-1.08215z" fill="#5a3547" fill-rule="nonzero"/><path d="M321.78555,185.78952h-0.10822l-1.62323,-1.62323c0,-0.10822 0,-0.10822 0,-0.10822v-2.27252c0,-0.10822 0,-0.10822 0,-0.10822l1.62323,-1.62323h0.10822h2.27252h0.10822l1.62323,1.62323c0,0 0,0 0,0.10822v2.27252c0,0 0,0 0,0.10822l-1.62323,1.62323h-0.10822z" fill="#ed7f32" fill-rule="nonzero"/><path d="M321.78555,180.16232l-1.62323,1.62323v2.27252l1.62323,1.62323h2.27252l1.62323,-1.62323v-2.27252l-1.62323,-1.62323zM325.89773,184.2745l-1.62323,1.62323c-0.10822,0 -0.10822,0 -0.21643,0v0h-2.27252v0c-0.10822,0 -0.10822,0 -0.21643,0l-1.62323,-1.62323c0,-0.10822 0,-0.21643 0,-0.21643v-2.27252c0,-0.10822 0,-0.21643 0,-0.21643l1.62323,-1.62323c0.10822,0 0.10822,-0.10822 0.21643,-0.10822v0h2.27252v0c0.10822,0 0.10822,0.10822 0.21643,0.10822l1.62323,1.62323c0,0 0,0.10822 0,0.21643v2.27252c0,0.10822 0,0.10822 0,0.21643z" fill="#fefefe" fill-rule="nonzero"/><path d="M323.73343,180.91983c-0.10822,0.43286 -0.54108,0.75751 -0.64929,0.86572c-0.10822,0.10822 -0.43286,0.43286 -0.54108,0.75751h0.86572c-0.10822,-0.21643 -0.32465,-0.43286 -0.32465,-0.43286l0.10822,-0.21643c0,0 0.54108,0.43286 0.54108,0.97394c0,0.64929 -0.43286,0.97394 -0.75751,1.29858c-0.21643,0.21643 -0.32465,0.32465 -0.43286,0.54108h0.75751c0,-0.21643 -0.10822,-0.32465 -0.21643,-0.32465l0.21643,-0.21643c0,0 0.43286,0.43286 0.43286,0.75751c0,0.32465 -0.32465,0.21643 -0.21643,0.10822c0,-0.10822 -0.10822,-0.10822 -0.10822,-0.21643h-0.86572v0c0,0 -0.10822,0.32465 -0.21643,0.32465c-0.21643,0 -0.10822,-0.21643 -0.10822,-0.21643c0.10822,-0.64929 0.54108,-0.86572 0.86572,-1.29858c0.10822,-0.10822 0.21643,-0.21643 0.21643,-0.32465h-0.75751c0.10822,0.32465 0.21643,0.43286 0.21643,0.43286l-0.10822,0.21643c-0.75751,-0.54108 -0.54108,-1.19037 -0.43286,-1.51501c0.21643,-0.43286 0.54108,-0.75751 0.75751,-0.86572c0.10822,-0.10822 0.21643,-0.21643 0.32465,-0.43286h-0.64929c0,0.21643 0.10822,0.32465 0.10822,0.32465l-0.10822,0.21643c-0.43286,-0.43286 -0.54108,-0.75751 -0.54108,-0.75751c0,0 0,-0.21643 0.10822,-0.21643c0.21643,-0.10822 0.21643,0.10822 0.21643,0.10822c0,0 0,0.10822 0.10822,0.21643h0.75751c0.10822,-0.10822 0.10822,-0.10822 0.10822,-0.10822c0,0 0,-0.32465 0.21643,-0.32465c0.10822,0.10822 0.10822,0.32465 0.10822,0.32465zM322.43484,182.65127c0,0.10822 0,0.10822 0,0.21643c0,0.10822 0,0.21643 0,0.21643l0.97394,0.10822c0,-0.21643 0,-0.32465 0,-0.54108z" fill="#fefefe" fill-rule="nonzero"/><path d="M317.67337,179.40482h-1.08215v0c-1.29858,0 -2.38074,-1.19037 -2.38074,-2.48895c0,-1.4068 1.08215,-2.48895 2.38074,-2.48895h0.10822h0.97394z" fill="#ed9e34" fill-rule="nonzero"/><path d="M317.67337,179.51303h-1.08215v0v0v0c-0.10822,0 -0.10822,0 -0.10822,0c-1.29858,0 -2.38074,-1.19037 -2.38074,-2.59717c0,-1.51501 1.08215,-2.59717 2.48895,-2.70538v0h0.10822v0v0v0h0.97394c0.10822,0 0.10822,0.10822 0.10822,0.21643v4.9779c0,0.10822 0,0.10822 -0.10822,0.10822zM316.59122,179.18839h0.86572v-4.65326h-0.75751h-0.10822c-1.19037,0 -2.16431,1.08215 -2.16431,2.38074c0,1.29858 0.86572,2.27252 2.16431,2.27252z" fill="#5b3523" fill-rule="nonzero"/><path d="M320.05411,176.91587c0,1.4068 -1.08215,2.48895 -2.48895,2.48895c-1.29858,0 -2.38074,-1.08215 -2.38074,-2.48895c0,-1.4068 1.08215,-2.48895 2.38074,-2.48895c1.4068,0 2.48895,1.08215 2.48895,2.48895z" fill="#fcc127" fill-rule="nonzero"/><path d="M317.56516,179.51303c-1.4068,0 -2.48895,-1.19037 -2.48895,-2.59717c0,-1.51501 1.08215,-2.70538 2.48895,-2.70538h0.10822c1.29858,0 2.48895,1.19037 2.48895,2.70538c0,1.4068 -1.08215,2.59717 -2.48895,2.59717zM317.56516,174.53513c-1.19037,0 -2.16431,1.08215 -2.16431,2.38074c0,1.29858 0.97394,2.27252 2.16431,2.27252c1.29858,0 2.27252,-0.97394 2.27252,-2.27252c0,-1.29858 -0.97394,-2.38074 -2.27252,-2.38074z" fill="#5b3523" fill-rule="nonzero"/><path d="M316.59122,175.94193v-0.10822l0.10822,-0.10822l0.10822,-0.10822c0,0 0.10822,0 0.10822,-0.10822c0,0 0.10822,0 0.10822,-0.10822c0.10822,0 0.10822,0 0.21643,-0.10822h0.10822l0.10822,-0.10822v0c0.10822,0 0.10822,0 0.10822,0h0.10822h0.10822c0.10822,0 0.10822,0 0.10822,0c0.10822,0 0.10822,0 0.21643,0h0.10822h0.10822h0.10822h0.10822v0.10822v0.10822c0,0 0,0 0,0.10822v0v0.10822v0.10822v0v0.10822v0c0,0 0,0 0,0.10822c0,0 0.10822,0 0.10822,0.10822v0c0,0.10822 0,0.21643 0,0.32465c0,0.10822 0,0.21643 0,0.32465v0.10822c0,0.10822 0,0.32465 0,0.54108l-0.10822,0.32465v0.32465c0,0.10822 0,0.21643 0,0.32465c0,0 0,0.10822 0,0.21643v0c0,0.10822 0,0.10822 -0.10822,0.10822v0c-0.10822,0.10822 -0.10822,0.10822 -0.10822,0.10822c0,0 0,0 -0.10822,0v0v0h-0.10822v0v0h-0.10822h-0.10822c0,0 -0.10822,0 -0.21643,0v0v0v0h-0.10822v0h-0.10822v-0.10822c-0.10822,0 -0.10822,0 -0.10822,0c0,0 -0.10822,0 -0.10822,-0.10822v0v0c0,-0.10822 0,-0.21643 0,-0.21643c0,-0.10822 0,-0.21643 0,-0.21643v-0.21643c0,-0.10822 0,-0.21643 0,-0.21643c0,-0.10822 0,-0.10822 0,-0.10822v0v-0.10822c0,0 0,0 0,-0.10822v0v-0.21643v-0.21643v-0.21643c0,0.10822 0,0.10822 -0.10822,0.10822c0,0 0,0 -0.10822,0c0,0 -0.10822,0 -0.10822,-0.10822c0,0 -0.10822,0 -0.10822,-0.10822v0c0,0 0,0 -0.10822,-0.10822c0,0 0,0 0,-0.10822c0,0 -0.10822,0 -0.10822,-0.10822c0,0 0,0 0,-0.10822v-0.10822v-0.10822zM316.91587,176.05014v0v0v0c0,0 0,0.10822 0.10822,0.10822v0.10822c0,0 0,0 0,0.10822h0.10822v0v0h0.10822v-0.10822h0.10822l0.21643,-0.32465v0.43286v0.21643v0.32465v0.21643v0.10822h0.10822v0c0,0.10822 0,0.10822 0,0.10822v0v0c0.10822,0.10822 0.10822,0.10822 0.10822,0.10822c0,0.10822 0,0.10822 0,0.21643c-0.10822,0 -0.10822,0 -0.10822,0c0,0 0,0 0,0.10822v0h-0.10822v0.10822v0.21643c0,0.10822 0,0.10822 0,0.21643v0h0.10822h0.10822h0.10822h0.10822h0.10822v0h0.10822v0c0,-0.10822 0,-0.21643 0,-0.32465v-0.32465v-0.32465c0,-0.21643 0,-0.43286 0,-0.54108v-0.10822c0,-0.10822 0,-0.21643 0,-0.32465c0,-0.10822 0,-0.21643 0,-0.32465c0,0 0,0 0,-0.10822v0c-0.10822,0 -0.10822,0 -0.10822,-0.10822c0,0 0,0 0.10822,-0.10822v0v-0.21643v0c-0.10822,0 -0.10822,0 -0.10822,0c-0.10822,0 -0.10822,0 -0.21643,0h-0.10822c0,0 0,0 -0.10822,0v0c-0.10822,0 -0.10822,0 -0.10822,0v0.10822c-0.10822,0 -0.10822,0 -0.21643,0c0,0.10822 0,0.10822 -0.10822,0.10822c0,0 0,0.10822 -0.10822,0.10822l-0.10822,0.10822c0,0 0,0 -0.10822,0.10822zM317.45694,177.67337v0z" fill="#5b3523" fill-rule="nonzero"/><path d="M316.69943,175.94193c0,0 0.10822,0 0.10822,-0.10822c0.10822,0 0.10822,-0.10822 0.21643,-0.10822c0.10822,-0.10822 0.21643,-0.21643 0.32465,-0.21643c0,-0.10822 0.10822,-0.10822 0.21643,-0.10822c0,0 0,0 0.10822,0c0.10822,-0.10822 0.10822,-0.10822 0.21643,-0.10822c0.10822,0 0.21643,0 0.32465,0.10822c0.10822,0 0.10822,0 0.21643,0c0,0 0,0 0,0.10822c0,0 0,0.10822 0,0.21643c0,0 0,0 -0.10822,0.10822v0c0,0.10822 0,0.10822 0,0.10822c0.10822,0 0.10822,0.10822 0.10822,0.10822c0,0.21643 0,0.32465 0,0.64929c0,0.21643 0,0.43286 0,0.64929c0,0.21643 0,0.43286 0,0.64929c0,0.21643 0,0.32465 0,0.54108c-0.10822,0 -0.10822,0 -0.10822,0h-0.10822h-0.10822c-0.10822,0 -0.10822,0 -0.21643,0h-0.10822c-0.10822,0 -0.10822,0 -0.21643,0h-0.10822v0c0,-0.21643 0,-0.32465 0,-0.43286c0,-0.10822 0,-0.32465 0,-0.43286c0,0 0,0 0,-0.10822v0c0.10822,0 0.10822,0 0.10822,0c0,0 0,0 0,-0.10822v0c0,0 0,0 -0.10822,0v0c0,-0.10822 0,-0.10822 0,-0.10822c0,-0.10822 0,-0.32465 0,-0.43286c0,-0.21643 0,-0.32465 0,-0.54108c0,0 -0.10822,0 -0.10822,0.10822h-0.10822l-0.10822,0.10822c0,0 0,0 -0.10822,0c0,0 0,0 -0.10822,-0.10822c0,0 0,-0.10822 -0.10822,-0.10822c0,-0.10822 0,-0.21643 0,-0.21643c-0.10822,-0.10822 -0.10822,-0.10822 -0.10822,-0.21643z" fill="#fcc127" fill-rule="nonzero"/><path d="M316.69943,175.94193c0,0 0.10822,0 0.10822,-0.10822c0.10822,0 0.10822,-0.10822 0.21643,-0.10822c0.10822,-0.10822 0.21643,-0.21643 0.32465,-0.21643c0,-0.10822 0.10822,-0.10822 0.21643,-0.10822c0,0 0,0 0.10822,0c0.10822,-0.10822 0.10822,-0.10822 0.21643,-0.10822c0.10822,0 0.21643,0 0.32465,0.10822c0.10822,0 0.10822,0 0.21643,0c0,0 0,0 0,0.10822c0,0 0,0.10822 0,0.21643c0,0 0,0 -0.10822,0.10822v0c0,0.10822 0,0.10822 0,0.10822c0.10822,0 0.10822,0.10822 0.10822,0.10822c0,0.21643 0,0.32465 0,0.64929c0,0.21643 0,0.43286 0,0.64929c0,0.21643 0,0.43286 0,0.64929c0,0.21643 0,0.32465 0,0.54108c-0.10822,0 -0.10822,0 -0.10822,0h-0.10822h-0.10822c-0.10822,0 -0.10822,0 -0.21643,0h-0.10822c-0.10822,0 -0.10822,0 -0.21643,0h-0.10822v0c0,-0.21643 0,-0.32465 0,-0.43286c0,-0.10822 0,-0.32465 0,-0.43286c0,0 0,0 0,-0.10822v0c0.10822,0 0.10822,0 0.10822,0c0,0 0,0 0,-0.10822v0c0,0 0,0 -0.10822,0v0c0,-0.10822 0,-0.10822 0,-0.10822c0,-0.10822 0,-0.32465 0,-0.43286c0,-0.21643 0,-0.32465 0,-0.54108c0,0 -0.10822,0 -0.10822,0.10822h-0.10822l-0.10822,0.10822c0,0 0,0 -0.10822,0c0,0 0,0 -0.10822,-0.10822c0,0 0,-0.10822 -0.10822,-0.10822c0,-0.10822 0,-0.21643 0,-0.21643c-0.10822,-0.10822 -0.10822,-0.10822 -0.10822,-0.21643z" fill="#ed9e34" fill-rule="nonzero"/></g></g></g></svg>