<svg version="1.1" xmlns="http://www.w3.org/2000/svg" xmlns:xlink="http://www.w3.org/1999/xlink" width="108.7108" height="108.71079" viewBox="0,0,108.7108,108.71079"><g transform="translate(-265.6446,-112.6446)"><g data-paper-data="{&quot;isPaintingLayer&quot;:true}" stroke="none" stroke-linecap="butt" stroke-linejoin="miter" stroke-miterlimit="10" stroke-dasharray="" stroke-dashoffset="0" style="mix-blend-mode: normal"><path d="M279.42853,206.5v-81h80v81z" fill="#fefefe" fill-rule="nonzero" stroke-width="0"/><path d="M320.10275,152.51208c3.69904,0.82201 6.57608,0 13.56316,2.67153c1.84952,0.82201 3.69904,1.84952 5.34306,2.67153c4.52105,2.87703 8.83661,8.2201 11.09713,13.15216c2.87703,5.95957 4.11005,12.94665 4.31555,19.93374c0.2055,2.67153 0.61651,5.54857 -1.64402,6.37058c-2.46603,0.82201 -3.69904,-1.84952 -4.72656,-3.08254c-6.98708,-8.6311 -14.38517,-12.12464 -27.94833,-12.53565c0,1.84952 0.411,13.15216 -0.411,14.38517c-0.61651,1.02751 -2.05502,1.84952 -3.28804,1.02751c-0.61651,-0.2055 -2.26053,-1.84952 -2.67153,-2.26053c-0.61651,-0.411 -0.82201,-0.82201 -1.43852,-1.23301l-11.50814,-11.09713c-1.02751,-0.82201 -1.64402,-1.64402 -2.67153,-2.46603l-10.27512,-9.86412c-0.61651,-0.82201 -2.05502,-1.43852 -2.05502,-3.08254c0,-1.64402 1.23301,-2.46603 2.05502,-3.08254l7.60359,-7.39809c4.93206,-4.52105 10.48063,-10.06962 15.41268,-14.59067c1.64402,-1.43852 3.69904,-3.90455 5.34306,-4.93206c1.23301,-0.82201 2.87703,-0.2055 3.49354,0.61651c0.82201,1.02751 0.411,3.08254 0.411,4.72656c0,3.28804 0,6.78158 0,10.06962zM313.52667,112.6446h12.74115c6.98708,0.2055 13.76866,0.61651 21.37226,2.87703c3.08254,0.82201 5.75407,1.84952 8.2201,3.28804c2.67153,1.43852 4.52105,3.08254 6.78158,4.93206c9.24761,7.60359 11.71364,23.63278 11.71364,34.93542v16.23469c0,5.75407 -0.411,11.50814 -1.43852,16.23469c-0.411,1.64402 -1.02751,3.08254 -1.43852,4.52105c-1.23301,4.11005 -3.28804,8.6311 -6.16507,11.71364c-0.411,0.61651 -0.82201,1.02751 -1.43852,1.64402c-1.84952,2.05502 -5.95957,5.13756 -8.4256,6.37058c-10.06962,5.54857 -23.22178,5.95957 -35.34642,5.95957h-5.75407c-8.0146,0 -20.96125,-1.64402 -27.53733,-4.93206c-5.13756,-2.46603 -10.89163,-6.78158 -13.97417,-11.71364c-2.67153,-4.31555 -4.11005,-8.6311 -5.34306,-13.76866c-1.02751,-3.49354 -0.82201,-5.34306 -1.23301,-8.6311c-0.411,-3.90455 -0.61651,-11.09713 -0.61651,-15.20718l0.2055,-9.65862c0,-1.23301 0.2055,-1.84952 0.2055,-2.87703c0.411,-9.04211 2.05502,-17.67321 6.78158,-25.2768c0.411,-0.61651 0.82201,-1.02751 1.43852,-1.64402c1.43852,-2.05502 2.87703,-3.49354 4.52105,-4.93206c8.83661,-7.60359 23.01628,-10.06962 34.72992,-10.06962z" fill="#369cf0" fill-rule="evenodd" stroke-width="1"/></g></g></svg>