<svg version="1.1" xmlns="http://www.w3.org/2000/svg" xmlns:xlink="http://www.w3.org/1999/xlink" width="19.1542" height="19.1541" viewBox="0,0,19.1542,19.1541"><g transform="translate(-310.4229,-170.42295)"><g data-paper-data="{&quot;isPaintingLayer&quot;:true}" stroke="none" stroke-width="1" stroke-linecap="butt" stroke-linejoin="miter" stroke-miterlimit="10" stroke-dasharray="" stroke-dashoffset="0" style="mix-blend-mode: normal"><g><path d="M314.15331,187.71186c-1.06974,0 -1.93694,-0.86719 -1.93694,-1.93693v-11.62159c0,-1.06974 0.8672,-1.93693 1.93694,-1.93693h11.62165c1.06974,0 1.93694,0.86719 1.93694,1.93693v11.62159c0,1.06974 -0.8672,1.93693 -1.93694,1.93693z" fill="#fefefe" fill-rule="evenodd"/><path d="M314.15331,170.49469h11.62165c1.00434,0 1.93694,0.43043 2.65433,1.07607v0c0.64565,0.64564 1.07608,1.57824 1.07608,2.58258v11.62159c0,1.00433 -0.43043,1.93693 -1.07608,2.65431v0c-0.71739,0.64564 -1.64999,1.07607 -2.65433,1.07607h-11.62165c-1.00434,0 -1.93694,-0.43043 -2.58259,-1.07607v0c-0.64565,-0.71738 -1.07608,-1.64998 -1.07608,-2.65431v-11.62159c0,-1.00433 0.43043,-1.93693 1.07608,-2.58258v0c0.64565,-0.64564 1.57825,-1.07607 2.58259,-1.07607zM314.15331,172.21641h11.62165c1.07608,0 1.93694,0.86086 1.93694,1.93693v11.62159c0,1.07607 -0.86086,1.93693 -1.93694,1.93693h-11.62165c-1.07608,0 -1.93694,-0.86086 -1.93694,-1.93693v-11.62159c0,-1.07607 0.86086,-1.93693 1.93694,-1.93693z" fill="#ef7f1a" fill-rule="evenodd"/><path d="M314.15331,170.42295h11.62165c0.50217,0 1.00434,0.07174 1.43477,0.28695c0.50217,0.21521 0.86086,0.50217 1.21956,0.78912v0c0.35869,0.35869 0.64565,0.78912 0.86086,1.21955c0.14348,0.50217 0.28695,0.9326 0.28695,1.43476v11.62159c0,0.50217 -0.14348,1.00433 -0.28695,1.43476c-0.21522,0.50217 -0.50217,0.86086 -0.86086,1.21955v0c-0.35869,0.35869 -0.71739,0.64564 -1.21956,0.86086c-0.43043,0.14348 -0.9326,0.28695 -1.43477,0.28695h-11.62165c-0.50217,0 -0.9326,-0.14348 -1.43477,-0.28695c-0.43043,-0.21521 -0.86086,-0.50217 -1.21956,-0.86086v0c-0.28695,-0.35869 -0.57391,-0.71738 -0.78912,-1.21955c-0.21522,-0.43043 -0.28695,-0.9326 -0.28695,-1.43476v-11.62159c0,-0.50217 0.07174,-0.9326 0.28695,-1.43476c0.21522,-0.43043 0.50217,-0.86086 0.78912,-1.21955v0c0.35869,-0.28695 0.78912,-0.57391 1.21956,-0.78912c0.50217,-0.21521 0.9326,-0.28695 1.43477,-0.28695zM325.77496,170.49469h-11.62165c-0.43043,0 -0.9326,0.14348 -1.36303,0.28695c-0.43043,0.21521 -0.86086,0.50217 -1.21956,0.78912v0c-0.28695,0.35869 -0.57391,0.78912 -0.78912,1.21955c-0.14348,0.43043 -0.28695,0.9326 -0.28695,1.36303v11.62159c0,0.50217 0.14348,1.00433 0.28695,1.43476c0.21522,0.43043 0.50217,0.86086 0.78912,1.14781v0c0.35869,0.35869 0.78912,0.64564 1.21956,0.78912c0.43043,0.21521 0.9326,0.28695 1.36303,0.28695h11.62165c0.50217,0 1.00434,-0.07174 1.43477,-0.28695c0.43043,-0.14348 0.86086,-0.43043 1.14782,-0.78912v0c0.35869,-0.28695 0.64565,-0.71738 0.78912,-1.14781c0.21522,-0.43043 0.28695,-0.9326 0.28695,-1.43476v-11.62159c0,-0.43043 -0.07174,-0.9326 -0.28695,-1.36303c-0.14348,-0.43043 -0.43043,-0.86086 -0.78912,-1.21955v0c-0.28695,-0.28695 -0.71739,-0.57391 -1.14782,-0.78912c-0.43043,-0.14348 -0.9326,-0.28695 -1.43477,-0.28695zM314.15331,172.21641h11.62165c0.57391,0 1.07608,0.21521 1.43477,0.57391c0.35869,0.35869 0.57391,0.86086 0.57391,1.36303v11.62159c0,0.57391 -0.21522,1.07607 -0.57391,1.43476c-0.35869,0.35869 -0.86086,0.57391 -1.43477,0.57391h-11.62165c-0.50217,0 -1.00434,-0.21521 -1.36303,-0.57391c-0.35869,-0.35869 -0.57391,-0.86086 -0.57391,-1.43476v-11.62159c0,-0.50217 0.21522,-1.00433 0.57391,-1.36303c0.35869,-0.35869 0.86086,-0.57391 1.36303,-0.57391zM325.77496,172.28814h-11.62165c-0.50217,0 -0.9326,0.21521 -1.29129,0.57391c-0.35869,0.35869 -0.57391,0.78912 -0.57391,1.29129v11.62159c0,0.57391 0.21522,1.00433 0.57391,1.36303c0.35869,0.35869 0.78912,0.57391 1.29129,0.57391h11.62165c0.57391,0 1.00434,-0.21521 1.36303,-0.57391c0.35869,-0.35869 0.57391,-0.78912 0.57391,-1.36303v-11.62159c0,-0.50217 -0.21522,-0.9326 -0.57391,-1.29129c-0.35869,-0.35869 -0.78912,-0.57391 -1.36303,-0.57391z" fill="#fefefe" fill-rule="nonzero"/><path d="M317.3098,182.11628c-0.14348,0.14348 -0.28695,0.14348 -0.35869,0c-0.14348,-0.07174 -0.14348,-0.21521 -0.07174,-0.35869l4.37605,-4.66298c0.14348,-0.07174 0.28695,-0.07174 0.35869,0c0.14348,0.14348 0.14348,0.28695 0.07174,0.35869z" fill="#2b2a29" fill-rule="nonzero"/><path d="M324.34018,176.59244c-0.64565,0 -1.21956,-0.50217 -1.21956,-1.14781c0,-0.64564 0.57391,-1.21955 1.21956,-1.21955c0.64565,0 1.14782,0.57391 1.14782,1.21955c0,0.64564 -0.50217,1.14781 -1.14782,1.14781z" fill="#e63331" fill-rule="nonzero"/><path d="M324.34018,176.73591c-0.71739,0 -1.36303,-0.57391 -1.36303,-1.29129c0,-0.71738 0.64565,-1.36303 1.36303,-1.36303c0.71739,0 1.29129,0.57391 1.29129,1.29129v0.07174c0,0.71738 -0.57391,1.29129 -1.29129,1.29129zM324.34018,174.36855c-0.57391,0 -1.07608,0.50217 -1.07608,1.07607c0,0.57391 0.50217,1.00433 1.07608,1.00433c0.57391,0 1.07608,-0.43043 1.07608,-1.00433c0,-0.57391 -0.50217,-1.07607 -1.07608,-1.07607z" fill="#5a3547" fill-rule="nonzero"/><path d="M322.04455,185.84666c-0.07174,0 -0.07174,0 -0.14348,-0.07174l-1.57825,-1.57824v-0.07174v-3.87386c0,-0.07174 0.07174,-0.14348 0.14348,-0.14348h3.80214c0,0 0.07174,0 0.07174,0.07174l1.64999,1.57824c0,0.07174 0,0.07174 0,0.14348v3.80212c0,0.07174 -0.07174,0.14348 -0.14348,0.14348z" fill="#4bb8a5" fill-rule="nonzero"/><path d="M320.4663,180.25108v3.87386l1.57825,1.57824h3.80214v-3.80212l-1.57825,-1.64998zM325.84669,185.99014h-3.80214v0c-0.14348,0 -0.21522,0 -0.21522,-0.07174l-1.57825,-1.57824c-0.07174,-0.07174 -0.14348,-0.14348 -0.14348,-0.21521v-3.87386c0,-0.14348 0.14348,-0.28695 0.35869,-0.28695h3.80214v0c0.07174,0 0.14348,0 0.21522,0.07174l1.57825,1.64998c0.07174,0 0.07174,0.07174 0.14348,0.21521v3.80212c-0.07174,0.14348 -0.21522,0.28695 -0.35869,0.28695z" fill="#fefefe" fill-rule="nonzero"/><path d="M323.90975,180.96847c-0.07174,0.50217 -0.50217,0.86086 -0.57391,0.9326c-0.07174,0.07174 -0.43043,0.35869 -0.57391,0.71738h0.86086c-0.14348,-0.21521 -0.35869,-0.43043 -0.35869,-0.43043l0.21522,-0.21521c0,0 0.43043,0.43043 0.50217,1.00433c0,0.57391 -0.43043,1.00433 -0.78912,1.29129c-0.21522,0.14348 -0.28695,0.35869 -0.35869,0.43043h0.71739c-0.07174,-0.07174 -0.21522,-0.21521 -0.28695,-0.28695l0.21522,-0.21521c0,0 0.43043,0.43043 0.43043,0.78912c0.07174,0.28695 -0.21522,0.21521 -0.21522,0.07174c0,-0.07174 0,-0.07174 -0.07174,-0.14348l-0.86086,-0.07174c0,0.07174 -0.07174,0.07174 -0.07174,0.07174c0,0 0,0.28695 -0.14348,0.28695c-0.14348,0 -0.14348,-0.21521 -0.14348,-0.21521c0.14348,-0.64564 0.57391,-0.86086 0.9326,-1.21955c0.14348,-0.14348 0.21522,-0.21521 0.21522,-0.35869h-0.78912c0.07174,0.28695 0.28695,0.43043 0.28695,0.43043l-0.21522,0.21521c-0.64565,-0.64564 -0.50217,-1.21955 -0.35869,-1.57824c0.14348,-0.35869 0.50217,-0.71738 0.71739,-0.86086c0.14348,-0.07174 0.21522,-0.21521 0.28695,-0.28695l-0.64565,-0.07174c0.07174,0.21521 0.21522,0.28695 0.21522,0.28695l-0.21522,0.21521c-0.35869,-0.35869 -0.43043,-0.71738 -0.43043,-0.71738c0,0 -0.07174,-0.21521 0.07174,-0.21521c0.14348,-0.07174 0.21522,0.07174 0.21522,0.07174c0,0.07174 0,0.14348 0.07174,0.21521h0.78912c0.07174,-0.07174 0.07174,-0.14348 0.07174,-0.14348c0,0 0.07174,-0.21521 0.21522,-0.21521c0.14348,0 0.07174,0.21521 0.07174,0.21521zM322.6902,182.76192c0,0.07174 -0.07174,0.14348 -0.07174,0.21521c0,0.07174 0,0.14348 0.07174,0.21521h0.9326c0,-0.14348 0,-0.28695 0,-0.43043z" fill="#fefefe" fill-rule="nonzero"/><path d="M317.38154,179.10327h-1.07608v0c-1.29129,0 -2.36737,-1.14781 -2.36737,-2.51084c0,-1.36303 1.07608,-2.4391 2.43911,-2.4391c0,0 0,0 0.07174,0h0.9326z" fill="#ed9e34" fill-rule="nonzero"/><path d="M317.38154,179.24675h-1.07608v0v0v0c-0.07174,0 -0.07174,0 -0.07174,0c-1.36303,-0.07174 -2.43911,-1.21955 -2.43911,-2.65431c0,-1.43476 1.14782,-2.58258 2.51085,-2.58258h0.07174v0v0h0.07174v0h0.9326c0.07174,0 0.14348,0.07174 0.14348,0.14348v4.94994c0,0.07174 -0.07174,0.14348 -0.14348,0.14348zM316.30546,178.9598h0.9326v-4.66298h-0.86086v0c-1.29129,0 -2.2239,1.00433 -2.2239,2.29562c0,1.29129 0.9326,2.29562 2.15216,2.36736z" fill="#5b3523" fill-rule="nonzero"/><path d="M319.74891,176.59244c0,1.43476 -1.07608,2.51084 -2.43911,2.51084c-1.29129,0 -2.36737,-1.07607 -2.36737,-2.51084c0,-1.36303 1.07608,-2.4391 2.36737,-2.4391c1.36303,0 2.43911,1.07607 2.43911,2.4391z" fill="#fcc127" fill-rule="nonzero"/><path d="M317.3098,179.24675c-1.36303,0 -2.51085,-1.14781 -2.51085,-2.65431c0,-1.43476 1.14782,-2.58258 2.51085,-2.58258h0.07174c1.36303,0 2.51085,1.14781 2.51085,2.58258c0,1.5065 -1.14782,2.65431 -2.51085,2.65431zM317.3098,174.29681c-1.21956,0 -2.2239,1.00433 -2.2239,2.29562c0,1.29129 1.00434,2.36736 2.2239,2.36736c1.29129,0 2.29563,-1.07607 2.29563,-2.36736c0,-1.29129 -1.00434,-2.29562 -2.29563,-2.29562z" fill="#5b3523" fill-rule="nonzero"/><path d="M316.30546,175.65984c0,-0.07174 0,-0.07174 0.07174,-0.14348c0,0 0,-0.07174 0.07174,-0.07174l0.07174,-0.07174c0.07174,-0.07174 0.07174,-0.07174 0.14348,-0.14348c0,0 0.07174,0 0.14348,-0.07174c0,0 0.07174,-0.07174 0.14348,-0.07174c0,-0.07174 0.07174,-0.07174 0.14348,-0.07174c0,-0.07174 0.07174,-0.07174 0.07174,-0.07174h0.07174c0,-0.07174 0,-0.07174 0.07174,-0.07174h0.07174c0.07174,0 0.07174,0 0.14348,0c0.07174,0 0.07174,0 0.14348,0c0,0 0.07174,0 0.14348,0c0,0 0.07174,0 0.14348,0h0.07174c0.07174,0 0.07174,0 0.14348,0l0.07174,0.07174l0.07174,0.07174c0,0.07174 0,0.07174 0,0.07174c0,0.07174 0,0.07174 0,0.14348v0c0,0 0,0.07174 0,0.14348v0.07174v0v0.07174c0,0.07174 0,0.07174 -0.07174,0.07174c0.07174,0 0.07174,0 0.07174,0c0,0.07174 0,0.07174 0,0.14348v0c0,0.07174 0,0.21521 0,0.28695c0,0.14348 0,0.21521 0,0.35869v0.07174c0,0.21521 0,0.43043 0,0.64564v0.28695v0.35869c0,0.07174 0,0.21521 0,0.28695c0,0.07174 0,0.14348 0,0.21521v0c-0.07174,0.07174 -0.07174,0.14348 -0.14348,0.14348c0,0 0,0 -0.07174,0c0,0 0,0.07174 -0.07174,0.07174c0,0 0,0 -0.07174,0v0h-0.07174h-0.07174h-0.07174h-0.14348c0,0 -0.07174,0 -0.14348,0c-0.07174,0 -0.07174,0 -0.07174,0h-0.07174v0c-0.07174,0 -0.07174,0 -0.07174,0c-0.07174,0 -0.07174,-0.07174 -0.07174,-0.07174c-0.07174,0 -0.07174,0 -0.07174,0c-0.07174,0 -0.07174,-0.07174 -0.07174,-0.07174l-0.07174,-0.07174v0c0,-0.07174 0,-0.14348 0,-0.21521c0,-0.07174 0,-0.14348 0,-0.21521v-0.21521c0,-0.07174 0,-0.14348 0,-0.21521c0,-0.07174 0,-0.07174 0.07174,-0.14348v0v0c-0.07174,-0.07174 -0.07174,-0.07174 -0.07174,-0.14348v0v-0.21521v-0.28695v-0.14348c0,0 0,0.07174 -0.07174,0.07174h-0.07174c-0.07174,0 -0.14348,0 -0.14348,-0.07174v0c-0.07174,0 -0.07174,-0.07174 -0.14348,-0.07174c0,-0.07174 0,-0.07174 -0.07174,-0.14348c0,0 0,-0.07174 -0.07174,-0.07174c0,-0.07174 0,-0.14348 0,-0.14348c-0.07174,-0.07174 -0.07174,-0.07174 -0.07174,-0.14348v-0.07174c0,-0.07174 0,-0.07174 0,-0.14348zM316.66416,175.73158v0v0.07174v0c0,0 0,0.07174 0.07174,0.07174v0.07174c0,0.07174 0.07174,0.07174 0.07174,0.14348v0v0c0.07174,0 0.07174,0 0.07174,0l0.07174,-0.07174v0l0.07174,-0.07174l0.28695,-0.21521v0.35869v0.28695v0.21521v0.28695v0.14348h0.07174v0v0v0c0.07174,0 0.07174,0.07174 0.07174,0.07174c0.07174,0 0.07174,0.07174 0.07174,0.14348c0,0 0,0.07174 -0.07174,0.14348c0,0 0,0 -0.07174,0.07174v0h-0.07174v0.14348v0.21521c0,0.07174 0,0.14348 0,0.21521v0.07174h0.07174c0.07174,0 0.07174,0 0.07174,0c0.07174,0 0.14348,0 0.14348,0h0.14348c0,0 0,0 0.07174,0c0,0 0,0 0.07174,0h0.07174v-0.14348c0,-0.07174 0,-0.14348 0,-0.21521v-0.35869v-0.28695c0,-0.21521 0,-0.43043 0,-0.64564v-0.07174c0,-0.14348 0,-0.21521 0,-0.35869c0,-0.07174 0,-0.14348 0,-0.21521c0,-0.07174 -0.07174,-0.07174 -0.07174,-0.07174c0,-0.07174 0,-0.07174 0,-0.14348c0,-0.07174 0,-0.07174 0,-0.14348c0,0 0.07174,0 0.07174,-0.07174v-0.14348h-0.07174h-0.07174c-0.07174,0 -0.07174,0 -0.14348,0c-0.07174,0 -0.14348,0 -0.14348,0h-0.07174c-0.07174,0 -0.07174,0 -0.07174,0h-0.07174c0,0.07174 0,0.07174 -0.07174,0.07174l-0.07174,0.07174c-0.07174,0.07174 -0.14348,0.07174 -0.14348,0.07174c-0.07174,0.07174 -0.07174,0.07174 -0.14348,0.14348c-0.07174,0 -0.07174,0 -0.07174,0.07174c-0.07174,0 -0.07174,0 -0.14348,0.07174zM317.95545,175.80332v0z" fill="#5b3523" fill-rule="nonzero"/><path d="M316.44894,175.73158c0,-0.07174 0.07174,-0.07174 0.14348,-0.14348c0,-0.07174 0.07174,-0.14348 0.14348,-0.21521c0.14348,0 0.21522,-0.07174 0.28695,-0.14348c0.07174,-0.07174 0.21522,-0.14348 0.28695,-0.14348c0,0 0,0 0.07174,0c0.07174,0 0.21522,0 0.28695,0c0.07174,0 0.14348,0 0.28695,0c0.07174,0 0.14348,0 0.14348,0c0,0 0,0.07174 0,0.14348c0,0.07174 0,0.14348 0,0.21521c0,0 0,0 0,0.07174v0.07174v0.07174l0.07174,0.07174c0,0.21521 0,0.43043 0,0.64564c0,0.21521 0,0.50217 0,0.71738c-0.07174,0.21521 -0.07174,0.43043 -0.07174,0.64564c0,0.21521 0,0.35869 0,0.43043c0,0.07174 0,0.07174 -0.07174,0.07174c0,0 0,0 -0.07174,0c-0.07174,0 -0.07174,0 -0.14348,0c-0.07174,0 -0.14348,0 -0.21522,0c0,0 -0.07174,0 -0.14348,0c-0.07174,0 -0.07174,0 -0.14348,0c-0.07174,0 -0.07174,0 -0.14348,0c0,0 0,0 0,-0.07174c0,-0.07174 0,-0.21521 0,-0.35869c0,-0.14348 0,-0.28695 0,-0.43043v-0.07174h0.07174l0.07174,-0.07174v0c0,0 0,0 0,-0.07174h-0.07174c0,0 -0.07174,0 -0.07174,-0.07174v0c0,-0.14348 0,-0.35869 0,-0.50217c0,-0.14348 0,-0.35869 0,-0.50217l-0.07174,0.07174c-0.07174,0 -0.07174,0.07174 -0.07174,0.07174c-0.07174,0 -0.07174,0.07174 -0.14348,0.07174h-0.07174c-0.07174,0 -0.07174,0 -0.14348,-0.07174c0,-0.07174 -0.07174,-0.14348 -0.07174,-0.21521c-0.07174,-0.07174 -0.07174,-0.14348 -0.07174,-0.14348c-0.07174,-0.07174 -0.07174,-0.14348 -0.07174,-0.14348z" fill="#fcc127" fill-rule="nonzero"/><path d="M316.44894,175.73158c0,-0.07174 0.07174,-0.07174 0.14348,-0.14348c0,-0.07174 0.07174,-0.14348 0.14348,-0.21521c0.14348,0 0.21522,-0.07174 0.28695,-0.14348c0.07174,-0.07174 0.21522,-0.14348 0.28695,-0.14348c0,0 0,0 0.07174,0c0.07174,0 0.21522,0 0.28695,0c0.07174,0 0.14348,0 0.28695,0c0.07174,0 0.14348,0 0.14348,0c0,0 0,0.07174 0,0.14348c0,0.07174 0,0.14348 0,0.21521c0,0 0,0 0,0.07174v0.07174v0.07174l0.07174,0.07174c0,0.21521 0,0.43043 0,0.64564c0,0.21521 0,0.50217 0,0.71738c-0.07174,0.21521 -0.07174,0.43043 -0.07174,0.64564c0,0.21521 0,0.35869 0,0.43043c0,0.07174 0,0.07174 -0.07174,0.07174c0,0 0,0 -0.07174,0c-0.07174,0 -0.07174,0 -0.14348,0c-0.07174,0 -0.14348,0 -0.21522,0c0,0 -0.07174,0 -0.14348,0c-0.07174,0 -0.07174,0 -0.14348,0c-0.07174,0 -0.07174,0 -0.14348,0c0,0 0,0 0,-0.07174c0,-0.07174 0,-0.21521 0,-0.35869c0,-0.14348 0,-0.28695 0,-0.43043v-0.07174h0.07174l0.07174,-0.07174v0c0,0 0,0 0,-0.07174h-0.07174c0,0 -0.07174,0 -0.07174,-0.07174v0c0,-0.14348 0,-0.35869 0,-0.50217c0,-0.14348 0,-0.35869 0,-0.50217l-0.07174,0.07174c-0.07174,0 -0.07174,0.07174 -0.07174,0.07174c-0.07174,0 -0.07174,0.07174 -0.14348,0.07174h-0.07174c-0.07174,0 -0.07174,0 -0.14348,-0.07174c0,-0.07174 -0.07174,-0.14348 -0.07174,-0.21521c-0.07174,-0.07174 -0.07174,-0.14348 -0.07174,-0.14348c-0.07174,-0.07174 -0.07174,-0.14348 -0.07174,-0.14348z" fill="#ed9e34" fill-rule="nonzero"/></g></g></g></svg>