<svg version="1.1" xmlns="http://www.w3.org/2000/svg" xmlns:xlink="http://www.w3.org/1999/xlink" width="19.1541" height="19.1541" viewBox="0,0,19.1541,19.1541"><g transform="translate(-310.42295,-170.42295)"><g data-paper-data="{&quot;isPaintingLayer&quot;:true}" stroke="none" stroke-width="1" stroke-linecap="butt" stroke-linejoin="miter" stroke-miterlimit="10" stroke-dasharray="" stroke-dashoffset="0" style="mix-blend-mode: normal"><g><path d="M314.25377,187.82582c-1.08808,0 -1.97014,-0.88206 -1.97014,-1.97014v-11.60191c0,-1.08808 0.88206,-1.97014 1.97014,-1.97014h11.60191c1.08808,0 1.97014,0.88206 1.97014,1.97014v11.60191c0,1.08808 -0.88206,1.97014 -1.97014,1.97014z" fill="#fefefe" fill-rule="evenodd"/><path d="M314.14432,170.42295h11.71136c0.98507,0 1.97014,0.43781 2.62685,1.09452v0c0.65671,0.76616 1.09452,1.64178 1.09452,2.62685v11.71136c0,0.98507 -0.43781,1.97014 -1.09452,2.62685v0c-0.65671,0.65671 -1.64178,1.09452 -2.62685,1.09452h-11.71136c-0.98507,0 -1.86068,-0.43781 -2.62685,-1.09452v0c-0.65671,-0.65671 -1.09452,-1.64178 -1.09452,-2.62685v-11.71136c0,-0.98507 0.43781,-1.86068 1.09452,-2.62685v0c0.76616,-0.65671 1.64178,-1.09452 2.62685,-1.09452zM314.14432,172.28363h11.71136c1.09452,0 1.97014,0.87562 1.97014,1.86068v11.71136c0,1.09452 -0.87562,1.97014 -1.97014,1.97014h-11.71136c-0.98507,0 -1.86068,-0.87562 -1.86068,-1.97014v-11.71136c0,-0.98507 0.87562,-1.86068 1.86068,-1.86068z" fill="#ef7f1a" fill-rule="evenodd"/><path d="M314.14432,170.42295h11.71136c0.43781,0 0.98507,0.10945 1.42288,0.32836c0.43781,0.10945 0.87562,0.43781 1.20397,0.76616v0c0.32836,0.32836 0.65671,0.76616 0.87562,1.20397c0.10945,0.43781 0.2189,0.98507 0.2189,1.42288v11.71136c0,0.43781 -0.10945,0.98507 -0.2189,1.42288c-0.2189,0.43781 -0.54726,0.87562 -0.87562,1.20397v0c-0.32836,0.32836 -0.76616,0.65671 -1.20397,0.87562c-0.43781,0.10945 -0.98507,0.2189 -1.42288,0.2189h-11.71136c-0.43781,0 -0.98507,-0.10945 -1.42288,-0.2189c-0.43781,-0.2189 -0.87562,-0.54726 -1.20397,-0.87562v0c-0.32836,-0.32836 -0.65671,-0.76616 -0.76616,-1.20397c-0.2189,-0.43781 -0.32836,-0.98507 -0.32836,-1.42288v-11.71136c0,-0.43781 0.10945,-0.98507 0.32836,-1.42288c0.10945,-0.43781 0.43781,-0.87562 0.76616,-1.20397v0c0.32836,-0.32836 0.76616,-0.65671 1.20397,-0.76616c0.43781,-0.2189 0.98507,-0.32836 1.42288,-0.32836zM325.85568,170.5324h-11.71136c-0.43781,0 -0.87562,0.10945 -1.31342,0.2189c-0.43781,0.2189 -0.87562,0.54726 -1.20397,0.87562v0c-0.32836,0.32836 -0.65671,0.76616 -0.87562,1.20397c-0.10945,0.43781 -0.2189,0.87562 -0.2189,1.31342v11.71136c0,0.43781 0.10945,0.98507 0.2189,1.42288c0.2189,0.43781 0.54726,0.76616 0.87562,1.09452v0c0.32836,0.43781 0.76616,0.65671 1.20397,0.87562c0.43781,0.10945 0.87562,0.2189 1.31342,0.2189h11.71136c0.43781,0 0.98507,-0.10945 1.42288,-0.2189c0.43781,-0.2189 0.76616,-0.43781 1.09452,-0.87562v0c0.43781,-0.32836 0.65671,-0.65671 0.87562,-1.09452c0.10945,-0.43781 0.2189,-0.98507 0.2189,-1.42288v-11.71136c0,-0.43781 -0.10945,-0.87562 -0.2189,-1.31342c-0.2189,-0.43781 -0.43781,-0.87562 -0.87562,-1.20397v0c-0.32836,-0.32836 -0.65671,-0.65671 -1.09452,-0.87562c-0.43781,-0.10945 -0.98507,-0.2189 -1.42288,-0.2189zM314.14432,172.17418h11.71136c0.54726,0 0.98507,0.2189 1.42288,0.65671c0.32836,0.32836 0.54726,0.76616 0.54726,1.31342v11.71136c0,0.54726 -0.2189,0.98507 -0.54726,1.42288c-0.43781,0.32836 -0.87562,0.54726 -1.42288,0.54726h-11.71136c-0.54726,0 -0.98507,-0.2189 -1.31342,-0.54726c-0.43781,-0.43781 -0.65671,-0.87562 -0.65671,-1.42288v-11.71136c0,-0.54726 0.2189,-0.98507 0.65671,-1.31342c0.32836,-0.43781 0.76616,-0.65671 1.31342,-0.65671zM325.85568,172.28363h-11.71136c-0.43781,0 -0.98507,0.2189 -1.31342,0.54726c-0.32836,0.32836 -0.54726,0.87562 -0.54726,1.31342v11.71136c0,0.54726 0.2189,0.98507 0.54726,1.31342c0.32836,0.32836 0.87562,0.54726 1.31342,0.54726h11.71136c0.54726,0 0.98507,-0.2189 1.31342,-0.54726c0.32836,-0.32836 0.54726,-0.76616 0.54726,-1.31342v-11.71136c0,-0.43781 -0.2189,-0.98507 -0.54726,-1.31342c-0.32836,-0.32836 -0.76616,-0.54726 -1.31342,-0.54726z" fill="#fefefe" fill-rule="nonzero"/><path d="M322.13431,177.31843c-0.65671,0 -1.20397,-0.54726 -1.20397,-1.20397c0,-0.65671 0.54726,-1.20397 1.20397,-1.20397c0.65671,0 1.09452,0.54726 1.09452,1.20397c0,0.65671 -0.43781,1.20397 -1.09452,1.20397z" fill="#e63331" fill-rule="nonzero"/><path d="M322.13431,177.42788c-0.76616,0 -1.42288,-0.54726 -1.42288,-1.31342c0,-0.76616 0.65671,-1.31342 1.42288,-1.31342c0.65671,0 1.20397,0.54726 1.31342,1.31342v0c-0.10945,0.76616 -0.65671,1.31342 -1.31342,1.31342zM322.13431,175.01993c-0.65671,0 -1.09452,0.54726 -1.09452,1.09452c0,0.54726 0.43781,1.09452 1.09452,1.09452c0.54726,0 0.98507,-0.54726 0.98507,-1.09452c0,-0.54726 -0.43781,-1.09452 -0.98507,-1.09452z" fill="#5a3547" fill-rule="nonzero"/><path d="M324.76116,177.09952c-0.65671,0 -1.20397,-0.54726 -1.20397,-1.20397c0,-0.65671 0.54726,-1.20397 1.20397,-1.20397c0.65671,0 1.20397,0.54726 1.20397,1.20397c0,0.65671 -0.54726,1.20397 -1.20397,1.20397z" fill="#e63331" fill-rule="nonzero"/><path d="M324.76116,177.20897c-0.76616,0 -1.31342,-0.54726 -1.31342,-1.31342c0,-0.76616 0.54726,-1.31342 1.31342,-1.31342c0.65671,0 1.31342,0.54726 1.31342,1.31342v0c0,0.76616 -0.65671,1.31342 -1.31342,1.31342zM324.76116,174.80103c-0.54726,0 -1.09452,0.54726 -1.09452,1.09452c0,0.54726 0.54726,1.09452 1.09452,1.09452c0.54726,0 0.98507,-0.54726 0.98507,-1.09452c0,-0.54726 -0.43781,-1.09452 -0.98507,-1.09452z" fill="#5a3547" fill-rule="nonzero"/><path d="M323.66664,179.39801c-0.65671,0 -1.20397,-0.54726 -1.20397,-1.20397c0,-0.65671 0.54726,-1.20397 1.20397,-1.20397c0.65671,0 1.20397,0.54726 1.20397,1.20397c0,0.65671 -0.54726,1.20397 -1.20397,1.20397z" fill="#e63331" fill-rule="nonzero"/><path d="M323.66664,179.50747c-0.65671,0 -1.31342,-0.65671 -1.31342,-1.31342c0,-0.76616 0.65671,-1.31342 1.31342,-1.31342c0.76616,0 1.31342,0.54726 1.31342,1.20397v0.10945c0,0.76616 -0.54726,1.31342 -1.31342,1.31342zM323.66664,177.09952c-0.54726,0 -0.98507,0.43781 -0.98507,1.09452c0,0.54726 0.43781,0.98507 0.98507,0.98507c0.54726,0 1.09452,-0.43781 1.09452,-0.98507c0,-0.65671 -0.54726,-1.09452 -1.09452,-1.09452z" fill="#5a3547" fill-rule="nonzero"/><path d="M318.41295,185.19897c-0.76616,0 -1.31342,-0.43781 -1.75123,-1.31342c-0.2189,0.10945 -0.54726,0.2189 -0.65671,0.32836c-0.10945,0.10945 -0.10945,0.10945 -0.2189,0.10945c0,0 -0.10945,0 -0.10945,-0.10945c-0.98507,-0.76616 -1.53233,-1.97014 -1.53233,-3.17411c0,-1.20397 0.54726,-2.40794 1.53233,-3.17411c0,-0.10945 0.10945,-0.10945 0.10945,-0.10945c0.10945,0 0.10945,0 0.2189,0.10945c0.10945,0.10945 0.43781,0.2189 0.65671,0.32836c0.43781,-0.87562 0.98507,-1.31342 1.75123,-1.31342c0.65671,0 1.20397,0.43781 1.64178,1.31342c0.2189,-0.10945 0.54726,-0.2189 0.65671,-0.32836c0.10945,-0.10945 0.10945,-0.10945 0.2189,-0.10945c0,0 0.10945,0 0.10945,0.10945c0.98507,0.76616 1.53233,1.97014 1.53233,3.17411c0,1.20397 -0.54726,2.40794 -1.53233,3.17411c0,0.10945 -0.10945,0.10945 -0.10945,0.10945c-0.10945,0 -0.10945,0 -0.2189,-0.10945c-0.10945,-0.10945 -0.43781,-0.2189 -0.65671,-0.32836c-0.43781,0.87562 -0.98507,1.31342 -1.64178,1.31342z" fill="#4e4e50" fill-rule="nonzero"/><path d="M316.77117,178.5224v0c-0.10945,0 -0.65671,-0.32836 -0.98507,-0.54726c-0.87562,0.76616 -1.42288,1.86068 -1.42288,3.06466c0,1.20397 0.54726,2.29849 1.42288,3.06466c0.32836,-0.2189 0.87562,-0.54726 0.98507,-0.54726v0c0.32836,0.87562 0.98507,1.42288 1.64178,1.42288c0.65671,0 1.20397,-0.54726 1.53233,-1.42288v0c0.10945,0 0.65671,0.32836 0.98507,0.54726c0.87562,-0.76616 1.42288,-1.86068 1.42288,-3.06466c0,-1.20397 -0.54726,-2.29849 -1.42288,-3.06466c-0.32836,0.2189 -0.87562,0.54726 -0.98507,0.54726v0c-0.32836,-0.87562 -0.87562,-1.42288 -1.53233,-1.42288c-0.65671,0 -1.31342,0.54726 -1.64178,1.42288zM320.16418,177.86569c0.2189,0 0.32836,-0.10945 0.43781,-0.2189c0.10945,-0.10945 0.2189,-0.10945 0.32836,-0.10945c0.10945,0 0.2189,0 0.2189,0.10945c1.09452,0.87562 1.64178,2.07959 1.64178,3.39301c0,1.31342 -0.54726,2.5174 -1.64178,3.39301c0,0.10945 -0.10945,0.10945 -0.2189,0.10945c-0.10945,0 -0.2189,0 -0.32836,-0.10945c-0.10945,-0.10945 -0.2189,-0.2189 -0.43781,-0.2189c-0.43781,0.76616 -1.09452,1.20397 -1.75123,1.20397c-0.76616,0 -1.42288,-0.43781 -1.86068,-1.20397c-0.10945,0 -0.32836,0.10945 -0.43781,0.2189c-0.10945,0.10945 -0.2189,0.10945 -0.32836,0.10945c-0.10945,0 -0.10945,0 -0.2189,-0.10945c-0.98507,-0.87562 -1.64178,-2.07959 -1.64178,-3.39301c0,-1.31342 0.65671,-2.5174 1.64178,-3.39301c0.10945,-0.10945 0.10945,-0.10945 0.2189,-0.10945c0.10945,0 0.2189,0 0.32836,0.10945c0.10945,0.10945 0.32836,0.2189 0.43781,0.2189c0.43781,-0.76616 1.09452,-1.20397 1.86068,-1.20397c0.65671,0 1.31342,0.43781 1.75123,1.20397z" fill="#4e4e50" fill-rule="nonzero"/><path d="M318.41295,185.19897c-0.76616,0 -1.31342,-0.43781 -1.75123,-1.31342c-0.2189,0.10945 -0.54726,0.2189 -0.65671,0.32836c-0.10945,0.10945 -0.10945,0.10945 -0.2189,0.10945c0,0 -0.10945,0 -0.10945,-0.10945c-0.98507,-0.76616 -1.53233,-1.97014 -1.53233,-3.17411c0,-1.20397 0.54726,-2.40794 1.53233,-3.17411c0,-0.10945 0.10945,-0.10945 0.10945,-0.10945c0.10945,0 0.10945,0 0.2189,0.10945c0.10945,0.10945 0.43781,0.2189 0.65671,0.32836c0.43781,-0.87562 0.98507,-1.31342 1.75123,-1.31342c0.65671,0 1.20397,0.43781 1.64178,1.31342c0.2189,-0.10945 0.54726,-0.2189 0.65671,-0.32836c0.10945,-0.10945 0.10945,-0.10945 0.2189,-0.10945c0,0 0.10945,0 0.10945,0.10945c0.98507,0.76616 1.53233,1.97014 1.53233,3.17411c0,1.20397 -0.54726,2.40794 -1.53233,3.17411c0,0.10945 -0.10945,0.10945 -0.10945,0.10945c-0.10945,0 -0.10945,0 -0.2189,-0.10945c-0.10945,-0.10945 -0.43781,-0.2189 -0.65671,-0.32836c-0.43781,0.87562 -0.98507,1.31342 -1.64178,1.31342z" fill="#fecf1e" fill-rule="nonzero"/><path d="M316.77117,178.5224v0c-0.10945,0 -0.65671,-0.32836 -0.98507,-0.54726c-0.87562,0.76616 -1.42288,1.86068 -1.42288,3.06466c0,1.20397 0.54726,2.29849 1.42288,3.06466c0.32836,-0.2189 0.87562,-0.54726 0.98507,-0.54726v0c0.32836,0.87562 0.98507,1.42288 1.64178,1.42288c0.65671,0 1.20397,-0.54726 1.53233,-1.42288v0c0.10945,0 0.65671,0.32836 0.98507,0.54726c0.87562,-0.76616 1.42288,-1.86068 1.42288,-3.06466c0,-1.20397 -0.54726,-2.29849 -1.42288,-3.06466c-0.32836,0.2189 -0.87562,0.54726 -0.98507,0.54726v0c-0.32836,-0.87562 -0.87562,-1.42288 -1.53233,-1.42288c-0.65671,0 -1.31342,0.54726 -1.64178,1.42288zM320.16418,177.86569c0.2189,0 0.32836,-0.10945 0.43781,-0.2189c0.10945,-0.10945 0.2189,-0.10945 0.32836,-0.10945c0.10945,0 0.2189,0 0.2189,0.10945c1.09452,0.87562 1.64178,2.07959 1.64178,3.39301c0,1.31342 -0.54726,2.5174 -1.64178,3.39301c0,0.10945 -0.10945,0.10945 -0.2189,0.10945c-0.10945,0 -0.2189,0 -0.32836,-0.10945c-0.10945,-0.10945 -0.2189,-0.2189 -0.43781,-0.2189c-0.43781,0.76616 -1.09452,1.20397 -1.75123,1.20397c-0.76616,0 -1.42288,-0.43781 -1.86068,-1.20397c-0.10945,0 -0.32836,0.10945 -0.43781,0.2189c-0.10945,0.10945 -0.2189,0.10945 -0.32836,0.10945c-0.10945,0 -0.10945,0 -0.2189,-0.10945c-0.98507,-0.87562 -1.64178,-2.07959 -1.64178,-3.39301c0,-1.31342 0.65671,-2.5174 1.64178,-3.39301c0.10945,-0.10945 0.10945,-0.10945 0.2189,-0.10945c0.10945,0 0.2189,0 0.32836,0.10945c0.10945,0.10945 0.32836,0.2189 0.43781,0.2189c0.43781,-0.76616 1.09452,-1.20397 1.86068,-1.20397c0.65671,0 1.31342,0.43781 1.75123,1.20397z" fill="#4e4e50" fill-rule="nonzero"/><path d="M317.20897,183.88555c0.2189,-0.54726 0.76616,-1.20397 0.98507,-1.31342c0.10945,-0.10945 0.54726,-0.43781 0.76616,-0.98507h-1.20397c0.10945,0.32836 0.43781,0.65671 0.43781,0.65671l-0.32836,0.2189c0,0 -0.65671,-0.54726 -0.65671,-1.42288c0,-0.87562 0.54726,-1.42288 1.09452,-1.86068c0.2189,-0.2189 0.43781,-0.43781 0.54726,-0.65671h-1.09452c0.10945,0.10945 0.32836,0.32836 0.43781,0.43781l-0.32836,0.32836c0,0 -0.65671,-0.65671 -0.65671,-1.09452c0,-0.54726 0.43781,-0.32836 0.32836,-0.10945c0,0 0.10945,0.10945 0.10945,0.2189h1.31342v0c0,0 0.10945,-0.54726 0.32836,-0.54726c0.2189,0.10945 0.10945,0.43781 0.10945,0.43781c-0.10945,0.87562 -0.76616,1.20397 -1.31342,1.75123c-0.10945,0.10945 -0.2189,0.32836 -0.32836,0.43781l1.20397,0.10945c-0.10945,-0.43781 -0.43781,-0.65671 -0.43781,-0.65671l0.32836,-0.32836c0.87562,0.87562 0.76616,1.75123 0.54726,2.29849c-0.32836,0.54726 -0.76616,0.98507 -1.09452,1.20397c-0.10945,0.10945 -0.32836,0.32836 -0.43781,0.43781l0.98507,0.10945c-0.10945,-0.32836 -0.32836,-0.43781 -0.32836,-0.43781l0.32836,-0.32836c0.54726,0.54726 0.65671,1.09452 0.65671,1.09452c0,0 0.10945,0.2189 -0.10945,0.32836c-0.2189,0.10945 -0.32836,-0.10945 -0.32836,-0.10945c0,-0.10945 0,-0.2189 -0.10945,-0.32836h-1.20397c0,0.10945 -0.10945,0.10945 -0.10945,0.10945c0,0 0,0.43781 -0.32836,0.43781c-0.10945,-0.10945 -0.10945,-0.43781 -0.10945,-0.43781zM319.06966,181.36815c0,-0.10945 0,-0.2189 0,-0.32836c0,-0.10945 0,-0.2189 0,-0.32836h-1.42288c0,0.2189 0,0.43781 0,0.65671z" fill="#4e4e50" fill-rule="nonzero"/></g></g></g></svg>