<svg version="1.1" xmlns="http://www.w3.org/2000/svg" xmlns:xlink="http://www.w3.org/1999/xlink" width="19.1541" height="19.1541" viewBox="0,0,19.1541,19.1541"><g transform="translate(-310.42295,-170.42295)"><g data-paper-data="{&quot;isPaintingLayer&quot;:true}" stroke="none" stroke-width="1" stroke-linecap="butt" stroke-linejoin="miter" stroke-miterlimit="10" stroke-dasharray="" stroke-dashoffset="0" style="mix-blend-mode: normal"><g><path d="M314.15207,187.71249c-1.07657,0 -1.94931,-0.87274 -1.94931,-1.94931v-11.61111c0,-1.07657 0.87274,-1.94931 1.94931,-1.94931h11.61111c1.07657,0 1.94931,0.87274 1.94931,1.94931v11.61111c0,1.07657 -0.87274,1.94931 -1.94931,1.94931z" fill="#fefefe" fill-rule="evenodd"/><path d="M314.15207,170.5077h11.69587c1.01703,0 1.94931,0.42376 2.62733,1.01703v0.08475c0.67802,0.59327 1.10178,1.52555 1.10178,2.54258v11.69587c0,1.01703 -0.42376,1.94931 -1.10178,2.62733v0c-0.67802,0.67802 -1.6103,1.10178 -2.62733,1.10178h-11.69587c-1.01703,0 -1.94931,-0.42376 -2.54258,-1.10178h-0.08475c-0.59327,-0.67802 -1.01703,-1.6103 -1.01703,-2.62733v-11.69587c0,-1.01703 0.42376,-1.94931 1.01703,-2.54258l0.08475,-0.08475c0.59327,-0.59327 1.52555,-1.01703 2.54258,-1.01703zM314.15207,172.20276h11.69587c1.01703,0 1.94931,0.93228 1.94931,1.94931v11.69587c0,1.01703 -0.93228,1.94931 -1.94931,1.94931h-11.69587c-1.01703,0 -1.94931,-0.93228 -1.94931,-1.94931v-11.69587c0,-1.01703 0.93228,-1.94931 1.94931,-1.94931z" fill="#ef7f1a" fill-rule="evenodd"/><path d="M314.15207,170.42295h11.69587c0.50852,0 0.93228,0.08475 1.4408,0.25426c0.42376,0.25426 0.84753,0.50852 1.18654,0.84753v0c0.33901,0.33901 0.59327,0.76277 0.84753,1.27129c0.16951,0.42376 0.25426,0.84753 0.25426,1.35604v11.69587c0,0.50852 -0.08475,0.93228 -0.25426,1.4408c-0.25426,0.42376 -0.50852,0.84753 -0.84753,1.18654v0c-0.33901,0.33901 -0.76277,0.59327 -1.18654,0.84753c-0.50852,0.16951 -0.93228,0.25426 -1.4408,0.25426h-11.69587c-0.50852,0 -0.93228,-0.08475 -1.35604,-0.25426c-0.50852,-0.25426 -0.93228,-0.50852 -1.27129,-0.84753v0c-0.33901,-0.33901 -0.59327,-0.76277 -0.84753,-1.18654c-0.16951,-0.50852 -0.25426,-0.93228 -0.25426,-1.4408v-11.69587c0,-0.50852 0.08475,-0.93228 0.25426,-1.35604c0.25426,-0.50852 0.50852,-0.93228 0.84753,-1.27129v0c0.33901,-0.33901 0.76277,-0.59327 1.27129,-0.84753c0.42376,-0.16951 0.84753,-0.25426 1.35604,-0.25426zM325.84793,170.5077h-11.69587c-0.42376,0 -0.93228,0.08475 -1.35604,0.25426c-0.42376,0.25426 -0.84753,0.50852 -1.18654,0.84753v0c-0.33901,0.33901 -0.59327,0.76277 -0.84753,1.18654c-0.16951,0.42376 -0.25426,0.93228 -0.25426,1.35604v11.69587c0,0.42376 0.08475,0.93228 0.25426,1.35604c0.25426,0.42376 0.50852,0.84753 0.84753,1.18654v0c0.33901,0.33901 0.76277,0.59327 1.18654,0.84753c0.42376,0.16951 0.93228,0.25426 1.35604,0.25426h11.69587c0.42376,0 0.93228,-0.08475 1.35604,-0.25426c0.42376,-0.25426 0.84753,-0.50852 1.18654,-0.84753v0c0.33901,-0.33901 0.59327,-0.76277 0.84753,-1.18654c0.16951,-0.42376 0.25426,-0.93228 0.25426,-1.35604v-11.69587c0,-0.42376 -0.08475,-0.93228 -0.25426,-1.35604c-0.25426,-0.42376 -0.50852,-0.84753 -0.84753,-1.18654v0c-0.33901,-0.33901 -0.76277,-0.59327 -1.18654,-0.84753c-0.42376,-0.16951 -0.93228,-0.25426 -1.35604,-0.25426zM314.15207,172.20276h11.69587c0.50852,0 1.01703,0.16951 1.35604,0.59327c0.42376,0.33901 0.59327,0.84753 0.59327,1.35604v11.69587c0,0.50852 -0.16951,1.01703 -0.59327,1.35604c-0.33901,0.42376 -0.84753,0.59327 -1.35604,0.59327h-11.69587c-0.50852,0 -1.01703,-0.16951 -1.35604,-0.59327c-0.42376,-0.33901 -0.59327,-0.84753 -0.59327,-1.35604v-11.69587c0,-0.50852 0.16951,-1.01703 0.59327,-1.35604c0.33901,-0.42376 0.84753,-0.59327 1.35604,-0.59327zM325.84793,172.28751h-11.69587c-0.50852,0 -0.93228,0.25426 -1.27129,0.59327c-0.33901,0.33901 -0.59327,0.76277 -0.59327,1.27129v11.69587c0,0.50852 0.25426,0.93228 0.59327,1.27129c0.33901,0.42376 0.76277,0.59327 1.27129,0.59327h11.69587c0.50852,0 0.93228,-0.16951 1.27129,-0.59327c0.42376,-0.33901 0.59327,-0.76277 0.59327,-1.27129v-11.69587c0,-0.50852 -0.16951,-0.93228 -0.59327,-1.27129c-0.33901,-0.33901 -0.76277,-0.59327 -1.27129,-0.59327z" fill="#fefefe" fill-rule="nonzero"/><path d="M317.88118,182.37307c-0.08475,0.08475 -0.25426,0.08475 -0.33901,0c-0.08475,-0.08475 -0.08475,-0.25426 0,-0.33901l4.40714,-4.6614c0.08475,-0.08475 0.25426,-0.08475 0.33901,0c0.08475,0.08475 0.08475,0.25426 0,0.33901z" fill="#2b2a29" fill-rule="nonzero"/><path d="M322.11882,185.93269c-0.08475,0 -0.08475,0 -0.08475,0l-1.6103,-1.6103l-0.08475,-0.08475v-3.89862c0,-0.08475 0.08475,-0.16951 0.16951,-0.16951h3.81387c0.08475,0 0.08475,0.08475 0.16951,0.08475l1.6103,1.6103v0.08475v3.81387c0,0.08475 -0.08475,0.16951 -0.16951,0.16951z" fill="#4bb8a5" fill-rule="nonzero"/><path d="M320.50852,180.33901v3.89862l1.6103,1.52555h3.81387v-3.81387l-1.6103,-1.6103zM325.93269,186.10219h-3.81387v0c-0.08475,0 -0.16951,0 -0.25426,-0.08475l-1.52555,-1.6103c-0.08475,0 -0.08475,-0.08475 -0.08475,-0.16951v-3.89862c0,-0.16951 0.08475,-0.25426 0.25426,-0.25426h3.81387v0c0.08475,0 0.16951,0 0.25426,0.08475l1.6103,1.6103c0.08475,0 0.08475,0.08475 0.08475,0.16951v3.81387c0,0.16951 -0.16951,0.33901 -0.33901,0.33901z" fill="#fefefe" fill-rule="nonzero"/><path d="M323.98337,181.10178c-0.08475,0.42376 -0.50852,0.84753 -0.59327,0.93228c-0.08475,0 -0.42376,0.33901 -0.50852,0.67802h0.76277c-0.08475,-0.25426 -0.25426,-0.42376 -0.25426,-0.42376l0.16951,-0.25426c0,0 0.42376,0.42376 0.50852,1.01703c0,0.59327 -0.42376,1.01703 -0.76277,1.27129c-0.16951,0.16951 -0.33901,0.33901 -0.42376,0.50852h0.76277c-0.08475,-0.16951 -0.16951,-0.25426 -0.25426,-0.33901l0.16951,-0.16951c0,0 0.42376,0.42376 0.50852,0.76277c0,0.25426 -0.33901,0.16951 -0.25426,0.08475c0,-0.08475 0,-0.08475 -0.08475,-0.16951h-0.93228v0c0,0 0,0.33901 -0.16951,0.33901c-0.16951,-0.08475 -0.08475,-0.25426 -0.08475,-0.25426c0.08475,-0.67802 0.50852,-0.84753 0.93228,-1.27129c0.08475,-0.08475 0.16951,-0.16951 0.16951,-0.33901h-0.84753c0.16951,0.25426 0.33901,0.42376 0.33901,0.42376l-0.16951,0.25426c-0.67802,-0.59327 -0.50852,-1.18654 -0.42376,-1.6103c0.16951,-0.33901 0.50852,-0.67802 0.76277,-0.84753c0.08475,-0.08475 0.16951,-0.16951 0.25426,-0.33901h-0.59327c0.08475,0.16951 0.16951,0.33901 0.16951,0.33901l-0.16951,0.16951c-0.42376,-0.42376 -0.50852,-0.76277 -0.50852,-0.76277c0,0 -0.08475,-0.16951 0.08475,-0.25426c0.16951,0 0.25426,0.16951 0.25426,0.16951c0,0 0,0.08475 0,0.16951h0.84753c0.08475,-0.08475 0.08475,-0.08475 0.08475,-0.08475c0,0 0,-0.25426 0.25426,-0.25426c0.08475,0 0,0.25426 0,0.25426zM322.79684,182.88159c-0.08475,0 -0.08475,0.08475 -0.08475,0.16951c0,0.08475 0,0.16951 0.08475,0.25426h0.93228c0,-0.16951 0,-0.33901 0,-0.42376z" fill="#fefefe" fill-rule="nonzero"/><path d="M319.06772,173.89781l1.69505,3.0511l-1.69505,3.0511h-3.55961l-1.77981,-3.0511v0l1.77981,-3.0511z" fill="#fefefe" fill-rule="nonzero"/><path d="M319.32198,178.81346h-0.08475c-0.25426,-0.25426 -0.59327,-0.84753 -1.01703,-2.03406c-0.25426,-0.67802 -0.50852,-1.01703 -0.76277,-1.01703v0c-0.33901,0 -0.67802,0.42376 -0.84753,0.84753c-0.33901,0.76277 -1.94931,1.18654 -2.11882,1.27129c-0.08475,0 -0.16951,0 -0.16951,-0.08475c0,-0.08475 0,-0.16951 0.08475,-0.16951c0.42376,-0.16951 1.69505,-0.59327 1.94931,-1.10178c0.08475,-0.25426 0.50852,-1.10178 1.10178,-1.10178c0.42376,0 0.76277,0.42376 1.01703,1.18654c0.42376,1.18654 0.76277,1.77981 0.93228,1.94931c0.08475,0.08475 0.08475,0.16951 0.08475,0.25426c-0.08475,0 -0.08475,0 -0.16951,0z" fill="#8b8f93" fill-rule="nonzero"/><path d="M315.1691,178.81346v0c-0.08475,0 -0.16951,0 -0.16951,-0.08475l0.08475,-1.27129c0,-0.08475 0.08475,-0.16951 0.16951,-0.16951c0.08475,0 0.16951,0.08475 0.16951,0.16951l-0.16951,1.27129c0,0.08475 0,0.08475 -0.08475,0.08475z" fill="#8b8f93" fill-rule="nonzero"/><path d="M315.84712,179.83049c-0.08475,0 -0.16951,-0.08475 -0.16951,-0.16951l-0.16951,-2.37307c0,-0.08475 0,-0.08475 0.08475,-0.08475c0.08475,-0.08475 0.16951,0 0.16951,0.08475l0.16951,2.37307c0,0.08475 0,0.16951 -0.08475,0.16951z" fill="#8b8f93" fill-rule="nonzero"/><path d="M316.27088,179.83049v0c-0.08475,-0.08475 -0.16951,-0.08475 -0.16951,-0.16951l0.08475,-2.96634c0,-0.08475 0.08475,-0.16951 0.16951,-0.16951c0.08475,0 0.16951,0.08475 0.16951,0.16951l-0.08475,2.96634c0,0.08475 -0.08475,0.16951 -0.16951,0.16951z" fill="#8b8f93" fill-rule="nonzero"/><path d="M317.03366,179.83049c-0.08475,0 -0.16951,-0.08475 -0.16951,-0.16951l-0.25426,-3.55961c0,-0.08475 0,-0.16951 0.08475,-0.16951c0.08475,0 0.16951,0.08475 0.16951,0.16951l0.33901,3.55961c0,0.08475 -0.08475,0.08475 -0.16951,0.16951z" fill="#8b8f93" fill-rule="nonzero"/><path d="M317.45742,179.91525v0c-0.08475,0 -0.16951,-0.08475 -0.16951,-0.16951l0.16951,-4.06813c0,-0.08475 0.08475,-0.16951 0.16951,-0.16951c0.08475,0 0.08475,0.08475 0.08475,0.16951l-0.08475,4.06813c-0.08475,0.08475 -0.08475,0.16951 -0.16951,0.16951z" fill="#8b8f93" fill-rule="nonzero"/><path d="M318.22019,179.91525c-0.08475,0 -0.08475,-0.08475 -0.08475,-0.16951l-0.25426,-3.72912c0,-0.08475 0,-0.16951 0.08475,-0.16951c0.08475,0 0.16951,0.08475 0.16951,0.16951l0.25426,3.72912c0,0.08475 -0.08475,0.16951 -0.16951,0.16951z" fill="#8b8f93" fill-rule="nonzero"/><path d="M318.64396,179.83049v0c-0.08475,-0.08475 -0.16951,-0.08475 -0.16951,-0.16951l0.25426,-1.69505c0,-0.08475 0.08475,-0.16951 0.16951,-0.16951c0.08475,0.08475 0.08475,0.08475 0.08475,0.16951l-0.16951,1.69505c0,0.08475 -0.08475,0.16951 -0.16951,0.16951z" fill="#8b8f93" fill-rule="nonzero"/><path d="M317.45742,179.91525c0,0 0,0 0,-0.08475v0l0.67802,-0.33901l-0.59327,-0.25426c0,-0.08475 0,-0.08475 0,-0.08475v0l0.42376,-0.42376l-0.42376,-0.25426v0c0,-0.08475 0,-0.08475 0,-0.08475l0.42376,-0.33901l-0.42376,-0.33901v0c0,-0.08475 0,-0.08475 0,-0.08475l0.42376,-0.33901l-0.33901,-0.33901v-0.08475l0.33901,-0.33901l-0.33901,-0.42376v-0.08475c0.08475,0 0.08475,0 0.08475,0l0.33901,0.50852v0l-0.33901,0.33901l0.33901,0.42376v0.08475l-0.42376,0.33901l0.42376,0.33901v0v0.08475l-0.42376,0.25426l0.42376,0.33901v0v0l-0.42376,0.42376l0.59327,0.33901v0v0l-0.76277,0.42376z" fill="#8b8f93" fill-rule="nonzero"/><path d="M316.9489,179.74574v0l-0.59327,-0.42376v0c0,-0.08475 0,-0.08475 0,-0.08475l0.42376,-0.25426l-0.42376,-0.08475c0,-0.08475 0,-0.08475 0,-0.08475v0l0.33901,-0.25426l-0.33901,-0.25426v0v0l0.33901,-0.25426l-0.33901,-0.16951v0v-0.08475l0.33901,-0.25426l-0.25426,-0.25426c-0.08475,0 -0.08475,0 -0.08475,0v0l0.25426,-0.33901l-0.16951,-0.08475c-0.08475,0 -0.08475,-0.08475 -0.08475,-0.08475c0.08475,0 0.08475,0 0.08475,0l0.25426,0.16951h0.08475c0,0 0,0 -0.08475,0l-0.25426,0.33901l0.33901,0.16951c0,0 0,0 0,0.08475v0l-0.33901,0.33901l0.33901,0.08475v0c0,0.08475 0,0.08475 0,0.08475l-0.33901,0.25426l0.33901,0.16951c0.08475,0 0.08475,0 0.08475,0c0,0.08475 0,0.08475 -0.08475,0.08475l-0.33901,0.25426l0.42376,0.16951v0v0l-0.42376,0.33901l0.50852,0.33901v0.08475z" fill="#8b8f93" fill-rule="nonzero"/><path d="M315.59286,178.89822v0l-0.33901,-0.42376v0v-0.08475l0.25426,-0.08475l-0.25426,-0.16951h-0.08475h0.08475l0.25426,-0.16951l-0.25426,-0.16951v0c0,-0.08475 0,-0.08475 0,-0.08475l0.25426,-0.25426c0.08475,0 0.08475,0 0.08475,0c0,0.08475 0,0.08475 0,0.08475l-0.25426,0.16951l0.25426,0.16951c0,0 0,0 0,0.08475v0l-0.25426,0.16951l0.25426,0.16951c0,0 0,0 0,0.08475v0l-0.25426,0.08475l0.33901,0.33901c0,0.08475 0,0.08475 0,0.08475c-0.08475,0 -0.08475,0 -0.08475,0z" fill="#8b8f93" fill-rule="nonzero"/><path d="M319.15247,179.74574v0l-0.33901,-0.33901v-0.08475v0l0.25426,-0.08475l-0.25426,-0.08475c0,0 0,0 0,-0.08475v0l0.25426,-0.16951l-0.16951,-0.08475c-0.08475,0 -0.08475,0 -0.08475,0c0,0 0,0 0.08475,-0.08475l0.25426,-0.16951v0c0,0.08475 0,0.08475 0,0.08475l-0.16951,0.16951l0.16951,0.08475v0c0,0.08475 0,0.08475 0,0.08475l-0.25426,0.08475l0.25426,0.16951v0c0,0.08475 0,0.08475 0,0.08475l-0.25426,0.08475l0.33901,0.25426c0,0 0,0 0,0.08475c0,0 0,0 -0.08475,0z" fill="#8b8f93" fill-rule="nonzero"/><path d="M318.81346,176.44039c0,0 0,0.08475 0.08475,0.33901c0.16951,0.25426 -0.08475,0.42376 -0.08475,0.42376l-0.25426,-0.59327z" fill="#8b8f93" fill-rule="nonzero"/><path d="M319.06772,176.52514l-0.08475,0.08475c-0.08475,0 -0.08475,-0.08475 -0.08475,-0.08475c0,-0.08475 0,-0.08475 0.08475,-0.08475c0,0 0.08475,0 0.08475,0.08475z" fill="#8b8f93" fill-rule="nonzero"/><path d="M319.15247,176.7794h-0.08475c-0.08475,0 -0.08475,0 -0.08475,0c0,-0.08475 0,-0.08475 0.08475,-0.08475c0,0 0.08475,0 0.08475,0.08475z" fill="#8b8f93" fill-rule="nonzero"/><path d="M319.06772,173.89781l1.69505,3.0511l-1.69505,3.0511h-3.55961l-1.77981,-3.0511v0l1.77981,-3.0511zM315.84712,179.40673h2.79684l1.4408,-2.45783l-1.4408,-2.37307h-2.79684l-1.35604,2.37307z" fill="#8b8f93" fill-rule="nonzero"/><path d="M319.06772,173.89781l1.69505,3.0511l-1.69505,3.0511h-3.55961l-1.77981,-3.0511v0l1.77981,-3.0511zM315.76237,179.57624h3.0511l1.4408,-2.62733l-1.4408,-2.62733h-3.0511l-1.52555,2.62733z" fill="#4e4e50" fill-rule="nonzero"/></g></g></g></svg>