<svg version="1.1" xmlns="http://www.w3.org/2000/svg" xmlns:xlink="http://www.w3.org/1999/xlink" width="19.1542" height="19.1541" viewBox="0,0,19.1542,19.1541"><g transform="translate(-310.4229,-170.42295)"><g data-paper-data="{&quot;isPaintingLayer&quot;:true}" stroke="none" stroke-width="1" stroke-linecap="butt" stroke-linejoin="miter" stroke-miterlimit="10" stroke-dasharray="" stroke-dashoffset="0" style="mix-blend-mode: normal"><g><path d="M314.20102,187.81979c-1.06756,0 -1.93299,-0.86543 -1.93299,-1.93298v-11.68576c0,-1.06756 0.86543,-1.93298 1.93299,-1.93298h11.68582c1.06756,0 1.93299,0.86543 1.93299,1.93298v11.68576c0,1.06756 -0.86543,1.93298 -1.93299,1.93298z" fill="#fefefe" fill-rule="evenodd"/><path d="M314.20102,170.51081h11.59796c1.05436,0 1.93299,0.35145 2.6359,1.05435v0c0.70291,0.7029 1.05436,1.58153 1.05436,2.63589v11.5979c0,1.05435 -0.35145,1.93298 -1.05436,2.63589v0c-0.70291,0.7029 -1.58154,1.05435 -2.6359,1.05435h-11.59796c-1.05436,0 -1.93299,-0.35145 -2.6359,-1.05435v0c-0.70291,-0.7029 -1.05436,-1.58153 -1.05436,-2.63589v-11.5979c0,-1.05435 0.35145,-1.93298 1.05436,-2.63589v0c0.70291,-0.7029 1.58154,-1.05435 2.6359,-1.05435zM314.20102,172.26807h11.59796c1.05436,0 1.93299,0.87863 1.93299,1.93298v11.5979c0,1.05435 -0.87863,1.93298 -1.93299,1.93298h-11.59796c-1.05436,0 -1.93299,-0.87863 -1.93299,-1.93298v-11.5979c0,-1.05435 0.87863,-1.93298 1.93299,-1.93298z" fill="#ef7f1a" fill-rule="evenodd"/><path d="M314.20102,170.42295h11.59796c0.52718,0 0.9665,0.08786 1.40581,0.26359c0.52718,0.17573 0.87863,0.52718 1.23009,0.87863v0c0.35145,0.35145 0.61504,0.7029 0.87863,1.23008c0.17573,0.43931 0.26359,0.87863 0.26359,1.40581v11.5979c0,0.52718 -0.08786,0.96649 -0.26359,1.40581c-0.26359,0.52718 -0.52718,0.87863 -0.87863,1.23008v0c-0.35145,0.35145 -0.70291,0.61504 -1.23009,0.87863c-0.43932,0.17573 -0.87863,0.26359 -1.40581,0.26359h-11.59796c-0.52718,0 -0.9665,-0.08786 -1.40581,-0.26359c-0.52718,-0.26359 -0.87863,-0.52718 -1.23009,-0.87863v0c-0.35145,-0.35145 -0.70291,-0.7029 -0.87863,-1.23008c-0.17573,-0.43931 -0.26359,-0.87863 -0.26359,-1.40581v-11.5979c0,-0.52718 0.08786,-0.96649 0.26359,-1.40581c0.17573,-0.52718 0.52718,-0.87863 0.87863,-1.23008v0c0.35145,-0.35145 0.70291,-0.7029 1.23009,-0.87863c0.43932,-0.17573 0.87863,-0.26359 1.40581,-0.26359zM325.79898,170.51081h-11.59796c-0.52718,0 -0.9665,0.08786 -1.40581,0.26359c-0.43932,0.17573 -0.87863,0.52718 -1.23009,0.79077v0c-0.26359,0.35145 -0.61504,0.79077 -0.79077,1.23008c-0.17573,0.43931 -0.26359,0.87863 -0.26359,1.40581v11.5979c0,0.52718 0.08786,0.96649 0.26359,1.40581c0.17573,0.43931 0.52718,0.87863 0.79077,1.14222v0c0.35145,0.35145 0.79077,0.61504 1.23009,0.87863c0.43932,0.17573 0.87863,0.26359 1.40581,0.26359h11.59796c0.52718,0 0.9665,-0.08786 1.40581,-0.26359c0.43932,-0.26359 0.87863,-0.52718 1.14222,-0.87863v0c0.35145,-0.26359 0.61504,-0.7029 0.87863,-1.14222c0.17573,-0.43931 0.26359,-0.87863 0.26359,-1.40581v-11.5979c0,-0.52718 -0.08786,-0.96649 -0.26359,-1.40581c-0.26359,-0.43931 -0.52718,-0.87863 -0.87863,-1.23008v0c-0.26359,-0.26359 -0.70291,-0.61504 -1.14222,-0.79077c-0.43932,-0.17573 -0.87863,-0.26359 -1.40581,-0.26359zM314.20102,172.18021h11.59796c0.52718,0 1.05436,0.26359 1.40581,0.61504c0.35145,0.35145 0.61504,0.87863 0.61504,1.40581v11.5979c0,0.52718 -0.26359,1.05435 -0.61504,1.40581c-0.35145,0.35145 -0.87863,0.61504 -1.40581,0.61504h-11.59796c-0.52718,0 -1.05436,-0.26359 -1.40581,-0.61504c-0.35145,-0.35145 -0.61504,-0.87863 -0.61504,-1.40581v-11.5979c0,-0.52718 0.26359,-1.05435 0.61504,-1.40581c0.35145,-0.35145 0.87863,-0.61504 1.40581,-0.61504zM325.79898,172.26807h-11.59796c-0.52718,0 -1.05436,0.26359 -1.31795,0.61504c-0.35145,0.26359 -0.61504,0.79077 -0.61504,1.31794v11.5979c0,0.52718 0.26359,0.96649 0.61504,1.31794c0.26359,0.35145 0.79077,0.61504 1.31795,0.61504h11.59796c0.52718,0 0.9665,-0.26359 1.31795,-0.61504c0.35145,-0.35145 0.61504,-0.79077 0.61504,-1.31794v-11.5979c0,-0.52718 -0.26359,-1.05435 -0.61504,-1.31794c-0.35145,-0.35145 -0.79077,-0.61504 -1.31795,-0.61504z" fill="#fefefe" fill-rule="nonzero"/><path d="M324.48103,176.83694c-0.61504,0 -1.14222,-0.52718 -1.14222,-1.23008c0,-0.61504 0.52718,-1.14222 1.14222,-1.14222c0.61504,0 1.23009,0.52718 1.23009,1.14222c0,0.7029 -0.61504,1.23008 -1.23009,1.23008z" fill="#e63331" fill-rule="nonzero"/><path d="M324.48103,176.9248c-0.70291,0 -1.31795,-0.52718 -1.31795,-1.31794c0,-0.7029 0.61504,-1.31794 1.31795,-1.31794c0.70291,0 1.31795,0.61504 1.31795,1.31794v0.08786c0,0.7029 -0.61504,1.23008 -1.31795,1.23008zM324.48103,174.5525c-0.61504,0 -1.05436,0.52718 -1.05436,1.05435c0,0.61504 0.43932,1.05435 1.05436,1.05435c0.61504,0 1.05436,-0.43931 1.05436,-1.05435c0,-0.52718 -0.43932,-1.05435 -1.05436,-1.05435z" fill="#5a3547" fill-rule="nonzero"/><path d="M322.81163,185.53536h-1.05436v0c-1.31795,-0.08786 -2.28445,-1.14222 -2.28445,-2.46016c0,-1.40581 1.05436,-2.54802 2.37231,-2.54802c0,0 0,0 0.08786,0h0.87863z" fill="#ed9e34" fill-rule="nonzero"/><path d="M322.81163,185.71108h-1.05436v0v0v0v0c-1.40581,-0.08786 -2.46017,-1.23008 -2.46017,-2.63589c0,-1.49367 1.14222,-2.63589 2.46017,-2.72375h0.08786v0v0h0.08786v0h0.87863c0.08786,0 0.17573,0.08786 0.17573,0.17573v5.00818c0,0.08786 0,0.17573 -0.08786,0.17573zM321.75727,185.35963h0.9665v-4.65673h-0.87863v0c-1.23009,0 -2.28445,1.05435 -2.28445,2.3723c0,1.23008 0.9665,2.28443 2.19658,2.28443z" fill="#5b3523" fill-rule="nonzero"/><path d="M325.18393,183.0752c0,1.31794 -1.05436,2.46016 -2.37231,2.46016c-1.31795,0 -2.37231,-1.14222 -2.37231,-2.46016c0,-1.40581 1.05436,-2.54802 2.37231,-2.54802c1.31795,0 2.37231,1.14222 2.37231,2.54802z" fill="#fcc127" fill-rule="nonzero"/><path d="M322.81163,185.71108c-1.40581,0 -2.54804,-1.23008 -2.54804,-2.63589c0,-1.49367 1.14222,-2.63589 2.54804,-2.72375v0c1.40581,0.08786 2.54804,1.23008 2.54804,2.72375c0,1.40581 -1.14222,2.63589 -2.54804,2.63589zM322.81163,180.7029c-1.23009,0 -2.19658,1.05435 -2.19658,2.3723c0,1.23008 0.9665,2.28443 2.19658,2.28443c1.23009,0 2.19658,-1.05435 2.19658,-2.28443c0,-1.31794 -0.9665,-2.3723 -2.19658,-2.3723z" fill="#5b3523" fill-rule="nonzero"/><path d="M321.75727,182.10871c0,-0.08786 0,-0.08786 0.08786,-0.17573c0,0 0,0 0.08786,-0.08786c0,0 0,-0.08786 0.08786,-0.08786l0.08786,-0.08786c0.08786,0 0.08786,-0.08786 0.17573,-0.08786l0.08786,-0.08786c0.08786,0 0.17573,-0.08786 0.17573,-0.08786l0.08786,-0.08786h0.08786c0,0 0,0 0.08786,0c0,0 0,0 0.08786,0h0.08786c0.08786,0 0.08786,0 0.17573,0c0,0 0,0 0.08786,0c0.08786,0 0.08786,0 0.17573,0h0.08786c0.08786,0 0.08786,0 0.08786,0h0.17573v0.17573v0c0,0.08786 0,0.08786 0,0.08786v0c0,0.08786 0,0.17573 0,0.26359v0v0v0.08786v0.08786v0c0,0.08786 0,0.08786 0,0.08786v0.08786c0,0.08786 0,0.17573 0,0.26359c0,0.08786 0,0.26359 0,0.35145v0.08786c0,0.17573 0,0.43931 0,0.61504v0.35145v0.26359c0,0.08786 0,0.17573 0,0.26359c0,0.08786 0,0.17573 0,0.26359v0c0,0.08786 -0.08786,0.08786 -0.08786,0.17573c-0.08786,0 -0.08786,0 -0.08786,0h-0.08786c0,0 0,0 -0.08786,0v0h-0.08786v0h-0.08786v0c0,0 0,0 -0.08786,0c0,0 0,0 -0.08786,0c0,0 0,0 -0.08786,0c0,0 0,0 -0.08786,0v0h-0.08786v0v0h-0.08786v0c-0.08786,0 -0.08786,0 -0.08786,0h-0.08786c0,-0.08786 -0.08786,-0.08786 -0.08786,-0.08786v-0.08786v0c0,-0.08786 0,-0.17573 0,-0.26359c0,-0.08786 0,-0.08786 0,-0.17573v-0.17573c0,-0.08786 0,-0.17573 0,-0.26359v-0.08786v0v-0.08786c0,0 0,0 0,-0.08786v0v-0.26359v-0.26359v-0.08786h-0.08786h-0.08786c-0.08786,0 -0.08786,0 -0.17573,0c0,-0.08786 -0.08786,-0.08786 -0.08786,-0.17573v0c0,0 -0.08786,0 -0.08786,-0.08786c0,0 0,-0.08786 -0.08786,-0.08786v-0.08786c0,-0.08786 -0.08786,-0.08786 -0.08786,-0.17573v-0.08786v-0.08786zM322.19658,182.10871c-0.08786,0 -0.08786,0 -0.08786,0.08786v0v0l0.08786,0.08786v0.08786l0.08786,0.08786v0.08786v0l0.08786,-0.08786v0h0.08786l0.08786,-0.08786l0.26359,-0.26359v0.43931v0.17573v0.26359v0.26359v0.17573v0v0c0,0 0,0 0.08786,0v0v0.08786c0.08786,0 0.08786,0.08786 0.08786,0.08786c0,0.08786 0,0.08786 0,0.17573c-0.08786,0 -0.08786,0 -0.08786,0.08786c-0.08786,0 -0.08786,0 -0.08786,0v0v0v0.17573v0.17573c0,0.08786 0,0.17573 0,0.17573v0.08786h0.08786h0.08786v0h0.08786h0.08786h0.08786h0.08786h0.08786v-0.08786c0,-0.08786 0,-0.17573 0,-0.26359v-0.35145v-0.26359c0,-0.26359 0,-0.43931 0,-0.61504v-0.08786c0,-0.08786 0,-0.26359 0,-0.35145c0,-0.08786 0,-0.17573 0,-0.26359c0,0 0,-0.08786 -0.08786,-0.08786v0v-0.08786c0,-0.08786 0,-0.08786 0,-0.08786c0.08786,-0.08786 0.08786,-0.08786 0.08786,-0.08786v-0.17573v0c-0.08786,0 -0.08786,0 -0.17573,0h-0.08786c-0.08786,0 -0.17573,0 -0.17573,0h-0.08786h-0.08786v0c0,0 -0.08786,0 -0.08786,0.08786h-0.08786c-0.08786,0.08786 -0.08786,0.08786 -0.17573,0.08786c0,0.08786 -0.08786,0.08786 -0.08786,0.08786c-0.08786,0.08786 -0.08786,0.08786 -0.08786,0.08786c-0.08786,0.08786 -0.08786,0.08786 -0.08786,0.08786zM323.42667,182.19657v0zM322.6359,183.7781v0z" fill="#5b3523" fill-rule="nonzero"/><path d="M321.93299,182.10871c0,0 0,-0.08786 0.08786,-0.08786c0.08786,-0.08786 0.17573,-0.17573 0.26359,-0.17573c0,-0.08786 0.08786,-0.17573 0.26359,-0.17573c0.08786,-0.08786 0.17573,-0.17573 0.17573,-0.17573c0.08786,0 0.08786,0 0.17573,0c0.08786,0 0.17573,0 0.26359,0c0.08786,0 0.17573,0 0.26359,0c0.08786,0 0.08786,0 0.17573,0v0.08786c0,0.08786 0,0.17573 0,0.26359v0.08786c-0.08786,0 -0.08786,0 -0.08786,0.08786c0,0 0,0 0.08786,0.08786c0,0 0,0 0,0.08786c0,0.17573 0,0.35145 0,0.61504c0,0.17573 0,0.43931 0,0.7029c0,0.17573 0,0.43931 0,0.61504c0,0.17573 0,0.35145 0,0.52718c0,0 0,0 -0.08786,0h-0.08786c-0.08786,0 -0.08786,0 -0.17573,0c0,0 -0.08786,0 -0.17573,0c0,0 -0.08786,0 -0.17573,0h-0.08786c-0.08786,0 -0.08786,0 -0.17573,0v0c0,-0.17573 0,-0.26359 0,-0.43931c0,-0.17573 0,-0.26359 0,-0.43931v0c0,-0.08786 0.08786,-0.08786 0.08786,-0.08786c0,0 0,0 0.08786,0c0,0 0,0 0,-0.08786v0c-0.08786,0 -0.08786,0 -0.08786,0l-0.08786,-0.08786v0c0,-0.17573 0,-0.35145 0,-0.52718c0,-0.17573 0,-0.26359 0,-0.43931c0,0 0,0 -0.08786,0l-0.08786,0.08786l-0.08786,0.08786c-0.08786,0 -0.08786,0 -0.08786,0c-0.08786,0 -0.08786,0 -0.08786,-0.08786c-0.08786,0 -0.08786,-0.08786 -0.17573,-0.17573c0,-0.08786 0,-0.17573 -0.08786,-0.17573c0,-0.08786 0,-0.17573 0,-0.17573z" fill="#fcc127" fill-rule="nonzero"/><path d="M321.93299,182.10871c0,0 0,-0.08786 0.08786,-0.08786c0.08786,-0.08786 0.17573,-0.17573 0.26359,-0.17573c0,-0.08786 0.08786,-0.17573 0.26359,-0.17573c0.08786,-0.08786 0.17573,-0.17573 0.17573,-0.17573c0.08786,0 0.08786,0 0.17573,0c0.08786,0 0.17573,0 0.26359,0c0.08786,0 0.17573,0 0.26359,0c0.08786,0 0.08786,0 0.17573,0v0.08786c0,0.08786 0,0.17573 0,0.26359v0.08786c-0.08786,0 -0.08786,0 -0.08786,0.08786c0,0 0,0 0.08786,0.08786c0,0 0,0 0,0.08786c0,0.17573 0,0.35145 0,0.61504c0,0.17573 0,0.43931 0,0.7029c0,0.17573 0,0.43931 0,0.61504c0,0.17573 0,0.35145 0,0.52718c0,0 0,0 -0.08786,0h-0.08786c-0.08786,0 -0.08786,0 -0.17573,0c0,0 -0.08786,0 -0.17573,0c0,0 -0.08786,0 -0.17573,0h-0.08786c-0.08786,0 -0.08786,0 -0.17573,0v0c0,-0.17573 0,-0.26359 0,-0.43931c0,-0.17573 0,-0.26359 0,-0.43931v0c0,-0.08786 0.08786,-0.08786 0.08786,-0.08786c0,0 0,0 0.08786,0c0,0 0,0 0,-0.08786v0c-0.08786,0 -0.08786,0 -0.08786,0l-0.08786,-0.08786v0c0,-0.17573 0,-0.35145 0,-0.52718c0,-0.17573 0,-0.26359 0,-0.43931c0,0 0,0 -0.08786,0l-0.08786,0.08786l-0.08786,0.08786c-0.08786,0 -0.08786,0 -0.08786,0c-0.08786,0 -0.08786,0 -0.08786,-0.08786c-0.08786,0 -0.08786,-0.08786 -0.17573,-0.17573c0,-0.08786 0,-0.17573 -0.08786,-0.17573c0,-0.08786 0,-0.17573 0,-0.17573z" fill="#ed9e34" fill-rule="nonzero"/><path d="M317.45196,180.26359v0c-0.26359,0 -0.52718,-0.17573 -0.61504,-0.43931l-2.54804,-4.30528c-0.17573,-0.26359 -0.17573,-0.61504 0,-0.79077c0.17573,-0.26359 0.35145,-0.43931 0.70291,-0.43931h5.00821c0.26359,0 0.52718,0.17573 0.70291,0.43931c0.08786,0.17573 0.08786,0.52718 0,0.79077l-2.54804,4.30528c-0.17573,0.26359 -0.35145,0.43931 -0.70291,0.43931zM316.30974,175.87045l1.14222,2.02085l1.23009,-2.02085z" fill="#4e4e50" fill-rule="nonzero"/><path d="M318.68205,177.01266v0.08786l-0.08786,0.17573v0l-0.87863,1.40581v0h0.17573l-0.43932,0.79077l-0.43932,-0.79077h0.26359h-0.08786l-0.79077,-1.40581v0l-0.08786,-0.26359v0l-1.05436,-1.75726h4.48103z" fill="#fcc127" fill-rule="nonzero"/><path d="M320.17573,175.16754l-1.40581,2.46016l-0.70291,1.05435l-0.43932,0.87863c0,0 -0.08786,0.08786 -0.17573,0.08786l-0.08786,-0.08786l-0.52718,-0.87863l-0.61504,-1.05435l-1.40581,-2.46016c0,-0.08786 0,-0.08786 0,-0.17573c0,0 0.08786,-0.08786 0.17573,-0.08786h5.00821c0.08786,0 0.08786,0.08786 0.17573,0.08786c0,0.08786 0,0.08786 0,0.17573z" fill="#fefefe" fill-rule="nonzero"/><path d="M317.18837,179.12137l-1.23009,-2.02085l0.26359,-0.43931l0.79077,-1.58153l0.17573,-0.35145h0.52718l1.05436,1.93298l0.26359,0.43931l-0.17573,0.26359l-1.05436,1.75726z" fill="#8c8e8f" fill-rule="nonzero"/><path d="M317.27624,174.81609l-0.17573,0.35145l-0.87863,1.49367v0l-0.17573,0.43931l0.08786,0.26359l1.05436,1.75726h0.61504l0.9665,-1.75726l0.17573,-0.26359l-0.17573,-0.43931v0l-0.87863,-1.49367l-0.17573,-0.35145zM317.97914,175.07968l0.79077,1.49367l0.08786,0.08786l0.17573,0.43931v0l-0.17573,0.26359l-1.05436,1.84512v0h-0.70291v0l-1.05436,-1.84512l-0.17573,-0.26359l0.08786,-0.08786l0.17573,-0.35145v-0.08786l0.87863,-1.49367l0.17573,-0.35145h0.52718z" fill="#fefefe" fill-rule="nonzero"/><path d="M317.53983,174.72823v0.08786h-0.08786v-0.08786z" fill="#fefefe" fill-rule="nonzero"/><path d="M317.53983,174.81609v0.17573h-0.17573l0.08786,-0.17573z" fill="#fefefe" fill-rule="nonzero"/><path d="M317.53983,175.07968v0.08786h-0.17573v-0.08786z" fill="#fefefe" fill-rule="nonzero"/><path d="M317.62769,175.34327v0.17573h-0.26359v-0.17573z" fill="#fefefe" fill-rule="nonzero"/><path d="M317.62769,175.69472v0.35145h-0.26359v-0.35145z" fill="#fefefe" fill-rule="nonzero"/><path d="M317.62769,176.39762l0.08786,0.61504h-0.43932v-0.61504z" fill="#fefefe" fill-rule="nonzero"/><path d="M317.80342,179.20923h-0.61504l0.08786,-1.58153h0.43932z" fill="#fefefe" fill-rule="nonzero"/><path d="M320.43932,175.34327l-1.49368,2.54802l-0.52718,0.79077l-0.52718,0.96649c-0.08786,0.17573 -0.26359,0.26359 -0.43932,0.26359c-0.17573,0 -0.26359,-0.08786 -0.35145,-0.26359l-0.61504,-0.96649l-0.43932,-0.79077l-1.49368,-2.54802c-0.08786,-0.17573 -0.08786,-0.35145 0,-0.52718c0.08786,-0.08786 0.26359,-0.17573 0.43932,-0.17573h5.00821c0.17573,0 0.35145,0.08786 0.43932,0.17573c0.08786,0.17573 0.08786,0.35145 0,0.52718zM320.17573,174.99182c-0.08786,0 -0.08786,-0.08786 -0.17573,-0.08786h-5.00821c-0.08786,0 -0.17573,0.08786 -0.17573,0.08786c0,0.08786 0,0.08786 0,0.17573l1.40581,2.46016l0.61504,1.05435l0.52718,0.87863l0.08786,0.08786c0.08786,0 0.17573,-0.08786 0.17573,-0.08786l0.43932,-0.87863l0.70291,-1.05435l1.40581,-2.46016c0,-0.08786 0,-0.08786 0,-0.17573z" fill="#ed7e2e" fill-rule="nonzero"/><path d="M320.43932,175.34327l-1.49368,2.54802l-0.52718,0.79077l-0.52718,0.96649c-0.08786,0.17573 -0.26359,0.26359 -0.43932,0.26359c-0.17573,0 -0.26359,-0.08786 -0.35145,-0.26359l-0.61504,-0.96649l-0.43932,-0.79077l-1.49368,-2.54802c-0.08786,-0.17573 -0.08786,-0.35145 0,-0.52718c0.08786,-0.08786 0.26359,-0.17573 0.43932,-0.17573h5.00821c0.17573,0 0.35145,0.08786 0.43932,0.17573c0.08786,0.17573 0.08786,0.35145 0,0.52718zM320.17573,174.99182c-0.08786,0 -0.08786,-0.08786 -0.17573,-0.08786h-5.00821c-0.08786,0 -0.17573,0.08786 -0.17573,0.08786c0,0.08786 0,0.08786 0,0.17573l1.40581,2.46016l0.61504,1.05435l0.52718,0.87863l0.08786,0.08786c0.08786,0 0.17573,-0.08786 0.17573,-0.08786l0.43932,-0.87863l0.70291,-1.05435l1.40581,-2.46016c0,-0.08786 0,-0.08786 0,-0.17573z" fill="#ed7e2e" fill-rule="nonzero"/><path d="M314.99179,174.99182c-0.08786,0 -0.08786,0 -0.08786,0.08786c0,0 0,0 0,0.08786l1.40581,2.3723l0.61504,1.14222l0.52718,0.79077c0,0.08786 0,0.08786 0,0.08786c0.08786,0 0.08786,0 0.08786,-0.08786l0.52718,-0.79077l0.61504,-1.14222l1.40581,-2.3723c0,-0.08786 0,-0.08786 0,-0.08786c0,-0.08786 -0.08786,-0.08786 -0.08786,-0.08786zM320.17573,174.99182c0,0.08786 0,0.08786 0,0.17573l-1.40581,2.46016l-0.70291,1.05435l-0.43932,0.87863c0,0 -0.08786,0.08786 -0.17573,0.08786l-0.08786,-0.08786l-0.52718,-0.87863l-0.61504,-1.05435l-1.40581,-2.46016c0,-0.08786 0,-0.08786 0,-0.17573c0,0 0.08786,-0.08786 0.17573,-0.08786h5.00821c0.08786,0 0.08786,0.08786 0.17573,0.08786z" fill="#fefefe" fill-rule="nonzero"/></g></g></g></svg>