<svg version="1.1" xmlns="http://www.w3.org/2000/svg" xmlns:xlink="http://www.w3.org/1999/xlink" width="19.1542" height="19.1541" viewBox="0,0,19.1542,19.1541"><g transform="translate(-310.4229,-170.42295)"><g data-paper-data="{&quot;isPaintingLayer&quot;:true}" stroke="none" stroke-width="1" stroke-linecap="butt" stroke-linejoin="miter" stroke-miterlimit="10" stroke-dasharray="" stroke-dashoffset="0" style="mix-blend-mode: normal"><g><path d="M314.27576,187.81575c-1.09434,0 -1.98147,-0.88713 -1.98147,-1.98146v-11.55851c0,-1.09433 0.88713,-1.98146 1.98147,-1.98146h11.55857c1.09434,0 1.98147,0.88713 1.98147,1.98146v11.55851c0,1.09433 -0.88713,1.98146 -1.98147,1.98146z" fill="#fefefe" fill-rule="evenodd"/><path d="M314.16567,170.42295h11.66865c0.99073,0 1.98147,0.44032 2.64196,1.10081v0c0.66049,0.77057 1.10082,1.65122 1.10082,2.64194v11.66859c0,0.99073 -0.44033,1.98146 -1.10082,2.64194v0c-0.66049,0.66049 -1.65122,1.10081 -2.64196,1.10081h-11.66865c-0.99073,0 -1.87139,-0.44032 -2.64196,-1.10081v0c-0.66049,-0.66049 -1.10082,-1.65122 -1.10082,-2.64194v-11.66859c0,-0.99073 0.44033,-1.87138 1.10082,-2.64194v0c0.77057,-0.66049 1.65122,-1.10081 2.64196,-1.10081zM314.16567,172.29433h11.66865c1.10082,0 1.98147,0.88065 1.98147,1.87138v11.66859c0,1.10081 -0.88065,1.98146 -1.98147,1.98146h-11.66865c-0.99073,0 -1.87139,-0.88065 -1.87139,-1.98146v-11.66859c0,-0.99073 0.88065,-1.87138 1.87139,-1.87138z" fill="#ef7f1a" fill-rule="evenodd"/><path d="M314.16567,170.42295h11.66865c0.55041,0 0.99073,0.11008 1.43106,0.33024c0.44033,0.11008 0.88065,0.44032 1.2109,0.77057v0c0.33024,0.33024 0.66049,0.77057 0.88065,1.21089c0.11008,0.44032 0.22016,0.99073 0.22016,1.43105v11.66859c0,0.55041 -0.11008,0.99073 -0.22016,1.43105c-0.22016,0.44032 -0.55041,0.88065 -0.88065,1.21089v0c-0.33024,0.33024 -0.77057,0.66049 -1.2109,0.88065c-0.44033,0.11008 -0.88065,0.22016 -1.43106,0.22016h-11.66865c-0.44033,0 -0.99073,-0.11008 -1.43106,-0.22016c-0.44033,-0.22016 -0.88065,-0.55041 -1.2109,-0.88065v0c-0.33024,-0.33024 -0.66049,-0.77057 -0.77057,-1.21089c-0.22016,-0.44032 -0.33024,-0.88065 -0.33024,-1.43105v-11.66859c0,-0.44032 0.11008,-0.99073 0.33024,-1.43105c0.11008,-0.44032 0.44033,-0.88065 0.77057,-1.21089v0c0.33024,-0.33024 0.77057,-0.66049 1.2109,-0.77057c0.44033,-0.22016 0.99073,-0.33024 1.43106,-0.33024zM325.83433,170.53303h-11.66865c-0.44033,0 -0.99073,0.11008 -1.32098,0.22016c-0.44033,0.22016 -0.88065,0.55041 -1.2109,0.88065v0c-0.33024,0.33024 -0.66049,0.77057 -0.88065,1.21089c-0.11008,0.33024 -0.22016,0.88065 -0.22016,1.32097v11.66859c0,0.55041 0.11008,0.99073 0.22016,1.43105c0.22016,0.44032 0.55041,0.88065 0.88065,1.21089v0c0.33024,0.33024 0.77057,0.55041 1.2109,0.77057c0.33024,0.22016 0.88065,0.22016 1.32098,0.22016h11.66865c0.55041,0 0.99073,0 1.43106,-0.22016c0.44033,-0.22016 0.88065,-0.44032 1.2109,-0.77057v0c0.33024,-0.33024 0.55041,-0.77057 0.77057,-1.21089c0.22016,-0.44032 0.22016,-0.88065 0.22016,-1.43105v-11.66859c0,-0.44032 0,-0.99073 -0.22016,-1.32097c-0.22016,-0.44032 -0.44033,-0.88065 -0.77057,-1.21089v0c-0.33024,-0.33024 -0.77057,-0.66049 -1.2109,-0.88065c-0.44033,-0.11008 -0.88065,-0.22016 -1.43106,-0.22016zM314.16567,172.18425h11.66865c0.55041,0 1.10082,0.22016 1.43106,0.55041c0.33024,0.44032 0.55041,0.88065 0.55041,1.43105v11.66859c0,0.55041 -0.22016,1.10081 -0.55041,1.43105c-0.33024,0.33024 -0.88065,0.55041 -1.43106,0.55041h-11.66865c-0.55041,0 -0.99073,-0.22016 -1.43106,-0.55041c-0.33024,-0.33024 -0.55041,-0.88065 -0.55041,-1.43105v-11.66859c0,-0.55041 0.22016,-0.99073 0.55041,-1.43105c0.44033,-0.33024 0.88065,-0.55041 1.43106,-0.55041zM325.83433,172.29433h-11.66865c-0.44033,0 -0.99073,0.22016 -1.32098,0.55041c-0.33024,0.33024 -0.55041,0.88065 -0.55041,1.32097v11.66859c0,0.55041 0.22016,0.99073 0.55041,1.32097c0.33024,0.33024 0.88065,0.55041 1.32098,0.55041h11.66865c0.55041,0 0.99073,-0.22016 1.32098,-0.55041c0.33024,-0.33024 0.55041,-0.77057 0.55041,-1.32097v-11.66859c0,-0.44032 -0.22016,-0.99073 -0.55041,-1.32097c-0.33024,-0.33024 -0.77057,-0.55041 -1.32098,-0.55041z" fill="#fefefe" fill-rule="nonzero"/><path d="M318.34878,182.42178c-0.11008,0.11008 -0.22016,0.11008 -0.33024,0.11008c-0.11008,-0.11008 -0.11008,-0.33024 0,-0.44032l4.29318,-4.6234c0.11008,-0.11008 0.33024,-0.11008 0.44033,0c0,0.11008 0.11008,0.22016 0,0.33024z" fill="#2b2a29" fill-rule="nonzero"/><path d="M321.10082,186.16454c-0.11008,0 -0.11008,0 -0.22016,-0.11008c0,0 0,-0.11008 0.11008,-0.11008l1.2109,-1.32097v-2.64194l-1.2109,-1.32097c-0.11008,0 -0.11008,-0.11008 -0.11008,-0.11008c0,-0.11008 0.11008,-0.11008 0.22016,-0.11008h4.73351c0.11008,0 0.11008,0 0.11008,0.11008c0,0.11008 0,0.11008 0,0.11008l-1.2109,1.32097v2.64194l1.2109,1.32097v0.11008c0,0.11008 -0.11008,0.11008 -0.11008,0.11008z" fill="#695ba3" fill-rule="nonzero"/><path d="M321.10082,180.55041v0l1.2109,1.43105v2.75203l-1.2109,1.32097h4.73351l-1.32098,-1.32097v-2.75203l1.32098,-1.43105v0v0zM326.16457,180.55041c0,0.11008 -0.11008,0.22016 -0.11008,0.22016l-1.2109,1.32097v2.42178l1.2109,1.32097c0,0.11008 0.11008,0.22016 0,0.33024c0,0.11008 -0.11008,0.22016 -0.22016,0.22016h-4.73351c-0.11008,0 -0.22016,-0.11008 -0.33024,-0.22016c0,-0.11008 0,-0.22016 0.11008,-0.33024l1.10082,-1.32097v-2.42178l-1.10082,-1.32097c-0.11008,-0.11008 -0.11008,-0.11008 -0.11008,-0.22016c0,-0.11008 0.11008,-0.33024 0.33024,-0.33024h4.73351c0.11008,0 0.33024,0.22016 0.33024,0.33024z" fill="#fefefe" fill-rule="nonzero"/><path d="M324.1831,181.32097c-0.11008,0.44032 -0.44033,0.77057 -0.55041,0.88065c-0.11008,0.11008 -0.44033,0.33024 -0.55041,0.66049l0.77057,0.11008c-0.11008,-0.22016 -0.33024,-0.44032 -0.33024,-0.44032l0.22016,-0.22016c0,0 0.44033,0.33024 0.55041,0.99073c0,0.55041 -0.44033,0.99073 -0.77057,1.32097c-0.22016,0.11008 -0.33024,0.33024 -0.44033,0.44032h0.77057c-0.11008,-0.11008 -0.22016,-0.22016 -0.33024,-0.33024l0.22016,-0.22016c0,0 0.44033,0.44032 0.55041,0.77057c0,0.33024 -0.33024,0.22016 -0.33024,0.11008v-0.11008l-0.99073,-0.11008c0,0.11008 0,0.11008 0,0.11008c0,0 0,0.33024 -0.11008,0.33024c-0.22016,-0.11008 -0.11008,-0.33024 -0.11008,-0.33024c0.11008,-0.55041 0.55041,-0.77057 0.88065,-1.21089c0.11008,-0.11008 0.22016,-0.22016 0.22016,-0.33024h-0.88065c0.11008,0.22016 0.33024,0.44032 0.33024,0.44032l-0.11008,0.22016c-0.77057,-0.66049 -0.55041,-1.21089 -0.44033,-1.65122c0.22016,-0.33024 0.55041,-0.66049 0.77057,-0.77057c0.11008,-0.11008 0.22016,-0.33024 0.22016,-0.44032h-0.66049c0.11008,0.22016 0.22016,0.33024 0.22016,0.33024l-0.22016,0.22016c-0.33024,-0.44032 -0.44033,-0.77057 -0.44033,-0.77057c0,0 0,-0.22016 0.11008,-0.22016c0.11008,-0.11008 0.22016,0.11008 0.22016,0.11008c0,0 0,0.11008 0,0.22016h0.88065c0,-0.11008 0.11008,-0.11008 0.11008,-0.11008c0,0 0,-0.33024 0.22016,-0.33024c0.11008,0.11008 0,0.33024 0,0.33024zM322.9722,183.08227c0,0.11008 0,0.11008 0,0.22016c0,0.11008 0,0.11008 0,0.22016h0.99073c0,-0.11008 0,-0.33024 0,-0.44032z" fill="#fefefe" fill-rule="nonzero"/><path d="M319.11935,173.94554l1.65122,2.86211l-1.65122,2.75203h-3.30245l-1.65122,-2.75203l1.65122,-2.86211z" fill="#e94c41" fill-rule="nonzero"/><path d="M315.92698,179.33951h3.08229l1.43106,-2.53186l-1.43106,-2.64194h-3.08229l-1.54114,2.64194zM319.22943,173.72538l1.76131,3.08227l-1.76131,2.97219h-3.52261l-1.76131,-2.97219l1.76131,-3.08227z" fill="#4e4e50" fill-rule="nonzero"/><path d="M316.03706,179.22943h2.86212l1.32098,-2.42178l-1.32098,-2.42178h-2.86212l-1.32098,2.42178zM319.22943,173.72538l1.76131,3.08227l-1.76131,2.97219h-3.52261l-1.76131,-2.97219l1.76131,-3.08227z" fill="#632225" fill-rule="nonzero"/><path d="M316.25723,178.45887h-0.11008c0,0 -0.11008,-0.11008 0,-0.11008l2.9722,-2.86211c0.11008,0 0.22016,0 0.11008,0.11008c0,0.55041 -0.77057,1.65122 -1.10082,1.65122c-0.33024,0.11008 -0.66049,0.33024 -0.66049,0.33024v0l-1.10082,0.88065c-0.11008,0.11008 -0.11008,0.11008 -0.11008,0z" fill="#632225" fill-rule="nonzero"/><path d="M317.79837,177.46814c0.33024,0.33024 0.88065,0.77057 0.99073,0.88065c0.11008,0 0.11008,0.11008 0,0.11008v0c0,0.11008 -0.11008,0.11008 -0.11008,0c-0.11008,-0.11008 -0.66049,-0.66049 -0.99073,-0.99073z" fill="#632225" fill-rule="nonzero"/><path d="M316.36731,176.69757l-0.88065,-0.99073l0.11008,-0.11008l0.77057,0.88065l0.11008,0.11008c0.11008,-0.11008 0,-0.11008 0,-0.11008l-0.77057,-0.99073v0l0.88065,0.88065c0,0 0,0 0.11008,0v-0.11008l-0.88065,-0.88065v0l0.88065,0.77057l0.11008,0.11008c0,-0.11008 0,-0.11008 0,-0.11008l-0.88065,-0.88065v0c0,0 0.66049,0.44032 0.99073,0.77057c0.44033,0.33024 0.33024,0.66049 0.33024,0.66049c0,0.11008 0.11008,0.22016 0.22016,0.33024l-0.11008,0.11008c-0.22016,-0.22016 -0.33024,-0.11008 -0.33024,-0.11008c-0.33024,0 -0.66049,-0.33024 -0.66049,-0.33024z" fill="#632225" fill-rule="nonzero"/></g></g></g></svg>