<svg version="1.1" xmlns="http://www.w3.org/2000/svg" xmlns:xlink="http://www.w3.org/1999/xlink" width="19.1541" height="19.1541" viewBox="0,0,19.1541,19.1541"><g transform="translate(-310.42295,-170.42295)"><g data-paper-data="{&quot;isPaintingLayer&quot;:true}" stroke="none" stroke-width="1" stroke-linecap="butt" stroke-linejoin="miter" stroke-miterlimit="10" stroke-dasharray="" stroke-dashoffset="0" style="mix-blend-mode: normal"><path d="M314.21584,187.77543c-1.09975,0 -1.99127,-0.89152 -1.99127,-1.99127v-11.56832c0,-1.09975 0.89152,-1.99127 1.99127,-1.99127h11.56832c1.09975,0 1.99127,0.89152 1.99127,1.99127v11.56832c0,1.09975 -0.89152,1.99127 -1.99127,1.99127z" fill="#fefefe" fill-rule="evenodd"/><path d="M314.21584,170.51777h11.56832c1.04305,0 1.99127,0.37929 2.65502,1.04305v0c0.66376,0.66376 1.04305,1.61198 1.04305,2.65502v11.56832c0,1.04305 -0.37929,1.99127 -1.04305,2.65502v0c-0.66376,0.66376 -1.61198,1.04305 -2.65502,1.04305h-11.56832c-1.04305,0 -1.99127,-0.37929 -2.65502,-1.04305v0c-0.66376,-0.66376 -1.04305,-1.61198 -1.04305,-2.65502v-11.56832c0,-1.04305 0.37929,-1.99127 1.04305,-2.65502v0c0.66376,-0.66376 1.61198,-1.04305 2.65502,-1.04305zM314.21584,172.22457h11.56832c1.04305,0 1.99127,0.8534 1.99127,1.99127v11.56832c0,1.04305 -0.94822,1.99127 -1.99127,1.99127h-11.56832c-1.13787,0 -1.99127,-0.94822 -1.99127,-1.99127v-11.56832c0,-1.13787 0.8534,-1.99127 1.99127,-1.99127z" fill="#ef7f1a" fill-rule="evenodd"/><path d="M314.21584,170.42295h11.56832c0.47411,0 1.04305,0.09482 1.42233,0.28447c0.47411,0.18964 0.8534,0.47411 1.23269,0.8534v0c0.37929,0.28447 0.66376,0.75858 0.8534,1.23269c0.18964,0.37929 0.28447,0.8534 0.28447,1.42233v11.56832c0,0.47411 -0.09482,1.04305 -0.28447,1.42233c-0.18964,0.47411 -0.47411,0.8534 -0.8534,1.23269v0c-0.37929,0.37929 -0.75858,0.66376 -1.23269,0.8534c-0.37929,0.18964 -0.94822,0.28447 -1.42233,0.28447h-11.56832c-0.56893,0 -1.04305,-0.09482 -1.42233,-0.28447c-0.47411,-0.18964 -0.94822,-0.47411 -1.23269,-0.8534v0c-0.37929,-0.37929 -0.66376,-0.75858 -0.8534,-1.23269c-0.18964,-0.37929 -0.28447,-0.94822 -0.28447,-1.42233v-11.56832c0,-0.56893 0.09482,-1.04305 0.28447,-1.42233c0.18964,-0.47411 0.47411,-0.94822 0.8534,-1.23269v0c0.28447,-0.37929 0.75858,-0.66376 1.23269,-0.8534c0.37929,-0.18964 0.8534,-0.28447 1.42233,-0.28447zM325.78416,170.51777h-11.56832c-0.56893,0 -1.04305,0.09482 -1.42233,0.28447c-0.47411,0.18964 -0.8534,0.47411 -1.23269,0.75858v0c-0.28447,0.37929 -0.56893,0.75858 -0.75858,1.23269c-0.18964,0.37929 -0.28447,0.8534 -0.28447,1.42233v11.56832c0,0.47411 0.09482,0.94822 0.28447,1.42233c0.18964,0.47411 0.47411,0.8534 0.75858,1.13787v0c0.37929,0.37929 0.75858,0.66376 1.23269,0.8534c0.37929,0.18964 0.8534,0.28447 1.42233,0.28447h11.56832c0.47411,0 0.94822,-0.09482 1.42233,-0.28447c0.47411,-0.18964 0.8534,-0.47411 1.13787,-0.8534v0c0.37929,-0.28447 0.66376,-0.66376 0.8534,-1.13787c0.18964,-0.47411 0.28447,-0.94822 0.28447,-1.42233v-11.56832c0,-0.56893 -0.09482,-1.04305 -0.28447,-1.42233c-0.18964,-0.47411 -0.47411,-0.8534 -0.8534,-1.23269v0c-0.28447,-0.28447 -0.66376,-0.56893 -1.13787,-0.75858c-0.47411,-0.18964 -0.94822,-0.28447 -1.42233,-0.28447zM314.21584,172.22457h11.56832c0.56893,0 1.04305,0.18964 1.42233,0.56893c0.37929,0.37929 0.56893,0.8534 0.56893,1.42233v11.56832c0,0.56893 -0.18964,1.04305 -0.56893,1.42233c-0.37929,0.37929 -0.8534,0.56893 -1.42233,0.56893h-11.56832c-0.56893,0 -1.04305,-0.18964 -1.42233,-0.56893c-0.37929,-0.37929 -0.56893,-0.8534 -0.56893,-1.42233v-11.56832c0,-0.56893 0.18964,-1.04305 0.56893,-1.42233c0.37929,-0.37929 0.8534,-0.56893 1.42233,-0.56893zM325.78416,172.3194h-11.56832c-0.56893,0 -1.04305,0.18964 -1.32751,0.56893c-0.37929,0.28447 -0.56893,0.75858 -0.56893,1.32751v11.56832c0,0.56893 0.18964,1.04305 0.56893,1.32751c0.28447,0.37929 0.75858,0.56893 1.32751,0.56893h11.56832c0.56893,0 1.04305,-0.18964 1.32751,-0.56893c0.37929,-0.28447 0.56893,-0.75858 0.56893,-1.32751v-11.56832c0,-0.56893 -0.18964,-1.04305 -0.56893,-1.32751c-0.28447,-0.37929 -0.75858,-0.56893 -1.32751,-0.56893z" fill="#fefefe" fill-rule="nonzero"/><g fill-rule="nonzero"><path d="M316.29476,180.37929h-0.09482l-1.61198,-1.61198c0,0 0,0 0,-0.09482v-3.79289c0,-0.09482 0.09482,-0.18964 0.18964,-0.18964h3.79289c0,0 0.09482,0 0.09482,0.09482l1.61198,1.51716c0,0.09482 0,0.09482 0,0.18964v3.79289c0,0.09482 0,0.09482 -0.09482,0.09482z" fill="#4bb8a5"/><path d="M314.7776,174.8796v3.79289l1.51716,1.61198h3.88771v-3.79289l-1.61198,-1.61198zM320.18247,180.56893h-3.88771v0c-0.09482,0 -0.18964,0 -0.18964,-0.09482l-1.61198,-1.51716c0,-0.09482 -0.09482,-0.18964 -0.09482,-0.28447v-3.79289c0,-0.18964 0.18964,-0.37929 0.37929,-0.37929h3.79289v0c0.09482,0 0.18964,0.09482 0.18964,0.09482l1.61198,1.61198c0.09482,0.09482 0.09482,0.18964 0.09482,0.18964v3.88771c0,0.18964 -0.18964,0.28447 -0.28447,0.28447z" fill="#fefefe"/><path d="M318.1912,175.54335c-0.09482,0.47411 -0.47411,0.8534 -0.56893,0.94822c-0.09482,0.09482 -0.37929,0.37929 -0.56893,0.66376h0.8534c-0.09482,-0.18964 -0.37929,-0.37929 -0.37929,-0.37929l0.18964,-0.18964c0,0 0.47411,0.37929 0.56893,0.94822c0,0.56893 -0.47411,0.94822 -0.75858,1.32751c-0.18964,0.18964 -0.37929,0.28447 -0.37929,0.47411h0.66376c0,-0.18964 -0.18964,-0.28447 -0.18964,-0.37929l0.18964,-0.18964c0,0 0.37929,0.37929 0.37929,0.75858c0.09482,0.37929 -0.18964,0.28447 -0.18964,0.09482c0,0 0,-0.09482 -0.09482,-0.18964h-0.8534v0.09482c0,0 -0.09482,0.28447 -0.18964,0.28447c-0.18964,0 -0.09482,-0.28447 -0.09482,-0.28447c0.09482,-0.56893 0.47411,-0.8534 0.8534,-1.23269c0.09482,-0.09482 0.18964,-0.18964 0.18964,-0.28447h-0.75858c0.09482,0.18964 0.28447,0.37929 0.28447,0.37929l-0.18964,0.18964c-0.66376,-0.56893 -0.56893,-1.13787 -0.37929,-1.51716c0.18964,-0.37929 0.56893,-0.75858 0.66376,-0.8534c0.18964,-0.09482 0.28447,-0.18964 0.37929,-0.37929h-0.66376c0.09482,0.18964 0.18964,0.28447 0.18964,0.28447l-0.18964,0.18964c-0.37929,-0.37929 -0.47411,-0.66376 -0.47411,-0.66376c0,0 -0.09482,-0.18964 0.09482,-0.28447c0.18964,0 0.18964,0.09482 0.18964,0.09482c0,0.09482 0,0.18964 0.09482,0.28447h0.8534c0,-0.09482 0,-0.18964 0,-0.18964c0,0 0.09482,-0.28447 0.18964,-0.18964c0.18964,0 0.09482,0.18964 0.09482,0.18964zM316.95852,177.34498c0,0.09482 0,0.09482 0,0.18964c0,0.09482 0,0.18964 0,0.28447h0.94822c0.09482,-0.18964 0,-0.37929 0,-0.47411z" fill="#fefefe"/></g><g fill-rule="nonzero"><path d="M323.39471,185.62398c-0.47411,0 -0.8534,-0.37929 -1.23269,-1.04305c-0.09482,0.09482 -0.37929,0.18964 -0.47411,0.28447c0,0.09482 -0.09482,0.09482 -0.09482,0.09482c0,0 -0.09482,0 -0.09482,-0.09482c-0.66376,-0.56893 -1.13787,-1.42233 -1.13787,-2.27573c0,-0.94822 0.47411,-1.80162 1.13787,-2.37056h0.09482h0.09482c0.09482,0.09482 0.37929,0.18964 0.47411,0.28447c0.37929,-0.66376 0.75858,-0.94822 1.23269,-0.94822c0.56893,0 0.94822,0.28447 1.32751,0.94822c0.09482,-0.09482 0.28447,-0.18964 0.47411,-0.28447c0,0 0,0 0.09482,0h0.09482c0.66376,0.56893 1.04305,1.42233 1.04305,2.37056c0,0.8534 -0.37929,1.7068 -1.04305,2.27573c0,0.09482 -0.09482,0.09482 -0.09482,0.09482c-0.09482,0 -0.09482,0 -0.09482,-0.09482c-0.18964,-0.09482 -0.37929,-0.18964 -0.47411,-0.28447c-0.37929,0.66376 -0.75858,1.04305 -1.32751,1.04305z" fill="#4e4e50"/><path d="M322.25684,180.69322v0c0,0 -0.47411,-0.18964 -0.66376,-0.37929c-0.66376,0.56893 -1.04305,1.32751 -1.04305,2.27573c0,0.8534 0.37929,1.61198 1.04305,2.18091c0.18964,-0.18964 0.66376,-0.37929 0.66376,-0.37929v0c0.28447,0.66376 0.66376,1.04305 1.13787,1.04305c0.47411,0 0.94822,-0.37929 1.23269,-1.04305v0c0,0 0.47411,0.18964 0.66376,0.37929c0.56893,-0.56893 1.04305,-1.32751 1.04305,-2.18091c0,-0.94822 -0.47411,-1.7068 -1.04305,-2.27573c-0.18964,0.18964 -0.66376,0.37929 -0.66376,0.37929v0c-0.28447,-0.56893 -0.75858,-1.04305 -1.23269,-1.04305c-0.47411,0 -0.8534,0.47411 -1.13787,1.04305zM324.72222,180.31393c0.18964,-0.09482 0.28447,-0.18964 0.37929,-0.18964c0,-0.09482 0.09482,-0.09482 0.18964,-0.09482c0.09482,0 0.09482,0 0.18964,0.09482c0.75858,0.56893 1.13787,1.51716 1.13787,2.46538c0,0.94822 -0.37929,1.80162 -1.13787,2.46538c-0.09482,0 -0.09482,0 -0.18964,0c-0.09482,0 -0.18964,0 -0.18964,0c-0.09482,-0.09482 -0.18964,-0.18964 -0.37929,-0.18964c-0.28447,0.56893 -0.75858,0.8534 -1.32751,0.8534c-0.47411,0 -0.94822,-0.28447 -1.23269,-0.8534c-0.18964,0 -0.28447,0.09482 -0.37929,0.18964c0,0 -0.09482,0 -0.18964,0c-0.09482,0 -0.09482,0 -0.18964,0c-0.75858,-0.66376 -1.13787,-1.51716 -1.13787,-2.46538c0,-0.94822 0.37929,-1.89645 1.13787,-2.46538c0.09482,-0.09482 0.09482,-0.09482 0.18964,-0.09482c0.09482,0 0.18964,0 0.18964,0.09482c0.09482,0 0.18964,0.09482 0.37929,0.18964c0.28447,-0.56893 0.75858,-0.94822 1.23269,-0.94822c0.56893,0 1.04305,0.37929 1.32751,0.94822z" fill="#4e4e50"/><path d="M323.39471,185.62398c-0.47411,0 -0.8534,-0.37929 -1.23269,-1.04305c-0.09482,0.09482 -0.37929,0.18964 -0.47411,0.28447c0,0.09482 -0.09482,0.09482 -0.09482,0.09482c0,0 -0.09482,0 -0.09482,-0.09482c-0.66376,-0.56893 -1.13787,-1.42233 -1.13787,-2.27573c0,-0.94822 0.47411,-1.80162 1.13787,-2.37056h0.09482h0.09482c0.09482,0.09482 0.37929,0.18964 0.47411,0.28447c0.37929,-0.66376 0.75858,-0.94822 1.23269,-0.94822c0.56893,0 0.94822,0.28447 1.32751,0.94822c0.09482,-0.09482 0.28447,-0.18964 0.47411,-0.28447c0,0 0,0 0.09482,0h0.09482c0.66376,0.56893 1.04305,1.42233 1.04305,2.37056c0,0.8534 -0.37929,1.7068 -1.04305,2.27573c0,0.09482 -0.09482,0.09482 -0.09482,0.09482c-0.09482,0 -0.09482,0 -0.09482,-0.09482c-0.18964,-0.09482 -0.37929,-0.18964 -0.47411,-0.28447c-0.37929,0.66376 -0.75858,1.04305 -1.32751,1.04305z" fill="#fecf1e"/><path d="M322.25684,180.69322v0c0,0 -0.47411,-0.18964 -0.66376,-0.37929c-0.66376,0.56893 -1.04305,1.32751 -1.04305,2.27573c0,0.8534 0.37929,1.61198 1.04305,2.18091c0.18964,-0.18964 0.66376,-0.37929 0.66376,-0.37929v0c0.28447,0.66376 0.66376,1.04305 1.13787,1.04305c0.47411,0 0.94822,-0.37929 1.23269,-1.04305v0c0,0 0.47411,0.18964 0.66376,0.37929c0.56893,-0.56893 1.04305,-1.32751 1.04305,-2.18091c0,-0.94822 -0.47411,-1.7068 -1.04305,-2.27573c-0.18964,0.18964 -0.66376,0.37929 -0.66376,0.37929v0c-0.28447,-0.56893 -0.75858,-1.04305 -1.23269,-1.04305c-0.47411,0 -0.8534,0.47411 -1.13787,1.04305zM324.72222,180.31393c0.18964,-0.09482 0.28447,-0.18964 0.37929,-0.18964c0,-0.09482 0.09482,-0.09482 0.18964,-0.09482c0.09482,0 0.09482,0 0.18964,0.09482c0.75858,0.56893 1.13787,1.51716 1.13787,2.46538c0,0.94822 -0.37929,1.80162 -1.13787,2.46538c-0.09482,0 -0.09482,0 -0.18964,0c-0.09482,0 -0.18964,0 -0.18964,0c-0.09482,-0.09482 -0.18964,-0.18964 -0.37929,-0.18964c-0.28447,0.56893 -0.75858,0.8534 -1.32751,0.8534c-0.47411,0 -0.94822,-0.28447 -1.23269,-0.8534c-0.18964,0 -0.28447,0.09482 -0.37929,0.18964c0,0 -0.09482,0 -0.18964,0c-0.09482,0 -0.09482,0 -0.18964,0c-0.75858,-0.66376 -1.13787,-1.51716 -1.13787,-2.46538c0,-0.94822 0.37929,-1.89645 1.13787,-2.46538c0.09482,-0.09482 0.09482,-0.09482 0.18964,-0.09482c0.09482,0 0.18964,0 0.18964,0.09482c0.09482,0 0.18964,0.09482 0.37929,0.18964c0.28447,-0.56893 0.75858,-0.94822 1.23269,-0.94822c0.56893,0 1.04305,0.37929 1.32751,0.94822z" fill="#4e4e50"/><path d="M322.63613,184.67576c0.09482,-0.47411 0.56893,-0.8534 0.66376,-0.94822c0.09482,-0.09482 0.37929,-0.37929 0.56893,-0.75858h-0.8534c0.09482,0.18964 0.28447,0.47411 0.28447,0.47411l-0.18964,0.18964c0,0 -0.47411,-0.47411 -0.47411,-1.04305c-0.09482,-0.66376 0.37929,-1.04305 0.75858,-1.32751c0.18964,-0.18964 0.28447,-0.37929 0.37929,-0.56893h-0.75858c0.09482,0.18964 0.18964,0.28447 0.28447,0.37929l-0.18964,0.18964c0,0 -0.47411,-0.37929 -0.47411,-0.75858c-0.09482,-0.37929 0.28447,-0.28447 0.18964,-0.09482l0.09482,0.09482l0.94822,0.09482v-0.09482c0,0 0.09482,-0.28447 0.18964,-0.28447c0.18964,0 0.09482,0.28447 0.09482,0.28447c-0.09482,0.66376 -0.56893,0.8534 -0.94822,1.23269c-0.09482,0.18964 -0.18964,0.28447 -0.18964,0.37929h0.8534c-0.09482,-0.28447 -0.28447,-0.47411 -0.28447,-0.47411l0.18964,-0.18964c0.66376,0.66376 0.56893,1.23269 0.37929,1.61198c-0.18964,0.47411 -0.56893,0.75858 -0.75858,0.94822c-0.09482,0.09482 -0.18964,0.18964 -0.28447,0.28447h0.66376c-0.09482,-0.09482 -0.18964,-0.28447 -0.18964,-0.28447l0.18964,-0.18964c0.37929,0.37929 0.47411,0.75858 0.47411,0.75858c0,0 0.09482,0.18964 -0.09482,0.28447c-0.18964,0.09482 -0.18964,-0.09482 -0.18964,-0.09482c0,-0.09482 -0.09482,-0.18964 -0.09482,-0.28447h-0.8534c-0.09482,0.09482 -0.09482,0.18964 -0.09482,0.18964c0,0 0,0.28447 -0.18964,0.18964c-0.18964,0 -0.09482,-0.18964 -0.09482,-0.18964zM323.96364,182.77931c0,-0.09482 0,-0.09482 0,-0.18964c0,-0.09482 0,-0.18964 0,-0.28447h-1.04305c0,0.18964 0,0.37929 0,0.47411z" fill="#4e4e50"/></g></g></g></svg>