<svg version="1.1" xmlns="http://www.w3.org/2000/svg" xmlns:xlink="http://www.w3.org/1999/xlink" width="19.1541" height="19.1541" viewBox="0,0,19.1541,19.1541"><g transform="translate(-310.42295,-170.42295)"><g data-paper-data="{&quot;isPaintingLayer&quot;:true}" stroke="none" stroke-width="1" stroke-linecap="butt" stroke-linejoin="miter" stroke-miterlimit="10" stroke-dasharray="" stroke-dashoffset="0" style="mix-blend-mode: normal"><g><path d="M314.17478,187.70113c-1.09057,0 -1.97465,-0.88408 -1.97465,-1.97465v-11.5517c0,-1.09057 0.88408,-1.97465 1.97465,-1.97465h11.5517c1.09057,0 1.97465,0.88408 1.97465,1.97465v11.5517c0,1.09057 -0.88408,1.97465 -1.97465,1.97465z" fill="#fefefe" fill-rule="evenodd"/><path d="M314.17478,170.52168h11.65043c0.98732,0 1.97465,0.39493 2.56704,1.08606v0c0.69113,0.59239 1.08606,1.57972 1.08606,2.56704v11.65043c0,0.98732 -0.39493,1.97465 -1.08606,2.56704v0c-0.59239,0.69113 -1.57972,1.08606 -2.56704,1.08606h-11.65043c-0.98732,0 -1.97465,-0.39493 -2.56704,-1.08606v0c-0.69113,-0.59239 -1.08606,-1.57972 -1.08606,-2.56704v-11.65043c0,-0.98732 0.39493,-1.97465 1.08606,-2.56704v0c0.59239,-0.69113 1.57972,-1.08606 2.56704,-1.08606zM314.17478,172.20013h11.65043c1.08606,0 1.97465,0.88859 1.97465,1.97465v11.65043c0,1.08606 -0.88859,1.97465 -1.97465,1.97465h-11.65043c-1.08606,0 -1.97465,-0.88859 -1.97465,-1.97465v-11.65043c0,-1.08606 0.88859,-1.97465 1.97465,-1.97465z" fill="#ef7f1a" fill-rule="evenodd"/><path d="M314.17478,170.42295h11.65043c0.49366,0 0.98732,0.09873 1.38225,0.2962c0.49366,0.19746 0.88859,0.49366 1.28352,0.78986v0c0.2962,0.39493 0.59239,0.78986 0.78986,1.28352c0.19746,0.39493 0.2962,0.88859 0.2962,1.38225v11.65043c0,0.49366 -0.09873,0.98732 -0.2962,1.38225c-0.19746,0.49366 -0.49366,0.88859 -0.78986,1.28352v0c-0.39493,0.2962 -0.78986,0.59239 -1.28352,0.78986c-0.39493,0.19746 -0.88859,0.2962 -1.38225,0.2962h-11.65043c-0.49366,0 -0.98732,-0.09873 -1.38225,-0.2962c-0.49366,-0.19746 -0.88859,-0.49366 -1.28352,-0.78986v0c-0.2962,-0.39493 -0.59239,-0.78986 -0.78986,-1.28352c-0.19746,-0.39493 -0.2962,-0.88859 -0.2962,-1.38225v-11.65043c0,-0.49366 0.09873,-0.98732 0.2962,-1.38225c0.19746,-0.49366 0.49366,-0.88859 0.78986,-1.28352v0c0.39493,-0.2962 0.78986,-0.59239 1.28352,-0.78986c0.39493,-0.19746 0.88859,-0.2962 1.38225,-0.2962zM325.82522,170.52168h-11.65043c-0.49366,0 -0.98732,0.09873 -1.38225,0.2962c-0.49366,0.19746 -0.88859,0.39493 -1.18479,0.78986v0c-0.39493,0.2962 -0.59239,0.69113 -0.78986,1.18479c-0.19746,0.39493 -0.2962,0.88859 -0.2962,1.38225v11.65043c0,0.49366 0.09873,0.98732 0.2962,1.38225c0.19746,0.39493 0.39493,0.88859 0.78986,1.18479v0c0.2962,0.39493 0.69113,0.59239 1.18479,0.78986c0.39493,0.19746 0.88859,0.2962 1.38225,0.2962h11.65043c0.49366,0 0.98732,-0.09873 1.38225,-0.2962c0.39493,-0.19746 0.88859,-0.49366 1.18479,-0.78986v0c0.39493,-0.2962 0.59239,-0.78986 0.78986,-1.18479c0.19746,-0.39493 0.2962,-0.88859 0.2962,-1.38225v-11.65043c0,-0.49366 -0.09873,-0.98732 -0.2962,-1.38225c-0.19746,-0.49366 -0.39493,-0.88859 -0.78986,-1.18479v0c-0.2962,-0.39493 -0.78986,-0.59239 -1.18479,-0.78986c-0.39493,-0.19746 -0.88859,-0.2962 -1.38225,-0.2962zM314.17478,172.20013h11.65043c0.49366,0 0.98732,0.19746 1.38225,0.59239c0.39493,0.2962 0.59239,0.88859 0.59239,1.38225v11.65043c0,0.49366 -0.19746,0.98732 -0.59239,1.38225c-0.39493,0.39493 -0.88859,0.59239 -1.38225,0.59239h-11.65043c-0.49366,0 -1.08606,-0.19746 -1.38225,-0.59239c-0.39493,-0.39493 -0.59239,-0.88859 -0.59239,-1.38225v-11.65043c0,-0.49366 0.19746,-1.08606 0.59239,-1.38225c0.2962,-0.39493 0.88859,-0.59239 1.38225,-0.59239zM325.82522,172.29887h-11.65043c-0.49366,0 -0.98732,0.19746 -1.28352,0.59239c-0.39493,0.2962 -0.59239,0.78986 -0.59239,1.28352v11.65043c0,0.49366 0.19746,0.98732 0.59239,1.28352c0.2962,0.39493 0.78986,0.59239 1.28352,0.59239h11.65043c0.49366,0 0.98732,-0.19746 1.28352,-0.59239c0.39493,-0.2962 0.59239,-0.78986 0.59239,-1.28352v-11.65043c0,-0.49366 -0.19746,-0.98732 -0.59239,-1.28352c-0.2962,-0.39493 -0.78986,-0.59239 -1.28352,-0.59239z" fill="#fefefe" fill-rule="nonzero"/><path d="M323.9493,177.03803c-0.59239,0 -1.18479,-0.49366 -1.18479,-1.18479c0,-0.59239 0.59239,-1.18479 1.18479,-1.18479c0.69113,0 1.18479,0.59239 1.18479,1.18479c0,0.69113 -0.49366,1.18479 -1.18479,1.18479z" fill="#e63331" fill-rule="nonzero"/><path d="M323.9493,177.23549c-0.69113,0 -1.28352,-0.59239 -1.28352,-1.38225c0,-0.69113 0.59239,-1.28352 1.28352,-1.28352c0.78986,0 1.38225,0.59239 1.38225,1.28352v0.09873c0,0.69113 -0.59239,1.28352 -1.38225,1.28352zM323.9493,174.86591c-0.49366,0 -0.98732,0.39493 -0.98732,0.98732c0,0.59239 0.49366,1.08606 0.98732,1.08606c0.59239,0 1.08606,-0.49366 1.08606,-1.08606c0,-0.59239 -0.49366,-0.98732 -1.08606,-0.98732z" fill="#5a3547" fill-rule="nonzero"/><path d="M321.08606,178.12408l2.07338,3.45564l-2.07338,3.55437h-4.04803l-2.07338,-3.55437l2.07338,-3.45564z" fill="#e94c41" fill-rule="nonzero"/><path d="M317.23549,184.83789h3.75183l1.87592,-3.25817l-1.87592,-3.25817h-3.75183l-1.87592,3.25817zM321.28352,177.82789l2.17211,3.75183l-2.17211,3.85057h-4.44296l-2.17211,-3.85057l2.17211,-3.75183z" fill="#4e4e50" fill-rule="nonzero"/><path d="M317.33422,184.64043h3.45564l1.77718,-3.06071l-1.77718,-2.96197h-3.45564l-1.67845,2.96197zM321.28352,177.82789l2.17211,3.75183l-2.17211,3.85057h-4.44296l-2.17211,-3.85057l2.17211,-3.75183z" fill="#632225" fill-rule="nonzero"/><path d="M317.53169,183.85057l-0.09873,-0.09873c0,-0.09873 0,-0.09873 0,-0.19746l3.75183,-3.45564c0.09873,-0.09873 0.19746,0 0.19746,0.09873c-0.09873,0.69113 -0.98732,2.07338 -1.38225,2.07338c-0.49366,0.09873 -0.78986,0.2962 -0.88859,0.2962v0l-1.38225,1.18479c-0.09873,0.09873 -0.09873,0.09873 -0.19746,0.09873z" fill="#632225" fill-rule="nonzero"/><path d="M319.50634,182.46831c0.49366,0.49366 1.08606,0.98732 1.28352,1.18479v0.09873h-0.09873c0,0.09873 -0.09873,0.09873 -0.09873,0c-0.19746,-0.19746 -0.78986,-0.78986 -1.18479,-1.18479z" fill="#632225" fill-rule="nonzero"/><path d="M317.72915,181.48099l-1.08606,-1.18479l0.09873,-0.09873l1.08606,1.08606c0,0 0,0.09873 0.09873,0.09873c0,-0.09873 0,-0.19746 0,-0.19746l-1.08606,-1.08606h0.09873l1.08606,0.98732c0,0 0,0.09873 0.09873,0.09873c0,-0.09873 0,-0.19746 0,-0.19746l-1.08606,-1.08606v0l1.08606,0.98732c0,0 0.09873,0.09873 0.19746,0.09873c0,-0.09873 -0.09873,-0.19746 -0.09873,-0.19746l-0.98732,-0.98732v-0.09873c0,0 0.78986,0.59239 1.18479,1.08606c0.49366,0.39493 0.49366,0.69113 0.49366,0.69113c-0.09873,0.19746 0,0.39493 0.09873,0.49366l-0.09873,0.09873c-0.19746,-0.19746 -0.39493,-0.19746 -0.39493,-0.19746c-0.39493,0.09873 -0.78986,-0.39493 -0.78986,-0.39493z" fill="#632225" fill-rule="nonzero"/></g></g></g></svg>