<svg version="1.1" xmlns="http://www.w3.org/2000/svg" xmlns:xlink="http://www.w3.org/1999/xlink" width="19.1541" height="19.1541" viewBox="0,0,19.1541,19.1541"><g transform="translate(-310.42295,-170.42295)"><g data-paper-data="{&quot;isPaintingLayer&quot;:true}" stroke="none" stroke-width="1" stroke-linecap="butt" stroke-linejoin="miter" stroke-miterlimit="10" stroke-dasharray="" stroke-dashoffset="0" style="mix-blend-mode: normal"><path d="M314.18536,187.78135c-1.08619,0 -1.96672,-0.88053 -1.96672,-1.96672v-11.62928c0,-1.08619 0.88053,-1.96672 1.96672,-1.96672h11.62928c1.08619,0 1.96672,0.88053 1.96672,1.96672v11.62928c0,1.08619 -0.88053,1.96672 -1.96672,1.96672z" fill="#fefefe" fill-rule="evenodd"/><path d="M314.18536,170.50846h11.62927c1.02611,0 1.96672,0.34204 2.65079,1.02611v0c0.68408,0.68408 1.02611,1.62468 1.02611,2.65079v11.62928c0,1.02611 -0.34204,1.96672 -1.02611,2.65079v0c-0.68408,0.68407 -1.62468,1.02611 -2.65079,1.02611h-11.62927c-1.02611,0 -1.96672,-0.34204 -2.65079,-1.02611v0c-0.68408,-0.68408 -1.02611,-1.62468 -1.02611,-2.65079v-11.62928c0,-1.02611 0.34204,-1.96672 1.02611,-2.65079v0c0.68408,-0.68407 1.62468,-1.02611 2.65079,-1.02611zM314.18536,172.21865h11.62927c1.11162,0 1.96672,0.85509 1.96672,1.96672v11.62928c0,1.11162 -0.85509,1.96672 -1.96672,1.96672h-11.62927c-1.11162,0 -1.96672,-0.85509 -1.96672,-1.96672v-11.62928c0,-1.11162 0.85509,-1.96672 1.96672,-1.96672z" fill="#ef7f1a" fill-rule="evenodd"/><path d="M314.18536,170.42295h11.62927c0.51306,0 1.02611,0.08551 1.45366,0.25653c0.42755,0.25653 0.85509,0.51306 1.19713,0.85509v0c0.34204,0.34204 0.68408,0.76958 0.85509,1.19713c0.17102,0.42755 0.25653,0.9406 0.25653,1.45366v11.62928c0,0.51306 -0.08551,1.02611 -0.25653,1.45366c-0.17102,0.42755 -0.51306,0.85509 -0.85509,1.19713v0c-0.34204,0.34204 -0.76958,0.68407 -1.19713,0.85509c-0.42755,0.17102 -0.9406,0.25653 -1.45366,0.25653h-11.62927c-0.51306,0 -1.02611,-0.08551 -1.45366,-0.25653c-0.42755,-0.17102 -0.85509,-0.51306 -1.19713,-0.85509v0c-0.34204,-0.34204 -0.59857,-0.76958 -0.85509,-1.19713c-0.17102,-0.42755 -0.25653,-0.9406 -0.25653,-1.45366v-11.62928c0,-0.51306 0.08551,-1.02611 0.25653,-1.45366c0.25653,-0.42755 0.51306,-0.85509 0.85509,-1.19713v0c0.34204,-0.34204 0.76958,-0.59857 1.19713,-0.85509c0.42755,-0.17102 0.9406,-0.25653 1.45366,-0.25653zM325.81464,170.50846h-11.62927c-0.51306,0 -0.9406,0.08551 -1.36815,0.25653c-0.42755,0.25653 -0.85509,0.51306 -1.19713,0.85509v0c-0.34204,0.34204 -0.59857,0.76958 -0.85509,1.19713c-0.17102,0.42755 -0.25653,0.85509 -0.25653,1.36815v11.62928c0,0.51306 0.08551,0.9406 0.25653,1.36815c0.25653,0.51306 0.51306,0.85509 0.85509,1.19713v0c0.34204,0.34204 0.76958,0.59857 1.19713,0.85509c0.42755,0.17102 0.85509,0.25653 1.36815,0.25653h11.62927c0.51306,0 0.9406,-0.08551 1.36815,-0.25653c0.51306,-0.25653 0.85509,-0.51306 1.19713,-0.85509v0c0.34204,-0.34204 0.59857,-0.68408 0.85509,-1.19713c0.17102,-0.42755 0.25653,-0.85509 0.25653,-1.36815v-11.62928c0,-0.51306 -0.08551,-0.9406 -0.25653,-1.36815c-0.25653,-0.51306 -0.51306,-0.85509 -0.85509,-1.19713v0c-0.34204,-0.34204 -0.68407,-0.59857 -1.19713,-0.85509c-0.42755,-0.17102 -0.85509,-0.25653 -1.36815,-0.25653zM314.18536,172.21865h11.62927c0.51306,0 1.02611,0.17102 1.45366,0.59857c0.34204,0.34204 0.51306,0.85509 0.51306,1.36815v11.62928c0,0.51306 -0.17102,1.02611 -0.51306,1.45366c-0.42755,0.34204 -0.9406,0.51306 -1.45366,0.51306h-11.62927c-0.51306,0 -1.02611,-0.17102 -1.36815,-0.51306c-0.42755,-0.42755 -0.59857,-0.9406 -0.59857,-1.45366v-11.62928c0,-0.51306 0.17102,-1.02611 0.59857,-1.36815c0.34204,-0.42755 0.85509,-0.59857 1.36815,-0.59857zM325.81464,172.30416h-11.62927c-0.51306,0 -1.02611,0.17102 -1.36815,0.51306c-0.34204,0.34204 -0.51306,0.85509 -0.51306,1.36815v11.62928c0,0.51306 0.17102,1.02611 0.51306,1.36815c0.34204,0.34204 0.85509,0.51306 1.36815,0.51306h11.62927c0.51306,0 1.02611,-0.17102 1.36815,-0.51306c0.34204,-0.34204 0.51306,-0.85509 0.51306,-1.36815v-11.62928c0,-0.51306 -0.17102,-1.02611 -0.51306,-1.36815c-0.34204,-0.34204 -0.85509,-0.51306 -1.36815,-0.51306z" fill="#fefefe" fill-rule="nonzero"/><path d="M322.99283,176.75064c-0.59857,0 -1.19713,-0.51306 -1.19713,-1.11162c0,-0.68408 0.59857,-1.19713 1.19713,-1.19713c0.68408,0 1.19713,0.51306 1.19713,1.19713c0,0.59857 -0.51306,1.11162 -1.19713,1.11162z" fill="#e63331" fill-rule="nonzero"/><path d="M322.99283,176.92166c-0.68408,0 -1.28264,-0.59857 -1.28264,-1.28264c0,-0.76958 0.59857,-1.36815 1.28264,-1.36815c0.76958,0 1.36815,0.59857 1.36815,1.28264v0.08551c0,0.68408 -0.59857,1.28264 -1.36815,1.28264zM322.99283,174.5274c-0.51306,0 -1.02611,0.51306 -1.02611,1.11162c0,0.51306 0.51306,1.02611 1.02611,1.02611c0.59857,0 1.11162,-0.51306 1.11162,-1.02611c0,-0.59857 -0.51306,-1.11162 -1.11162,-1.11162z" fill="#5a3547" fill-rule="nonzero"/><path d="M325.64362,176.57963c-0.59857,0 -1.11162,-0.51306 -1.11162,-1.19713c0,-0.68408 0.51306,-1.19713 1.11162,-1.19713c0.68408,0 1.19713,0.51306 1.19713,1.19713c0,0.68408 -0.51306,1.19713 -1.19713,1.19713z" fill="#e63331" fill-rule="nonzero"/><path d="M325.64362,176.66513c-0.68407,0 -1.28264,-0.59857 -1.28264,-1.28264c0,-0.76958 0.59857,-1.36815 1.28264,-1.36815c0.76958,0 1.36815,0.59857 1.36815,1.28264v0.08551c0,0.76958 -0.59857,1.28264 -1.36815,1.28264zM325.64362,174.35638c-0.51306,0 -1.02611,0.42755 -1.02611,1.02611c0,0.59857 0.51306,1.02611 1.02611,1.02611c0.59857,0 1.11162,-0.42755 1.11162,-1.02611c0,-0.59857 -0.51306,-1.02611 -1.11162,-1.02611z" fill="#5a3547" fill-rule="nonzero"/><path d="M324.61751,178.80287c-0.68408,0 -1.19713,-0.51306 -1.19713,-1.19713c0,-0.59857 0.51306,-1.11162 1.19713,-1.11162c0.68408,0 1.19713,0.51306 1.19713,1.11162c0,0.68407 -0.51306,1.19713 -1.19713,1.19713z" fill="#e63331" fill-rule="nonzero"/><path d="M324.61751,178.97389c-0.68408,0 -1.28264,-0.59857 -1.28264,-1.36815c0,-0.68408 0.59857,-1.28264 1.28264,-1.28264c0.76958,0 1.28264,0.59857 1.36815,1.28264v0.08551c-0.08551,0.68407 -0.59857,1.28264 -1.36815,1.28264zM324.61751,176.57962c-0.59857,0 -1.02611,0.51306 -1.02611,1.02611c0,0.59857 0.42755,1.11162 1.02611,1.11162c0.59857,0 1.02611,-0.51306 1.02611,-1.11162c0,-0.51306 -0.42755,-1.02611 -1.02611,-1.02611z" fill="#5a3547" fill-rule="nonzero"/><path d="M317.94778,185.98566v0c-0.42755,0 -0.85509,-0.25653 -1.02611,-0.59857l-3.76241,-6.49871c-0.17102,-0.34204 -0.17102,-0.85509 0,-1.19713c0.17102,-0.34204 0.59857,-0.59857 1.02611,-0.59857h7.52483c0.34204,0 0.76958,0.25653 0.9406,0.59857c0.25653,0.34204 0.25653,0.85509 0,1.19713l-3.76241,6.49871c-0.17102,0.34204 -0.51306,0.59857 -0.9406,0.59857zM316.15208,179.48694l1.7957,2.99283l1.71019,-2.99283z" fill="#4e4e50" fill-rule="nonzero"/><path d="M319.74347,181.19713v0l-0.25653,0.34204v0l-1.19713,2.05222v0.08551h0.25653l-0.59857,1.11162l-0.68407,-1.11162h0.25653v-0.08551l-1.19713,-2.05222v0l-0.17102,-0.34204v0l-1.53917,-2.65079h6.66973z" fill="#fcc127" fill-rule="nonzero"/><path d="M321.88121,178.46083l-2.05222,3.59139l-0.9406,1.62468l-0.76958,1.28264c0,0 -0.08551,0.08551 -0.17102,0.08551c-0.08551,0 -0.17102,-0.08551 -0.25653,-0.08551l-0.68408,-1.28264l-0.9406,-1.62468l-2.13773,-3.59139c0,-0.08551 0,-0.17102 0,-0.25653c0.08551,-0.08551 0.17102,-0.17102 0.25653,-0.17102h7.52483c0.08551,0 0.17102,0.08551 0.17102,0.17102c0.08551,0.08551 0.08551,0.17102 0,0.25653z" fill="#fefefe" fill-rule="nonzero"/><path d="M317.43472,184.27547l-1.7957,-3.07834l0.34204,-0.59857l1.28264,-2.22324l0.25653,-0.59857h0.76958l1.53917,2.90732l0.34204,0.59857l-0.25653,0.34204l-1.45366,2.65079z" fill="#8c8e8f" fill-rule="nonzero"/><path d="M317.60574,177.86227l-0.34204,0.51306l-1.19713,2.22324v0.08551l-0.34204,0.51306l0.25653,0.42755l1.45366,2.65079h0.9406l1.53917,-2.65079l0.17102,-0.34204l-0.25653,-0.59857l-0.08551,-0.08551l-1.19713,-2.22324l-0.25653,-0.51306zM318.63185,178.28981l1.28264,2.30875v0l0.34204,0.59857v0.08551l-0.25653,0.42755l-1.53917,2.65079v0h-1.02611h-0.08551l-1.53917,-2.65079l-0.25653,-0.51306v0l0.34204,-0.59857h0.08551l1.19713,-2.30875l0.34204,-0.51306h0.76958z" fill="#fefefe" fill-rule="nonzero"/><path d="M318.03328,177.69125v0.17102h-0.17102v-0.17102z" fill="#fefefe" fill-rule="nonzero"/><path d="M318.03328,177.94777v0.17102h-0.25653v-0.17102z" fill="#fefefe" fill-rule="nonzero"/><path d="M318.03328,178.2043v0.25653h-0.25653v-0.25653z" fill="#fefefe" fill-rule="nonzero"/><path d="M318.03328,178.63185l0.08551,0.34204h-0.34204v-0.34204z" fill="#fefefe" fill-rule="nonzero"/><path d="M318.11879,179.23042v0.59857h-0.42755l0.08551,-0.59857z" fill="#fefefe" fill-rule="nonzero"/><path d="M318.2043,180.25653v0.9406h-0.59857l0.08551,-0.9406z" fill="#fefefe" fill-rule="nonzero"/><path d="M318.46083,184.44649h-1.02611l0.08551,-2.30875h0.76958z" fill="#fefefe" fill-rule="nonzero"/><path d="M322.30875,178.63185l-2.30875,3.84792l-0.59857,1.19713l-0.85509,1.45366c-0.17102,0.25653 -0.34204,0.34204 -0.59857,0.34204c-0.25653,0 -0.51306,-0.08551 -0.59857,-0.34204l-0.85509,-1.45366l-0.68407,-1.19713l-2.22324,-3.84792c-0.17102,-0.17102 -0.17102,-0.42755 0,-0.68408c0.08551,-0.17102 0.34204,-0.34204 0.59857,-0.34204h7.52483c0.25653,0 0.42755,0.17102 0.59857,0.34204c0.08551,0.25653 0.08551,0.51306 0,0.68408zM321.88121,178.2043c0,-0.08551 -0.08551,-0.17102 -0.17102,-0.17102h-7.52483c-0.08551,0 -0.17102,0.08551 -0.25653,0.17102c0,0.08551 0,0.17102 0,0.25653l2.13773,3.59139l0.9406,1.62468l0.68408,1.28264c0.08551,0 0.17102,0.08551 0.25653,0.08551c0.08551,0 0.17102,-0.08551 0.17102,-0.08551l0.76958,-1.28264l0.9406,-1.62468l2.05222,-3.59139c0.08551,-0.08551 0.08551,-0.17102 0,-0.25653z" fill="#ed7e2e" fill-rule="nonzero"/><path d="M322.30875,178.63185l-2.30875,3.84792l-0.59857,1.19713l-0.85509,1.45366c-0.17102,0.25653 -0.34204,0.34204 -0.59857,0.34204c-0.25653,0 -0.51306,-0.08551 -0.59857,-0.34204l-0.85509,-1.45366l-0.68407,-1.19713l-2.22324,-3.84792c-0.17102,-0.17102 -0.17102,-0.42755 0,-0.68408c0.08551,-0.17102 0.34204,-0.34204 0.59857,-0.34204h7.52483c0.25653,0 0.42755,0.17102 0.59857,0.34204c0.08551,0.25653 0.08551,0.51306 0,0.68408zM321.88121,178.2043c0,-0.08551 -0.08551,-0.17102 -0.17102,-0.17102h-7.52483c-0.08551,0 -0.17102,0.08551 -0.25653,0.17102c0,0.08551 0,0.17102 0,0.25653l2.13773,3.59139l0.9406,1.62468l0.68408,1.28264c0.08551,0 0.17102,0.08551 0.25653,0.08551c0.08551,0 0.17102,-0.08551 0.17102,-0.08551l0.76958,-1.28264l0.9406,-1.62468l2.05222,-3.59139c0.08551,-0.08551 0.08551,-0.17102 0,-0.25653z" fill="#ed7e2e" fill-rule="nonzero"/><path d="M314.18536,178.2043c-0.08551,0 -0.08551,0 -0.08551,0c-0.08551,0.08551 -0.08551,0.08551 0,0.17102l2.05223,3.59139l0.9406,1.62468l0.68407,1.28264c0.08551,0 0.08551,0.08551 0.17102,0.08551l0.08551,-0.08551l0.68408,-1.28264l0.9406,-1.62468l2.13773,-3.59139c0,-0.08551 0,-0.08551 0,-0.17102h-0.08551zM321.88121,178.2043c0.08551,0.08551 0.08551,0.17102 0,0.25653l-2.05222,3.59139l-0.9406,1.62468l-0.76958,1.28264c0,0 -0.08551,0.08551 -0.17102,0.08551c-0.08551,0 -0.17102,-0.08551 -0.25653,-0.08551l-0.68408,-1.28264l-0.9406,-1.62468l-2.13773,-3.59139c0,-0.08551 0,-0.17102 0,-0.25653c0.08551,-0.08551 0.17102,-0.17102 0.25653,-0.17102h7.52483c0.08551,0 0.17102,0.08551 0.17102,0.17102z" fill="#fefefe" fill-rule="nonzero"/></g></g></svg>