<svg version="1.1" xmlns="http://www.w3.org/2000/svg" xmlns:xlink="http://www.w3.org/1999/xlink" width="19.1542" height="19.1541" viewBox="0,0,19.1542,19.1541"><g transform="translate(-310.4229,-170.42295)"><g data-paper-data="{&quot;isPaintingLayer&quot;:true}" stroke="none" stroke-width="1" stroke-linecap="butt" stroke-linejoin="miter" stroke-miterlimit="10" stroke-dasharray="" stroke-dashoffset="0" style="mix-blend-mode: normal"><g><path d="M314.19849,187.73531c-1.06803,0 -1.93384,-0.8658 -1.93384,-1.93383v-11.60296c0,-1.06802 0.86581,-1.93383 1.93384,-1.93383h11.60303c1.06803,0 1.93384,0.8658 1.93384,1.93383v11.60296c0,1.06802 -0.86581,1.93383 -1.93384,1.93383z" fill="#fefefe" fill-rule="evenodd"/><path d="M314.19849,170.51504h11.60303c1.01296,0 1.93384,0.36835 2.57845,1.01296v0c0.7367,0.7367 1.10505,1.65757 1.10505,2.67052v11.60296c0,1.01296 -0.36835,1.93383 -1.10505,2.57844v0c-0.64461,0.7367 -1.56549,1.10504 -2.57845,1.10504h-11.60303c-1.01296,0 -1.93384,-0.36835 -2.67054,-1.10504v0c-0.64461,-0.64461 -1.01296,-1.56548 -1.01296,-2.57844v-11.60296c0,-1.01296 0.36835,-1.93383 1.01296,-2.67052v0c0.7367,-0.64461 1.65758,-1.01296 2.67054,-1.01296zM314.19849,172.26469h11.60303c1.10505,0 1.93384,0.82878 1.93384,1.93383v11.60296c0,1.10504 -0.82879,1.93383 -1.93384,1.93383h-11.60303c-1.10505,0 -1.93384,-0.82878 -1.93384,-1.93383v-11.60296c0,-1.10504 0.82879,-1.93383 1.93384,-1.93383z" fill="#ef7f1a" fill-rule="evenodd"/><path d="M314.19849,170.42295h11.60303c0.46044,0 1.01296,0.09209 1.4734,0.27626c0.36835,0.18417 0.82879,0.46044 1.19714,0.82878v0c0.36835,0.36835 0.64461,0.7367 0.82879,1.19713c0.18417,0.46044 0.27626,0.92087 0.27626,1.47339v11.60296c0,0.46044 -0.09209,1.01296 -0.27626,1.47339c-0.18418,0.36835 -0.46044,0.82878 -0.82879,1.19713v0c-0.36835,0.36835 -0.82879,0.64461 -1.19714,0.82878c-0.46044,0.18417 -1.01296,0.27626 -1.4734,0.27626h-11.60303c-0.55253,0 -1.01296,-0.09209 -1.4734,-0.27626c-0.46044,-0.18417 -0.82879,-0.46044 -1.19714,-0.82878v0c-0.36835,-0.36835 -0.64461,-0.82878 -0.82879,-1.19713c-0.18418,-0.46044 -0.27626,-1.01296 -0.27626,-1.47339v-11.60296c0,-0.55252 0.09209,-1.01296 0.27626,-1.47339c0.18417,-0.46044 0.46044,-0.82878 0.82879,-1.19713v0c0.36835,-0.36835 0.7367,-0.64461 1.19714,-0.82878c0.46044,-0.18417 0.92087,-0.27626 1.4734,-0.27626zM325.80151,170.51504h-11.60303c-0.55253,0 -1.01296,0.09209 -1.38131,0.27626c-0.46044,0.18417 -0.92088,0.46044 -1.19714,0.82878v0c-0.36835,0.27626 -0.64461,0.7367 -0.82879,1.19713c-0.18417,0.36835 -0.27626,0.82878 -0.27626,1.38131v11.60296c0,0.46044 0.09209,0.92087 0.27626,1.38131c0.18418,0.46044 0.46044,0.82878 0.82879,1.19713v0c0.27626,0.36835 0.7367,0.64461 1.19714,0.82878c0.36835,0.18417 0.82879,0.27626 1.38131,0.27626h11.60303c0.46044,0 0.92087,-0.09209 1.38131,-0.27626c0.46044,-0.18417 0.82879,-0.46044 1.19714,-0.82878v0c0.36835,-0.36835 0.64461,-0.7367 0.82879,-1.19713c0.18417,-0.46044 0.27626,-0.92087 0.27626,-1.38131v-11.60296c0,-0.55252 -0.09209,-1.01296 -0.27626,-1.38131c-0.18417,-0.46044 -0.46044,-0.92087 -0.82879,-1.19713v0c-0.36835,-0.36835 -0.7367,-0.64461 -1.19714,-0.82878c-0.46044,-0.18417 -0.92088,-0.27626 -1.38131,-0.27626zM314.19849,172.1726h11.60303c0.55252,0 1.01296,0.27626 1.38131,0.64461c0.36835,0.27626 0.64461,0.82878 0.64461,1.38131v11.60296c0,0.55252 -0.27626,1.01296 -0.64461,1.38131c-0.36835,0.36835 -0.82879,0.64461 -1.38131,0.64461h-11.60303c-0.55253,0 -1.10505,-0.27626 -1.38131,-0.64461c-0.36835,-0.36835 -0.64461,-0.82878 -0.64461,-1.38131v-11.60296c0,-0.55252 0.27626,-1.10504 0.64461,-1.38131c0.27626,-0.36835 0.82879,-0.64461 1.38131,-0.64461zM325.80151,172.26469h-11.60303c-0.55253,0 -1.01296,0.27626 -1.38131,0.55252c-0.27626,0.36835 -0.55253,0.82878 -0.55253,1.38131v11.60296c0,0.55252 0.27626,1.01296 0.55253,1.38131c0.36835,0.27626 0.82879,0.55252 1.38131,0.55252h11.60303c0.55252,0 1.01296,-0.27626 1.38131,-0.55252c0.27626,-0.36835 0.55253,-0.82878 0.55253,-1.38131v-11.60296c0,-0.55252 -0.27626,-1.01296 -0.55253,-1.38131c-0.36835,-0.27626 -0.82879,-0.55252 -1.38131,-0.55252z" fill="#fefefe" fill-rule="nonzero"/><path d="M318.06616,182.39426c-0.09209,0.09209 -0.27626,0.09209 -0.36835,0c-0.09209,-0.09209 -0.09209,-0.27626 0,-0.36835l4.32811,-4.69644c0.09209,-0.09209 0.27626,-0.09209 0.36835,0c0.09209,0.09209 0.09209,0.27626 0,0.36835z" fill="#2b2a29" fill-rule="nonzero"/><path d="M321.74966,186.07774h-0.09209l-1.56549,-1.65757l-0.09209,-0.09209v-2.30218c0,0 0.09209,0 0.09209,-0.09209l1.56549,-1.56548l0.09209,-0.09209h2.30219l0.09209,0.09209l1.56549,1.56548c0.09209,0.09209 0.09209,0.09209 0.09209,0.09209v2.30218c0,0 0,0.09209 -0.09209,0.09209l-1.56549,1.65757h-0.09209z" fill="#ed7f32" fill-rule="nonzero"/><path d="M321.74966,180.46044l-1.56549,1.56548v2.30218l1.56549,1.56548h2.30219l1.56549,-1.56548v-2.30218l-1.56549,-1.56548zM325.80151,184.51226l-1.56549,1.65757c0,0 -0.09209,0.09209 -0.18417,0.09209v0h-2.30219v0c-0.09209,0 -0.09209,-0.09209 -0.18417,-0.09209l-1.56549,-1.65757c-0.09209,0 -0.09209,-0.09209 -0.09209,-0.18417v-2.30218c0,0 0,-0.09209 0.09209,-0.18417l1.56549,-1.56548c0.09209,-0.09209 0.09209,-0.09209 0.18417,-0.09209v0h2.30219v0c0.09209,0 0.18417,0 0.18417,0.09209l1.56549,1.56548c0.09209,0.09209 0.09209,0.09209 0.09209,0.18417v2.30218c0,0.09209 0,0.18417 -0.09209,0.18417z" fill="#fefefe" fill-rule="nonzero"/><path d="M323.6835,181.19713c-0.09209,0.46044 -0.55253,0.82878 -0.64461,0.92087c-0.09209,0.09209 -0.36835,0.36835 -0.55252,0.7367h0.82879c-0.09209,-0.27626 -0.27626,-0.46044 -0.27626,-0.46044l0.18418,-0.18417c0,0 0.46044,0.36835 0.46044,1.01296c0.09209,0.55252 -0.36835,0.92087 -0.7367,1.28922c-0.18418,0.18417 -0.27626,0.27626 -0.36835,0.46044h0.7367c-0.09209,-0.09209 -0.18417,-0.27626 -0.27626,-0.36835l0.18418,-0.18417c0,0 0.46044,0.46044 0.46044,0.7367c0,0.36835 -0.27626,0.27626 -0.27626,0.09209c0.09209,0 0,-0.09209 0,-0.09209h-0.92088v0c0,0 -0.09209,0.27626 -0.18417,0.27626c-0.18418,0 -0.09209,-0.18417 -0.09209,-0.18417c0.09209,-0.64461 0.55253,-0.92087 0.92088,-1.28922c0.09209,-0.09209 0.18417,-0.18417 0.18417,-0.36835h-0.82879c0.09209,0.27626 0.27626,0.46044 0.27626,0.46044l-0.18417,0.18417c-0.64461,-0.55252 -0.46044,-1.19713 -0.36835,-1.56548c0.18417,-0.36835 0.55253,-0.7367 0.7367,-0.82878c0.09209,-0.09209 0.18417,-0.27626 0.27626,-0.36835h-0.64461c0.09209,0.18417 0.18417,0.27626 0.18417,0.27626l-0.18417,0.18417c-0.36835,-0.36835 -0.46044,-0.7367 -0.46044,-0.7367c0,0 -0.09209,-0.18417 0.09209,-0.18417c0.18417,-0.09209 0.18417,0.09209 0.18417,0.09209c0,0.09209 0.09209,0.09209 0.09209,0.18417h0.82879c0.09209,0 0.09209,-0.09209 0.09209,-0.09209c0,0 0,-0.27626 0.18417,-0.27626c0.18417,0.09209 0.09209,0.27626 0.09209,0.27626zM322.39428,182.94678c0,0.09209 0,0.18417 0,0.27626c0,0 0,0.09209 0,0.18417h1.01296c0,-0.09209 0,-0.27626 0,-0.46044z" fill="#fefefe" fill-rule="nonzero"/><path d="M319.17121,174.10643l1.56549,2.67052l-1.56549,2.76261h-3.13098l-1.65757,-2.76261l1.65757,-2.67052z" fill="#fcc127" fill-rule="nonzero"/><path d="M316.22441,179.2633h2.76263l1.38131,-2.48635l-1.38131,-2.39426h-2.76263l-1.38131,2.39426zM319.35539,173.73808l1.74966,3.03887l-1.74966,3.13096h-3.49932l-1.84175,-3.13096l1.84175,-3.03887z" fill="#5e3a25" fill-rule="nonzero"/><path d="M316.04024,179.44748h3.03889l1.4734,-2.67052l-1.4734,-2.57844h-3.03889l-1.4734,2.57844zM319.35539,173.73808l1.74966,3.03887l-1.74966,3.13096h-3.49932l-1.84175,-3.13096l1.84175,-3.03887z" fill="#4e4e50" fill-rule="nonzero"/><path d="M319.53956,175.94817c0,0.09209 0,0.09209 -0.09209,0.18417l-0.46044,0.36835c0,0 -0.18417,0 -0.18417,-0.09209l-0.09209,-0.09209c0,0 0,0 -0.09209,0v0v2.118c0,0.09209 0,0.18417 -0.09209,0.18417h-1.84175c-0.09209,0 -0.18418,-0.09209 -0.18418,-0.18417v-2.118v0v0l-0.27626,0.18417h-0.09209c-0.09209,0 -0.09209,0 -0.09209,-0.09209l-0.36835,-0.46044c-0.09209,0 -0.09209,-0.09209 -0.09209,-0.09209l0.09209,-0.09209l0.46044,-0.36835c0,0 0.36835,-0.36835 1.38131,-0.36835c1.28923,0 1.56549,0.27626 1.56549,0.36835l0.46044,0.46044c0,0.09209 0,0.09209 0,0.09209zM317.60573,175.21148c-0.36835,0 -0.55252,0.09209 -0.55252,0.18417c0.09209,0 0.46044,0.27626 0.55252,0.27626c0.09209,0 0.46044,-0.27626 0.46044,-0.27626c0,-0.09209 -0.18417,-0.18417 -0.46044,-0.18417z" fill="#5e3a25" fill-rule="nonzero"/><path d="M318.06616,176.77695h0.27626l-0.27626,0.55252h-0.27626l-0.18417,0.27626l-0.18417,-0.27626h-0.27626l-0.27626,-0.55252h0.27626l-0.36835,-0.55252h1.56549zM317.14529,176.77695h0.82879l0.27626,-0.46044h-1.38131zM317.69781,177.32948h-0.27626l0.18417,0.18417z" fill="#fcc127" fill-rule="nonzero"/></g></g></g></svg>