<svg version="1.1" xmlns="http://www.w3.org/2000/svg" xmlns:xlink="http://www.w3.org/1999/xlink" width="19.14112" height="19.13759" viewBox="0,0,19.14112,19.13759"><g transform="translate(-310.42444,-170.42121)"><g data-paper-data="{&quot;isPaintingLayer&quot;:true}" stroke="none" stroke-width="0" stroke-linecap="butt" stroke-linejoin="miter" stroke-miterlimit="10" stroke-dasharray="" stroke-dashoffset="0" style="mix-blend-mode: normal"><path d="M314.24985,187.81357c-1.08654,0 -1.96735,-0.88081 -1.96735,-1.96735v-11.59961c0,-1.08654 0.88081,-1.96735 1.96735,-1.96735h11.59961c1.08654,0 1.96735,0.88081 1.96735,1.96735v11.59961c0,1.08654 -0.88081,1.96735 -1.96735,1.96735z" fill="#fefefe" fill-rule="nonzero"/><path d="M314.14407,170.42121h11.59608c1.09297,0 1.96735,0.43719 2.62313,1.09297v0c0.76508,0.76508 1.09297,1.63946 1.09297,2.62666v11.59608c0,1.09297 -0.32789,1.96735 -1.09297,2.62666v0c-0.65578,0.76508 -1.53016,1.09297 -2.62666,1.09297h-11.59256c-0.98367,0 -1.85805,-0.32789 -2.62666,-1.09297v0c-0.65578,-0.65931 -1.09297,-1.53369 -1.09297,-2.62666v-11.59608c0,-0.98367 0.43719,-1.86158 1.09297,-2.62666v0c0.76508,-0.65578 1.64298,-1.09297 2.62666,-1.09297zM314.14407,172.27926h11.59608c1.09297,0 1.96735,0.87438 1.96735,1.85805v11.59608c0,1.09297 -0.87438,1.96735 -1.96735,1.96735h-11.59608c-0.98367,0 -1.85805,-0.87438 -1.85805,-1.96735v-11.59256c0,-0.98367 0.87438,-1.85805 1.85805,-1.85805z" fill="#ef7f1a" fill-rule="evenodd"/><path d="M314.14407,170.42121h11.59608c0.54649,0 1.09297,0.1093 1.53016,0.32789c0.43719,0.1093 0.87438,0.43719 1.20227,0.76508v0c0.32789,0.32789 0.54649,0.76508 0.76508,1.20227c0.21859,0.43719 0.32789,0.98367 0.32789,1.42086v11.59608c0,0.54649 -0.1093,1.09297 -0.32789,1.53016c-0.21859,0.43719 -0.43719,0.87438 -0.76508,1.20227v0c-0.32789,0.32789 -0.76508,0.54649 -1.20227,0.76508c-0.43719,0.21859 -0.98367,0.32789 -1.53016,0.32789h-11.59608c-0.43719,0 -0.98367,-0.1093 -1.42086,-0.32789c-0.43719,-0.21859 -0.87438,-0.43719 -1.20227,-0.76508v0c-0.32789,-0.32789 -0.65578,-0.76508 -0.76508,-1.20227c-0.22212,-0.43366 -0.33142,-0.98015 -0.33142,-1.52664v-11.59608c0,-0.43719 0.1093,-0.98367 0.32789,-1.42086c0.1093,-0.43719 0.43719,-0.87438 0.76508,-1.20227v0c0.32789,-0.32789 0.76508,-0.65578 1.20227,-0.76508c0.44071,-0.22212 0.9872,-0.33142 1.42439,-0.33142zM325.74016,170.5305h-11.59608c-0.43719,0 -0.87438,0.1093 -1.31157,0.21859c-0.43719,0.21859 -0.87438,0.54649 -1.20227,0.87438v0c-0.32789,0.32789 -0.65578,0.76508 -0.87438,1.20227c-0.1093,0.43719 -0.21859,0.87438 -0.21859,1.31157v11.59608c0,0.54649 0.1093,0.98367 0.21859,1.42086c0.21859,0.43719 0.54649,0.87438 0.87438,1.20227v0c0.32789,0.32789 0.76508,0.65578 1.20227,0.76508c0.43719,0.21859 0.87438,0.32789 1.31157,0.32789h11.59608c0.54649,0 0.98367,-0.1093 1.42086,-0.32789c0.43719,-0.1093 0.87438,-0.43719 1.20227,-0.76508v0c0.32789,-0.32789 0.65578,-0.76508 0.76508,-1.20227c0.21859,-0.43719 0.32789,-0.87438 0.32789,-1.42086v-11.59256c0,-0.43719 -0.1093,-0.87438 -0.32789,-1.31157c-0.1093,-0.43719 -0.43719,-0.87438 -0.76508,-1.20227v0c-0.32789,-0.32789 -0.76508,-0.65578 -1.20227,-0.87438c-0.43719,-0.1093 -0.87438,-0.21859 -1.42086,-0.21859zM314.14407,172.16996h11.59608c0.54649,0 1.09297,0.21859 1.42086,0.54649c0.43719,0.43719 0.65578,0.87438 0.65578,1.42086v11.59608c0,0.54649 -0.21859,1.09297 -0.65578,1.42086c-0.32789,0.43719 -0.87438,0.65578 -1.42086,0.65578h-11.59608c-0.54649,0 -0.98367,-0.21859 -1.42086,-0.65578c-0.32789,-0.32789 -0.54649,-0.87438 -0.54649,-1.42086v-11.59256c0,-0.54649 0.21859,-0.98367 0.54649,-1.42086c0.43719,-0.32789 0.87438,-0.54649 1.42086,-0.54649zM325.74016,172.27926h-11.59608c-0.43719,0 -0.98367,0.21859 -1.31157,0.54649c-0.32789,0.32789 -0.54649,0.87438 -0.54649,1.31157v11.59608c0,0.54649 0.21859,1.09297 0.54649,1.42086c0.32789,0.32789 0.87438,0.54649 1.31157,0.54649h11.59608c0.54649,0 1.09297,-0.21859 1.42086,-0.54649c0.32789,-0.32789 0.54649,-0.87438 0.54649,-1.42086v-11.59256c0,-0.43719 -0.21859,-0.98367 -0.54649,-1.31157c-0.32789,-0.32789 -0.87438,-0.54649 -1.42086,-0.54649z" fill="#fefefe" fill-rule="nonzero"/><path d="M322.56701,176.65467c-0.65578,0 -1.20227,-0.54649 -1.20227,-1.20227c0,-0.65578 0.54649,-1.09297 1.20227,-1.09297c0.65578,0 1.20227,0.43719 1.20227,1.09297c0,0.65578 -0.54649,1.20227 -1.20227,1.20227z" fill="#e63331" fill-rule="nonzero"/><path d="M322.56701,176.76397c-0.76508,0 -1.31157,-0.54649 -1.31157,-1.31157c0,-0.65578 0.54649,-1.31157 1.31157,-1.31157c0.65578,0 1.31157,0.65578 1.31157,1.31157v0.1093c0,0.65578 -0.65578,1.20227 -1.31157,1.20227zM322.56701,174.46873c-0.65578,0 -1.09297,0.43719 -1.09297,0.98367c0,0.65578 0.43719,1.09297 1.09297,1.09297c0.54649,0 0.98367,-0.43719 0.98367,-1.09297c0,-0.54649 -0.43719,-0.98367 -0.98367,-0.98367z" fill="#5a3547" fill-rule="nonzero"/><path d="M324.53436,178.51625c-0.65578,0 -1.20227,-0.43719 -1.20227,-1.09297c0,-0.65578 0.54649,-1.20227 1.20227,-1.20227c0.65578,0 1.20227,0.54649 1.20227,1.20227c0,0.65578 -0.54649,1.09297 -1.20227,1.09297z" fill="#e63331" fill-rule="nonzero"/><path d="M324.53436,178.73485c-0.76508,0 -1.31157,-0.65578 -1.31157,-1.31157c0,-0.76508 0.54649,-1.42086 1.31157,-1.42086c0.76508,0 1.31157,0.65578 1.31157,1.31157v0.1093c0,0.65578 -0.54649,1.31157 -1.31157,1.31157zM324.53436,176.32678c-0.54649,0 -1.09297,0.43719 -1.09297,1.09297c0,0.54649 0.54649,0.98367 1.09297,0.98367c0.54649,0 1.09297,-0.43719 1.09297,-0.98367c0,-0.65578 -0.54649,-1.09297 -1.09297,-1.09297z" fill="#5a3547" fill-rule="nonzero"/><g fill-rule="nonzero"><path d="M316.71432,181.13938c-0.94842,0 -1.74876,-0.36315 -2.33402,-1.09297c-0.07404,-0.07404 -0.07404,-0.14455 0,-0.21859c0.36315,-0.43719 0.58174,-1.09297 0.58174,-1.67824c0,-0.65578 -0.21859,-1.31157 -0.58174,-1.74876c-0.07404,-0.07404 -0.07404,-0.14455 0,-0.21859c0.58174,-0.65578 1.38561,-1.09297 2.33402,-1.09297c0.87438,0 1.74876,0.43719 2.33402,1.09297v0.21859c-0.43719,0.43719 -0.65578,1.09297 -0.65578,1.74876c0,0.58174 0.21859,1.24105 0.65578,1.67824v0.21859c-0.58174,0.72982 -1.45965,1.09297 -2.33402,1.09297z" fill="#e84743"/><path d="M314.45434,176.25627c0.43719,0.51123 0.72982,1.16701 0.72982,1.89684c0,0.65578 -0.29263,1.31157 -0.72982,1.8228c0.58174,0.58527 1.31157,1.02246 2.25998,1.02246c0.87438,0 1.67472,-0.44071 2.18594,-1.02246c-0.43719,-0.51123 -0.65578,-1.16701 -0.65578,-1.8228c0,-0.72982 0.21859,-1.38561 0.65578,-1.89684c-0.5077,-0.58527 -1.31157,-1.02246 -2.18594,-1.02246c-0.94842,0 -1.67824,0.44071 -2.25998,1.02246zM316.27361,181.28746c-0.80034,-0.14455 -1.53016,-0.51123 -2.04139,-1.16701c0,0 -0.07404,-0.07051 -0.07404,-0.14455v-0.07404c0,0 0.07404,-0.07051 0.07404,-0.14455c0.36315,-0.43719 0.58174,-1.02246 0.58174,-1.6042c0,-0.65578 -0.21859,-1.24105 -0.58174,-1.67824c0,-0.07051 -0.07404,-0.07051 -0.07404,-0.14455v-0.07404c0,-0.07051 0.07404,-0.14455 0.07404,-0.14455c0.58174,-0.72982 1.53016,-1.16701 2.47858,-1.16701c0.94842,0 1.82632,0.43719 2.40806,1.16701c0.07404,0.07051 0.07404,0.28911 0,0.36315c-0.36315,0.43719 -0.58174,1.02246 -0.58174,1.67824c0,0.58174 0.21859,1.16701 0.58174,1.6042c0.07404,0.14455 0.07404,0.28911 0,0.36315c-0.5077,0.65578 -1.23753,1.02246 -1.96735,1.16701h-0.87438z" fill="#4e4e50"/><path d="M317.43004,175.81203c0.14808,0 0.07404,0.21859 0.07404,0.21859c-0.14455,0.43719 -0.58527,0.87438 -0.65578,0.94842c-0.07051,0.07404 -0.43719,0.36667 -0.58174,0.72982h0.87438c-0.07051,-0.21859 -0.36315,-0.43719 -0.36315,-0.43719l0.21859,-0.21859c0,0 0.51123,0.44071 0.51123,1.02246c0.07051,0.65578 -0.36667,1.02246 -0.80386,1.38561c-0.14455,0.14808 -0.28911,0.36667 -0.36315,0.51123h0.80386c-0.14808,-0.14455 -0.21859,-0.28911 -0.29263,-0.36315l0.14455,-0.21859c0,0 0.51123,0.43719 0.51123,0.80386c0,0.36667 -0.29263,0.29263 -0.29263,0.07404v-0.14455h-0.94842c0,0 -0.07404,0.36315 -0.21859,0.36315c-0.21859,0 -0.14455,-0.29263 -0.14455,-0.29263c0.14455,-0.65931 0.58527,-0.8779 0.94842,-1.24105c0.14808,-0.14455 0.21859,-0.28911 0.29263,-0.36315l-0.87438,-0.07404c0.07404,0.29263 0.29263,0.51123 0.29263,0.51123l-0.21859,0.21859c-0.65578,-0.65578 -0.5077,-1.24105 -0.36315,-1.67824c0.14808,-0.36315 0.51123,-0.72982 0.72982,-0.87438c0.14808,-0.07051 0.21859,-0.21859 0.29263,-0.36315h-0.65578c0.14455,0.14808 0.21859,0.29263 0.21859,0.29263l-0.21859,0.21859c-0.36315,-0.36667 -0.43719,-0.80386 -0.43719,-0.80386c0,0 -0.07051,-0.14455 0.07404,-0.21859c0.14455,-0.07404 0.21859,0.14455 0.21859,0.14455c0,0.07404 0,0.14455 0.07404,0.21859h0.87438c0,-0.07051 0.07404,-0.14455 0.07404,-0.14455c0,0 0,-0.29263 0.21859,-0.21859zM316.20309,177.85694c0,0.07404 -0.07404,0.14455 -0.07404,0.21859c0,0.14808 0,0.21859 0.07404,0.29263h0.94842c0.07404,-0.14455 0.07404,-0.36315 0.07404,-0.43719z" fill="#4e4e50"/></g><g fill-rule="nonzero"><path d="M321.80898,186.45264c-0.46892,0 -0.93784,-0.39135 -1.25163,-1.01541c-0.15513,0.07757 -0.39135,0.2327 -0.46892,0.31379h-0.2327c-0.70162,-0.54649 -1.09297,-1.40676 -1.09297,-2.3446c0,-0.86027 0.39135,-1.72055 1.09297,-2.3446h0.2327c0.07757,0.15513 0.31379,0.2327 0.46892,0.31379c0.31379,-0.62405 0.78271,-1.01541 1.25163,-1.01541c0.46892,0 0.93784,0.39135 1.25163,1.01541c0.15513,-0.07757 0.31379,-0.15513 0.46892,-0.31379h0.2327c0.62405,0.62405 1.01541,1.48433 1.01541,2.3446c0,0.93784 -0.39135,1.79812 -1.01541,2.3446h-0.2327c-0.15513,-0.07757 -0.31379,-0.2327 -0.46892,-0.31379c-0.31379,0.62405 -0.78271,1.01541 -1.25163,1.01541z" fill="#4e4e50"/><path d="M320.63844,181.6083v0c-0.07757,0 -0.46892,-0.23622 -0.70162,-0.39135c-0.62405,0.55001 -1.01541,1.3292 -1.01541,2.18947c0,0.86027 0.39135,1.72055 1.01541,2.18947c0.2327,-0.15866 0.62405,-0.31379 0.70162,-0.31379v0c0.2327,0.62405 0.70162,1.01541 1.17054,1.01541c0.46892,0 0.85675,-0.39135 1.17054,-1.01541v0c0,0 0.46892,0.15866 0.62405,0.31379c0.62405,-0.46892 1.01541,-1.3292 1.01541,-2.18947c0,-0.86027 -0.39135,-1.64298 -1.01541,-2.18947c-0.15513,0.15866 -0.62405,0.39135 -0.62405,0.39135v0c-0.31026,-0.62405 -0.70162,-1.09297 -1.17054,-1.09297c-0.46892,0 -0.93784,0.46892 -1.17054,1.09297zM323.13818,181.14291c0.08109,-0.07757 0.23622,-0.07757 0.31379,-0.15513c0,-0.07757 0.07757,-0.07757 0.15513,-0.07757c0.07757,0 0.15513,0 0.2327,0.07757c0.70162,0.62405 1.17054,1.48433 1.17054,2.42217c0,0.93784 -0.46892,1.87568 -1.17054,2.49973c-0.07757,0 -0.15513,0.07757 -0.2327,0.07757c-0.07757,0 -0.15513,-0.07757 -0.15513,-0.07757c-0.08109,-0.07757 -0.23622,-0.15513 -0.31379,-0.2327c-0.39135,0.62405 -0.86027,0.93784 -1.3292,0.93784c-0.54649,0 -1.01541,-0.31379 -1.3292,-0.93784c-0.15866,0.07757 -0.23622,0.15513 -0.31379,0.2327c-0.07757,0 -0.15513,0.07757 -0.2327,0.07757c-0.07757,0 -0.15513,-0.07757 -0.15513,-0.07757c-0.77918,-0.62405 -1.17054,-1.56189 -1.17054,-2.49973c0,-0.93784 0.38783,-1.79812 1.17054,-2.42217c0,-0.07757 0.07757,-0.07757 0.15513,-0.07757c0.07757,0 0.15161,0 0.2327,0.07757c0.08109,0.07757 0.15866,0.07757 0.31379,0.15513c0.31379,-0.54649 0.78271,-0.93784 1.3292,-0.93784c0.46892,0 0.93784,0.39135 1.3292,0.93784z" fill="#4e4e50"/><path d="M321.80898,186.45264c-0.46892,0 -0.93784,-0.39135 -1.25163,-1.01541c-0.15513,0.07757 -0.39135,0.2327 -0.46892,0.31379h-0.2327c-0.70162,-0.54649 -1.09297,-1.40676 -1.09297,-2.3446c0,-0.86027 0.39135,-1.72055 1.09297,-2.3446h0.2327c0.07757,0.15513 0.31379,0.2327 0.46892,0.31379c0.31379,-0.62405 0.78271,-1.01541 1.25163,-1.01541c0.46892,0 0.93784,0.39135 1.25163,1.01541c0.15513,-0.07757 0.31379,-0.15513 0.46892,-0.31379h0.2327c0.62405,0.62405 1.01541,1.48433 1.01541,2.3446c0,0.93784 -0.39135,1.79812 -1.01541,2.3446h-0.2327c-0.15513,-0.07757 -0.31379,-0.2327 -0.46892,-0.31379c-0.31379,0.62405 -0.78271,1.01541 -1.25163,1.01541z" fill="#fecf1e"/><path d="M320.63844,181.6083v0c-0.07757,0 -0.46892,-0.23622 -0.70162,-0.39135c-0.62405,0.55001 -1.01541,1.3292 -1.01541,2.18947c0,0.86027 0.39135,1.72055 1.01541,2.18947c0.2327,-0.15866 0.62405,-0.31379 0.70162,-0.31379v0c0.2327,0.62405 0.70162,1.01541 1.17054,1.01541c0.46892,0 0.85675,-0.39135 1.17054,-1.01541v0c0,0 0.46892,0.15866 0.62405,0.31379c0.62405,-0.46892 1.01541,-1.3292 1.01541,-2.18947c0,-0.86027 -0.39135,-1.64298 -1.01541,-2.18947c-0.15513,0.15866 -0.62405,0.39135 -0.62405,0.39135v0c-0.31026,-0.62405 -0.70162,-1.09297 -1.17054,-1.09297c-0.46892,0 -0.93784,0.46892 -1.17054,1.09297zM323.13818,181.14291c0.08109,-0.07757 0.23622,-0.07757 0.31379,-0.15513c0,-0.07757 0.07757,-0.07757 0.15513,-0.07757c0.07757,0 0.15513,0 0.2327,0.07757c0.70162,0.62405 1.17054,1.48433 1.17054,2.42217c0,0.93784 -0.46892,1.87568 -1.17054,2.49973c-0.07757,0 -0.15513,0.07757 -0.2327,0.07757c-0.07757,0 -0.15513,-0.07757 -0.15513,-0.07757c-0.08109,-0.07757 -0.23622,-0.15513 -0.31379,-0.2327c-0.39135,0.62405 -0.86027,0.93784 -1.3292,0.93784c-0.54649,0 -1.01541,-0.31379 -1.3292,-0.93784c-0.15866,0.07757 -0.23622,0.15513 -0.31379,0.2327c-0.07757,0 -0.15513,0.07757 -0.2327,0.07757c-0.07757,0 -0.15513,-0.07757 -0.15513,-0.07757c-0.77918,-0.62405 -1.17054,-1.56189 -1.17054,-2.49973c0,-0.93784 0.38783,-1.79812 1.17054,-2.42217c0,-0.07757 0.07757,-0.07757 0.15513,-0.07757c0.07757,0 0.15161,0 0.2327,0.07757c0.08109,0.07757 0.15866,0.07757 0.31379,0.15513c0.31379,-0.54649 0.78271,-0.93784 1.3292,-0.93784c0.46892,0 0.93784,0.39135 1.3292,0.93784z" fill="#4e4e50"/><path d="M321.02275,185.75455c-0.07757,0 -0.07757,-0.2327 -0.07757,-0.2327c0.15513,-0.46892 0.54649,-0.86027 0.70162,-0.93784c0.07757,-0.08109 0.39135,-0.39135 0.54649,-0.78271h-0.86027c0.08109,0.23622 0.31379,0.46892 0.31379,0.46892l-0.2327,0.2327c0,0 -0.46892,-0.46539 -0.46892,-1.09297c0,-0.62758 0.39135,-1.01541 0.78271,-1.3292c0.23622,-0.15513 0.31379,-0.39135 0.39135,-0.46892h-0.78271l0.31379,0.31379l-0.2327,0.2327c0,0 -0.46892,-0.46892 -0.46892,-0.78271c0,-0.39135 0.31379,-0.31026 0.31379,-0.07757c-0.07757,0 0,0.07757 0,0.07757l0.93784,0.07757v-0.07757c0,0 0.07757,-0.31379 0.2327,-0.31379c0.15513,0 0.07757,0.2327 0.07757,0.2327c-0.07757,0.70514 -0.54649,0.93784 -0.93784,1.3292c-0.07757,0.08109 -0.15513,0.23622 -0.2327,0.31379l0.86027,0.07757c-0.08109,-0.31379 -0.31379,-0.46892 -0.31379,-0.46892l0.2327,-0.2327c0.70514,0.62405 0.55001,1.2481 0.39135,1.63946c-0.15866,0.39135 -0.55001,0.78271 -0.78271,0.86027c-0.08109,0.15866 -0.23622,0.23622 -0.31379,0.39135h0.70162c-0.07757,-0.15866 -0.2327,-0.31379 -0.2327,-0.31379l0.2327,-0.15513c0.39135,0.39135 0.46892,0.78271 0.46892,0.78271c0,0 0.07757,0.15513 -0.07757,0.2327c-0.15513,0 -0.2327,-0.15513 -0.2327,-0.15513c0,-0.07757 0,-0.15513 -0.07757,-0.2327h-0.86027c0,0.07757 -0.07757,0.15513 -0.07757,0.15513c0,0 0,0.2327 -0.2327,0.2327zM321.25897,183.63912h1.01541c0,-0.07757 0,-0.15513 0.07757,-0.2327c0,-0.07757 -0.07757,-0.15513 -0.07757,-0.2327h-1.01541v0.46892z" fill="#4e4e50"/></g></g></g></svg>