<svg version="1.1" xmlns="http://www.w3.org/2000/svg" xmlns:xlink="http://www.w3.org/1999/xlink" width="19.1541" height="19.1541" viewBox="0,0,19.1541,19.1541"><g transform="translate(-310.42295,-170.42295)"><g data-paper-data="{&quot;isPaintingLayer&quot;:true}" stroke="none" stroke-width="1" stroke-linecap="butt" stroke-linejoin="miter" stroke-miterlimit="10" stroke-dasharray="" stroke-dashoffset="0" style="mix-blend-mode: normal"><g><path d="M314.1622,187.74558c-1.05364,0 -1.90778,-0.85414 -1.90778,-1.90778v-11.67561c0,-1.05364 0.85414,-1.90778 1.90778,-1.90778h11.67561c1.05364,0 1.90778,0.85414 1.90778,1.90778v11.67561c0,1.05364 -0.85414,1.90778 -1.90778,1.90778z" fill="#fefefe" fill-rule="evenodd"/><path d="M314.1622,170.49926h11.5993c1.06836,0 1.98409,0.38156 2.67089,1.06836v0c0.6868,0.6868 1.06836,1.60253 1.06836,2.59458v11.5993c0,1.06836 -0.38156,1.98409 -1.06836,2.67089v0c-0.6868,0.6868 -1.60253,1.06836 -2.67089,1.06836h-11.5993c-0.99205,0 -1.90778,-0.38156 -2.59458,-1.06836v0c-0.6868,-0.6868 -1.06836,-1.60253 -1.06836,-2.67089v-11.5993c0,-0.99205 0.38156,-1.90778 1.06836,-2.59458v0c0.6868,-0.6868 1.60253,-1.06836 2.59458,-1.06836zM314.1622,172.25442h11.5993c1.06836,0 1.98409,0.83942 1.98409,1.90778v11.5993c0,1.06836 -0.91573,1.98409 -1.98409,1.98409h-11.5993c-1.06836,0 -1.90778,-0.91573 -1.90778,-1.98409v-11.5993c0,-1.06836 0.83942,-1.90778 1.90778,-1.90778z" fill="#ef7f1a" fill-rule="evenodd"/><path d="M314.1622,170.42295h11.5993c0.53418,0 0.99205,0.07631 1.44991,0.30524c0.45787,0.15262 0.91573,0.45787 1.22098,0.76311v0.07631c0.38156,0.30524 0.61049,0.76311 0.83942,1.22098c0.15262,0.38156 0.30524,0.91573 0.30524,1.3736v11.5993c0,0.53418 -0.15262,0.99205 -0.30524,1.44991c-0.22893,0.45787 -0.45787,0.91573 -0.83942,1.22098v0c-0.30524,0.38156 -0.76311,0.61049 -1.22098,0.83942c-0.45787,0.15262 -0.91573,0.30524 -1.44991,0.30524h-11.5993c-0.45787,0 -0.99205,-0.15262 -1.3736,-0.30524c-0.45787,-0.22893 -0.91573,-0.45787 -1.22098,-0.83942h-0.07631c-0.30524,-0.30524 -0.61049,-0.76311 -0.76311,-1.22098c-0.22893,-0.45787 -0.30524,-0.91573 -0.30524,-1.44991v-11.5993c0,-0.45787 0.07631,-0.99205 0.30524,-1.3736c0.15262,-0.45787 0.45787,-0.91573 0.76311,-1.22098l0.07631,-0.07631c0.30524,-0.30524 0.76311,-0.61049 1.22098,-0.76311c0.38156,-0.22893 0.91573,-0.30524 1.3736,-0.30524zM325.76149,170.49926h-11.5993c-0.45787,0 -0.91573,0.15262 -1.3736,0.30524c-0.45787,0.15262 -0.83942,0.45787 -1.22098,0.76311v0c-0.30524,0.38156 -0.61049,0.76311 -0.76311,1.22098c-0.15262,0.45787 -0.30524,0.91573 -0.30524,1.3736v11.5993c0,0.53418 0.15262,0.99205 0.30524,1.44991c0.15262,0.38156 0.45787,0.83942 0.76311,1.14467v0c0.38156,0.38156 0.76311,0.61049 1.22098,0.83942c0.45787,0.15262 0.91573,0.22893 1.3736,0.22893h11.5993c0.53418,0 0.99205,-0.07631 1.44991,-0.22893c0.38156,-0.22893 0.83942,-0.45787 1.14467,-0.83942v0c0.38156,-0.30524 0.61049,-0.76311 0.83942,-1.14467c0.15262,-0.45787 0.22893,-0.91573 0.22893,-1.44991v-11.5993c0,-0.45787 -0.07631,-0.91573 -0.22893,-1.3736c-0.22893,-0.45787 -0.45787,-0.83942 -0.83942,-1.22098v0c-0.30524,-0.30524 -0.76311,-0.61049 -1.14467,-0.76311c-0.45787,-0.15262 -0.91573,-0.30524 -1.44991,-0.30524zM314.1622,172.17811h11.5993c0.61049,0 1.06836,0.22893 1.44991,0.61049c0.38156,0.38156 0.61049,0.83942 0.61049,1.3736v11.5993c0,0.61049 -0.22893,1.06836 -0.61049,1.44991c-0.38156,0.38156 -0.83942,0.61049 -1.44991,0.61049h-11.5993c-0.53418,0 -0.99205,-0.22893 -1.3736,-0.61049c-0.38156,-0.38156 -0.61049,-0.83942 -0.61049,-1.44991v-11.5993c0,-0.53418 0.22893,-0.99205 0.61049,-1.3736c0.38156,-0.38156 0.83942,-0.61049 1.3736,-0.61049zM325.76149,172.25442h-11.5993c-0.53418,0 -0.99205,0.22893 -1.29729,0.61049c-0.38156,0.30524 -0.61049,0.76311 -0.61049,1.29729v11.5993c0,0.53418 0.22893,0.99205 0.61049,1.3736c0.30524,0.30524 0.76311,0.53418 1.29729,0.53418h11.5993c0.53418,0 0.99205,-0.22893 1.3736,-0.53418c0.30524,-0.38156 0.53418,-0.83942 0.53418,-1.3736v-11.5993c0,-0.53418 -0.22893,-0.99205 -0.53418,-1.29729c-0.38156,-0.38156 -0.83942,-0.61049 -1.3736,-0.61049z" fill="#fefefe" fill-rule="nonzero"/><path d="M317.97775,182.02225c-0.15262,0.07631 -0.30524,0.07631 -0.38156,0c-0.07631,-0.07631 -0.07631,-0.22893 0,-0.38156l4.34974,-4.65498c0.07631,-0.07631 0.22893,-0.07631 0.38156,0c0.07631,0.07631 0.07631,0.22893 0,0.38156z" fill="#2b2a29" fill-rule="nonzero"/><path d="M324.23527,176.37522c-0.6868,0 -1.22098,-0.53418 -1.22098,-1.22098c0,-0.61049 0.53418,-1.14467 1.22098,-1.14467c0.61049,0 1.14467,0.53418 1.14467,1.14467c0,0.6868 -0.53418,1.22098 -1.14467,1.22098z" fill="#e63331" fill-rule="nonzero"/><path d="M324.23527,176.52784c-0.76311,0 -1.3736,-0.61049 -1.3736,-1.3736c0,-0.6868 0.61049,-1.29729 1.3736,-1.29729c0.6868,0 1.29729,0.53418 1.29729,1.29729v0.07631c0,0.6868 -0.61049,1.29729 -1.29729,1.29729zM324.23527,174.08589c-0.61049,0 -1.06836,0.53418 -1.06836,1.06836c0,0.61049 0.45787,1.06836 1.06836,1.06836c0.53418,0 0.99205,-0.45787 0.99205,-1.06836c0,-0.53418 -0.45787,-1.06836 -0.99205,-1.06836z" fill="#5a3547" fill-rule="nonzero"/><path d="M317.21464,179.80922l0.22893,0.38156l-1.22098,0.53418l-1.22098,-0.53418l0.15262,-0.38156l-0.53418,-0.61049l0.61049,-0.6868l-0.22893,-0.38156l1.22098,-0.53418l1.22098,0.53418c0,0 -0.22893,0.22893 -0.22893,0.38156l0.61049,0.6868z" fill="#00abe8" fill-rule="nonzero"/><path d="M315.00162,178.13038l0.22893,0.38156l-0.61049,0.6868l0.53418,0.61049l-0.15262,0.38156l1.22098,0.53418l1.22098,-0.53418l-0.22893,-0.38156l0.61049,-0.61049l-0.61049,-0.6868c0,-0.15262 0.22893,-0.38156 0.22893,-0.38156l-1.22098,-0.53418zM316.29891,177.44358l1.22098,0.53418c0,0 0.07631,0.07631 0.07631,0.15262v0.07631c-0.07631,0.07631 -0.15262,0.15262 -0.22893,0.30524c0.07631,0 0.15262,0.07631 0.22893,0.22893c0.15262,0.15262 0.30524,0.30524 0.30524,0.30524c0.07631,0 0.07631,0.07631 0.07631,0.07631v0.07631c0,0 0,0.07631 -0.07631,0.07631l-0.45787,0.53418l0.15262,0.30524c0,0 0,0.07631 0,0.15262l-0.07631,0.07631l-1.22098,0.53418c-0.07631,0.07631 -0.07631,0.07631 -0.07631,0.07631v0v0v0v0v0v0c-0.07631,0 -0.07631,0 -0.07631,-0.07631l-1.22098,-0.53418c-0.07631,0 -0.07631,-0.07631 -0.07631,-0.07631c-0.07631,-0.07631 -0.07631,-0.15262 0,-0.15262l0.15262,-0.30524l-0.53418,-0.53418c-0.07631,-0.07631 -0.07631,-0.15262 0,-0.22893l0.53418,-0.53418l-0.15262,-0.30524c-0.07631,0 -0.07631,-0.07631 0,-0.07631c0,-0.07631 0,-0.15262 0.07631,-0.15262l1.22098,-0.53418c0,0 0,-0.07631 0.07631,-0.07631c0,0 0,0.07631 0.07631,0.07631z" fill="#4e4e50" fill-rule="nonzero"/><path d="M316.68046,177.97775c-0.07631,0.30524 -0.30524,0.53418 -0.38156,0.53418c-0.07631,0.07631 -0.22893,0.22893 -0.30524,0.45787h0.45787c-0.07631,-0.15262 -0.15262,-0.30524 -0.15262,-0.30524l0.07631,-0.07631c0,0 0.30524,0.22893 0.30524,0.53418c0,0.38156 -0.22893,0.61049 -0.45787,0.76311c-0.07631,0.15262 -0.15262,0.22893 -0.22893,0.30524h0.45787c-0.07631,-0.07631 -0.15262,-0.15262 -0.15262,-0.22893l0.07631,-0.07631c0,0 0.30524,0.22893 0.30524,0.45787c0,0.15262 -0.15262,0.15262 -0.15262,0c0,0 0,0 0,-0.07631h-0.61049v0c0,0 0,0.22893 -0.07631,0.22893c-0.07631,0 -0.07631,-0.15262 -0.07631,-0.15262c0.07631,-0.38156 0.30524,-0.53418 0.53418,-0.76311c0.07631,0 0.07631,-0.07631 0.15262,-0.15262h-0.53418c0.07631,0.15262 0.22893,0.22893 0.22893,0.22893l-0.15262,0.15262c-0.38156,-0.38156 -0.30524,-0.76311 -0.22893,-0.91573c0.15262,-0.22893 0.38156,-0.45787 0.45787,-0.53418c0.07631,-0.07631 0.15262,-0.07631 0.15262,-0.15262h-0.38156c0.07631,0.07631 0.15262,0.15262 0.15262,0.15262l-0.15262,0.07631c-0.22893,-0.22893 -0.22893,-0.38156 -0.22893,-0.38156c0,0 -0.07631,-0.15262 0,-0.15262c0.15262,-0.07631 0.15262,0.07631 0.15262,0.07631c0,0 0,0.07631 0.07631,0.07631h0.45787v-0.07631c0,0 0.07631,-0.15262 0.15262,-0.07631c0.07631,0 0.07631,0.07631 0.07631,0.07631zM315.91735,179.04611v0.07631c0,0.07631 0,0.15262 0,0.15262h0.53418c0.07631,-0.07631 0,-0.15262 0,-0.22893z" fill="#4e4e50" fill-rule="nonzero"/><path d="M319.80922,176.37522l0.15262,0.38156l-1.22098,0.53418l-1.22098,-0.53418l0.22893,-0.38156l-0.53418,-0.6868l0.53418,-0.61049l-0.22893,-0.38156l1.22098,-0.61049l1.22098,0.61049c0,0 -0.15262,0.22893 -0.22893,0.38156c0.07631,0 0.61049,0.61049 0.61049,0.61049z" fill="#00abe8" fill-rule="nonzero"/><path d="M317.51989,174.69637l0.22893,0.38156l-0.53418,0.61049l0.53418,0.6868l-0.22893,0.38156l1.22098,0.53418l1.22098,-0.53418l-0.15262,-0.38156l0.53418,-0.6868c0,0 -0.53418,-0.61049 -0.61049,-0.61049c0.07631,-0.15262 0.22893,-0.38156 0.22893,-0.38156l-1.22098,-0.61049zM318.81718,173.93326l1.22098,0.61049c0.07631,0 0.07631,0.07631 0.15262,0.07631c0,0.07631 0,0.15262 -0.07631,0.15262c0,0.07631 -0.07631,0.15262 -0.15262,0.30524c0.07631,0 0.15262,0.07631 0.22893,0.22893c0.15262,0.15262 0.30524,0.30524 0.30524,0.30524l0.07631,0.07631v0c0,0.07631 -0.07631,0.07631 -0.07631,0.15262l-0.53418,0.53418l0.15262,0.30524c0.07631,0 0.07631,0.07631 0.07631,0.07631c-0.07631,0.07631 -0.07631,0.07631 -0.15262,0.15262l-1.22098,0.53418c0,0 0,0 -0.07631,0v0v0v0v0v0v0c0,0 0,0 -0.07631,0l-1.22098,-0.53418c0,-0.07631 -0.07631,-0.07631 -0.07631,-0.15262v-0.07631l0.15262,-0.30524l-0.45787,-0.53418c-0.07631,-0.07631 -0.07631,-0.15262 0,-0.22893l0.53418,-0.53418l-0.22893,-0.30524c0,0 0,-0.07631 0,-0.15262l0.07631,-0.07631l1.22098,-0.61049c0.07631,0 0.07631,0 0.07631,0c0.07631,0 0.07631,0 0.07631,0z" fill="#4e4e50" fill-rule="nonzero"/><path d="M319.19873,174.54375c-0.07631,0.30524 -0.30524,0.45787 -0.30524,0.53418c-0.07631,0.07631 -0.22893,0.22893 -0.38156,0.38156h0.53418c-0.07631,-0.07631 -0.22893,-0.22893 -0.22893,-0.22893l0.15262,-0.07631c0,0 0.22893,0.22893 0.30524,0.53418c0,0.38156 -0.22893,0.61049 -0.45787,0.76311c-0.15262,0.07631 -0.22893,0.22893 -0.22893,0.30524h0.45787c-0.07631,-0.07631 -0.15262,-0.15262 -0.22893,-0.22893l0.15262,-0.07631c0,0 0.22893,0.22893 0.22893,0.38156c0.07631,0.22893 -0.15262,0.15262 -0.07631,0.07631l-0.07631,-0.07631h-0.53418v0c0,0 0,0.15262 -0.07631,0.15262c-0.15262,0 -0.07631,-0.07631 -0.07631,-0.07631c0.07631,-0.38156 0.30524,-0.53418 0.53418,-0.76311c0.07631,-0.07631 0.07631,-0.15262 0.15262,-0.15262l-0.53418,-0.07631c0.07631,0.22893 0.22893,0.30524 0.22893,0.30524l-0.15262,0.07631c-0.38156,-0.30524 -0.30524,-0.6868 -0.22893,-0.83942c0.07631,-0.30524 0.30524,-0.45787 0.45787,-0.53418c0.07631,-0.07631 0.07631,-0.15262 0.15262,-0.22893h-0.38156c0.07631,0.15262 0.15262,0.22893 0.15262,0.22893l-0.15262,0.07631c-0.22893,-0.22893 -0.22893,-0.45787 -0.22893,-0.45787c0,0 -0.07631,-0.07631 0,-0.07631c0.07631,-0.07631 0.15262,0 0.15262,0c0,0.07631 0,0.07631 0,0.15262h0.53418v-0.07631c0,0 0,-0.15262 0.15262,-0.15262c0.07631,0 0,0.15262 0,0.15262zM318.51193,175.61211v0.07631c0,0.07631 0,0.15262 0,0.15262h0.53418c0,-0.07631 0,-0.15262 0,-0.22893z" fill="#4e4e50" fill-rule="nonzero"/><path d="M320.3434,185.99043l-0.07631,-0.07631c-0.07631,-0.07631 -0.07631,-0.15262 0,-0.15262l1.22098,-1.3736v-2.59458l-1.22098,-1.29729c-0.07631,-0.07631 -0.07631,-0.07631 -0.07631,-0.15262c0,-0.07631 0.07631,-0.15262 0.15262,-0.15262h4.73129c0.15262,0 0.15262,0.07631 0.15262,0.15262c0,0.07631 0,0.15262 0,0.15262l-1.22098,1.29729v2.59458l1.22098,1.3736c0,0 0,0.07631 0,0.15262c0,0 -0.07631,0.07631 -0.15262,0.07631z" fill="#695ba3" fill-rule="nonzero"/><path d="M320.3434,180.3434v0l1.29729,1.3736v2.7472l-1.29729,1.3736h4.73129l-1.22098,-1.3736v-2.7472l1.22098,-1.3736v0v0zM325.37994,180.3434c0,0.15262 0,0.22893 -0.07631,0.22893l-1.14467,1.29729v2.51827l1.14467,1.22098c0.07631,0.07631 0.07631,0.22893 0.07631,0.30524c-0.07631,0.15262 -0.15262,0.22893 -0.30524,0.22893h-4.73129c-0.07631,0 -0.22893,-0.07631 -0.22893,-0.22893c-0.07631,-0.07631 -0.07631,-0.22893 0,-0.30524l1.22098,-1.22098v-2.51827l-1.22098,-1.29729c0,-0.07631 -0.07631,-0.15262 -0.07631,-0.22893c0,-0.15262 0.15262,-0.22893 0.30524,-0.22893h4.73129c0.22893,0 0.30524,0.07631 0.30524,0.22893z" fill="#fefefe" fill-rule="nonzero"/><path d="M323.54847,181.10651c-0.15262,0.45787 -0.53418,0.83942 -0.6868,0.91573c-0.07631,0.07631 -0.38156,0.38156 -0.53418,0.6868h0.83942c-0.07631,-0.22893 -0.30524,-0.45787 -0.30524,-0.45787l0.22893,-0.15262c0,0 0.45787,0.38156 0.45787,0.99205c0,0.61049 -0.38156,0.99205 -0.76311,1.29729c-0.22893,0.15262 -0.30524,0.38156 -0.38156,0.45787h0.76311c-0.07631,-0.07631 -0.22893,-0.22893 -0.30524,-0.30524l0.22893,-0.15262c0,0 0.45787,0.38156 0.45787,0.6868c0,0.38156 -0.30524,0.30524 -0.30524,0.07631c0.07631,0 0,-0.07631 0,-0.07631l-0.91573,-0.07631v0.07631c0,0 -0.07631,0.30524 -0.22893,0.30524c-0.15262,0 -0.07631,-0.22893 -0.07631,-0.22893c0.07631,-0.6868 0.53418,-0.91573 0.91573,-1.29729c0.07631,-0.07631 0.15262,-0.22893 0.22893,-0.30524h-0.83942c0.07631,0.22893 0.30524,0.45787 0.30524,0.45787l-0.22893,0.15262c-0.61049,-0.61049 -0.53418,-1.22098 -0.38156,-1.52622c0.22893,-0.45787 0.53418,-0.76311 0.76311,-0.91573c0.07631,-0.07631 0.22893,-0.22893 0.30524,-0.30524h-0.6868c0.07631,0.15262 0.22893,0.22893 0.22893,0.22893l-0.22893,0.22893c-0.38156,-0.38156 -0.45787,-0.76311 -0.45787,-0.76311c0,0 -0.07631,-0.15262 0.07631,-0.22893c0.15262,-0.07631 0.22893,0.15262 0.22893,0.15262c0,0 0,0.07631 0.07631,0.15262h0.83942l0.07631,-0.07631c0,0 0,-0.30524 0.22893,-0.22893c0.07631,0 0.07631,0.22893 0.07631,0.22893zM322.25118,182.86167c0,0.07631 0,0.15262 0,0.22893c0,0.07631 0,0.15262 0,0.22893h0.99205c0,-0.15262 0,-0.30524 0,-0.45787z" fill="#fefefe" fill-rule="nonzero"/></g></g></g></svg>