<svg version="1.1" xmlns="http://www.w3.org/2000/svg" xmlns:xlink="http://www.w3.org/1999/xlink" width="19.1542" height="19.1541" viewBox="0,0,19.1542,19.1541"><g transform="translate(-310.4229,-170.42295)"><g data-paper-data="{&quot;isPaintingLayer&quot;:true}" stroke="none" stroke-width="1" stroke-linecap="butt" stroke-linejoin="miter" stroke-miterlimit="10" stroke-dasharray="" stroke-dashoffset="0" style="mix-blend-mode: normal"><g><path d="M314.19849,187.73531c-1.06803,0 -1.93384,-0.8658 -1.93384,-1.93383v-11.60296c0,-1.06802 0.86581,-1.93383 1.93384,-1.93383h11.60303c1.06803,0 1.93384,0.8658 1.93384,1.93383v11.60296c0,1.06802 -0.86581,1.93383 -1.93384,1.93383z" fill="#fefefe" fill-rule="evenodd"/><path d="M314.19849,170.51504h11.60303c1.01296,0 1.93384,0.36835 2.57845,1.01296v0c0.7367,0.7367 1.10505,1.65757 1.10505,2.67052v11.60296c0,1.01296 -0.36835,1.93383 -1.10505,2.57844v0c-0.64461,0.7367 -1.56549,1.10504 -2.57845,1.10504h-11.60303c-1.01296,0 -1.93384,-0.36835 -2.67054,-1.10504v0c-0.64461,-0.64461 -1.01296,-1.56548 -1.01296,-2.57844v-11.60296c0,-1.01296 0.36835,-1.93383 1.01296,-2.67052v0c0.7367,-0.64461 1.65758,-1.01296 2.67054,-1.01296zM314.19849,172.26469h11.60303c1.01296,0 1.93384,0.82878 1.93384,1.93383v11.60296c0,1.01296 -0.92088,1.93383 -1.93384,1.93383h-11.60303c-1.10505,0 -1.93384,-0.92087 -1.93384,-1.93383v-11.60296c0,-1.10504 0.82879,-1.93383 1.93384,-1.93383z" fill="#ef7f1a" fill-rule="evenodd"/><path d="M314.19849,170.42295h11.60303c0.46044,0 1.01296,0.09209 1.38131,0.27626c0.46044,0.18417 0.92088,0.46044 1.28922,0.82878v0c0.27626,0.36835 0.64461,0.7367 0.82879,1.19713c0.18417,0.46044 0.27626,0.92087 0.27626,1.47339v11.60296c0,0.46044 -0.09209,1.01296 -0.27626,1.38131c-0.18418,0.46044 -0.55253,0.92087 -0.82879,1.28922v0c-0.36835,0.27626 -0.82879,0.64461 -1.28922,0.82878c-0.36835,0.18417 -0.92088,0.27626 -1.38131,0.27626h-11.60303c-0.55253,0 -1.01296,-0.09209 -1.4734,-0.27626c-0.46044,-0.18417 -0.82879,-0.55252 -1.19714,-0.82878v0c-0.36835,-0.36835 -0.64461,-0.82878 -0.82879,-1.28922c-0.18417,-0.36835 -0.27626,-0.92087 -0.27626,-1.38131v-11.60296c0,-0.55252 0.09209,-1.01296 0.27626,-1.47339c0.18417,-0.46044 0.46044,-0.82878 0.82879,-1.19713v0c0.36835,-0.36835 0.7367,-0.64461 1.19714,-0.82878c0.46044,-0.18417 0.92087,-0.27626 1.4734,-0.27626zM325.80151,170.51504h-11.60303c-0.55253,0 -1.01296,0.09209 -1.38131,0.27626c-0.46044,0.18417 -0.92087,0.46044 -1.19714,0.82878v0c-0.36835,0.27626 -0.64461,0.7367 -0.82879,1.19713c-0.18417,0.36835 -0.27626,0.82878 -0.27626,1.38131v11.60296c0,0.46044 0.09209,0.92087 0.27626,1.38131c0.18418,0.46044 0.46044,0.82878 0.82879,1.19713v0c0.27626,0.36835 0.7367,0.64461 1.19714,0.82878c0.36835,0.18417 0.82879,0.27626 1.38131,0.27626h11.60303c0.46044,0 0.92087,-0.09209 1.38131,-0.27626c0.46044,-0.18417 0.82879,-0.46044 1.19714,-0.82878v0c0.36835,-0.36835 0.64461,-0.7367 0.82879,-1.19713c0.18417,-0.46044 0.27626,-0.92087 0.27626,-1.38131v-11.60296c0,-0.55252 -0.09209,-1.01296 -0.27626,-1.38131c-0.18417,-0.46044 -0.46044,-0.92087 -0.82879,-1.19713v0c-0.36835,-0.36835 -0.7367,-0.64461 -1.19714,-0.82878c-0.46044,-0.18417 -0.92088,-0.27626 -1.38131,-0.27626zM314.19849,172.1726h11.60303c0.55253,0 1.01296,0.27626 1.38131,0.64461c0.36835,0.27626 0.64461,0.82878 0.64461,1.38131v11.60296c0,0.55252 -0.27626,1.01296 -0.64461,1.38131c-0.36835,0.36835 -0.82879,0.64461 -1.38131,0.64461h-11.60303c-0.55253,0 -1.10505,-0.27626 -1.38131,-0.64461c-0.36835,-0.36835 -0.64461,-0.82878 -0.64461,-1.38131v-11.60296c0,-0.55252 0.27626,-1.10504 0.64461,-1.38131c0.27626,-0.36835 0.82879,-0.64461 1.38131,-0.64461zM325.80151,172.26469h-11.60303c-0.55253,0 -1.01296,0.27626 -1.38131,0.55252c-0.27626,0.36835 -0.55252,0.82878 -0.55252,1.38131v11.60296c0,0.55252 0.27626,1.01296 0.55252,1.28922c0.36835,0.36835 0.82879,0.55252 1.38131,0.55252h11.60303c0.55253,0 1.01296,-0.18417 1.28922,-0.55252c0.36835,-0.27626 0.55253,-0.7367 0.55253,-1.28922v-11.60296c0,-0.55252 -0.18417,-1.01296 -0.55253,-1.38131c-0.27626,-0.27626 -0.7367,-0.55252 -1.28922,-0.55252z" fill="#fefefe" fill-rule="nonzero"/><path d="M322.76262,176.68487c-0.7367,0 -1.19714,-0.55252 -1.19714,-1.19713c0,-0.64461 0.46044,-1.19713 1.19714,-1.19713c0.64461,0 1.10505,0.55252 1.10505,1.19713c0,0.64461 -0.46044,1.19713 -1.10505,1.19713z" fill="#e63331" fill-rule="nonzero"/><path d="M322.76262,176.77695c-0.7367,0 -1.38131,-0.55252 -1.38131,-1.28922c0,-0.7367 0.64461,-1.38131 1.38131,-1.38131c0.64461,0 1.28923,0.64461 1.28923,1.28922v0.09209c0,0.7367 -0.64461,1.28922 -1.28923,1.28922zM322.76262,174.38269c-0.64461,0 -1.10505,0.55252 -1.10505,1.10504c0,0.55252 0.46044,1.01296 1.10505,1.01296c0.55253,0 1.01296,-0.46044 1.01296,-1.01296c0,-0.55252 -0.46044,-1.10504 -1.01296,-1.10504z" fill="#5a3547" fill-rule="nonzero"/><path d="M324.51229,178.61869c-0.64461,0 -1.19714,-0.55252 -1.19714,-1.19713c0,-0.64461 0.55252,-1.19713 1.19714,-1.19713c0.64461,0 1.19714,0.55252 1.19714,1.19713c0,0.64461 -0.55253,1.19713 -1.19714,1.19713z" fill="#e63331" fill-rule="nonzero"/><path d="M324.51229,178.71078c-0.7367,0 -1.38131,-0.55252 -1.38131,-1.28922c0,-0.7367 0.64461,-1.28922 1.38131,-1.28922c0.64461,0 1.28923,0.55252 1.28923,1.28922v0c0,0.7367 -0.64461,1.28922 -1.28923,1.28922zM324.51229,176.40861c-0.64461,0 -1.10505,0.46044 -1.10505,1.01296c0,0.55252 0.46044,1.01296 1.10505,1.01296c0.55253,0 1.01296,-0.46044 1.01296,-1.01296c0,-0.55252 -0.46044,-1.01296 -1.01296,-1.01296z" fill="#5a3547" fill-rule="nonzero"/><path d="M321.84175,185.7094c-0.92087,0 -1.74966,-0.36835 -2.30219,-1.10504c-0.09209,-0.09209 -0.09209,-0.18417 0,-0.18417c0.36835,-0.55252 0.55253,-1.10504 0.55253,-1.74965c0,-0.64461 -0.18417,-1.28922 -0.55253,-1.74965c-0.09209,-0.09209 -0.09209,-0.18417 0,-0.27626c0.55253,-0.64461 1.38131,-1.01296 2.30219,-1.01296c0.92087,0 1.74966,0.36835 2.39428,1.01296c0,0.09209 0,0.18417 0,0.27626c-0.46044,0.46044 -0.64461,1.10504 -0.64461,1.74965c0,0.64461 0.18418,1.19713 0.64461,1.74965c0,0 0,0.09209 0,0.18417c-0.64461,0.7367 -1.4734,1.10504 -2.39428,1.10504z" fill="#e84743" fill-rule="nonzero"/><path d="M319.63165,180.82878c0.36835,0.46044 0.64461,1.10504 0.64461,1.84174c0,0.64461 -0.27626,1.28922 -0.64461,1.84174c0.55252,0.64461 1.28922,1.01296 2.2101,1.01296c0.92087,0 1.74966,-0.36835 2.2101,-1.01296c-0.36835,-0.55252 -0.64461,-1.19713 -0.64461,-1.84174c0,-0.7367 0.27626,-1.38131 0.64461,-1.84174c-0.46044,-0.64461 -1.28923,-1.10504 -2.2101,-1.10504c-0.92087,0 -1.65758,0.46044 -2.2101,1.10504zM319.35539,184.69644c0,-0.09209 0,-0.09209 0,-0.18417v0c0,-0.09209 0,-0.18417 0,-0.18417c0.36835,-0.46044 0.64461,-1.10504 0.64461,-1.65757c0,-0.64461 -0.27626,-1.19713 -0.64461,-1.65757c0,-0.09209 0,-0.09209 0,-0.18417v-0.09209c0,0 0,-0.09209 0,-0.18417c0.64461,-0.7367 1.56549,-1.10504 2.48636,-1.10504c0.92087,0 1.84175,0.36835 2.48636,1.10504c0.09209,0.18417 0.09209,0.27626 0,0.46044c-0.36835,0.46044 -0.64461,1.01296 -0.64461,1.65757c0,0.55252 0.27626,1.19713 0.64461,1.65757c0.09209,0.09209 0.09209,0.27626 0,0.36835c-0.55252,0.64461 -1.28922,1.01296 -2.02592,1.10504h-0.92087c-0.7367,-0.09209 -1.4734,-0.46044 -2.02593,-1.10504z" fill="#4e4e50" fill-rule="nonzero"/><path d="M322.67054,180.55252c-0.09209,0.46044 -0.55253,0.82878 -0.64461,0.92087c-0.09209,0.09209 -0.46044,0.36835 -0.64461,0.7367h0.92087c-0.09209,-0.18417 -0.36835,-0.46044 -0.36835,-0.46044l0.27626,-0.18417c0,0 0.46044,0.46044 0.46044,1.01296c0.09209,0.64461 -0.36835,1.10504 -0.7367,1.38131c-0.27626,0.18417 -0.36835,0.36835 -0.46044,0.55252h0.82879c-0.09209,-0.18417 -0.18418,-0.27626 -0.27626,-0.36835l0.18417,-0.18417c0,0 0.46044,0.36835 0.46044,0.7367c0,0.36835 -0.27626,0.27626 -0.27626,0.09209v-0.09209h-1.01296v0c0,0 0,0.36835 -0.18418,0.27626c-0.18418,0 -0.09209,-0.18417 -0.09209,-0.18417c0.09209,-0.7367 0.55253,-0.92087 0.92088,-1.28922c0.18417,-0.18417 0.18417,-0.27626 0.27626,-0.36835l-0.92087,-0.09209c0.18417,0.36835 0.36835,0.55252 0.36835,0.55252l-0.18417,0.18417c-0.7367,-0.64461 -0.55253,-1.28922 -0.46044,-1.65757c0.18417,-0.46044 0.55253,-0.7367 0.7367,-0.92087c0.18418,-0.09209 0.27626,-0.18417 0.36835,-0.36835h-0.7367c0.18418,0.18417 0.27626,0.27626 0.27626,0.27626l-0.27626,0.27626c-0.36835,-0.46044 -0.46044,-0.82878 -0.46044,-0.82878c0,0 -0.09209,-0.18417 0.09209,-0.27626c0.18417,0 0.18417,0.18417 0.18417,0.18417c0.09209,0 0.09209,0.09209 0.09209,0.18417h0.92087c0,-0.09209 0.09209,-0.09209 0.09209,-0.09209c0,0 0,-0.27626 0.18417,-0.27626c0.18417,0 0.09209,0.27626 0.09209,0.27626zM321.38131,182.39426c-0.09209,0.09209 -0.09209,0.18417 -0.09209,0.18417c0,0.09209 0,0.18417 0.09209,0.27626h1.01296c0,-0.09209 0,-0.27626 0,-0.46044z" fill="#4e4e50" fill-rule="nonzero"/><path d="M317.42155,181.10504v0c-0.27626,0 -0.46044,-0.09209 -0.64461,-0.36835l-2.48636,-4.42018c-0.18417,-0.18417 -0.18417,-0.46044 0,-0.7367c0.09209,-0.27626 0.36835,-0.36835 0.64461,-0.36835h5.06481c0.27626,0 0.55253,0.09209 0.64461,0.36835c0.18417,0.27626 0.18417,0.55252 0,0.7367l-2.48636,4.42018c-0.18417,0.27626 -0.36835,0.36835 -0.7367,0.36835zM316.3165,176.77695l1.10505,2.02591l1.19714,-2.02591z" fill="#4e4e50" fill-rule="nonzero"/><path d="M318.71078,177.97409v0l-0.18417,0.18417v0l-0.82879,1.38131v0h0.18417l-0.46044,0.82878l-0.36835,-0.82878h0.18417v0l-0.82879,-1.38131v0l-0.18417,-0.18417v-0.09209l-1.01296,-1.74965h4.51229z" fill="#fcc127" fill-rule="nonzero"/><path d="M320.09209,176.04026l-1.38131,2.48635l-0.64461,1.01296l-0.46044,0.92087c0,0 -0.09209,0 -0.18418,0h-0.09209l-0.46044,-0.92087l-0.64461,-1.01296l-1.38131,-2.48635c-0.09209,0 -0.09209,-0.09209 0,-0.18417c0,0 0,-0.09209 0.09209,-0.09209h5.06481c0.09209,0 0.09209,0.09209 0.09209,0.09209c0.09209,0.09209 0.09209,0.18417 0,0.18417z" fill="#fefefe" fill-rule="nonzero"/><path d="M317.14529,180l-1.19714,-2.02591l0.27626,-0.46044l0.82879,-1.47339l0.18417,-0.36835h0.46044l1.10505,1.84174l0.18418,0.46044l-0.18418,0.27626l-1.01296,1.74965z" fill="#8c8e8f" fill-rule="nonzero"/><path d="M317.23738,175.67191l-0.18417,0.36835l-0.82879,1.47339v0.09209l-0.27626,0.36835l0.18417,0.18417l1.01296,1.84174h0.64461l1.01296,-1.84174l0.18418,-0.18417l-0.27626,-0.36835v-0.09209l-0.82879,-1.47339l-0.18417,-0.36835zM317.97408,175.94817l0.82879,1.56548v0l0.18418,0.46044h0.09209l-0.18417,0.27626l-1.10505,1.74965v0h-0.64461v0l-1.10505,-1.74965l-0.18417,-0.27626v0l0.27626,-0.46044v0l0.82879,-1.56548l0.18418,-0.36835h0.55253z" fill="#fefefe" fill-rule="nonzero"/><path d="M317.51364,175.57982v0.09209h-0.09209v-0.09209z" fill="#fefefe" fill-rule="nonzero"/><path d="M317.51364,175.764v0.09209h-0.09209v-0.09209z" fill="#fefefe" fill-rule="nonzero"/><path d="M317.51364,175.94817l0.09209,0.09209h-0.27626l0.09209,-0.09209z" fill="#fefefe" fill-rule="nonzero"/><path d="M317.60573,176.22443v0.18417h-0.27626v-0.18417z" fill="#fefefe" fill-rule="nonzero"/><path d="M317.60573,176.59278v0.36835h-0.27626v-0.36835z" fill="#fefefe" fill-rule="nonzero"/><path d="M317.60573,177.23739l0.09209,0.64461h-0.46044l0.09209,-0.64461z" fill="#fefefe" fill-rule="nonzero"/><path d="M317.7899,180.09209h-0.64461l0.09209,-1.56548h0.46044z" fill="#fefefe" fill-rule="nonzero"/><path d="M320.36835,176.22443l-1.4734,2.57844l-0.46044,0.7367l-0.55253,1.01296c-0.09209,0.18417 -0.27626,0.27626 -0.46044,0.27626c-0.09209,0 -0.27626,-0.09209 -0.36835,-0.27626l-0.55253,-1.01296l-0.46044,-0.7367l-1.4734,-2.57844c-0.09209,-0.18417 -0.09209,-0.36835 0,-0.46044c0.09209,-0.18417 0.18418,-0.27626 0.36835,-0.27626h5.06481c0.18417,0 0.27626,0.09209 0.36835,0.27626c0.09209,0.09209 0.09209,0.27626 0,0.46044zM320.09209,175.85608c0,0 0,-0.09209 -0.09209,-0.09209h-5.06481c-0.09209,0 -0.09209,0.09209 -0.09209,0.09209c-0.09209,0.09209 -0.09209,0.18417 0,0.18417l1.38131,2.48635l0.64461,1.01296l0.46044,0.92087h0.09209c0.09209,0 0.18418,0 0.18418,0l0.46044,-0.92087l0.64461,-1.01296l1.38131,-2.48635c0.09209,0 0.09209,-0.09209 0,-0.18417z" fill="#ed7e2e" fill-rule="nonzero"/><path d="M320.36835,176.22443l-1.4734,2.57844l-0.46044,0.7367l-0.55253,1.01296c-0.09209,0.18417 -0.27626,0.27626 -0.46044,0.27626c-0.09209,0 -0.27626,-0.09209 -0.36835,-0.27626l-0.55253,-1.01296l-0.46044,-0.7367l-1.4734,-2.57844c-0.09209,-0.18417 -0.09209,-0.36835 0,-0.46044c0.09209,-0.18417 0.18418,-0.27626 0.36835,-0.27626h5.06481c0.18417,0 0.27626,0.09209 0.36835,0.27626c0.09209,0.09209 0.09209,0.27626 0,0.46044zM320.09209,175.85608c0,0 0,-0.09209 -0.09209,-0.09209h-5.06481c-0.09209,0 -0.09209,0.09209 -0.09209,0.09209c-0.09209,0.09209 -0.09209,0.18417 0,0.18417l1.38131,2.48635l0.64461,1.01296l0.46044,0.92087h0.09209c0.09209,0 0.18418,0 0.18418,0l0.46044,-0.92087l0.64461,-1.01296l1.38131,-2.48635c0.09209,0 0.09209,-0.09209 0,-0.18417z" fill="#ed7e2e" fill-rule="nonzero"/><path d="M314.93519,175.85608c0,0 -0.09209,0 -0.09209,0.09209c0,0 0,0 0,0.09209l1.4734,2.39426l0.55253,1.10504l0.55252,0.82878v0.09209c0.09209,0 0.09209,-0.09209 0.09209,-0.09209l0.46044,-0.82878l0.64461,-1.10504l1.4734,-2.39426c0,-0.09209 0,-0.09209 0,-0.09209c-0.09209,-0.09209 -0.09209,-0.09209 -0.09209,-0.09209zM320.09209,175.85608c0.09209,0.09209 0.09209,0.18417 0,0.18417l-1.38131,2.48635l-0.64461,1.01296l-0.46044,0.92087c0,0 -0.09209,0 -0.18418,0h-0.09209l-0.46044,-0.92087l-0.64461,-1.01296l-1.38131,-2.48635c-0.09209,0 -0.09209,-0.09209 0,-0.18417c0,0 0,-0.09209 0.09209,-0.09209h5.06481c0.09209,0 0.09209,0.09209 0.09209,0.09209z" fill="#fefefe" fill-rule="nonzero"/></g></g></g></svg>