<svg version="1.1" xmlns="http://www.w3.org/2000/svg" xmlns:xlink="http://www.w3.org/1999/xlink" width="19.1541" height="19.1541" viewBox="0,0,19.1541,19.1541"><g transform="translate(-310.42295,-170.42295)"><g data-paper-data="{&quot;isPaintingLayer&quot;:true}" stroke="none" stroke-width="1" stroke-linecap="butt" stroke-linejoin="miter" stroke-miterlimit="10" stroke-dasharray="" stroke-dashoffset="0" style="mix-blend-mode: normal"><g><path d="M314.21048,187.73739c-1.07578,0 -1.94787,-0.87209 -1.94787,-1.94787v-11.57903c0,-1.07578 0.87209,-1.94787 1.94787,-1.94787h11.57903c1.07578,0 1.94787,0.87209 1.94787,1.94787v11.57903c0,1.07578 -0.87209,1.94787 -1.94787,1.94787z" fill="#fefefe" fill-rule="evenodd"/><path d="M314.21048,170.42295h11.57903c1.08215,0 1.94787,0.43286 2.59717,1.19037v0c0.75751,0.64929 1.08215,1.51501 1.08215,2.59717v11.57903c0,1.08215 -0.32465,1.94787 -1.08215,2.59717v0c-0.64929,0.75751 -1.51501,1.08215 -2.59717,1.08215h-11.57903c-1.08215,0 -1.94787,-0.32465 -2.59717,-1.08215v0c-0.75751,-0.64929 -1.19037,-1.51501 -1.19037,-2.59717v-11.57903c0,-1.08215 0.43286,-1.94787 1.19037,-2.59717v0c0.64929,-0.75751 1.51501,-1.19037 2.59717,-1.19037zM314.21048,172.26261h11.57903c1.08215,0 1.94787,0.86572 1.94787,1.94787v11.57903c0,1.08215 -0.86572,1.94787 -1.94787,1.94787h-11.57903c-1.08215,0 -1.94787,-0.86572 -1.94787,-1.94787v-11.57903c0,-1.08215 0.86572,-1.94787 1.94787,-1.94787z" fill="#ef7f1a" fill-rule="evenodd"/><path d="M314.21048,170.42295h11.57903c0.54108,0 0.97394,0.10822 1.4068,0.32465c0.54108,0.10822 0.86572,0.43286 1.29858,0.75751v0c0.32465,0.32465 0.54108,0.75751 0.75751,1.29858c0.21643,0.43286 0.32465,0.86572 0.32465,1.4068v11.57903c0,0.54108 -0.10822,0.97394 -0.32465,1.4068c-0.21643,0.54108 -0.43286,0.86572 -0.75751,1.29858v0c-0.43286,0.32465 -0.75751,0.54108 -1.29858,0.75751c-0.43286,0.21643 -0.86572,0.32465 -1.4068,0.32465h-11.57903c-0.54108,0 -0.97394,-0.10822 -1.4068,-0.32465c-0.54108,-0.21643 -0.97394,-0.43286 -1.29858,-0.75751v0c-0.32465,-0.43286 -0.64929,-0.75751 -0.75751,-1.29858c-0.21643,-0.43286 -0.32465,-0.86572 -0.32465,-1.4068v-11.57903c0,-0.54108 0.10822,-0.97394 0.32465,-1.4068c0.10822,-0.54108 0.43286,-0.97394 0.75751,-1.29858v0c0.32465,-0.32465 0.75751,-0.64929 1.29858,-0.75751c0.43286,-0.21643 0.86572,-0.32465 1.4068,-0.32465zM325.78952,170.53117h-11.57903c-0.54108,0 -0.97394,0.10822 -1.4068,0.21643c-0.43286,0.21643 -0.86572,0.54108 -1.19037,0.86572v0c-0.32465,0.32465 -0.64929,0.75751 -0.86572,1.19037c-0.10822,0.43286 -0.21643,0.86572 -0.21643,1.4068v11.57903c0,0.54108 0.10822,0.97394 0.21643,1.4068c0.21643,0.43286 0.54108,0.86572 0.86572,1.19037v0c0.32465,0.32465 0.75751,0.64929 1.19037,0.75751c0.43286,0.21643 0.86572,0.32465 1.4068,0.32465h11.57903c0.54108,0 0.97394,-0.10822 1.4068,-0.32465c0.43286,-0.10822 0.86572,-0.43286 1.19037,-0.75751v0c0.32465,-0.32465 0.64929,-0.75751 0.75751,-1.19037c0.21643,-0.43286 0.32465,-0.86572 0.32465,-1.4068v-11.57903c0,-0.54108 -0.10822,-0.97394 -0.32465,-1.4068c-0.10822,-0.43286 -0.43286,-0.86572 -0.75751,-1.19037v0c-0.32465,-0.32465 -0.75751,-0.64929 -1.19037,-0.86572c-0.43286,-0.10822 -0.86572,-0.21643 -1.4068,-0.21643zM314.21048,172.15439h11.57903c0.54108,0 1.08215,0.21643 1.4068,0.64929c0.32465,0.32465 0.64929,0.86572 0.64929,1.4068v11.57903c0,0.54108 -0.32465,1.08215 -0.64929,1.4068c-0.32465,0.32465 -0.86572,0.64929 -1.4068,0.64929h-11.57903c-0.54108,0 -1.08215,-0.32465 -1.4068,-0.64929c-0.43286,-0.32465 -0.64929,-0.86572 -0.64929,-1.4068v-11.57903c0,-0.54108 0.21643,-1.08215 0.64929,-1.4068c0.32465,-0.43286 0.86572,-0.64929 1.4068,-0.64929zM325.78952,172.26261h-11.57903c-0.54108,0 -0.97394,0.21643 -1.4068,0.54108c-0.32465,0.43286 -0.54108,0.86572 -0.54108,1.4068v11.57903c0,0.54108 0.21643,0.97394 0.54108,1.4068c0.43286,0.32465 0.86572,0.54108 1.4068,0.54108h11.57903c0.54108,0 0.97394,-0.21643 1.4068,-0.54108c0.32465,-0.43286 0.54108,-0.86572 0.54108,-1.4068v-11.57903c0,-0.54108 -0.21643,-0.97394 -0.54108,-1.4068c-0.43286,-0.32465 -0.86572,-0.54108 -1.4068,-0.54108z" fill="#fefefe" fill-rule="nonzero"/><path d="M321.89377,177.02408c-0.64929,0 -1.19037,-0.54108 -1.19037,-1.19037c0,-0.64929 0.54108,-1.19037 1.19037,-1.19037c0.64929,0 1.19037,0.54108 1.19037,1.19037c0,0.64929 -0.54108,1.19037 -1.19037,1.19037z" fill="#e63331" fill-rule="nonzero"/><path d="M321.89377,177.1323c-0.75751,0 -1.4068,-0.64929 -1.4068,-1.29858c0,-0.75751 0.64929,-1.4068 1.4068,-1.4068c0.64929,0 1.29858,0.64929 1.29858,1.29858v0.10822c0,0.75751 -0.64929,1.29858 -1.29858,1.29858zM321.89377,174.75156c-0.64929,0 -1.08215,0.43286 -1.08215,1.08215c0,0.54108 0.43286,0.97394 1.08215,0.97394c0.54108,0 0.97394,-0.43286 0.97394,-0.97394c0,-0.64929 -0.43286,-1.08215 -0.97394,-1.08215z" fill="#5a3547" fill-rule="nonzero"/><path d="M324.49093,176.80765c-0.64929,0 -1.19037,-0.54108 -1.19037,-1.19037c0,-0.64929 0.54108,-1.19037 1.19037,-1.19037c0.64929,0 1.19037,0.54108 1.19037,1.19037c0,0.64929 -0.54108,1.19037 -1.19037,1.19037z" fill="#e63331" fill-rule="nonzero"/><path d="M324.49093,176.91587c-0.75751,0 -1.29858,-0.64929 -1.29858,-1.29858c0,-0.75751 0.54108,-1.4068 1.29858,-1.4068c0.75751,0 1.29858,0.64929 1.29858,1.29858v0.10822c0,0.64929 -0.54108,1.29858 -1.29858,1.29858zM324.49093,174.53513c-0.54108,0 -1.08215,0.43286 -1.08215,1.08215c0,0.54108 0.54108,0.97394 1.08215,0.97394c0.54108,0 1.08215,-0.43286 1.08215,-0.97394c0,-0.64929 -0.54108,-1.08215 -1.08215,-1.08215z" fill="#5a3547" fill-rule="nonzero"/><path d="M323.40878,179.08017c-0.64929,0 -1.19037,-0.54108 -1.19037,-1.19037c0,-0.64929 0.54108,-1.19037 1.19037,-1.19037c0.64929,0 1.19037,0.54108 1.19037,1.19037c0,0.64929 -0.54108,1.19037 -1.19037,1.19037z" fill="#e63331" fill-rule="nonzero"/><path d="M323.40878,179.18839c-0.64929,0 -1.29858,-0.64929 -1.29858,-1.29858c0,-0.75751 0.64929,-1.4068 1.29858,-1.4068c0.75751,0 1.29858,0.64929 1.4068,1.29858v0.10822c-0.10822,0.75751 -0.64929,1.29858 -1.4068,1.29858zM323.40878,176.80765c-0.54108,0 -0.97394,0.43286 -0.97394,1.08215c0,0.54108 0.43286,0.97394 0.97394,0.97394c0.64929,0 1.08215,-0.43286 1.08215,-0.97394c0,-0.64929 -0.43286,-1.08215 -1.08215,-1.08215z" fill="#5a3547" fill-rule="nonzero"/><path d="M321.13626,182.97592l0.54108,0.86572l-3.13824,1.51501l-3.03003,-1.51501l0.54108,-0.86572l-1.51501,-1.62323l1.51501,-1.62323l-0.54108,-0.97394l3.03003,-1.4068l3.13824,1.4068c0,0 -0.43286,0.64929 -0.64929,0.97394l1.51501,1.62323z" fill="#00abe8" fill-rule="nonzero"/><path d="M315.50907,178.75552l0.54108,0.97394l-1.51501,1.62323l1.51501,1.62323l-0.54108,0.86572l3.03003,1.51501l3.13824,-1.51501l-0.54108,-0.86572l1.4068,-1.62323c0,0 -1.4068,-1.62323 -1.51501,-1.62323c0.21643,-0.32465 0.64929,-0.97394 0.64929,-0.97394l-3.13824,-1.4068zM318.75552,176.91587l3.03003,1.51501c0.10822,0 0.21643,0.10822 0.21643,0.21643c0.10822,0.10822 0,0.21643 0,0.32465c-0.10822,0.10822 -0.32465,0.43286 -0.43286,0.64929c0.10822,0.10822 0.32465,0.32465 0.54108,0.64929c0.43286,0.32465 0.75751,0.75751 0.75751,0.75751c0.10822,0.10822 0.10822,0.21643 0.10822,0.32465v0c0,0.10822 0,0.21643 -0.10822,0.21643l-1.19037,1.4068l0.32465,0.64929c0.10822,0.10822 0.10822,0.32465 0,0.43286c0,0.10822 -0.10822,0.10822 -0.21643,0.21643l-3.03003,1.4068c-0.10822,0 -0.10822,0.10822 -0.21643,0.10822v0v0v0v0v0v0l-0.10822,-0.10822l-3.13824,-1.4068c-0.10822,-0.10822 -0.10822,-0.10822 -0.21643,-0.21643c0,-0.10822 0,-0.32465 0.10822,-0.43286l0.32465,-0.64929l-1.19037,-1.4068c-0.21643,-0.10822 -0.21643,-0.32465 0,-0.54108l1.29858,-1.4068l-0.43286,-0.64929c-0.10822,-0.10822 -0.10822,-0.21643 -0.10822,-0.32465c0.10822,-0.10822 0.10822,-0.21643 0.21643,-0.21643l3.13824,-1.51501h0.10822c0.10822,0 0.10822,0 0.21643,0z" fill="#4e4e50" fill-rule="nonzero"/><path d="M319.72946,178.43088c-0.21643,0.64929 -0.75751,1.19037 -0.97394,1.29858c-0.10822,0.10822 -0.54108,0.54108 -0.75751,1.08215h1.19037c-0.10822,-0.32465 -0.43286,-0.64929 -0.43286,-0.64929l0.32465,-0.32465c0,0 0.64929,0.64929 0.64929,1.4068c0,0.86572 -0.54108,1.51501 -1.08215,1.94787c-0.32465,0.21643 -0.43286,0.54108 -0.54108,0.64929h1.08215c-0.10822,-0.10822 -0.32465,-0.32465 -0.43286,-0.43286l0.32465,-0.32465c0,0 0.64929,0.64929 0.64929,1.08215c0,0.54108 -0.43286,0.43286 -0.32465,0.21643c0,-0.10822 -0.10822,-0.21643 -0.10822,-0.21643l-1.29858,-0.10822c0,0.10822 0,0.10822 0,0.10822c0,0 -0.10822,0.43286 -0.32465,0.43286c-0.21643,0 -0.10822,-0.32465 -0.10822,-0.32465c0.10822,-0.97394 0.75751,-1.29858 1.29858,-1.83966c0.10822,-0.10822 0.21643,-0.32465 0.32465,-0.43286l-1.19037,-0.10822c0.10822,0.43286 0.43286,0.64929 0.43286,0.64929l-0.32465,0.32465c-0.97394,-0.86572 -0.75751,-1.73144 -0.54108,-2.27252c0.21643,-0.54108 0.75751,-1.08215 1.08215,-1.29858c0.10822,-0.10822 0.32465,-0.21643 0.43286,-0.43286h-0.97394c0.10822,0.21643 0.32465,0.43286 0.32465,0.43286l-0.32465,0.21643c-0.54108,-0.54108 -0.64929,-1.08215 -0.64929,-1.08215c0,0 -0.10822,-0.21643 0.10822,-0.32465c0.21643,-0.10822 0.32465,0.21643 0.32465,0.21643c0,0.10822 0,0.21643 0.10822,0.32465h1.19037c0.10822,-0.10822 0.10822,-0.21643 0.10822,-0.21643c0,0 0,-0.43286 0.32465,-0.32465c0.10822,0 0.10822,0.32465 0.10822,0.32465zM317.8898,181.02804c0,0.10822 0,0.21643 -0.10822,0.21643c0,0.21643 0.10822,0.32465 0.10822,0.43286h1.4068c0,-0.21643 0,-0.43286 0,-0.64929z" fill="#4e4e50" fill-rule="nonzero"/></g></g></g></svg>