<svg version="1.1" xmlns="http://www.w3.org/2000/svg" xmlns:xlink="http://www.w3.org/1999/xlink" width="19.1541" height="19.1541" viewBox="0,0,19.1541,19.1541"><g transform="translate(-310.42295,-170.42295)"><g data-paper-data="{&quot;isPaintingLayer&quot;:true}" stroke="none" stroke-width="1" stroke-linecap="butt" stroke-linejoin="miter" stroke-miterlimit="10" stroke-dasharray="" stroke-dashoffset="0" style="mix-blend-mode: normal"><g><path d="M314.18921,187.74773c-1.06974,0 -1.93693,-0.86719 -1.93693,-1.93693v-11.62159c0,-1.06974 0.86719,-1.93693 1.93693,-1.93693h11.62159c1.06974,0 1.93693,0.86719 1.93693,1.93693v11.62159c0,1.06974 -0.86719,1.93693 -1.93693,1.93693z" fill="#fefefe" fill-rule="evenodd"/><path d="M314.18921,170.42295h11.62159c0.96847,0 1.93693,0.43043 2.58258,1.18368v0c0.64564,0.64564 1.07607,1.5065 1.07607,2.58258v11.62159c0,0.96847 -0.43043,1.93693 -1.07607,2.58258v0c-0.64564,0.64564 -1.61411,1.07607 -2.58258,1.07607h-11.62159c-1.07607,0 -1.93693,-0.43043 -2.58258,-1.07607v0c-0.75325,-0.64564 -1.18368,-1.61411 -1.18368,-2.58258v-11.62159c0,-1.07607 0.43043,-1.93693 1.18368,-2.58258v0c0.64564,-0.75325 1.5065,-1.18368 2.58258,-1.18368zM314.18921,172.25227h11.62159c1.07607,0 1.93693,0.86086 1.93693,1.93693v11.62159c0,1.07607 -0.86086,1.93693 -1.93693,1.93693h-11.62159c-1.07607,0 -1.93693,-0.86086 -1.93693,-1.93693v-11.62159c0,-1.07607 0.86086,-1.93693 1.93693,-1.93693z" fill="#ef7f1a" fill-rule="evenodd"/><path d="M314.18921,170.42295h11.62159c0.43043,0 0.96847,0.10761 1.39889,0.32282c0.43043,0.10761 0.86086,0.43043 1.18368,0.75325v0c0.43043,0.43043 0.64564,0.75325 0.86086,1.29129c0.21521,0.43043 0.32282,0.86086 0.32282,1.39889v11.62159c0,0.43043 -0.10761,0.96847 -0.32282,1.39889c-0.21521,0.43043 -0.43043,0.86086 -0.86086,1.18368v0c-0.32282,0.43043 -0.75325,0.64564 -1.18368,0.86086c-0.43043,0.21521 -0.96847,0.32282 -1.39889,0.32282h-11.62159c-0.53804,0 -0.96847,-0.10761 -1.39889,-0.32282c-0.53804,-0.21521 -0.86086,-0.43043 -1.29129,-0.86086v0c-0.32282,-0.32282 -0.64564,-0.75325 -0.75325,-1.18368c-0.21521,-0.43043 -0.32282,-0.96847 -0.32282,-1.39889v-11.62159c0,-0.53804 0.10761,-0.96847 0.32282,-1.39889c0.10761,-0.53804 0.43043,-0.86086 0.75325,-1.29129v0c0.43043,-0.32282 0.75325,-0.64564 1.29129,-0.75325c0.43043,-0.21521 0.86086,-0.32282 1.39889,-0.32282zM325.81079,170.53056h-11.62159c-0.53804,0 -0.96847,0.10761 -1.39889,0.32282c-0.43043,0.10761 -0.86086,0.43043 -1.18368,0.75325v0c-0.32282,0.32282 -0.64564,0.75325 -0.75325,1.18368c-0.21521,0.43043 -0.32282,0.86086 -0.32282,1.39889v11.62159c0,0.43043 0.10761,0.96847 0.32282,1.39889c0.10761,0.43043 0.43043,0.86086 0.75325,1.18368v0c0.32282,0.32282 0.75325,0.53804 1.18368,0.75325c0.43043,0.21521 0.86086,0.32282 1.39889,0.32282h11.62159c0.43043,0 0.96847,-0.10761 1.39889,-0.32282c0.43043,-0.21521 0.86086,-0.43043 1.18368,-0.75325v0c0.32282,-0.32282 0.53804,-0.75325 0.75325,-1.18368c0.21521,-0.43043 0.32282,-0.96847 0.32282,-1.39889v-11.62159c0,-0.53804 -0.10761,-0.96847 -0.32282,-1.39889c-0.21521,-0.43043 -0.43043,-0.86086 -0.75325,-1.18368v0c-0.32282,-0.32282 -0.75325,-0.64564 -1.18368,-0.75325c-0.43043,-0.21521 -0.96847,-0.32282 -1.39889,-0.32282zM314.18921,172.14467h11.62159c0.53804,0 0.96847,0.21521 1.39889,0.64564c0.32282,0.32282 0.53804,0.86086 0.53804,1.39889v11.62159c0,0.53804 -0.21521,0.96847 -0.53804,1.39889c-0.43043,0.32282 -0.86086,0.53804 -1.39889,0.53804h-11.62159c-0.53804,0 -1.07607,-0.21521 -1.39889,-0.53804c-0.43043,-0.43043 -0.64564,-0.86086 -0.64564,-1.39889v-11.62159c0,-0.53804 0.21521,-1.07607 0.64564,-1.39889c0.32282,-0.43043 0.86086,-0.64564 1.39889,-0.64564zM325.81079,172.25227h-11.62159c-0.53804,0 -0.96847,0.21521 -1.39889,0.53804c-0.32282,0.43043 -0.53804,0.86086 -0.53804,1.39889v11.62159c0,0.53804 0.21521,0.96847 0.53804,1.29129c0.43043,0.32282 0.86086,0.53804 1.39889,0.53804h11.62159c0.53804,0 0.96847,-0.21521 1.29129,-0.53804c0.32282,-0.32282 0.53804,-0.75325 0.53804,-1.29129v-11.62159c0,-0.53804 -0.21521,-0.96847 -0.53804,-1.39889c-0.32282,-0.32282 -0.75325,-0.53804 -1.29129,-0.53804z" fill="#fefefe" fill-rule="nonzero"/><path d="M322.58258,176.77178c-0.64564,0 -1.18368,-0.53804 -1.18368,-1.18368c0,-0.64564 0.53804,-1.18368 1.18368,-1.18368c0.75325,0 1.18368,0.53804 1.18368,1.18368c0,0.64564 -0.43043,1.18368 -1.18368,1.18368z" fill="#e63331" fill-rule="nonzero"/><path d="M322.58258,176.87939c-0.64564,0 -1.29129,-0.53804 -1.29129,-1.29129c0,-0.75325 0.64564,-1.29129 1.29129,-1.29129c0.75325,0 1.39889,0.53804 1.39889,1.29129v0c0,0.75325 -0.64564,1.29129 -1.39889,1.29129zM322.58258,174.51203c-0.53804,0 -0.96847,0.53804 -0.96847,1.07607c0,0.53804 0.43043,1.07607 0.96847,1.07607c0.64564,0 1.07607,-0.53804 1.07607,-1.07607c0,-0.53804 -0.43043,-1.07607 -1.07607,-1.07607z" fill="#5a3547" fill-rule="nonzero"/><path d="M324.4119,178.70871c-0.64564,0 -1.18368,-0.53804 -1.18368,-1.18368c0,-0.64564 0.53804,-1.18368 1.18368,-1.18368c0.64564,0 1.18368,0.53804 1.18368,1.18368c0,0.64564 -0.53804,1.18368 -1.18368,1.18368z" fill="#e63331" fill-rule="nonzero"/><path d="M324.4119,178.81632c-0.75325,0 -1.29129,-0.53804 -1.29129,-1.29129c0,-0.75325 0.53804,-1.29129 1.29129,-1.29129c0.75325,0 1.29129,0.53804 1.29129,1.29129v0c0,0.75325 -0.53804,1.29129 -1.29129,1.29129zM324.4119,176.44896c-0.64564,0 -1.07607,0.53804 -1.07607,1.07607c0,0.53804 0.43043,1.07607 1.07607,1.07607c0.53804,0 1.07607,-0.53804 1.07607,-1.07607c0,-0.53804 -0.53804,-1.07607 -1.07607,-1.07607z" fill="#5a3547" fill-rule="nonzero"/><path d="M316.987,185.48797c0,0 -0.10761,0 -0.10761,-0.10761l-2.36736,-2.25975c0,-0.10761 -0.10761,-0.10761 -0.10761,-0.21521v-3.22822c0,-0.10761 0.10761,-0.10761 0.10761,-0.21521l2.36736,-2.25975c0,-0.10761 0.10761,-0.10761 0.10761,-0.10761h3.33583c0,0 0.10761,0 0.10761,0.10761l2.36736,2.25975c0,0.10761 0,0.10761 0,0.21521v3.22822c0,0.10761 0,0.10761 0,0.21521l-2.36736,2.25975c0,0.10761 -0.10761,0.10761 -0.10761,0.10761z" fill="#ed7f32" fill-rule="nonzero"/><path d="M316.987,177.30982l-2.36736,2.36736v3.22822l2.36736,2.36736h3.33583l2.25975,-2.36736v-3.22822l-2.25975,-2.36736zM322.9054,183.22822l-2.25975,2.36736c-0.10761,0.10761 -0.21521,0.10761 -0.32282,0.10761v0h-3.33583v0c-0.10761,0 -0.21521,0 -0.32282,-0.10761l-2.25975,-2.36736c-0.10761,-0.10761 -0.21521,-0.21521 -0.21521,-0.32282v-3.22822c0,-0.10761 0.10761,-0.21521 0.21521,-0.32282l2.25975,-2.36736c0.10761,0 0.21521,-0.10761 0.32282,-0.10761v0h3.33583v0c0.10761,0 0.21521,0.10761 0.32282,0.10761l2.25975,2.36736c0.10761,0.10761 0.10761,0.21521 0.10761,0.21521v3.44343c0,0.10761 0,0.21521 -0.10761,0.21521z" fill="#fefefe" fill-rule="nonzero"/><path d="M319.78479,178.38589c-0.21521,0.64564 -0.75325,1.18368 -0.96847,1.29129c0,0.10761 -0.53804,0.53804 -0.75325,1.07607h1.18368c-0.10761,-0.32282 -0.43043,-0.64564 -0.43043,-0.64564l0.32282,-0.32282c0,0 0.64564,0.64564 0.64564,1.5065c0.10761,0.86086 -0.53804,1.39889 -1.07607,1.93693c-0.32282,0.21521 -0.43043,0.43043 -0.53804,0.64564h1.07607c-0.10761,-0.21521 -0.32282,-0.32282 -0.43043,-0.53804l0.32282,-0.21521c0,0 0.64564,0.53804 0.64564,1.07607c0.10761,0.53804 -0.32282,0.32282 -0.32282,0.10761c0,0 0,-0.10761 -0.10761,-0.21521h-1.29129v0c0,0 -0.10761,0.53804 -0.32282,0.53804c-0.21521,-0.10761 -0.10761,-0.43043 -0.10761,-0.43043c0.10761,-0.86086 0.75325,-1.18368 1.29129,-1.72172c0.10761,-0.21521 0.21521,-0.43043 0.32282,-0.53804h-1.18368c0.10761,0.32282 0.43043,0.64564 0.43043,0.64564l-0.32282,0.21521c-0.96847,-0.86086 -0.75325,-1.72172 -0.53804,-2.25975c0.21521,-0.53804 0.75325,-1.07607 1.07607,-1.18368c0.21521,-0.21521 0.32282,-0.32282 0.43043,-0.53804h-0.96847c0.10761,0.21521 0.32282,0.43043 0.32282,0.43043l-0.32282,0.21521c-0.53804,-0.53804 -0.64564,-1.07607 -0.64564,-1.07607c0,0 -0.10761,-0.21521 0.10761,-0.32282c0.21521,-0.10761 0.32282,0.21521 0.32282,0.21521c0,0.10761 0,0.21521 0.10761,0.32282h1.18368c0.10761,-0.10761 0.10761,-0.21521 0.10761,-0.21521c0,0 0,-0.43043 0.32282,-0.32282c0.21521,0 0.10761,0.32282 0.10761,0.32282zM317.95546,180.96847c0,0.10761 0,0.21521 -0.10761,0.32282c0,0.10761 0.10761,0.21521 0.10761,0.32282h1.39889c0,-0.21521 0,-0.43043 0,-0.64564z" fill="#fefefe" fill-rule="nonzero"/></g></g></g></svg>