<svg version="1.1" xmlns="http://www.w3.org/2000/svg" xmlns:xlink="http://www.w3.org/1999/xlink" width="19.1541" height="19.1541" viewBox="0,0,19.1541,19.1541"><g transform="translate(-310.42295,-170.42295)"><g data-paper-data="{&quot;isPaintingLayer&quot;:true}" stroke="none" stroke-width="1" stroke-linecap="butt" stroke-linejoin="miter" stroke-miterlimit="10" stroke-dasharray="" stroke-dashoffset="0" style="mix-blend-mode: normal"><g><path d="M314.1141,187.68159c-1.04683,0 -1.89546,-0.84863 -1.89546,-1.89546v-11.67203c0,-1.04683 0.84863,-1.89546 1.89546,-1.89546h11.67203c1.04683,0 1.89546,0.84863 1.89546,1.89546v11.67203c0,1.04683 -0.84863,1.89546 -1.89546,1.89546z" fill="#fefefe" fill-rule="evenodd"/><path d="M314.21387,170.52271h11.57227c0.99761,0 1.89546,0.39904 2.59378,0.99761v0c0.69833,0.69833 1.09737,1.59617 1.09737,2.69355v11.57227c0,0.99761 -0.39904,1.89546 -1.09737,2.59378v0c-0.69833,0.69833 -1.59618,1.09737 -2.59378,1.09737h-11.57227c-1.09737,0 -1.99522,-0.39904 -2.69355,-1.09737v0c-0.59857,-0.69833 -0.99761,-1.59618 -0.99761,-2.59378v-11.57227c0,-1.09737 0.39904,-1.99522 0.99761,-2.69355v0c0.69833,-0.59857 1.59617,-0.99761 2.69355,-0.99761zM314.21387,172.21865h11.57227c1.09737,0 1.89546,0.89785 1.89546,1.99522v11.57227c0,1.09737 -0.79809,1.89546 -1.89546,1.89546h-11.57227c-1.09737,0 -1.99522,-0.79809 -1.99522,-1.89546v-11.57227c0,-1.09737 0.89785,-1.99522 1.99522,-1.99522z" fill="#ef7f1a" fill-rule="evenodd"/><path d="M314.21387,170.42295h11.57227c0.4988,0 0.99761,0.09976 1.39665,0.29928c0.4988,0.19952 0.89785,0.4988 1.29689,0.79809v0c0.29928,0.39904 0.59857,0.79809 0.79809,1.19713c0.19952,0.4988 0.29928,0.99761 0.29928,1.49641v11.57227c0,0.4988 -0.09976,0.99761 -0.29928,1.39665c-0.19952,0.4988 -0.4988,0.89785 -0.79809,1.29689v0c-0.39904,0.29928 -0.79809,0.59857 -1.29689,0.79809c-0.39904,0.19952 -0.89785,0.29928 -1.39665,0.29928h-11.57227c-0.4988,0 -0.99761,-0.09976 -1.49641,-0.29928c-0.39904,-0.19952 -0.79809,-0.4988 -1.19713,-0.79809v0c-0.29928,-0.39904 -0.59857,-0.79809 -0.79809,-1.29689c-0.19952,-0.39904 -0.29928,-0.89785 -0.29928,-1.39665v-11.57227c0,-0.4988 0.09976,-0.99761 0.29928,-1.49641c0.19952,-0.39904 0.4988,-0.79809 0.79809,-1.19713v0c0.39904,-0.29928 0.79809,-0.59857 1.19713,-0.79809c0.4988,-0.19952 0.99761,-0.29928 1.49641,-0.29928zM325.78613,170.52271h-11.57227c-0.4988,0 -0.99761,0.09976 -1.39665,0.29928c-0.4988,0.19952 -0.89785,0.39904 -1.19713,0.79809v0c-0.39904,0.29928 -0.59857,0.69833 -0.79809,1.19713c-0.19952,0.39904 -0.29928,0.89785 -0.29928,1.39665v11.57227c0,0.4988 0.09976,0.99761 0.29928,1.39665c0.19952,0.39904 0.39904,0.79809 0.79809,1.19713v0c0.29928,0.29928 0.69833,0.59857 1.19713,0.79809c0.39904,0.19952 0.89785,0.29928 1.39665,0.29928h11.57227c0.4988,0 0.99761,-0.09976 1.39665,-0.29928c0.39904,-0.19952 0.79809,-0.4988 1.19713,-0.79809v0c0.29928,-0.39904 0.59857,-0.79809 0.79809,-1.19713c0.19952,-0.39904 0.29928,-0.89785 0.29928,-1.39665v-11.57227c0,-0.4988 -0.09976,-0.99761 -0.29928,-1.39665c-0.19952,-0.4988 -0.4988,-0.89785 -0.79809,-1.19713v0c-0.39904,-0.39904 -0.79809,-0.59857 -1.19713,-0.79809c-0.39904,-0.19952 -0.89785,-0.29928 -1.39665,-0.29928zM314.21387,172.21865h11.57227c0.4988,0 0.99761,0.19952 1.39665,0.59857c0.39904,0.29928 0.59857,0.79809 0.59857,1.39665v11.57227c0,0.4988 -0.19952,0.99761 -0.59857,1.39665c-0.39904,0.39904 -0.89785,0.59857 -1.39665,0.59857h-11.57227c-0.59857,0 -1.09737,-0.19952 -1.39665,-0.59857c-0.39904,-0.39904 -0.59857,-0.89785 -0.59857,-1.39665v-11.57227c0,-0.59857 0.19952,-1.09737 0.59857,-1.39665c0.29928,-0.39904 0.79809,-0.59857 1.39665,-0.59857zM325.78613,172.31841h-11.57227c-0.59857,0 -0.99761,0.19952 -1.39665,0.4988c-0.29928,0.39904 -0.4988,0.79809 -0.4988,1.39665v11.57227c0,0.4988 0.19952,0.99761 0.4988,1.29689c0.39904,0.39904 0.79809,0.59857 1.39665,0.59857h11.57227c0.4988,0 0.99761,-0.19952 1.29689,-0.59857c0.39904,-0.29928 0.59857,-0.79809 0.59857,-1.29689v-11.57227c0,-0.59857 -0.19952,-0.99761 -0.59857,-1.39665c-0.29928,-0.29928 -0.79809,-0.4988 -1.29689,-0.4988z" fill="#fefefe" fill-rule="nonzero"/><path d="M317.60574,181.99522c-0.09976,0.09976 -0.29928,0.09976 -0.39904,0c-0.09976,-0.09976 -0.09976,-0.19952 0,-0.29928l4.38948,-4.68876c0.09976,-0.09976 0.19952,-0.09976 0.29928,0c0.09976,0.09976 0.09976,0.19952 0,0.29928z" fill="#2b2a29" fill-rule="nonzero"/><path d="M324.0902,176.50837c-0.69833,0 -1.19713,-0.4988 -1.19713,-1.19713c0,-0.69833 0.4988,-1.19713 1.19713,-1.19713c0.59857,0 1.19713,0.4988 1.19713,1.19713c0,0.69833 -0.59857,1.19713 -1.19713,1.19713z" fill="#e63331" fill-rule="nonzero"/><path d="M324.0902,176.60813c-0.69833,0 -1.29689,-0.59857 -1.29689,-1.29689c0,-0.69833 0.59857,-1.29689 1.29689,-1.29689c0.69833,0 1.29689,0.59857 1.29689,1.29689v0c0,0.69833 -0.59857,1.29689 -1.29689,1.29689zM324.0902,174.31363c-0.59857,0 -1.09737,0.39904 -1.09737,0.99761c0,0.59857 0.4988,0.99761 1.09737,0.99761c0.59857,0 0.99761,-0.39904 0.99761,-0.99761c0,-0.59857 -0.39904,-0.99761 -0.99761,-0.99761z" fill="#5a3547" fill-rule="nonzero"/><path d="M320.89785,185.98566c-0.09976,0 -0.09976,0 -0.19952,0c0,-0.09976 0,-0.19952 0.09976,-0.19952l1.19713,-1.29689v-2.59378l-1.19713,-1.39665c-0.09976,0 -0.09976,0 -0.09976,-0.09976c0,0 0.09976,-0.09976 0.19952,-0.09976h4.68876c0.09976,0 0.19952,0 0.19952,0.09976c0,0.09976 0,0.09976 -0.09976,0.09976l-1.19713,1.39665v2.59378l1.19713,1.29689c0.09976,0 0.09976,0.09976 0,0.19952c0,0 0,0 -0.09976,0z" fill="#695ba3" fill-rule="nonzero"/><path d="M320.89785,180.39904v0l1.19713,1.39665v2.69355l-1.19713,1.39665h4.68876l-1.19713,-1.39665v-2.69355l1.19713,-1.39665v0v0zM325.8859,180.39904c0,0.09976 0,0.19952 -0.09976,0.29928l-1.09737,1.19713v2.49402l1.09737,1.29689c0.09976,0.09976 0.09976,0.19952 0.09976,0.29928c-0.09976,0.09976 -0.19952,0.19952 -0.29928,0.19952h-4.68876c-0.09976,0 -0.19952,-0.09976 -0.29928,-0.19952c0,-0.09976 0,-0.19952 0.09976,-0.29928l1.09737,-1.29689v-2.49402l-1.19713,-1.29689c0,0 0,-0.09976 0,-0.19952c0,-0.09976 0.09976,-0.29928 0.29928,-0.29928h4.68876c0.19952,0 0.29928,0.19952 0.29928,0.29928z" fill="#fefefe" fill-rule="nonzero"/><path d="M323.99044,181.09737c-0.09976,0.4988 -0.4988,0.89785 -0.59857,0.99761c-0.09976,0 -0.39904,0.29928 -0.59857,0.69833h0.89785c-0.09976,-0.19952 -0.29928,-0.4988 -0.29928,-0.4988l0.19952,-0.19952c0,0 0.39904,0.39904 0.4988,0.99761c0,0.59857 -0.39904,0.99761 -0.79809,1.39665c-0.19952,0.09976 -0.29928,0.29928 -0.39904,0.39904h0.79809c-0.09976,-0.09976 -0.19952,-0.19952 -0.29928,-0.29928l0.19952,-0.19952c0,0 0.39904,0.39904 0.39904,0.79809c0.09976,0.29928 -0.19952,0.19952 -0.19952,0c0,0 0,0 0,-0.09976h-0.99761v0c0,0 0,0.29928 -0.19952,0.29928c-0.09976,0 -0.09976,-0.19952 -0.09976,-0.19952c0.09976,-0.59857 0.59857,-0.89785 0.89785,-1.29689c0.09976,-0.09976 0.19952,-0.19952 0.29928,-0.29928h-0.89785c0.09976,0.29928 0.29928,0.39904 0.29928,0.39904l-0.19952,0.19952c-0.59857,-0.59857 -0.4988,-1.19713 -0.29928,-1.49641c0.09976,-0.39904 0.4988,-0.79809 0.69833,-0.89785c0.09976,-0.09976 0.19952,-0.19952 0.29928,-0.29928l-0.69833,-0.09976c0.09976,0.19952 0.19952,0.29928 0.19952,0.29928l-0.19952,0.19952c-0.29928,-0.39904 -0.39904,-0.69833 -0.39904,-0.69833c0,0 -0.09976,-0.19952 0.09976,-0.29928c0.09976,0 0.19952,0.19952 0.19952,0.19952c0,0 0,0.09976 0,0.19952h0.89785c0,-0.09976 0,-0.09976 0,-0.09976c0,0 0.09976,-0.29928 0.29928,-0.29928c0.09976,0 0,0.19952 0,0.19952zM322.79331,182.89307c0,0.09976 -0.09976,0.19952 -0.09976,0.19952c0,0.09976 0,0.19952 0.09976,0.29928h0.89785c0.09976,-0.19952 0,-0.29928 0,-0.39904z" fill="#fefefe" fill-rule="nonzero"/><path d="M317.60574,178.90263h-1.09737v0c-1.29689,0 -2.2945,-1.09737 -2.2945,-2.49402c0,-1.39665 1.09737,-2.49402 2.39426,-2.49402c0,0 0,0 0.09976,0h0.89785z" fill="#ed9e34" fill-rule="nonzero"/><path d="M317.60574,179.10215h-1.09737v0v0v0v0c-1.39665,-0.09976 -2.49402,-1.19713 -2.49402,-2.69355c0,-1.39665 1.19713,-2.59378 2.59378,-2.59378v0v0v0h0.09976v0h0.89785c0.09976,0 0.19952,0 0.19952,0.09976v4.98805c0,0.09976 -0.09976,0.19952 -0.19952,0.19952zM316.50837,178.80287h0.99761v-4.68876h-0.89785v0c-1.19713,0 -2.19474,0.99761 -2.19474,2.2945c0,1.29689 0.89785,2.2945 2.09498,2.39426z" fill="#5b3523" fill-rule="nonzero"/><path d="M320,176.40861c0,1.39665 -1.09737,2.49402 -2.39426,2.49402c-1.29689,0 -2.39426,-1.09737 -2.39426,-2.49402c0,-1.39665 1.09737,-2.49402 2.39426,-2.49402c1.29689,0 2.39426,1.09737 2.39426,2.49402z" fill="#fcc127" fill-rule="nonzero"/><path d="M317.60574,179.10215c-1.39665,0 -2.59378,-1.19713 -2.59378,-2.69355c0,-1.39665 1.19713,-2.59378 2.59378,-2.59378v0c1.39665,0 2.49402,1.19713 2.49402,2.59378c0,1.49641 -1.09737,2.69355 -2.49402,2.69355zM317.60574,174.1141c-1.19713,0 -2.19474,0.99761 -2.19474,2.2945c0,1.29689 0.99761,2.39426 2.19474,2.39426c1.19713,0 2.19474,-1.09737 2.19474,-2.39426c0,-1.29689 -0.99761,-2.2945 -2.19474,-2.2945z" fill="#5b3523" fill-rule="nonzero"/><path d="M316.50837,175.51076c0,-0.09976 0,-0.09976 0.09976,-0.19952c0,0 0,0 0.09976,-0.09976c0,0 0,0 0.09976,0c0,-0.09976 0.09976,-0.09976 0.09976,-0.09976c0,-0.09976 0.09976,-0.09976 0.09976,-0.09976c0.09976,-0.09976 0.09976,-0.09976 0.19952,-0.09976c0,-0.09976 0.09976,-0.09976 0.09976,-0.09976c0.09976,0 0.09976,-0.09976 0.09976,-0.09976h0.09976v0c0.09976,0 0.09976,0 0.09976,0c0.09976,0 0.09976,0 0.19952,0h0.09976h0.09976c0.09976,0 0.09976,0 0.19952,0h0.09976h0.09976h0.09976v0.09976c0,0.09976 0,0.09976 0,0.09976c0.09976,0 0.09976,0.09976 0.09976,0.09976v0c0,0 0,0.09976 0,0.19952v0v0c0,0.09976 0,0.09976 -0.09976,0.09976c0,0.09976 0,0.09976 0,0.09976v0c0.09976,0.09976 0.09976,0.09976 0.09976,0.09976v0c0,0.09976 0,0.19952 0,0.39904c0,0.09976 0,0.19952 0,0.29928v0c0,0.29928 0,0.4988 0,0.69833v0.29928v0.29928c0,0.09976 -0.09976,0.19952 -0.09976,0.29928c0,0.09976 0,0.19952 0,0.19952v0.09976c0,0 0,0.09976 -0.09976,0.09976v0c-0.09976,0 -0.09976,0 -0.09976,0h-0.09976v0h-0.09976v0v0.09976h-0.09976v0h-0.09976h-0.09976c-0.09976,0 -0.09976,0 -0.09976,0v0l-0.09976,-0.09976v0h-0.09976v0v0v0c-0.09976,0 -0.09976,0 -0.09976,0h-0.09976c0,0 0,-0.09976 -0.09976,-0.09976v0v-0.09976c0,0 0,-0.09976 0,-0.19952c0,-0.09976 0,-0.09976 0,-0.19952v-0.19952c0,-0.09976 0,-0.19952 0,-0.19952c0,-0.09976 0,-0.09976 0,-0.19952v0v-0.09976v0v-0.29928v-0.19952v-0.09976c0,0 0,0 -0.09976,0c0,0 0,0 -0.09976,0h-0.09976v0c-0.09976,-0.09976 -0.09976,-0.09976 -0.09976,-0.09976c0,-0.09976 -0.09976,-0.09976 -0.09976,-0.19952c0,0 0,0 -0.09976,-0.09976v-0.09976v-0.09976c-0.09976,0 -0.09976,-0.09976 -0.09976,-0.09976c0,-0.09976 0,-0.09976 0,-0.09976zM316.90741,175.51076v0v0.09976v0c0,0 0,0 0,0.09976c0.09976,0 0.09976,0 0.09976,0.09976c0,0 0,0 0,0.09976h0.09976v0v0l0.09976,-0.09976v0h0.09976l0.29928,-0.29928v0.39904v0.29928v0.19952v0.29928v0.09976v0v0c0.09976,0 0.09976,0.09976 0.09976,0.09976v0l0.09976,0.09976c0,0.09976 -0.09976,0.09976 -0.09976,0.19952v0c0,0 0,0 -0.09976,0v0v0v0.09976v0.09976v0.19952c0,0.09976 0,0.19952 0,0.19952v0.09976v0h0.09976h0.09976h0.09976h0.09976v0h0.09976h0.09976v-0.09976c0,-0.09976 0,-0.19952 0,-0.29928v-0.29928v-0.29928c0,-0.19952 0,-0.39904 0,-0.69833v0c0,-0.09976 0,-0.19952 0,-0.29928c0,-0.09976 0,-0.19952 0,-0.29928c0,0 0,-0.09976 -0.09976,-0.09976v-0.09976c0,-0.09976 0,-0.09976 0,-0.09976v0c0.09976,-0.09976 0.09976,-0.09976 0.09976,-0.09976v-0.09976v0c-0.09976,0 -0.09976,0 -0.19952,0c0,0 0,-0.09976 -0.09976,-0.09976c-0.09976,0 -0.09976,0.09976 -0.09976,0.09976c-0.09976,0 -0.09976,0 -0.09976,0c-0.09976,0 -0.09976,0 -0.09976,0v0h-0.09976l-0.09976,0.09976c-0.09976,0 -0.09976,0 -0.19952,0.09976c0,0 0,0 -0.09976,0.09976h-0.09976c0,0.09976 0,0.09976 -0.09976,0.09976z" fill="#5b3523" fill-rule="nonzero"/><path d="M316.70789,175.51076c0,0 0,-0.09976 0.09976,-0.09976c0.09976,-0.09976 0.09976,-0.09976 0.19952,-0.19952c0.09976,-0.09976 0.19952,-0.09976 0.29928,-0.19952c0.09976,0 0.09976,-0.09976 0.19952,-0.09976c0,0 0.09976,0 0.19952,0c0,0 0.09976,0 0.19952,0c0.09976,0 0.19952,0 0.29928,0c0.09976,0 0.09976,0 0.19952,0c0,0 0,0 0,0.09976c0,0.09976 0,0.09976 0,0.19952c0,0 0,0.09976 -0.09976,0.09976v0.09976c0,0 0,0 0,0.09976c0.09976,0 0.09976,0 0.09976,0c0,0.19952 0,0.39904 0,0.69833c0,0.19952 0,0.39904 0,0.69833c0,0.19952 0,0.39904 0,0.59857c0,0.19952 0,0.39904 -0.09976,0.4988v0c0,0 -0.09976,0 -0.09976,0.09976c-0.09976,0 -0.09976,0 -0.19952,0h-0.09976c-0.09976,0 -0.09976,0 -0.19952,0c-0.09976,0 -0.09976,0 -0.09976,0c-0.09976,-0.09976 -0.09976,-0.09976 -0.19952,-0.09976v0c0,-0.09976 0,-0.29928 0,-0.39904c0,-0.09976 0,-0.29928 0,-0.39904v-0.09976h0.09976v0c0.09976,0 0.09976,-0.09976 0.09976,-0.09976c0,0 0,0 -0.09976,0v0l-0.09976,-0.09976v0c0,-0.19952 0,-0.29928 0,-0.4988c0,-0.19952 0,-0.29928 0,-0.4988c0,0 0,0 -0.09976,0.09976c0,0 0,0 -0.09976,0c0,0.09976 0,0.09976 -0.09976,0.09976c0,0 0,0 -0.09976,0c0,0 0,0 -0.09976,-0.09976c0,0 -0.09976,-0.09976 -0.09976,-0.19952c0,0 0,-0.09976 -0.09976,-0.19952z" fill="#fcc127" fill-rule="nonzero"/><path d="M316.70789,175.51076c0,0 0,-0.09976 0.09976,-0.09976c0.09976,-0.09976 0.09976,-0.09976 0.19952,-0.19952c0.09976,-0.09976 0.19952,-0.09976 0.29928,-0.19952c0.09976,0 0.09976,-0.09976 0.19952,-0.09976c0,0 0.09976,0 0.19952,0c0,0 0.09976,0 0.19952,0c0.09976,0 0.19952,0 0.29928,0c0.09976,0 0.09976,0 0.19952,0c0,0 0,0 0,0.09976c0,0.09976 0,0.09976 0,0.19952c0,0 0,0.09976 -0.09976,0.09976v0.09976c0,0 0,0 0,0.09976c0.09976,0 0.09976,0 0.09976,0c0,0.19952 0,0.39904 0,0.69833c0,0.19952 0,0.39904 0,0.69833c0,0.19952 0,0.39904 0,0.59857c0,0.19952 0,0.39904 -0.09976,0.4988v0c0,0 -0.09976,0 -0.09976,0.09976c-0.09976,0 -0.09976,0 -0.19952,0h-0.09976c-0.09976,0 -0.09976,0 -0.19952,0c-0.09976,0 -0.09976,0 -0.09976,0c-0.09976,-0.09976 -0.09976,-0.09976 -0.19952,-0.09976v0c0,-0.09976 0,-0.29928 0,-0.39904c0,-0.09976 0,-0.29928 0,-0.39904v-0.09976h0.09976v0c0.09976,0 0.09976,-0.09976 0.09976,-0.09976c0,0 0,0 -0.09976,0v0l-0.09976,-0.09976v0c0,-0.19952 0,-0.29928 0,-0.4988c0,-0.19952 0,-0.29928 0,-0.4988c0,0 0,0 -0.09976,0.09976c0,0 0,0 -0.09976,0c0,0.09976 0,0.09976 -0.09976,0.09976c0,0 0,0 -0.09976,0c0,0 0,0 -0.09976,-0.09976c0,0 -0.09976,-0.09976 -0.09976,-0.19952c0,0 0,-0.09976 -0.09976,-0.19952z" fill="#ed9e34" fill-rule="nonzero"/></g></g></g></svg>