<svg version="1.1" xmlns="http://www.w3.org/2000/svg" xmlns:xlink="http://www.w3.org/1999/xlink" width="19.1542" height="19.1541" viewBox="0,0,19.1542,19.1541"><g transform="translate(-310.4229,-170.42295)"><g data-paper-data="{&quot;isPaintingLayer&quot;:true}" stroke="none" stroke-width="1" stroke-linecap="butt" stroke-linejoin="miter" stroke-miterlimit="10" stroke-dasharray="" stroke-dashoffset="0" style="mix-blend-mode: normal"><g><path d="M314.25374,187.82582c-1.08808,0 -1.97015,-0.88206 -1.97015,-1.97014v-11.60191c0,-1.08808 0.88206,-1.97014 1.97015,-1.97014h11.60197c1.08808,0 1.97015,0.88206 1.97015,1.97014v11.60191c0,1.08808 -0.88206,1.97014 -1.97015,1.97014z" fill="#fefefe" fill-rule="evenodd"/><path d="M314.14429,170.42295h11.71143c0.98507,0 1.97015,0.43781 2.62686,1.09452v0.10945c0.65672,0.65671 1.09453,1.53233 1.09453,2.5174v11.71136c0,0.98507 -0.43781,1.97014 -1.09453,2.62685v0c-0.65672,0.65671 -1.64179,1.09452 -2.62686,1.09452h-11.71143c-0.98507,0 -1.86069,-0.43781 -2.51741,-1.09452h-0.10945c-0.65672,-0.65671 -1.09453,-1.64178 -1.09453,-2.62685v-11.71136c0,-0.98507 0.43781,-1.86068 1.09453,-2.5174l0.10945,-0.10945c0.65672,-0.65671 1.53234,-1.09452 2.51741,-1.09452zM314.14429,172.28363h11.71143c1.09453,0 1.97015,0.87562 1.97015,1.86068v11.71136c0,1.09452 -0.87562,1.97014 -1.97015,1.97014h-11.71143c-0.98507,0 -1.86069,-0.87562 -1.86069,-1.97014v-11.71136c0,-0.98507 0.87562,-1.86068 1.86069,-1.86068z" fill="#ef7f1a" fill-rule="evenodd"/><path d="M314.14429,170.42295h11.71143c0.54726,0 0.98507,0.10945 1.42288,0.32836c0.43781,0.10945 0.87562,0.43781 1.20398,0.76616v0c0.43781,0.32836 0.65672,0.76616 0.87562,1.20397c0.21891,0.43781 0.21891,0.98507 0.21891,1.42288v11.71136c0,0.54726 0,0.98507 -0.21891,1.42288c-0.21891,0.43781 -0.43781,0.87562 -0.87562,1.20397v0c-0.32836,0.43781 -0.76617,0.65671 -1.20398,0.87562c-0.43781,0.2189 -0.87562,0.2189 -1.42288,0.2189h-11.71143c-0.43781,0 -0.98507,0 -1.42288,-0.2189c-0.43781,-0.2189 -0.87562,-0.43781 -1.20398,-0.87562v0c-0.32836,-0.32836 -0.65672,-0.76616 -0.76617,-1.20397c-0.21891,-0.43781 -0.32836,-0.87562 -0.32836,-1.42288v-11.71136c0,-0.43781 0.10945,-0.98507 0.32836,-1.42288c0.10945,-0.43781 0.43781,-0.87562 0.76617,-1.20397v0c0.32836,-0.32836 0.76617,-0.65671 1.20398,-0.76616c0.43781,-0.2189 0.98507,-0.32836 1.42288,-0.32836zM325.85571,170.5324h-11.71143c-0.43781,0 -0.87562,0.10945 -1.31343,0.2189c-0.43781,0.2189 -0.87562,0.54726 -1.20398,0.87562v0c-0.32836,0.32836 -0.65672,0.76616 -0.87562,1.20397c-0.10945,0.43781 -0.21891,0.87562 -0.21891,1.31342v11.71136c0,0.43781 0.10945,0.98507 0.21891,1.42288c0.21891,0.43781 0.54726,0.87562 0.87562,1.20397v0c0.32836,0.32836 0.76617,0.54726 1.20398,0.76616c0.43781,0.2189 0.87562,0.32836 1.31343,0.32836h11.71143c0.43781,0 0.98507,-0.10945 1.42288,-0.32836c0.43781,-0.2189 0.87562,-0.43781 1.20398,-0.76616v0c0.32836,-0.32836 0.54726,-0.76616 0.76617,-1.20397c0.21891,-0.43781 0.32836,-0.98507 0.32836,-1.42288v-11.71136c0,-0.43781 -0.10945,-0.87562 -0.32836,-1.31342c-0.21891,-0.43781 -0.43781,-0.87562 -0.76617,-1.20397v0c-0.32836,-0.32836 -0.76617,-0.65671 -1.20398,-0.87562c-0.43781,-0.10945 -0.98507,-0.2189 -1.42288,-0.2189zM314.14429,172.17418h11.71143c0.54726,0 1.09453,0.2189 1.42288,0.65671c0.32836,0.32836 0.54726,0.76616 0.54726,1.31342v11.71136c0,0.54726 -0.21891,1.09452 -0.54726,1.42288c-0.32836,0.32836 -0.87562,0.54726 -1.42288,0.54726h-11.71143c-0.54726,0 -0.98507,-0.2189 -1.31343,-0.54726c-0.43781,-0.32836 -0.65672,-0.87562 -0.65672,-1.42288v-11.71136c0,-0.54726 0.21891,-0.98507 0.65672,-1.31342c0.32836,-0.43781 0.76617,-0.65671 1.31343,-0.65671zM325.85571,172.28363h-11.71143c-0.43781,0 -0.98507,0.2189 -1.31343,0.54726c-0.32836,0.32836 -0.54726,0.87562 -0.54726,1.31342v11.71136c0,0.54726 0.21891,0.98507 0.54726,1.31342c0.32836,0.32836 0.87562,0.54726 1.31343,0.54726h11.71143c0.54726,0 0.98507,-0.2189 1.31343,-0.54726c0.32836,-0.32836 0.54726,-0.76616 0.54726,-1.31342v-11.71136c0,-0.43781 -0.21891,-0.98507 -0.54726,-1.31342c-0.32836,-0.32836 -0.76617,-0.54726 -1.31343,-0.54726z" fill="#fefefe" fill-rule="nonzero"/><path d="M322.68159,176.99007c-0.65672,0 -1.20398,-0.54726 -1.20398,-1.20397c0,-0.65671 0.54726,-1.20397 1.20398,-1.20397c0.65672,0 1.20398,0.54726 1.20398,1.20397c0,0.65671 -0.54726,1.20397 -1.20398,1.20397z" fill="#e63331" fill-rule="nonzero"/><path d="M322.68159,177.09952c-0.76617,0 -1.31343,-0.54726 -1.31343,-1.31342c0,-0.76616 0.54726,-1.31342 1.31343,-1.31342c0.65672,0 1.31343,0.54726 1.31343,1.31342v0c0,0.76616 -0.65672,1.31342 -1.31343,1.31342zM322.68159,174.69158c-0.65672,0 -1.09453,0.54726 -1.09453,1.09452c0,0.54726 0.43781,1.09452 1.09453,1.09452c0.54726,0 0.98507,-0.54726 0.98507,-1.09452c0,-0.54726 -0.43781,-1.09452 -0.98507,-1.09452z" fill="#5a3547" fill-rule="nonzero"/><path d="M324.43283,178.96021c-0.65672,0 -1.20398,-0.54726 -1.20398,-1.20397c0,-0.65671 0.54726,-1.20397 1.20398,-1.20397c0.65672,0 1.20398,0.54726 1.20398,1.20397c0,0.65671 -0.54726,1.20397 -1.20398,1.20397z" fill="#e63331" fill-rule="nonzero"/><path d="M324.43283,179.06966c-0.76617,0 -1.31343,-0.54726 -1.31343,-1.31342c0,-0.76616 0.54726,-1.31342 1.31343,-1.31342c0.65672,0 1.31343,0.54726 1.31343,1.31342v0c0,0.76616 -0.65672,1.31342 -1.31343,1.31342zM324.43283,176.66171c-0.54726,0 -1.09453,0.54726 -1.09453,1.09452c0,0.54726 0.54726,0.98507 1.09453,0.98507c0.54726,0 0.98507,-0.43781 0.98507,-0.98507c0,-0.54726 -0.43781,-1.09452 -0.98507,-1.09452z" fill="#5a3547" fill-rule="nonzero"/><path d="M319.50746,185.41787h-1.64179v0c-1.86069,-0.10945 -3.28358,-1.75123 -3.28358,-3.72137c0,-1.97014 1.53234,-3.61192 3.39303,-3.61192c0.10945,0 0.10945,0 0.10945,0h1.42288z" fill="#ed9e34" fill-rule="nonzero"/><path d="M319.50746,185.63678h-1.64179v0v0v0v0c-1.97015,-0.10945 -3.61193,-1.75123 -3.61193,-3.94027c0,-2.07959 1.64179,-3.72137 3.72139,-3.83082h0.10945v0v0v0v0h1.42288c0.10945,0 0.21891,0.10945 0.21891,0.2189v7.33328c0,0.10945 -0.10945,0.2189 -0.21891,0.2189zM317.97513,185.19897h1.31343v-6.78602l-1.20398,-0.10945c0,0 0,0 -0.10945,0c-1.75124,0 -3.17412,1.53233 -3.17412,3.39301c0,1.86068 1.31343,3.39301 3.06467,3.39301c0.10945,0 0.10945,0 0.10945,0.10945z" fill="#5b3523" fill-rule="nonzero"/><path d="M322.90049,181.69651c0,2.07959 -1.53234,3.72137 -3.39303,3.72137c-1.97015,0 -3.50248,-1.64178 -3.50248,-3.72137c0,-1.97014 1.53234,-3.61192 3.50248,-3.61192c1.86069,0 3.39303,1.64178 3.39303,3.61192z" fill="#fcc127" fill-rule="nonzero"/><path d="M319.39801,185.63678c-1.97015,0 -3.61193,-1.75123 -3.61193,-3.94027c0,-2.07959 1.64179,-3.83082 3.61193,-3.83082h0.10945c1.97015,0 3.61193,1.75123 3.61193,3.83082c0,2.18904 -1.64179,3.94027 -3.61193,3.94027zM319.50746,178.30349c-1.86069,0 -3.28358,1.53233 -3.28358,3.39301c0,1.97014 1.42288,3.50246 3.28358,3.50246c1.75124,0 3.17412,-1.53233 3.17412,-3.50246c0,-1.86068 -1.42288,-3.39301 -3.17412,-3.39301z" fill="#5b3523" fill-rule="nonzero"/><path d="M317.97513,180.38308c0,-0.10945 0,-0.10945 0.10945,-0.10945c0,-0.10945 0,-0.10945 0.10945,-0.2189c0,0 0.10945,0 0.10945,-0.10945c0.10945,0 0.10945,-0.10945 0.21891,-0.10945c0,0 0.10945,-0.10945 0.21891,-0.10945c0,-0.10945 0.10945,-0.10945 0.10945,-0.2189c0.10945,0 0.21891,0 0.21891,-0.10945c0.10945,0 0.10945,0 0.21891,0v-0.10945h0.10945h0.10945c0.10945,0 0.10945,0 0.21891,0c0.10945,0 0.10945,0 0.21891,0h0.10945c0.10945,0 0.21891,0 0.21891,0c0.10945,0 0.10945,0 0.21891,0h0.10945l0.10945,0.10945v0.10945c0.10945,0 0.10945,0 0.10945,0.10945c0,0 0,0 0,0.10945c0,0 0,0.10945 0,0.32836v0c0,0 0,0 -0.10945,0.10945c0,0 0,0 0,0.10945c0,0 0,0 0,0.10945c0.10945,0 0.10945,0 0.10945,0.10945v0c0,0.10945 0,0.2189 0,0.43781c0,0.10945 0,0.32836 0,0.43781v0.10945c0,0.32836 0,0.65671 0,0.98507c0,0.10945 0,0.32836 0,0.43781c0,0.10945 0,0.32836 0,0.43781c0,0.2189 0,0.32836 0,0.43781c-0.10945,0.10945 -0.10945,0.2189 -0.10945,0.32836v0c0,0.10945 0,0.10945 -0.10945,0.10945c0,0 0,0 0,0.10945c-0.10945,0 -0.10945,0 -0.10945,0c-0.10945,0 -0.10945,0 -0.10945,0v0h-0.10945c-0.10945,0 -0.10945,0 -0.10945,0c-0.10945,0 -0.10945,0 -0.10945,0c-0.10945,0 -0.10945,0 -0.21891,0c0,0 0,0 -0.10945,0h-0.10945h-0.10945c-0.10945,0 -0.10945,0 -0.10945,0v0h-0.10945h-0.10945c0,-0.10945 0,-0.10945 -0.10945,-0.10945v0l-0.10945,-0.10945v0c0,-0.10945 0,-0.2189 0,-0.32836c0,-0.10945 0,-0.2189 0,-0.32836c0,-0.10945 0,-0.32836 0,-0.65671c0,0 0,0 0.10945,-0.10945v0c0,-0.10945 0,-0.10945 0,-0.10945v0c-0.10945,0 -0.10945,-0.10945 -0.10945,-0.10945v0v-0.32836c0,-0.2189 0,-0.32836 0,-0.43781c0,-0.10945 0,-0.2189 0,-0.32836v0l-0.10945,0.10945c0,0 0,0 -0.10945,0c0,0 0,0 -0.10945,0h-0.10945c-0.10945,-0.10945 -0.10945,-0.10945 -0.21891,-0.2189c0,0 0,0 0,-0.10945c-0.10945,0 -0.10945,-0.10945 -0.10945,-0.10945c-0.10945,-0.10945 -0.10945,-0.10945 -0.10945,-0.2189v-0.10945c-0.10945,-0.10945 -0.10945,-0.10945 -0.10945,-0.2189v-0.10945zM318.41294,180.38308c0,0 0,0 0,0.10945v0c0,0 0,0 0,0.10945v0c0,0 0,0 0,0.10945l0.10945,0.10945c0,0.10945 0,0.10945 0,0.10945c0.10945,0.10945 0.10945,0.10945 0.10945,0.10945c0,0.10945 0,0.10945 0,0.10945h0.10945v0v-0.10945h0.10945c0,0 0,0 0,-0.10945c0.10945,0 0.10945,0 0.10945,0v0l0.10945,-0.10945l0.32836,-0.2189v0.43781v0.32836c0,0.10945 0,0.2189 0,0.32836c0,0.10945 0,0.2189 0,0.43781v0.2189v0v0l0.10945,0.10945v0v0c0.10945,0.10945 0.10945,0.10945 0.10945,0.2189c0,0 0,0 0,0.10945c-0.10945,0 -0.10945,0 -0.10945,0.10945h-0.10945v0v0v0c0,0.2189 0,0.32836 0,0.54726c0,0.10945 0,0.2189 0,0.32836v0.10945v0c0.10945,0 0.10945,0.10945 0.10945,0.10945c0.10945,0 0.10945,0 0.10945,0c0.10945,0 0.10945,0 0.10945,0h0.10945c0.10945,0 0.10945,0 0.10945,0c0.10945,0 0.10945,0 0.10945,0c0.10945,0 0.10945,0 0.10945,0l0.10945,-0.10945c0.10945,0 0.10945,0 0.10945,0v-0.10945c0,-0.10945 0,-0.32836 0,-0.43781c0,-0.10945 0,-0.32836 0,-0.43781c0,-0.10945 0,-0.32836 0,-0.43781c0,-0.32836 0,-0.65671 0,-0.98507v-0.10945c0,-0.10945 0,-0.32836 0,-0.43781c0,-0.10945 0,-0.32836 0,-0.43781v0c0,-0.10945 -0.10945,-0.10945 -0.10945,-0.2189c0,-0.10945 0,-0.10945 0.10945,-0.10945c0,-0.10945 0,-0.10945 0,-0.2189v0c0,-0.10945 0,-0.10945 0,-0.2189v0h-0.10945c-0.10945,0 -0.10945,0 -0.21891,0l-0.10945,-0.10945c-0.10945,0 -0.21891,0.10945 -0.21891,0.10945h-0.10945c-0.10945,0 -0.10945,0 -0.21891,0v0h-0.10945c-0.10945,0.10945 -0.10945,0.10945 -0.21891,0.10945c0,0.10945 -0.10945,0.10945 -0.10945,0.2189c-0.10945,0 -0.21891,0 -0.21891,0.10945c-0.10945,0 -0.10945,0 -0.21891,0.10945c0,0 0,0.10945 -0.10945,0.10945z" fill="#5b3523" fill-rule="nonzero"/><path d="M318.19403,180.38308c0,0 0,-0.10945 0.10945,-0.10945c0.10945,-0.10945 0.21891,-0.2189 0.32836,-0.32836c0.10945,0 0.21891,-0.10945 0.32836,-0.2189c0.21891,-0.10945 0.32836,-0.10945 0.43781,-0.2189h0.10945c0.10945,0 0.21891,0 0.43781,0c0.10945,0 0.21891,0 0.32836,0c0.10945,0 0.21891,0 0.32836,0c0,0 0,0.10945 0,0.2189c0,0 0,0.10945 0,0.32836c0,0 0,0 0,0.10945c-0.10945,0 -0.10945,0 -0.10945,0.10945c0,0 0,0 0.10945,0.10945c0,0 0,0 0,0.10945c0,0.2189 0,0.54726 0,0.87562c0,0.32836 0,0.65671 0,1.09452c0,0.32836 0,0.54726 0,0.87562c0,0.32836 0,0.54726 0,0.76616h-0.10945h-0.10945c-0.10945,0 -0.21891,0 -0.21891,0c-0.10945,0 -0.21891,0 -0.32836,0c0,0 -0.10945,0 -0.21891,0c-0.10945,0 -0.10945,0 -0.21891,0c-0.10945,0 -0.10945,0 -0.10945,0c-0.10945,0 -0.10945,0 -0.10945,0c0,-0.2189 0,-0.43781 0,-0.65671c0,-0.2189 0,-0.43781 0,-0.65671v0c0.10945,0 0.10945,0 0.10945,-0.10945h0.10945v0c0,-0.10945 0,-0.10945 0,-0.10945h-0.10945c0,0 0,-0.10945 -0.10945,-0.10945v0c0,-0.2189 0,-0.54726 0,-0.76616c0,-0.2189 0,-0.43781 0,-0.65671c0,0 0,0 -0.10945,0c0,0.10945 -0.10945,0.10945 -0.10945,0.10945c-0.10945,0.10945 -0.10945,0.10945 -0.21891,0.10945c0,0 0,0.10945 -0.10945,0.10945c0,0 -0.10945,-0.10945 -0.10945,-0.2189c-0.10945,0 -0.10945,-0.10945 -0.21891,-0.2189c0,-0.10945 -0.10945,-0.2189 -0.10945,-0.32836c0,-0.10945 0,-0.10945 0,-0.2189z" fill="#fcc127" fill-rule="nonzero"/><path d="M318.19403,180.38308c0,0 0,-0.10945 0.10945,-0.10945c0.10945,-0.10945 0.21891,-0.2189 0.32836,-0.32836c0.10945,0 0.21891,-0.10945 0.32836,-0.2189c0.21891,-0.10945 0.32836,-0.10945 0.43781,-0.2189h0.10945c0.10945,0 0.21891,0 0.43781,0c0.10945,0 0.21891,0 0.32836,0c0.10945,0 0.21891,0 0.32836,0c0,0 0,0.10945 0,0.2189c0,0 0,0.10945 0,0.32836c0,0 0,0 0,0.10945c-0.10945,0 -0.10945,0 -0.10945,0.10945c0,0 0,0 0.10945,0.10945c0,0 0,0 0,0.10945c0,0.2189 0,0.54726 0,0.87562c0,0.32836 0,0.65671 0,1.09452c0,0.32836 0,0.54726 0,0.87562c0,0.32836 0,0.54726 0,0.76616h-0.10945h-0.10945c-0.10945,0 -0.21891,0 -0.21891,0c-0.10945,0 -0.21891,0 -0.32836,0c0,0 -0.10945,0 -0.21891,0c-0.10945,0 -0.10945,0 -0.21891,0c-0.10945,0 -0.10945,0 -0.10945,0c-0.10945,0 -0.10945,0 -0.10945,0c0,-0.2189 0,-0.43781 0,-0.65671c0,-0.2189 0,-0.43781 0,-0.65671v0c0.10945,0 0.10945,0 0.10945,-0.10945h0.10945v0c0,-0.10945 0,-0.10945 0,-0.10945h-0.10945c0,0 0,-0.10945 -0.10945,-0.10945v0c0,-0.2189 0,-0.54726 0,-0.76616c0,-0.2189 0,-0.43781 0,-0.65671c0,0 0,0 -0.10945,0c0,0.10945 -0.10945,0.10945 -0.10945,0.10945c-0.10945,0.10945 -0.10945,0.10945 -0.21891,0.10945c0,0 0,0.10945 -0.10945,0.10945c0,0 -0.10945,-0.10945 -0.10945,-0.2189c-0.10945,0 -0.10945,-0.10945 -0.21891,-0.2189c0,-0.10945 -0.10945,-0.2189 -0.10945,-0.32836c0,-0.10945 0,-0.10945 0,-0.2189z" fill="#ed9e34" fill-rule="nonzero"/></g></g></g></svg>